<svg xmlns="http://www.w3.org/2000/svg" viewBox="0 0 24 24" width="24" height="24">
  <defs id="defs3051">
    <style type="text/css" id="current-color-scheme">
      .ColorScheme-Text {
        color:#eff0f1;
      }
      </style>
  </defs>
  <g transform="translate(1,1)">
    <path style="fill:currentColor;fill-opacity:1;stroke:none" d="m 3,6 c 0,2 0,10 0,12 0,2 2,2 2,2 h 6 c 0,0 2,0 2,-2 C 13,16 13,8 13,6 13,4 11,4 11,4 H 5 C 5,4 3,4 3,6 Z M 15,4 v 1 c 2.209139,0 4,1.790861 4,4 0,2.209139 -1.790861,4 -4,4 v 1 c 2.761424,0 5,-2.238576 5,-5 C 20,6.238576 17.761424,4 15,4 Z M 6,6 h 4 V 7 H 6 Z m 9,0 v 1 c 1.10457,0 2,0.895431 2,2 0,1.104569 -0.89543,2 -2,2 v 1 c 1.656854,0 3,-1.343146 3,-3 C 18,7.343146 16.656854,6 15,6 Z M 4,6 C 4,5 5,5 5,5 h 6 c 0,0 1,0 1,1 0,1 0,11 0,12 0,1 -1,1 -1,1 H 5 C 5,19 4,19 4,18 4,17 4,7 4,6 Z m 11,2 c -0.552285,0 -1,0.4477153 -1,1 0,0.5522847 0.447715,1 1,1 0.552285,0 1,-0.4477153 1,-1 0,-0.5522847 -0.447715,-1 -1,-1 z" class="ColorScheme-Text"/>
  </g>
</svg>
