<svg xmlns="http://www.w3.org/2000/svg" viewBox="0 0 24 24" width="24" height="24">
  <defs id="defs3051">
    <style type="text/css" id="current-color-scheme">.ColorScheme-Text {color:#eff0f1;}</style>
  </defs>
  <g transform="translate(1,1)">
    <path style="fill:currentColor;fill-opacity:1;stroke:none" d="m 11,5 v 7 c 0,0 0,-1 -1,-1 -1,0 -6,0 -6,0 0,0 -2.0072254,0 -2,2 0.00723,2 0,3 0,5 0,2 2,2 2,2 h 7 6 c 0,0 2,0 2,-2 0,-2 0,-13 0,-13 0,0 0,-2 -2,-2 -2,0 -2,0 -4,0 -2,0 -2,2 -2,2 z m 1,0 c 0,0 0,-1 1,-1 1,0 3,0 4,0 1,0 1,1 1,1 0,0 0,12 0,13 0,1 -1,1 -1,1 0,0 -3,0 -4,0 -1,0 -1,-1 -1,-1 z m 3,0 c -0.552285,0 -1,0.4477153 -1,1 0,0.5522847 0.447715,1 1,1 0.552285,0 1,-0.4477153 1,-1 0,-0.5522847 -0.447715,-1 -1,-1 z m 0,3 c -1.104569,0 -2,0.8954305 -2,2 0,1.104569 0.895431,2 2,2 1.104569,0 2,-0.895431 2,-2 0,-1.1045695 -0.895431,-2 -2,-2 z m 0,1 c 0.552285,0 1,0.4477153 1,1 0,0.552285 -0.447715,1 -1,1 -0.552285,0 -1,-0.447715 -1,-1 0,-0.5522847 0.447715,-1 1,-1 z M 3,13 c 0,-1 1,-1 1,-1 h 5 c 0,0 1,0 1,1 0,1 0,4 0,5 0,1 -1,1 -1,1 H 4 c 0,0 -1,0 -1,-1 0,-1 0,-4 0,-5 z m 3.5,0 C 5.1192881,13 4,14.119288 4,15.5 4,16.880712 5.1192881,18 6.5,18 7.8807119,18 9,16.880712 9,15.5 9,14.119288 7.8807119,13 6.5,13 Z m 0,1 C 7.3284271,14 8,14.671573 8,15.5 8,16.328427 7.3284271,17 6.5,17 5.6715729,17 5,16.328427 5,15.5 5,14.671573 5.6715729,14 6.5,14 Z" class="ColorScheme-Text"/>
  </g>
</svg>
