<?xml version="1.0" encoding="UTF-8" standalone="no"?>
<svg
  width="16"
  height="16"
  version="1.1"
  id="svg6"
  xmlns="http://www.w3.org/2000/svg"
  xmlns:svg="http://www.w3.org/2000/svg">
 <defs
   id="defs10" />
 <style
   type="text/css"
   id="current-color-scheme">
      .ColorScheme-Text {
        color:#eff0f1;
      }
      .ColorScheme-Background {
        color:#eff0f1;
      }
      .ColorScheme-Highlight {
        color:#3daee9;
      }
      .ColorScheme-ViewText {
        color:#31363b;
      }
      .ColorScheme-ViewBackground {
        color:#fcfcfc;
      }
      .ColorScheme-ViewHover {
        color:#93cee9;
      }
      .ColorScheme-ViewFocus{
        color:#3daee9;
      }
      .ColorScheme-ButtonText {
        color:#31363b;
      }
      .ColorScheme-ButtonBackground {
        color:#eff0f1;
      }
      .ColorScheme-ButtonHover {
        color:#93cee9;
      }
      .ColorScheme-ButtonFocus{
        color:#3daee9;
      }
      </style>
 <g
   id="16-16-kdeconnect"
   transform="translate(-303,-537.36218)">
  <rect
    y="537.36218"
    x="303"
    height="16"
    width="16"
    id="rect4442"
    style="opacity:1;fill:none;fill-opacity:1;stroke:none;stroke-width:0.10079;stroke-linecap:square;stroke-linejoin:miter;stroke-miterlimit:4;stroke-dasharray:none;stroke-dashoffset:0;stroke-opacity:1" />
  <path
    style="opacity:1;fill:currentColor;fill-opacity:1;stroke:none"
    d="m -14,12 c 0,0 0,6 0,8 0,2 2,2 2,2 v -1 c 0,0 -1,0 -1,-1 0,-1 0,-8 0,-8 0,0 0,-1 1,-1 1,0 3,0 4,0 1,0 1,1 1,1 v 2 h 1 v -2 c 0,0 0,-2 -2,-2 -2,0 -2,0 -4,0 -2,0 -2,2 -2,2 z m 3,-0.532226 h 2 V 12 h -2 z M -8.5,14 -8.7773438,15.107422 c -0.2521224,0.0672 -0.4944012,0.166996 -0.7207031,0.296875 l -0.9765621,-0.585938 -0.707032,0.707032 0.585938,0.976562 c -0.131391,0.226716 -0.232511,0.469668 -0.300781,0.722656 L -12,17.5 v 1 l 1.107422,0.277344 c 0.0672,0.252122 0.166996,0.494401 0.296875,0.720703 l -0.585938,0.976562 0.707032,0.707032 0.9765621,-0.585938 c 0.2267157,0.131391 0.4696687,0.232511 0.7226563,0.300781 L -8.5,22 h 1 l 0.2773438,-1.107422 c 0.2521224,-0.0672 0.4944012,-0.166996 0.7207031,-0.296875 l 0.9765625,0.585938 0.7070312,-0.707032 -0.5859375,-0.976562 c 0.1313906,-0.226716 0.2325116,-0.469668 0.3007813,-0.722656 L -4,18.5 v -1 l -1.1074219,-0.277344 c -0.067196,-0.252122 -0.1669964,-0.494401 -0.296875,-0.720703 l 0.5859375,-0.976562 -0.7070312,-0.707032 -0.9765625,0.585938 C -6.7286688,15.272906 -6.9716218,15.171786 -7.2246094,15.103516 L -7.5,14 Z m 0.5,2 c 0.066528,-4.9e-5 0.1330169,0.0032 0.1992188,0.0098 0.066202,0.0065 0.1320386,0.01626 0.1972656,0.0293 0.065917,0.01363 0.1311043,0.03058 0.1953125,0.05078 0.063599,0.01965 0.1261766,0.04247 0.1875,0.06836 0.061286,0.02564 0.1212562,0.05433 0.1796875,0.08594 0.058364,0.0323 0.1150755,0.0675 0.1699218,0.105468 0.055379,0.03766 0.1088319,0.07807 0.1601563,0.121094 0.051082,0.0431 0.099971,0.08873 0.1464844,0.136719 0.046042,0.04729 0.089715,0.09683 0.1308593,0.148437 0.041796,0.05268 0.080908,0.10744 0.1171876,0.164063 0.036086,0.05624 0.069331,0.114258 0.099609,0.173828 0.029683,0.05918 0.056408,0.119806 0.080078,0.181641 0.024632,0.06204 0.046144,0.125266 0.064453,0.189453 0.017571,0.06435 0.031912,0.129532 0.042969,0.195312 0.01114,0.06597 0.018962,0.132462 0.023437,0.199219 0.0036,0.04678 0.00556,0.09367 0.00586,0.140586 5.87e-5,0.06653 -0.0032,0.133016 -0.00977,0.199219 -0.00648,0.0662 -0.016257,0.132038 -0.029297,0.197265 -0.013629,0.06592 -0.030578,0.131105 -0.050781,0.195313 -0.019652,0.0636 -0.042467,0.126177 -0.068359,0.1875 -0.025644,0.06129 -0.054325,0.121256 -0.085937,0.179687 -0.032301,0.05836 -0.067501,0.115076 -0.1054688,0.169922 -0.037658,0.05538 -0.078073,0.108832 -0.1210937,0.160156 -0.043097,0.05108 -0.088727,0.09997 -0.1367188,0.146485 -0.04729,0.04604 -0.096829,0.08972 -0.1484375,0.130859 -0.052682,0.0418 -0.1074396,0.08091 -0.1640625,0.117188 -0.056242,0.03609 -0.1142577,0.06933 -0.1738281,0.09961 -0.059184,0.02968 -0.1198055,0.05641 -0.1816406,0.08008 -0.062036,0.02463 -0.1252662,0.04614 -0.1894532,0.06445 -0.064347,0.01757 -0.1295324,0.03191 -0.1953124,0.04297 -0.065972,0.01114 -0.1324623,0.01896 -0.1992188,0.02344 -0.027922,0.0039 -0.055923,0.0071 -0.083984,0.0098 h -0.1367187 c -0.039802,-0.0021 -0.079534,-0.0053 -0.1191407,-0.0098 -0.066202,-0.0065 -0.1320386,-0.01626 -0.1972656,-0.0293 -0.065917,-0.01363 -0.1311043,-0.03058 -0.1953125,-0.05078 -0.063599,-0.01965 -0.1261766,-0.04247 -0.1875,-0.06836 -0.061286,-0.02564 -0.1212562,-0.05433 -0.1796875,-0.08594 -0.058364,-0.0323 -0.1150755,-0.0675 -0.1699218,-0.105469 -0.055379,-0.03766 -0.1088319,-0.07807 -0.1601563,-0.121094 -0.030112,-0.02646 -0.059423,-0.05381 -0.087891,-0.08203 l -0.087891,-0.08789 c -0.035317,-0.0371 -0.069196,-0.07554 -0.1015624,-0.115234 -0.041796,-0.05268 -0.080908,-0.10744 -0.1171876,-0.164063 -0.036086,-0.05624 -0.069331,-0.114258 -0.099609,-0.173828 -0.029683,-0.05918 -0.056408,-0.119805 -0.080078,-0.18164 -0.024632,-0.06204 -0.046143,-0.125267 -0.064453,-0.189454 -0.017571,-0.06435 -0.031912,-0.129532 -0.042969,-0.195312 -0.01114,-0.06597 -0.018962,-0.132462 -0.023437,-0.199219 -0.0036,-0.04679 -0.00555,-0.0937 -0.00586,-0.140625 -5.9e-5,-0.06653 0.0032,-0.133016 0.00977,-0.199218 0.00648,-0.0662 0.016257,-0.132039 0.029297,-0.197266 0.01363,-0.06592 0.030578,-0.131105 0.050781,-0.195313 0.019652,-0.0636 0.042467,-0.126177 0.068359,-0.1875 0.025643,-0.06129 0.054325,-0.121256 0.085937,-0.179687 0.032301,-0.05836 0.067501,-0.115076 0.1054688,-0.169922 0.037658,-0.05538 0.078073,-0.108832 0.1210937,-0.160156 0.043097,-0.05108 0.088727,-0.09997 0.1367188,-0.146485 0.04729,-0.04604 0.096829,-0.08972 0.1484375,-0.130859 0.052683,-0.0418 0.1074396,-0.08091 0.1640625,-0.117188 0.056242,-0.03609 0.1142577,-0.06933 0.1738281,-0.09961 0.059184,-0.02968 0.1198055,-0.05641 0.1816406,-0.08008 0.062036,-0.02463 0.1252662,-0.04614 0.1894532,-0.06445 0.064347,-0.01757 0.1295324,-0.03191 0.1953124,-0.04297 0.065972,-0.01114 0.1324623,-0.01896 0.1992188,-0.02344 C -8.093877,16.004857 -8.046974,16.001601 -8,16 Z"
    transform="translate(321,529.36218)"
    id="rect4148"
    class="ColorScheme-Text" />
 </g>
</svg>
