<?xml version="1.0" encoding="UTF-8" standalone="no"?>
<svg
   height="16"
   width="16"
   version="1.1"
   id="svg29"
   sodipodi:docname="libreoffice-writer.svg"
   inkscape:version="1.1.2 (0a00cf5339, 2022-02-04)"
   xmlns:inkscape="http://www.inkscape.org/namespaces/inkscape"
   xmlns:sodipodi="http://sodipodi.sourceforge.net/DTD/sodipodi-0.dtd"
   xmlns="http://www.w3.org/2000/svg"
   xmlns:svg="http://www.w3.org/2000/svg">
  <defs
     id="defs33" />
  <sodipodi:namedview
     id="namedview31"
     pagecolor="#ffffff"
     bordercolor="#666666"
     borderopacity="1.0"
     inkscape:pageshadow="2"
     inkscape:pageopacity="0.0"
     inkscape:pagecheckerboard="0"
     showgrid="true"
     inkscape:zoom="38.875"
     inkscape:cx="8"
     inkscape:cy="7.9871383"
     inkscape:window-width="1920"
     inkscape:window-height="1015"
     inkscape:window-x="0"
     inkscape:window-y="0"
     inkscape:window-maximized="1"
     inkscape:current-layer="svg29">
    <inkscape:grid
       type="xygrid"
       id="grid850" />
  </sodipodi:namedview>
  <linearGradient
     id="a"
     gradientTransform="matrix(.66725341 0 0 .68966 34.383476 1.931)"
     gradientUnits="userSpaceOnUse"
     x2="0"
     y1="785.71002"
     y2="727.71002">
    <stop
       offset="0"
       stop-color="#22a7f0"
       id="stop2" />
    <stop
       offset="1"
       stop-color="#19b5fe"
       id="stop4" />
  </linearGradient>
  <linearGradient
     id="b"
     gradientTransform="translate(396.57 514.46761)"
     gradientUnits="userSpaceOnUse"
     x2="0"
     y1="20"
     y2="4">
    <stop
       offset="0"
       stop-color="#60c0f4"
       id="stop7" />
    <stop
       offset="1"
       stop-color="#b9e9ff"
       id="stop9" />
  </linearGradient>
  <linearGradient
     id="c"
     gradientUnits="userSpaceOnUse"
     x1="16"
     x2="32"
     y1="16"
     y2="32">
    <stop
       offset="0"
       stop-color="#383e51"
       id="stop12" />
    <stop
       offset="1"
       stop-color="#655c6f"
       stop-opacity="0"
       id="stop14" />
  </linearGradient>
  <g
     transform="matrix(0.37486677,0,0,0.37486677,-145.65985,-188.85255)"
     id="g25">
    <path
       d="m 393.89954,511.78863 0,34.67899 h 32.01138 v -28.00996 l -14.94465,-14.67187 h -9.19489 c -5.20422,0 -7.87184,2.66761 -7.87184,8.00284 z"
       fill="url(#a)"
       stroke-width="0.95785"
       id="path17"
       sodipodi:nodetypes="ccccccc" />
    <path
       d="m 36.00569,17.32386 -21.340917,-3e-6 v 2.667615 l 2.667615,2.667614 -2.667615,2.667614 2.667615,2.667615 v 2.667614 h -2.667615 l 2.667615,2.667615 h -2.667615 v 2.667614 l 10.670458,10.670458 h 16.005687 v -24.00853 z"
       fill="url(#c)"
       fill-rule="evenodd"
       opacity="0.2"
       transform="translate(384.57,499.8)"
       id="path19" />
    <path
       d="m 393.9024,543.79999 h 32.00853 v 2.66761 H 393.9024 Z"
       fill="#2e3132"
       fill-opacity="0.294"
       stroke-width="1.6335"
       id="path21" />
    <path
       d="m 399.23477,517.12386 v 2.66761 h 21.34092 v -2.66761 z m 0,5.33523 v 2.66761 h 16.00569 v -2.66761 z m 0,5.33522 v 2.66762 h 2.66762 v -2.66762 z m 0,5.33523 v 2.66762 h 13.33808 v -2.66762 z m 16.00569,0 v 2.66762 h 2.66761 v -2.66762 z"
       fill="url(#b)"
       id="path23" />
  </g>
  <path
     d="m14 0v4l-4-4z"
     fill="#2584b7"
     id="path27" />
</svg>
