<?xml version="1.0" encoding="UTF-8" standalone="no"?>
<svg
   width="64"
   version="1.1"
   height="64"
   id="svg2"
   inkscape:version="1.3.2 (091e20ef0f, 2023-11-25)"
   sodipodi:docname="system-file-manager.svg"
   xmlns:inkscape="http://www.inkscape.org/namespaces/inkscape"
   xmlns:sodipodi="http://sodipodi.sourceforge.net/DTD/sodipodi-0.dtd"
   xmlns:xlink="http://www.w3.org/1999/xlink"
   xmlns="http://www.w3.org/2000/svg"
   xmlns:svg="http://www.w3.org/2000/svg"
   xmlns:rdf="http://www.w3.org/1999/02/22-rdf-syntax-ns#"
   xmlns:cc="http://creativecommons.org/ns#"
   xmlns:dc="http://purl.org/dc/elements/1.1/">
  <sodipodi:namedview
     pagecolor="#ffffff"
     bordercolor="#666666"
     borderopacity="1"
     objecttolerance="10"
     gridtolerance="10"
     guidetolerance="10"
     inkscape:pageopacity="0"
     inkscape:pageshadow="2"
     inkscape:window-width="1920"
     inkscape:window-height="1001"
     id="namedview17"
     showgrid="true"
     inkscape:snap-bbox="true"
     inkscape:bbox-nodes="true"
     inkscape:zoom="8.0000004"
     inkscape:cx="11.999999"
     inkscape:cy="44.062498"
     inkscape:current-layer="layer1"
     showguides="false"
     inkscape:guide-bbox="true"
     inkscape:object-nodes="true"
     inkscape:document-rotation="0"
     inkscape:window-x="0"
     inkscape:window-y="0"
     inkscape:window-maximized="1"
     inkscape:pagecheckerboard="0"
     inkscape:lockguides="false"
     inkscape:showpageshadow="2"
     inkscape:deskcolor="#d1d1d1">
    <inkscape:grid
       type="xygrid"
       id="grid4145"
       originx="0"
       originy="0"
       spacingy="1"
       spacingx="1"
       units="px"
       visible="true" />
    <sodipodi:guide
       position="26,40"
       orientation="0.70710678,0.70710678"
       id="guide4381"
       inkscape:locked="false" />
    <sodipodi:guide
       position="3,35"
       orientation="0.70710678,0.70710678"
       id="guide4401"
       inkscape:locked="false" />
  </sodipodi:namedview>
  <defs
     id="defs5455">
    <linearGradient
       inkscape:collect="always"
       id="linearGradient1038">
      <stop
         style="stop-color:#00bdbd;stop-opacity:1"
         offset="0"
         id="stop1034" />
      <stop
         style="stop-color:#80b3ff;stop-opacity:1"
         offset="1"
         id="stop1036" />
    </linearGradient>
    <linearGradient
       id="linearGradient4274"
       inkscape:collect="always">
      <stop
         id="stop4276"
         offset="0"
         style="stop-color:#ffffff;stop-opacity:1;" />
      <stop
         id="stop4278"
         offset="1"
         style="stop-color:#ffffff;stop-opacity:0.48760331" />
    </linearGradient>
    <linearGradient
       gradientUnits="userSpaceOnUse"
       x2="0"
       y2="509.8"
       y1="543.8"
       id="a">
      <stop
         id="stop4154"
         stop-color="#2f74c8" />
      <stop
         id="stop4156"
         stop-color="#4699d7"
         offset="1" />
    </linearGradient>
    <linearGradient
       gradientUnits="userSpaceOnUse"
       x2="428.57"
       y2="531.8"
       x1="414.57"
       y1="517.8"
       id="b">
      <stop
         id="stop4159"
         stop-color="#383e51" />
      <stop
         id="stop4161"
         stop-opacity="0"
         stop-color="#655c6f"
         offset="1" />
    </linearGradient>
    <linearGradient
       gradientUnits="userSpaceOnUse"
       x2="0"
       y2="508.8"
       y1="519.8"
       id="c">
      <stop
         id="stop4164"
         stop-opacity="0"
         stop-color="#60a5e7" />
      <stop
         id="stop4166"
         stop-opacity=".258"
         stop-color="#a6f3fb"
         offset="1" />
    </linearGradient>
    <linearGradient
       gradientTransform="translate(-390.57144,-497.798)"
       inkscape:collect="always"
       xlink:href="#linearGradient4274"
       id="linearGradient4272-3"
       x1="390.57144"
       y1="498.298"
       x2="442.57144"
       y2="498.298"
       gradientUnits="userSpaceOnUse" />
    <linearGradient
       gradientTransform="translate(-390.57144,-501.798)"
       inkscape:collect="always"
       xlink:href="#linearGradient4274"
       id="linearGradient4272-1"
       x1="390.57144"
       y1="498.298"
       x2="442.57144"
       y2="498.298"
       gradientUnits="userSpaceOnUse" />
    <linearGradient
       gradientTransform="translate(-6,-14)"
       inkscape:collect="always"
       xlink:href="#linearGradient4274"
       id="linearGradient4272-36"
       x1="390.57144"
       y1="498.298"
       x2="442.57144"
       y2="498.298"
       gradientUnits="userSpaceOnUse" />
    <linearGradient
       gradientUnits="userSpaceOnUse"
       x2="383.77145"
       y2="502.05301"
       y1="542.0531"
       id="a-2"
       x1="383.77145">
      <stop
         id="stop4304"
         stop-color="#197cf1" />
      <stop
         id="stop4306"
         stop-color="#20bcfa"
         offset="1" />
    </linearGradient>
    <linearGradient
       gradientUnits="userSpaceOnUse"
       x2="39.28"
       y2="36.633"
       x1="22.285"
       y1="18.71"
       id="b-9">
      <stop
         id="stop4309"
         stop-color="#292c2f" />
      <stop
         id="stop4311"
         stop-opacity="0"
         stop-color="#292c2f"
         offset="1" />
    </linearGradient>
    <linearGradient
       gradientTransform="translate(-386.72845,506.21259)"
       gradientUnits="userSpaceOnUse"
       x2="419.97357"
       y2="539.82538"
       x1="406.50085"
       y1="527.01447"
       id="c-1">
      <stop
         id="stop17"
         stop-color="#292c2f" />
      <stop
         id="stop19"
         stop-opacity="0"
         offset="1" />
    </linearGradient>
    <linearGradient
       gradientUnits="userSpaceOnUse"
       x2="0"
       y2="14"
       y1="34"
       id="b-8"
       gradientTransform="translate(-2.1584511,1006.0126)">
      <stop
         style="stop-color:#bfc9c9;stop-opacity:1"
         id="stop12"
         stop-color="#536161" />
      <stop
         style="stop-color:#fafafa;stop-opacity:1"
         id="stop14"
         stop-color="#f4f5f5"
         offset="1" />
    </linearGradient>
    <linearGradient
       x1="428.81628"
       gradientTransform="translate(-386.72845,506.21259)"
       gradientUnits="userSpaceOnUse"
       x2="388.86475"
       y2="499.67896"
       y1="547.63354"
       id="a-7">
      <stop
         id="stop7"
         stop-color="#2a2c2f" />
      <stop
         id="stop9"
         stop-color="#536161"
         offset="1" />
    </linearGradient>
    <linearGradient
       gradientTransform="matrix(1.299805,0,0,1.299805,-499.06524,339.52825)"
       gradientUnits="userSpaceOnUse"
       x2="419.97357"
       y2="539.82538"
       x1="406.50085"
       y1="527.01447"
       id="c-7">
      <stop
         id="stop17-5"
         stop-color="#292c2f" />
      <stop
         id="stop19-3"
         stop-opacity="0"
         offset="1" />
    </linearGradient>
    <linearGradient
       gradientUnits="userSpaceOnUse"
       x2="0"
       y2="14"
       y1="34"
       id="b-5"
       gradientTransform="matrix(1.299805,0,0,1.299805,0.8007798,989.17075)">
      <stop
         style="stop-color:#bfc9c9;stop-opacity:1"
         id="stop12-6"
         stop-color="#536161" />
      <stop
         style="stop-color:#fbfbfb;stop-opacity:1"
         id="stop14-2"
         stop-color="#f4f5f5"
         offset="1" />
    </linearGradient>
    <linearGradient
       x1="428.81628"
       gradientTransform="matrix(1.299805,0,0,1.299805,-499.06524,339.52825)"
       gradientUnits="userSpaceOnUse"
       x2="388.86475"
       y2="499.67896"
       y1="547.63354"
       id="a-9">
      <stop
         id="stop7-1"
         stop-color="#2a2c2f" />
      <stop
         id="stop9-2"
         stop-color="#536161"
         offset="1" />
    </linearGradient>
    <linearGradient
       xlink:href="#linearGradient1038"
       id="linearGradient4225-3"
       gradientUnits="userSpaceOnUse"
       x1="396.57101"
       y1="498.798"
       x2="426.57101"
       y2="511.798"
       gradientTransform="matrix(0.9655027,0,0,0.44404028,14.008346,285.06798)" />
    <linearGradient
       id="linearGradient1033"
       x1="0"
       x2="0"
       y1="0"
       y2="1">
      <stop
         offset="0"
         style="stop-color:#3b6ca7;stop-opacity:1;"
         id="stop1029" />
      <stop
         offset="0.50102341"
         style="stop-color:#00d4d4;stop-opacity:0.80000001;"
         id="stop1133" />
      <stop
         offset="1"
         style="stop-color:#3b6ca7;stop-opacity:1;"
         id="stop1031" />
    </linearGradient>
    <linearGradient
       inkscape:collect="always"
       xlink:href="#linearGradient1033"
       id="linearGradient1256"
       x1="416.57144"
       y1="524.79816"
       x2="443.8533"
       y2="524.79816"
       gradientUnits="userSpaceOnUse" />
  </defs>
  <metadata
     id="metadata5458">
    <rdf:RDF>
      <cc:Work
         rdf:about="">
        <dc:format>image/svg+xml</dc:format>
        <dc:type
           rdf:resource="http://purl.org/dc/dcmitype/StillImage" />
      </cc:Work>
    </rdf:RDF>
  </metadata>
  <g
     inkscape:label="Capa 1"
     inkscape:groupmode="layer"
     id="layer1"
     transform="translate(-384.57143,-483.798)">
    <rect
       style="fill:#3b6ca7;fill-opacity:0.25;stroke:none;stroke-width:1.25467"
       id="center-3"
       width="60.099998"
       height="41.596149"
       x="386.57147"
       y="497.92123"
       ry="3.9615335"
       rx="4.0066781" />
    <path
       d="m 442.73835,495.94988 h -29.32672 c -0.64817,0 -1.21496,-0.33041 -1.62011,-0.90932 l -2.1875,-3.30629 c -0.72899,-1.15727 -1.94446,-1.73627 -3.24023,-1.73627 h -14.98741 c -3.72689,0 -6.80495,3.14142 -6.80495,6.94371 v 38.60443 c 0,3.22394 2.59271,5.95186 5.83294,5.95186 h 25.19505 v 0 0 0 0 0 0 0 h 1.94402 v 0 0 0 0 0 0 0 0 0 h 25.19505 c 3.15951,0 5.83294,-2.64556 5.83294,-5.95186 v -33.64455 c 0,-3.30629 -2.59213,-5.95129 -5.83294,-5.95129 z M 417.54344,541.498 v 0 h -1.94402 v 0 0 z m 29.08353,-5.95167 c 0,2.14909 -1.70156,3.96773 -3.88848,3.96773 h -52.33441 c -2.1062,0 -3.88848,-1.81864 -3.88848,-3.96773 l -5.8e-4,-13.30904 v -7.52263 c 0,-2.14915 1.78229,-3.96777 3.88848,-3.96777 h 29.32671 c 1.29634,0 2.51126,-0.66138 3.24024,-1.73627 l 2.10619,-3.30629 c 0.40518,-0.49588 0.97198,-0.90933 1.62012,-0.90933 h 15.06842 c 2.67343,0 4.86107,2.23208 4.86107,4.96019 v 10.82892 z m -4.86107,-32.65259 h -15.06842 c -1.29634,0 -2.51126,0.6614 -3.24023,1.73626 l -2.1062,3.30629 c -0.3238,0.57891 -0.97198,0.90932 -1.62011,0.90932 h -29.32651 c -1.45794,0 -2.83331,0.16806 -3.889,1.68603 v -8.64904 c 0,-1.98075 2.05601,-3.96151 4.05603,-3.96151 h 16 l 0.0429,0.0459 2.9571,-0.0459 3.92107,0.0125 h 29.32672 c 2.10619,0 3.88848,1.81863 3.88848,3.96778 v 3.05845 c -1.29578,-1.32219 -2.99676,-2.06604 -4.94122,-2.06604 z"
       id="path64"
       sodipodi:nodetypes="csccsssssccccccccccccccccccsssccccccccccssccsssccssscccsccscccccccssscc"
       style="fill:#3b6ca7;fill-opacity:1;stroke-width:0.146133" />
    <path
       d="m 443.633,520.44622 c 0.0524,-1.08359 -1.10314,-2.19975 -1.5732,-2.60447 -2.59794,-6.57322 -11.92578,-4.27558 -13.74715,-3.75347 -4.74563,-3.01567 -8.40101,0.19584 -8.43369,0.22864 -0.17631,0.15677 -0.25444,0.39819 -0.20235,0.63309 0.0523,0.2284 0.2284,0.41121 0.45703,0.47657 1.4623,0.41772 2.56544,1.83439 3.0287,2.51986 -3.40733,3.98836 -3.53132,9.67358 -3.49875,11.13594 -4.24955,3.5183 -2.90477,7.14124 -2.83964,7.29767 0.0914,0.22838 0.30027,0.39167 0.54845,0.4112 0.0195,0.007 0.0391,0.007 0.0586,0.007 0.22187,0 0.4375,-0.11745 0.55495,-0.31329 0.77682,-1.25315 1.7495,-2.01043 2.88522,-2.25186 2.02999,-0.43075 4.00136,0.88126 4.02092,0.89427 0.15,0.10443 0.33934,0.1435 0.52215,0.0979 0.1763,-0.0458 0.33282,-0.16329 0.41771,-0.32631 1.02474,-1.88651 -0.56146,-4.28866 -1.14898,-5.0785 0.75054,-3.18551 2.59146,-5.03265 4.03394,-6.03135 l -0.29375,0.48959 c -0.0914,0.16327 -0.11745,0.3526 -0.0588,0.52866 0.0523,0.18281 0.18281,0.32631 0.35261,0.40469 0.6396,0.28074 1.5339,0.30679 2.66986,0.0719 0.94666,-0.20235 1.86048,-0.69195 2.64378,-1.41645 1.02474,-0.94012 2.16725,-1.01173 2.16725,-1.01173 h 6.48859 c 0.15027,0 0.28724,-0.0521 0.40469,-0.13699 0.55495,-0.43724 0.71151,-0.91382 0.75054,-1.24015 0.0528,-0.43173 -0.0844,-0.79713 -0.20835,-1.03229 z m -4.58887,-0.70495 h -0.35912 c -0.35913,0 -0.65291,-0.29376 -0.65291,-0.6529 0,-0.35912 0.29376,-0.6529 0.65291,-0.6529 h 0.35912 c 0.36562,0 0.65289,0.29375 0.65289,0.6529 0,0.35912 -0.28725,0.6529 -0.65289,0.6529 z"
       id="path49"
       style="stroke-width:0.0641102;fill-opacity:1.0;fill:url(#linearGradient1256)" />
  </g>
</svg>
