<svg xmlns="http://www.w3.org/2000/svg" viewBox="0 0 22 22">
  <defs id="defs3051">
<style type="text/css" id="current-color-scheme">.ColorScheme-Text {color:#fcfcfc;}</style>
  </defs>
 <path 
     style="fill:currentColor;fill-opacity:1;stroke:none" 
     d="M 3.03125,3 3,3.0175781 V 3.9003906 L 7.7402344,11 3,18.101562 v 0.882813 L 3.0273438,19 H 3.3007812 3.6601562 17 c 0,0 2,0 2,-2 C 19,15 19,7 19,5 19,3 17,3 17,3 H 8.3007812 3.65625 Z M 4.3242188,4 H 8.3007812 17 c 0,0 1,0 1,1 0,1 0,11 0,12 0,1 -1,1 -1,1 H 4.328125 L 9,11 Z" transform="matrix(1 0 0 1 0 0)"
	 class="ColorScheme-Text"
     />
</svg>
