<svg version="1.1" viewBox="0 0 22 22" xmlns="http://www.w3.org/2000/svg">
<style type="text/css" id="current-color-scheme">.ColorScheme-Text {color:#fcfcfc;}</style>
    <path d="M 6,5 V 8 H 17 V 5 C 17,5 17,3 15,3 H 8 C 6,3 6,5 6,5 Z m 4,-1 h 3 v 3 h -3 z m -7,6 v 2 h 17 v -2 z m 3,4 v 3 c 0,0 0,2 2,2 2,0 5,0 7,0 2,0 2,-2 2,-2 v -3 z m 5.5,1 C 12.328427,15 13,15.671573 13,16.5 13,17.328427 12.328427,18 11.5,18 10.671573,18 10,17.328427 10,16.5 10,15.671573 10.671573,15 11.5,15 Z" class="ColorScheme-Text" fill="currentColor"/>
</svg>
