<svg version="1.1" viewBox="0 0 22 22" xmlns="http://www.w3.org/2000/svg">
    <defs>
<style type="text/css" id="current-color-scheme">.ColorScheme-Text {color:#fcfcfc;}</style>
    </defs>
    <path class="ColorScheme-Text" d="m 12.988351,13.005255 v 0.999097 H 16.99809 V 13.005255 Z M 5.0003805,11.011739 v 1.004563 H 16.99649 v -1.004563 z m 0,1.992483 v 0.999097 H 11.005073 V 13.004222 Z M 2.9920132,7 l 0,8 C 2.9920132,15 3,17.005116 5,17.005116 c 2,0 10,10e-7 12,10e-7 C 19,17.005117 19.00957,15 19.00957,15 l 0,-8 C 19.00957,7 19,5.0029585 17,5.0029585 c -2,0 -10,0 -12,0 C 3,5.0029585 2.9920132,7 2.9920132,7 Z M 4.0057068,7 C 4.0057068,7 4,6.0089886 5,6.0089886 c 1,0 11,0 12,0 C 18,6.0089886 18.005215,7 18.005215,7 l 0,8 C 18.005215,15 18,16.010592 17,16.010592 16,16.010592 6,16 4.8846134,16 3.7692268,16 4.0057068,15 4.0057068,15 Z" fill="currentColor"/>
</svg>
