<svg xmlns="http://www.w3.org/2000/svg" viewBox="0 0 22 22">
  <defs id="defs3051">
<style type="text/css" id="current-color-scheme">.ColorScheme-Text {color:#fcfcfc;}</style>
  </defs>
 <path 
    style="fill:currentColor;fill-opacity:1;stroke:none" 
    d="m 6,3 c 0,0 -3,0 -3,3 0,0 0,7 0,10 0,3 3,3 3,3 h 10 c 0,0 3,0 3,-3 C 19,13 19,9 19,6 19,3 16,3 16,3 Z M 4,6 C 4,4 6,4 6,4 h 10 c 0,0 2,0 2,2 0,2 0,8 0,10 0,2 -2,2 -2,2 H 6 C 6,18 4,18 4,16 4,14 4,6 4,6 Z M 6.7070312,7 6,7.7070312 7.7929688,9.5 6,11.292969 6.7070312,12 9,9.7070312 9.2070312,9.5 9,9.2929688 Z M 10,10.998047 v 1 h 4 v -1 z"
    class="ColorScheme-Text"
    />  
</svg>
