<svg viewBox="0 0 22 22" xmlns="http://www.w3.org/2000/svg"><style type="text/css" id="current-color-scheme">.ColorScheme-Text{color:#fcfcfc;}</style><g style="fill:currentColor;fill-opacity:1;stroke:none" class="ColorScheme-Text"><path d="m 3,6 c 0,3 0,7 0,10 0,3 3,3 3,3 h 8 V 18 H 6 C 6,18 4,18 4,16 4,14 4,8 4,6 4,4 6,4 6,4 h 5 v 1 h 1 V 4 h 4 c 0,0 2,0 2,2 0,2 0,8 0,8 h 1 C 19,14 19,9 19,6 19,3 16,3 16,3 H 6 C 6,3 3,3 3,6 Z m 8,-1 h -1 v 1 h 1 z m 0,1 v 1 h 1 V 6 Z m 0,1 h -1 v 1 h 1 z m 0,1 v 1 h 1 V 8 Z m 0,1 h -1 v 1 1 h 2 v -1 h -1 z"/><path d="m16 14v2h-2v1h2v2h1v-2h2v-1h-2v-2z"/></g></svg>
