<!DOCTYPE svg>
<svg version="1.1" viewBox="0 0 22 22" xmlns="http://www.w3.org/2000/svg">
    <defs>
<style type="text/css" id="current-color-scheme">.ColorScheme-Text {color:#fcfcfc;}</style>
    </defs>
    <path class="ColorScheme-Text" style="fill:currentColor; fill-opacity:1; stroke:none" d="m 11,4 v 8.9922 L 13.9941,10 14,10.0078 14.0078,10 17,12.9922 16.293,13.6992 14,11.4063 11.3555,14.0508 11,14.4063 V 18 h 7 V 4 Z M 9.29297,12 5,16.293 5.70703,17 9.29883,13.4082 9.94141,14.0508 10.6484,14.7578 11,14.4063 V 12.9922 L 10.6484,13.3438 9.30664,12 9.30064,12.0078 Z M 7.5,6 C 8.331,6 9,6.669 9,7.5 9,8.331 8.331,9 7.5,9 6.669,9 6,8.331 6,7.5 6,6.669 6.669,6 7.5,6 Z m 0,-1 C 6.115,5 5,6.115 5,7.5 5,8.885 6.115,10 7.5,10 8.885,10 10,8.885 10,7.5 10,6.115 8.885,5 7.5,5 Z M 6,4 H 18 V 18 H 6 C 6,18 4,18 4,16 4,14 4,8 4,6 4,4 6,4 6,4 Z M 3,6 c 0,2.0385881 0,6.831023 0,10 0,3 3,3 3,3 h 10 c 0,0 3,0 3,-3 0,-3 0,-4.919441 0,-8.9597207 C 19,3 16,3 16,3 L 6,3 C 6,3 3,3 3,6 Z"/>
</svg>
