<svg xmlns="http://www.w3.org/2000/svg" viewBox="0 0 22 22">
  <defs id="defs3051">
<style type="text/css" id="current-color-scheme">.ColorScheme-Text {color:#fcfcfc;}</style>
  </defs>
 <path 
    style="fill:currentColor;fill-opacity:1;stroke:none" 
	d="m 3,6 c 0,3.3333333 0,6.666667 0,10 0,3 3,3 3,3 H 9 V 18 H 6 C 6,18 4,18 4,16 4,13.666667 4,11.333333 4,9 4,7 6,7 6,7 h 10 c 0,0 2,0 2,2 0,2 0,3 0,3 h 1 C 19,12 19,9 19,6 19,3 16,3 16,3 H 5.984375 C 5.984375,3 3,3 3,6 Z m 12,7 v 2 h -2 v 2 h 2 v 2 l 4,-3 z"
	class="ColorScheme-Text"
    />
</svg>
