<!DOCTYPE svg>
<svg viewBox="0 0 22 22" version="1.1" xmlns="http://www.w3.org/2000/svg">
    <defs>
<style type="text/css" id="current-color-scheme">.ColorScheme-Text {color:#fcfcfc;}</style>
    </defs>
    <path class="ColorScheme-Text" style="fill:currentColor; fill-opacity:1; stroke:none" d="M 3,16 C 3,16 3,9 3,6 3,3 6,3 6,3 h 9 c 1.3338,0.99938 2.6666,2.00013 4,3 v 10 c 0,0 0,3 -3,3 -3,0 -7,0 -10,0 -3,0 -3,-3 -3,-3 z m 1,0 c 0,0 0,2 2,2 2,0 8,0 10,0 2,0 2,-2 2,-2 V 6 H 15 V 4 H 6 C 6,4 4,4 4,6 4,8 4,16 4,16 Z M 5,15 V 7 h 5 v 8 z m 7,0 V 7 h 5 v 8 z M 6,14 H 9 V 8 H 6 Z m 7,0 h 3 V 8 h -3 z"/>
</svg>
