<svg xmlns="http://www.w3.org/2000/svg" viewBox="0 0 22 22">
  <defs id="defs3051">
<style type="text/css" id="current-color-scheme">.ColorScheme-Text {color:#fcfcfc;}</style>
  </defs>
 <path 
    style="fill:currentColor;fill-opacity:1;stroke:none" 
	d="m 3,5 c 0,2 0,12 0,12 0,0 0,2 2,2 2,0 10,0 12,0 2,0 2,-2 2,-2 0,0 0,-8 0,-10 0,-2 -2,-2 -2,-2 h -4.992188 l -2,-2 L 10,3.0078125 V 3 H 5 C 5,3 3,3 3,5 Z M 9.0078125,8 H 17 c 0,0 1,0 1,1 0,1 0,8 0,8 0,0 0,1 -1,1 -1,0 -11,0 -12,0 -1,0 -1,-1 -1,-1 0,0 0,-5 0,-6 0,-1 1,-1 1,-1 h 2 v -0.00781 L 7.0078125,10 Z"
    class="ColorScheme-Text"
    />
</svg>
