<!DOCTYPE svg>
<svg viewBox="0 0 22 22" version="1.1" xmlns="http://www.w3.org/2000/svg">
    <defs>
<style type="text/css" id="current-color-scheme">.ColorScheme-Text {color:#fcfcfc;}</style>
    </defs>
    <path class="ColorScheme-Text" style="fill:currentColor; fill-opacity:1; stroke:none" d="M 4,16 V 11 9 h 2 v 2 H 5 v 5 c 0,0 0,2 2,2 2,0 6,0 8,0 2,0 2,-2 2,-2 l 0,-5 H 16 V 9 h 2 v 2 5 c 0,0 0,3 -3,3 -3,0 -5,0 -8,0 C 4,19 4,16 4,16 Z M 8,11 V 9 h 2 v 2 z m 4,0 V 9 h 2 v 2 z M 6,8 V 6 h 2 v 2 z m 4,0 V 6 h 2 v 2 z m 4,0 V 6 h 2 V 8 Z M 4,5 V 3 H 5 6 V 5 Z M 8,5 V 3 h 2 v 2 z m 4,0 V 3 h 2 v 2 z m 4,0 V 3 h 1 1 v 2 z"/>
</svg>
