<svg xmlns="http://www.w3.org/2000/svg" viewBox="0 0 22 22">
  <defs id="defs3051">
<style type="text/css" id="current-color-scheme">.ColorScheme-Text {color:#fcfcfc;}</style>
  </defs>
 <path 
    style="fill:currentColor;fill-opacity:1;stroke:none" 
	d="m 3,5 c 0,2 0,10 0,10 h 1 c 0,0 0,-3 0,-4 0,-1 1,-1 1,-1 h 2 v -0.00781 L 7.0078125,10 l 2,-2 H 17 c 0,0 1,10e-7 1,1 v 6 h 1 V 7 C 19,5.000002 17,5 17,5 h -4.992188 l -2,-2 L 10,3.0078125 V 3 H 5 C 5,3 3,3 3,5 Z m 6,11 v 1 H 3 v 1 h 6 v 1 h 4 v -1 h 6 v -1 h -6 v -1 z m 2,0.5 c 0.553999,0 1,0.446001 1,1 0,0.553999 -0.446001,1 -1,1 -0.553999,0 -1,-0.446001 -1,-1 0,-0.553999 0.446001,-1 1,-1 z"
    class="ColorScheme-Text"
    />
</svg>
