<svg xmlns="http://www.w3.org/2000/svg" viewBox="0 0 22 22">
  <defs id="defs3051">
<style type="text/css" id="current-color-scheme">.ColorScheme-Text {color:#fcfcfc;}</style>
  </defs>
 <path 
    style="fill:currentColor;fill-opacity:1;stroke:none" 
    d="m 4,6 c 0,3 0,7 0,10 0,3 3,3 3,3 H 9 V 18 H 7 C 7,18 5,18 5,16 5,14 5,8 5,6 5,4 7,4 7,4 h 6 v 4 h 4 v 3 h 1 V 7 L 14,3 V 3 3 H 7 C 7,3 4,3 4,6 Z m 7,6 c 0,0 -1,0 -1,1 0,1 0,2 0,4 0,2 2,2 2,2 h 4 c 0,0 2,0 2,-2 0,-2 0,0 0,-2 0,-2 -2,-2 -2,-2 h -1 l -1,-1 v 0 0 z m 2.1,2 H 16 c 0,0 1,0 1,1 0,1 0,1 0,2 0,1 -1,1 -1,1 h -4 c 0,0 -1,0 -1,-1 0,-1 0,-1 0,-1 0,0 0,-1 1,-1 z"
    class="ColorScheme-Text"
    />  
</svg>
