<!DOCTYPE svg>
<svg viewBox="0 0 22 22" xmlns="http://www.w3.org/2000/svg" version="1.1">
    <defs>
        <style type="text/css" id="current-color-scheme">.ColorScheme-Text {color:#fcfcfc;}.ColorScheme-NegativeText {color:#da4453;}</style>
    </defs>
    <path style="fill:currentColor; fill-opacity:1; stroke:none" d="m 13,6 h 2 v 4 h 4 v 3 h 1 V 9 L 16,5 h -4 z m -2,13 c 3,0 2,0 2,0 v -1 c 0,0 0,-0.05211 -2,-0.05211 C 9,17.947887 9,16 9,16 H 8 c 0,0 0,3 3,3 z M 15.707,14 15,14.707 16.793,16.5 15,18.293 15.707,19 17.5,17.207 19.293,19 20,18.293 18.207,16.5 20,14.707 19.293,14 17.5,15.793 Z" class="ColorScheme-NegativeText"/>
    <path style="fill:currentColor; fill-opacity:1; stroke:none" d="m 13,14 c 0,2 -2,2 -2,2 H 5 C 5,16 3,16 3,14 3,12 3,8 3,6 3,4 5,4 5,4 h 4 v 4 h 4 c 0,0 0,4 0,6 z m 1,-3 V 7 L 10,3 H 5 c 0,0 -3,0 -3,3 0,3 0,5 0,8 0,3 3,3 3,3 h 6 c 0,0 3,0 3,-3 z" class="ColorScheme-Text"/>
</svg>
