<!DOCTYPE svg>
<svg viewBox="0 0 22 22" version="1.1" xmlns="http://www.w3.org/2000/svg">
    <defs>
<style type="text/css" id="current-color-scheme">.ColorScheme-Text {color:#fcfcfc;}</style>
    </defs>
    <path class="ColorScheme-Text" style="fill:currentColor; fill-opacity:1; stroke:none" d="M 7 3 C 7 3 4 3.000003 4 6 L 4 15 C 4 16.999998 6 17 6 17 C 6 17 6.000003 19 9 19 L 12 19 L 12 18 L 9 18 C 7.000002 18 7 16 7 16 L 7 8 C 7 6.000002 9 6 9 6 L 13 6 L 13 10 L 17 10 L 17 11 L 18 11 L 18 9 L 12 3 L 7 3 z M 7 4 L 11 4 L 11 5 L 9 5 C 9 5 6 5.000003 6 8 L 6 16 C 6 16 5 15.999999 5 15 L 5 6 C 5 4.000002 7 4 7 4 z M 16 12 C 14.895401 12 14 12.895401 14 14 L 14 16 C 14 16 13 16.000001 13 17 L 13 18 C 13 18.999999 14 19 14 19 L 18 19 C 18 19 19 18.999999 19 18 L 19 17 C 19 16.000001 18 16 18 16 L 18 14 C 18 12.895401 17.104599 12 16 12 z M 16 13 C 16.552299 13 17 13.447701 17 14 L 17 16 L 15 16 L 15 14 C 15 13.447701 15.447701 13 16 13 z "/>
</svg>
