<svg xmlns="http://www.w3.org/2000/svg" viewBox="0 0 22 22">
  <defs id="defs3051">
<style type="text/css" id="current-color-scheme">.ColorScheme-Text {color:#fcfcfc;}</style>
  </defs>
 <path 
    style="fill:currentColor;fill-opacity:1;stroke:none" 
    d="M 8,5 V 9 H 9 V 5 c 0,0 0,-1 1,-1 1,0 1,0 2,0 1,0 1,1 1,1 v 4 h 1 V 5 C 14,5 14,3 12,3 10,3 12,3 10,3 8,3 8,5 8,5 Z M 5.7929688,10 5,10.816406 11,17 17,10.816406 16.207031,10 11,15.367188 Z M 4,17 c 0,0 0,2 2,2 2,0 8,0 10,0 2,0 2,-2 2,-2 h -1 c 0,0 0,1 -1,1 -1,0 -9,0 -10,0 -1,0 -1,-1 -1,-1 z"
    class="ColorScheme-Text"
    />  
</svg>
