<!DOCTYPE svg>
<svg viewBox="0 0 22 22" version="1.1" xmlns="http://www.w3.org/2000/svg">
    <defs>
<style type="text/css" id="current-color-scheme">.ColorScheme-Text {color:#fcfcfc;}</style>
    </defs>
    <path class="ColorScheme-Text" style="fill:currentColor; fill-opacity:1; stroke:none" d="m 4,6 c 0,3 0,7 0,9 0,2 2,2 2,2 0,0 0,2 3,2 3,0 3,0 3,0 v -1 c 0,0 -1,0 -3,0 C 7,18 7,16 7,16 7,16 7,10 7,8 7,6 9,6 9,6 h 4 v 4 h 4 v 1 h 1 V 9 L 12,3 H 7 C 7,3 4,3 4,6 Z M 5,6 C 5,4 7,4 7,4 h 4 V 5 H 9 C 9,5 6,5 6,8 6,11 6,16 6,16 6,16 5,16 5,15 5,14 5,8 5,6 Z m 8,11 c 0,1 0,0 0,1 0,1 1,1 1,1 h 4 c 0,0 1,0 1,-1 0,-1 0,0 0,-1 0,-1 -1,-1 -1,-1 v -2 c 0,-1.1046 -0.8954,-2 -2,-2 -1.1046,0 -2,0.8954 -2,2 v 1 h 1 v -1 c 0,-0.5523 0.4477,-1 1,-1 0.5523,0 1,0.4477 1,1 v 2 h -3 c 0,0 -1,0 -1,1 z"/>
</svg>
