<svg xmlns="http://www.w3.org/2000/svg" viewBox="0 0 22 22">
  <defs id="defs3051">
<style type="text/css" id="current-color-scheme">.ColorScheme-Text {color:#fcfcfc;}</style>
  </defs>
 <path 
    style="fill:currentColor;fill-opacity:1;stroke:none" 
	d="M 7,2 C 7,2 4,2 4,5 v 7.962468 C 4,15 6,15 6,15 c 0,2 2,2 2,2 0,0 0,2 2,2 h 5 c 3,0 3,-3 3,-3 V 8 C 18,6 16,6 16,6 16,6 16,4 14,4 14,4 14,2 12,2 Z M 5,5 C 5,3 7,3 7,3 h 5 c 1,0 1,1 1,1 H 9 C 9,4 6,4 6,7 v 7 C 6,14 5,14 5,13 Z M 7,7 C 7,5 9,5 9,5 h 4 c 0,0 0,0 1,0 1,0 1,1 1,1 H 11 C 11,6 8,6 8,9 v 7 C 8,16 7,16 7,15 Z M 9,9 C 9,7 11,7 11,7 h 4 1 c 0,0 1,0 1,1 v 8 c 0,0 -0.311682,2 -2,2 H 10 C 9,18 9,17 9,17 Z"
    class="ColorScheme-Text"
    />  
</svg>
