<svg viewBox="0 0 22 22" xmlns="http://www.w3.org/2000/svg"><style type="text/css" id="current-color-scheme">.ColorScheme-NegativeText{color:#da4453;}</style><g style="fill:currentColor;fill-opacity:1;stroke:none" class="ColorScheme-NegativeText"><path d="M 7,3 C 7,3 4,3 4,6 4,9 4,10 4,10 H 5 C 5,10 5,8 5,6 5,4 7.0000117,4 7.0000117,4 H 13 v 4 h 4 v 2 h 1 V 7 6.992187 L 14.007812,3 14,3.009766 V 3 Z"/><path d="m3.0000117 11 15.9999883.000012-.000012.999988-15.999988-.000012z"/><path d="m4.0000117 13 .9999883.000072-.0000117 5.999928-.9999883-.000072z"/><path d="m6.0000234 13 .9999883.000072-.0000117 5.999928-.9999883-.000072z"/><path d="m8.0000234 13 .9999883.000072-.0000117 5.999928-.9999883-.000072z"/><path d="m10.000023 13 .999989.000072-.000012 5.999928-.999988-.000072z"/><path d="m12.000023 13 .999989.000072-.000012 5.999928-.999988-.000072z"/><path d="m14.000023 13 .999989.000072-.000012 5.999928-.999988-.000072z"/><path d="m16.000023 13 .999989.000072-.000012 5.999928-.999988-.000072z"/></g></svg>
