<?xml version="1.0" encoding="UTF-8" standalone="no"?>
<svg
   viewBox="0 0 22 22"
   version="1.1"
   id="svg1"
   sodipodi:docname="edit-find-replace.svg"
   width="22"
   height="22"
   inkscape:version="1.3.2 (091e20ef0f, 2023-11-25)"
   xmlns:inkscape="http://www.inkscape.org/namespaces/inkscape"
   xmlns:sodipodi="http://sodipodi.sourceforge.net/DTD/sodipodi-0.dtd"
   xmlns="http://www.w3.org/2000/svg"
   xmlns:svg="http://www.w3.org/2000/svg">
  <sodipodi:namedview
     id="namedview1"
     pagecolor="#ffffff"
     bordercolor="#999999"
     borderopacity="1"
     inkscape:showpageshadow="2"
     inkscape:pageopacity="0"
     inkscape:pagecheckerboard="0"
     inkscape:deskcolor="#d1d1d1"
     inkscape:zoom="12.245804"
     inkscape:cx="10.779203"
     inkscape:cy="23.681581"
     inkscape:window-width="1920"
     inkscape:window-height="994"
     inkscape:window-x="0"
     inkscape:window-y="0"
     inkscape:window-maximized="1"
     inkscape:current-layer="svg1" />
  <defs
     id="defs3051">
    <style
       type="text/css"
       id="current-color-scheme">.ColorScheme-Text { color: #fcfcfc; }
</style>
  </defs>
  <path
     style="opacity:0.00100002;fill:#bac8df;fill-opacity:1"
     d="M 0,0 V 22 H 22 V 0 Z"
     id="path2" />
  <path
     d="m 2.999988,8.741653 c 3.09e-4,3.171271 2.570319,5.741414 5.741377,5.741724 1.397562,-1.28e-4 2.677499,-0.50037 3.673031,-1.330291 l 1.177813,1.177876 c 0.0046,0.0048 0.01005,0.006 0.01478,0.0099 -0.274843,0.581309 -0.186843,1.293127 0.292625,1.772683 l 2.427345,2.428437 c 0.610656,0.610668 1.603562,0.610668 2.214188,0 0.611782,-0.611813 0.611782,-1.602493 0,-2.214298 l -2.427315,-2.428455 c -0.480781,-0.480803 -1.192405,-0.568565 -1.773905,-0.292139 -0.0043,-0.0047 -0.005,-0.0097 -0.0096,-0.01422 L 13.152514,12.414986 C 13.982358,11.419402 14.482546,10.139391 14.482671,8.741751 14.482359,5.570477 11.912358,3.000367 8.741355,3.000058 5.570262,3.000342 3.000252,5.570457 2.999943,8.741714 Z m 9.394939,0 c -8.99e-4,2.016275 -1.637437,3.652854 -3.653532,3.653828 -2.016159,-0.0014 -3.652717,-1.637524 -3.65363,-3.653828 0.0014,-2.016265 1.63744,-3.652846 3.65363,-3.653814 2.016095,0.0015 3.652595,1.637549 3.653532,3.653814 z"
     id="path2-3-6"
     style="fill:currentColor;fill-opacity:1;stroke-width:0.0312512"
     class="ColorScheme-Text " />
  <g
     id="g2"
     transform="rotate(90,8.2007705,8.2007875)">
    <path
       d="m 17.999975,10.401566 c 0.552558,0 1.000008,0.447444 1.000008,1 0,0.55208 -0.44745,0.999992 -1.000008,0.999992 -0.552082,0 -0.999992,-0.447912 -0.999992,-0.999992 0,-0.552556 0.44791,-1 0.999992,-1 z"
       id="path72-3"
       style="fill:currentColor;fill-opacity:1;stroke-width:0.011905"
       class="ColorScheme-Text " />
    <path
       d="m 17.999975,7.69028 c 0.552558,0 1.000008,0.447444 1.000008,1 0,0.55208 -0.44745,0.999992 -1.000008,0.999992 -0.552082,0 -0.999992,-0.447912 -0.999992,-0.999992 0,-0.552556 0.44791,-1 0.999992,-1 z"
       id="path72-3-6"
       style="fill:currentColor;fill-opacity:1;stroke-width:0.011905"
       class="ColorScheme-Text " />
    <path
       d="m 17.999975,4.978994 c 0.552558,0 1.000008,0.447444 1.000008,1 0,0.55208 -0.44745,0.999992 -1.000008,0.999992 -0.552082,0 -0.999992,-0.447912 -0.999992,-0.999992 0,-0.552556 0.44791,-1 0.999992,-1 z"
       id="path72-3-6-1"
       style="fill:currentColor;fill-opacity:1;stroke-width:0.011905"
       class="ColorScheme-Text " />
  </g>
</svg>
