<svg xmlns="http://www.w3.org/2000/svg" viewBox="0 0 22 22">
  <defs id="defs3051">
<style type="text/css" id="current-color-scheme">.ColorScheme-Text {color:#fcfcfc;}</style>
  </defs>
 <path 
    style="fill:currentColor;fill-opacity:1;stroke:none" 
    d="m 6,3 c 0,0 -3,0 -3,3 0,3 0,7 0,10 0,3 3,3 3,3 h 10 c 0,0 3,0 3,-3 C 19,13 19,9 19,6 19,3 16,3 16,3 Z M 4,6 C 4,4 6,4 6,4 V 7 8 H 4.9003906 4 C 4,8 4,8 4,6 Z M 7,4 h 1 1 1 2 1 1 1 v 3 1 h -1 v 1 h 1 v 4 h -1 v 1 h 1 v 4 H 14 13 12 10 9 8 7 V 14 H 8 V 13 H 7 V 9 H 8 V 8 H 7 V 7 Z m 9,0 c 0,0 2,0 2,2 0,2 0,2 0,2 H 17 16 V 7 Z M 4,9 h 2 v 4 H 4 Z m 12,0 h 1 1 v 4 H 17 16 Z M 4,14 h 2 v 4 c 0,0 -2,0 -2,-2 0,-2 0,-2 0,-2 z m 12,0 h 1 1 c 0,0 0,0 0,2 0,2 -2,2 -2,2 v -3 z"
    class="ColorScheme-Text"
    />  
  <path
     style="fill:#da4453"
     d="m 14,18 0,-5.29297 0,-4 0,-4 L 14,4 13.29297,4 13,4 l 0,0.29297 -4,4 L 9,4 8,4 l 0,14 1,0 0,-0.29297 4,-4 0,4.29297 1,0 m -5,-1.70703 0,-2.58594 4,-4 0,2.58594 -4,4 m 0,-4 0,-2.58594 4,-4 0,2.58594 -4,4" />
</svg>
