<svg xmlns="http://www.w3.org/2000/svg" viewBox="0 0 22 22">
  <defs id="defs3051">
    <style type="text/css" id="current-color-scheme">.ColorScheme-Text {color:#fcfcfc;}</style>
  </defs>
 <path 
    style="fill:currentColor;fill-opacity:1;stroke:none" 
    d="m 333,539.3622 v 9.50391 c -0.43225,-0.32595 -0.95863,-0.50278 -1.5,-0.50391 -1.38071,0 -2.5,1.11929 -2.5,2.5 0,1.38071 1.11929,2.5 2.5,2.5 1.38071,0 2.5,-1.11929 2.5,-2.5 v -8.5633 c 0,0 0,-0.9367 1,-0.9367 1,0 7,0 8,0 1,0 1,1 1,1 v 4.50391 c -0.43225,-0.32595 -0.95863,-0.50278 -1.5,-0.50391 -1.38071,0 -2.5,1.11929 -2.5,2.5 0,1.38071 1.11929,2.5 2.5,2.5 1.38071,0 2.5,-1.11929 2.5,-2.5 v -8.23801 -1.26199 c 0,0 0,-2 -2,-2 -2,0 -6,0 -8,0 -2,0 -2,2 -2,2 z m 2,-1 c 1,0 7,0 8,0 1,0 1,1 1,1 0,0 0,1 -1,1 -1,0 -7,0 -8,0 -1,0 -1,-1.10352 -1,-1.10352 0,0 0,-0.89648 1,-0.89648 z" transform="translate(-326-534.3622)"
    class="ColorScheme-Text"
    />  
</svg>
