<!DOCTYPE svg>
<svg viewBox="0 0 22 22" version="1.1" xmlns="http://www.w3.org/2000/svg">
    <defs>
        <style type="text/css" id="current-color-scheme">.ColorScheme-Text {color:#fcfcfc;}.ColorScheme-Highlight {color:#3daee9;}</style>
    </defs>
    <path class="ColorScheme-Text" style="fill:currentColor; fill-opacity:1; stroke:none" d="M 7,19 C 4,19 4,16 4,16 4,16 4,9 4,6 4,3 7,3 7,3 h 7 l 4,4 v 9 c 0,0 0,3 -3,3 -3,0 -5,0 -8,0 z M 5,16 c 0,0 0,2 2,2 2,0 6,0 8,0 2,0 2,-2 2,-2 V 8 H 13 V 4 L 7,3.9780658 C 7,3.9780658 5,4 5,6 5,8 5,16 5,16 Z"/>
    <path class="ColorScheme-Highlight" style="fill:currentColor; fill-opacity:1; stroke:none" d="M 7 6 L 7 8 L 12 8 L 12 6 L 7 6 Z"/>
</svg>
