<svg xmlns="http://www.w3.org/2000/svg" viewBox="0 0 22 22">
  <defs id="defs3051">
<style type="text/css" id="current-color-scheme">.ColorScheme-Text {color:#fcfcfc;}</style>
  </defs>
 <path 
    style="fill:currentColor;fill-opacity:1;stroke:none" 
    d="m 547.57141,748.93359 c 0,3 0,7 0,10 0,3 2,3 2,3 h 1 10 1 c 0,0 2,0 2,-2 0,-2 0,-10 0,-12 0,-2 -2,-2 -2,-2 h -1 -10 -1 c 0,0 -2,0 -2,3 z m 1,-1.5 h 1 v 1 h -1 z m 2,0 h 10 v 5.5 h -10 z m 11,0 h 1 v 1 h -1 z m -13,3 h 1 v 1 h -1 z m 13,0 h 1 v 1 h -1 z m -13,3 h 1 v 1 h -1 z m 13,0 h 1 v 1 h -1 z m -11,1.5 h 10 v 5.5 h -10 z m -2,1.5 h 1 v 1 h -1 z m 13,0 h 1 v 1 h -1 z m -13,3 h 1 v 1 h -1 z m 13,0 h 1 v 1 h -1 z" transform="translate(-544.57141-742.93359)"
    class="ColorScheme-Text"
    />  
</svg>
