<svg xmlns="http://www.w3.org/2000/svg" viewBox="0 0 22 22">
  <defs id="defs3051">
<style type="text/css" id="current-color-scheme">.ColorScheme-Text {color:#fcfcfc;}</style>
  </defs>
 <path 
    style="fill:currentColor;fill-opacity:1;stroke:none" 
	d="m 3,6 c 0,3 0,7 0,10 0,3 3,3 3,3 h 7 V 18 H 6 c 0,0 -2,0 -2,-2 0,-2 0,-4 0,-5 0,-1 1,-1 1,-1 h 2 v -0.00977 L 7.0078125,10 l 2,-2 H 16 c 0,0 2,0 2,2 0,2 0,3 0,3 h 1 c 0,0 0,-2 0,-5 0,-3 -3,-3 -3,-3 h -3.992188 l -2,-2 L 10,3.0097656 V 3 H 6 C 6,3 3,3 3,6 Z m 13.5,8 c -1.384999,0 -2.5,1.115001 -2.5,2.5 0,0.433427 0.118052,0.834808 0.310547,1.189453 l 0.759765,-0.759765 C 15.029288,16.792594 15,16.650791 15,16.5 15,15.669001 15.669001,15 16.5,15 c 0.150791,0 0.292594,0.02929 0.429688,0.07031 l 0.759765,-0.759765 C 17.334808,14.118052 16.933427,14 16.5,14 Z m 2.189453,1.310547 -0.759765,0.759765 C 17.970713,16.207406 18,16.349209 18,16.5 c 0,0.830999 -0.669001,1.5 -1.5,1.5 -0.150791,0 -0.292594,-0.02929 -0.429688,-0.07031 l -0.759765,0.759765 C 15.665192,18.881948 16.066573,19 16.5,19 17.884999,19 19,17.884999 19,16.5 19,16.066573 18.881948,15.665192 18.689453,15.310547 Z"
    class="ColorScheme-Text"
    />  
</svg>
