<!DOCTYPE svg>
<svg viewBox="0 0 22 22" version="1.1" xmlns="http://www.w3.org/2000/svg">
    <defs>
<style type="text/css" id="current-color-scheme">.ColorScheme-Text {color:#fcfcfc;}</style>
    </defs>
    <path class="ColorScheme-Text" style="fill:currentColor; fill-opacity:1; stroke:none" d="M 4.00001,6 C 4.00001,3 7,2.998 7,2.998 h 7 c 1.2997,1.28153 2.6341,2.63147 3.9471,3.93931 C 18.0727,7.14742 17.9633,7.45489 18,7.70185 V 14 H 17 V 7.998 h -4 v -4 l -6,0 C 7,3.998 5,4 5,6 c 0,2 0,8 0,10 0,2 2,1.998 2,1.998 h 6 V 19 H 7 c 0,0 -2.99999,0 -2.99999,-3 0,-3 0,-7 0,-10 z M 12,16 14.6992,16.9007 C 14.4661,17.6008 14.2331,18.3009 14,19.001 L 18,16 15.3008,15.0993 16,12.999 Z"/>
</svg>
