<!DOCTYPE svg>
<svg viewBox="0 0 22 22" version="1.1" xmlns="http://www.w3.org/2000/svg">
    <defs>
        <style type="text/css" id="current-color-scheme">.ColorScheme-Highlight {color:#3daee9;}.ColorScheme-Text {color:#fcfcfc;}</style>
    </defs>
    <path style="fill:currentColor; fill-opacity:1; stroke:none" d="M 3.9865723,16 C 3.9865723,16 4,9 4,6 4,3 7,3 7,3 l 7,-0.00195 v 0.0098 L 14.0078,2.99805 18,6.99023 V 16 c 0,0 0,3 -3,3 -3,0 -5,0 -8,0 C 4,19 3.9865723,16 3.9865723,16 Z M 5,16 c 0,0 0,2 2,2 2,0 6,0 8,0 2,0 2,-2 2,-2 V 7.99805 h -4 v -4 L 7,4 C 7,4 5,4 5,6 5,8 5,16 5,16 Z m 3,-2 v -1 h 7 v 1 z m 0,-3 v -1 h 7 v 1 z M 8,8 V 7 h 4 v 1 z" class="ColorScheme-Text"/>
    <path style="fill:currentColor; fill-opacity:1; stroke:none" d="M 6 16 L 6 5 L 12 5 L 12 6 L 7 6 L 7 15 L 16 15 L 16 16 L 6 16 Z" class="ColorScheme-Highlight"/>
</svg>
