<svg viewBox="0 0 22 22" xmlns="http://www.w3.org/2000/svg">
    <style type="text/css" id="current-color-scheme">.ColorScheme-Text {color:#fcfcfc;}</style>
    <path d="M 4.7070312,3 4,3.7070312 10.654297,10.361328 c 0.344857,0.344857 0.344858,0.932486 0,1.277344 L 10.125,12.167969 4,18.292969 4.7070312,19 10.832031,12.875 11.361328,12.345703 c 0.741719,-0.741719 0.728032,-1.963374 0,-2.6914061 L 10.832031,9.125 Z m 5,0 L 9,3.7070312 15.654297,10.361328 c 0.344857,0.344857 0.344858,0.932486 0,1.277344 L 15.125,12.167969 9,18.292969 9.7070312,19 15.832031,12.875 16.361328,12.345703 c 0.741719,-0.741719 0.728032,-1.963374 0,-2.6914061 L 15.832031,9.125 Z" class="ColorScheme-Text" fill="currentColor"/>
</svg>
