<svg viewBox="0 0 22 22" xmlns="http://www.w3.org/2000/svg">
    <style type="text/css" id="current-color-scheme">.ColorScheme-Text {color:#fcfcfc;}</style>
    <path d="M 17.292968,3 18,3.7070312 11.345703,10.361328 c -0.344857,0.344857 -0.344858,0.932486 0,1.277344 L 11.875,12.167969 18,18.292969 17.292968,19 11.167969,12.875 10.638672,12.345703 c -0.7417194,-0.741719 -0.7280325,-1.963374 0,-2.6914061 L 11.167969,9.125 Z m -5,-3.12e-5 L 13,3.707 6.345703,10.361297 c -0.344857,0.344857 -0.3448575,0.932486 0,1.277344 l 0.529297,0.529297 6.125,6.125 -0.707032,0.707031 -6.124999,-6.125 -0.529297,-0.529297 c -0.7417187,-0.741719 -0.7280321,-1.963374 0,-2.6914062 L 6.167969,9.1249689 Z" class="ColorScheme-Text" fill="currentColor"/>
</svg>
