<svg xmlns="http://www.w3.org/2000/svg" viewBox="0 0 22 22">
  <defs id="defs3051">
<style type="text/css" id="current-color-scheme">.ColorScheme-Text {color:#fcfcfc;}</style>
  </defs>
 <path 
    style="fill:currentColor;fill-opacity:1;stroke:none" 
	d="m 384.85714,543.07647 -4,8 4,8 h 11 c 0,0 3,0 3,-3 0,-3 0,-7 0,-10 0,-3 -3,-3 -3,-3 z m 5.43555,4 v 0.5918 c -0.71072,0 -0.72852,0.23916 -0.72852,1.10547 v 1.01757 c 0,0.41547 -0.12362,1.03272 -0.72265,1.28907 0.59903,0.25635 0.72265,0.87555 0.72265,1.29101 v 1.00781 c 0,0.86631 0.0177,1.10547 0.72852,1.10547 v 0.5918 c -1.0661,0 -1.52148,-0.35225 -1.52149,-1.25391 v -1.22265 c 0,-0.55691 -0.0404,-1.20117 -0.61914,-1.20117 h -0.29492 v -0.64454 h 0.29492 c 0.57874,0 0.61915,-0.64426 0.61914,-1.20117 v -1.22265 c 0,-0.90166 0.45539,-1.25391 1.52149,-1.25391 z m 3.13672,0 c 1.06608,0 1.51367,0.35225 1.51367,1.25391 v 1.22265 c 0,0.55691 0.0205,1.20117 0.60937,1.20117 h 0.30469 v 0.64454 h -0.30469 c -0.58887,0 -0.60937,0.64426 -0.60937,1.20117 v 1.22265 c 0,0.90166 -0.44759,1.25391 -1.51367,1.25391 v -0.5918 c 0.71969,0 0.7207,-0.23916 0.7207,-1.10547 v -1.00781 c 0,-0.41546 0.12362,-1.03466 0.72266,-1.29101 -0.59904,-0.25635 -0.72266,-0.8736 -0.72266,-1.28907 v -1.01757 c 0,-0.86631 -0.01,-1.10547 -0.7207,-1.10547 z"
   transform="translate(-378.85714,-540.07647)"
    class="ColorScheme-Text"
    />  
</svg>
