<svg xmlns="http://www.w3.org/2000/svg" viewBox="0 0 22 22">
  <defs id="defs3051">
<style type="text/css" id="current-color-scheme">.ColorScheme-Text {color:#fcfcfc;}</style>
  </defs>
 <path 
     style="fill:currentColor;fill-opacity:1;stroke:none" 
     d="m 3,6 c 0,3 0,7 0,10 0,3 3,3 3,3 h 6 V 18 H 6 C 6,18 4,18 4,16 4,14 4,12 4,11 4,10 5,10 5,10 H 7 V 9.99219 L 7.0078125,10 l 2,-2 C 9.0078125,8 14,8 16,8 c 2,0 2,2 2,2 v 2 h 1 V 8 c 0,0 0,-3 -3,-3 -3,0 -3.992188,0 -3.992188,0 l -2,-2 L 10,3.0078125 V 3 H 6 C 6,3 3,3 3,6 Z M 15.5,11.792969 14.792969,12.5 12,15.292969 12.707031,16 15,13.707031 V 19 h 1 V 18 17 13.707031 L 18.292969,16 19,15.292969 16.207031,12.5 Z"
     class="ColorScheme-Text"
     />
</svg>
