<svg viewBox="0 0 22 22" xmlns="http://www.w3.org/2000/svg">
    <style type="text/css" id="current-color-scheme">.ColorScheme-Text {color:#fcfcfc;}</style>
    <path d="M 18.999999,17.292968 18.292968,18 11.638671,11.345702 c -0.344856,-0.344857 -0.932486,-0.344858 -1.277344,0 L 9.832031,11.874999 3.707031,18 3,17.292968 l 6.125,-6.125 0.529297,-0.529297 c 0.741719,-0.7417187 1.963375,-0.7280331 2.691406,0 L 12.875,11.167968 Z m -3e-5,-5 L 18.292938,13 11.63864,6.345702 c -0.344856,-0.344857 -0.932486,-0.3448577 -1.277343,0 L 9.832,6.874999 3.707,13 2.999969,12.292968 l 6.125,-6.125 0.529297,-0.529297 c 0.741719,-0.7417186 1.963375,-0.7280333 2.691407,0 l 0.529296,0.529297 z" class="ColorScheme-Text" fill="currentColor"/>
</svg>
