<svg viewBox="0 0 22 22" xmlns="http://www.w3.org/2000/svg">
<style type="text/css" id="current-color-scheme">.ColorScheme-Text {color:#fcfcfc;}</style>
    <path class="ColorScheme-Text" d="M 11,2 6,7 6.7070312,7.7070312 11,3.4140625 15.292969,7.7070312 16,7 Z m -9,9 v 7 c 0,0 0,2 2,2 2,0 12,0 14,0 2,0 2,-2 2,-2 V 11 C 20,11 20,9 18,9 16,9 6,9 4,9 2,9 2,11 2,11 Z m 2,-1 c 1,0 13,0 14,0 1,0 1,1 1,1 H 3 c 0,0 0,-1 1,-1 z m -1,2 h 16 v 6 c 0,0 0,1 -1,1 C 17,19 5,19 4,19 3,19 3,18 3,18 Z m 1,1 v 1 h 2 v -1 z m 3,0 v 1 h 2 v -1 z m 3,0 v 1 h 2 v -1 z m 3,0 v 1 h 2 v -1 z m 3,0 v 1 h 2 V 13 Z M 4,15 v 1 h 2 v -1 z m 3,0 v 1 h 2 v -1 z m 3,0 v 1 h 2 v -1 z m 3,0 v 1 h 2 v -1 z m 3,0 v 1 h 2 V 15 Z M 4,17 v 1 h 2 v -1 z m 3,0 v 1 h 8 v -1 z m 9,0 v 1 h 2 v -1 z" fill="currentColor"/>
</svg>
