<svg xmlns="http://www.w3.org/2000/svg" viewBox="0 0 22 22">
  <defs id="defs3051">
    <style type="text/css" id="current-color-scheme">.ColorScheme-Text {color:#fcfcfc;}.ColorScheme-Highlight {color:#3daee9;}</style>
  </defs>
 <path 
     style="fill:currentColor;fill-opacity:1;stroke:none" 
     d="M 4,6.0137203 C 4,9.0274405 4,13 4,16 c 0,3 3,3 3,3 h 4 V 18 H 7 C 7,18 5,18 5,16 5,14 5,8 5,6 5,4 7,4 7,4 h 8 c 0,0 2,0 2,2 0,2 0,6 0,6 h 1 C 18,12 18,9.0505283 18,6.0252642 18,3 15,3 15,3 H 7 C 7,3 4,3 4,6.0137203 Z M 6,6 V 7 H 16 V 6 Z m 0,2 v 1 h 6 V 8 Z m 0,5 v 1 h 7 v -1 z"
     class="ColorScheme-Text"
     />
 <path 
     style="fill:currentColor;fill-opacity:1;stroke:none" 
     d="M 16 13 L 15 15 L 16 15 L 16 19 L 17 19 L 17 13 L 16 13 z M 6 15 L 6 16 L 13 16 L 13 15 L 6 15 z "
     class="ColorScheme-Highlight"
     />
</svg>
