<svg version="1.1" viewBox="0 0 22 22" xmlns="http://www.w3.org/2000/svg">
    <defs>
<style type="text/css" id="current-color-scheme">.ColorScheme-Text {color:#fcfcfc;}</style>
    </defs>
    <path style="fill:currentColor;fill-opacity:1;stroke:none" d="m 3,5 c 0,2 0,10 0,12 0,2 2,2 2,2 H 6 V 18 H 5 C 5,18 4,18 4,17 4,16 4,11 4,11 4,11 4,6 4,5 4,4 5,4 5,4 H 6 V 3 H 5 C 5,3 3,3 3,5 Z m 1,6 4,4 v -3 h 2 V 10 H 8 V 7 Z M 16,3 v 1 h 1 c 0,0 1,0 1,1 0,1 0,6 0,6 0,0 0,5 0,6 0,1 -1,1 -1,1 h -1 v 1 h 1 c 0,0 2,0 2,-2 C 19,15 19,7 19,5 19,3 17,3 17,3 Z m 2,8 -4,-4 v 3 h -2 v 2 h 2 v 3 z" class="ColorScheme-Text"/>
</svg>
