<svg version="1.1" viewBox="0 0 22 22" xmlns="http://www.w3.org/2000/svg">
    <defs>
<style type="text/css" id="current-color-scheme">.ColorScheme-Text {color:#fcfcfc;}</style>
    </defs>
    <path style="fill:currentColor;fill-opacity:1;stroke:none" class="ColorScheme-Text" d="m 7,3 v 1 h 1 c 0,0 1,0 1,1 0,1 0,6 0,6 0,0 0,5 0,6 0,1 -1,1 -1,1 H 7 v 1 h 1 c 0,0 2,0 2,-2 C 10,15 10,7 10,5 10,3 8,3 8,3 Z M 9,11 5,7 v 3 H 3 v 2 h 2 v 3 z m 3,-6 c 0,2 0,10 0,12 0,2 2,2 2,2 h 1 v -1 h -1 c 0,0 -1,0 -1,-1 0,-1 0,-6 0,-6 0,0 0,-5 0,-6 0,-1 1,-1 1,-1 h 1 V 3 h -1 c 0,0 -2,0 -2,2 z m 1,6 4,4 v -3 h 2 V 10 H 17 V 7 Z"/>
</svg>
