<svg xmlns="http://www.w3.org/2000/svg" viewBox="0 0 22 22">
  <defs id="defs3051">
<style type="text/css" id="current-color-scheme">.ColorScheme-Text {color:#fcfcfc;}</style>
  </defs>
 <path 
     style="fill:currentColor;fill-opacity:1;stroke:none" 
     d="m 6,3 c 0,0 -3,0 -3,3 0,3 0,7 0,10 0,3 3,3 3,3 h 10 c 0,0 3,0 3,-3 C 19,13 19,9 19,6 19,3 16,3 16,3 Z M 6,5 H 16 V 17 H 6 Z M 4,6 H 5 V 7 H 4 Z m 13,0 h 1 V 7 H 17 Z M 4,8 H 5 V 9 H 4 Z m 5,0 v 6 l 4,-3 z m 8,0 h 1 V 9 H 17 Z M 4,10 h 1 v 1 H 4 Z m 13,0 h 1 v 1 H 17 Z M 4,12 h 1 v 1 H 4 Z m 13,0 h 1 v 1 H 17 Z M 4,14 h 1 v 1 H 4 Z m 13,0 h 1 v 1 H 17 Z M 4,16 h 1 v 1 H 4 Z m 13,0 h 1 v 1 h -1 z"
     class="ColorScheme-Text"
     />
</svg>
