<svg version="1.1" viewBox="0 0 22 22" xmlns="http://www.w3.org/2000/svg">
    <defs>
<style type="text/css" id="current-color-scheme">.ColorScheme-Text {color:#fcfcfc;}</style>
    </defs>
    <path style="fill:currentColor;fill-opacity:1;stroke:none" class="ColorScheme-Text" d="m 7,3 v 1 h 1 c 0,0 1,0 1,1 0,1 0,5 0,5 H 7 V 7 l -4,4 4,4 v -3 h 2 c 0,0 0,4 0,5 0,1 -1,1 -1,1 H 7 v 1 h 1 c 0,0 2,0 2,-2 C 10,15 10,7 10,5 10,3 8,3 8,3 Z m 7,0 c 0,0 -2,0 -2,2 0,2 0,10 0,12 0,2 2,2 2,2 h 1 v -1 h -1 c 0,0 -1,0 -1,-1 0,-1 0,-5 0,-5 h 2 v 3 l 4,-4 -4,-4 v 3 h -2 c 0,0 0,-4 0,-5 0,-1 1,-1 1,-1 h 1 V 3 Z"/>
</svg>
