<svg xmlns="http://www.w3.org/2000/svg" viewBox="0 0 22 22">
  <defs id="defs3051">
<style type="text/css" id="current-color-scheme">.ColorScheme-Text {color:#fcfcfc;}</style>
  </defs>
 <path 
     style="fill:currentColor;fill-opacity:1;stroke:none" 
     d="m 4,7 c 0,3 0,7 0,7 l 3,4 v -3 -1 h 10 c 0,0 3,0 3,-3 0,-3 0,-1 0,-4 C 20,4 17,4 17,4 H 7 C 7,4 4,4 4,7 Z M 5,7 C 5,5 7,5 7,5 h 10 c 0,0 2,0 2,2 0,2 0,2 0,4 0,2 -2,2 -2,2 H 7 C 7,13 5,13 4.9984098,11 4.9968195,9 5,9 5,7 Z m 12,8 v 2 h -2 v 1 h 2 v 2 h 1 v -2 h 2 v -1 h -2 v -2 z"
	 class="ColorScheme-Text"
     />
</svg>
