<svg xmlns="http://www.w3.org/2000/svg" viewBox="0 0 22 22">
  <defs id="defs3051">
<style type="text/css" id="current-color-scheme">.ColorScheme-Text {color:#fcfcfc;}</style>
  </defs>
 <path 
     style="fill:currentColor;fill-opacity:1;stroke:none" 
     d="M 8,6 V 7 H 6 c 0,0 -2,0 -2,2 0,2 0,6 0,6 l 3,3 v -3 c 0,0 5,0 7,0 2,0 2,-2 2,-2 v -1 h 1 v 3 l 3,-3 V 6 C 20,6 20,4 18,4 16,4 12,4 10,4 8,4 8,6 8,6 Z m 1,0 c 0,0 0,-1 1,-1 1,0 7,0 8,0 1,0 1,1 1,1 v 4 l -1,1 H 10 C 10,11 9,11 9,10 9,9 9,6 9,6 Z M 5,9 C 5,8 6,8 6,8 h 2 c 0,0 0,0 0,2 0,2 2,2 2,2 h 5 v 1 c 0,0 0,1 -1,1 -0.830786,0 -6.10753,0 -8,0 -1,0 -1,-1 -1,-1 0,0 0,-3 0,-4 z m 12,7 v 2 h -2 v 1 h 2 v 2 h 1 v -2 h 2 v -1 h -2 v -2 z"
     class="ColorScheme-Text"
     />
</svg>
