<svg viewBox="0 0 22 22" version="1.1" xmlns="http://www.w3.org/2000/svg">
    <defs>
<style type="text/css" id="current-color-scheme">.ColorScheme-Text {color:#fcfcfc;}</style>
    </defs>
    <path class="ColorScheme-Text" style="fill:currentColor; fill-opacity:1; stroke:none" d="M 7,3 C 5,3 5,5 5,5 H 3 v 3 h 2 v 6 H 3 v 3 h 2 c 0,0 0,2 2,2 2,0 5,0 5,0 V 18 H 9 V 4 h 7 c 0,0 2,0 2,2 0,2 0,5 0,7 0,2 -2,2 -2,2 H 13.7 L 16,12.7 15.3,12 11.8,15.5 15.3,19 16,18.3 13.7,16 H 16 c 0,0 3,0 3,-2.919295 C 19,10.16141 19,9 19,6 19,3 16,3 16,3 16,3 9,3 7,3 Z M 7,4 C 8,4 8,4 8,4 V 18 C 8,18 8,18 7,18 6,18 6,17 6,17 V 5 C 6,5 6,4 7,4 Z" />
</svg>
