<svg xmlns="http://www.w3.org/2000/svg" viewBox="0 0 22 22">
  <defs id="defs3051">
<style type="text/css" id="current-color-scheme">.ColorScheme-Text {color:#fcfcfc;}</style>
  </defs>
 <path 
     style="fill:currentColor;fill-opacity:1;stroke:none" 
     d="m 3,6 c 0,3 0,7 0,10 0,3 3,3 3,3 h 7 V 18 H 6 C 6,18 4,18 4,16 4,14 3.9920605,12 3.9920605,11 3.9920605,10 5,10 5,10 h 2 v -0.00977 L 7.0078125,10 l 2,-2 H 16 c 0,0 2,0 2,2 0,2 0,3 0,3 h 1 c 0,0 0,-2 0,-5 0,-3 -3,-3 -3,-3 h -3.992188 l -2,-2 L 10,3.0097656 V 3 H 6 C 6,3 3,3 3,6 Z"
     class="ColorScheme-Text"
     />
    <path
     style="fill:#2ecc71;fill-opacity:1;stroke:none"
     d="M 16.5 14 C 15.115 14 14 15.115 14 16.5 C 14 16.9334 14.118052 17.334753 14.310547 17.689453 L 15.070312 16.929688 C 15.029288 16.792588 15 16.6508 15 16.5 C 15 15.669 15.669 15 16.5 15 C 16.650791 15 16.792594 15.029313 16.929688 15.070312 L 17.689453 14.310547 C 17.334808 14.118147 16.933427 14 16.5 14 z M 18.689453 15.310547 L 17.929688 16.070312 C 17.970717 16.207412 18 16.3492 18 16.5 C 18 17.331 17.331 18 16.5 18 C 16.349209 18 16.207406 17.970687 16.070312 17.929688 L 15.310547 18.689453 C 15.665192 18.881853 16.066573 19 16.5 19 C 17.885 19 19 17.885 19 16.5 C 19 16.0666 18.881948 15.665247 18.689453 15.310547 z "
     />
</svg>
