<svg xmlns="http://www.w3.org/2000/svg" viewBox="0 0 22 22">
  <defs id="defs3051">
<style type="text/css" id="current-color-scheme">.ColorScheme-Text {color:#fcfcfc;}</style>
  </defs>
 <path 
    style="fill:currentColor;fill-opacity:1;stroke:none" 
	d="m 2,6 c 0,3 0,7 0,10 0,3 3,3 3,3 h 6 v -1 -7 h 7 1 C 19,11 19,9 19,6 19,3 16,3 16,3 H 5 C 5,3 2,3 2,6 Z m 16,5 -0.996094,0.994141 H 17 l -5,4.99414 0.0078,0.002 -0.0039,1.001954 H 12 v 0.990234 h 2 0.0059 0.0039 0.0098 l -0.0059,-0.002 L 15,17.994141 l 4,-3.992188 -0.705078,-0.708984 -4.990234,4.982422 -0.59375,-0.591797 4.992187,-4.984375 0.591797,0.59375 L 19,13.996094 l 1,-1 z M 3,6 C 3,4 5,4 5,4 h 5 v 6 H 3 C 3,10 3,8 3,6 Z m 8,-2 h 5 c 0,0 2,0 2,2 0,2 0,4 0,4 H 11 Z M 6.0800781,5.0019531 C 5.5402063,4.9805793 5.0146542,5.1785419 4.6230469,5.5507812 3.9624223,6.1786461 3.8098264,7.1737319 4.2519531,7.9707031 c 0.4425682,0.7966921 1.3677697,1.1934365 2.25,0.9648438 C 7.3838742,8.7068867 7.9997998,7.9110819 8,7 H 6 L 7.0585938,5.3027344 C 6.7640388,5.1192826 6.4268204,5.0156266 6.0800781,5.0019531 Z M 3,11 h 7 v 7 H 5 c 0,0 -2,0 -2,-2 0,-2 0,-5 0,-5 z"
    class="ColorScheme-Text"
    />
</svg>
