<svg xmlns="http://www.w3.org/2000/svg" viewBox="0 0 22 22">
  <defs id="defs3051">
<style type="text/css" id="current-color-scheme">.ColorScheme-Text {color:#fcfcfc;}</style>
  </defs>
 <path 
    style="fill:currentColor;fill-opacity:1;stroke:none" 
	d="m 2,6 c 0,3 0,10 0,10 0,0 0,3 3,3 3,0 11,0 11,0 0,0 3,0 3,-3 C 19,13 19,9 19,6 19,3 16,3 16,3 H 5 C 5,3 2,3 2,6 Z M 3,6 C 3,4 5,4 5,4 h 5 v 6 H 3 C 3,10 3,8 3,6 Z m 8,-2 h 5 c 0,0 2,0 2,2 0,2 0,4 0,4 H 11 Z M 6.0800781,5.0019531 C 5.5402063,4.9805793 5.0146542,5.1785419 4.6230469,5.5507812 3.9624223,6.1786461 3.8098264,7.1737319 4.2519531,7.9707031 c 0.4425682,0.7966921 1.3677697,1.1934365 2.25,0.9648438 C 7.3838742,8.7068867 7.9997998,7.9110819 8,7 H 6 L 7.0585938,5.3027344 C 6.7640388,5.1192826 6.4268204,5.0156266 6.0800781,5.0019531 Z M 3,11 h 7 v 7 c 0,0 -3,0 -5,0 -2,0 -2,-2 -2,-2 z m 8,0 h 7 c 0,0 0,3 0,5 0,2 -2,2 -2,2 h -5 z m 5,1 v 5 h 1 v -5 z m -2,2 v 3 h 1 v -3 z m -2,1 v 2 h 1 v -2 z"
    class="ColorScheme-Text"
    />
</svg>
