<svg xmlns="http://www.w3.org/2000/svg" viewBox="0 0 22 22">
  <defs id="defs3051">
<style type="text/css" id="current-color-scheme">.ColorScheme-Text {color:#fcfcfc;}</style>
  </defs>
 <path 
     style="fill:currentColor;fill-opacity:1;stroke:none" 
     d="M 3,5 V 6.8886719 8.0097656 15 15.111328 17 c 0,0 0,2 2,2 2,0 10,0 12,0 2,0 2,-2 2,-2 V 15.107422 15 11 8.0097656 6.8925781 5 C 19,5 19,3 17,3 15,3 7,3 5,3 3,3 3,5 3,5 Z m 1,0 c 0,0 0,-1 1,-1 1,0 11,0 12,0 1,0 1,1 1,1 V 6.3867188 C 16.03324,5.4945945 13.557957,5.0042343 11,5 8.4433715,5.002587 5.9682367,5.4908461 4,6.3808594 Z m 7,1 c 2.620959,0.00323 5.134616,0.5208339 7,1.4414062 V 9.5488281 C 16.591884,8.5934186 13.91099,8.0002408 11,8 8.0857052,8.0014182 5.4040209,8.5970155 4,9.5546875 V 7.4453125 C 5.8641221,6.5233092 8.3779324,6.0042747 11,6 Z m 0,3 c 3.865993,0 7,0.8954305 7,2 0,1.104569 -3.134007,2 -7,2 C 7.1340068,13 4,12.104569 4,11 4,9.8954305 7.1340068,9 11,9 Z m 7,3.445312 v 2.113282 C 16.134616,15.479166 13.620959,15.996766 11,16 8.3779326,15.995725 5.8641223,15.476691 4,14.554688 V 12.451172 C 5.4081157,13.406581 8.0890099,13.999759 11,14 c 2.914295,-0.0014 5.595979,-0.597016 7,-1.554688 z m 0,3.167969 V 17 c 0,0 0,1 -1,1 C 16,18 6,18 5,18 4,18 4,17 4,17 V 15.619141 C 5.9682368,16.509154 8.4433716,16.997413 11,17 c 2.557957,-0.0042 5.03324,-0.494595 7,-1.386719 z"
     class="ColorScheme-Text"
     />
</svg>
