<svg xmlns="http://www.w3.org/2000/svg" viewBox="0 0 22 22">
  <defs id="defs3051">
<style type="text/css" id="current-color-scheme">.ColorScheme-Text {color:#fcfcfc;}</style>
  </defs>
 <path 
    style="fill:currentColor;fill-opacity:1;stroke:none" 
     d="m 1,5 v 7 H 2 V 4.2226562 4 h 0.048828 L 2.2714844,4.2226562 8.0234375,9.9765625 6,12 H 7.4140625 L 8.7304688,10.683594 10.183594,12.134766 11,12.949219 h 0.002 l 0.814453,-0.814453 1.453125,-1.451172 6.267578,6.267578 L 20,17.414062 V 18 H 14 8 v 1 h 6 c 0,0 3,0 5,0 2,0 2,-2 2,-2 V 12 5 C 21,5 21,3 19,3 17,3 5,3 3,3 1,3 1,5 1,5 Z M 3.4628906,4 H 18.537109 L 11,11.537109 Z M 19.951172,4 H 20 V 4.2226562 12 16 L 13.976562,9.9765625 19.728516,4.2226562 Z M 4,13 1,16 4,19 v -2 -2 z m 1,2 v 2 h 1 v -2 z m 2,0 v 2 h 1 v -2 z"
    class="ColorScheme-Text"
    />  
</svg>
