<svg xmlns="http://www.w3.org/2000/svg" viewBox="0 0 22 22">
  <defs id="defs3051">
<style type="text/css" id="current-color-scheme">.ColorScheme-Text {color:#fcfcfc;}</style>
  </defs>
 <path 
    style="fill:currentColor;fill-opacity:1;stroke:none" 
    d="m 1,6 v 6 H 2 V 8 h 18 v 4 4 c 0,0 0,2 -2,2 -2,0 -10,0 -10,0 v 1 h 6 c 0,0 1,0 4,0 3,0 3,-3 3,-3 V 12 6 C 21,6 21,3 18,3 15,3 7,3 4,3 1,3 1,6 1,6 Z M 4,4 c 2,0 12,0 14,0 2,0 2,2 2,2 V 7 H 2 V 6 C 2,6 2,4 4,4 Z m 0,9 -3,3 3,3 v -2 -2 z m 1,2 v 2 h 1 v -2 z m 2,0 v 2 h 1 v -2 z"
    class="ColorScheme-Text"
    />  
</svg>
