<svg viewBox="0 0 22 22" xmlns="http://www.w3.org/2000/svg">
    <defs>
<style type="text/css" id="current-color-scheme">.ColorScheme-Text {color:#fcfcfc;}</style>
    </defs>
    <path class="ColorScheme-Text" d="m 1,5 v 7 5 c 0,0 0,2 2,2 2,0 5,0 5,0 h 6 V 18 H 8 2 v -0.585938 l 0.4628906,-0.46289 6.2675782,-6.267578 1.4531252,1.451172 0.814453,0.814453 H 11 L 11.816406,12.134766 13.269531,10.683594 14.585938,12 H 16 L 13.976562,9.9765625 19.728516,4.2226562 19.951172,4 H 20 V 4.2226562 12 h 1 V 5 C 21,5 21,3 19,3 17,3 5,3 3,3 1,3 1,5 1,5 Z M 2,4 H 2.048828 L 2.2714844,4.2226562 8.0234375,9.9765625 2,16 V 12 4.2226562 Z M 3.4628906,4 H 18.537109 L 11,11.537109 Z" fill="currentColor"/>
    <path d="m21 16c0-1.661995-1.338005-3-3-3s-3 1.338005-3 3 1.338005 3 3 3 3-1.338005 3-3zm-1 0c0 0.371625-0.106065 0.714197-0.28125 1.011719l-2.730469-2.730469c0.297522-0.175185 0.640094-0.28125 1.011719-0.28125 1.107997 0 2 0.892003 2 2zm-0.988281 1.71875c-0.297522 0.175185-0.640094 0.28125-1.011719 0.28125-1.107997 0-2-0.892003-2-2 0-0.371625 0.106065-0.714197 0.28125-1.011719z" fill="#da4453"/>
</svg>
