<svg xmlns="http://www.w3.org/2000/svg" viewBox="0 0 22 22">
  <defs id="defs3051">
<style type="text/css" id="current-color-scheme">.ColorScheme-Text {color:#fcfcfc;}</style>
  </defs>
 <path 
    style="fill:currentColor;fill-opacity:1;stroke:none" 
    d="M 3,3 V 4 5 6 L 1,9 V 10 11.400391 12 17 c 0,2 2,2 2,2 h 5 6 V 18 H 3 C 3,18 2,18 2,17 V 16 12 11 C 2,10 3,10 3,10 H 4.078125 L 11,13.996094 17.921875,10 H 18 19 c 0,0 1,0 1,1 0,1 0,1 0,1 h 1 V 11.400391 9.9863281 9 L 19,6 V 3 H 4 Z M 4,4 H 18 V 5 8.7988281 L 11,12.839844 4,8.7988281 V 5 Z M 5,5 V 5.9863281 L 4.9863281,6 H 5 17 17.013672 L 17,5.9863281 V 5 Z m 0,2 v 1 h 7 V 7 Z m 13.5,5 C 17.669,12 17,12.669 17,13.5 17,14.331 17.669,15 18.5,15 19.331,15 20,14.331 20,13.5 20,12.669 19.331,12 18.5,12 Z M 18,16 c -1.108,0 -2,0.892 -2,2 0,0 0,1 1,1 1,0 1.988124,0 2.994062,0 C 21,19 21,18 21,18 v 0 c 0,-1.108 -0.892,-2 -2,-2 z"
    class="ColorScheme-Text"
    />  
</svg>
