<svg xmlns="http://www.w3.org/2000/svg" viewBox="0 0 22 22">
  <defs id="defs3051">
<style type="text/css" id="current-color-scheme">.ColorScheme-Text {color:#fcfcfc;}</style>
  </defs>
 <path 
    style="fill:currentColor;fill-opacity:1;stroke:none" 
    d="m 1,5 v 12 c 0,0 0,2 2,2 2,0 14,0 16,0 2,0 2,-2 2,-2 V 5 C 21,5 21,3 19,3 17,3 5,3 3,3 1,3 1,5 1,5 Z M 2,4 h 0.048828 L 8.0234375,9.9765625 2,16 Z M 3.4628906,4 H 18.537109 L 11,11.537109 Z M 19.951172,4 H 20 V 16 L 13.976562,9.9765625 Z M 8.7304688,10.683594 11,12.951172 13.269531,10.683594 19.537109,16.951172 20,17.414062 V 18 H 2 v -0.585938 l 0.4628906,-0.46289 z"
    class="ColorScheme-Text"
    />  
</svg>
