<svg xmlns="http://www.w3.org/2000/svg" viewBox="0 0 22 22">
  <defs id="defs3051">
<style type="text/css" id="current-color-scheme">.ColorScheme-Text {color:#fcfcfc;}</style>
  </defs>
 <path 
     style="fill:currentColor;fill-opacity:1;stroke:none" 
     d="m 1,5 v 7 5 c 0,0 0,2 1.9869544,2 C 4.9739088,19 8,19 8,19 h 3 V 18 H 8 2 v -0.585938 l 0.4628906,-0.46289 6.2675782,-6.267578 1.4531252,1.451172 0.814453,0.814453 H 11 L 11.816406,12.134766 13.269531,10.683594 14.585938,12 H 16 L 13.976562,9.9765625 19.728516,4.2226562 19.951172,4 H 20 V 4.2226562 10 h 1 V 5 C 21,5 21,3 19,3 17,3 5,3 3,3 1,3 1,5 1,5 Z M 2,4 h 0.048828 L 2.2714844,4.2226562 8.0234375,9.9765625 2,16 V 12 4.2226562 Z M 3.4628906,4 H 18.537109 L 11,11.537109 Z"
     class="ColorScheme-Text"
     />
    <path
     style="fill:#2ecc71;fill-opacity:1;stroke:none"
     d="M 19 11 L 18.003906 11.994141 L 18 11.990234 L 13 16.988281 L 13.007812 16.996094 L 13.003906 18 L 13 18 L 13 18.990234 L 13 19 L 15 19 L 15.005859 18.994141 L 15.009766 18.990234 C 15.013766 18.990214 15.015531 18.992188 15.019531 18.992188 L 15.013672 18.986328 L 16 18 L 20 14.003906 L 19.294922 13.294922 L 14.304688 18.28125 L 13.710938 17.689453 L 18.703125 12.701172 L 19.294922 13.294922 L 20 13.998047 L 21 12.998047 L 19 11 z "
     />
</svg>
