<svg xmlns="http://www.w3.org/2000/svg" viewBox="0 0 22 22">
  <defs id="defs3051">
 <style type="text/css" id="current-color-scheme">.ColorScheme-Text {color:#fcfcfc;}</style>
  </defs>
 <path 
    style="fill:currentColor;fill-opacity:1;stroke:none" 
    d="m 2,5 c 0,2 0,10 0,12 0,2 2,2 2,2 H 7 V 17 C 6.44772,17 6,17.44772 6,18 H 5 V 11 4 H 6 C 6,4.55228 6.44772,5 7,5 7.55228,5 8,4.55228 8,4 h 4 4 c 0,0.55228 0.44772,1 1,1 0.55228,0 1,-0.44772 1,-1 0,0 1,0 1,1 0,1 0,6 0,6 h 1 C 20,11 20,7 20,5 20,3 18,3 18,3 H 4 C 4,3 2,3 2,5 Z m 17,6 C 19,7.13401 15.86599,4 12,4 8.13401,4 5,7.13401 5,11 c 0.00206,1.854914 0.7493049,3.583962 2,4.867188 V 14.287109 C 6.3661508,13.324994 6.00133,12.191529 6,11 6,7.68629 8.68629,5 12,5 c 3.31371,0 6,2.68629 6,6 z M 3,5 C 3,4 4,4 4,4 V 18 C 4,18 3,18 3,17 3,16 3,6 3,5 Z m 14,6 v 1 h -1 -0.02344 C 14.327554,12 13,13.327554 13,14.976562 V 15 c 0,1.108 -0.892,2 -2,2 H 8 v 1 h 3 0.02344 C 12.672446,18 14,16.672446 14,15.023438 V 15 c 0,-1.108 0.892,-2 2,-2 h 1 v 1 l 2,-1.5 z m -9,1 v 1 h 3 c 0.398899,0 0.766762,0.118675 1.078125,0.318359 0.07572,-0.336861 0.209875,-0.649217 0.388672,-0.93164 C 12.037922,12.147813 11.551107,12 11.023438,12 H 11 Z m 9,4 v 1 h -1 c -0.398899,0 -0.766762,-0.118675 -1.078125,-0.318359 -0.07572,0.336861 -0.209875,0.649217 -0.388672,0.93164 C 14.962077,17.852187 15.44889,18 15.976562,18 H 16 17 v 1 l 2,-1.5 z"
    class="ColorScheme-Text"
    />  
</svg>
