<?xml version="1.0" encoding="UTF-8" standalone="no"?>
<svg
   viewBox="0 0 22 22"
   version="1.1"
   id="svg1"
   sodipodi:docname="media-eject.svg"
   width="22"
   height="22"
   inkscape:version="1.3.2 (091e20ef0f, 2023-11-25)"
   xmlns:inkscape="http://www.inkscape.org/namespaces/inkscape"
   xmlns:sodipodi="http://sodipodi.sourceforge.net/DTD/sodipodi-0.dtd"
   xmlns="http://www.w3.org/2000/svg"
   xmlns:svg="http://www.w3.org/2000/svg">
  <sodipodi:namedview
     id="namedview1"
     pagecolor="#ffffff"
     bordercolor="#000000"
     borderopacity="0.25"
     inkscape:showpageshadow="2"
     inkscape:pageopacity="0.0"
     inkscape:pagecheckerboard="0"
     inkscape:deskcolor="#d1d1d1"
     inkscape:zoom="8.5173039"
     inkscape:cx="33.343885"
     inkscape:cy="20.076776"
     inkscape:window-width="1920"
     inkscape:window-height="996"
     inkscape:window-x="0"
     inkscape:window-y="0"
     inkscape:window-maximized="1"
     inkscape:current-layer="svg1" />
  <defs
     id="defs1">
    <style
       type="text/css"
       id="style1">.ColorScheme-Text { color:#d8dee9; }
</style>
  </defs>
  <g
     id="22-22-media-eject-5"
     style="fill:#bac8df;fill-opacity:1"
     transform="translate(-96)">
    <path
       style="opacity:0.00100002;fill:#bac8df;fill-opacity:1"
       d="m 96,0 h 22 V 22 H 96 Z"
       id="path37" />
    <path
       d="M 112.74222,5.357803 C 111.22179,3.83732 109.20009,3 107.05,3 104.89992,3 102.87821,3.83732 101.35793,5.357803 99.837331,6.878287 99,8.899819 99,11.050001 c 0,2.150182 0.837331,4.171712 2.35793,5.692196 1.52028,1.520365 3.54199,2.357803 5.69207,2.357803 2.15023,0 4.17179,-0.837438 5.69222,-2.357803 1.52034,-1.520484 2.35778,-3.542014 2.35778,-5.692196 0,-2.150181 -0.83744,-4.171802 -2.35778,-5.692198 z m -0.91924,10.934528 c -1.48222,1.257281 -2.67763,1.851645 -4.77298,1.836296 -2.22446,-0.01638 -3.04958,-0.434238 -4.77297,-1.836728 -1.40032,-1.400198 -2.305656,-3.261636 -2.305656,-5.241897 0,-1.980376 0.934076,-4.085657 2.305656,-5.242564 1.53873,-1.352119 2.82129,-1.821279 4.77297,-1.836063 1.98021,-0.01506 3.30559,0.61681 4.77298,1.83621 1.40028,1.40028 2.30565,3.262041 2.30565,5.242417 0,1.980261 -0.90537,3.842136 -2.30565,5.242329 z"
       id="path2-36-912-3-3-35-3-75-2"
       style="stroke-width:0.0251561;fill-opacity:1;fill:currentColor;"
       sodipodi:nodetypes="cscscscsccscscscsc"
       class="ColorScheme-Text " />
    <path
       d="m 103.74827,13.6 h 6.65587 c 1.69843,0.0059 1.69843,1.851748 0,1.857675 h -6.65587 c -1.69843,-0.0059 -1.69843,-1.851748 0,-1.857675 z m 6.65587,0.371527 z"
       id="path8-6-7-36-2-9"
       style="stroke-width:0.218075;fill-opacity:1;fill:currentColor;"
       sodipodi:nodetypes="cccccccccc"
       class="ColorScheme-Text " />
    <path
       d="m 107.33831,6.7000008 c 0.13986,-2.51e-4 0.27404,0.05531 0.37284,0.154258 l 3.59062,4.1962502 c 0.31942,0.422295 0.3637,1.573667 -0.72253,1.574046 h -3.35102 -2.90967 c -0.4063,0 -1.18738,0.08957 -1.54821,-0.269861 v 0 c -0.36045,-0.360428 -0.36045,-0.944814 0,-1.305243 l 4.19514,-4.1951922 c 0.0988,-0.09899 0.23298,-0.154509 0.37283,-0.154258 z"
       id="path4-3-75-3-7-3"
       style="stroke-width:0.263676;fill-opacity:1;fill:currentColor;"
       sodipodi:nodetypes="ccccccssccc"
       class="ColorScheme-Text " />
  </g>
</svg>
