<svg xmlns="http://www.w3.org/2000/svg" viewBox="0 0 22 22">
  <defs id="defs3051">
<style type="text/css" id="current-color-scheme">.ColorScheme-Text {color:#fcfcfc;}</style>
  </defs>
 <path 
     style="fill:currentColor;fill-opacity:1;stroke:none" 
     d="m 2,5 c 0,2 0,10 0,12 0,2 2,2 2,2 h 14 c 0,0 2,0 2,-2 C 20,15 20,7 20,5 20,3 18,3 18,3 H 4 C 4,3 2,3 2,5 Z M 3,5 C 3,4 4,4 4,4 V 18 C 4,18 3,18 3,17 3,16 3,6 3,5 Z M 5,4 H 6 C 6,4.5522847 6.4477153,5 7,5 7.5522847,5 8,4.5522847 8,4 h 4 4 c 0,0.5522847 0.447715,1 1,1 0.552285,0 1,-0.4477153 1,-1 0,0 1,0 1,1 0,1 0,6 0,6 0,0 0,5 0,6 0,1 -1,1 -1,1 0,-0.552285 -0.447715,-1 -1,-1 -0.552285,0 -1,0.447715 -1,1 H 12 8 C 8,17.447715 7.5522847,17 7,17 6.4477153,17 6,17.447715 6,18 H 5 v -7 z m 0,7 c 0,3.865993 3.1340068,7 7,7 3.865993,0 7,-3.134007 7,-7 C 19,7.1340068 15.865993,4 12,4 8.1340068,4 5,7.1340068 5,11 Z m 7,-6 c 3.313708,0 6,2.6862915 6,6 0,3.313708 -2.686292,6 -6,6 C 8.6862915,17 6,14.313708 6,11 6,7.6862915 8.6862915,5 12,5 Z m 0,5 c -0.552285,0 -1,0.447715 -1,1 0,0.552285 0.447715,1 1,1 0.552285,0 1,-0.447715 1,-1 0,-0.552285 -0.447715,-1 -1,-1 z"
     class="ColorScheme-Text"
     />
</svg>
