<?xml version="1.0" encoding="UTF-8" standalone="no"?>
<svg
   viewBox="0 0 22 22"
   id="svg6"
   version="1.1"
   sodipodi:docname="media-seek-backward.svg"
   width="22"
   height="22"
   inkscape:version="1.3.2 (091e20ef0f, 2023-11-25)"
   xmlns:inkscape="http://www.inkscape.org/namespaces/inkscape"
   xmlns:sodipodi="http://sodipodi.sourceforge.net/DTD/sodipodi-0.dtd"
   xmlns="http://www.w3.org/2000/svg"
   xmlns:svg="http://www.w3.org/2000/svg">
  <defs
     id="defs1" />
  <sodipodi:namedview
     id="namedview1"
     pagecolor="#ffffff"
     bordercolor="#999999"
     borderopacity="1"
     inkscape:showpageshadow="2"
     inkscape:pageopacity="0"
     inkscape:pagecheckerboard="0"
     inkscape:deskcolor="#d1d1d1"
     inkscape:zoom="9.9466905"
     inkscape:cx="27.245243"
     inkscape:cy="27.848459"
     inkscape:window-width="1920"
     inkscape:window-height="996"
     inkscape:window-x="0"
     inkscape:window-y="0"
     inkscape:window-maximized="1"
     inkscape:current-layer="svg6" />
  <style
     type="text/css"
     id="current-color-scheme">.ColorScheme-Text { color: #fcfcfc; }
</style>
  <g
     id="22-22-media-seek-forward"
     style="fill:#bac8df;fill-opacity:1"
     transform="rotate(180,11,11)">
    <path
       style="opacity:0.00100002;fill:#bac8df;fill-opacity:1"
       d="M 0,0 H 22 V 22 H 0 Z"
       id="path27" />
    <path
       d="M 16.65688,5.343158 C 15.145878,3.83212 13.136722,3 11.000001,3 8.863279,3 6.854121,3.83212 5.343279,5.343158 3.83213,6.854198 3,8.863179 3,10.999999 3,13.136818 3.83213,15.145797 5.343279,16.656836 6.854121,18.167774 8.863279,19 11.000001,19 c 2.136878,0 4.145877,-0.832226 5.656879,-2.343164 1.51088,-1.511039 2.343121,-3.520018 2.343121,-5.656837 0,-2.13682 -0.832241,-4.145889 -2.343121,-5.656841 z m -0.913553,10.866609 c -1.473007,1.249471 -2.661005,1.840148 -4.743326,1.8249 C 8.789359,18.018475 7.96936,17.603125 6.256674,16.209334 4.865052,14.817831 3.965339,12.967972 3.965339,10.999999 3.965339,9.031929 4.89362,6.939722 6.256674,5.79 7.785852,4.446279 9.060447,3.980033 11.000001,3.965339 c 1.967918,-0.01495 3.285051,0.612981 4.743326,1.824805 1.391595,1.391586 2.291336,3.241785 2.291336,5.209855 0,1.967972 -0.899741,3.818265 -2.291336,5.209768 z"
       id="path2-36-912-3-7-0"
       style="stroke-width:0.0249999;fill-opacity:1;fill:currentColor;"
       sodipodi:nodetypes="cscscscsccscscscsc"
       class="ColorScheme-Text " />
    <path
       d="m 11.896705,11.100899 c 2.19e-4,0.128176 -0.05067,0.251153 -0.141387,0.341702 L 7.91048,15.287371 C 7.1130049,16.078067 5.9235521,14.888618 6.714273,14.091167 L 9.70484,11.100899 6.714273,8.110638 c -0.329421,-0.3306979 -0.329421,-0.8655061 0,-1.196204 v 0 c 0.3303163,-0.330335 0.8658907,-0.330335 1.196207,0 l 3.844838,3.84476 c 0.09072,0.09055 0.141607,0.213527 0.141387,0.341705 z m -0.483088,0 z"
       id="path4-3-9-2"
       style="stroke-width:0.241669;fill-opacity:1;fill:currentColor;"
       sodipodi:nodetypes="ccccccsscccccccccccc"
       class="ColorScheme-Text " />
    <path
       d="m 15.982163,11.100899 c 2.26e-4,0.128172 -0.05065,0.251148 -0.141359,0.341702 l -3.844843,3.844771 c -0.797476,0.790702 -1.986933,-0.398757 -1.196203,-1.196205 l 2.990561,-2.990269 -2.990561,-2.99026 c -0.329421,-0.3306979 -0.329421,-0.8655061 0,-1.196204 v 0 c 0.330316,-0.3303323 0.865887,-0.3303323 1.196203,0 l 3.844843,3.844759 c 0.09071,0.09056 0.141586,0.213532 0.141359,0.341706 z m -0.483067,0 z"
       id="path4-3-2-3"
       style="stroke-width:0.241669;fill-opacity:1;fill:currentColor;"
       sodipodi:nodetypes="ccccccsscccccccccccc"
       class="ColorScheme-Text " />
  </g>
</svg>
