<svg xmlns="http://www.w3.org/2000/svg" viewBox="0 0 22 22">
  <defs id="defs3051">
<style type="text/css" id="current-color-scheme">.ColorScheme-Text {color:#fcfcfc;}</style>
  </defs>
 <path 
     style="fill:currentColor;fill-opacity:1;stroke:none" 
     d="m 2,6 c 0,3 0,7 0,10 0,3 3,3 3,3 h 3 6 1 2 c 0,0 3,0 3,-3 C 20,13 20,9 20,6 20,3 17,3 17,3 H 10 5 C 5,3 2,3 2,6 Z M 3,6 C 3,4 5,4 5,4 H 7 V 18 H 5 C 5,18 3,18 3,16 3,14 3,8 3,6 Z M 8,4 h 3 V 18 H 8 Z m 4,0 h 3 v 14 h -3 z m 4,0 h 1 c 0,0 2,0 2,2 0,2 0,8 0,10 0,2 -2,2 -2,2 h -1 z"
	 class="ColorScheme-Text"
     />
</svg>
