<svg xmlns="http://www.w3.org/2000/svg" viewBox="0 0 22 22">
  <defs id="defs3051">
<style type="text/css" id="current-color-scheme">.ColorScheme-Text {color:#fcfcfc;}</style>
  </defs>
 <path 
     style="fill:currentColor;fill-opacity:1;stroke:none" 
     d="m 8,3 c 0,0 -3,0 -3,3 0,3 0,7 0,10 0,3 3,3 3,3 h 6 c 0,0 3,0 3,-3 C 17,13 17,9 17,6 17,3 14,3 14,3 Z M 6,6 C 6,4 8,4 8,4 h 6 c 0,0 2,0 2,2 0,2 0,8 0,10 0,2 -2,2 -2,2 H 8 C 8,18 6,18 6,16 6,14 6,8 6,6 Z"
	 class="ColorScheme-Text"
     />
</svg>
