<!DOCTYPE svg>
<svg viewBox="0 0 22 22" version="1.1" xmlns="http://www.w3.org/2000/svg">
    <defs>
<style type="text/css" id="current-color-scheme">.ColorScheme-Text {color:#fcfcfc;}</style>
    </defs>
    <path class="ColorScheme-Text" style="fill:currentColor; fill-opacity:1; stroke:none" d="m 12,18 c 1,0 6,0 6,0 0,0 1,0 1,-1 0,-1 0,-6 0,-6 H 16 15 V 10 7 H 12 V 6 h 4 l 4,4 v 1 c 0,0 0,4 0,6 0,2 -2,2 -2,2 0,0 -4,0 -6,0 -2,0 -2,-2 -2,-2 v -1 h 1 v 1 c 0,0 0,1 1,1 z"/>
    <path class="ColorScheme-Text" style="fill:currentColor; fill-opacity:1; stroke:none" d="m 8,4 c 1.10457,0 2,0.89543 2,2 V 9 H 6 V 6 C 6,4.89543 6.89543,4 8,4 Z M 8,3 C 6.34314,3 5,4.34314 5,6 V 9 C 5,9 3,9 3,11 v 2 c 0,2 2,2 2,2 h 6 c 0,0 2,0 2,-2 0,-2 0.02267,0 0.01133,-2 C 13,9 11,9 11,9 V 6 C 11,4.34314 9.65686,3 8,3 Z"/>
</svg>
