<svg xmlns="http://www.w3.org/2000/svg" viewBox="0 0 22 22">
  <defs id="defs3051">
<style type="text/css" id="current-color-scheme">.ColorScheme-Text {color:#fcfcfc;}</style>
  </defs>
 <path 
     style="fill:currentColor;fill-opacity:1;stroke:none" 
     d="m 3,7 c 0,3 0,8 0,8 0,0 0,3 3,3 3,0 7,0 10,0 3,0 3,-3 3,-3 V 8 L 18,7 16,5 15,4 H 6 C 6,4 3,4 3,7 Z M 6,5 h 8 v 4 h 4 v 6 c 0,0 0,2 -2,2 C 14,17 8,17 6,17 4,17 4,15 4,15 4,15 4,9 4,7 4,5 6,5 6,5 Z"
     class="ColorScheme-Text"
     />
</svg>
