<svg xmlns="http://www.w3.org/2000/svg" viewBox="0 0 22 22">
  <defs id="defs3051">
<style type="text/css" id="current-color-scheme">.ColorScheme-Text {color:#fcfcfc;}</style>
  </defs>
 <path 
    style="fill:currentColor;fill-opacity:1;stroke:none" 
    d="m 3,6 c 0,3 0,7 0,10 0,3 3,3 3,3 h 10 c 0,0 3,0 3,-3 C 19,13 19,9 19,6 19,3 16,3 16,3 H 6 C 6,3 3,3 3,6 Z M 4,6 C 4,4 6,4 6,4 h 10 c 0,0 2,0 2,2 0,2 0,8 0,10 0,2 -2,2 -2,2 H 6 C 6,18 4,18 4,16 4,14 4,8 4,6 Z M 6.5,5 C 5.669,5 5,5.669 5,6.5 5,7.331 5.669,8 6.5,8 7.331,8 8,7.331 8,6.5 8,5.669 7.331,5 6.5,5 Z m 9,0 C 14.669,5 14,5.669 14,6.5 14,7.331 14.669,8 15.5,8 16.331,8 17,7.331 17,6.5 17,5.669 16.331,5 15.5,5 Z M 11,9.5 c -0.831,0 -1.5,0.669 -1.5,1.5 0,0.831 0.669,1.5 1.5,1.5 0.831,0 1.5,-0.669 1.5,-1.5 0,-0.831 -0.669,-1.5 -1.5,-1.5 z M 6.5,14 C 5.669,14 5,14.669 5,15.5 5,16.331 5.669,17 6.5,17 7.331,17 8,16.331 8,15.5 8,14.669 7.331,14 6.5,14 Z m 9,0 C 14.669,14 14,14.669 14,15.5 14,16.331 14.669,17 15.5,17 16.331,17 17,16.331 17,15.5 17,14.669 16.331,14 15.5,14 Z"
    class="ColorScheme-Text"
    />  
</svg>
