<svg xmlns="http://www.w3.org/2000/svg" viewBox="0 0 22 22">
  <defs id="defs3051">
<style type="text/css" id="current-color-scheme">.ColorScheme-Text {color:#fcfcfc;}</style>
  </defs>
 <path 
     style="fill:currentColor;fill-opacity:1;stroke:none" 
	 d="M 7,3 V 5 H 6 c 0,0 -2,0 -2,2 0,2 0,6 0,9 0,3 3,3 3,3 h 6 V 18 H 7 C 7,18 5,18 5,16 5,14 5,8 5,7 5,6 6,6 6,6 V 8 H 16 V 6 c 0,0 1,0 1,1 0,1 0,6 0,6 h 1 C 18,13 18,9 18,7 18,5 16,5 16,5 H 15 V 3 Z m 0,6 v 1 h 8 V 9 Z m 0,3 v 1 h 6 v -1 z m 9,1 -0.574219,1.613281 -1.546875,-0.734375 0.734375,1.546875 L 13,16 14.613281,16.574219 13.878906,18.121094 15.425781,17.386719 16,19 16.574219,17.386719 18.121094,18.121094 17.386719,16.574219 19,16 l -1.613281,-0.574219 0.734375,-1.546875 -1.546875,0.734375 z m -9,2 v 1 h 3 v -1 z"
	 class="ColorScheme-Text"
     />
</svg>
