<svg xmlns="http://www.w3.org/2000/svg" viewBox="0 0 22 22">
  <defs id="defs3051">
<style type="text/css" id="current-color-scheme">.ColorScheme-Text {color:#fcfcfc;}</style>
  </defs>
 <path 
    style="fill:currentColor;fill-opacity:1;stroke:none" 
    d="m 3,6 c 0,3 0,7 0,10 0,3 3,3 3,3 H 9 V 18 H 6 C 6,18 4,18 4,16 4,14 4,11 4,9 4,7 6,7 6,7 h 3 v 2 h 1 V 7 3 H 6 C 6,3 3,3 3,6 Z m 8,-3 v 6 h 1 V 7 h 1 3 c 0,0 2,0 2,2 0,2 0,3 0,3 h 1 C 19,12 19,9 19,6 19,3 16,3 16,3 H 13 12 Z M 11.292969,10 8.5,12.792969 7.7929688,13.5 8.5,14.207031 11.292969,17 12,16.292969 9.7070312,14 H 15 V 13 H 14 13 9.7070312 L 12,10.707031 Z M 16.707031,13 16,13.707031 18.292969,16 H 13 v 1 h 1 1 3.292969 L 16,19.292969 16.707031,20 19.5,17.207031 20.207031,16.5 19.5,15.792969 Z"
	class="ColorScheme-Text"
    />  
</svg>
