<?xml version="1.0" encoding="UTF-8" standalone="no"?>
<svg
   viewBox="0 0 22 22"
   version="1.1"
   id="svg1"
   sodipodi:docname="system-lock-screen.svg"
   width="22"
   height="22"
   inkscape:version="1.3.2 (091e20ef0f, 2023-11-25)"
   xmlns:inkscape="http://www.inkscape.org/namespaces/inkscape"
   xmlns:sodipodi="http://sodipodi.sourceforge.net/DTD/sodipodi-0.dtd"
   xmlns="http://www.w3.org/2000/svg"
   xmlns:svg="http://www.w3.org/2000/svg">
  <sodipodi:namedview
     id="namedview1"
     pagecolor="#ffffff"
     bordercolor="#999999"
     borderopacity="1"
     inkscape:showpageshadow="2"
     inkscape:pageopacity="0"
     inkscape:pagecheckerboard="0"
     inkscape:deskcolor="#d1d1d1"
     inkscape:zoom="12.358298"
     inkscape:cx="9.3864057"
     inkscape:cy="15.576578"
     inkscape:window-width="1920"
     inkscape:window-height="1001"
     inkscape:window-x="0"
     inkscape:window-y="0"
     inkscape:window-maximized="1"
     inkscape:current-layer="svg1" />
  <defs
     id="defs3051">
    <style
       type="text/css"
       id="current-color-scheme">.ColorScheme-Text { color: #fcfcfc; } </style>
  </defs>
  <g
     id="22-22-system-lock-screen">
    <path
       style="fill:none"
       d="M 0,0 V 22 H 22 V 0 Z"
       id="path19" />
    <path
       sodipodi:nodetypes="cccccccccccccscscscccc"
       inkscape:connector-curvature="0"
       style="clip-rule:evenodd;fill:#d3dae3;fill-opacity:1;fill-rule:evenodd;stroke-width:0.00183637;stroke-linejoin:round;stroke-miterlimit:1.41421"
       id="path4-3-1"
       d="M 10.313805,2.0257431 C 6.507358,2.3160151 3.250109,5.0279501 2.288211,8.7148101 1.911684,10.16597 1.902494,11.78036 2.270011,13.21793 c 0.948121,3.75497 4.250925,6.50767 8.111741,6.76177 2.191213,0.14504 4.319059,-0.48984 6.074798,-1.81855 0.476443,-0.3582 1.342829,-1.22442 1.701361,-1.70067 2.681269,-3.5464 2.409074,-8.4668499 -0.644133,-11.6594599 -1.882808,-1.963403 -4.509703,-2.979255 -7.199952,-2.775277 z m 1.206732,1.110509 c 0.947507,0.05295 2.298446,0.345472 3.515955,1.056748 1.285842,0.74808 2.277219,1.84016 3.007499,3.28692 1.07854,1.97266 1.090368,4.8071699 0.261,6.7085199 -0.681521,1.38719 -1.814749,2.85062 -3.261907,3.7543 -0.966701,0.60367 -2.823644,0.98864 -4.145784,0.972 C 9.647106,18.89904 8.113566,18.57948 7.199751,18.00821 5.483828,16.93551 4.128239,15.4228 3.457249,13.49229 2.967179,11.60525 3.074049,9.5805901 3.806003,7.7940801 c 0.466702,-1.13912 1.252512,-2.06231 2.496748,-3.13885 1.142582,-0.868406 2.632221,-1.367755 3.888913,-1.464978 0.249421,-0.02258 0.680141,-0.0735 0.716509,-0.0735 0.0362,-0.0045 0.312973,-0.003 0.612364,0.0195 z" />
    <path
       d="m 10.89982,12.45129 v 0 c -0.160315,-0.0566 -0.274979,-0.20954 -0.274979,-0.38909 0,-0.22769 0.184786,-0.41248 0.412469,-0.41248 0.227683,0 0.412475,0.18479 0.412475,0.41248 0,0.17955 -0.114664,0.33245 -0.274982,0.38909 v 0.7133 c 0,0.0723 -0.0616,0.13502 -0.137493,0.13502 -0.0737,0 -0.13749,-0.0605 -0.13749,-0.13502 z M 8.974942,10.27481 v 0 0 c -0.455922,0.002 -0.824949,0.36847 -0.824949,0.82741 v 2.7446 c 0,0.45702 0.370124,0.82743 0.827429,0.82743 h 4.119786 c 0.45702,0 0.827409,-0.36766 0.827409,-0.82743 v -2.7446 c 0,-0.45619 -0.368742,-0.82631 -0.82494,-0.82741 V 9.3121001 c 0,-1.13898 -0.925587,-2.0621 -2.062367,-2.0621 -1.138978,0 -2.062368,0.92312 -2.062368,2.0621 z m 0.82495,0 V 9.3126401 c 0,-0.68525 0.554093,-1.23769 1.237418,-1.23769 0.681954,0 1.237423,0.55409 1.237423,1.23769 V 10.27481 Z"
       id="path4-6-2"
       style="fill:#d3dae3;fill-opacity:1;stroke-width:0.274979" />
  </g>
</svg>
