<svg xmlns="http://www.w3.org/2000/svg" viewBox="0 0 22 22">
  <defs id="defs3051">
<style type="text/css" id="current-color-scheme">.ColorScheme-Text {color:#fcfcfc;}</style>
  </defs>
 <path
     style="fill:currentColor;fill-opacity:1;stroke:none"
     d="M 11 3 A 8 8 0 0 0 3 11 A 8 8 0 0 0 11 19 A 8 8 0 0 0 19 11 A 8 8 0 0 0 11 3 z M 11 3.8652344 A 7.1354165 7.1354165 0 0 1 18.134766 11 A 7.1354165 7.1354165 0 0 1 11 18.134766 A 7.1354165 7.1354165 0 0 1 3.8652344 11 A 7.1354165 7.1354165 0 0 1 11 3.8652344 z M 8.078125 7 A 1.7441407 1.7441407 0 0 0 6.3339844 8.7441406 A 1.7441407 1.7441407 0 0 0 8.078125 10.488281 A 1.7441407 1.7441407 0 0 0 9.8222656 8.7441406 A 1.7441407 1.7441407 0 0 0 8.078125 7 z M 10.710938 8 C 10.710937 8 10.818359 8.0000007 10.818359 8.75 C 10.818359 9.4999993 10.710938 9.5 10.710938 9.5 L 14.554688 9.5 C 14.554688 9.5 15.302734 9.4999993 15.302734 8.75 C 15.302734 8.0000007 14.554688 8 14.554688 8 L 10.710938 8 z M 14.056641 11.5 A 1.7434895 1.7434895 0 0 0 12.3125 13.244141 A 1.7434895 1.7434895 0 0 0 14.056641 14.986328 A 1.7434895 1.7434895 0 0 0 15.798828 13.244141 A 1.7434895 1.7434895 0 0 0 14.056641 11.5 z M 7.5800781 12.5 C 7.5800781 12.5 6.8320313 12.500001 6.8320312 13.25 C 6.8320312 13.999999 7.5800781 14 7.5800781 14 L 11.421875 14 C 11.421875 14 11.314453 13.815908 11.314453 13.25 C 11.314453 12.684092 11.421875 12.5 11.421875 12.5 L 7.5800781 12.5 z "
	 class="ColorScheme-Text"
     />
</svg>
