<svg xmlns="http://www.w3.org/2000/svg" viewBox="0 0 22 22">
  <defs id="defs3051">
    <style type="text/css" id="current-color-scheme">
      .ColorScheme-Text {color:#fcfcfc;}.ColorScheme-Highlight {color:#3daee9;}</style>
  </defs>
 <path 
     style="fill:currentColor;fill-opacity:1;stroke:none"
     d="M 4 4 L 4 7 L 4 9 L 9 9 L 9 7 L 9 4 L 7 4 L 4 4 z "
     class="ColorScheme-Highlight"
     />
 <path 
   style="fill:currentColor;fill-opacity:1;stroke:none"
     d="m 3,6 v 10 c 0,0 0,3 3,3 3,0 6,0 6,0 h 4 c 0,0 3,0 3,-3 0,-3 0,-4 0,-4 V 6 C 19,6 19,3 16,3 13,3 6,3 6,3 3,3 3,6 3,6 Z M 6,4 H 7 9 V 9 H 4 V 7 6 C 4,6 4,4 6,4 Z m 4,0 h 2 v 2 h -2 z m 3,0 h 2 v 2 h -2 z m 3,0 c 2,0 2,2 2,2 h -2 z m -6,3 h 2 v 2 h -2 z m 3,0 h 2 v 2 h -2 z m 3,0 h 2 V 9 H 16 Z M 4,10 h 2 v 2 H 4 Z m 3,0 h 2 v 2 H 7 Z m 3,0 h 2 v 2 h -2 z m 3,0 h 2 v 2 h -2 z m 3,0 h 2 v 2 H 16 Z M 4,13 h 2 v 2 H 4 Z m 3,0 h 2 v 2 H 7 Z m 3,0 h 2 v 2 h -2 z m 3,0 h 2 v 2 h -2 z m 3,0 h 2 v 2 H 16 Z M 4,16 h 2 v 2 C 4,18 4,16 4,16 Z m 3,0 h 2 v 2 H 7 Z m 3,0 h 2 v 2 h -2 z m 3,0 h 2 v 2 h -2 z m 3,0 h 2 c 0,2 -2,2 -2,2 z"
     class="ColorScheme-Text"
     />
</svg>
