<!DOCTYPE svg>
<svg xmlns="http://www.w3.org/2000/svg" viewBox="0 0 22 22" version="1.1">
    <defs>
<style type="text/css" id="current-color-scheme">.ColorScheme-Text {color:#fcfcfc;}</style>
    </defs>
    <path style="fill-opacity:1; stroke:none; fill:currentColor" class="ColorScheme-Text" d="M 4 5 L 4 6 L 6 6 L 6 16 L 4 16 L 4 17 L 9 17 L 9 16 L 7 16 L 7 6 L 9 6 L 9 5 L 4 5 Z M 9 13 L 9 15 L 10 15 L 16 15 L 17 15 L 17 14 L 17 13 L 16 13 L 16 14 L 10 14 L 10 13 L 9 13 Z"/>
    <path style="fill-opacity:1; stroke:none; fill-rule:evenodd; fill:currentColor" class="ColorScheme-Text" d="M 2,6 C 2,3 5,3 5,3 h 12 c 0,0 3,0 3,3 0,3 0,7 0,10 0,3 -3,3 -3,3 H 5 C 5,19 2,19 2,16 2,13 2,9 2,6 Z M 3,6 C 3,4 5,4 5,4 l 12,0.029347 C 17,4.0293473 19,4 19,6 c 0,2 0,8 0,10 0,2 -2,2 -2,2 H 5 C 5,18 3,18 3,16 3,14 3,8 3,6 Z"/>
</svg>
