<svg xmlns="http://www.w3.org/2000/svg" viewBox="0 0 22 22">
  <defs id="defs3051">
<style type="text/css" id="current-color-scheme">.ColorScheme-Text {color:#fcfcfc;}</style>
  </defs>
 <path 
     style="fill:currentColor;fill-opacity:1;stroke:none" 
     d="m 3,6 c 0,3 0,7 0,10 0,3 3,3 3,3 h 4 V 18 H 6 C 6,18 4,18 4,16 4,14 4,8 4,6 4,4 6,4 6,4 h 4 V 3 H 6 C 6,3 3,3 3,6 Z M 13,3 v 1 h 3 c 0,0 2,0 2,2 0,2 0,8 0,10 0,2 -2,2 -2,2 h -3 v 1 h 3 c 0,0 3,0 3,-3 0,-3 0,-7 0,-10 0,-3 -3,-3 -3,-3 z m 0,15 V 4 H 12 V 18 Z M 5,5 V 6 H 8 V 5 Z M 5,7 V 8 H 8 V 7 Z m 0,2 v 1 H 8 V 9 Z m 4,0 v 4 l 2,-2 z m -4,2 v 1 h 2 v -1 z"
	 class="ColorScheme-Text"
     />
</svg>
