<svg xmlns="http://www.w3.org/2000/svg" viewBox="0 0 22 22">
  <defs id="defs3051">
<style type="text/css" id="current-color-scheme">.ColorScheme-Text {color:#fcfcfc;}</style>
  </defs>
 <path 
    style="fill:currentColor;fill-opacity:1;stroke:none" 
    d="m 3,6 c 0,3 0,7 0,10 0,3 3,3 3,3 h 10 c 0,0 3,0 3,-3 0,-3 0,-11.0996094 0,-11.0996094 L 7,6 V 5 L 19,4 V 3 H 6 C 6,3 3,3 3,6 Z m 1,2 h 14 v 2 H 4 Z m 0,3 h 3 v 3 H 4 Z m 4,0 h 6 v 3 H 8 Z m 7,0 h 3 v 3 H 15 Z M 4,15 h 10 v 1 H 4 Z m 11,0 h 3 v 1 H 15 Z M 4,17 h 10 1 3 c 0,0 -0.335267,1 -2,1 C 14.335267,18 6.4545281,18 5.4545281,18 4.4545281,18 4,17 4,17 Z"
    class="ColorScheme-Text"
    />  
</svg>
