<svg xmlns="http://www.w3.org/2000/svg" viewBox="0 0 22 22">
  <defs id="defs3051">
    <style type="text/css" id="current-color-scheme">.ColorScheme-Text {color:#fcfcfc;}.ColorScheme-Highlight {color:#3daee9;}</style>
  </defs>
 <path 
     style="fill:currentColor;fill-opacity:1;stroke:none" 
     d="m 2,6 c 0,3 0,7 0,10 0,3 3,3 3,3 V 18 C 5,18 3,19 3,16 3,13 3,8 3,6 3,4 5,4 5,4 V 3 C 5,3 2,3 2,6 Z M 16,3 v 1 c 0,0 2,-0.3088362 2,2 0,2.3088362 0,7 0,7 h 1 C 19,13 19,9 19,6 19,3 16,3 16,3 Z M 5,14 v 1 1 h 8 V 15 H 6 v -1 z"
     class="ColorScheme-Text"
     />
 <path 
     style="fill:#da4453;fill-opacity:1;stroke:none" 
     d="M 14.833984 14 L 14 14.833984 L 15.666016 16.5 L 14 18.166016 L 14.833984 19 L 16.5 17.333984 L 18.166016 19 L 19 18.166016 L 17.333984 16.5 L 19 14.833984 L 18.166016 14 L 16.5 15.666016 L 14.833984 14 z "
     />
</svg>
