<svg xmlns="http://www.w3.org/2000/svg" viewBox="0 0 22 22">
  <defs id="defs3051">
<style type="text/css" id="current-color-scheme">.ColorScheme-Text {color:#fcfcfc;}</style>
  </defs>
 <path 
    style="fill:currentColor;fill-opacity:1;stroke:none" 
    d="m 3,6 c 0,3 0,10 0,10 0,0 0,3 3,3 3,0 7,0 10,0 3,0 3,-3 3,-3 V 8 h -1 v 8 c 0,0 0,2 -2,2 C 14,18 8,18 6,18 4,18 4,16 4,16 4,16 4,8 4,6 4,4 6,4 6,4 h 7 V 3 H 6 C 6,3 3,3 3,6 Z M 15.5,3 14.792969,3.7070312 12,6.5 12.707031,7.2070312 15,4.9140625 V 9.2070312 10 h 1 V 4.9140625 L 18.292969,7.2070312 19,6.5 16.207031,3.7070312 Z m -8,2 C 6.115,5 5,6.115 5,7.5 5,8.885 6.115,10 7.5,10 8.885,10 10,8.885 10,7.5 10,6.115 8.885,5 7.5,5 Z m 0,1 C 8.331,6 9,6.669 9,7.5 9,8.331 8.331,9 7.5,9 6.669,9 6,8.331 6,7.5 6,6.669 6.669,6 7.5,6 Z m 6.494141,4 -3.345703,3.34375 L 9.3066406,12 9.3007812,12.007812 9.2929688,12 5,16.292969 5.7070312,17 9.2988281,13.408203 9.9414062,14.050781 10.648438,14.757812 11.355469,14.050781 14,11.40625 16.292969,13.699219 17,12.992188 14.007812,10 14,10.007812 Z"
	class="ColorScheme-Text"
    />  
</svg>
