<svg version="1.1" viewBox="0 0 22 22" xmlns="http://www.w3.org/2000/svg"><style type="text/css" id="current-color-scheme">.ColorScheme-Text { color: #fcfcfc; }.ColorScheme-NegativeText { color: #da4453; }</style>
    <path d="M 6,3 C 3,3 3,6 3,6 h 1 c 0,0 0,-2 2,-2 2,0 8,0 10,0 2,0 2,2 2,2 v 3 h 1 V 5.9813597 C 19,5.9813597 19,3 16,3 13,3 9,3 6,3 Z M 3,9 c 0,0 0,6 0,8 0,2 2,2 2,2 H 9 V 18 H 5 C 5,18 4,18 4,17 4,16 4,9 4,9 4,9 4,8 5,8 c 1,0 5,0 6,0 1,0 1,1 1,1 h 1 C 13,9 13,7 11,7 9,7 7,7 5,7 3,7 3,9 3,9 Z m 2,1 v 1 h 4 v -1 z m 5,2 c 0,0 0,3 0,5 0,2 2,2 2,2 h 1 v -1 h -1 c 0,0 -1,0 -1,-1 0,-1 0,-5 0,-5 0,0 0,-1 1,-1 1,0 4.034288,0 5,0 0.965712,0 1,1 1,1 v 1 h 1 v -1 c 0,0 0,-2 -2,-2 -2,0 -3,0 -5,0 -2,0 -2,2 -2,2 z m 2,0 v 2 h 1 v -1 h 4 v -1 z m -7,1 v 1 h 2 v -1 z m 0,2 v 1 h 4 v -1 z" fill="currentColor" class="ColorScheme-Text"/>
    <path d="m14 16v1h5v-1z" fill="currentColor" class="ColorScheme-NegativeText"/>
</svg>
