<svg xmlns="http://www.w3.org/2000/svg" viewBox="0 0 22 22">
  <defs id="defs3051">
<style type="text/css" id="current-color-scheme">.ColorScheme-Text {color:#fcfcfc;}</style>
  </defs>
 <path 
    style="fill:currentColor;fill-opacity:1;stroke:none" 
    d="m 3,6 c 0,3 0,7 0,10 0,3 3,3 3,3 h 1 1 5 c 0,0 0,0 3,0 3,0 3,-3 3,-3 V 13 C 19,13 19,9 19,6 19,3 16,3 16,3 H 6 C 6,3 3,3 3,6 Z M 14.625,4 16,4.8125 17.375,4 18,4.8125 l -1.6875,1 L 16,6 15.6875,5.8125 14,4.8125 Z M 4,9 C 4,7 6,7 6,7 h 10 c 0,0 2,0 2,2 0,2 0,4 0,4 v 3 c 0,0 0,2 -2,2 -2,0 -3,0 -3,0 H 8 6 C 6,18 4,18 4,16 4,14 4,11 4,9 Z M 7,8 C 5.895431,8 5,8.8954 5,10 5,11.1046 5.895431,12 7,12 8.104569,12 9,11.1046 9,10 9,8.8954 8.104569,8 7,8 Z M 7,9 C 7.552285,9 8,9.4477 8,10 8,10.5523 7.552285,11 7,11 6.447715,11 6,10.5523 6,10 6,9.4477 6.447715,9 7,9 Z m 4,1 v 1 h 6 v -1 z m -6,3 v 4 h 3 1 v -1 -3 z m 1,1 h 2 v 2 H 6 Z m 5,1 v 1 h 2 4 v -1 h -4 z"
	class="ColorScheme-Text"
    />  
</svg>
