<svg xmlns="http://www.w3.org/2000/svg" viewBox="0 0 22 22">
  <defs id="defs3051">
    <style type="text/css" id="current-color-scheme">.ColorScheme-Text {color:#fcfcfc;}.ColorScheme-Highlight {color:#3daee9;}</style>
  </defs>
 <path 
     style="fill:currentColor;fill-opacity:1;stroke:none" 
     d="m 3,3 c 0,0 0,10 0,13 0,3 3,3 3,3 h 6 V 18 H 6 C 6,18 4,18 4,16 4,14 4,7 4,7 h 14 v 6 h 1 V 3 H 17 V 6 H 15 V 3 H 7 V 6 H 5 V 3 Z m 2,5 v 3 h 1 v -1 h 4 v 1 h 1 V 8 H 10 V 9 H 6 V 8 Z m 2,4 v 3 h 1 v -1 h 4 v 1 h 1 v -3 h -1 v 1 H 8 v -1 z m 10,1 -1,1 -1,1 -2,2 v 1 1 h 2 L 15.59375,18.40625 16,18 l 1,-1 1,-1 1,-1 z M 16.689453,14.689453 17.28125,15.28125 17,15.5625 15.59375,16.96875 v 0.01563 L 14.3125,18.28125 13.71875,17.6875 Z"
     class="ColorScheme-Text"
     />
</svg>
