<svg viewBox="0 0 22 22" xmlns="http://www.w3.org/2000/svg">
  <defs id="defs3051">
    <style type="text/css" id="current-color-scheme">.ColorScheme-Text {color:#fcfcfc;}.ColorScheme-NegativeText {color:#da4453;}</style>
  </defs>
<path
    d="M 8,3 C 5,3 5,6 5,6 V 8 H 6 V 6 c 0,0 0,-2 2,-2 2,0 6,0 8,0 2,0 2,2 2,2 v 8 h -4 v 1 h 4 v 1 c 0,0 0,2 -2,2 -2,0 -2,0 -2,0 v 1 c 0,0 -1,0 2,0 3,0 3,-3 3,-3 V 6 C 19,6 19,3 16.008671,3 13.017343,3 11,3 8,3 Z M 7,6 v 1 h 8 V 6 Z m -4,5 c 0,2 0,5.99661 0,5.99661 0,0 0,2.00339 2,2.00339 2,0 4,0 6,0 2,0 2,-2 2,-2 0,0 0,-4 0,-6 C 13,9 11,9 11,9 H 5 C 5,9 3,9 3,11 Z m 1,0 c 0,-1 1,-1 1,-1 h 6 c 0,0 1.005291,0 1,1 L 8.36328,14.56055 6.45312,12.67969 5.72656,13.40039 8.36328,16 12,12.43359 V 17 c 0,0 0,1 -1,1 -1,0 -5,0 -6,0 -1,0 -1,-1 -1,-1 0,0 0,-5 0,-6 z m 10,-1 v 1 h 1 v -1 z"
    style="fill:currentColor;fill-opacity:1;stroke:none"
    class="ColorScheme-Text"
    />
<path
    d="m16 6v1h1v-1zm-2 2v1h1v-1zm2 0v1h1v-1zm0 2v1h1v-1z" 
    style="fill:currentColor;fill-opacity:1;stroke:none"
    class="ColorScheme-NegativeText"
    />
</svg>
