<svg xmlns="http://www.w3.org/2000/svg" viewBox="0 0 22 22">
  <defs id="defs3051">
    <style type="text/css" id="current-color-scheme">.ColorScheme-Text {color:#fcfcfc;}.ColorScheme-Highlight {color:#3daee9;}</style>
  </defs>
 <path 
     style="fill:currentColor;fill-opacity:1;stroke:none" 
     d="M 6,3 C 6,3 5,2.99997 5,4 5,4 3,4 3,6 3,8 3,7 3,7 v 9 c 0,0 0,3 3,3 3,0 7,0 10,0 3,0 3,-3 3,-3 V 7 C 19,7 19,8 19,6 19,4 17,4 17,4 17,2.99997 16,3 16,3 h -3 c 0,0 -1,-3e-5 -1,1 H 10 C 10,2.99997 9,3 9,3 Z M 6,4 H 9 V 5 H 6 Z m 7,0 h 3 V 5 H 13 Z M 4,9 c 0,0 0,-2 2,-2 2,0 8,0 10,0 2,0 2,2 2,2 v 7 c 0,0 0,2 -2,2 C 14,18 8,18 6,18 4,18 4,16 4,16 Z M 9.5,9 C 7.561,9 6,10.561 6,12.5 6,14.439 7.561,16 9.5,16 10.039612,16 10.544436,15.870591 11,15.654297 11.455564,15.870591 11.960388,16 12.5,16 14.439,16 16,14.439 16,12.5 16,10.561 14.439,9 12.5,9 11.960388,9 11.455564,9.1294093 11,9.3457031 10.544436,9.1294093 10.039612,9 9.5,9 Z m 0,1 c 0.1718015,0 0.3400737,0.01808 0.501953,0.05078 C 9.3837344,10.681388 9,11.543049 9,12.5 9,13.456951 9.3837344,14.318613 10.001953,14.949219 9.8400737,14.981919 9.6718015,15 9.5,15 8.115,15 7,13.885 7,12.5 7,11.115 8.115,10 9.5,10 Z m 3,0 c 1.385,0 2.5,1.115 2.5,2.5 0,1.385 -1.115,2.5 -2.5,2.5 -0.171801,0 -0.340073,-0.01808 -0.501953,-0.05078 C 12.616266,14.318612 13,13.456951 13,12.5 13,11.543049 12.616266,10.681387 11.998047,10.050781 12.159927,10.018081 12.328199,10 12.5,10 Z M 11,10.507812 c 0.604994,0.455454 1,1.173236 1,1.992188 0,0.818952 -0.395006,1.536735 -1,1.992188 C 10.395006,14.036733 10,13.318952 10,12.5 c 0,-0.818952 0.395006,-1.536735 1,-1.992188 z"
     class="ColorScheme-Text"
     />
</svg>
