<svg xmlns="http://www.w3.org/2000/svg" viewBox="0 0 22 22">
  <defs id="defs3051">
<style type="text/css" id="current-color-scheme">.ColorScheme-Text {color:#fcfcfc;}</style>
  </defs>
 <path 
     style="fill:currentColor;fill-opacity:1;stroke:none" 
     d="M 6,3 C 3,3 3,6 3,6 H 4 C 4,6 4,4 6,4 h 10 c 2,0 2,2 2,2 v 3 h 1 V 6 C 19,6 19,3 16,3 Z M 5,7 c 0,0 -2,0 -2,2 0,2 -0.050622,6 0,8 0.050622,2 2,2 2,2 H 9 V 18 H 5 C 5,18 4,18 4,17 V 9 C 4,8 5,8 5,8 h 6 c 1,0 1,1 1,1 h 1 c 0,0 0,-2 -2,-2 z m 0,3 v 1 h 4 v -1 z m 0,3 v 1 h 2 v -1 z m 0,2 v 1 h 4 v -1 z"
     class="ColorScheme-Text"
     />
 <path 
     style="fill:#2ecc71;fill-opacity:1;stroke:none" 
     d="m 12,10 c -2,0 -2,2 -2,2 v 5 c 0,0 0,2 2,2 2,0 3,0 5,0 2,0 2,-2 2,-2 v -5 c 0,0 0,-2 -2,-2 -2,0 -3,0 -5,0 z m -1,2 c 0,0 0,-1 1,-1 1,0 4,0 5,0 1,0 1,1 1,1 v 5 c 0,0 0,1 -1,1 -1,0 -4,0 -5,0 -1,0 -1,-1 -1,-1 z m 1,0 v 2 h 5 v -2 z m 2,3 v 1 h 1 v -1 z m 2,0 v 1 h 1 v -1 z"
     />
</svg>
