<svg xmlns="http://www.w3.org/2000/svg" viewBox="0 0 22 22">
  <defs id="defs3051">
<style type="text/css" id="current-color-scheme">.ColorScheme-Text {color:#fcfcfc;}</style>
  </defs>
 <path 
    style="fill:currentColor;fill-opacity:1;stroke:none" 
    d="m 3,6 c 0,3 0,7 0,10 0,3 3,3 3,3 l 10,0 c 0,0 3,0 3,-3 C 19,13 19,9 19,6 19,3 16,3 16,3 H 6 C 6,3 3,3 3,6 Z M 4,9 C 4,7 6,7 6,7 h 10 c 0,0 2,0 2,2 0,2 0,5 0,7 0,2 -2,2 -2,2 H 6 C 6,18 4,18 4,16 4,14 4,11 4,9 Z M 6,8 v 4 h 4 V 8 Z m 6,0 v 4 h 4 V 8 Z M 7,9 h 2 v 2 H 7 Z m 6,0 h 2 v 2 h -2 z m -7,4 v 4 h 4 v -4 z m 6,0 v 4 h 4 v -4 z m -5,1 h 2 v 2 H 7 Z m 6,0 h 2 v 2 h -2 z"
	class="ColorScheme-Text"
    />  
</svg>
