<svg xmlns="http://www.w3.org/2000/svg" viewBox="0 0 22 22">
  <defs id="defs3051">
<style type="text/css" id="current-color-scheme">.ColorScheme-Text {color:#fcfcfc;}</style>
  </defs>
 <path 
    style="fill:currentColor;fill-opacity:1;stroke:none" 
    d="m 3,6 c 0,3 0,4 0,4 h 6 v 6 h 1 2 v 3 h 4 c 0,0 3,0 3,-3 0,-3 0,-4 0,-4 h -7 v 3 H 10 V 10 7 h 2 v 3 h 7 C 19,10 19,9 19,6 19,3 16,3 16,3 H 12 V 6 H 10 V 3 H 6 C 6,3 3,3 3,6 Z M 4,6 C 4,4 6,4 6,4 H 9 V 9 H 4 C 4,9 4,8 4,6 Z m 9,-2 h 3 c 0,0 2,0 2,2 0,2 0,3 0,3 h -5 z"
	class="ColorScheme-Text"
    />  
</svg>
