<svg viewBox="0 0 22 22" xmlns="http://www.w3.org/2000/svg">
  <defs id="defs3051">
<style type="text/css" id="current-color-scheme">.ColorScheme-Text {color:#fcfcfc;}</style>
  </defs>
<path
    d="M 7,6 H 5 c 0,0 -2,0 -2,2 0,2 0,6 0,8 0,2 2,2 2,2 h 12 c 0,0 2,0 2,-2 0,-2 0,-6 0,-8 C 19,6 17,6 17,6 H 15 C 15,6 15,4 13,4 11,4 11,4 9,4 7,4 7,6 7,6 Z M 8,5 h 6 V 6 H 8 Z M 4,8 C 4,7 5,7 5,7 V 17 C 5,17 4,17 4,16 4,15 4,9 4,8 Z M 7,7 h 8 V 17 H 7 Z m 10,0 c 0,0 1,0 1,1 0,1 0,7 0,8 0,1 -1,1 -1,1 z"
    style="fill:currentColor;fill-opacity:1;stroke:none"
    class="ColorScheme-Text"
    />
</svg>
