<svg version="1.1" viewBox="0 0 22 22" xmlns="http://www.w3.org/2000/svg">
    <defs>
<style type="text/css" id="current-color-scheme">.ColorScheme-Text {color:#fcfcfc;}</style>
    </defs>
    <path class="ColorScheme-Text" d="m 19,6 v 10 c 0,3 -3,3 -3,3 H 6 C 6,19 3,19 3,16 V 6 C 3,6 3,3 6,3 h 10 c 3,0 3,3 3,3 z m -1,3 c 0,0 0,-2 -2,-2 -2,0 -2,0 -2,0 v 11 h 2 c 0,0 2,0 2,-2 z M 13,7 C 13,7 8,7 6,7 4,7 4,9 4,9 v 7 c 0,2 2,2 2,2 h 7 z m -4,3 v 2 h 2 v 1 H 9 v 2 H 8 V 13 H 6 v -1 h 2 v -2 z" fill="currentColor"/>
</svg>
