<svg xmlns="http://www.w3.org/2000/svg" viewBox="0 0 22 22">
  <defs id="defs3051">
<style type="text/css" id="current-color-scheme">.ColorScheme-Text {color:#fcfcfc;}</style>
  </defs>
 <path 
    style="fill:currentColor;fill-opacity:1;stroke:none" 
    d="M 7,3 C 5,3 5,5 5,5 H 3 v 3 h 2 v 6 H 3 v 3 h 2 c 0,0 0,2 2,2 2,0 9,0 9,0 3,0 3,-3 3,-3 V 6 C 19,6 19,3 16,3 16,3 9,3 7,3 Z m 1,1 h 8 c 2,0 2,2 2,2 H 6 C 6,6 6,4 8,4 Z M 6,7 h 12 v 9 c 0,0 0,2 -2,2 H 8 C 6,18 6,16 6,16 Z"
	class="ColorScheme-Text"
    />  
</svg>
