<svg xmlns="http://www.w3.org/2000/svg" viewBox="0 0 22 22">
  <defs id="defs3051">
<style type="text/css" id="current-color-scheme">.ColorScheme-Text {color:#fcfcfc;}</style>
  </defs>
 <path 
    style="fill:currentColor;fill-opacity:1;stroke:none" 
    d="m 3,6 v 4 1 h 1 4 1 9 1 V 10 6 C 19,6 19,3 16,3 13,3 9,3 6,3 3,3 3,6 3,6 Z m 1,1 h 4 v 3 H 4 Z m 5,0 h 9 v 3 H 9 Z m -6,6 v 1 2 c 0,0 0,3 3,3 3,0 7,0 10,0 3,0 3,-3 3,-3 v -2 -1 z m 1,1 h 4 v 4 c 0,0 0,0 -2,0 -2,0 -2,-2 -2,-2 z m 5,0 h 9 v 2 c 0,0 0,2 -2,2 -2,0 -7,0 -7,0 z"
	class="ColorScheme-Text"
    />  
</svg>
