<svg xmlns="http://www.w3.org/2000/svg" viewBox="0 0 22 22">
  <defs id="defs3051">
<style type="text/css" id="current-color-scheme">.ColorScheme-Text {color:#fcfcfc;}</style>
  </defs>
 <path 
    style="fill:currentColor;fill-opacity:1;stroke:none" 
    d="m 2,6 c 0,3 0,7 0,10 0,3 3,3 3,3 h 8 c 0,0 3,0 3,-3 C 16,13 16,9 16,6 16,3 13,3 13,3 H 5 C 5,3 2,3 2,6 Z M 12,4 h 2 v 14 h -2 z m 5,5 v 1 1 1 5 0.414062 l 1.410156,1.410157 v 0.171875 L 18.414062,19 18.5,18.914062 18.585938,19 l 0.0039,-0.0039 V 18.824219 L 20,17.414062 V 16 12 11 10 9 Z m 1,1 h 1 v 1 h -1 z m 0,2 h 1 v 5 L 18.5,17.5 18,17 Z"
	class="ColorScheme-Text"
    />  
</svg>
