<svg version="1.1" viewBox="0 0 22 22" xmlns="http://www.w3.org/2000/svg">
    <style id="current-color-scheme" type="text/css">.ColorScheme-Text { color: #fcfcfc; }.ColorScheme-NegativeText { color: #da4453; }</style>
    <path class="ColorScheme-Text" d="m 5.1210938,3 1,1 C 6.1210938,4 14,4 16,4 c 2,0 2,2 2,2 v 9.878906 l 1,1 L 19,6 C 19,6 19,3 16,3 13,3 5.1210938,3 5.1210938,3 Z m 2,2 1,1 H 13 V 5 Z M 14,5 v 1 h 3 V 5 Z M 9.1210938,7 10.121094,8 H 11 V 7 Z M 5,7.1210938 V 11 c 0,0 -2,0 -2,2 0,2 0,2 0,4 0,2 2,2 2,2 h 11.878906 l -1,-1 H 5 c 0,0 -1,0 -1,-1 0,-1 0,-3 0,-4 0,-1 1,-1 1,-1 l 4.8789062,0 -1,-1 H 6 V 8.1210938 Z M 13.121094,11 l 1,1 c 0,0 -0.121094,0 0.878906,0 1,0 1,1 1,1 v 0.878906 l 1,1 V 13 c 0,0 0,-2 -2,-2 -2,0 -1.878906,0 -1.878906,0 z m -6.1601565,1.539062 c -0.35618,-0.0054 -0.7209639,0.170895 -0.9960937,0.458985 -0.25847,0.27064 -0.4071157,0.564628 -0.5410157,0.798828 -0.1395,0.244 -0.2192812,0.469984 -0.3007812,0.646484 l -0.021484,0.04883 -0.089844,0.398437 c -0.060631,0.26971 0.042698,0.549155 0.3125,0.609375 0.2697099,0.06063 0.6038424,-0.120825 0.6640624,-0.390625 0.02833,-0.29704 0.2013875,-0.562416 0.3046876,-0.816406 0.1452099,-0.25399 0.2646212,-0.467476 0.3945312,-0.603516 0.18542,-0.19415 0.2405694,-0.158404 0.2558594,-0.152344 0.015292,0.0061 0.1158006,0.07454 0.1503906,0.339844 0.00405,0.0311 -0.00602,0.186264 -0.029297,0.308594 -0.036624,0.11469 -0.047591,0.248842 -0.068359,0.357422 C 7.0002036,14.982579 7.11061,15.61107 8,15.5 c 0.88939,-0.11107 1.0370436,-0.679863 1.1523438,-0.845703 0.072757,0.08508 0.1427306,0.169961 0.2441406,0.275391 0.14374,0.14944 0.3094462,0.311109 0.5664062,0.412109 0.2569504,0.101 0.6487464,0.07004 0.9101564,-0.134766 0.04952,-0.0388 0.05756,-0.07052 0.09961,-0.109375 0.04353,0.07058 0.05189,0.09048 0.107422,0.175782 0.15064,0.232458 0.461559,0.298154 0.69336,0.146484 0.232458,-0.15064 0.298154,-0.461559 0.146484,-0.69336 -0.18284,-0.28087 -0.281419,-0.457715 -0.34961,-0.578124 -0.0341,-0.06021 -0.05271,-0.100852 -0.109374,-0.175782 -0.02833,-0.03747 -0.06119,-0.09225 -0.181641,-0.158203 -0.12046,-0.06595 -0.386295,-0.0691 -0.515625,0.0078 -0.11286,0.09243 -0.190324,0.239899 -0.277344,0.349609 -0.03156,0.05098 -0.06577,0.09333 -0.160156,0.175781 -0.09968,0.02886 -0.125225,-0.02426 -0.208984,-0.111328 -0.100602,-0.10458 -0.2090194,-0.239357 -0.3242192,-0.367187 -0.057602,-0.06391 -0.1148826,-0.126827 -0.1953126,-0.191407 -0.08043,-0.06457 -0.18615,-0.156815 -0.40625,-0.166015 -0.2674199,-0.01118 -0.4525156,0.123182 -0.5722656,0.232422 -0.11975,0.10924 -0.203027,0.221568 -0.2792968,0.330078 -0.1525301,0.21702 -0.3111707,0.437683 -0.3066407,0.433593 0.004,-0.0036 -0.011783,-0.0024 -0.017578,-0.002 0.012862,-0.05233 0.017073,-0.0583 0.03125,-0.132812 0.032491,-0.17077 0.06959,-0.377843 0.037109,-0.626953 -0.066097,-0.50694 -0.3205775,-0.959272 -0.7734375,-1.138672 -0.11321,-0.04484 -0.2308794,-0.06656 -0.3496094,-0.06836 z M 5,16 v 1 h 7 v -1 z m 8,0 v 1 h 1.878906 l -1,-1 z" fill="currentColor"/>
    <path class="ColorScheme-NegativeText" d="M 3.7070309,3 2.9999997,3.7070312 18.292969,19 19,18.292969 Z" fill="currentColor"/>
</svg>
