<?xml version="1.0" encoding="UTF-8" standalone="no"?>
<svg
   version="1.1"
   viewBox="0 0 22 22"
   id="svg1"
   sodipodi:docname="system-reboot.svg"
   width="22"
   height="22"
   inkscape:version="1.3.2 (091e20ef0f, 2023-11-25)"
   xmlns:inkscape="http://www.inkscape.org/namespaces/inkscape"
   xmlns:sodipodi="http://sodipodi.sourceforge.net/DTD/sodipodi-0.dtd"
   xmlns="http://www.w3.org/2000/svg"
   xmlns:svg="http://www.w3.org/2000/svg">
  <sodipodi:namedview
     id="namedview1"
     pagecolor="#ffffff"
     bordercolor="#999999"
     borderopacity="1"
     inkscape:showpageshadow="2"
     inkscape:pageopacity="0"
     inkscape:pagecheckerboard="0"
     inkscape:deskcolor="#d1d1d1"
     inkscape:zoom="8.7386364"
     inkscape:cx="15.791938"
     inkscape:cy="4.2912874"
     inkscape:window-width="1920"
     inkscape:window-height="1001"
     inkscape:window-x="0"
     inkscape:window-y="0"
     inkscape:window-maximized="1"
     inkscape:current-layer="svg1" />
  <defs
     id="defs1">
    <style
       type="text/css"
       id="current-color-scheme">.ColorScheme-Text {
        color:#eff0f1;
      }</style>
  </defs>
  <g
     id="22-22-system-reboot"
     transform="translate(0,32)">
    <path
       style="fill:none"
       d="m 0,-32 v 22 h 22 v -22 z"
       id="path29" />
    <path
       d="m 16.934636,-26.88733 3.647112,1.854884 -1.101991,0.540668 c 0.454207,1.072832 0.709108,2.251875 0.709108,3.491864 0,4.969157 -4.028494,8.999914 -8.999911,8.999914 -1.592621,0 -3.087494,-0.418138 -4.384971,-1.144405 l 0.910342,-0.910119 c 1.046415,0.52497 2.223144,0.827944 3.474629,0.827944 4.292974,0 7.77143,-3.480403 7.77143,-7.771603 0,-1.151577 -0.266412,-2.236656 -0.716774,-3.219562 z m -5.868936,1.909473 z m 0,0 z m 0.125177,-3.795649 c -4.292969,0 -7.771434,3.480692 -7.771434,7.773592 0,1.151598 0.266403,2.236479 0.716777,3.21939 L 5.447113,-15.11267 1.8,-16.9678 2.901989,-17.508372 C 2.447779,-18.581505 2.192883,-19.76027 2.192883,-20.999914 2.190934,-25.969759 6.221378,-30 11.190877,-30 c 1.592616,0 3.087495,0.417656 4.384969,1.143978 l -0.91034,0.910516 c -1.046411,-0.525088 -2.225064,-0.828 -3.474629,-0.828 z"
       id="path4-9-9"
       sodipodi:nodetypes="cccssccsscccccccccccccccccccccccccccsscccccscc"
       style="fill:#d3dae3;fill-opacity:1;stroke-width:0.019165" />
  </g>
</svg>
