<svg xmlns="http://www.w3.org/2000/svg" viewBox="0 0 22 22">
  <defs id="defs3051">
<style type="text/css" id="current-color-scheme">.ColorScheme-Text {color:#fcfcfc;}</style>
  </defs>
 <path 
    style="fill:currentColor;fill-opacity:1;stroke:none" 
    d="m 3,7 c 0,3 0,4 0,4 H 13 V 4 H 6 C 6,4 3,4 3,7 Z M 14,4 v 7 h 5 c 0,0 0,-1 0,-4 C 19,4 16,4 16,4 Z M 4,7 C 4,5 6,5 6,5 h 6 v 5 H 4 C 4,10 4,9 4,7 Z m -1,5 v 4 c 0,0 0,3 3,3 3,0 7,0 10,0 3,0 3,-3 3,-3 v -4 z m 1,1 h 14 v 3 c 0,0 0,2 -2,2 -2,0 -8,0 -10,0 -2,0 -2,-2 -2,-2 z"
	class="ColorScheme-Text"
    />  
</svg>
