<svg xmlns="http://www.w3.org/2000/svg" viewBox="0 0 22 22">
  <defs id="defs3051">
<style type="text/css" id="current-color-scheme">.ColorScheme-Text {color:#fcfcfc;}</style>
  </defs>
 <path 
    style="fill:currentColor;fill-opacity:1;stroke:none" 
    d="m 3,5 c 0,0 0,10 0,12 0,2 2,2 2,2 H 9 V 18 H 5 C 5,18 4,18 4,17 4,16 4,5 4,5 4,5 4,4 5,4 c 1,0 7,0 8,0 1,0 1,1 1,1 v 3 h 1 V 5 C 15,5 15,3 13,3 11,3 7,3 5,3 3,3 3,5 3,5 Z M 5,5 V 9 H 9 V 5 Z m 5,0 v 1 h 3 V 5 Z m 0,2 v 1 h 3 V 7 Z m 0,4 v 6 c 0,0 0,2 2,2 2,0 3,0 5,0 2,0 2,-2 2,-2 l -0.05811,-6 C 18.941888,11 19,9 17,9 c -2,0 -3,0 -5,0 -2,0 -2,2 -2,2 z m 1,0 c 0,0 0,-1 1,-1 1,0 4,0 5,0 1,0 1,1 1,1 v 3 l -1,-1 -2,2 -1,-1 -3,3 z m -6,0 v 1 h 4 v -1 z m 8,0 c -0.554,0 -1,0.446 -1,1 0,0.554 0.446,1 1,1 0.554,0 1,-0.446 1,-1 0,-0.554 -0.446,-1 -1,-1 z m -8,2 v 1 h 4 v -1 z m 0,2 v 1 h 4 v -1 z"
	class="ColorScheme-Text"
    />  
</svg>
