<svg xmlns="http://www.w3.org/2000/svg" viewBox="0 0 22 22">
  <defs id="defs3051">
<style type="text/css" id="current-color-scheme">.ColorScheme-Text {color:#fcfcfc;}</style>
  </defs>
 <path 
     style="fill:currentColor;fill-opacity:1;stroke:none" 
     d="m 3,6 c 0,3 0,4 0,4 h 7 V 3 H 6 C 6,3 3,3 3,6 Z M 4,6 C 4,4 6,4 6,4 H 9 V 9 H 4 C 4,9 4,8 4,6 Z m 8,-2 v 1 h 7 V 4 Z m 0,4 v 1 h 7 V 8 Z m -9,4 c 0,0 0,1 0,4 0,3 3,3 3,3 h 4 v -7 z m 9,1 v 1 h 4 v -1 z m 0,4 v 1 h 4 v -1 z"
	 class="ColorScheme-Text"
     />
</svg>
