<svg version="1.1" viewBox="0 0 22 22" xmlns="http://www.w3.org/2000/svg">
    <defs>
<style type="text/css" id="current-color-scheme">.ColorScheme-Text {color:#fcfcfc;}</style>
    </defs>
    <path  d="m 4,19 c 0,0 0,-3 0,-6 0,-3 3,-3 3,-3 h 7 l 4,4 v 5 H 17 V 15 H 13 V 11 H 7 c 0,0 -2,0 -2,2 0,2 0,6 0,6 z" style="fill:currentColor;fill-opacity:1;stroke:none" class="ColorScheme-Text"/>
    <path d="M 4,5.9933387 V 3 h 1 v 3 c 0,0 0,2 2,2 h 8 c 2,0 2,-2 2,-2 V 3 h 1 v 3 c 0,0 0,3 -3,3 H 7 C 4,9 4,5.9933387 4,5.9933387 Z"  style="fill:currentColor;fill-opacity:1;stroke:none" class="ColorScheme-Text"/>
</svg>
