<svg xmlns="http://www.w3.org/2000/svg" viewBox="0 0 22 22">
  <defs id="defs3051">
<style type="text/css" id="current-color-scheme">.ColorScheme-Text {color:#fcfcfc;}</style>
  </defs>
 <path 
    style="fill:currentColor;fill-opacity:1;stroke:none" 
    d="m 3,3 v 13 c 0,0 0,3 3,3 3,0 7,0 10,0 3,0 3,-3 3,-3 V 13 3 H 17 V 6 H 15 V 3 H 7 V 6 H 5 V 3 H 3 m 1,4 h 14 v 6 3 c 0,0 0,2 -2,2 C 14,18 8,18 6,18 4,18 4,16 4,16 V 7 M 14.292969,9 9.701172,13.591797 8.554688,12.445312 7.847657,13.152344 9.69336,15 9.699219,14.992188 9.707031,15 15,9.707031 14.292969,9"
	class="ColorScheme-Text"
    />  
</svg>
