<svg xmlns="http://www.w3.org/2000/svg" viewBox="0 0 22 22">
  <defs id="defs3051">
<style type="text/css" id="current-color-scheme">.ColorScheme-Text {color:#fcfcfc;}</style>
  </defs>
 <path 
    style="fill:currentColor;fill-opacity:1;stroke:none" 
    d="M 6,3 C 4,3 4,5 4,5 H 3 V 6 H 4 V 7 H 3 v 1 h 1 v 6 H 3 v 1 h 1 v 1 H 3 v 1 h 1 c 0,0 0,2 2,2 2,0 1,0 1,0 0,0 6,0 9,0 3,0 3,-3 3,-3 V 6 C 19,6 19,3 16,3 13,3 7,3 7,3 7,3 8,3 6,3 Z M 7,4 H 9 V 6 H 7 Z m 3,0 c 0,0 4,0 6,0 2,0 2,2 2,2 H 10 Z M 7,7 H 9 V 9 H 7 Z m 3,0 h 8 v 2 h -8 z m -3,3 h 2 v 2 H 7 Z m 3,0 h 8 v 2 h -8 z m -3,3 h 2 v 2 H 7 Z m 3,0 h 8 v 2 h -8 z m -3,3 h 2 v 2 H 7 Z m 3,0 h 8 c 0,0 0,2 -2,2 -2,0 -6,0 -6,0 z"
	class="ColorScheme-Text"
    />  
</svg>
