<svg xmlns="http://www.w3.org/2000/svg" viewBox="0 0 22 22">
  <defs id="defs3051">
<style type="text/css" id="current-color-scheme">.ColorScheme-Text {color:#fcfcfc;}</style>
  </defs>
 <path 
     style="fill:currentColor;fill-opacity:1;stroke:none" 
     d="m 3.0000001,3.0000001 v 4 c 0,0 -1.0000001,-1e-7 -1,1.9999999 1e-7,2 -10e-8,8 -10e-8,8 0,2 2,2 2,2 0,0 12,0 14,0 2,0 2,-2 2,-2 V 9 C 20,7 18,7 18,7 l -4,1e-7 v -4 z m 1,1 H 13 v 3 h -2.507812 c -0.470484,-0.6273203 -1.2080451,-0.9975468 -1.9921881,-1 -0.786206,6.144e-4 -1.526323,0.3710349 -1.9980467,1 H 4.0000001 Z M 3,9 c 0,0 0,-1 1.0000001,-0.9999999 1.0000001,1e-7 2.0507812,0 2.0507812,0 H 10.945312 13 14 c 0,0 3,-10e-8 4,-10e-8 1,0 1,1 1,1 v 2 h -2 -5 c -1.108,0 -2.0000001,0.892 -2.0000001,2 0,1.108 0.8920001,2 2.0000001,2 h 5 2 v 2 c 0,0 0,1 -1,1 C 15.50073,18 8.0916384,18 3.9394371,18 3,18 3.0000001,17 3.0000001,17 Z m 10,3 c 0.552285,0 1,0.447715 1,1 0,0.552285 -0.447715,1 -1,1 -0.552285,0 -1,-0.447715 -1,-1 0,-0.552285 0.447715,-1 1,-1 z"
	 class="ColorScheme-Text"
     />
</svg>
