<svg id="svg6" version="1.1" viewBox="0 0 22 22" xmlns="http://www.w3.org/2000/svg">
    <defs id="defs3051">
<style type="text/css" id="current-color-scheme">.ColorScheme-Text {color:#fcfcfc;}</style>
    </defs>
    <path id="path4" class="ColorScheme-Text" d="M 5,3 C 3.892,3 3,3.892 3,5 H 4 C 4,4.446 4.446,4 5,4 Z M 7,3 V 4 C 7.554,4 8,4.446 8,5 H 9 C 9,3.892 8.108,3 7,3 Z m 5,0 v 1 h 5 c 0.554,0 1,0.446 1,1 v 12 c 0,0.554 -0.446,1 -1,1 h -5 v 1 h 5 c 1.108,0 2,-0.892 2,-2 V 5 C 19,3.892 18.108,3 17,3 Z M 3,7 C 3,8.108 3.892,9 5,9 V 8 C 4.446,8 4,7.554 4,7 Z M 8,7 C 8,7.554 7.554,8 7,8 V 9 C 8.108,9 9,8.108 9,7 Z M 5.8281,12.67 3,15.4981 l 2.8281,2.8301 0.70703,-0.70703 -1.6211,-1.623 h 4.6562 v -1 h -4.6562 l 1.6211,-1.6211 z" fill="currentColor"/>
</svg>
