<svg id="svg6" version="1.1" viewBox="0 0 22 22" xmlns="http://www.w3.org/2000/svg">
    <defs id="defs3051">
<style type="text/css" id="current-color-scheme">.ColorScheme-Text {color:#fcfcfc;}</style>
    </defs>
    <path id="path4" class="ColorScheme-Text" d="M 5,3 C 3.892,3 3,3.892 3,5 V 6 H 4 V 5 C 4,4.446 4.446,4 5,4 H 6 V 3 Z m 3,0 v 1 h 2 V 3 Z M 3,8 v 2 H 4 V 8 Z m 15,4 v 2 h 1 V 12 Z M 5,13 c -1.108,0 -2,0.892 -2,2 v 2 c 0,1.108 0.892,2 2,2 h 2 c 1.108,0 2,-0.892 2,-2 V 15 C 9,13.892 8.108,13 7,13 Z m 0,1 h 2 c 0.554,0 1,0.446 1,1 v 2 c 0,0.554 -0.446,1 -1,1 H 5 C 4.446,18 4,17.554 4,17 v -2 c 0,-0.554 0.446,-1 1,-1 z m 13,2 v 1 c 0,0.554 -0.446,1 -1,1 h -1 v 1 h 1 c 1.108,0 2,-0.892 2,-2 v -1 z m -1.828,-12.3301 -0.70703,0.70703 1.6211,1.6211 h -4.6562 v 1 h 4.6562 l -1.6211,1.623 0.70703,0.70703 2.1211,-2.123 0.70703,-0.70703 z m -4.1719,14.33 v 1 h 2 v -1 z" fill="currentColor"/>
</svg>
