<?xml version="1.0" encoding="UTF-8" standalone="no"?>
<svg
   width="48"
   height="48"
   version="1.1"
   id="svg1"
   sodipodi:docname="anbox.svg"
   inkscape:version="1.3.2 (091e20ef0f, 2023-11-25)"
   xmlns:inkscape="http://www.inkscape.org/namespaces/inkscape"
   xmlns:sodipodi="http://sodipodi.sourceforge.net/DTD/sodipodi-0.dtd"
   xmlns="http://www.w3.org/2000/svg"
   xmlns:svg="http://www.w3.org/2000/svg">
  <defs
     id="defs1" />
  <sodipodi:namedview
     id="namedview1"
     pagecolor="#ffffff"
     bordercolor="#999999"
     borderopacity="1"
     inkscape:showpageshadow="2"
     inkscape:pageopacity="0"
     inkscape:pagecheckerboard="0"
     inkscape:deskcolor="#d1d1d1"
     inkscape:zoom="6.2265625"
     inkscape:cx="33.244667"
     inkscape:cy="21.440401"
     inkscape:window-width="1920"
     inkscape:window-height="994"
     inkscape:window-x="0"
     inkscape:window-y="0"
     inkscape:window-maximized="1"
     inkscape:current-layer="svg1" />
  <g
     id="g1"
     transform="matrix(0.77777778,0,0,0.77777778,-0.88888896,-0.88888896)">
    <circle
       cx="32"
       cy="32"
       r="27"
       style="paint-order:stroke fill markers;fill:#37c8ab"
       id="circle1" />
    <path
       fill="#d7f1f1"
       d="m 25.996,15.02 a 0.996,0.996 0 0 0 -0.695,1.709 l 1.77,1.77 a 8.99,8.99 0 0 0 -3.837,5.52 h 17.53 a 8.993,8.993 0 0 0 -4.461,-5.896 l 1.396,-1.394 a 0.996,0.996 0 0 0 -0.695,-1.71 0.996,0.996 0 0 0 -0.713,0.301 l -1.998,1.998 a 8.96,8.96 0 0 0 -5.348,0.238 L 26.709,15.32 a 0.996,0.996 0 0 0 -0.713,-0.3 z m 3.004,5 a 1,1 0 0 1 1,1 1,1 0 0 1 -1,1 1,1 0 0 1 -1,-1 1,1 0 0 1 1,-1 z m 6,0 a 1,1 0 0 1 1,1 1,1 0 0 1 -1,1 1,1 0 0 1 -1,-1 1,1 0 0 1 1,-1 z m -16,6 c -1.108,0 -2,0.892 -2,2 v 7 c 0,1.108 0.892,2 2,2 1.108,0 2,-0.892 2,-2 v -7 c 0,-1.108 -0.892,-2 -2,-2 z m 4,0 v 14 c 0,1.662 1.338,3 3,3 h 1 v 4 c 0,1.108 0.892,2 2,2 1.108,0 2,-0.892 2,-2 v -4 h 2 v 4 c 0,1.108 0.892,2 2,2 1.108,0 2,-0.892 2,-2 v -4 h 1 c 1.662,0 3,-1.338 3,-3 v -14 z m 22,0 c -1.108,0 -2,0.892 -2,2 v 7 c 0,1.108 0.892,2 2,2 1.108,0 2,-0.892 2,-2 v -7 c 0,-1.108 -0.892,-2 -2,-2 z"
       id="path1" />
  </g>
</svg>
