<?xml version="1.0" encoding="UTF-8" standalone="no"?>
<svg
   height="48"
   width="48"
   version="1.1"
   id="svg1886"
   sodipodi:docname="catfish.svg"
   inkscape:version="1.3.2 (091e20ef0f, 2023-11-25)"
   xmlns:inkscape="http://www.inkscape.org/namespaces/inkscape"
   xmlns:sodipodi="http://sodipodi.sourceforge.net/DTD/sodipodi-0.dtd"
   xmlns:xlink="http://www.w3.org/1999/xlink"
   xmlns="http://www.w3.org/2000/svg"
   xmlns:svg="http://www.w3.org/2000/svg">
  <defs
     id="defs1890">
    <linearGradient
       id="m"
       x1="68.210472"
       x2="148.52051"
       y1="177.75131"
       y2="258.06134"
       gradientUnits="userSpaceOnUse"
       gradientTransform="matrix(0.37626177,0,0,0.37626188,-16.518336,-57.726176)">
      <stop
         stop-color="#59f"
         offset="0"
         id="stop3371" />
      <stop
         stop-color="#06f"
         offset="1"
         id="stop3373" />
    </linearGradient>
    <linearGradient
       id="l"
       x1="220.30621"
       x2="54.439178"
       y1="207.9187"
       y2="42.051666"
       gradientTransform="matrix(0.16799417,0,0,0.1635966,5.9313038,-1.9414957)"
       gradientUnits="userSpaceOnUse"
       xlink:href="#a-3" />
    <linearGradient
       id="a-3">
      <stop
         stop-color="#2a7fff"
         offset="0"
         id="stop3327" />
      <stop
         stop-color="#0cf"
         offset="1"
         id="stop3329" />
    </linearGradient>
    <linearGradient
       id="linearGradient2356">
      <stop
         offset="0"
         id="stop2" />
      <stop
         offset="1"
         stop-opacity="0"
         id="stop4" />
    </linearGradient>
  </defs>
  <sodipodi:namedview
     id="namedview1888"
     pagecolor="#ffffff"
     bordercolor="#666666"
     borderopacity="1.0"
     inkscape:showpageshadow="2"
     inkscape:pageopacity="0.0"
     inkscape:pagecheckerboard="0"
     inkscape:deskcolor="#d1d1d1"
     showgrid="false"
     inkscape:zoom="4.9166667"
     inkscape:cx="24"
     inkscape:cy="72.813559"
     inkscape:window-width="1920"
     inkscape:window-height="996"
     inkscape:window-x="0"
     inkscape:window-y="0"
     inkscape:window-maximized="1"
     inkscape:current-layer="svg1886" />
  <linearGradient
     id="a">
    <stop
       offset="0"
       id="stop1845" />
    <stop
       offset="1"
       stop-opacity="0"
       id="stop1847" />
  </linearGradient>
  <linearGradient
     id="b"
     gradientUnits="userSpaceOnUse"
     x1="16"
     x2="34.942"
     xlink:href="#a"
     y1="11"
     y2="29.942" />
  <linearGradient
     id="c"
     gradientTransform="matrix(.70710678 .70710678 -.70710678 .70710678 0 0)"
     gradientUnits="userSpaceOnUse"
     x1="31.021"
     x2="43.104"
     xlink:href="#a"
     y1="-9.896"
     y2="-9.896" />
  <linearGradient
     id="d"
     gradientUnits="userSpaceOnUse"
     x1="23.716"
     x2="26.348"
     xlink:href="#a"
     y1="13.219"
     y2="15.851" />
  <linearGradient
     id="e"
     gradientTransform="matrix(1.0454421 0 0 1.0298842 46.076843 3.856842)"
     gradientUnits="userSpaceOnUse"
     x1="-45.221867"
     x2=".691726"
     y1="-4.91011"
     y2="41.697075">
    <stop
       offset="0"
       stop-color="#2bc0ff"
       id="stop1853" />
    <stop
       offset="1"
       stop-color="#1d99f3"
       id="stop1855" />
  </linearGradient>
  <ellipse
     cx="24"
     cy="24"
     fill="url(#m)"
     stroke-width="0.0173423"
     id="circle3376"
     style="fill:url(#m)"
     rx="20.999992"
     ry="20.999998" />
  <ellipse
     cx="24"
     cy="23.450275"
     rx="20.999992"
     ry="20.450277"
     fill="url(#l)"
     stroke-width="0.0171139"
     id="ellipse3378"
     style="fill:url(#l)" />
  <path
     style="fill:#d79f87;stroke-width:1"
     d="m 28.857157,14.697718 c 2.956848,-2.5607 7.080594,-4.525257 11.9236,-4.662005 0.919004,5.654639 -1.257737,10.193975 -2.69968,12.142863"
     id="path1" />
  <path
     style="fill:#946e5d;stroke-width:1"
     d="m 30.678591,15.174043 c 2.588649,-1.769697 5.131068,-3.029661 8.500007,-3.316904 -0.203422,5.815726 -1.393806,6.574243 -2.61627,8.500006"
     id="path2-3" />
  <path
     style="fill:#d79f87;stroke-width:1"
     d="M 8.8214337,26.908497 C 9.2540489,24.296376 8.779348,14.831797 24.232344,13.800022 34.693395,15.33614 38.387116,19.402437 39.178598,26.908497 38.959884,30.919051 28.480796,41.354056 24.154895,40.990748 19.48337,41.257746 8.8918238,30.574206 8.8214337,26.908497 Z"
     id="path3" />
  <path
     style="fill:#d79f87;stroke-width:1"
     d="M 19.142875,14.697718 C 16.186021,12.137018 12.062281,10.172461 7.21927,10.035713 6.3002661,15.690352 8.4770085,20.229688 9.9189561,22.178576"
     id="path4" />
  <path
     style="fill:#946e5d;stroke-width:1"
     d="m 17.321445,15.174043 c -2.588656,-1.769697 -5.131082,-3.029661 -8.5000113,-3.316904 0.203422,5.815726 1.3938043,6.574243 2.6162713,8.500006"
     id="path5" />
  <path
     style="opacity:0.2;fill:#ffffff;stroke-width:1"
     d="m 7.2193811,10.035713 c -0.1758078,1.081758 -0.2359654,2.119592 -0.2122683,3.108047 0.00926,-0.80503 0.071953,-1.637747 0.2122683,-2.500903 4.7740089,0.134801 8.8432709,2.048735 11.7906659,4.555955 1.500791,-0.381705 3.226435,-0.658862 5.222385,-0.792129 1.788122,0.262551 3.364541,0.606012 4.776519,1.020998 l -0.151794,-0.123342 c 2.956848,-2.560676 7.080484,-4.524735 11.923493,-4.661482 0.142114,0.874418 0.202876,1.718481 0.211076,2.534107 0.02595,-0.998758 -0.03343,-2.048547 -0.211076,-3.141251 -4.843009,0.136748 -8.966645,2.100812 -11.923493,4.661478 l 0.151794,0.12333 C 27.596973,14.40556 26.020554,14.062092 24.232432,13.799516 22.236481,13.932789 20.510838,14.20995 19.010047,14.591669 16.062652,12.084461 11.99339,10.170515 7.2193811,10.035713 Z m 2.4309421,12.338533 c -0.627354,1.907929 -0.6794494,3.632259 -0.8288895,4.5346 0.00173,0.105258 0.015466,0.218013 0.03437,0.334398 0.1378681,-1.014328 0.2162152,-2.733132 0.9273121,-4.661491 -0.042715,-0.0605 -0.089159,-0.142829 -0.1328146,-0.207507 z m 28.5701248,0.201592 c -0.04584,0.06507 -0.09541,0.149723 -0.139927,0.209885 0.525426,1.316431 0.865171,2.792276 1.058943,4.434991 0.0178,-0.106845 0.03369,-0.212599 0.0391,-0.311868 -0.169021,-1.6029 -0.485592,-3.035943 -0.958151,-4.333008 z"
     id="path6" />
  <path
     style="fill:#946e5d;stroke-width:1"
     d="m 27.339306,33.410706 a 3.3392912,3.3392913 0 1 1 -6.678582,0 3.3392912,3.3392913 0 1 1 6.678582,0 z"
     id="path7" />
  <path
     style="opacity:0.1;stroke-width:1"
     d="m 23.150014,28.357503 c 0,0 -8.376151,-1.067758 -9.775878,3.527386 -0.939017,3.082631 1.205793,3.161026 1.537502,5.245349 0.331711,2.084305 -2.083066,1.554968 -2.083066,1.554968 l 0.230753,0.463175 c 0,0 2.35709,0.413568 2.429204,-1.819637 0.07214,-2.233229 -2.181759,-3.24372 -0.797249,-5.443855 1.384509,-2.200133 6.536453,-0.910303 6.536453,-0.910303 z"
     id="path8" />
  <path
     style="fill:#4a3025;stroke-width:1"
     d="m 23.150014,27.750359 c 0,0 -8.376151,-1.067753 -9.775878,3.527396 -0.939017,3.08263 1.205793,3.161008 1.537502,5.245326 0.331711,2.084337 -2.083066,1.554956 -2.083066,1.554956 l 0.230753,0.463216 c 0,0 2.35709,0.413558 2.429204,-1.819669 0.07214,-2.233197 -2.181759,-3.243729 -0.797249,-5.443829 1.384509,-2.200141 6.536453,-0.910321 6.536453,-0.910321 z"
     id="path9" />
  <path
     style="opacity:0.1;stroke-width:1"
     d="m 17.017876,16.107137 c -3.519189,0 -6.375472,2.856874 -6.375013,6.375008 -8.41e-4,3.518468 2.855611,6.374998 6.375013,6.374998 3.51916,0 6.375448,-2.856841 6.374999,-6.374998 8.22e-4,-3.518441 -2.855606,-6.375008 -6.374999,-6.375008 z m 0,1.821434 c 2.513851,0 4.554142,2.040394 4.553571,4.553574 3.26e-4,2.512965 -2.039882,4.553583 -4.553571,4.553583 -2.513881,0 -4.554175,-2.04039 -4.553575,-4.553583 -3.31e-4,-2.512967 2.03987,-4.553574 4.553575,-4.553574 z"
     id="path10" />
  <path
     d="m 17.017876,15.500002 c -3.519189,0 -6.375472,2.856858 -6.375013,6.375008 -8.41e-4,3.518455 2.855611,6.375003 6.375013,6.375003 3.51916,0 6.375448,-2.856861 6.374999,-6.375003 8.22e-4,-3.518461 -2.855606,-6.375008 -6.374999,-6.375008 z m 0,1.821438 c 2.513851,0 4.554142,2.04039 4.553571,4.55357 3.26e-4,2.512968 -2.039882,4.55357 -4.553571,4.55357 -2.513881,0 -4.554175,-2.040396 -4.553575,-4.55357 -3.31e-4,-2.512973 2.03987,-4.55357 4.553575,-4.55357 z"
     id="path11"
     style="fill:#f2f2f2;stroke-width:1" />
  <path
     style="opacity:0.1;stroke-width:1"
     d="m 24.850018,28.357503 c 0,0 8.376155,-1.067758 9.775881,3.527386 0.939003,3.082631 -1.205798,3.161026 -1.537512,5.245349 -0.331699,2.084305 2.083069,1.554968 2.083069,1.554968 L 34.9407,39.148381 c 0,0 -2.357079,0.413568 -2.429194,-1.819637 -0.07214,-2.233229 2.181762,-3.24372 0.797246,-5.443855 -1.384509,-2.200133 -6.536455,-0.910303 -6.536455,-0.910303 z"
     id="path12" />
  <path
     style="fill:#4a3025;stroke-width:1"
     d="m 24.850018,27.750359 c 0,0 8.376155,-1.067753 9.775881,3.527396 0.939003,3.08263 -1.205798,3.161008 -1.537512,5.245326 -0.331699,2.084337 2.083069,1.554956 2.083069,1.554956 L 34.9407,38.541253 c 0,0 -2.357079,0.413558 -2.429194,-1.819669 -0.07214,-2.233197 2.181762,-3.243729 0.797246,-5.443829 -1.384509,-2.200141 -6.536455,-0.910321 -6.536455,-0.910321 z"
     id="path13" />
  <path
     style="fill:#383838;stroke-width:1"
     d="m 27.339306,29.767875 a 3.3392912,3.3392911 0 1 1 -6.678582,0 3.3392912,3.3392911 0 1 1 6.678582,0 z"
     id="path14" />
  <path
     style="opacity:0.2;stroke-width:1"
     d="m 30.972258,21.572253 c -1.254814,0.01157 -2.164907,0.144595 -2.895341,0.488803 -0.973897,0.458919 -1.591365,1.288485 -2.240174,2.623566 a 0.15839353,0.15430776 0 0 0 0.0452,0.187439 c 0.748882,0.573298 1.44877,0.871391 2.104699,0.935993 0.655918,0.06461 1.26178,-0.10802 1.805872,-0.448403 1.088183,-0.680828 1.950536,-2.014144 2.692414,-3.541499 a 0.15839353,0.15430776 0 0 0 -0.136714,-0.219987 c -0.500957,-0.01973 -0.957637,-0.0297 -1.375909,-0.02587 z"
     id="path15" />
  <path
     style="fill:#aef766;stroke-width:1"
     d="m 30.972258,20.965105 c -1.254814,0.01157 -2.164907,0.144608 -2.895341,0.488802 -0.973897,0.458932 -1.591365,1.288498 -2.240174,2.623569 a 0.15839353,0.15430776 0 0 0 0.0452,0.187447 c 0.748882,0.573295 1.44877,0.871395 2.104699,0.936001 0.655918,0.06461 1.26178,-0.108033 1.805872,-0.448412 1.088183,-0.680844 1.950536,-2.014145 2.692414,-3.541495 a 0.15839353,0.15430776 0 0 0 -0.13672,-0.219986 c -0.500957,-0.01975 -0.957637,-0.0297 -1.375907,-0.02588 z"
     id="path16" />
  <path
     style="fill:#263742;stroke-width:1"
     d="m 28.294654,21.935721 c -0.11291,1.20962 -0.06547,1.741899 0.79019,2.428576 -0.0595,-1.116542 -0.09018,-1.657872 -0.79019,-2.428576 z"
     id="path17" />
  <path
     style="opacity:0.1;stroke-width:1"
     d="M 40.967242,21.185892 A 14.343064,3.2760019 18.246417 1 1 13.711381,12.242656 14.343064,3.2760019 18.246417 1 1 40.967242,21.185892 Z"
     id="path18" />
  <path
     style="fill:#3f3f3f;stroke-width:1"
     d="M 40.967242,20.578747 A 14.343064,3.2760019 18.246417 1 1 13.711381,11.635526 14.343064,3.2760019 18.246417 1 1 40.967242,20.578747 Z"
     id="path19" />
  <path
     style="opacity:0.1;stroke-width:1"
     d="m 24.187378,7.607138 c 3.058187,0.1017863 8.271161,0.986567 12.56265,3.697066 l -2.197905,6.572375 c -4.532351,0.388794 -9.759914,-1.490494 -12.373542,-3.793251 z"
     id="path20" />
  <path
     style="fill:#484848;stroke-width:1"
     d="m 24.187378,7 c 3.058187,0.1017863 8.271161,0.9865596 12.56265,3.697062 l -2.197905,6.572386 c -4.532351,0.388767 -9.759914,-1.490504 -12.373542,-3.793281 z"
     id="path21" />
  <path
     style="opacity:0.2;stroke-width:1"
     d="m 24.28546,7.0048052 c 3.81505,2.9914172 9.911702,4.2030218 12.410554,3.8530398 l 0.05382,-0.160955 C 32.502449,8.0142007 27.355719,7.121548 24.285463,7.0048052 Z"
     id="path22" />
  <path
     style="fill:#1b65cf;stroke-width:1"
     d="m 10.67935,21.109682 c -0.7998802,0.25383 -1.3014419,0.493622 -1.5904317,0.762017 -0.1444938,0.134182 -0.2394686,0.283746 -0.262299,0.446568 -0.022897,0.162826 0.03158,0.32178 0.1261692,0.456547 0.1890864,0.269553 0.5312604,0.484375 0.9678718,0.700589 0.4366107,0.216217 0.9700647,0.425128 1.5373027,0.632519 l 0.119532,-0.323725 C 11.015108,23.578569 10.490602,23.372404 10.075055,23.166606 9.6595056,22.960825 9.3543258,22.74733 9.2350156,22.577258 c -0.059681,-0.08504 -0.075218,-0.149491 -0.066377,-0.2125 0.00849,-0.06302 0.048038,-0.141977 0.154394,-0.240721 0.2126553,-0.197501 0.6828264,-0.438716 1.4609354,-0.685652 z"
     id="path23" />
  <path
     style="opacity:0.1;stroke-width:1"
     d="m 24.000017,31.589319 a 3.3392891,3.3392892 0 1 1 -6.678572,0 3.3392891,3.3392892 0 1 1 6.678572,0 z"
     id="path24" />
  <path
     style="fill:#79503c;stroke-width:1"
     d="m 24.000017,30.982142 a 3.3392891,3.3392892 0 1 1 -6.678572,0 3.3392891,3.3392892 0 1 1 6.678572,0 z"
     id="path25" />
  <path
     style="opacity:0.1;stroke-width:1"
     d="m 30.678557,31.588981 a 3.3392892,3.3381966 0 1 1 -6.678574,0 3.3392892,3.3381966 0 1 1 6.678574,0 z"
     id="path26" />
  <path
     style="fill:#79503c;stroke-width:1"
     d="m 30.678557,30.981834 a 3.3392892,3.3381966 0 1 1 -6.678574,0 3.3392892,3.3381966 0 1 1 6.678574,0 z"
     id="path27" />
  <path
     style="opacity:0.2;fill:#ffffff;stroke-width:1"
     d="m 22.650689,11.953704 -0.472108,1.521891 c 2.613628,2.302759 7.840983,4.18345 12.373343,3.794651 l 0.448656,-1.343818 c -1.32418,0.107726 -4.573788,-0.312609 -6.652902,-0.895347 -2.233281,-0.62594 -4.665515,-1.95285 -5.696989,-3.077377 z"
     id="path28" />
  <path
     style="opacity:0.3;fill:#1b65cf;stroke-width:1"
     d="m 17.017876,17.32144 c 2.51385,0 4.554142,2.04039 4.553571,4.55357 3.26e-4,2.512967 -2.039882,4.55357 -4.553571,4.55357 -2.51388,0 -4.554174,-2.040396 -4.553575,-4.55357 -3.31e-4,-2.512973 2.039871,-4.55357 4.553575,-4.55357 z"
     id="path29" />
  <path
     style="opacity:0.2;stroke-width:1"
     d="m 15.20635,21.572253 c 1.254806,0.01157 2.164897,0.144595 2.89533,0.488803 0.973908,0.458919 1.591375,1.288485 2.240173,2.623566 a 0.15839353,0.15430776 0 0 1 -0.04519,0.187439 c -0.748872,0.573298 -1.448766,0.871391 -2.104698,0.935993 -0.655914,0.06461 -1.26178,-0.10802 -1.805857,-0.448403 -1.088198,-0.680828 -1.950544,-2.014144 -2.692422,-3.541499 a 0.15839353,0.15430776 0 0 1 0.13672,-0.219987 c 0.500958,-0.01973 0.957642,-0.0297 1.375922,-0.02587 z"
     id="path30" />
  <path
     style="fill:#aef766;stroke-width:1"
     d="m 15.20635,20.965105 c 1.254806,0.01157 2.164897,0.144608 2.89533,0.488802 0.973908,0.458932 1.591375,1.288498 2.240173,2.623569 a 0.15839353,0.15430776 0 0 1 -0.04519,0.187447 c -0.748875,0.573295 -1.448769,0.871395 -2.104699,0.936001 -0.655918,0.06461 -1.261784,-0.108033 -1.805866,-0.448412 -1.088199,-0.680844 -1.950542,-2.014145 -2.692422,-3.541495 a 0.15839353,0.15430776 0 0 1 0.136719,-0.219986 c 0.500957,-0.01975 0.957642,-0.02969 1.375922,-0.02587 z"
     id="path31" />
  <path
     style="fill:#263742;stroke-width:1"
     d="m 17.883942,21.935721 c 0.112911,1.20962 0.06548,1.741899 -0.790181,2.428576 0.05951,-1.116542 0.09012,-1.657872 0.790181,-2.428576 z"
     id="path32" />
</svg>
