<?xml version="1.0" encoding="UTF-8" standalone="no"?>
<svg
   viewBox="0 0 48 48"
   version="1.1"
   id="svg13"
   sodipodi:docname="kuiviewer.svg"
   inkscape:version="1.3.2 (091e20ef0f, 2023-11-25)"
   xmlns:inkscape="http://www.inkscape.org/namespaces/inkscape"
   xmlns:sodipodi="http://sodipodi.sourceforge.net/DTD/sodipodi-0.dtd"
   xmlns:xlink="http://www.w3.org/1999/xlink"
   xmlns="http://www.w3.org/2000/svg"
   xmlns:svg="http://www.w3.org/2000/svg">
  <defs
     id="defs13">
    <linearGradient
       inkscape:collect="always"
       xlink:href="#a-2"
       id="linearGradient848"
       gradientUnits="userSpaceOnUse"
       gradientTransform="matrix(0.44444702,0,0,0.42345356,-170.92015,-211.52008)"
       y1="543.79999"
       x2="0"
       y2="502.66" />
    <linearGradient
       id="a-2"
       x2="0"
       y1="543.79999"
       y2="502.66"
       gradientTransform="matrix(0.66667,0,0,0.63518,-256.38,-317.28)"
       gradientUnits="userSpaceOnUse">
      <stop
         stop-color="#c6cdd1"
         offset="0"
         id="stop2-0" />
      <stop
         stop-color="#e0e5e7"
         offset="1"
         id="stop4-2" />
    </linearGradient>
    <linearGradient
       inkscape:collect="always"
       xlink:href="#a-2"
       id="linearGradient850"
       gradientUnits="userSpaceOnUse"
       gradientTransform="matrix(0.44444702,0,0,0.42345356,-170.92015,-211.52008)"
       y1="543.79999"
       x2="0"
       y2="502.66" />
    <linearGradient
       id="linearGradient3"
       x2="0"
       y1="543.79999"
       y2="502.66"
       gradientTransform="matrix(0.66667,0,0,0.63518,-256.38,-317.28)"
       gradientUnits="userSpaceOnUse">
      <stop
         stop-color="#c6cdd1"
         offset="0"
         id="stop1-3" />
      <stop
         stop-color="#e0e5e7"
         offset="1"
         id="stop3-7" />
    </linearGradient>
    <linearGradient
       inkscape:collect="always"
       xlink:href="#d"
       id="linearGradient13-5"
       gradientUnits="userSpaceOnUse"
       x1="4"
       y1="3"
       x2="4"
       y2="45" />
    <linearGradient
       id="linearGradient14"
       gradientUnits="userSpaceOnUse"
       x1="4"
       x2="4"
       y1="3"
       y2="45">
      <stop
         offset="0"
         stop-color="#292c2f"
         id="stop3-9" />
      <stop
         offset="1"
         stop-opacity="0"
         id="stop4-22" />
    </linearGradient>
    <linearGradient
       id="a-8"
       gradientUnits="userSpaceOnUse"
       x1="4"
       x2="4"
       y1="4"
       y2="45">
      <stop
         offset="0"
         stop-color="#21c9fb"
         id="stop5-9" />
      <stop
         offset="1"
         stop-color="#1a86f2"
         id="stop6-7" />
    </linearGradient>
  </defs>
  <sodipodi:namedview
     id="namedview13"
     pagecolor="#ffffff"
     bordercolor="#999999"
     borderopacity="1"
     inkscape:showpageshadow="2"
     inkscape:pageopacity="0"
     inkscape:pagecheckerboard="0"
     inkscape:deskcolor="#d1d1d1"
     inkscape:zoom="5.6273915"
     inkscape:cx="31.986401"
     inkscape:cy="60.951864"
     inkscape:window-width="1920"
     inkscape:window-height="996"
     inkscape:window-x="0"
     inkscape:window-y="0"
     inkscape:window-maximized="1"
     inkscape:current-layer="svg13" />
  <linearGradient
     id="c"
     gradientUnits="userSpaceOnUse"
     x1="4"
     x2="4"
     y1="3"
     y2="45">
    <stop
       offset="0"
       stop-color="#c6cdd1"
       id="stop1" />
    <stop
       offset="1"
       stop-color="#e0e5e7"
       id="stop2" />
  </linearGradient>
  <linearGradient
     id="d"
     gradientUnits="userSpaceOnUse"
     x1="4"
     x2="4"
     y1="3"
     y2="45">
    <stop
       offset="0"
       stop-color="#292c2f"
       id="stop3" />
    <stop
       offset="1"
       stop-opacity="0"
       id="stop4" />
  </linearGradient>
  <linearGradient
     id="a"
     gradientUnits="userSpaceOnUse"
     x1="4"
     x2="4"
     y1="4"
     y2="45">
    <stop
       offset="0"
       stop-color="#21c9fb"
       id="stop5" />
    <stop
       offset="1"
       stop-color="#1a86f2"
       id="stop6" />
  </linearGradient>
  <g
     transform="matrix(1.4999988,0,0,1.4999993,-576.85452,-773.69962)"
     id="g35"
     style="stroke-width:0.666667">
    <path
       d="M 32,9 31,8 1.123,27 3.555,30 H 28.8 c 1.774,0 3.2,-1.426 3.2,-3.2 z"
       transform="translate(384.57,515.8)"
       id="path19"
       style="fill:url(#linearGradient848);stroke-width:0.666667"
       inkscape:connector-curvature="0" />
    <path
       d="M 3.2,2 A 3.192,3.192 0 0 0 0,5.2 V 26.8 C 0,28.575 1.426,30 3.2,30 H 3.555 L 1.123,27 31,8 32,9 V 5.2 C 32,3.425 30.574,2 28.8,2 Z"
       transform="translate(384.57,515.8)"
       id="path21"
       style="fill:url(#linearGradient850);stroke-width:0.666667"
       inkscape:connector-curvature="0" />
    <path
       d="m 387.07,517.8 a 2.492,2.492 0 0 0 -2.5,2.5 v 1.5 h 32 v -1.5 a 2.492,2.492 0 0 0 -2.5,-2.5 z"
       id="path23"
       inkscape:connector-curvature="0"
       style="fill:#566069;stroke-width:0.666667" />
    <path
       d="m 384.57,521.8 h 32 v 1 h -32 z"
       id="path25"
       inkscape:connector-curvature="0"
       style="fill:#3daee9;stroke-width:0.666667" />
    <rect
       x="385.57001"
       y="523.79999"
       width="30"
       height="20"
       ry="1.3333341"
       id="rect27"
       style="fill:#ffffff;stroke-width:0.666667"
       rx="1.3333344" />
    <rect
       x="413.57001"
       y="518.79999"
       width="2"
       height="2"
       rx="0.66666722"
       id="rect29"
       style="fill:#eff0f1;stroke-width:0.666667"
       ry="0.66666704" />
  </g>
  <path
     style="opacity:0.2;fill:url(#linearGradient13-5)"
     d="m 21.15,18.050621 a 6.9,6.94 0 0 0 -6.65,5.14 6.9,6.94 0 0 0 0.4,4.77 l -0.9,0.83 16,16 h 18 v -6 l -22.2,-20.6 -1,0.9 a 6.9,6.94 0 0 0 -1.8,-0.8 6.9,6.94 0 0 0 -1.85,-0.24 z"
     id="path12-3" />
  <path
     style="fill:url(#a-8)"
     d="m 21.25,16.790621 c -4.57,0 -8.25,3.68 -8.25,8.25 0,4.57 3.68,8.25 8.25,8.25 1.95,0 3.74258,-0.68 5.15,-1.8 l 7.3,7.3 1.3,-1.3 -7.3,-7.3 c 1.12,-1.4 1.8,-3.2 1.8,-5.15 0,-4.57 -3.68,-8.25 -8.25,-8.25 z m 0,1.8 c 3.55,0 6.417001,2.86 6.4,6.4 0,3.55 -2.86,6.4 -6.42,6.4 -3.55,0 -6.4,-2.86 -6.4,-6.4 0,-3.55 2.86,-6.4 6.4,-6.4 z"
     id="path13-6" />
</svg>
