<?xml version="1.0" encoding="UTF-8" standalone="no"?>
<svg
   height="48"
   width="48"
   version="1.1"
   id="svg1886"
   sodipodi:docname="org.xfce.volman.svg"
   inkscape:version="1.3.2 (091e20ef0f, 2023-11-25)"
   xmlns:inkscape="http://www.inkscape.org/namespaces/inkscape"
   xmlns:sodipodi="http://sodipodi.sourceforge.net/DTD/sodipodi-0.dtd"
   xmlns:xlink="http://www.w3.org/1999/xlink"
   xmlns="http://www.w3.org/2000/svg"
   xmlns:svg="http://www.w3.org/2000/svg">
  <defs
     id="defs1890">
    <linearGradient
       id="m"
       x1="68.210472"
       x2="148.52051"
       y1="177.75131"
       y2="258.06134"
       gradientUnits="userSpaceOnUse"
       gradientTransform="matrix(0.37626177,0,0,0.37626188,-16.518336,-57.726176)">
      <stop
         stop-color="#59f"
         offset="0"
         id="stop3371" />
      <stop
         stop-color="#06f"
         offset="1"
         id="stop3373" />
    </linearGradient>
    <linearGradient
       id="l"
       x1="220.30621"
       x2="54.439178"
       y1="207.9187"
       y2="42.051666"
       gradientTransform="matrix(0.16799417,0,0,0.1635966,5.9313038,-1.9414957)"
       gradientUnits="userSpaceOnUse"
       xlink:href="#a-3" />
    <linearGradient
       id="a-3">
      <stop
         stop-color="#2a7fff"
         offset="0"
         id="stop3327" />
      <stop
         stop-color="#0cf"
         offset="1"
         id="stop3329" />
    </linearGradient>
    <linearGradient
       id="linearGradient2356">
      <stop
         offset="0"
         id="stop2" />
      <stop
         offset="1"
         stop-opacity="0"
         id="stop4" />
    </linearGradient>
  </defs>
  <sodipodi:namedview
     id="namedview1888"
     pagecolor="#ffffff"
     bordercolor="#666666"
     borderopacity="1.0"
     inkscape:showpageshadow="2"
     inkscape:pageopacity="0.0"
     inkscape:pagecheckerboard="0"
     inkscape:deskcolor="#d1d1d1"
     showgrid="false"
     inkscape:zoom="4.9166667"
     inkscape:cx="24"
     inkscape:cy="72.813559"
     inkscape:window-width="1920"
     inkscape:window-height="996"
     inkscape:window-x="0"
     inkscape:window-y="0"
     inkscape:window-maximized="1"
     inkscape:current-layer="svg1886" />
  <linearGradient
     id="a">
    <stop
       offset="0"
       id="stop1845" />
    <stop
       offset="1"
       stop-opacity="0"
       id="stop1847" />
  </linearGradient>
  <linearGradient
     id="b"
     gradientUnits="userSpaceOnUse"
     x1="16"
     x2="34.942"
     xlink:href="#a"
     y1="11"
     y2="29.942" />
  <linearGradient
     id="c"
     gradientTransform="matrix(.70710678 .70710678 -.70710678 .70710678 0 0)"
     gradientUnits="userSpaceOnUse"
     x1="31.021"
     x2="43.104"
     xlink:href="#a"
     y1="-9.896"
     y2="-9.896" />
  <linearGradient
     id="d"
     gradientUnits="userSpaceOnUse"
     x1="23.716"
     x2="26.348"
     xlink:href="#a"
     y1="13.219"
     y2="15.851" />
  <linearGradient
     id="e"
     gradientTransform="matrix(1.0454421 0 0 1.0298842 46.076843 3.856842)"
     gradientUnits="userSpaceOnUse"
     x1="-45.221867"
     x2=".691726"
     y1="-4.91011"
     y2="41.697075">
    <stop
       offset="0"
       stop-color="#2bc0ff"
       id="stop1853" />
    <stop
       offset="1"
       stop-color="#1d99f3"
       id="stop1855" />
  </linearGradient>
  <ellipse
     cx="24"
     cy="24"
     fill="url(#m)"
     stroke-width="0.0173423"
     id="circle3376"
     style="fill:url(#m)"
     rx="20.999992"
     ry="20.999998" />
  <ellipse
     cx="24"
     cy="23.450275"
     rx="20.999992"
     ry="20.450277"
     fill="url(#l)"
     stroke-width="0.0171139"
     id="ellipse3378"
     style="fill:url(#l)" />
  <path
     style="opacity:0.2;stroke-width:0.999999"
     d="m 23.999997,7.720348 -5.075,8.067374 h 2.9 V 25.872631 H 15.88057 V 23.209302 A 4.3499994,4.322105 0 0 0 18.200003,19.389473 4.3499994,4.322105 0 0 0 13.850007,15.067362 4.3499994,4.322105 0 0 0 9.5,19.389473 a 4.3499994,4.322105 0 0 0 2.319438,3.819829 v 2.663329 c 0,4.033965 4.061132,4.322104 4.061132,4.322104 h 5.944427 v 2.746339 A 4.3499994,4.322105 0 0 0 19.649998,36.677885 4.3499994,4.322105 0 0 0 23.999997,41 4.3499994,4.322105 0 0 0 28.349993,36.677885 4.3499994,4.322105 0 0 0 26.174996,32.939668 v -2.744933 h 5.944441 c 0,0 4.061134,-0.288139 4.061134,-4.322104 v -2.161053 h 0.506933 c 1.004116,0 1.812496,-0.803191 1.812496,-1.800877 v -5.042455 c 0,-0.997692 -0.80838,-1.800884 -1.812496,-1.800884 h -5.075008 c -1.004118,0 -1.812495,0.803192 -1.812495,1.800884 v 5.042455 c 0,0.997686 0.808377,1.800877 1.812495,1.800877 h 0.506941 v 2.161053 H 26.174996 V 15.787722 h 2.900007 z"
     id="path2" />
  <path
     style="fill:#ffffff;stroke-width:0.999999"
     d="m 23.999997,7 -5.075,8.067362 h 2.9 V 25.15228 H 15.88057 V 22.488951 A 4.3499994,4.322105 0 0 0 18.200003,18.669122 4.3499994,4.322105 0 0 0 13.850007,14.347011 4.3499994,4.322105 0 0 0 9.5,18.669122 a 4.3499994,4.322105 0 0 0 2.319438,3.819829 v 2.663329 c 0,4.033963 4.061132,4.322107 4.061132,4.322107 h 5.944427 v 2.746336 a 4.3499994,4.322105 0 0 0 -2.174999,3.73682 4.3499994,4.322105 0 0 0 4.349999,4.322108 4.3499994,4.322105 0 0 0 4.349996,-4.322108 4.3499994,4.322105 0 0 0 -2.174997,-3.738223 v -2.744933 h 5.944441 c 0,0 4.061134,-0.288144 4.061134,-4.322107 v -2.161052 h 0.506933 C 37.69162,22.991228 38.5,22.188035 38.5,21.19035 v -5.042461 c 0,-0.99768 -0.80838,-1.800878 -1.812496,-1.800878 h -5.075008 c -1.004118,0 -1.812495,0.803198 -1.812495,1.800878 v 5.042461 c 0,0.997685 0.808377,1.800878 1.812495,1.800878 h 0.506941 V 25.15228 H 26.174996 V 15.067362 h 2.900007 z"
     id="path3-3" />
</svg>
