<?xml version="1.0" encoding="UTF-8" standalone="no"?>
<svg
   width="48"
   height="48"
   version="1.1"
   id="svg23"
   sodipodi:docname="mail-client.svg"
   inkscape:version="1.3.2 (091e20ef0f, 2023-11-25)"
   xmlns:inkscape="http://www.inkscape.org/namespaces/inkscape"
   xmlns:sodipodi="http://sodipodi.sourceforge.net/DTD/sodipodi-0.dtd"
   xmlns="http://www.w3.org/2000/svg"
   xmlns:svg="http://www.w3.org/2000/svg">
  <sodipodi:namedview
     id="namedview23"
     pagecolor="#ffffff"
     bordercolor="#999999"
     borderopacity="1"
     inkscape:showpageshadow="2"
     inkscape:pageopacity="0"
     inkscape:pagecheckerboard="0"
     inkscape:deskcolor="#d1d1d1"
     showgrid="true"
     inkscape:zoom="3.9791667"
     inkscape:cx="34.17801"
     inkscape:cy="48.125654"
     inkscape:window-width="1920"
     inkscape:window-height="996"
     inkscape:window-x="0"
     inkscape:window-y="0"
     inkscape:window-maximized="1"
     inkscape:current-layer="svg23">
    <inkscape:grid
       id="grid23"
       units="px"
       originx="0"
       originy="0"
       spacingx="1"
       spacingy="1"
       empcolor="#0099e5"
       empopacity="0.30196078"
       color="#0099e5"
       opacity="0.14901961"
       empspacing="5"
       dotted="false"
       gridanglex="30"
       gridanglez="30"
       visible="true" />
  </sodipodi:namedview>
  <defs
     id="defs14">
    <linearGradient
       id="a"
       x1="543.8"
       x2="503.8"
       gradientUnits="userSpaceOnUse"
       gradientTransform="matrix(0 1-1.16667 0-452.67-499.8)">
      <stop
         stop-color="#197cf1"
         id="stop1" />
      <stop
         offset="1"
         stop-color="#21c9fb"
         id="stop2" />
    </linearGradient>
    <linearGradient
       id="b"
       y1="547.8"
       x1="384.57"
       y2="530.48"
       x2="394.57"
       gradientUnits="userSpaceOnUse">
      <stop
         stop-color="#ffffff"
         stop-opacity="0"
         id="stop3" />
      <stop
         offset="1"
         stop-color="#ffffff"
         stop-opacity=".314"
         id="stop4" />
    </linearGradient>
    <linearGradient
       id="c"
       x1="384.57"
       x2="414.57"
       gradientUnits="userSpaceOnUse">
      <stop
         stop-opacity=".275"
         id="stop5" />
      <stop
         offset="1"
         stop-color="#ffffff"
         stop-opacity="0"
         id="stop6" />
    </linearGradient>
    <linearGradient
       id="d"
       y1="547.8"
       x1="432.57"
       y2="527.8"
       x2="421.02"
       gradientUnits="userSpaceOnUse">
      <stop
         stop-opacity=".082"
         id="stop7" />
      <stop
         offset="1"
         stop-opacity="0"
         id="stop8" />
    </linearGradient>
    <linearGradient
       id="e"
       y1="44"
       y2="20"
       x2="0"
       gradientUnits="userSpaceOnUse">
      <stop
         stop-color="#eef1f2"
         id="stop9" />
      <stop
         offset="1"
         stop-color="#f9fafb"
         id="stop10" />
    </linearGradient>
    <linearGradient
       id="f"
       y1="523.8"
       y2="507.8"
       gradientUnits="userSpaceOnUse"
       x2="0"
       gradientTransform="translate(0 4)">
      <stop
         stop-color="#7cbaf8"
         id="stop11" />
      <stop
         offset="1"
         stop-color="#f4fcff"
         id="stop12" />
    </linearGradient>
    <linearGradient
       id="g"
       y1="511.8"
       x1="414.57"
       y2="519.8"
       x2="422.57"
       gradientUnits="userSpaceOnUse">
      <stop
         stop-color="#292c2f"
         id="stop13" />
      <stop
         offset="1"
         stop-opacity="0"
         id="stop14" />
    </linearGradient>
  </defs>
  <g
     transform="translate(-384.57-499.8)"
     id="g23">
    <g
       transform="translate(384.57 499.8)"
       id="g16">
      <path
         fill="#c8cfd3"
         fill-rule="evenodd"
         d="m24 8l-20 12 20 15 20-15z"
         id="path14" />
      <path
         fill="url(#a)"
         d="M 10,8 V 44 H 38 V 12 L 30,4 H 14 c -2.05876,0.069584 -3.900041,1.9309535 -4,4 z"
         id="path15"
         sodipodi:nodetypes="ccccccc" />
      <path
         fill="url(#e)"
         d="m4 20v24h40v-24l-16 12h-8z"
         id="path16" />
    </g>
    <g
       fill-rule="evenodd"
       id="g19">
      <path
         fill="url(#c)"
         d="m388.57 543.8l16-12h8l16 12z"
         id="path17" />
      <path
         fill="url(#d)"
         d="m428.57 543.8l-16-12 16-12z"
         id="path18" />
      <path
         fill="url(#b)"
         d="m388.57 543.8l16-12-16-12z"
         id="path19" />
    </g>
    <rect
       width="40"
       x="388.57"
       y="542.8"
       fill="#d1d3d4"
       height="1"
       id="rect19" />
    <path
       fill="url(#f)"
       d="m404.57 511.8c-.554 0-1 .446-1 1 0 .554.446 1 1 1 .554 0 1-.446 1-1 0-.554-.446-1-1-1m7 0l-2 2 3 3-3 3 2 2 5-5zm-9.5 6c-.831 0-1.5.669-1.5 1.5 0 .831.669 1.5 1.5 1.5.831 0 1.5-.669 1.5-1.5 0-.831-.669-1.5-1.5-1.5m4.5 6c-1.108 0-2 .892-2 2 0 1.108.892 2 2 2 1.108 0 2-.892 2-2 0-1.108-.892-2-2-2"
       id="path20" />
    <g
       fill-rule="evenodd"
       id="g22">
      <path
         fill="#313437"
         d="m422.57 511.8h-8v-8z"
         id="path21" />
      <path
         opacity=".2"
         fill="url(#g)"
         d="m414.57 511.8h8v8z"
         id="path22" />
    </g>
  </g>
</svg>
