<?xml version="1.0" encoding="UTF-8" standalone="no"?>
<svg
   height="48"
   width="48"
   version="1.1"
   id="svg1886"
   sodipodi:docname="about_kde.svg"
   inkscape:version="1.3.2 (091e20ef0f, 2023-11-25)"
   xmlns:inkscape="http://www.inkscape.org/namespaces/inkscape"
   xmlns:sodipodi="http://sodipodi.sourceforge.net/DTD/sodipodi-0.dtd"
   xmlns:xlink="http://www.w3.org/1999/xlink"
   xmlns="http://www.w3.org/2000/svg"
   xmlns:svg="http://www.w3.org/2000/svg">
  <defs
     id="defs1890">
    <linearGradient
       id="m"
       x1="68.210472"
       x2="148.52051"
       y1="177.75131"
       y2="258.06134"
       gradientUnits="userSpaceOnUse"
       gradientTransform="matrix(0.37626177,0,0,0.37626188,-16.518336,-57.726176)">
      <stop
         stop-color="#59f"
         offset="0"
         id="stop3371" />
      <stop
         stop-color="#06f"
         offset="1"
         id="stop3373" />
    </linearGradient>
    <linearGradient
       id="l"
       x1="220.30621"
       x2="54.439178"
       y1="207.9187"
       y2="42.051666"
       gradientTransform="matrix(0.16799417,0,0,0.1635966,5.9313038,-1.9414957)"
       gradientUnits="userSpaceOnUse"
       xlink:href="#a-3" />
    <linearGradient
       id="a-3">
      <stop
         stop-color="#2a7fff"
         offset="0"
         id="stop3327" />
      <stop
         stop-color="#0cf"
         offset="1"
         id="stop3329" />
    </linearGradient>
    <linearGradient
       id="linearGradient2356">
      <stop
         offset="0"
         id="stop2" />
      <stop
         offset="1"
         stop-opacity="0"
         id="stop4" />
    </linearGradient>
  </defs>
  <sodipodi:namedview
     id="namedview1888"
     pagecolor="#ffffff"
     bordercolor="#666666"
     borderopacity="1.0"
     inkscape:showpageshadow="2"
     inkscape:pageopacity="0.0"
     inkscape:pagecheckerboard="0"
     inkscape:deskcolor="#d1d1d1"
     showgrid="false"
     inkscape:zoom="4.9166667"
     inkscape:cx="24"
     inkscape:cy="72.813559"
     inkscape:window-width="1920"
     inkscape:window-height="996"
     inkscape:window-x="0"
     inkscape:window-y="0"
     inkscape:window-maximized="1"
     inkscape:current-layer="svg1886" />
  <linearGradient
     id="a">
    <stop
       offset="0"
       id="stop1845" />
    <stop
       offset="1"
       stop-opacity="0"
       id="stop1847" />
  </linearGradient>
  <linearGradient
     id="b"
     gradientUnits="userSpaceOnUse"
     x1="16"
     x2="34.942"
     xlink:href="#a"
     y1="11"
     y2="29.942" />
  <linearGradient
     id="c"
     gradientTransform="matrix(.70710678 .70710678 -.70710678 .70710678 0 0)"
     gradientUnits="userSpaceOnUse"
     x1="31.021"
     x2="43.104"
     xlink:href="#a"
     y1="-9.896"
     y2="-9.896" />
  <linearGradient
     id="d"
     gradientUnits="userSpaceOnUse"
     x1="23.716"
     x2="26.348"
     xlink:href="#a"
     y1="13.219"
     y2="15.851" />
  <linearGradient
     id="e"
     gradientTransform="matrix(1.0454421 0 0 1.0298842 46.076843 3.856842)"
     gradientUnits="userSpaceOnUse"
     x1="-45.221867"
     x2=".691726"
     y1="-4.91011"
     y2="41.697075">
    <stop
       offset="0"
       stop-color="#2bc0ff"
       id="stop1853" />
    <stop
       offset="1"
       stop-color="#1d99f3"
       id="stop1855" />
  </linearGradient>
  <ellipse
     cx="24"
     cy="24"
     fill="url(#m)"
     stroke-width="0.0173423"
     id="circle3376"
     style="fill:url(#m)"
     rx="20.999992"
     ry="20.999998" />
  <ellipse
     cx="24"
     cy="23.450275"
     rx="20.999992"
     ry="20.450277"
     fill="url(#l)"
     stroke-width="0.0171139"
     id="ellipse3378"
     style="fill:url(#l)" />
  <path
     d="M 1.746383,12 C 1.6631354,12.164353 1.5798715,12.325489 1.5,12.490032 c 1.2656874,0.704882 4.9131471,2.541068 6.644571,3.630296 2.188265,1.34295 5.146041,4.084583 5.37891,4.545367 -2.276012,3.973027 -1.243216,7.490221 -1.512114,7.86448 -0.193446,0.312202 -1.98225,2.282397 -1.406291,2.572784 0.571548,0.286541 1.480557,-0.163798 1.617903,-0.251154 0.285733,-0.176086 0.580495,-0.432007 0.456735,0.07979 -0.241936,1.034873 -1.339954,3.524524 0.17551,2.995535 0.184499,-0.107058 2.623554,-2.801027 2.918403,-2.893605 4.852282,1.267969 10.279638,0.686828 11.284271,0.216049 0.523209,0.04122 2.003788,0.968966 2.847392,1.414813 0.84407,0.441176 3.142601,1.545617 2.461687,-0.462346 -0.211374,-0.63513 -1.722348,-2.256462 -1.477009,-2.362331 0.540073,-0.21614 1.876484,0.559785 2.390678,0.704518 1.538051,0.432009 1.744908,-0.165815 0.774012,-1.483467 -0.958553,-1.318199 -1.102481,-1.115075 -1.406241,-1.72234 -0.237496,-0.490304 0,-1.030839 0.175277,-1.162649 0.311838,-0.237961 4.904381,-2.793969 5.980971,-3.772288 1.59529,-1.454044 0,-3.267956 -0.391398,-3.524704 -3.308855,-2.386897 -6.706534,-1.876061 -6.750475,-2.254996 -0.02264,-0.431915 -0.01359,-1.679167 -0.07112,-2.110254 -0.329414,-2.925879 -1.678416,-2.190279 -1.862955,-2.190279 -1.349003,0.212834 -0.852863,2.282855 -0.281433,4.229588 0.04423,0.497909 -0.47002,0.277918 -0.774014,-0.247215 -1.03717,-2.788651 -1.472506,-2.739339 -1.758216,-2.823207 -0.276927,-0.06504 -1.25234,0.532922 -1.235471,1.660649 0.0053,0.322194 0.387121,1.856261 0.387121,2.326493 -0.636747,0.560146 -0.668331,1.828666 -1.336655,2.291018 -1.946312,0.405966 -6.62312,-0.964206 -7.207066,-1.025346 -2.021689,-0.379675 -2.904905,1.140551 -3.229998,0.775828 C 11.669305,16.497341 7.6607485,14.258758 5.9247875,13.871296 5.2519958,13.726837 2.9805187,12.720289 2.1626145,12.213573 2.0309678,12.131077 1.8813422,12.07892 1.7362061,12.002301 Z m 29.250461,7.014306 c 0.02238,-0.03021 0.04854,0 0.07405,0.04038 0.193562,0.643105 0.408502,1.254863 1.683164,1.40941 0.149625,0.02938 -0.707514,0.521194 -1.296037,0.213111 -0.536748,-0.326866 -0.584964,-1.512341 -0.461223,-1.657263 z m 3.30529,3.237983 c 0.118274,-0.02938 0.202588,-0.02938 0.285711,0 0.31184,0.08438 -2.261242,1.423243 -2.461457,1.238362 -0.122548,-0.11843 1.37133,-1.088312 2.180254,-1.238362 z m 0.67284,0.85008 c 0.267659,0.02562 -1.489603,1.846539 -1.687682,1.657444 -0.145113,-0.131077 1.138575,-1.701536 1.687682,-1.657444 z"
     id="path3"
     style="fill:#f2f2f2;stroke-width:0.999992" />
</svg>
