<svg xmlns="http://www.w3.org/2000/svg" viewBox="0 0 22 22">
  <defs id="defs3051">
    <style type="text/css" id="current-color-scheme">.ColorScheme-Text {color:#eff0f1;}</style>
  </defs>
  <path
     style="fill:currentColor;fill-opacity:1;stroke:none" 
     d="m 11,3 c -4.418278,0 -8,3.581722 -8,8 0,0 0,3 0,4 0,1 1,1 1,1 l 1,1 c 2,2 2,0 2,0 v -4 c 0,0 0,-2 -2,0 l -1,1 v -3 c 0,-3.8659932 3.1340068,-7 7,-7 3.865993,0 7,3.1340068 7,7 v 3 l -1,-1 c -2,-2.000001 -2,0 -2,0 v 4 c 0,0 0,2 2,0 l 1,-1 v 2 c 0,1 -1,1 -1,1 h -3.087946 c -0.211633,-0.598592 -0.777207,-0.999109 -1.412109,-1 -0.828427,0 -1.5,0.671573 -1.5,1.5 0,0.828427 0.671573,1.5 1.5,1.5 0.634902,-8.91e-4 1.200476,-0.401408 1.412109,-1 H 17 c 0,0 2,0 2,-2 V 11 C 19,6.581722 15.418278,3 11,3 Z"
    class="ColorScheme-Text"
      />
</svg>
