<svg version="1.1" viewBox="0 0 22 22" xmlns="http://www.w3.org/2000/svg">
    <defs>
        <style type="text/css" id="current-color-scheme">.ColorScheme-Text {color:#eff0f1;}</style>
    </defs>
    <g transform="translate(-187.54229,-436.4721)">
        <rect x="182.53572" y="428.50504" width="31.999998" height="31.999998" fill="none"/>
        <path class="ColorScheme-Text" d="m 190.54229,440.4721 c 0,2 0,12 0,14 0,2 2,2 2,2 h 12 c 0,0 2,0 2,-2 0,-2 0,-12 0,-14 0,-2 -2,-2 -2,-2 h -12 c 0,0 -2,0 -2,2 z m 1,0 c 0,-1 1,-1 1,-1 h 12 c 0,0 1,0 1,1 0,1 0,13 0,14 0,1 -0.97072,1.03294 -0.97072,1.03294 l -12.02928,-0.0329 c 0,0 -1,0 -1,-1 0,-1 0,-13 0,-14 z m 6.99343,-0.96706 -3,7 h 3 v 4 l 3,-7 h -3 z m -6,11.98875 v 3 h 1 v -3 z m 2,0 v 3 h 1 v -3 z m 2,0 v 3 h 1 v -3 z m 2,0 v 3 h 1 v -3 z m 4.5,0 c -0.82843,0 -1.5,0.67157 -1.5,1.5 0,0.82843 0.67157,1.5 1.5,1.5 0.82843,0 1.5,-0.67157 1.5,-1.5 0,-0.82843 -0.67157,-1.5 -1.5,-1.5 z" fill="currentColor"/>
    </g>
</svg>
