<svg version="1.1" viewBox="0 0 22 22" xmlns="http://www.w3.org/2000/svg"><defs><style type="text/css" id="current-color-scheme">.ColorScheme-Text {
        color:#eff0f1;
      }</style></defs><path d="m 1,7 v 8 c 0,0 0,2 2,2 2,0 8,0 10,0 2,0 2,-2 2,-2 v -1 l 5.033508,2.516754 c 0,0 0.966492,0 0.966492,-1.133964 0,-1.133964 0,-7.677206 0,-8.7656 C 21,5.528796 20,5.528796 20,5.528796 L 15,8 V 7 C 15,7 15,5 13,5 11,5 5,5 3,5 1,5 1,7 1,7 Z m 1,0 c 0,0 0,-1 1,-1 1,0 9,0 10,0 1,0 1,1 1,1 v 8 c 0,0 0,1 -1,1 C 12,16 4,16 3,16 2,16 2,15 2,15 Z M 19.404713,7 C 20,6.61719 20,7 20,7 v 8 c 0,0 0,0.38279 -0.595287,0 C 18.881251,14.663396 15,12.88279 15,12.88279 v -3.7656 c 0,0 3.809426,-1.73438 4.404713,-2.11719 z M 10,7 v 1 h 3 V 7 Z" style="fill:currentColor;fill-opacity:1;stroke:none" class="ColorScheme-Text"/></svg>
