<svg viewBox="0 0 22 22" xmlns="http://www.w3.org/2000/svg">
    <style type="text/css" id="current-color-scheme">.ColorScheme-Text {color:#eff0f1;}</style>
    <path d="m 5,5 v 12 c 0,0 0,2 2,2 2,0 6,0 8,0 2,0 2,-2 2,-2 V 5 C 17,5 17,3 15,3 13,3 9,3 7,3 5,3 5,5 5,5 Z M 7,4 h 8 c 0.552285,0 1,0.4477153 1,1 v 2 c -1.333333,0 -1.333333,2 0,2 v 2 l -1,1 H 7 L 6,11 V 9 C 7.3333328,9 7.3333328,7 6,7 V 5 C 6,4.4477153 6.4477153,4 7,4 Z m 0,9 h 4 v 1 H 7 Z m 6,0 h 2 v 1 h -2 z m -6,2 h 4 v 1 H 7 Z m 6,0 h 2 v 1 h -2 z m -2,2 v 1 H 7 v -1 z m 2,0 h 2 v 1 h -2 z" fill="currentColor" class="ColorScheme-Text"/>
</svg>
