<svg xmlns="http://www.w3.org/2000/svg" viewBox="0 0 22 22">
  <defs
     id="defs3051">
    <style type="text/css" id="current-color-scheme">.ColorScheme-Text {color:#eff0f1;}</style>
  </defs>
  <path
     style="fill:currentColor;fill-opacity:1"
     d="M 8.5566406,3 C 6.5863838,3 5,4.5863838 5,6.5566406 V 12 15.443359 17 c 0,0 0,2 2,2 2,0 6,0 8,0 2,0 2,-2 2,-2 V 15.443359 12 6.5566406 C 17,4.5863838 15.413616,3 13.443359,3 Z M 9,4 h 4 c 1.656854,0 3,1.3431458 3,3 V 9.0878906 C 15.401408,9.2995242 15.000891,9.8650979 15,10.5 c 8.91e-4,0.634902 0.401408,1.200475 1,1.412109 V 14 l -2,2 H 8 L 6,14 V 11.912109 C 6.5985921,11.700475 6.999109,11.134902 7,10.5 6.9991092,9.8650979 6.5985922,9.2995242 6,9.0878906 V 7 C 6,5.3431458 7.3431458,4 9,4 Z M 7,17 h 4 v 1 H 7 Z m 6,0 h 2 v 1 h -2 z"
     class="ColorScheme-Text"/>
</svg>
