<svg xmlns="http://www.w3.org/2000/svg" viewBox="0 0 22 22">
  <defs id="defs3051">
    <style type="text/css" id="current-color-scheme">.ColorScheme-Text {color:#eff0f1;}</style>
  </defs>
    <path
    style="fill:currentColor;fill-opacity:1;stroke:none"
    d="m 14,6 h 1 v 4 H 14 Z M 8,6 h 1 v 4 H 8 Z m 4,0 h 1 v 4 H 12 Z M 10,5 h 1 v 5 H 10 Z M 5,5 v 7 l -1,2 v 3 c 0,0 0,2 2,2 2,0 8.142706,0 10.071353,0 C 18,19 18,17 18,17 V 5 C 18,5 18,3 16,3 14,3 9,3 7,3 5,3 5,5 5,5 Z m 1,0 c 0,0 0,-1 1,-1 1,0 8,0 9,0 1,0 1,1 1,1 v 12 c 0,0 0,1 -1,1 -1,0 -9,0 -10,0 -1,0 -1,-1 -1,-1 v -2.5 l 1,-2 z"
    class="ColorScheme-Text"/>
</svg>
