<svg xmlns="http://www.w3.org/2000/svg" viewBox="0 0 22 22">
  <defs id="defs3051">
    <style type="text/css" id="current-color-scheme">.ColorScheme-Text {color:#eff0f1;}</style>
  </defs>
    <path
       style="fill:currentColor;fill-opacity:1;stroke:none" 
       d="m 5,5 v 12 c 0,0 0,2 2,2 2,0 6,0 8,0 2,0 2,-2 2,-2 V 5 C 17,5 17,3 15,3 13,3 9,3 7,3 5,3 5,5 5,5 Z m 1,0 c 0,0 0,-1 1,-1 1,0 7,0 8,0 1,0 1,1 1,1 v 12 c 0,0 0,1 -1,1 -1,0 -7,0 -8,0 -1,0 -1,-1 -1,-1 z m 1,1 c 0,1 0,2 0,3 0,1 1,1 1,1 h 6 c 0,0 1,0 1,-1 C 15,8 15,7 15,6 15,5 14,5 14,5 H 8 C 8,5 7,5 7,6 Z m 4,5 c -1.6568542,0 -3,1.343146 -3,3 0,1.656854 1.3431458,3 3,3 1.656854,0 3,-1.343146 3,-3 0,-1.656854 -1.343146,-3 -3,-3 z m 0,1 c 1.104569,0 2,0.895431 2,2 0,1.104569 -0.895431,2 -2,2 -1.1045695,0 -2,-0.895431 -2,-2 0,-1.104569 0.8954305,-2 2,-2 z m 0,1 c -0.552285,0 -1,0.447715 -1,1 0,0.552285 0.447715,1 1,1 0.552285,0 1,-0.447715 1,-1 0,-0.552285 -0.447715,-1 -1,-1 z"
       class="ColorScheme-Text"/>
</svg>
