<svg height="22" width="22" xmlns="http://www.w3.org/2000/svg">
    <style type="text/css" id="current-color-scheme">.ColorScheme-Text {color:#eff0f1;}</style>
    <path fill="currentColor" class="ColorScheme-Text" d="m 3,5 c 0,0 0,10 0,12 0,2 2,2 2,2 h 12 c 0,0 2,0 2,-2 C 19,15 19,5 19,5 19,5 19,3 17,3 15,3 7,3 5,3 3,3 3,5 3,5 Z M 8,4 h 6 v 2 h 2 v 2 h 2 c 0,0 0,8 0,9 0,1 -1,1 -1,1 v -3 h -1 v 3 h -1 v -3 h -1 v 3 h -1 v -3 h -1 v 3 H 10 V 15 H 9 v 3 H 8 V 15 H 7 v 3 H 6 V 15 H 5 v 3 C 5,18 4,18 4,17 4,16 4,8 4,8 H 6 V 6 h 2 z"/>
</svg>
