<svg xmlns="http://www.w3.org/2000/svg" viewBox="0 0 22 22">
  <defs id="defs3051">
    <style type="text/css" id="current-color-scheme">.ColorScheme-Text {color:#eff0f1;}</style>
  </defs>
    <path
        style="fill:currentColor;fill-opacity:1;stroke:none" 
       d="M 8,4 C 5.2385763,4 3,6.2385763 3,9 H 4 C 4,6.790861 5.790861,5 8,5 c 2.209139,0 4,1.790861 4,4 h 1 C 13,6.2385763 10.761424,4 8,4 Z M 8,6 C 6.3431458,6 5,7.3431458 5,9 H 6 C 6,7.8954305 6.8954305,7 8,7 c 1.1045695,0 2,0.8954305 2,2 h 1 C 11,7.3431458 9.6568542,6 8,6 Z M 8,8 C 7.4477153,8 7,8.4477153 7,9 7,9.5522847 7.4477153,10 8,10 8.5522847,10 9,9.5522847 9,9 9,8.4477153 8.5522847,8 8,8 Z m -5,5 c 0,2 0,1 0,3 0,2 2,2 2,2 h 12 c 0,0 2,0 2,-2 0,-2 0,-1 0,-3 0,-2 -2,-2 -2,-2 H 5 c 0,0 -2,0 -2,2 z m 1,0 c 0,-1 1,-1 1,-1 h 12 c 0,0 1,0 1,1 0,1 0,2 0,3 0,1 -1,1 -1,1 H 5 c 0,0 -1,0 -1,-1 0,-1 0,-2 0,-3 z m 8,2 v 1 h 1 v -1 z m 2,0 v 1 h 1 v -1 z m 2,0 v 1 h 1 v -1 z"
       id="rect3343" 
       class="ColorScheme-Text"/>
</svg>
