<!DOCTYPE svg>
<svg xmlns="http://www.w3.org/2000/svg" version="1.1" viewBox="0 0 24 24" width="24" height="24">
  <g transform="translate(1,1)">
    <path d="m 4,5 v 8 l 3,-2 3,2 V 3 C 10,3 8,3 6,3 4,3 4,5 4,5 Z m 7,-2 v 1 h 2 v 4 h 4 v 9 c 0,0 0,1 -1,1 C 15,18 7,18 6,18 5,18 5,17 5,17 V 14 H 4 v 3 c 0,0 0,2 2,2 2,0 8,0 10,0 2,0 2,-2 2,-2 V 7 L 14,3 Z M 7,6 H 9 C 7.93838,7.56429 6.64844,9.03808 5,10 5.37765,8.71307 5.70447,7.3445 6.53507,6.26245 6.65702,6.13275 6.81187,6.00207 7,6 Z" fill="#d24d57"/>
  </g>
</svg>
