<svg xmlns="http://www.w3.org/2000/svg" viewBox="0 0 24 24" width="24" height="24">
  <defs id="defs3051">
    <style type="text/css" id="current-color-scheme">.ColorScheme-Text {color:#fcfcfc;}</style>
  </defs>
  <g transform="translate(1,1)">
    <path style="fill:currentColor;fill-opacity:1;stroke:none" d="M 7,3 C 5,3 5,5 5,5 H 3 v 3 h 2 v 6 H 3 v 3 h 2 c 0,0 0,2 2,2 2,0 6,0 9,0 3,0 3,-3 3,-3 V 6 C 19,6 19,3 16,3 13,3 9,3 7,3 Z M 7,4 C 8,4 8,4 8,4 V 18 C 8,18 8,18 7,18 6,18 6,17 6,17 V 5 C 6,5 6,4 7,4 Z m 2,0 c 0,0 5,0 7,0 2,0 2,2 2,2 v 10 c 0,0 0,2 -2,2 -2,0 -7,0 -7,0 z" class="ColorScheme-Text"/>
  </g>
</svg>
