<svg xmlns="http://www.w3.org/2000/svg" viewBox="0 0 24 24" width="24" height="24">
  <defs id="defs3051">
    <style type="text/css" id="current-color-scheme">.ColorScheme-Text {color:#fcfcfc;}</style>
  </defs>
  <g transform="translate(1,1)">
    <path style="fill:currentColor;fill-opacity:1;stroke:none" d="M 11,3 C 9.3431458,3 8,4.3431458 8,6 8,6 5,6 5,9 c 0,3 0,4 0,7 0,3 3,3 3,3 h 6 V 18 H 8 C 8,18 6,18 6,16 6,14 6,11 6,9 6,7 8,7 8,7 V 8.0878906 C 7.4014078,8.2995242 7.0008908,8.8650979 7,9.5 7,10.328427 7.6715729,11 8.5,11 9.3284271,11 10,10.328427 10,9.5 9.9991092,8.8650979 9.5985922,8.2995242 9,8.0878906 V 7 h 4 V 8.0878906 C 12.401408,8.2995242 12.000891,8.8650979 12,9.5 12,10.328427 12.671573,11 13.5,11 14.328427,11 15,10.328427 15,9.5 14.999109,8.8650979 14.598592,8.2995242 14,8.0878906 V 7 c 0,0 2,0 2,2 0,2 0,4 0,4 h 1 c 0,0 0,-1 0,-4 C 17,6 14,6 14,6 14,4.3431458 12.656854,3 11,3 Z m 0,1 c 1.104569,0 2,0.8954305 2,2 H 9 C 9,4.8954305 9.8954305,4 11,4 Z M 8.5,9 C 8.7761424,9 9,9.2238576 9,9.5 9,9.7761424 8.7761424,10 8.5,10 8.2238576,10 8,9.7761424 8,9.5 8,9.2238576 8.2238576,9 8.5,9 Z m 5,0 C 13.776142,9 14,9.2238576 14,9.5 14,9.7761424 13.776142,10 13.5,10 13.223858,10 13,9.7761424 13,9.5 13,9.2238576 13.223858,9 13.5,9 Z m 2.5,5 v 2 h -2 v 1 h 2 v 2 h 1 v -2 h 2 v -1 h -2 v -2 z" class="ColorScheme-Text"/>
  </g>
</svg>
