<svg xmlns="http://www.w3.org/2000/svg" width="24" height="24" viewBox="0 0 24 24">
  <defs id="defs3051">
    <style type="text/css" id="current-color-scheme">.ColorScheme-NegativeText {color:#da4453;}</style>
  </defs>
  <g transform="translate(1,1)">
    <path style="fill:currentColor;fill-opacity:1;stroke:none" class="ColorScheme-NegativeText" d="m 3,6 c 0,0 0,7 0,10 0,3 3,3 3,3 h 10 c 0,0 3,0 3,-3 C 19,13 19,6 19,6 19,6 19,3 16,3 13,3 9,3 6,3 3,3 3,6 3,6 Z m 1,3 c 0,0 0,-2 2,-2 2,0 8,0 10,0 2,0 2,2 2,2 0,0 0,5 0,7 0,2 -2,2 -2,2 H 6 C 6,18 4,18 4,16 4,14 4,9 4,9 Z m 4,2 v 2 h 6 v -2 z"/>
  </g>
</svg>
