<svg version="1.1" viewBox="0 0 16 16" xmlns="http://www.w3.org/2000/svg">
    <defs>
        <style type="text/css" id="current-color-scheme">.ColorScheme-Text { color:#fcfcfc; }</style>
    </defs>
    <path style="fill:currentColor;fill-opacity:1;stroke:none"
          d="m 12,8 -4.000005,3.999989 v 2 H 10 L 14,10 Z m -0.3106,1.68945 0.5919,0.591846 -2.968805,2.999993 -0.59375,-0.5938 z M 4,4 C 4,6 4,14 4,14 L 7,12.804688 V 11.802734 L 5,12.59375 C 5,12.59375 5,5 5,4 5,3 6,3 6,3 h 4 c 0,0 1,0 1,1 0,1 0,3 0,3 h 1 C 12,7 12,6 12,4 12,2 10,2 10,2 H 6 C 6,2 4,2 4,4 Z"
          class="ColorScheme-Text"/>
</svg>
