<!DOCTYPE svg>
<svg xmlns="http://www.w3.org/2000/svg" version="1.1" viewBox="0 0 24 24" width="24" height="24">
  <defs>
    <style type="text/css" id="current-color-scheme">.ColorScheme-Text {color:#fcfcfc;}</style>
  </defs>
  <g transform="translate(1,1)">
    <path class="ColorScheme-Text" style="fill:currentColor; fill-opacity:1; stroke:none" d="m 11,3 v 1 h 1.1797 c 1.1157,3.23942 2.2437,6.4748 3.3516,9.7168 0.4871,1.4386 1.0441,2.8538 1.5585,4.2832 h -1.748 c -0.5417,-1.4792 -1.0833,-2.9583 -1.625,-4.4375 H 11 V 19 h 5 c 0,0 3,0 3,-3 0,-3 0,-7 0,-10 0,-3 -3,-3 -3,-3 z m 0,10.5625 V 12.2813 H 8.89453 C 9.59636,10.2676 10.2982,8.25391 11,6.24023 V 4 H 9.91016 C 8.78659,7.2696 7.64125,10.5326 6.53125,13.8066 6.04314,15.2121 5.50683,16.6009 5,18 h 1.74805 c 0.54167,-1.4792 1.08333,-2.9583 1.625,-4.4375 z m 0,-7.32227 v 6.04107 h 2.1953 C 12.4785,10.2246 11.7617,8.16797 11.0449,6.11133 11.0299,6.1543 11.015,6.19727 11,6.24023 Z"/>
  </g>
</svg>
