<svg xmlns="http://www.w3.org/2000/svg" viewBox="0 0 24 24" width="24" height="24">
  <defs id="defs3051">
    <style type="text/css" id="current-color-scheme">.ColorScheme-Text {color:#fcfcfc;}.ColorScheme-Highlight {color:#3daee9;}</style>
  </defs>
  <g transform="translate(1,1)">
    <path style="fill:currentColor;fill-opacity:1;stroke:none" transform="translate(-1-1)" d="m 4,7 c 0,3 0,7 0,10 0,3 3,3 3,3 l 10,0 c 0,0 3,0 3,-3 C 20,14 20,7 20,7 20,4.000003 17,4 17,4 H 7 C 7,4 4,4 4,7 Z m 15,0 c 0,1.661554 0,8 0,10 0,2 -2,2 -2,2 H 6 C 6,19 5.2803365,18.719663 5.9285664,18.071434 6.5767963,17.423204 8.46875,15.53125 8.46875,15.53125 7.5639289,14.626429 7,13.380711 7,12 7,9.2385788 9.2385788,7 12,7 c 1.380711,0 2.626429,0.5639289 3.53125,1.46875 L 18.026086,6 C 18.026086,6 19,5.338446 19,7 Z m -3.46875,1.46875 -7.0625,7.0625 C 9.3735711,16.436071 10.619289,17 12,17 c 2.761421,0 5,-2.238579 5,-5 0,-1.380711 -0.563929,-2.6264289 -1.46875,-3.53125 z" class="ColorScheme-Highlight"/>
  </g>
</svg>
