<svg xmlns="http://www.w3.org/2000/svg" viewBox="0 0 24 24" width="24" height="24">
  <defs id="defs3051">
    <style type="text/css" id="current-color-scheme">.ColorScheme-Text {color:#fcfcfc;}</style>
  </defs>
  <g transform="translate(1,1)">
    <path style="fill:currentColor;fill-opacity:1;stroke:none" d="m 6,3 c 0,0 -3,0 -3,3 0,3 0,7 0,7 l 3,4 v -3 -1 h 10 c 0,0 3,0 3,-3 C 19,7 19,9 19,6 19,3 16,3 16,3 Z M 4,6 C 4,4 6,4 6,4 h 10 c 0,0 2,0 2,2 0,2 0,2 0,4 0,2 -2,2 -2,2 H 6 C 6,12 4,12 4,10 4,8 4,8 4,6 Z" class="ColorScheme-Text"/>
    <path style="fill:#da4453" d="M 13.980469 14 L 12.990234 14.990234 L 15 17 L 12.990234 19.009766 L 13.980469 20 L 15.990234 17.990234 L 18 20 L 18.990234 19.009766 L 16.980469 17 L 18.990234 14.990234 L 18 14 L 15.990234 16.009766 L 13.980469 14 z "/>
  </g>
</svg>
