<svg xmlns="http://www.w3.org/2000/svg" viewBox="0 0 24 24" width="24" height="24">
  <defs id="defs3051">
    <style type="text/css" id="current-color-scheme">.ColorScheme-Text {color:#fcfcfc;}</style>
  </defs>
  <g transform="translate(1,1)">
    <path style="fill:currentColor;fill-opacity:1;stroke:none" d="m 384.85714,543.07647 c 0,0 -3,0 -3,3 0,3 0,7 0,10 0,3 3,3 3,3 h 10 c 0,0 3,0 3,-3 0,-3 0,-7 0,-10 0,-3 -3,-3 -3,-3 z m 0,1 h 10 c 0,0 2,0 2,2 0,2 0,8 0,10 0,2 -2,2 -2,2 h -10 c 0,0 -2,0 -2,-2 0,-2 0,-8 0,-10 0,-2 2,-2 2,-2 z m 1,1 v 5 h 8 v -5 z m 1,1 h 6 v 3 h -6 z m -1,6 v 5 h 8 v -5 z m 1,1 h 6 v 3 h -6 z" transform="translate(-378.85714-540.07647)" class="ColorScheme-Text"/>
  </g>
</svg>
