<svg xmlns="http://www.w3.org/2000/svg" viewBox="0 0 24 24" width="24" height="24">
  <defs id="defs3051">
    <style type="text/css" id="current-color-scheme">.ColorScheme-Text {color:#fcfcfc;}</style>
  </defs>
  <g transform="translate(1,1)">
    <path style="fill:currentColor;fill-opacity:1;stroke:none" d="m 3,6 v 11 c 0,0 0,2 2,2 1.6168021,0 8.935553,0 12,0 2,0 2,-2 2,-2 V 6 C 19,6 19,3 16,3 H 6 C 6,3 3,3 3,6 Z m 2,0 h 12 c 0,0 1,0 1,1 0,1 0,10 0,10 0,0 0.04604,1 -1,1 C 14.366987,18 5.8488705,18 5,18 4,18 4,17 4,17 4,17 4,8 4,7 4,6 5,6 5,6 Z m 0,1 v 10 h 5 V 7 Z m 6,1 v 1 h 6 V 8 Z m 0,3 v 1 h 5 v -1 z m 0,3 v 1 h 4 v -1 z" class="ColorScheme-Text"/>
  </g>
</svg>
