<svg xmlns="http://www.w3.org/2000/svg" viewBox="0 0 24 24" width="24" height="24">
  <defs id="defs3051">
    <style type="text/css" id="current-color-scheme">.ColorScheme-Text {color:#fcfcfc;}</style>
  </defs>
  <g transform="translate(1,1)">
    <path style="fill:currentColor;fill-opacity:1;stroke:none" d="M 4,2.998047 V 3 5 H 6 V 3 h 2 v 2 h 2 V 3 h 2 v 2 h 2 V 3 h 2 v 2 h 2 V 3 2.998047 H 17 5 4 m 2,3.00195 v 2 h 2 v -2 H 6 m 4,0 v 2 h 2 v -2 h -2 m 4,0 v 2 h 2 v -2 h -2 m -10,3 v 2 C 4,10.999997 4,13 4,16 c 0,3 3,2.999997 3,2.999997 h 5 v -1 H 7 C 7,17.999997 5,18 5,16 5,14 5,10.999997 5,10.999997 h 1 v -2 H 4 m 4,0 v 2 h 2 v -2 H 8 m 5,2 c -1.662003,0 -3,1.338 -3,3 0,1.662 1.337997,3 3,3 0.649392,0 1.246354,-0.208586 1.736328,-0.556641 L 17.292969,18.999997 18,18.292966 15.443359,15.736325 C 15.791414,15.246351 16,14.649388 16,13.999997 c 0,-1.662 -1.337997,-3 -3,-3 m 0,1 c 1.108003,0 2,0.892 2,2 0,1.108 -0.891997,2 -2,2 -1.108003,0 -2,-0.892 -2,-2 0,-1.108 0.891997,-2 2,-2" class="ColorScheme-Text"/>
  </g>
</svg>
