<!DOCTYPE svg>
<svg xmlns="http://www.w3.org/2000/svg" viewBox="0 0 24 24" version="1.1" width="24" height="24">
  <defs>
    <style type="text/css" id="current-color-scheme">.ColorScheme-Text {color:#fcfcfc;}</style>
  </defs>
  <g transform="translate(1,1)">
    <path class="ColorScheme-Text" style="fill:currentColor; fill-opacity:1; stroke:none" d="m 4,6 c 0,3 0,5 0,5 v 2 H 6 V 11 H 5 C 5,11 5,8 5,6 5,4 7,4 7,4 h 6 v 4 h 4 v 3 h 1 V 7 L 14,3 H 7 C 7,3 4,3 4,6 Z m 4,5 v 2 h 2 v -2 z m 7.5,2 C 14.669,13 14,13.669 14,14.5 V 16 h -1 v 3 h 5 V 16 H 17 V 14.5 C 17,13.669 16.331,13 15.5,13 Z M 6,14 v 2 h 2 v -2 z m 9.5,0 c 0.277,0 0.5,0.223 0.5,0.5 V 16 H 15 V 14.5 C 15,14.223 15.223,14 15.5,14 Z M 4,17 v 2 h 1 1 v -2 z m 4,0 v 2 h 2 v -2 z"/>
  </g>
</svg>
