<svg xmlns="http://www.w3.org/2000/svg" version="1.1" viewBox="0 0 24 24" width="24" height="24">
  <defs>
    <style type="text/css" id="current-color-scheme">.ColorScheme-Text {color:#fcfcfc;}</style>
  </defs>
  <g transform="translate(1,1)">
    <path class="ColorScheme-Text" style="fill:currentColor;fill-opacity:1;stroke:none" d="m 4,6 c 0,3 0,4 0,4 H 5 C 5,10 5,8 5,6 5,4 7,4 7,4 h 6 v 4 h 4 v 2 h 1 V 7 L 14,3 H 7 C 7,3 4,3 4,6 Z m -1,5 v 1 h 16 v -1 z m 1,2 v 2 h 1 v -2 z m 13,0 v 2 h 1 V 13 Z M 4,16 v 3 H 6 V 18 H 5 v -2 z m 13,0 v 2 h -1 v 1 h 2 V 16 Z M 7,18 v 1 h 2 v -1 z m 3,0 v 1 h 2 v -1 z m 3,0 v 1 h 2 v -1 z" fill="currentColor"/>
  </g>
</svg>
