<!DOCTYPE svg>
<svg xmlns="http://www.w3.org/2000/svg" viewBox="0 0 24 24" version="1.1" width="24" height="24">
  <defs>
    <style type="text/css" id="current-color-scheme">.ColorScheme-Text {color:#fcfcfc;}</style>
  </defs>
  <g transform="translate(1,1)">
    <path class="ColorScheme-Text" style="fill:currentColor; fill-opacity:1; stroke:none" d="M 4,6.0304039 C 4,9.0608078 4,13 4,16 c 0,3 3,3 3,3 h 4 V 18 H 7 C 7,18 5,18 5,16 5,14 5,8 5,6 5,4 7,4 7,4 h 6 v 4 h 4 c 0,0 0,3 0,5 0,2 -2,2 -2,2 L 12.707,15 15,12.707 14.293,12 l -3.5,3.5 3.5,3.5 L 15,18.293 12.707,16 H 15 c 0,0 3,0 3,-3 0,-3 0,-6 0,-6 L 14,3 H 7 C 7,3 4,3 4,6.0304039 Z"/>
  </g>
</svg>
