<svg xmlns="http://www.w3.org/2000/svg" viewBox="0 0 24 24" width="24" height="24">
  <style type="text/css" id="current-color-scheme">.ColorScheme-Text {color:#fcfcfc;}</style>
  <g transform="translate(1,1)">
    <path d="m 4,6 c 0,3 0,7 0,10 0,3 3,3 3,3 h 8 c 1.662,0 3,-1.338 3,-3 0,-1.662 -1.338,-3 -3,-3 h -1.292969 l 1.5,-1.5 L 14.5,10.792969 11.792969,13.5 14.5,16.207031 15.207031,15.5 l -1.5,-1.5 H 15 c 1.108,0 2,0.892 2,2 0,1.108 -0.892,2 -2,2 H 7 C 7,18 5,18 5,16 5,14 5,8 5,6 5,4 7,4 7,4 h 6 v 4 h 4 v 4 h 1 V 7 L 14,3 H 7 C 7,3 4,3 4,6 Z" class="ColorScheme-Text" fill="currentColor"/>
  </g>
</svg>
