<!DOCTYPE svg>
<svg xmlns="http://www.w3.org/2000/svg" viewBox="0 0 24 24" version="1.1" width="24" height="24">
  <defs>
    <style type="text/css" id="current-color-scheme">.ColorScheme-Text {color:#fcfcfc;}</style>
  </defs>
  <g transform="translate(1,1)">
    <path class="ColorScheme-Text" style="fill:currentColor; fill-opacity:1; stroke:none" d="m 4,19.002 v -0.0021 -2 h 2 v 2 h 2 v -2 h 2 v 2 h 2 v -2 h 2 v 2 h 2 v -2 h 2 v 2 0.0021 H 17 5 Z M 6,16 v -2 h 2 v 2 z m 4,0 v -2 h 2 v 2 z m 4,0 v -2 h 2 v 2 z M 4,13 V 11 C 4,11 4,9 4,6 4,3 7,3 7,3 h 6 1 V 3.0098 L 14.008,3 18.0002,6.99219 V 7.00199 8.40824 11 13 h -2 v -2 h 1 V 8.00003 h -4 v -1 -3 H 7 C 7,4.00003 5.0002,4 5.0002,6 c 0,2 0,5 0,5 h 1 v 2 h -2 z m 4.0002,0 v -2 h 2 v 2 z m 4,0 v -2 h 2 v 2 z"/>
  </g>
</svg>
