<svg xmlns="http://www.w3.org/2000/svg" viewBox="0 0 24 24" width="24" height="24">
  <defs id="defs3051">
    <style type="text/css" id="current-color-scheme">.ColorScheme-Text {color:#fcfcfc;}</style>
  </defs>
  <g transform="translate(1,1)">
    <path style="fill:currentColor;fill-opacity:1;stroke:none" d="M 8.858847,2.9980469 6,3 c 0,0 -3,0 -3,3 0,3 0,7 0,10 0,3 3,3 3,3 h 10 c 0,0 3,0 3,-3 0,-3 0,-9 0,-9 V 6.3007812 h -0.0078 L 19,6.2910156 15.707031,2.9980469 l -0.0078,0.00977 v -0.00977 H 15 Z M 6,4 h 1 v 4 1 h 8 V 8 4 h 0.292969 L 18,6.7070312 V 7 c 0,0 0,7 0,9 0,2 -2,2 -2,2 V 11 H 15 7 6 v 7 C 6,18 4,18 4,16 4,14 4,8 4,6 4,4 6,4 6,4 Z m 2,0 h 3.900391 V 8 H 8 Z m -1,8 h 8 v 6 H 7 Z" class="ColorScheme-Text"/>
  </g>
</svg>
