<svg xmlns="http://www.w3.org/2000/svg" viewBox="0 0 24 24" width="24" height="24">
  <defs id="defs3051">
    <style type="text/css" id="current-color-scheme">.ColorScheme-Text {color:#fcfcfc;}</style>
  </defs>
  <g transform="translate(1,1)">
    <path style="fill:currentColor;fill-opacity:1;stroke:none" d="M 4,6.0885568 C 4,9.1771136 4,13 4,16 c 0,3 3,3 3,3 h 6 V 18 H 7 C 7,18 5,18 5,16 5,14 5,8 5,6 5,4 7,4 7,4 h 6 v 3 1 h 4 v 5 h 1 V 8.40625 7 6.9921875 L 14.007812,3 14,3.0097656 V 3 H 13 7 C 7,3 4,3 4,6.0885568 Z M 16,13 15.425781,14.613281 13.878906,13.878906 14.613281,15.425781 13,16 14.613281,16.574219 13.878906,18.121094 15.425781,17.386719 16,19 16.574219,17.386719 18.121094,18.121094 17.386719,16.574219 19,16 l -1.613281,-0.574219 0.734375,-1.546875 -1.546875,0.734375 z" class="ColorScheme-Text"/>
  </g>
</svg>
