<svg xmlns="http://www.w3.org/2000/svg" viewBox="0 0 24 24" width="24" height="24">
  <defs id="defs3051">
    <style type="text/css" id="current-color-scheme">.ColorScheme-Text {color:#fcfcfc;}</style>
  </defs>
  <g transform="translate(1,1)">
    <path style="fill:currentColor;fill-opacity:1;stroke:none" d="M 6,3 C 3,3 3,6 3,6 v 10 c 0,0 0,3 3,3 3,0 7,0 10,0 3,0 3,-3 3,-3 V 6 C 19,6 19,3 16,3 13,3 9,3 6,3 Z M 6,4 C 8,4 8,4 8,4 V 5 6 H 7 4 C 4,6 4,4 6,4 Z m 3,0 h 4 V 5 6 H 9 V 5 Z m 5,0 c 0,0 0,0 2,0 2,0 2,2 2,2 H 15 14 V 5 Z M 4,7 h 3 1 1 4 1 1 3 v 2 h -3 v 1 h 3 v 2 h -3 v 1 h 3 v 2 H 15 14 13 9 8 7 4 V 13 H 7 V 12 H 4 V 10 H 7 V 9 H 4 Z m 0,9 H 7 8 V 17.099609 18 c 0,0 0,0 -2,0 -2,0 -2,-2 -2,-2 z m 5,0 h 4 v 2 H 9 Z m 5,0 h 4 c 0,0 0,2 -2,2 -2,0 -2,0 -2,0 z" class="ColorScheme-Text"/>
    <path style="fill:#da4453" d="m 7,7 0,8 8,0 0,-8 -8,0 m 1,1 6,0 0,1 -2,2 2,2 0,1 -6,0 0,-6"/>
  </g>
</svg>
