<svg xmlns="http://www.w3.org/2000/svg" viewBox="0 0 24 24" width="24" height="24">
  <defs id="defs3051">
    <style type="text/css" id="current-color-scheme">.ColorScheme-Text {color:#fcfcfc;}</style>
  </defs>
  <g transform="translate(1,1)">
    <path style="fill:currentColor;fill-opacity:1;stroke:none" d="M 7,3 V 5 H 6 c 0,0 -2,0 -2,2 0,2 0,6 0,9 0,3 3,3 3,3 h 8 c 0,0 3,0 3,-3 0,-3 0,-7 0,-9 C 18,5 16,5 16,5 H 15 V 3 Z M 5,7 C 5,6 6,6 6,6 V 8 H 16 V 6 c 0,0 1,0 1,1 0,1 0,7 0,9 0,2 -2,2 -2,2 H 7 C 7,18 5,18 5,16 5,14 5,8 5,7 Z m 2,2 v 1 h 8 V 9 Z m 0,3 v 1 h 6 v -1 z m 0,3 v 1 h 3 v -1 z" class="ColorScheme-Text"/>
  </g>
</svg>
