<?xml version="1.0" encoding="UTF-8" standalone="no"?>
<svg
   viewBox="0 0 24 24"
   width="24"
   height="24"
   version="1.1"
   id="svg1"
   sodipodi:docname="edit-find.svg"
   inkscape:version="1.3.2 (091e20ef0f, 2023-11-25)"
   xmlns:inkscape="http://www.inkscape.org/namespaces/inkscape"
   xmlns:sodipodi="http://sodipodi.sourceforge.net/DTD/sodipodi-0.dtd"
   xmlns="http://www.w3.org/2000/svg"
   xmlns:svg="http://www.w3.org/2000/svg">
  <sodipodi:namedview
     id="namedview1"
     pagecolor="#ffffff"
     bordercolor="#999999"
     borderopacity="1"
     inkscape:showpageshadow="2"
     inkscape:pageopacity="0"
     inkscape:pagecheckerboard="0"
     inkscape:deskcolor="#d1d1d1"
     inkscape:zoom="32.041667"
     inkscape:cx="11.984395"
     inkscape:cy="12"
     inkscape:window-width="1920"
     inkscape:window-height="1001"
     inkscape:window-x="0"
     inkscape:window-y="0"
     inkscape:window-maximized="1"
     inkscape:current-layer="svg1" />
  <defs
     id="defs3051">
    <style
       type="text/css"
       id="current-color-scheme">
      .ColorScheme-Text {
        color:#d8d8d8;
      }
      </style>
  </defs>
  <g
     id="22-22-search"
     style="fill:#bac8df;fill-opacity:1"
     transform="translate(-31.000002,-9.000001)">
    <path
       style="opacity:0.00100002;fill:#bac8df;fill-opacity:1"
       d="m 32.000002,10.000001 v 22 h 22 v -22 z"
       id="path2" />
    <path
       d="m 34.999989,18.741654 c 3.09e-4,3.171271 2.570319,5.741414 5.741377,5.741724 1.397562,-1.28e-4 2.677499,-0.50037 3.673031,-1.330291 l 1.177813,1.177876 c 0.0046,0.0048 0.01005,0.006 0.01478,0.0099 -0.274843,0.581309 -0.186843,1.293127 0.292625,1.772683 l 2.427345,2.428437 c 0.610656,0.610668 1.603562,0.610668 2.214188,0 0.611782,-0.611813 0.611782,-1.602493 0,-2.214298 L 48.113833,23.89923 c -0.480781,-0.480803 -1.192405,-0.568565 -1.773905,-0.292139 -0.0043,-0.0047 -0.005,-0.0097 -0.0096,-0.01422 l -1.177813,-1.177884 c 0.829844,-0.995584 1.330032,-2.275595 1.330157,-3.673235 -3.12e-4,-3.171274 -2.570313,-5.741384 -5.741316,-5.741693 -3.171093,2.84e-4 -5.741103,2.570399 -5.741412,5.741656 z m 9.394939,0 c -8.99e-4,2.016275 -1.637437,3.652854 -3.653532,3.653828 -2.016159,-0.0014 -3.652717,-1.637524 -3.65363,-3.653828 0.0014,-2.016265 1.63744,-3.652846 3.65363,-3.653814 2.016095,0.0015 3.652595,1.637549 3.653532,3.653814 z"
       id="path2-3-6"
       style="color:#fcfcfc;fill:currentColor;fill-opacity:1;stroke-width:0.0312512"
       class="ColorScheme-Text " />
  </g>
</svg>
