<svg xmlns="http://www.w3.org/2000/svg" viewBox="0 0 24 24" width="24" height="24">
  <defs id="defs3051">
    <style type="text/css" id="current-color-scheme">.ColorScheme-Text {color:#fcfcfc;}</style>
  </defs>
  <g transform="translate(1,1)">
    <path style="fill:currentColor;fill-opacity:1;stroke:none" transform="translate(-1-1)" d="m 4,7 c 0,3 0,7 0,10 0,3 3,3 3,3 l 10,0 c 0,0 3,0 3,-3 C 20,14 20,7 20,7 20,7 20,4 17,4 14,4 7,4 7,4 7,4 4,4 4,7 Z m 15,0.072503 C 19,7.0725026 19,15 19,17 c 0,2 -2,2 -2,2 0,0 -9,0 -10,0 C 6,19 5.9468733,18.053127 5.9468733,18.053127 L 8.46875,15.53125 C 7.5639289,14.626429 7,13.380711 7,12 7,9.2385788 9.2385788,7 12,7 c 1.380711,0 2.626429,0.5639289 3.53125,1.46875 0,0 1.889824,-1.8898244 2.563281,-2.5632809 C 18.767987,5.2320127 19,7.0725026 19,7.0725026 Z M 15.53125,8.46875 8.46875,15.53125 C 9.3735711,16.436071 10.619289,17 12,17 c 2.761421,0 5,-2.238579 5,-5 0,-1.380711 -0.563929,-2.6264289 -1.46875,-3.53125 z" class="ColorScheme-Text"/>
  </g>
</svg>
