<!DOCTYPE svg>
<svg xmlns="http://www.w3.org/2000/svg" viewBox="0 0 24 24" version="1.1" width="24" height="24">
  <defs>
    <style type="text/css" id="current-color-scheme">.ColorScheme-Text {color:#fcfcfc;}</style>
  </defs>
  <g transform="translate(1,1)">
    <path class="ColorScheme-Text" style="fill:currentColor; fill-opacity:1; stroke:none" d="m 4,5 c 0,2 0,10 0,12 0,2 2,2 2,2 l 10,0 c 0,0 2,0 2,-2 0,-2 0,-10 0,-10 L 14,3 H 6 C 6,3 4,3 4,5 Z M 6,4 V 15 H 5 C 5,15 5,6.2695312 5,5.1347656 5,4 6,4 6,4 Z m 1,0 h 6 v 4 h 4 l -0.0078,7 H 7 Z m 3,1 -2,2 2,2 z M 5,16 h 1 v 2 c 0,0 -1,0 -1,-1 0,-1 0,-1 0,-1 z m 2,0 h 9.992188 c 0,0 0,0 0,1 C 16.992188,18 16,18 16,18 H 7 Z"/>
  </g>
</svg>
