<svg xmlns="http://www.w3.org/2000/svg" viewBox="0 0 24 24" width="24" height="24">
  <defs id="defs3051">
    <style type="text/css" id="current-color-scheme">.ColorScheme-Text {color:#fcfcfc;}</style>
  </defs>
  <g transform="translate(1,1)">
    <path style="fill:currentColor;fill-opacity:1;stroke:none" d="M 3,5 C 3,7 3,7 3,7 H 4 C 4,7 4,6 4,5 4,4 5,4 5,4 H 7 V 3 H 5 C 5,3 3,3 3,5 Z M 15,3 v 1 h 2 c 0,0 1,0 1,1 0,1 0,2 0,2 h 1 C 19,7 19,7 19,5 19,3 17,3 17,3 Z M 5,5 v 5 h 5 V 5 Z m 7,0 v 5 h 5 V 5 Z M 6,6 H 9 V 9 H 6 Z m 7,0 h 3 v 3 h -3 z m -8,6 v 5 h 5 v -5 z m 7,0 v 5 h 5 v -5 z m -6,1 h 3 v 3 H 6 Z m 7,0 h 3 v 3 H 13 Z M 3,15 c 0,0 0,0 0,2 0,2 2,2 2,2 H 7 V 18 H 5 c 0,0 -1,0 -1,-1 0,-1 0,-2 0,-2 z m 15,0 c 0,0 0,1 0,2 0,1 -1,1 -1,1 h -2 v 1 h 2 c 0,0 2,0 2,-2 0,-2 0,-2 0,-2 z" class="ColorScheme-Text"/>
  </g>
</svg>
