<svg xmlns="http://www.w3.org/2000/svg" viewBox="0 0 24 24" width="24" height="24">
  <defs id="defs3051">
    <style type="text/css" id="current-color-scheme">.ColorScheme-Text {color:#fcfcfc;}.ColorScheme-Highlight {color:#3daee9;}</style>
  </defs>
  <g transform="translate(1,1)">
    <path style="fill:currentColor;fill-opacity:1;stroke:none" d="m 3,6 c 0,3 0,7 0,10 0,3 3,3 3,3 l 10,0 c 0,0 3,0 3,-2.967424 C 19,13.065152 19,9 19,6 19,3 16,3 16,3 H 6 C 6,3 3,3 3,6 Z M 4,6 C 4,4 6,4 6,4 h 10 c 0,0 2,0 2,2 0,2 0,8 0,10 0,2 -2,2 -2,2 H 6 C 6,18 4,18 4,16 4,14 4,8 4,6 Z" class="ColorScheme-Text"/>
    <path style="fill:#da4453;fill-opacity:1;stroke:none" d="M 10 13 L 10 18 L 12 18 L 12 13 L 10 13 z " class="ColorScheme-Highlight"/>
    <path style="fill:currentColor;fill-opacity:1;stroke:none" d="M 11 8 C 9.34314 8 8 9.3431 8 11 C 8 12.6569 9.34314 14 11 14 C 12.65686 14 14 12.6569 14 11 C 14 9.3431 12.65686 8 11 8 z M 11 10 C 11.55228 10 12 10.4477 12 11 C 12 11.5523 11.55228 12 11 12 C 10.44772 12 10 11.5523 10 11 C 10 10.4477 10.44772 10 11 10 z " class="ColorScheme-Highlight"/>
  </g>
</svg>
