<svg xmlns="http://www.w3.org/2000/svg" viewBox="0 0 24 24" width="24" height="24">
  <defs id="defs3051">
    <style type="text/css" id="current-color-scheme">.ColorScheme-Text {color:#fcfcfc;}</style>
  </defs>
  <g transform="translate(1,1)">
    <path style="fill:currentColor;fill-opacity:1;stroke:none" d="m 2,6 v 8 c 0,2 2,2 2,2 0,0 0,2 2,2 2,0 12,0 12,0 0,0 2,0 2,-2 0,-2 0,-6 0,-8 C 20,6 18,6 18,6 18,6 18,4 16,4 14,4 4,4 4,4 4,4 2,4 2,6 Z M 4,5 c 0,0 11,0 12,0 1,0 1,1 1,1 H 6 C 6,6 4,6 4,8 v 7 C 4,15 3,15 3,14 3,13 3,6 3,6 3,5 4,5 4,5 Z M 5,8 C 5,8 5,7 5.9932123,7 H 18 c 0,0 1,0 1,1 0,1 0,7 0,8 0,1 -1,1 -1,1 0,0 -11,0 -12,0 -1,0 -1,-1 -1,-1 z m 5,1 v 6 l 4,-3 z" class="ColorScheme-Text"/>
  </g>
</svg>
