<svg xmlns="http://www.w3.org/2000/svg" viewBox="0 0 24 24" width="24" height="24">
  <defs id="defs3051">
    <style type="text/css" id="current-color-scheme">.ColorScheme-Text {color:#fcfcfc;}</style>
  </defs>
  <g transform="translate(1,1)">
    <path style="fill:currentColor;fill-opacity:1;stroke:none" d="m 3,6 v 10 c 0,3 3,3 3,3 h 4 V 18 H 6 C 6,18 4,18 4,16 V 11 C 4,10 5,10 5,10 H 7 V 9.99219 L 7.0078125,10 l 2,-2 C 9.0078125,8 14,8 16,8 c 2,0 2,2 2,2 h 1 V 8 c 0,0 0,-3 -3,-3 -3,0 -3.992188,0 -3.992188,0 l -2,-2 L 10,3.0078125 V 3 H 6 C 6,3 3,3 3,6 Z M 6,4 H 7 9.5859375 L 10.589844,5.0039062 6.5703125,9 H 6.5683594 5 C 5,9 4,9 4,8 V 6 C 4,4 6,4 6,4 Z m 7,7 v 1 c 0,0 -2,0 -2,2 0,2 0,1 0,3 0,2 2,2 2,2 h 4 c 0,0 2,0 2,-2 0,-2 0,-1 0,-3 0,-2 -2,-2 -2,-2 v -1 z m -1,3 c 0,-1 1,-1 1,-1 h 4 c 0,0 1,0 1,1 0,1 0,2 0,3 0,1 -1,1 -1,1 h -4 c 0,0 -1,0 -1,-1 0,-1 0,-2 0,-3 z m 1,0 v 1 h 4 v -1 h -3 z m 0,2 v 1 h 2 v -1 z" class="ColorScheme-Text"/>
  </g>
</svg>
