<svg xmlns="http://www.w3.org/2000/svg" viewBox="0 0 24 24" width="24" height="24">
  <defs id="defs3051">
    <style type="text/css" id="current-color-scheme">.ColorScheme-Text {color:#fcfcfc;}</style>
  </defs>
  <g transform="translate(1,1)">
    <path style="fill:currentColor;fill-opacity:1;stroke:none" d="m 3,6 c 0,3 0,7 0,10 0,3 3,3 3,3 h 7 V 18 H 6 c 0,0 -2,0 -2,-2 0,-2 0,-4 0,-5 0,-1 1,-1 1,-1 h 2 v -0.00977 L 7.0078125,10 l 2,-2 C 9.0078125,8 14,8 16,8 c 2,0 2,2 2,2 v 3 h 1 V 8 c 0,0 0,-3 -3,-3 -3,0 -3.992188,0 -3.992188,0 l -2,-2 L 10,3.0097656 V 3 H 6 C 6,3 3,3 3,6 Z m 13,8 v 2 h -2 v 1 h 2 v 2 h 1 v -2 h 2 v -1 h -2 v -2 z" class="ColorScheme-Text"/>
  </g>
</svg>
