<!DOCTYPE svg>
<svg xmlns="http://www.w3.org/2000/svg" viewBox="0 0 24 24" version="1.1" width="24" height="24">
  <defs>
    <style type="text/css" id="current-color-scheme">.ColorScheme-Text {color:#fcfcfc;}</style>
  </defs>
  <g transform="translate(1,1)">
    <path class="ColorScheme-Text" style="fill:currentColor; fill-opacity:1; stroke:none" d="M 11,19 H 7 C 7,19 4,19 4,16 4,13 4,9 4,6 4,3 7,3 7,3 h 7 l 4,4 v 4 H 17 V 8 H 13 V 4 H 7 c 0,0 -2,0 -2,2 0,2 0,8 0,10 0,2 2,2 2,2 h 4 z"/>
    <path class="ColorScheme-Text" style="fill:currentColor; fill-opacity:1; stroke:none" d="M 13 12 L 13 13 L 12 13 L 12 14 L 13 14 L 13 17 L 12 17 L 12 18 L 13 18 L 13 19 L 14 19 L 14 18 L 17 18 L 17 19 L 18 19 L 18 18 L 19 18 L 19 17 L 18 17 L 18 14 L 19 14 L 19 13 L 18 13 L 18 12 L 17 12 L 17 13 L 14 13 L 14 12 L 13 12 Z M 14 14 L 17 14 L 17 17 L 14 17 L 14 14 Z"/>
  </g>
</svg>
