<svg xmlns="http://www.w3.org/2000/svg" id="svg6" version="1.1" viewBox="0 0 24 24" width="24" height="24">
  <defs id="defs3051">
    <style type="text/css" id="current-color-scheme">.ColorScheme-Text {color:#fcfcfc;}</style>
  </defs>
  <g transform="translate(1,1)">
    <path id="path4" class="ColorScheme-Text" d="m 3,6 c 0,3 0,7 0,10 0,3 3,3 3,3 h 10 c 0,0 3,0 3,-3 C 19,13 19,9 19,6 19,3 16,3 16,3 H 12 6 C 6,3 3,3 3,6 Z M 4,6 C 4,4 6,4 6,4 h 6 V 18 H 6 C 6,18 4,18 4,16 4,14 4,8 4,6 Z M 15.5,4 15.875,4.375 18,6.3125 17.28125,7 15.5,5.375 13.71875,7 13,6.3125 15.125,4.375 Z M 5,6 v 1 h 5 V 6 Z m 0,3 v 1 h 5 V 9 Z m 0,3 v 1 h 5 v -1 z m 0,3 v 1 h 5 V 15 Z M 13.71875,15 15.5,16.625 17.28125,15 18,15.6875 15.875,17.625 15.5,18 15.125,17.625 13,15.6875 Z" fill="currentColor"/>
  </g>
</svg>
