<svg xmlns="http://www.w3.org/2000/svg" id="svg6" version="1.1" viewBox="0 0 24 24" width="24" height="24">
  <defs id="defs3051">
    <style id="current-color-scheme" type="text/css">.ColorScheme-Text {color:#fcfcfc;}</style>
  </defs>
  <g transform="translate(1,1)">
    <path id="path4" class="ColorScheme-Text" d="M 11,3 C 8.784,3 7,4.784 7,7 v 4 c 0,0 -2,0 -2,2 0,2 0,2 0,4 0,2 2,2 2,2 h 8 c 0,0 2,0 2,-2 0,-2 0,-2 0,-4 0,-2 -2,-2 -2,-2 V 7 C 15,4.784 13.216,3 11,3 Z m 0,1 c 1.662,0 3,1.561 3,3.5 V 11 H 8 V 7.5 C 8,5.561 9.338,4 11,4 Z" fill="currentColor"/>
  </g>
</svg>
