<svg xmlns="http://www.w3.org/2000/svg" viewBox="0 0 24 24" width="24" height="24">
  <defs id="defs3051">
    <style type="text/css" id="current-color-scheme">.ColorScheme-Text {color:#fcfcfc;}</style>
  </defs>
  <g transform="translate(1,1)">
    <path style="fill:currentColor;fill-opacity:1;stroke:none" d="m 2,6 c 0,3 0,7 0,10 0,3 3,3 3,3 H 16 L 20,11 16,3 H 5 C 5,3 2,3 2,6 Z m 5.4277344,1 v 0.5917969 c -0.7106993,0 -0.7207031,0.2391596 -0.7207032,1.1054687 v 1.0175782 c 0,0.4154692 -0.1236168,1.0327132 -0.7226562,1.2890622 0.5990394,0.25635 0.7226563,0.875556 0.7226562,1.291016 v 1.007812 c 0,0.86631 0.00998,1.105469 0.7207032,1.105469 V 15 C 6.3616454,15 5.9140625,14.647753 5.9140625,13.746094 v -1.222656 c 0,-0.556911 -0.020486,-1.201172 -0.609375,-1.201172 H 5 v -0.644532 h 0.3046875 c 0.5888694,0 0.609375,-0.644262 0.609375,-1.2011715 V 8.2539062 C 5.9140625,7.3522472 6.3616454,7 7.4277344,7 Z m 3.1367186,0 c 1.066099,0 1.521484,0.3522472 1.521485,1.2539062 v 1.2226563 c -1e-5,0.5569105 0.0404,1.2011715 0.61914,1.2011715 H 13 v 0.644532 h -0.294922 c -0.578739,0 -0.619141,0.644261 -0.61914,1.201172 v 1.222656 C 12.085928,14.647753 11.630552,15 10.564453,15 v -0.591797 c 0.710819,0 0.728516,-0.239159 0.728516,-1.105469 v -1.007812 c 0,-0.41546 0.123607,-1.034666 0.722656,-1.291016 -0.599049,-0.256349 -0.722656,-0.873593 -0.722656,-1.2890622 V 8.6972656 c 0,-0.8663091 -0.01779,-1.1054687 -0.728516,-1.1054687 z" class="ColorScheme-Text"/>
  </g>
</svg>
