<svg xmlns="http://www.w3.org/2000/svg" height="24" width="24" viewBox="0 0 24 24">
  <style type="text/css" id="current-color-scheme">.ColorScheme-Text {color:#fcfcfc;}</style>
  <g transform="translate(1,1)">
    <g class="ColorScheme-Text" fill="currentColor">
      <path d="M 3,3 V 4 H 19 V 3 Z M 19,17.292968 18.292969,18 11.638672,11.345702 c -0.344857,-0.344857 -0.932486,-0.344858 -1.277344,0 L 9.8320313,11.874999 3.7070313,18 l -0.707031,-0.707032 6.125,-6.125 0.529297,-0.529297 c 0.7417187,-0.741719 1.9633747,-0.7280333 2.6914067,0 L 12.875,11.167968 Z"/>
      <path d="M 18.999999,12.292968 18.292968,13 11.638671,6.3457021 c -0.344856,-0.344857 -0.932486,-0.3448579 -1.277344,0 L 9.832031,6.8749991 3.707031,13 3,12.292968 9.125,6.1679681 9.654297,5.6386711 c 0.741719,-0.7417188 1.963375,-0.7280332 2.691406,0 L 12.875,6.1679681 Z"/>
    </g>
  </g>
</svg>
