<svg xmlns="http://www.w3.org/2000/svg" viewBox="0 0 24 24" width="24" height="24">
  <defs id="defs3051">
    <style type="text/css" id="current-color-scheme">.ColorScheme-Text {color:#fcfcfc;}.ColorScheme-Highlight {color:#3daee9;}</style>
  </defs>
  <g transform="translate(1,1)">
    <path style="fill:currentColor;fill-opacity:1;stroke:none" d="M 6,3 C 4,3 4,5 4,5 c 0,0 0,7 0,9 0,2 2,2 2,2 v 1 c 0,0 0,2 2,2 2,0 6,0 6,0 v -1 h -1 c 0,0 -4,0 -5,0 -1,0 -1,-1 -1,-1 v -1 h 6 c 0,0 2,0 2,-2 0,-2 0,-8 0,-8 h 1 c 0,0 1,0 1,1 0,1 0,5 0,5 h 1 C 18,12 18,9 18,7 18,5 16,5 16,5 H 15 C 15,5 15,3 13,3 11,3 8,3 6,3 Z M 5,5 c 0,0 0,-1 1,-1 1,0 6,0 7,0 1,0 1,1 1,1 0,0 0,8 0,9 0,1 -1,1 -1,1 H 6 C 6,15 5,15 5,14 5,13 5,5 5,5 Z m 1,1 v 1 h 6 V 6 Z M 6,8 V 9 H 9 V 8 Z" class="ColorScheme-Text"/>
    <path style="fill:currentColor;fill-opacity:1;stroke:none" d="M 6 13 L 6 14 L 11 14 L 11 13 L 6 13 z M 17 13 L 17 14 L 18 14 L 18 13 L 17 13 z M 17 15 L 17 19 L 18 19 L 18 15 L 17 15 z " class="ColorScheme-Highlight"/>
  </g>
</svg>
