<svg xmlns="http://www.w3.org/2000/svg" viewBox="0 0 24 24" width="24" height="24">
  <defs id="defs3051">
    <style type="text/css" id="current-color-scheme">.ColorScheme-Text {color:#fcfcfc;}</style>
  </defs>
  <g transform="translate(1,1)">
    <path style="fill:currentColor;fill-opacity:1;stroke:none" d="M 7,3 C 5,3 5,5 5,5 H 3 v 3 h 2 v 6 H 3 v 3 h 2 c 0,0 0,2 2,2 2,0 5,0 5,0 V 18 H 9 V 4 h 8 c 0,0 1,0 1,1 0,1 0,7 0,7 h 1 C 19,12 19,7 19,5 19,3 17,3 17,3 17,3 9,3 7,3 Z M 6,5 C 6,5 6,4 7,4 8,4 8,4 8,4 V 18 C 8,18 7.8884184,18 6.9442092,18 6,18 6,17 6,17 Z m 10,9 v 2 h -2 v 1 h 2 v 2 h 1 v -2 h 2 v -1 h -2 v -2 z" class="ColorScheme-Text"/>
  </g>
</svg>
