<svg xmlns="http://www.w3.org/2000/svg" viewBox="0 0 24 24" width="24" height="24">
  <defs id="defs3051">
    <style type="text/css" id="current-color-scheme">.ColorScheme-Text {color:#fcfcfc;}</style>
  </defs>
  <g transform="translate(1,1)">
    <path style="fill:currentColor;fill-opacity:1;stroke:none" d="m 3,3 c 0,1 0,6 0,7 0,1 1,1 1,1 h 2 10 2 c 0,0 0.992527,0 1,-1 0.0075,-1 0,-6 0,-7 C 19,2 18,2 18,2 H 16 6 4 C 4,2 3,2 3,3 Z M 4,3 H 5 V 4 H 4 Z m 2,0 h 10 v 3 1 3 H 6 V 7 6 Z m 11,0 h 1 V 4 H 17 Z M 4,6 H 5 V 7 H 4 Z m 13,0 h 1 V 7 H 17 Z M 4,9 h 1 v 1 H 4 Z m 13,0 h 1 v 1 H 17 Z M 5,12 v 2 H 4 v 1 H 3 v 1 h 1 v 1 h 1 v 2 h 1 v -1 h 1 v -1 h 1 v -1 h 1 v 1 h 1 v 2 h 1 v -1 h 1 v -2 h 1 v 1 h 1 v 1 h 1 v 1 h 1 v -1 h 1 v -1 h 1 v -1 h 1 v -1 h -1 v -1 h -1 v -1 h -1 v -1 h -1 v 1 h -1 v 1 h -1 v 1 h -1 v -2 h -1 v -1 h -1 v 2 H 9 v 1 H 8 V 14 H 7 V 13 H 6 v -1 z" class="ColorScheme-Text"/>
  </g>
</svg>
