<svg xmlns="http://www.w3.org/2000/svg" viewBox="0 0 24 24" width="24" height="24">
  <defs id="defs3051">
    <style type="text/css" id="current-color-scheme">.ColorScheme-Text {color:#fcfcfc;}</style>
  </defs>
  <g transform="translate(1,1)">
    <path style="fill:currentColor;fill-opacity:1;stroke:none" d="m 3,6 c 0,3.3333333 0,6.666667 0,10 0,3 3,3 3,3 h 10 c 0,0 3,0 3,-3 C 19,13 19,9 19,6 19,3 16,3 16,3 H 6 C 6,3 3,3 3,6 Z M 6,4 H 16 V 9.9003906 H 6 Z M 4,5 H 5 V 6 H 4 Z m 13,0 h 1 V 6 H 17 Z M 4,7 H 5 V 8 H 4 Z m 13,0 h 1 V 8 H 17 Z M 4,9 h 1 v 1 H 4 Z m 13,0.099609 h 1 V 10.099609 H 17 Z M 4,12 h 1 v 1 H 4 Z m 2,0 h 10 v 6 H 6 Z m 11,0 h 1 v 1 H 17 Z M 4,14 h 1 v 1 H 4 Z m 13,0 h 1 v 1 H 17 Z M 4,16 h 1 v 1 H 4 Z m 13,0 h 1 v 1 h -1 z" class="ColorScheme-Text"/>
  </g>
</svg>
