<svg xmlns="http://www.w3.org/2000/svg" viewBox="0 0 24 24" width="24" height="24">
  <defs id="defs3051">
    <style type="text/css" id="current-color-scheme">.ColorScheme-Text {color:#fcfcfc;}</style>
  </defs>
  <g transform="translate(1,1)">
    <path style="fill:currentColor;fill-opacity:1;stroke:none" d="M 7,6 C 7,8 7,7 7,7 H 5 c 0,0 -2,0 -2,2 0,2 0,6 0,6 l 3,3 v -3 c 0,0 5,0 7,0 2,0 2,-2 2,-2 v -1 h 1 v 3 l 3,-3 C 19,12 19,8 19,6 19,4 17,4 17,4 H 9 C 9,4 7,4 7,6 Z M 9,5 h 8 c 0,0 1,0 1,1 0,1 0,3 0,4 0,1 -1,1 -1,1 H 14 9 C 9,11 8,11 8,10 8,9 8,8 8,8 8,8 8,7 8,6 8,5 9,5 9,5 Z M 4,9 C 4,8 5,8 5,8 h 2 c 0,0 0,0 0,2 0,2 2,2 2,2 h 5 v 1 c 0,0 0,1 -1,1 -1,0 -7,0 -8,0 -1,0 -1,-1 -1,-1 0,0 0,-3 0,-4 z" class="ColorScheme-Text"/>
  </g>
</svg>
