<svg xmlns="http://www.w3.org/2000/svg" viewBox="0 0 24 24" width="24" height="24">
  <defs id="defs3051">
    <style type="text/css" id="current-color-scheme">.ColorScheme-Text {color:#fcfcfc;}</style>
  </defs>
  <g transform="translate(1,1)">
    <path style="fill:currentColor;fill-opacity:1;stroke:none" d="m 3,5 c 0,2 0,10 0,12 0,2 2,2 2,2 h 12 c 0,0 2,0 2,-2 C 19,15 19,7 19,5 19,3 17,3 17,3 H 5 C 5,3 3,3 3,5 Z M 4,5 C 4,4 5,4 5,4 V 18 C 5,18 4,18 4,17 4,16 4,6 4,5 Z M 7,4 H 9 V 18 H 7 Z m 3,0 h 1 v 14 h -1 z m 3,0 h 2 v 14 h -2 z m 3,0 h 1 c 0,0 1,0 1,1 0,1 0,11 0,12 0,1 -1,1 -1,1 h -1 z" class="ColorScheme-Text"/>
  </g>
</svg>
