<svg xmlns="http://www.w3.org/2000/svg" viewBox="0 0 24 24" width="24" height="24">
  <defs id="defs3051">
    <style type="text/css" id="current-color-scheme">.ColorScheme-Text {color:#fcfcfc;}</style>
  </defs>
  <g transform="translate(1,1)">
    <path style="fill:currentColor;fill-opacity:1;stroke:none" d="m 3,5 c 0,2 0,10 0,12 0,2 2,2 2,2 0,0 11,0 13,0 2,0 2,-2 2,-2 C 20,17 20,7 20,5 20,3 18,3 18,3 H 5 C 5,3 3,3 3,5 Z M 4,5 C 4,4 5,4 5,4 H 17.71875 L 17.25,4.46875 16.4375,5.28125 15.125,6.59375 13,4.46875 11.46875,6 11,6.46875 10.15625,7.28125 8.46875,9 H 7 6 5 4 C 4,9 4,6 4,5 Z M 19,4.125 v 13.71875 l -0.28125,-0.28125 -0.75,-0.75 L 17.125,16 15.84375,14.6875 15.125,14 13,16.09375 11.6875,14.8125 10.875,14 l -2,-2 H 7 6 5 4 v -2 h 1 1 1 1.875 l 2,-2 L 11.6875,7.15625 13,5.875 15.125,8 l 2,-2 0.84375,-0.84375 z M 4,13 h 1 1 1 1.46875 l 1.6875,1.6875 L 11,15.53125 11.46875,16 13,17.53125 13.53125,17 15.125,15.40625 l 1.3125,1.28125 0.5,0.53125 0.3125,0.3125 0.03125,0.03125 L 17.71875,18 H 5 c 0,0 -1,0 -1,-1 0,-1 0,-4 0,-4 z" class="ColorScheme-Text"/>
  </g>
</svg>
