<svg xmlns="http://www.w3.org/2000/svg" viewBox="0 0 24 24" width="24" height="24">
  <defs id="defs3051">
    <style type="text/css" id="current-color-scheme">.ColorScheme-Text {color:#fcfcfc;}</style>
  </defs>
  <g transform="translate(1,1)">
    <path style="fill:currentColor;fill-opacity:1;stroke:none" d="M 3,3 V 5 H 4 V 4 H 5 V 3 Z M 7,3 V 4 H 8 V 5 H 9 V 3 Z m 5,0 v 1 h 5 c 0,0 1,0 1,1 0,1 0,5 0,5 h 1 C 19,10 19,7 19,5 19,3 17,3 17,3 Z M 3,7 V 9 H 5 V 8 H 4 V 7 Z M 8,7 V 8 H 7 V 9 H 9 V 7 Z m -5,5 c 0,0 0,3 0,5 0,2 2,2 2,2 h 5 V 18 H 5 c 0,0 -1,0 -1,-1 0,-1 0,-5 0,-5 z m 11.998047,0.429688 v 4.65625 l -1.621094,-1.621094 -0.707031,0.707031 2.121094,2.121094 L 15.498047,19 l 2.830078,-2.828125 -0.707031,-0.707031 -1.623047,1.621094 v -4.65625 z" class="ColorScheme-Text"/>
  </g>
</svg>
