<svg xmlns="http://www.w3.org/2000/svg" xmlns:svg="http://www.w3.org/2000/svg" viewBox="0 0 24 24" version="1.1" id="svg2" width="24" height="24">
  <defs id="defs3051">
    <style type="text/css" id="current-color-scheme">
      .ColorScheme-Text {
        color:#d8d8d8;
      }
      .ColorScheme-Highlight {
        color:#3daee9;
      }
      </style>
  </defs>
  <g transform="translate(1,1)">
    <path style="fill:currentColor;fill-opacity:1;stroke:none" d="m 3,5 c 0,2 0,10 0,12 0,2 2,2 2,2 H 6 V 18 H 5 C 5,18 4,18 4,17 4,16 4,6 4,5 4,4 5,4 5,4 H 6 V 3 H 5 C 5,3 3,3 3,5 Z M 16,3 v 1 h 1 c 0,0 1,0 1,1 0,1 0,7 0,7 h 1 c 0,0 0,-5 0,-7 0,-2 -2,-2 -2,-2 z m 0,11 v 2 h -2 v 1 h 2 v 2 h 1 v -2 h 2 v -1 h -2 v -2 z" class="ColorScheme-Text" id="path1"/>
    <path style="fill:currentColor;fill-opacity:1;stroke:none" d="m 5,5 0,5 5,0 0,-5 z m 7,0 0,5 5,0 0,-5 z M 6,6 9,6 9,9 6,9 Z m 7,0 3,0 0,3 -3,0 z m -8,6 0,5 5,0 0,-5 z m 7,0 0,3 1,0 0,-2 2,0 0,-1 z m -6,1 3,0 0,3 -3,0 z" class="ColorScheme-Highlight" id="path2"/>
  </g>
</svg>
