<svg xmlns="http://www.w3.org/2000/svg" viewBox="0 0 24 24" width="24" height="24">
  <defs id="defs3051">
    <style type="text/css" id="current-color-scheme">.ColorScheme-Text {color:#fcfcfc;}</style>
  </defs>
  <g transform="translate(1,1)">
    <path style="fill:currentColor;fill-opacity:1;stroke:none" d="M 3,3 V 5 H 4 V 4 H 5 V 3 Z M 7,3 V 4 H 8 V 5 H 9 V 3 Z m 5,0 v 1 h 5 c 0,0 1,0 1,1 0,1 0,11 0,12 0,1 -1,1 -1,1 h -5 v 1 h 5 c 0,0 2,0 2,-2 C 19,15 19,7 19,5 19,3 17,3 17,3 Z M 3,7 V 9 H 5 V 8 H 4 V 7 Z M 8,7 V 8 H 7 V 9 H 9 V 7 Z M 5.828125,12.669922 3.7070312,14.791016 3,15.498047 5.828125,18.328125 6.5351562,17.621094 4.9140625,15.998047 h 4.65625 v -1 h -4.65625 l 1.6210937,-1.621094 z" class="ColorScheme-Text"/>
  </g>
</svg>
