<svg xmlns="http://www.w3.org/2000/svg" viewBox="0 0 24 24" width="24" height="24">
  <defs id="defs3051">
    <style type="text/css" id="current-color-scheme">.ColorScheme-Text {color:#fcfcfc;}</style>
  </defs>
  <g transform="translate(1,1)">
    <path style="fill:currentColor;fill-opacity:1;stroke:none" d="m 1,5 c 0,2 0,7 0,7 0,0 0,3.577951 0,5 0,2 2,2 2,2 h 5 6 V 18 H 8 2 v -0.585938 l 0.4628906,-0.46289 6.2675782,-6.267578 1.4531252,1.451172 0.814453,0.814453 H 11 L 11.816406,12.134766 13.269531,10.683594 14.585938,12 H 16 L 13.976562,9.9765625 19.728516,4.2226562 19.951172,4 H 20 V 4.2226562 12 h 1 V 5 C 21,5 21,3 19,3 H 3 C 3,3 1,3 1,5 Z M 2,4 H 2.048828 L 2.2714844,4.2226562 8.0234375,9.9765625 2,16 V 12 4.2226562 Z M 3.4628906,4 H 18.537109 L 11,11.537109 Z M 18.5,13 C 17.669,13 17,13.669 17,14.5 V 16 c 0,0 -1,0 -1,1 0,1 0,0 0,1 0,1 1,1 1,1 h 3 c 0,0 1,0 1,-1 0,-1 0,0 0,-1 0,-1 -1,-1 -1,-1 V 14.5 C 20,13.669 19.331,13 18.5,13 Z m 0,1 c 0.277,0 0.5,0.223 0.5,0.5 V 16 H 18 V 14.5 C 18,14.223 18.223,14 18.5,14 Z" class="ColorScheme-Text"/>
  </g>
</svg>
