<svg xmlns="http://www.w3.org/2000/svg" viewBox="0 0 24 24" width="24" height="24">
  <defs id="defs3051">
    <style type="text/css" id="current-color-scheme">.ColorScheme-Text {color:#fcfcfc;}</style>
  </defs>
  <g transform="translate(1,1)">
    <path style="fill:currentColor;fill-opacity:1;stroke:none" d="m 1,5 v 7 5 c 0,0 0,2 2,2 2,0 5,0 5,0 h 3 V 18 H 8 2 v -0.585938 l 0.4628906,-0.46289 6.2675782,-6.267578 1.4531252,1.451172 0.814453,0.814453 H 11 L 11.816406,12.134766 13.269531,10.683594 14.585938,12 H 16 L 13.976562,9.9765625 19.728516,4.2226562 19.951172,4 H 20 V 4.2226562 10 h 1 V 5 C 21,5 21,3 19,3 17,3 3,3 3,3 1,3 1,5 1,5 Z M 2,4 H 2.048828 L 2.2714844,4.2226562 8.0234375,9.9765625 2,16 V 12 4.2226562 Z M 3.4628906,4 H 18.537109 L 11,11.537109 Z" class="ColorScheme-Text"/>
    <path style="fill:#2ecc71;fill-opacity:1;stroke:none" d="M 20.292969 13 L 15.701172 17.591797 L 14.554688 16.445312 L 13.847656 17.152344 L 15.693359 19 L 15.699219 18.992188 L 15.707031 19 L 21 13.707031 L 20.292969 13 z "/>
  </g>
</svg>
