<svg xmlns="http://www.w3.org/2000/svg" viewBox="0 0 24 24" width="24" height="24">
  <defs id="defs3051">
    <style type="text/css" id="current-color-scheme">.ColorScheme-Text {color:#fcfcfc;}</style>
  </defs>
  <g transform="translate(1,1)">
    <path style="fill:currentColor;fill-opacity:1;stroke:none" d="M 6,3 V 4 H 19.537109 L 12,11.537109 6,5.5371094 V 6.9511719 L 9.0234375,9.9765625 6,13 v 1.414062 L 9.7304688,10.683594 12,12.951172 14.269531,10.683594 20.537109,16.951172 21,17.414062 V 18 H 6 v 1 h 14 c 0,0 2,0 2,-2 C 22,15 22,7 22,5 22,3 20,3 20,3 Z M 20.951172,4 H 21 V 16 L 14.976562,9.9765625 Z M 0,9 v 1 H 5 V 9 Z m 2,3 v 1 h 3 v -1 z" class="ColorScheme-Text"/>
  </g>
</svg>
