<svg xmlns="http://www.w3.org/2000/svg" viewBox="0 0 24 24" width="24" height="24">
  <defs id="defs3051">
    <style type="text/css" id="current-color-scheme">.ColorScheme-Text {color:#fcfcfc;}</style>
  </defs>
  <g transform="translate(1,1)">
    <path style="fill:currentColor;fill-opacity:1;stroke:none" d="m 3,7 v 9 c 0,0 0,3 3,3 3,0 2,0 2,0 h 1 4 1 c 0,0 -1,0 2,0 3,0 3,-3 3,-3 V 7 C 19,7 19,4 16,4 13,4 9,4 6,4 3,4 3,7 3,7 Z M 4,7 C 4,7 4,5 6,5 8,5 8,5 8,5 V 8 H 4 Z M 9,5 h 4 V 8 H 9 Z m 5,0 c 0,0 0,0 2,0 2,0 2,2 2,2 V 8 H 14 Z M 4,9 h 4 v 2 H 4 Z m 5,0 h 4 v 2 H 9 Z m 5,0 h 4 v 2 H 14 Z M 4,12 h 4 v 2 H 4 Z m 5,0 h 4 v 2 H 9 Z m 5,0 h 4 v 2 H 14 Z M 4,15 h 4 v 3 c 0,0 0,0 -2,0 -2,0 -2,-2 -2,-2 z m 5,0 h 4 v 3 H 9 Z m 5,0 h 4 v 1 c 0,0 0,2 -2,2 -2,0 -2,0 -2,0 z" class="ColorScheme-Text"/>
  </g>
</svg>
