<svg xmlns="http://www.w3.org/2000/svg" viewBox="0 0 24 24" width="24" height="24">
  <defs id="defs3051">
    <style type="text/css" id="current-color-scheme">.ColorScheme-Text {color:#fcfcfc;}</style>
  </defs>
  <g transform="translate(1,1)">
    <path style="fill:currentColor;fill-opacity:1;stroke:none" d="m 3,6 c 0,3 0,7 0,10 0,3 3,3 3,3 h 10 c 0,0 3,0 3,-3 C 19,13 19,9 19,6 19,3 16,3 16,3 H 6 C 6,3 3,3 3,6 Z M 4,6 C 4,4 6,4 6,4 H 8 V 8 H 4 Z M 9,4 h 4 V 8 H 9 Z m 5,0 h 2 c 0,0 2,0 2,2 0,2 0,2 0,2 H 14 Z M 4,9 h 4 v 4 H 4 Z m 5,0 h 4 v 4 H 9 Z m 5,0 h 4 v 4 H 14 Z M 4,14 h 4 v 4 H 6 c 0,0 -2,0 -2,-2 z m 5,0 h 4 v 4 H 9 Z m 5,0 h 4 c 0,0 0,0 0,2 0,2 -2,2 -2,2 h -2 z" class="ColorScheme-Text"/>
  </g>
</svg>
