<svg xmlns="http://www.w3.org/2000/svg" viewBox="0 0 24 24" width="24" height="24">
  <defs id="defs3051">
    <style type="text/css" id="current-color-scheme">.ColorScheme-Text {color:#fcfcfc;}</style>
  </defs>
  <g transform="translate(1,1)">
    <path style="fill:currentColor;fill-opacity:1;stroke:none" d="m 2,6 c 0,3 0,7 0,10 0,3 3,3 3,3 V 18 C 5,18 3,18 3,16 3,14 3,8 3,6 3,4 5,4 5,4 V 3 C 5,3 2,3 2,6 Z M 16,3 v 1 c 0,0 2,0 2,2 0,2 0,8 0,10 0,2 -2,2 -2,2 v 1 c 0,0 3,0 3,-3 C 19,13 19,9 19,6 19,3 16,3 16,3 Z M 5,14 v 1 1 h 11 v -1 -1 h -1 v 1 H 6 v -1 z" class="ColorScheme-Text"/>
  </g>
</svg>
