<svg xmlns="http://www.w3.org/2000/svg" viewBox="0 0 24 24" width="24" height="24">
  <defs id="defs3051">
    <style type="text/css" id="current-color-scheme">.ColorScheme-Text {color:#fcfcfc;}</style>
  </defs>
  <g transform="translate(1,1)">
    <path style="fill:currentColor;fill-opacity:1;stroke:none" d="m 2,5 c 0,2 0,10 0,12 0,2 2,2 2,2 h 7 V 18 H 8 C 8,17.447715 7.5522847,17 7,17 6.4477153,17 6,17.447715 6,18 H 5 V 11 4 H 6 C 6,4.5522847 6.4477153,5 7,5 7.5522847,5 8,4.5522847 8,4 h 4 4 c 0,0.5522847 0.447715,1 1,1 0.552285,0 1,-0.4477153 1,-1 0,0 1,0 1,1 0,1 0,2 0,2 h 1 C 20,7 20,7 20,5 20,3 18,3 18,3 H 4 C 4,3 2,3 2,5 Z M 12,4 c -3.8659932,0 -7,3.1340068 -7,7 0.00314,3.477294 2.5583696,6.42512 6,6.921875 V 16.910156 C 8.1153379,16.422561 6.0028887,13.92558 6,11 6,7.6862915 8.6862915,5 12,5 c 1.704151,0.00263 3.326791,0.7297972 4.462891,2 h 1.279297 C 16.433907,5.1211237 14.289492,4.0007768 12,4 Z M 3,5 C 3,4 4,4 4,4 V 18 C 4,18 3,18 3,17 3,16 3,6 3,5 Z m 13,3 v 1 5.5 C 15.5818,14.1852 15.066,14 14.5,14 13.115,14 12,15.115 12,16.5 12,17.885 13.115,19 14.5,19 15.885,19 17,17.885 17,16.5 V 10 h 2 C 19,8.892 18.108,8 17,8 Z" class="ColorScheme-Text"/>
  </g>
</svg>
