<?xml version="1.0" encoding="UTF-8" standalone="no"?>
<svg
   viewBox="0 0 22 22"
   id="svg6"
   width="22"
   height="22"
   version="1.1"
   sodipodi:docname="media-skip-backward.svg"
   inkscape:version="1.3.2 (091e20ef0f, 2023-11-25)"
   xmlns:inkscape="http://www.inkscape.org/namespaces/inkscape"
   xmlns:sodipodi="http://sodipodi.sourceforge.net/DTD/sodipodi-0.dtd"
   xmlns="http://www.w3.org/2000/svg"
   xmlns:svg="http://www.w3.org/2000/svg">
  <defs
     id="defs1" />
  <sodipodi:namedview
     id="namedview1"
     pagecolor="#ffffff"
     bordercolor="#999999"
     borderopacity="1"
     inkscape:showpageshadow="2"
     inkscape:pageopacity="0"
     inkscape:pagecheckerboard="0"
     inkscape:deskcolor="#d1d1d1"
     inkscape:zoom="11.22532"
     inkscape:cx="33.050283"
     inkscape:cy="10.690118"
     inkscape:window-width="1920"
     inkscape:window-height="996"
     inkscape:window-x="0"
     inkscape:window-y="0"
     inkscape:window-maximized="1"
     inkscape:current-layer="svg6" />
  <style
     type="text/css"
     id="current-color-scheme">.ColorScheme-Text { color: #fcfcfc; }
</style>
  <g
     id="22-22-media-skip-backward-8"
     transform="translate(-96,54)"
     style="fill:#bac8df;fill-opacity:1">
    <path
       style="opacity:0.00100002;fill:#bac8df;fill-opacity:1"
       d="M 118,-54 H 96 v 22 h 22 z"
       id="path22" />
    <path
       d="m 103.127,-39.44216 v -6.61454 c 0.006,-1.68757 1.84002,-1.68757 1.84614,0 v 6.61454 c -0.006,1.68757 -1.84002,1.68757 -1.84614,0 z m 1.47692,-6.61454 z"
       id="path8-6-7-36-9"
       style="stroke-width:0.216721;fill-opacity:1;fill:currentColor;"
       sodipodi:nodetypes="cccccccccc"
       class="ColorScheme-Text " />
    <path
       d="M 112.65687,-48.6568 C 111.14588,-50.16784 109.13673,-51 107,-51 c -2.13673,0 -4.14588,0.83216 -5.65673,2.3432 C 99.832139,-47.14581 99,-45.1368 99,-43 c 0,2.1368 0.832139,4.1458 2.34327,5.6568 1.51085,1.51095 3.52,2.3432 5.65673,2.3432 2.13687,0 4.14588,-0.83225 5.65687,-2.3432 C 114.16776,-38.8542 115,-40.8632 115,-43 c 0,-2.1368 -0.83224,-4.1459 -2.34313,-5.6568 z m -0.91353,10.86659 c -1.47302,1.24947 -2.66101,1.84013 -4.74334,1.82485 -2.21065,-0.0163 -3.03064,-0.43156 -4.74334,-1.82529 -1.3916,-1.3915 -2.291324,-3.24139 -2.291324,-5.20935 0,-1.9681 0.928284,-4.06027 2.291324,-5.21 1.5292,-1.34377 2.8038,-1.81 4.74334,-1.82464 1.96792,-0.0144 3.28506,0.61301 4.74334,1.82479 1.39158,1.39156 2.29132,3.24175 2.29132,5.20985 0,1.96796 -0.89974,3.8183 -2.29132,5.20979 z"
       id="path2-36-912-3-3-35-2"
       style="stroke-width:0.0249998;fill-opacity:1;fill:currentColor;"
       sodipodi:nodetypes="cscscscsccscscscsc"
       class="ColorScheme-Text " />
    <path
       d="m 105,-42.900359 c -2.5e-4,-0.139925 0.0553,-0.273848 0.15424,-0.372701 l 4.19592,-3.779601 c 0.42227,-0.319593 1.57355,-0.363895 1.57393,0.722914 v 3.352806 2.91122 c 0,0.406516 0.0896,1.188003 -0.26984,1.549035 v 0 c -0.3604,0.360642 -0.94475,0.360642 -1.30514,0 l -4.19487,-4.010972 c -0.099,-0.09885 -0.15449,-0.232767 -0.15424,-0.372701 z"
       id="path4-3-75-3-6-2"
       style="stroke-width:0.263737;fill-opacity:1;fill:currentColor;"
       sodipodi:nodetypes="ccccccssccc"
       class="ColorScheme-Text " />
  </g>
</svg>
