<svg xmlns="http://www.w3.org/2000/svg" viewBox="0 0 24 24" width="24" height="24">
  <defs id="defs3051">
    <style type="text/css" id="current-color-scheme">.ColorScheme-Text {color:#fcfcfc;}</style>
  </defs>
  <g transform="translate(1,1)">
    <path style="fill:currentColor;fill-opacity:1;stroke:none" class="ColorScheme-Text" d="m 4,5 c 0,0 -1,0 -1,1 0,1 0,10 0,10 0,0 3e-6,3 3,3 h 10 c 2.999997,0 3,-3 3,-3 0,0 0,-9 0,-10 C 19,5 18,5 18,5 18,5 18,3 16,3 14,3 8,3 6,3 4,3 4,5 4,5 Z M 5,4 H 17 V 5 H 5 Z m 0,2 h 12 c 0,0 1,0 1,1 0,1 0,9 0,9 0,0 -2e-6,2 -2,2 H 6 C 4.000002,18 4,16 4,16 4,16 4,8 4,7 4,6 5,6 5,6 Z m 0,1 v 4 H 9 V 7 Z m 6,0 v 1 h 6 V 7 Z m 0,3 v 1 h 6 v -1 z m -6,2 v 5 h 12 v -5 z"/>
  </g>
</svg>
