<svg xmlns="http://www.w3.org/2000/svg" viewBox="0 0 24 24" width="24" height="24">
  <defs id="defs3051">
    <style type="text/css" id="current-color-scheme">.ColorScheme-Text {color:#fcfcfc;}</style>
  </defs>
  <g transform="translate(1,1)">
    <path style="fill:currentColor;fill-opacity:1;stroke:none" d="m 3,6 c 0,3 0,7 0,10 0,3 3,3 3,3 h 5 5 c 0,0 3,0 3,-3 C 19,13 19,9 19,6 19,3 16,3 16,3 H 11 6 C 6,3 3,3 3,6 Z M 4,6 C 4,4 6,4 6,4 h 4 V 18 H 6 C 6,18 4,18 4,16 4,14 4,8 4,6 Z m 7,-2 h 5 c 0,0 2,0 2,2 0,2 0,8 0,10 0,2 -2,2 -2,2 h -5 z" class="ColorScheme-Text"/>
  </g>
</svg>
