<svg xmlns="http://www.w3.org/2000/svg" xmlns:svg="http://www.w3.org/2000/svg" width="24" height="24" version="1.1" id="svg7" viewBox="0 0 24 24">
  <defs id="defs11"/>
  <style type="text/css" id="current-color-scheme">
      .ColorScheme-Text {
        color:#31363b;
      }
      .ColorScheme-Background {
        color:#eff0f1;
      }
      .ColorScheme-Highlight {
        color:#3daee9;
      }
      .ColorScheme-ViewText {
        color:#31363b;
      }
      .ColorScheme-ViewBackground {
        color:#fcfcfc;
      }
      .ColorScheme-ViewHover {
        color:#93cee9;
      }
      .ColorScheme-ViewFocus{
        color:#3daee9;
      }
      .ColorScheme-ButtonText {
        color:#31363b;
      }
      .ColorScheme-ButtonBackground {
        color:#eff0f1;
      }
      .ColorScheme-ButtonHover {
        color:#93cee9;
      }
      .ColorScheme-ButtonFocus{
        color:#3daee9;
      }
      </style>
  <g transform="translate(1,1)">
    <g transform="rotate(90,320.02038,67.484667)" id="zoom-fit-width">
      <path style="fill:currentColor;fill-opacity:1;stroke:none" d="m 253.5232,366.50504 v 1 h 10 10 v -1 z m 10,1 -3,3 h 2 v 3.1875 c -1.15834,0.41552 -2,1.51119 -2,2.8125 0,1.30132 0.84166,2.39699 2,2.8125 v 3.1875 h -2 l 3,3 3,-3 h -2 v -3.1875 c 1.15835,-0.41551 2,-1.51118 2,-2.8125 0,-1.30131 -0.84165,-2.39698 -2,-2.8125 v -3.1875 h 2 z m 0,18 h -10 v 1 h 20 v -1 z m 0,-11 c 1.10457,0 2,0.89543 2,2 0,1.10457 -0.89543,2 -2,2 -1.10456,0 -2,-0.89543 -2,-2 0,-1.10457 0.89544,-2 2,-2 z" id="path3823" class="ColorScheme-Text"/>
      <circle style="fill:currentColor;fill-opacity:1;stroke:none" id="path3825" transform="translate(252.5232,365.50504)" cx="11.012515" cy="11.000004" r="1" class="ColorScheme-Text"/>
      <rect style="fill:#566060;fill-opacity:0;stroke:none" id="rect3827" width="22" height="22" x="0.012515" y="4e-06" transform="translate(252.5232,365.50504)"/>
    </g>
  </g>
</svg>
