<svg xmlns="http://www.w3.org/2000/svg" viewBox="0 0 24 24" width="24" height="24">
  <defs id="defs3051">
    <style type="text/css" id="current-color-scheme">.ColorScheme-Text {color:#fcfcfc;}</style>
  </defs>
  <g transform="translate(1,1)">
    <path style="fill:currentColor;fill-opacity:1;stroke:none" d="m 3,6 c 0,3 0,7 0,10 0,3 3,3 3,3 h 7 V 18 H 6 C 6,18 4,18 4,16 4,14 4,11 4,9 4,7 6,7 6,7 h 10 c 0,0 2,0 2,2 0,2 0,4 0,4 h 1 C 19,13 19,9 19,6 19,3 16,3 16,3 H 6 C 6,3 3,3 3,6 Z" class="ColorScheme-Text"/>
    <path style="fill:#da4453;fill-opacity:1;stroke:none" d="M 14.707031 14 L 14 14.707031 L 15.792969 16.5 L 14 18.292969 L 14.707031 19 L 16.5 17.207031 L 18.292969 19 L 19 18.292969 L 17.207031 16.5 L 19 14.707031 L 18.292969 14 L 16.5 15.792969 L 14.707031 14 z "/>
  </g>
</svg>
