<svg xmlns="http://www.w3.org/2000/svg" viewBox="0 0 24 24" width="24" height="24">
  <defs id="defs3051">
    <style type="text/css" id="current-color-scheme">.ColorScheme-Text {color:#fcfcfc;}</style>
  </defs>
  <g transform="translate(1,1)">
    <path style="fill:currentColor;fill-opacity:1;stroke:none" d="m 8,3 v 1 h 8 c 0,0 2,0 2,2 0,2 0,8 0,10 0,2 -2,2 -2,2 H 8 v 1 h 8 c 0,0 3,0 3,-3 C 19,13 19,9 19,6 19,3 16,3 16,3 Z M 3,8 V 9 H 8 V 8 Z m 1,2 v 1 h 4 v -1 z m 2,2 v 1 h 2 v -1 z" class="ColorScheme-Text"/>
  </g>
</svg>
