<svg xmlns="http://www.w3.org/2000/svg" viewBox="0 0 24 24" width="24" height="24">
  <style type="text/css" id="current-color-scheme">.ColorScheme-Text {color:#fcfcfc;}</style>
  <g transform="translate(1,1)">
    <g class="ColorScheme-Text" fill="currentColor">
      <path d="m 3,6 c 0,3 0,7 0,10 0,3 3,3 3,3 h 10 c 0,0 3,0 3,-3 C 19,13 19,9 19,6 19,3 16,3 16,3 H 6 C 6,3 3,3 3,6 Z m 7,-2 h 6 c 0,0 2,0 2,2 0,2 0,8 0,10 0,2 -2,2 -2,2 H 10 C 10,18 8,18 8,16 8,14 8,8 8,6 8,4 10,4 10,4 Z" stroke-linecap="square" stroke-linejoin="round"/>
      <path d="m14.646484 6.6464844-4.353515 4.3535156 4.353515 4.353516.707032-.707032-3.646485-3.646484 3.646485-3.6464844z"/>
    </g>
  </g>
</svg>
