<svg xmlns="http://www.w3.org/2000/svg" viewBox="0 0 24 24" width="24" height="24">
  <style type="text/css" id="current-color-scheme">.ColorScheme-Text {color:#fcfcfc;}</style>
  <g transform="translate(1,1)">
    <g class="ColorScheme-Text" fill="currentColor">
      <path d="m 19,6 c 0,3 0,7 0,10 0,3 -3,3 -3,3 H 6 C 6,19 3,19 3,16 3,13 3,9 3,6 3,3 6,3 6,3 h 10 c 0,0 3,0 3,3 z M 14,6 C 14,4 12,4 12,4 H 6 c 0,0 -2,0 -2,2 0,2 0,8 0,10 0,2 2,2 2,2 h 6 c 0,0 2,0 2,-2 0,-2 0,-8 0,-10 z" stroke-linecap="square" stroke-linejoin="round"/>
      <path d="m10.646484 6.6464844-4.3535152 4.3535156 4.3535152 4.353516.707032-.707032-3.6464848-3.646484 3.6464848-3.6464844z"/>
    </g>
  </g>
</svg>
