<svg xmlns="http://www.w3.org/2000/svg" viewBox="0 0 24 24" width="24" height="24">
  <defs id="defs3051">
    <style type="text/css" id="current-color-scheme">.ColorScheme-Text {color:#fcfcfc;}.ColorScheme-Highlight {color:#3daee9;}</style>
  </defs>
  <g transform="translate(1,1)">
    <path style="fill:currentColor;fill-opacity:1;stroke:none" d="m 3,3 v 3 c 0,0 0,7 0,10 0,3 3,3 3,3 H 9 V 18 H 6 C 6,18 4,18 4,16 4,14 4,6 4,6 h 12 v 4 h 1 V 6 5 3 H 15 V 4 H 14 V 3 H 6 V 4 H 5 V 3 Z M 5,7 V 8 H 15 V 7 Z m 0,3 v 1 h 10 v -1 z m 12,1 -0.996094,0.994141 -0.0039,-0.0039 -5,4.998047 0.0078,0.0078 L 11.003906,18 H 11 V 18.990234 19 h 2 l 0.0059,-0.0059 0.0039,-0.0039 c 0.004,-2e-5 0.0058,0.002 0.0098,0.002 l -0.0059,-0.0059 L 14,18 l 4,-3.996094 -0.705078,-0.708984 -4.990234,4.986328 -0.59375,-0.591797 4.992187,-4.988281 0.591797,0.59375 L 18,13.998047 l 1,-1 z M 5,13 v 1 h 7 v -1 z" class="ColorScheme-Text"/>
  </g>
</svg>
