<svg xmlns="http://www.w3.org/2000/svg" viewBox="0 0 24 24" width="24" height="24">
  <defs id="defs3051">
    <style type="text/css" id="current-color-scheme">.ColorScheme-Text {color:#fcfcfc;}</style>
  </defs>
  <g transform="translate(1,1)">
    <path style="fill:currentColor;fill-opacity:1;stroke:none" d="M 6,3 C 3,3 3,6 3,6 v 10 c 0,0 0,3 3,3 3,0 7,0 10,0 3,0 3,-3 3,-3 V 6 C 19,6 19,3 16,3 13,3 9,3 6,3 Z m 0,1 c 2,0 8,0 10,0 2,0 2,2 2,2 H 4 C 4,6 4,4 6,4 Z M 4,7 H 18 V 9 H 4 Z m 0,3 h 14 v 2 H 4 Z m 0,3 h 14 v 2 H 4 Z m 0,3 h 14 c 0,0 0,2 -2,2 -2,0 -8,0 -10,0 -2,0 -2,-2 -2,-2 z" class="ColorScheme-Text"/>
  </g>
</svg>
