<svg xmlns="http://www.w3.org/2000/svg" viewBox="0 0 24 24" width="24" height="24">
  <defs id="defs3051">
    <style type="text/css" id="current-color-scheme">.ColorScheme-Text {color:#fcfcfc;}.ColorScheme-Highlight {color:#3daee9;}</style>
  </defs>
  <g transform="translate(1,1)">
    <path style="fill:currentColor;fill-opacity:1;stroke:none" d="m 3,6 c 0,0 0,7 0,10 0,3 3,3 3,3 h 5 V 18 H 6 C 6,18 4,18 4,16 4,14 4,6 4,6 4,6 4,4 6,4 c 2,0 8,0 10,0 2,0 2,2 2,2 v 6 h 1 V 6 C 19,6 19,3 16,3 13,3 9,3 6,3 3,3 3,6 3,6 Z M 5,5 V 6 H 17 V 5 Z m 0,2 v 1 h 9 V 7 Z m 0,3 v 1 h 12 v -1 z m 0,2 v 1 h 4 v -1 z m 0,3 v 1 h 9 v -1 z m 7,2 v 1 h 3 v -1 z" class="ColorScheme-Text"/>
    <path style="fill:currentColor;fill-opacity:1;stroke:none" d="M 11 12 L 11 13 L 15 13 L 15.5 13 C 16.885 13 18 14.115 18 15.5 C 18 16.3187 17.60449 17.035134 17 17.490234 L 17 16 L 16 16 L 16 17.949219 L 16 18 L 16 18.951172 L 16 19 L 17 19 L 19 19 L 19 18 L 17.923828 18 C 18.581798 17.3681 19 16.4903 19 15.5 C 19 13.561 17.439 12 15.5 12 L 11 12 z " class="ColorScheme-Highlight"/>
  </g>
</svg>
