<svg xmlns="http://www.w3.org/2000/svg" height="24" width="24" viewBox="0 0 24 24">
  <style type="text/css" id="current-color-scheme">.ColorScheme-Text {color:#fcfcfc;}</style>
  <g transform="translate(1,1)">
    <path fill="currentColor" class="ColorScheme-Text" d="M 7,6 H 5 c 0,0 -2,0 -2,2 0,2 0,2 0,2 h 16 c 0,0 0,0 0,-2 C 19,6 17,6 17,6 H 15 C 15,6 15,4 13,4 11,4 11,4 9,4 7,4 7,6 7,6 Z M 8,5 h 6 V 6 H 8 Z m -5,6 v 5 c 0,0 0,2 2,2 2,0 10,0 12,0 2,0 2,-2 2,-2 v -5 h -5 v 2 H 8 v -2 z m 6,0 v 1 h 4 v -1 z"/>
  </g>
</svg>
