<svg xmlns="http://www.w3.org/2000/svg" viewBox="0 0 24 24" width="24" height="24">
  <defs id="defs3051">
    <style type="text/css" id="current-color-scheme">.ColorScheme-Text {color:#fcfcfc;}</style>
  </defs>
  <g transform="translate(1,1)">
    <path style="fill:currentColor;fill-opacity:1;stroke:none" d="m 3,6 c 0,3 0,7 0,10 0,3 3,3 3,3 h 10 c 0,0 3,0 3,-3 C 19,13 19,9 19,6 19,3 16,3 16,3 H 6 C 6,3 3,3 3,6 Z M 6,4 h 10 c 0,0 2,0 2,2 0,2 0,8 0,10 0,2 -2,2 -2,2 H 6 C 6,18 4,18 4,16 4,14 4,8 4,6 4,4 6,4 6,4 Z M 5,5 V 6 H 6 V 5 Z M 6,6 V 8 H 8 V 6 Z M 8,6 H 9 V 5 H 8 Z M 8,8 V 9 H 9 V 8 Z M 6,8 H 5 v 1 h 1 z m 7,-3 v 1 h 1 V 5 Z m 1,1 v 2 h 2 V 6 Z m 2,0 h 1 V 5 h -1 z m 0,2 v 1 h 1 V 8 Z m -2,0 h -1 v 1 h 1 z m -5,3 v 2 h 4 v -2 z m 4,2 v 2 h 2 v -2 z m 2,2 v 2 h 2 V 15 Z M 9,13 H 7 v 2 H 9 Z M 7,15 H 5 v 2 h 2 z" class="ColorScheme-Text"/>
  </g>
</svg>
