<svg xmlns="http://www.w3.org/2000/svg" viewBox="0 0 24 24" width="24" height="24">
  <defs id="defs3051">
    <style type="text/css" id="current-color-scheme">.ColorScheme-Text {color:#fcfcfc;}</style>
  </defs>
  <g transform="translate(1,1)">
    <path style="fill:currentColor;fill-opacity:1;stroke:none" d="M 9,3 C 8,3 8,4 8,4 V 5 H 9 V 4 h 4 v 1 h 1 V 4 C 14,4 14,3 13,3 12,3 10,3 9,3 Z M 4,6 V 7 H 18 V 6 Z m 2,2 v 8 c 0,0 0,3 3,3 3,0 1,0 4,0 3,0 3,-3 3,-3 V 8 h -1 v 8 c 0,0 0,2 -2,2 -2,0 -2,0 -4,0 C 7,18 7,16 7,16 V 8 Z" class="ColorScheme-Text"/>
  </g>
</svg>
