<svg xmlns="http://www.w3.org/2000/svg" viewBox="0 0 24 24" width="24" height="24">
  <defs id="defs3051">
    <style type="text/css" id="current-color-scheme">.ColorScheme-Text {color:#fcfcfc;}.ColorScheme-Highlight {color:#da4453;}</style>
  </defs>
  <g transform="translate(1,1)">
    <path style="fill:currentColor;fill-opacity:1;stroke:none" d="m 3,3 c 0,0 0,10 0,13 0,3 2.9833563,3 2.9833563,3 H 13 V 18 H 6 C 6,18 4,18 4,16 4,14 4,7 4,7 h 14 v 6 h 1 V 3 H 17 V 6 H 15 V 3 H 7 V 6 H 5 V 3 Z m 2,5 v 3 h 1 v -1 h 4 v 1 h 1 V 8 H 10 V 9 H 6 V 8 Z m 2,4 v 3 h 1 v -1 h 4 v 1 h 1 v -3 h -1 v 1 H 8 v -1 z" class="ColorScheme-Text" id="path1"/>
    <path style="fill:#da4453;fill-opacity:1;stroke:none" d="M 14.833984,14 14,14.833984 15.666016,16.5 14,18.166016 14.833984,19 16.5,17.333984 18.166016,19 19,18.166016 17.333984,16.5 19,14.833984 18.166016,14 16.5,15.666016 Z" id="path2"/>
  </g>
</svg>
