<svg xmlns="http://www.w3.org/2000/svg" version="1.1" viewBox="0 0 24 24" width="24" height="24">
  <style id="current-color-scheme" type="text/css">.ColorScheme-Text { color: #fcfcfc; }</style>
  <g transform="translate(1,1)">
    <path d="M 6,3 C 3,3 3,6 3,6 h 1 c 0,0 0,-2 2,-2 2,0 8,0 10,0 2,0 2,2 2,2 v 3 h 1 V 6 C 19,6 19,3 16,3 13,3 9,3 6,3 Z M 3,9 c 0,2 0,6 0,8 0,2 2,2 2,2 H 9 V 18 H 5 C 5,18 4,18 4,17 4,16 4,10 4,9 4,8 5,8 5,8 c 0,0 5,0 6,0 1,0 1,1 1,1 h 1 C 13,9 13,7 11,7 9,7 5,7 5,7 5,7 3,7 3,9 Z m 2,1 v 1 h 4 v -1 z m 5,2 c 0,0 0,3 0,5 0,2 2,2 2,2 v -1 c 0,0 -1,0 -1,-1 0,-1 0,-5 0,-5 0,0 0,-1 1,-1 1,0 4,0 5,0 1,0 1,1 1,1 h 1 c 0,0 0,-2 -2,-2 -2,0 -3,0 -5,0 -2,0 -2,2 -2,2 z m -5,1 v 1 h 2 v -1 z m 12,0 -4,4 v 2 h 2 l 4,-4 z m -0.31055,1.6895 0.5918,0.5918 -2.9688,2.9844 v 0.01563 l -0.59375,-0.59375 2.9707,-2.998 z m -11.689,0.31055 v 1 h 4 v -1 z" class="ColorScheme-Text" fill="currentColor"/>
  </g>
</svg>
