<svg xmlns="http://www.w3.org/2000/svg" viewBox="0 0 24 24" width="24" height="24">
  <defs id="defs3051">
    <style type="text/css" id="current-color-scheme">.ColorScheme-Text {color:#fcfcfc;}</style>
  </defs>
  <g transform="translate(1,1)">
    <path style="fill:currentColor;fill-opacity:1;stroke:none" d="M 3.7070312,3 C 4.1604012,3.0923 4.5,3.4912263 4.5,3.9726562 4.5,4.2614563 4.3751475,4.5181287 4.1796875,4.6992188 4.0702975,4.5696287 4.0039062,4.4043731 4.0039062,4.2207031 c 0,-0.04036 0.00172,-0.078186 0.011719,-0.1171875 -0.30271,0.16985 -0.5078125,0.4882181 -0.5078125,0.8613282 0,0.55029 0.4418975,0.9941406 0.9921875,0.9941406 0.55008,0 0.9941406,-0.4438507 0.9941406,-0.9941406 C 5.4941406,3.9333338 4.7110213,3.10135 3.7070312,3 Z m 4,0 C 8.1604012,3.0923 8.5,3.4912263 8.5,3.9726562 8.5,4.2614563 8.3751485,4.5181287 8.1796875,4.6992188 8.0702975,4.5696287 8.0039062,4.4043731 8.0039062,4.2207031 c 0,-0.04036 0.00172,-0.078186 0.011719,-0.1171875 -0.30271,0.16985 -0.5078125,0.4882181 -0.5078125,0.8613282 0,0.5502899 0.4418965,0.9941406 0.9921875,0.9941406 0.55008,0 0.9941406,-0.4438506 0.9941406,-0.9941406 C 9.4941406,3.9333338 8.7110213,3.10135 7.7070312,3 Z M 12.707031,3 C 13.160401,3.0923 13.5,3.4912263 13.5,3.9726562 c 0,0.2888001 -0.124854,0.5454726 -0.320312,0.7265626 -0.109391,-0.1295901 -0.175782,-0.2948457 -0.175782,-0.4785157 0,-0.04036 0.0017,-0.078186 0.01172,-0.1171875 -0.30271,0.16985 -0.507811,0.4882181 -0.507813,0.8613282 0,0.55029 0.441898,0.9941406 0.992188,0.9941406 0.55008,0 0.994141,-0.4438506 0.994141,-0.9941406 0,-1.03151 -0.78312,-1.8634938 -1.78711,-1.9648438 z m 4,0 C 17.160401,3.0923 17.5,3.4912263 17.5,3.9726562 c 0,0.2888001 -0.124854,0.5454726 -0.320312,0.7265626 -0.109391,-0.1295901 -0.175782,-0.2948457 -0.175782,-0.4785157 0,-0.04036 0.0017,-0.078186 0.01172,-0.1171875 -0.30271,0.16985 -0.507813,0.4882181 -0.507813,0.8613282 0,0.5502899 0.441898,0.9941406 0.992188,0.9941406 0.55008,0 0.994141,-0.4438507 0.994141,-0.9941406 0,-1.03151 -0.78312,-1.8634938 -1.78711,-1.9648438 z M 4,7 v 2 c 0,0 -1,0 -1,1 0,1 0,4 0,4 v 1 2 c 0,0 0,2 2,2 2,0 10,0 12,0 2,0 2,-2 2,-2 v -2 -1 c 0,0 0,-3 0,-4 C 19,9 18,9 18,9 V 7 H 17 V 9 H 14 V 7 H 13 V 9 H 9 V 7 H 8 V 9 H 5 V 7 Z m 0,3 h 14 v 4 H 17.455078 C 16.095248,14 15,12.904752 15,11.544922 V 11 h -1 v 0.544922 C 14,12.904752 12.904752,14 11.544922,14 H 10.455078 C 9.0952482,14 8,12.904752 8,11.544922 V 11 H 7 v 0.544922 C 7,12.904753 5.9047529,14 4.5449219,14 H 4 Z m 3.5,3.658203 C 8.036219,14.467346 8.952476,15 10,15 h 2 c 1.04752,0 1.96378,-0.532647 2.5,-1.341797 C 15.03622,14.467353 15.95248,15 17,15 h 1 v 1 H 4 v -1 h 1 c 1.047521,0 1.963781,-0.532654 2.5,-1.341797 z M 4,17 h 14 c 0,0 0,1 -1,1 C 16,18 6,18 5,18 4,18 4,17 4,17 Z" class="ColorScheme-Text"/>
  </g>
</svg>
