<svg xmlns="http://www.w3.org/2000/svg" viewBox="0 0 24 24" width="24" height="24">
  <defs id="defs3051">
    <style type="text/css" id="current-color-scheme">.ColorScheme-Text {color:#fcfcfc;}</style>
  </defs>
  <g transform="translate(1,1)">
    <path style="fill:currentColor;fill-opacity:1;stroke:none" d="m 3,6 v 10 c 0,0 0,3 3,3 3,0 7,0 10,0 3,0 3,-3 3,-3 V 6 C 19,6 19,3 16,3 13,3 9,3 6,3 3,3 3,6 3,6 Z m 1,3 c 0,0 0,-2 2,-2 2,0 8,0 10,0 2,0 2,2 2,2 v 7 c 0,0 0,2 -2,2 C 14,18 8,18 6,18 4,18 4,16 4,16 Z M 5,8 v 9 h 4 v -2 h 4 v 1.900391 h 4 v -4 H 13 V 14 H 9 v -4 h 4 v 2 h 4 V 8 H 13 V 9 H 9 V 8 Z m 9,1 h 2 v 2 h -2 z m 0,4.900391 h 2 v 2 h -2 z" class="ColorScheme-Text"/>
  </g>
</svg>
