<svg xmlns="http://www.w3.org/2000/svg" viewBox="0 0 24 24" width="24" height="24">
  <defs id="defs3051">
    <style type="text/css" id="current-color-scheme">.ColorScheme-Text {color:#fcfcfc;}</style>
  </defs>
  <g transform="translate(1,1)">
    <path style="fill:currentColor;fill-opacity:1;stroke:none" d="m 3,6 c 0,3 0,4 0,4 h 7 V 3 H 6 C 6,3 3,3 3,6 Z m 9,-3 v 7 h 7 C 19,10 19,9 19,6 19,3 16,3 16,3 Z M 4,6 C 4,4 6,4 6,4 H 9 V 9 H 4 C 4,9 4,8 4,6 Z m -1,6 c 0,0 0,1 0,4 0,3 3,3 3,3 h 4 v -7 z m 9,0 v 7 c 0,0 1,0 4,0 3,0 3,-3 3,-3 v -4 z m 1,1 h 5 v 3 c 0,0 0,2 -2,2 -2,0 -3,0 -3,0 z" class="ColorScheme-Text"/>
  </g>
</svg>
