<svg xmlns="http://www.w3.org/2000/svg" viewBox="0 0 24 24" width="24" height="24">
  <defs id="defs3051">
    <style type="text/css" id="current-color-scheme">.ColorScheme-Text {color:#fcfcfc;}</style>
  </defs>
  <g transform="translate(1,1)">
    <path id="path1" style="fill:currentColor;fill-opacity:1;stroke:none" class="ColorScheme-Text" d="M 6 5 C 6 5 3 5.000003 3 8 L 3 14 C 3 16.999997 6 17 6 17 L 13 17 L 13 16 L 6 16 C 6 16 4 15.999998 4 14 L 4 8 C 4 6.000002 6 6 6 6 L 16 6 C 16 6 18 6.000002 18 8 L 18 11 L 19 11 L 19 8 C 19 5.000003 16 5 16 5 L 6 5 z M 7.5 7 C 6.6690008 7 6 7.6690008 6 8.5 L 6 10 C 6 10 5 10.000001 5 11 L 5 12 C 5 12.999999 6 13 6 13 L 9 13 C 9 13 10 12.999999 10 12 L 10 11 C 10 10.000001 9 10 9 10 L 9 8.5 C 9 7.6690008 8.3309992 7 7.5 7 z M 7.5 8 C 7.7769997 8 8 8.2230003 8 8.5 L 8 10 L 7 10 L 7 8.5 C 7 8.2230003 7.2230003 8 7.5 8 z M 11 8 L 11 9 L 17 9 L 17 8 L 11 8 z M 11 10 L 11 11 L 16 11 L 16 10 L 11 10 z M 11 12 L 11 13 L 15 13 L 15 12 L 11 12 z M 17.5 12 L 16.792969 12.707031 L 19.085938 15 L 14.792969 15 L 14 15 L 14 16 L 19.085938 16 L 16.792969 18.292969 L 17.5 19 L 20.292969 16.207031 L 21 15.5 L 20.292969 14.792969 L 17.5 12 z "/>
  </g>
</svg>
