<svg xmlns="http://www.w3.org/2000/svg" viewBox="0 0 24 24" width="24" height="24">
  <defs id="defs3051">
    <style type="text/css" id="current-color-scheme">.ColorScheme-Text {color:#fcfcfc;}.ColorScheme-Highlight {color:#3daee9;}</style>
  </defs>
  <g transform="translate(1,1)">
    <path style="fill:currentColor;fill-opacity:1;stroke:none" d="m 3,3 v 13 c 0,3 3,3 3,3 h 5 V 18 H 6 C 6,18 4,18 4,16 V 7 h 14 v 2 h 1 V 3 H 17 V 6 H 15 V 3 H 7 V 6 H 5 V 3 Z m 2,5 v 3 h 1 v -1 h 4 v 1 h 1 V 9 8 H 10 V 9 H 6 V 8 Z m 7,4 c 0,0 0,3 0,5 0,2 2,2 2,2 0,0 1,0 3,0 2,0 2,-2 2,-2 v -5 c 0,0 0,-2 -2,-2 -1.051057,0 -1.848515,0 -3,0 -2,0 -2,2 -2,2 z m 1,0 c 0,0 0,-1 1,-1 0.73999,0 2.095707,0 3,0 1,0 1,1 1,1 v 1 h -5 z m 0,2 h 5 v 3 c 0,0 0,1 -1,1 -1,0 -3,0 -3,0 0,0 -1,0 -1,-1 0,-1 0,-3 0,-3 z m 1,1 v 1 h 1 v -1 z m 2,0 v 2 h 1 v -2 z" class="ColorScheme-Text"/>
  </g>
</svg>
