<svg xmlns="http://www.w3.org/2000/svg" version="1.1" viewBox="0 0 24 24" width="24" height="24">
  <defs>
    <style type="text/css" id="current-color-scheme">.ColorScheme-Text {color:#fcfcfc;}</style>
  </defs>
  <g transform="translate(1,1)">
    <path d="M 10,3 C 8,3 8,5 8,5 8,5 6,5 6,7 6,7 4,7 4,9 c 0,2 0,6 0,8 0,2 2,2 2,2 0,0 4,0 6,0 2,0 2,-2 2,-2 2,0 2,-2 2,-2 0,0 2,0 2,-2 0,-2 0,-6 0,-6 L 14,3 c 0,0 -2,0 -4,0 z m 0,1 c 1,0 3,0 3,0 V 6 L 12,5 H 9 C 9,5 9,4 10,4 Z M 8,6 c 1,0 3,0 3,0 V 8 L 10,7 H 7 C 7,7 7,6 8,6 Z M 5,9 C 5,8 6,8 6,8 h 3 v 4 h 4 v 5 c 0,0 0,1 -1,1 -1,0 -6,0 -6,0 0,0 -1,0 -1,-1 0,-1 0,-7 0,-8 z M 15,8 h 2 c 0,0 0,4 0,5 0,1 -1,1 -1,1 V 9 Z m -2,2 h 2 c 0,0 0,4 0,5 0,1 -1,1 -1,1 v -5 z" style="fill:currentColor;fill-opacity:1;stroke:none" class="ColorScheme-Text"/>
  </g>
</svg>
