<svg xmlns="http://www.w3.org/2000/svg" viewBox="0 0 24 24" width="24" height="24">
  <defs id="defs3051">
    <style type="text/css" id="current-color-scheme">.ColorScheme-Text {color:#fcfcfc;}.ColorScheme-Highlight {color:#3daee9;}</style>
  </defs>
  <g transform="translate(1,1)">
    <path style="fill:currentColor;fill-opacity:1;stroke:none" d="M 6,3 C 3,3 3,6 3,6 H 4 C 4,6 4,4 6,4 h 10 c 2,0 2,2 2,2 v 3 h 1 V 6 C 19,6 19,3 16,3 Z M 5,7 C 5,7 3,7 3,9 v 8 c 0,2 2,2 2,2 H 9 V 18 H 5 C 5,18 4,18 4,17 V 9 C 4,8 5,8 5,8 h 6 c 1,0 1,1 1,1 h 1 c 0,0 0,-2 -2,-2 z m 0,3 v 1 h 4 v -1 z m 0,3 v 1 h 2 v -1 z m 0,2 v 1 h 4 v -1 z" class="ColorScheme-Text"/>
    <path style="fill:#da4453;fill-opacity:1;stroke:none" d="m 12,10 c -2,0 -2,2 -2,2 v 5 c 0,0 0,2 2,2 2,0 3,0 5,0 2,0 2,-2 2,-2 v -5 c 0,0 0,-2 -2,-2 -2,0 -3,0 -5,0 z m -1,2 c 0,0 0.05254,-1 0.913698,-1 0.861156,0 3.764128,0 5.086302,0 1,0 1,1 1,1 v 5 c 0,0 0,1 -1,1 -1,0 -4,0 -5,0 -1,0 -1,-1 -1,-1 z m 1,0 v 2 h 5 v -2 z m 2,3 v 1 h 1 v -1 z m 2,0 v 1 h 1 v -1 z"/>
  </g>
</svg>
