<svg xmlns="http://www.w3.org/2000/svg" viewBox="0 0 24 24" width="24" height="24">
  <style type="text/css" id="current-color-scheme">.ColorScheme-Text {color:#fcfcfc;}</style>
  <g transform="translate(1,1)">
    <path d="m 12,14 c 0,2 0,3 0,3 0,0 0,2 2,2 2,0 0,0 2,0 2,0 2,-2 2,-2 v -3 l -2,-2 h -2 c 0,0 -2,0 -2,2 z m 1,0 c 0,-1 1,-1 1,-1 h 1 v 2 h 2 v 2 c 0,0 0,1 -1,1 -1,0 -1,0 -2,0 -1,0 -1,-1 -1,-1 0,0 0,-2 0,-3 z m -3,0 c 0,2 0,1 0,3 0,2 -2,2 -2,2 0,0 0,0 -2,0 -2,0 -2,-2 -2,-2 v -3 l 2,-2 h 2 c 0,0 2,0 2,2 z M 9,14 C 9,13 8,13 8,13 H 7 v 2 H 5 v 2 c 0,0 0,1 1,1 1,0 2,0 2,0 0,0 1,0 1,-1 0,-1 0,-2 0,-3 z M 8,5 c 0,2 0,1 0,3 0,2 2,2 2,2 h 2 c 0,0 2,0 2,-2 0,-2 0,-3 0,-3 L 12,3 H 10 C 10,3 8,3 8,5 Z M 9,5 C 9,4 10,4 10,4 h 1 v 2 h 2 c 0,0 0,1 0,2 0,1 -1,1 -1,1 H 10 C 10,9 9,9 9,8 9,7 9,6 9,5 Z" style="fill:currentColor;fill-opacity:1;stroke:none" class="ColorScheme-Text"/>
  </g>
</svg>
