<svg xmlns="http://www.w3.org/2000/svg" viewBox="0 0 24 24" width="24" height="24">
  <defs id="defs3051">
    <style type="text/css" id="current-color-scheme">.ColorScheme-Text {color:#fcfcfc;}</style>
  </defs>
  <g transform="translate(1,1)">
    <path style="fill:currentColor;fill-opacity:1;stroke:none" d="M 6,3 C 6,3 5,2.99997 5,4 5,4 3,4 3,6 3,8 3,7 3,7 v 9 c 0,0 0,3 3,3 3,0 7,0 10,0 3,0 3,-3 3,-3 V 7 C 19,7 19,8 19,6 19,4 17,4 17,4 17,2.99997 16,3 16,3 h -3 c 0,0 -1,-3e-5 -1,1 H 10 C 10,2.99997 9,3 9,3 Z M 6,4 H 9 V 5 H 6 Z m 7,0 h 3 V 5 H 13 Z M 4,9 c 0,0 0,-2 2,-2 2,0 8,0 10,0 2,0 2,2 2,2 v 7 c 0,0 0,2 -2,2 C 14,18 8,18 6,18 4,18 4,16 4,16 Z M 6,8 v 2 H 8 V 8 Z m 4,0 v 2 h 2 V 8 Z m 4,0 v 2 h 2 V 8 Z m -8,3 v 2 h 2 v -2 z m 4,0 v 2 h 2 v -2 z m 4,0 v 2 h 2 v -2 z m 0,3 v 2 h 2 v -2 z" class="ColorScheme-Text"/>
  </g>
</svg>
