<svg xmlns="http://www.w3.org/2000/svg" viewBox="0 0 24 24" width="24" height="24">
  <defs id="defs3051">
    <style type="text/css" id="current-color-scheme">.ColorScheme-Text {color:#fcfcfc;}.ColorScheme-NegativeText {color:#da4453;}</style>
  </defs>
  <g transform="translate(1,1)">
    <path d="M 5,6 V 8 H 6 V 6 c 0,0 0,-2 2,-2 2,0 6,0 8,0 2,0 2,2 2,2 v 8 h -4 v 1 h 4 v 1 c 0,0 0,2 -2,2 -2,0 -2,0 -2,0 v 1 c 0,0 -1,0 2,0 3,0 3,-3 3,-3 V 6 C 19,6 19,3 16,3 13,3 11,3 8,3 5,3 5,6 5,6 Z m 2,0 v 1 h 8 V 6 Z m -4,5 v 6 c 0,0 0,2 2,2 2,0 4,0 6,0 2,0 2,-2 2,-2 V 11 C 13,11 13,9 11,9 9,9 7,9 5,9 3,9 3,11 3,11 Z m 1,0 c 0,0 0,-1 1,-1 1,0 5.033323,0 6.016662,0 C 12,10 12,11 12,11 v 6 c 0,0 0,1 -1,1 -1,0 -5,0 -6,0 -1,0 -1,-1 -1,-1 z m 10,-1 v 1 h 1 v -1 z m -9,5 v 1 h 4 v -1 z m 5,0 v 1 h 1 v -1 z" style="fill:currentColor;fill-opacity:1;stroke:none" class="ColorScheme-Text"/>
    <path d="m16 6v1h1v-1zm-2 2v1h1v-1zm2 0v1h1v-1zm0 2v1h1v-1zm-11 2v1h4v-1zm5 0v1h1v-1z" style="fill:currentColor;fill-opacity:1;stroke:none" class="ColorScheme-NegativeText"/>
  </g>
</svg>
