<svg xmlns="http://www.w3.org/2000/svg" viewBox="0 0 24 24" width="24" height="24">
  <style type="text/css" id="current-color-scheme">.ColorScheme-Text {color:#fcfcfc;}.ColorScheme-NegativeText {color:#da4453;}</style>
  <g transform="translate(1,1)">
    <path d="m 5,6 v 5 c 0,0 0,0 -1,0 -1,0 -1,1 -1,1 h 9 c 0,0 0,-1 -1,-1 -1,0 -5,0 -5,0 V 6 c 0,0 0,-2 2,-2 2,0 6,0 8,0 2,0 2,2 2,2 v 6 h 1 V 6 C 19,6 19,3 16,3 13,3 11,3 8,3 5,3 5,6 5,6 Z M 7,5 v 1 h 6 V 5 Z m 0,2 v 1 h 4 V 7 Z m -4,6 v 5 c 0,0 0,1 1,1 1,0 6,0 7,0 1,0 1,-1 1,-1 v -5 z m 14,0 -4,4 v 2 h 2 l 4,-4 z m -0.310547,1.689453 0.591797,0.591797 -2.96875,2.984375 v 0.01563 L 13.71875,17.6875 Z M 9,15 h 2 v 2 H 9 Z m -5,2 h 1 v 1 H 4 Z m 2,0 h 1 v 1 H 6 Z" style="fill:currentColor; fill-opacity:1; stroke:none" class="ColorScheme-Text"/>
    <path d="m14 5v1h3v-1z" style="fill:currentColor; fill-opacity:1; stroke:none" class="ColorScheme-NegativeText"/>
  </g>
</svg>
