<svg xmlns="http://www.w3.org/2000/svg" viewBox="0 0 24 24" width="24" height="24">
  <defs id="defs3051">
    <style type="text/css" id="current-color-scheme">.ColorScheme-Text {color:#fcfcfc;}</style>
  </defs>
  <g transform="translate(1,1)">
    <path style="fill:currentColor;fill-opacity:1;stroke:none" d="m 3,3 v 13 c 0,0 0,3 3,3 3,0 7,0 10,0 3,0 3,-3 3,-3 V 5 3 H 18 V 4 H 16 V 3 H 15 V 4 H 13 V 3 H 12 V 4 H 10 V 3 H 9 V 4 H 7 V 3 H 6 V 4 H 4 V 3 Z m 3,3 c 2,0 8,0 10,0 2,0 2,2 2,2 v 8 c 0,0 0,2 -2,2 C 14,18 8,18 6,18 4,18 4,16 4,16 V 8 C 4,8 4,6 6,6 Z M 6,8 V 9 H 16 V 8 Z m 0,3 v 1 h 6 v -1 z m 0,3 v 1 h 8 v -1 z m 8,2 v 1 h 2 v -1 z" class="ColorScheme-Text"/>
  </g>
</svg>
