<svg xmlns="http://www.w3.org/2000/svg" viewBox="0 0 24 24" width="24" height="24">
  <style type="text/css" id="current-color-scheme">.ColorScheme-Text {color:#fcfcfc;}.ColorScheme-NegativeText {color:#da4453;}</style>
  <g transform="translate(1,1)">
    <path d="M 19,2.9941406 10.443359,10 H 5 c 0,0 -2,0 -2,2 0,2 0,5 0,5 0,0 0,2 2,2 2,0 10,0 12,0 2,0 2,-2 2,-2 v -3 h -1 v 2 c 0,0 0,1 -1,1 -1,0 -4.490234,0 -4.490234,0 L 19,11.6875 Z M 5.71875,3 3,5.5 5.71875,8 6.40625,7.34375 4.96875,6.0019531 H 9 V 5 H 4.96875 L 6.40625,3.65625 Z M 18,5.1054688 v 6.1074222 l -7,5.732421 V 10.835938 Z M 4,12 c 0,-1 1,-1 1,-1 h 5 v 6 c 0,0 -4,0 -5,0 -1,0 -1,-1 -1,-1 0,0 0,-3 0,-4 z m 1,0 v 1 h 2 v -1 z m 0,2 v 1 h 2 v -1 z" style="fill:currentColor; fill-opacity:1; stroke:none" class="ColorScheme-Text"/>
    <path d="m8 12v1h1v-1h-1zm0 2v1h1v-1h-1z" style="fill:currentColor; fill-opacity:1; stroke:none" class="ColorScheme-NegativeText"/>
  </g>
</svg>
