<svg xmlns="http://www.w3.org/2000/svg" viewBox="0 0 24 24" width="24" height="24">
  <defs id="defs3051">
    <style type="text/css" id="current-color-scheme">.ColorScheme-Text {color:#fcfcfc;}</style>
  </defs>
  <g transform="translate(1,1)">
    <path style="fill:currentColor;fill-opacity:1;stroke:none" d="M 3,3 V 6 L 6,3 Z m 13,0 3,3 V 3 Z M 6,8 v 1 5 c 0,0 0,2 2,2 2.555946,0 6,0 6,0 0,0 2,0 2,-2 0,-2 0,-6 0,-6 C 16,8 16,6 14,6 12,6 10,6 8,6 6,6 6,8 6,8 Z m 2,1 c 1,0 5,0 6,0 1,0 1,1 1,1 v 4 c 0,0 0,1 -1.066708,1 C 11.955528,15 9,15 8,15 7,15 7,14 7,14 L 7,10 C 7,10 7,9 8,9 Z m -5,7 v 3 h 3 z m 16,0 -3,3 h 3 z" class="ColorScheme-Text"/>
  </g>
</svg>
