<svg xmlns="http://www.w3.org/2000/svg" viewBox="0 0 24 24" width="24" height="24">
  <defs id="defs3051">
    <style type="text/css" id="current-color-scheme">.ColorScheme-Text {color:#fcfcfc;}</style>
  </defs>
  <g transform="translate(1,1)">
    <path style="fill:currentColor;fill-opacity:1;stroke:none" d="m 3,6 c 0,3 0,7 0,10 0,3 3,3 3,3 h 10 c 0,0 3,0 3,-3 C 19,13 19,9 19,6 19,3 16,3 16,3 H 6 C 6,3 3,3 3,6 Z M 4,6 C 4,4 6,4 6,4 h 10 c 0,0 2,0 2,2 0,2 0,8 0,10 0,2 -2,2 -2,2 H 6 C 6,18 4,18 4,16 4,14 4,8 4,6 Z M 7.5,5 C 6.115,5 5,6.115 5,7.5 5,8.885 6.115,10 7.5,10 8.885,10 10,8.885 10,7.5 10,6.115 8.885,5 7.5,5 Z m 0,1 C 8.331,6 9,6.669 9,7.5 9,8.331 8.331,9 7.5,9 6.669,9 6,8.331 6,7.5 6,6.669 6.669,6 7.5,6 Z m 6.494141,4 -3.345703,3.34375 L 9.3066406,12 9.3007812,12.007812 9.2929688,12 5,16.292969 5.7070312,17 9.2988281,13.408203 9.9414062,14.050781 10.648438,14.757812 11.355469,14.050781 14,11.40625 16.292969,13.699219 17,12.992188 14.007812,10 14,10.007812 Z" class="ColorScheme-Text"/>
  </g>
</svg>
