<svg xmlns="http://www.w3.org/2000/svg" viewBox="0 0 24 24" width="24" height="24">
  <defs id="defs3051">
    <style type="text/css" id="current-color-scheme">.ColorScheme-Text {color:#fcfcfc;}</style>
  </defs>
  <g transform="translate(1,1)">
    <path style="fill:currentColor;fill-opacity:1;stroke:none" d="m 3,6 c 0,3 0,7 0,10 0,3 3,3 3,3 l 4,0 V 18 7 3 H 6 C 6,3 3,3 3,6 Z m 8,-3 v 16 h 1 1 c 0,0 0,0 3,0 3,0 3,-3 3,-3 0,0 0,-7 0,-10 C 19,3 16,3 16,3 H 12 Z M 4,9 C 4,9 4,7 6,7 8,7 9,7 9,7 V 18 H 6 C 6,18 4,18 4,16 4,14 4,9 4,9 Z m 8,-2 h 1 c 0,0 1,0 3,0 2,0 2,2 2,2 v 7 c 0,0 0,2 -2,2 -2,0 -3,0 -3,0 h -1 z" class="ColorScheme-Text"/>
  </g>
</svg>
