<svg xmlns="http://www.w3.org/2000/svg" viewBox="0 0 24 24" width="24" height="24">
  <style type="text/css" id="current-color-scheme">.ColorScheme-Text {color:#fcfcfc;}.ColorScheme-NegativeText {color:#da4453;}</style>
  <g transform="translate(1,1)">
    <path d="m 5,6 v 5 c 0,0 0,0 -1,0 -1,0 -1,1 -1,1 h 14 c 0,0 0,-1 -1,-1 -1,0 -10,0 -10,0 V 6 c 0,0 0,-2 2,-2 2,0 6,0 8,0 2,0 2,2 2,2 v 13 h 1 V 6 C 19,6 19,3 16,3 13,3 11,3 8,3 5,3 5,6 5,6 Z M 7,5 v 1 h 6 V 5 Z m 0,2 v 1 h 4 V 7 Z m -4,6 v 5 c 0,0 0,1 1,1 1,0 11.116343,0 12.058171,0 C 17,19 17,18 17,18 v -5 z m 11,2 h 2 v 2 H 14 Z M 4,17 h 1 v 1 H 4 Z m 2,0 h 1 v 1 H 6 Z m 2,0 h 1 v 1 H 8 Z m 2,0 h 1 v 1 h -1 z" style="fill:currentColor; fill-opacity:1; stroke:none" class="ColorScheme-Text"/>
    <path d="m14 5v1h3v-1z" style="fill:currentColor; fill-opacity:1; stroke:none" class="ColorScheme-NegativeText"/>
  </g>
</svg>
