<svg xmlns="http://www.w3.org/2000/svg" viewBox="0 0 24 24" width="24" height="24">
  <defs id="defs3051">
    <style type="text/css" id="current-color-scheme">.ColorScheme-Text {color:#fcfcfc;}</style>
  </defs>
  <g transform="translate(1,1)">
    <path style="fill:currentColor;fill-opacity:1;stroke:none" d="m 2,6 c 0,3 0,3 0,6 0,3 3,3 3,3 l 12,0 c 0,0 3,0 3,-3 C 20,9 20,9 20,6 20,3 17,3 17,3 H 5 C 5,3 2,3 2,6 Z M 3,6 C 3,4 5,4 5,4 h 12 c 0,0 2,0 2,2 0,2 0,4 0,6 0,2 -2,2 -2,2 H 5 C 5,14 3,14 3,12 3,10 3,8 3,6 Z m 6,0 v 6 l 4,-3 z m 0,10 v 2 H 8 v 1 h 6 v -1 h -1 v -2 h -1 v 2 h -2 v -2 z" class="ColorScheme-Text"/>
  </g>
</svg>
