<svg xmlns="http://www.w3.org/2000/svg" viewBox="0 0 24 24" width="24" height="24">
  <style type="text/css" id="current-color-scheme">.ColorScheme-Text {color:#fcfcfc;}</style>
  <g transform="translate(1,1)">
    <g style="fill:currentColor;fill-opacity:1;stroke:none" class="ColorScheme-Text">
      <path d="m 12,15 c 0,0 0,-6 0,-8 0,-2 2,-2 2,-2 h 4 l 3,3 v 7 c 0,0 0,2 -2,2 -2,0 -3,0 -5,0 -2,0 -2,-2 -2,-2 z m 2,1 c 1,0 4,0 5,0 1,0 1,-1 1,-1 V 9 H 17 V 6 h -3 c 0,0 -1,0 -1,1 0,1 0,8 0,8 0,0 0,1 1,1 z"/>
      <path d="M 10,15 C 10,15 10,9 10,7 10,5 8,5 8,5 H 4 L 1,8 v 7 c 0,0 0,2 2,2 2,0 3,0 5,0 2,0 2,-2 2,-2 z M 8,16 C 7,16 4,16 3,16 2,16 2,15 2,15 V 9 H 5 V 6 h 3 c 0,0 1,0 1,1 0,1 0,8 0,8 0,0 0,1 -1,1 z"/>
    </g>
  </g>
</svg>
