<svg xmlns="http://www.w3.org/2000/svg" viewBox="0 0 24 24" width="24" height="24">
  <defs id="defs3051">
    <style type="text/css" id="current-color-scheme">.ColorScheme-Text {color:#fcfcfc;}</style>
  </defs>
  <g transform="translate(1,1)">
    <path style="fill:currentColor;fill-opacity:1;stroke:none" d="M 3,6 H 4 C 4,4 6,4 6,4 V 3 C 6,3 3,3 3,6 Z M 11,3 9,5 h 4 z m 5,0 v 1 c 0,0 2,0 2,2 h 1 C 19,3 16,3 16,3 Z M 5,9 3,11 5,13 Z m 12,0 v 4 l 2,-2 z M 3,16 c 0,0 0,3 3,3 V 18 C 4,18 4,16 4,16 Z m 15,0 c 0,0 0,2 -2,2 v 1 c 3,0 3,-3 3,-3 z m -9,1 2,2 2,-2 z" class="ColorScheme-Text"/>
  </g>
</svg>
