<svg xmlns="http://www.w3.org/2000/svg" viewBox="0 0 24 24" width="24" height="24">
  <defs id="defs3051">
    <style type="text/css" id="current-color-scheme">.ColorScheme-Text {color:#fcfcfc;}</style>
  </defs>
  <g transform="translate(1,1)">
    <path style="fill:currentColor;fill-opacity:1;stroke:none" d="M 3,6 H 4 C 4,4 6,4 6,4 V 3 C 6,3 3,3 3,6 Z M 16,3 v 1 c 0,0 2,0 2,2 h 1 C 19,3 16,3 16,3 Z M 12.285156,7.3242188 10.482422,9.125 8.6074219,11 10.482422,12.875 12.285156,14.675781 12.992188,13.96875 11.189453,12.167969 10.021484,11 11.189453,9.8320312 12.992188,8.03125 Z M 3,16 c 0,3 3,3 3,3 v -1 c 0,0 -2,0 -2,-2 z m 15,0 c 0,2 -2,2 -2,2 v 1 c 0,0 3,0 3,-3 z" class="ColorScheme-Text"/>
  </g>
</svg>
