<?xml version="1.0" encoding="UTF-8" standalone="no"?>
<svg
   width="64"
   height="64"
   version="1.1"
   viewBox="0 0 64 64"
   id="svg257"
   sodipodi:docname="drive-harddisk.svg"
   inkscape:version="1.1.2 (0a00cf5339, 2022-02-04)"
   xmlns:inkscape="http://www.inkscape.org/namespaces/inkscape"
   xmlns:sodipodi="http://sodipodi.sourceforge.net/DTD/sodipodi-0.dtd"
   xmlns="http://www.w3.org/2000/svg"
   xmlns:svg="http://www.w3.org/2000/svg">
  <sodipodi:namedview
     id="namedview259"
     pagecolor="#ffffff"
     bordercolor="#666666"
     borderopacity="1.0"
     inkscape:pageshadow="2"
     inkscape:pageopacity="0.0"
     inkscape:pagecheckerboard="0"
     showgrid="false"
     inkscape:zoom="9.84375"
     inkscape:cx="32"
     inkscape:cy="31.949206"
     inkscape:window-width="3440"
     inkscape:window-height="1359"
     inkscape:window-x="0"
     inkscape:window-y="0"
     inkscape:window-maximized="1"
     inkscape:current-layer="g193" />
  <defs
     id="defs137">
    <linearGradient
       id="linearGradient1453"
       x1="50.27"
       x2="50.27"
       y1="15.081"
       y2="14.023"
       gradientTransform="matrix(7.3154,0,0,7.3154,-335.74,-50.258)"
       gradientUnits="userSpaceOnUse">
      <stop
         stop-color="#4c566a"
         offset="0"
         id="stop2" />
      <stop
         stop-color="#2e3440"
         offset="1"
         id="stop4" />
    </linearGradient>
    <linearGradient
       id="linearGradient4336"
       x1="242.09"
       x2="173.32"
       y1="131.04"
       y2="131.04"
       gradientTransform="matrix(.3932 0 0 .3932 -58.986 .79297)"
       gradientUnits="userSpaceOnUse">
      <stop
         stop-color="#7b88a1"
         offset="0"
         id="stop7" />
      <stop
         stop-color="#4c566a"
         offset="1"
         id="stop9" />
    </linearGradient>
    <linearGradient
       id="linearGradient1517"
       x1="38.364"
       x2="39.951"
       y1="15.17"
       y2="15.17"
       gradientTransform="matrix(7.3154,0,0,7.3154,-276.92,-58)"
       gradientUnits="userSpaceOnUse">
      <stop
         stop-color="#2e3440"
         offset="0"
         id="stop12" />
      <stop
         stop-color="#7b88a1"
         offset=".33438"
         id="stop14" />
      <stop
         stop-color="#a6aebf"
         offset=".50217"
         id="stop16" />
      <stop
         stop-color="#7b88a1"
         offset=".68594"
         id="stop18" />
      <stop
         stop-color="#2e3440"
         offset="1"
         id="stop20" />
    </linearGradient>
    <linearGradient
       id="linearGradient1521"
       x1="38.364"
       x2="39.951"
       y1="15.17"
       y2="15.17"
       gradientTransform="matrix(7.3154,0,0,7.3154,-232.4,-58)"
       gradientUnits="userSpaceOnUse">
      <stop
         stop-color="#2e3440"
         offset="0"
         id="stop23" />
      <stop
         stop-color="#4c566a"
         offset=".33438"
         id="stop25" />
      <stop
         stop-color="#7b88a1"
         offset=".50217"
         id="stop27" />
      <stop
         stop-color="#4c566a"
         offset=".68594"
         id="stop29" />
      <stop
         stop-color="#2e3440"
         offset="1"
         id="stop31" />
    </linearGradient>
    <linearGradient
       id="linearGradient4265"
       x1="285.3"
       x2="177.35"
       y1="58.879"
       y2="58.879"
       gradientTransform="matrix(.3932 0 0 .3932 -58.986 .79297)"
       gradientUnits="userSpaceOnUse">
      <stop
         stop-color="#2e3440"
         offset="0"
         id="stop34" />
      <stop
         stop-color="#eceff4"
         offset=".14845"
         id="stop36" />
      <stop
         stop-color="#7b88a1"
         offset=".55"
         id="stop38" />
      <stop
         stop-color="#434c5e"
         offset="1"
         id="stop40" />
    </linearGradient>
    <linearGradient
       id="linearGradient4247"
       x1="237.32"
       x2="239.69"
       y1="18.634"
       y2="111.87"
       gradientTransform="matrix(.3932 0 0 .3932 -58.986 .79297)"
       gradientUnits="userSpaceOnUse">
      <stop
         stop-color="#a6aebf"
         offset="0"
         id="stop43" />
      <stop
         stop-color="#d8dee9"
         offset="1"
         id="stop45" />
    </linearGradient>
    <linearGradient
       id="linearGradient4577"
       x1="-27.125"
       x2="1.125"
       y1="62.125"
       y2="62.125"
       gradientTransform="matrix(.85911 0 0 .85911 43.435 -15.974)"
       gradientUnits="userSpaceOnUse">
      <stop
         stop-color="#d8dee9"
         offset="0"
         id="stop48" />
      <stop
         stop-color="#3b4252"
         offset=".15143"
         id="stop50" />
      <stop
         stop-color="#eceff4"
         offset=".61194"
         id="stop52" />
      <stop
         stop-color="#7b88a1"
         offset=".86567"
         id="stop54" />
      <stop
         stop-color="#eceff4"
         offset="1"
         id="stop56" />
    </linearGradient>
    <linearGradient
       id="linearGradient4591"
       x1="-12.905"
       x2="-12.905"
       y1="1016.9"
       y2="999.65"
       gradientTransform="matrix(.85911 0 0 .85911 43.435 -837.6)"
       gradientUnits="userSpaceOnUse">
      <stop
         stop-color="#a6aebf"
         offset="0"
         id="stop59" />
      <stop
         stop-color="#eceff4"
         offset="1"
         id="stop61" />
    </linearGradient>
    <linearGradient
       id="linearGradient1439"
       x1="144.66"
       x2="174.56"
       y1="55.562"
       y2="55.562"
       gradientTransform="matrix(1.9355 0 0 1.9355 -276.92 -58)"
       gradientUnits="userSpaceOnUse">
      <stop
         stop-color="#a6aebf"
         offset="0"
         id="stop64" />
      <stop
         stop-color="#7b88a1"
         offset=".056041"
         id="stop66" />
      <stop
         stop-color="#4c566a"
         offset=".11456"
         id="stop68" />
      <stop
         stop-color="#7b88a1"
         offset=".50498"
         id="stop70" />
      <stop
         stop-color="#4c566a"
         offset=".91543"
         id="stop72" />
      <stop
         stop-color="#7b88a1"
         offset=".96193"
         id="stop74" />
      <stop
         stop-color="#a6aebf"
         offset="1"
         id="stop76" />
    </linearGradient>
    <linearGradient
       id="linearGradient1457"
       x1="144.66"
       x2="174.56"
       y1="55.562"
       y2="55.562"
       gradientTransform="matrix(1.9355 0 0 1.9355 -276.92 -48.322)"
       gradientUnits="userSpaceOnUse">
      <stop
         stop-color="#7b88a1"
         offset="0"
         id="stop79" />
      <stop
         stop-color="#a6aebf"
         offset=".056041"
         id="stop81" />
      <stop
         stop-color="#4c566a"
         offset=".11456"
         id="stop83" />
      <stop
         stop-color="#7b88a1"
         offset=".50498"
         id="stop85" />
      <stop
         stop-color="#4c566a"
         offset=".91543"
         id="stop87" />
      <stop
         stop-color="#a6aebf"
         offset=".96193"
         id="stop89" />
      <stop
         stop-color="#7b88a1"
         offset="1"
         id="stop91" />
    </linearGradient>
    <linearGradient
       id="linearGradient1475"
       x1="120.59"
       x2="118.64"
       y1="137.54"
       y2="139.07"
       gradientTransform="matrix(.3932 0 0 .3932 -17.752 1.0878)"
       gradientUnits="userSpaceOnUse">
      <stop
         stop-color="#2e3440"
         offset="0"
         id="stop94" />
      <stop
         stop-color="#4c566a"
         offset="1"
         id="stop96" />
    </linearGradient>
    <linearGradient
       id="linearGradient1477"
       x1="120.59"
       x2="118.64"
       y1="137.54"
       y2="139.07"
       gradientTransform="matrix(.3932 0 0 .3932 -15.285 1.0878)"
       gradientUnits="userSpaceOnUse">
      <stop
         stop-color="#2e3440"
         offset="0"
         id="stop99" />
      <stop
         stop-color="#4c566a"
         offset="1"
         id="stop101" />
    </linearGradient>
    <linearGradient
       id="linearGradient1479"
       x1="120.59"
       x2="118.64"
       y1="137.54"
       y2="139.07"
       gradientTransform="matrix(.3932 0 0 .3932 -12.819 1.0878)"
       gradientUnits="userSpaceOnUse">
      <stop
         stop-color="#2e3440"
         offset="0"
         id="stop104" />
      <stop
         stop-color="#4c566a"
         offset="1"
         id="stop106" />
    </linearGradient>
    <linearGradient
       id="linearGradient1481"
       x1="120.59"
       x2="118.64"
       y1="137.54"
       y2="139.07"
       gradientTransform="matrix(.3932 0 0 .3932 -10.353 1.0878)"
       gradientUnits="userSpaceOnUse">
      <stop
         stop-color="#2e3440"
         offset="0"
         id="stop109" />
      <stop
         stop-color="#4c566a"
         offset="1"
         id="stop111" />
    </linearGradient>
    <linearGradient
       id="linearGradient1483"
       x1="120.59"
       x2="118.64"
       y1="137.54"
       y2="139.07"
       gradientTransform="matrix(.3932 0 0 .3932 -7.887 1.0878)"
       gradientUnits="userSpaceOnUse">
      <stop
         stop-color="#2e3440"
         offset="0"
         id="stop114" />
      <stop
         stop-color="#4c566a"
         offset="1"
         id="stop116" />
    </linearGradient>
    <linearGradient
       id="linearGradient1485"
       x1="120.59"
       x2="118.64"
       y1="137.54"
       y2="139.07"
       gradientTransform="matrix(.3932 0 0 .3932 -5.4208 1.0878)"
       gradientUnits="userSpaceOnUse">
      <stop
         stop-color="#2e3440"
         offset="0"
         id="stop119" />
      <stop
         stop-color="#4c566a"
         offset="1"
         id="stop121" />
    </linearGradient>
    <linearGradient
       id="linearGradient1487"
       x1="120.59"
       x2="118.64"
       y1="137.54"
       y2="139.07"
       gradientTransform="matrix(.3932 0 0 .3932 -2.9547 1.0878)"
       gradientUnits="userSpaceOnUse">
      <stop
         stop-color="#2e3440"
         offset="0"
         id="stop124" />
      <stop
         stop-color="#4c566a"
         offset="1"
         id="stop126" />
    </linearGradient>
    <linearGradient
       id="linearGradient1491"
       x1="50.27"
       x2="50.27"
       y1="14.816"
       y2="8.7311"
       gradientTransform="matrix(7.3154,0,0,7.3154,-335.74,-59.935)"
       gradientUnits="userSpaceOnUse">
      <stop
         stop-color="#d8dee9"
         offset="0"
         id="stop129" />
      <stop
         stop-color="#a6aebf"
         offset="1"
         id="stop131" />
    </linearGradient>
    <filter
       id="filter1710"
       x="-0.025239233"
       y="-0.02902482"
       width="1.0504785"
       height="1.0580496"
       color-interpolation-filters="sRGB">
      <feGaussianBlur
         stdDeviation="0.60858515"
         id="feGaussianBlur134" />
    </filter>
  </defs>
  <path
     d="m13.325 12.637c-3.8006 0-5.7562 1.757-6.1353 5.4133l-4.1016 39.53c-0.30746 2.9646 2.3988 5.3793 5.3793 5.3793h47.064c2.9805 0 5.6867-2.4146 5.3793-5.3793l-4.1016-39.53c-0.37914-3.6563-2.3347-5.4133-6.1353-5.4133h-19.43z"
     filter="url(#filter1710)"
     opacity=".35"
     stroke-width="7.3153"
     id="path139" />
  <g
     stroke-width="7.3154"
     id="g149">
    <path
       d="m13.325 11.677c-3.8006 0-5.7562 1.757-6.1353 5.4133l-4.1016 39.53c-0.30746 2.9646 2.3988 5.3793 5.3793 5.3793h47.064c2.9805 0 5.6867-2.4147 5.3793-5.3793l-4.1016-39.53c-0.37914-3.6563-2.3347-5.4133-6.1353-5.4133h-19.43z"
       fill="url(#linearGradient1453)"
       id="path141" />
    <path
       d="m9.5334 53.574h4.7125c6.422 4.372 13.079 4.3669 19.792 4.3669h11.626l8.8348-3.6858s0.84039-3.2259 0.46336-3.1316c-0.37703 0.09429-46.088 0-46.088 0z"
       fill-opacity=".08365"
       id="path143" />
    <path
       d="m9.5334 53.245h4.7125c6.422 4.372 13.079 4.3669 19.792 4.3669h11.363l9.262-3.3526s0.67638-3.5591 0.29934-3.4648c-0.37703 0.09429-46.088 0-46.088 0z"
       fill="url(#linearGradient4336)"
       id="path145" />
    <path
       d="m3.725 45.886v9.6775a5.8064 4.5024 0 0 0 5.8064 4.5022 5.8064 4.5024 0 0 0 5.8064-4.5022v-9.6775z"
       fill="#7a7b7b"
       id="path147" />
  </g>
  <g
     stroke-width=".3932"
     id="g165">
    <rect
       x="28.899"
       y="51.272"
       width="1.3995"
       height="6.5311"
       rx=".19993"
       ry=".19993"
       fill="url(#linearGradient1475)"
       style="paint-order:fill markers stroke"
       id="rect151" />
    <rect
       x="31.365"
       y="51.272"
       width="1.3995"
       height="6.5311"
       rx=".19993"
       ry=".19993"
       fill="url(#linearGradient1477)"
       style="paint-order:fill markers stroke"
       id="rect153" />
    <rect
       x="33.832"
       y="51.272"
       width="1.3995"
       height="6.5311"
       rx=".19993"
       ry=".19993"
       fill="url(#linearGradient1479)"
       style="paint-order:fill markers stroke"
       id="rect155" />
    <rect
       x="36.298"
       y="51.272"
       width="1.3995"
       height="6.5311"
       rx=".19993"
       ry=".19993"
       fill="url(#linearGradient1481)"
       style="paint-order:fill markers stroke"
       id="rect157" />
    <rect
       x="38.764"
       y="51.272"
       width="1.3995"
       height="6.5311"
       rx=".19993"
       ry=".19993"
       fill="url(#linearGradient1483)"
       style="paint-order:fill markers stroke"
       id="rect159" />
    <rect
       x="41.229"
       y="51.272"
       width="1.3995"
       height="6.5311"
       rx=".19993"
       ry=".19993"
       fill="url(#linearGradient1485)"
       style="paint-order:fill markers stroke"
       id="rect161" />
    <rect
       x="43.694"
       y="51.272"
       width="1.3995"
       height="6.5311"
       rx=".19993"
       ry=".19993"
       fill="url(#linearGradient1487)"
       style="paint-order:fill markers stroke"
       id="rect163" />
  </g>
  <g
     stroke-width="7.3154"
     id="g193">
    <path
       d="m 48.241,45.886 v 9.6775 a 5.8064,4.5024 0 0 0 5.8064,4.5022 5.8064,4.5024 0 0 0 5.8065,-4.5022 V 45.886 Z"
       fill="#797a7a"
       id="path167" />
    <path
       d="m 3.725,45.886 v 9.6775 a 5.8064,4.5024 0 0 0 5.8064,4.5022 5.8064,4.5024 0 0 0 5.8064,-4.5022 V 45.886 Z"
       fill="url(#linearGradient1517)"
       id="path169" />
    <path
       d="m 48.241,45.886 v 9.6775 a 5.8064,4.5024 0 0 0 5.8064,4.5022 5.8064,4.5024 0 0 0 5.8065,-4.5022 V 45.886 Z"
       fill="url(#linearGradient1521)"
       id="path171" />
    <path
       d="M 13.325,2 C 9.5244,2 7.5688,3.757 7.1897,7.4133 l -4.1016,39.53 c -0.30746,2.9646 2.3988,5.3793 5.3793,5.3793 h 47.064 c 2.9805,0 5.6867,-2.4147 5.3793,-5.3793 L 56.8091,7.4133 C 56.42996,3.757 54.4744,2 50.6738,2 h -19.43 z"
       fill="url(#linearGradient1491)"
       id="path173" />
    <path
       d="m 50.882,7.0666 -0.99591,-0.91259 -10.3,11.474 c -2.6308,0.34938 -5.2478,0.52736 -7.895,0.50761 -12.35,-0.46848 -23.016,6.8214 -23.016,14.793 0,7.9715 10.018,14.433 22.378,14.433 12.359,0 22.879,-6.5589 22.879,-14.53 0,-0.80674 -0.10798,-1.5974 -0.3052,-2.3681 z"
       fill="url(#linearGradient4265)"
       style="paint-order:fill markers stroke"
       id="path175" />
    <path
       d="m 12.608,14.46 31.018,0.42952 -0.6436,-7.965 c -7.8377,0.79196 -26.614,1.8193 -29.771,6.9261 z"
       fill="#7a8285"
       id="path177" />
    <path
       d="m 49.997,6.1244 -36.452,0.25122 -0.32078,7.4931 27.304,0.20955 -0.55662,3.165 -0.4052,0.66211 c -0.7935,-0.05998 -4.2396,0.44104 -5.0556,0.38559 -13.308,-0.90334 -24.5,6.095 -24.5,13.825 0,7.7295 9.4288,13.996 21.059,13.996 11.6302,0 21.531,-6.3598 21.531,-14.089 0,-0.7823 -0.10154,-1.549 -0.2872,-2.2962 z"
       fill="url(#linearGradient4247)"
       style="paint-order:fill markers stroke"
       id="path179" />
    <path
       d="M 49.997,6.2297 13.544,6.37606 V 6.76164 L 49.997,6.50837 Z"
       fill="#8b8789"
       style="paint-order:fill markers stroke"
       id="path187" />
    <path
       d="m 12.601,14.451 0.49123,-7.2789 0.47835,-0.83161 -0.3488,7.526 z"
       fill="#423d3f"
       id="path189" />
    <path
       d="m 40.099,14.806 0.49181,-0.79123 -0.62012,3.229 -0.38493,0.38493 z"
       fill="#463d40"
       id="path191" />
  </g>
  <g
     stroke-width=".85912"
     id="g211">
    <ellipse
       cx="32.42"
       cy="31.999"
       rx="13.312"
       ry="7.8801"
       opacity=".05"
       id="ellipse195" />
    <ellipse
       cx="32.42"
       cy="31.999"
       rx="13.097"
       ry="7.6653"
       opacity=".05"
       id="ellipse197" />
    <ellipse
       cx="32.42"
       cy="31.999"
       rx="12.882"
       ry="7.4773"
       opacity=".1"
       id="ellipse199" />
    <ellipse
       cx="32.42"
       cy="31.999"
       rx="12.668"
       ry="7.2641"
       opacity=".1"
       id="ellipse201" />
    <ellipse
       cx="32.42"
       cy="31.57"
       rx="12.404"
       ry="7.0379"
       opacity=".5"
       id="ellipse203" />
    <path
       d="m20.232 29.311v2.0706h0.0067a12.189 6.916 0 0 0 6.0876 5.8208 12.189 6.916 0 0 0 12.188 0 12.189 6.916 0 0 0 6.0793-5.8208h0.0151v-2.0706h-24.377z"
       fill="url(#linearGradient4577)"
       id="path205" />
    <ellipse
       cx="32.42"
       cy="29.422"
       rx="12.189"
       ry="6.916"
       fill="url(#linearGradient4591)"
       id="ellipse207" />
    <path
       d="m44.597 29.594a12.189 6.916 0 0 1-12.177 6.7806 12.189 6.916 0 0 1-12.177-6.7252 12.189 6.916 0 0 0-0.01174 0.13591 12.189 6.916 0 0 0 12.189 6.9166 12.189 6.916 0 0 0 12.188-6.9166 12.189 6.916 0 0 0-0.01174-0.19124z"
       fill="#eceff4"
       opacity=".6"
       id="path209" />
  </g>
  <path
     d="m32.418 24.502a8.8539 4.9177 0 0 0-8.8531 4.919 8.8539 4.9177 0 0 0 8.8531 4.919 8.8539 4.9177 0 0 0 8.8558-4.919 8.8539 4.9177 0 0 0-8.8558-4.919zm-0.14788 0.43248a8.3462 4.4873 0 0 1 0.14788 0 8.3462 4.4873 0 0 1 8.3481 4.4865 8.3462 4.4873 0 0 1-8.3481 4.4865 8.3462 4.4873 0 0 1-8.3452-4.4865 8.3462 4.4873 0 0 1 8.1974-4.4865z"
     opacity=".15"
     stroke-width=".61743"
     id="path213" />
  <path
     d="m3.1083 46.756-0.01902 0.18522c-0.30746 2.9646 2.3987 5.3793 5.3793 5.3793h47.064c2.9805 0 5.6867-2.4147 5.3793-5.3793l-0.01536-0.16255c-0.28757 2.5102-2.7119 4.4267-5.3641 4.4267h-47.064c-2.6601 0-5.0847-1.9283-5.3604-4.4493z"
     fill="url(#linearGradient1439)"
     stroke-width="7.3154"
     id="path215" />
  <path
     d="m3.1083 56.434-0.01902 0.18522c-0.30746 2.9646 2.3987 5.3793 5.3793 5.3793h47.064c2.9805 0 5.6867-2.4147 5.3793-5.3793l-0.01536-0.16255c-0.28757 2.5102-2.7119 4.4267-5.3641 4.4267h-47.064c-2.6601 0-5.0847-1.9283-5.3604-4.4493z"
     fill="url(#linearGradient1457)"
     stroke-width="7.3154"
     id="path217" />
  <ellipse
     cx="7.3992"
     cy="47.614"
     rx="1.2842"
     ry="1.0522"
     fill="#2e3440"
     stroke-width=".35592"
     style="paint-order:fill markers stroke"
     id="ellipse219" />
  <ellipse
     cx="7.4027"
     cy="47.542"
     rx="1.2388"
     ry=".92715"
     fill="#7b88a1"
     stroke-width=".32815"
     style="paint-order:fill markers stroke"
     id="ellipse221" />
  <path
     d="m7.4288 46.844a0.13862 0.6054 2.5757 0 0-0.14748 0.40447 0.76584 0.13862 23.938 0 0-0.57835-0.10958 0.76584 0.13862 23.938 0 0 0.38179 0.31376 0.13862 0.76584 66.062 0 0-0.38179 0.30995 0.13862 0.76584 66.062 0 0 0.55948-0.10585 0.13862 0.6054 2.5757 0 0 0.10966 0.39693 0.13862 0.6054 2.5757 0 0 0.15121-0.40074 0.76584 0.13862 23.938 0 0 0.57835 0.10966 0.76584 0.13862 23.938 0 0-0.38179-0.30995 0.13862 0.76584 66.062 0 0 0.38179-0.31376 0.13862 0.76584 66.062 0 0-0.56328 0.10585 0.13862 0.6054 2.5757 0 0-0.10966-0.40074z"
     fill="#2e3440"
     stroke-width="7.3154"
     id="path223" />
  <ellipse
     cx="55.98"
     cy="47.614"
     rx="1.2842"
     ry="1.0522"
     fill="#2e3440"
     stroke-width=".35592"
     style="paint-order:fill markers stroke"
     id="ellipse225" />
  <ellipse
     cx="55.984"
     cy="47.542"
     rx="1.2388"
     ry=".92715"
     fill="#7b88a1"
     stroke-width=".32815"
     style="paint-order:fill markers stroke"
     id="ellipse227" />
  <path
     d="m56.01 46.844a0.13862 0.6054 2.5757 0 0-0.14748 0.40447 0.76584 0.13862 23.938 0 0-0.57835-0.10958 0.76584 0.13862 23.938 0 0 0.38179 0.31376 0.13862 0.76584 66.062 0 0-0.38179 0.30995 0.13862 0.76584 66.062 0 0 0.55948-0.10585 0.13862 0.6054 2.5757 0 0 0.10966 0.39693 0.13862 0.6054 2.5757 0 0 0.15121-0.40074 0.76584 0.13862 23.938 0 0 0.57835 0.10966 0.76584 0.13862 23.938 0 0-0.38179-0.30995 0.13862 0.76584 66.062 0 0 0.38179-0.31376 0.13862 0.76584 66.062 0 0-0.56328 0.10585 0.13862 0.6054 2.5757 0 0-0.10966-0.40074z"
     fill="#2e3440"
     stroke-width="7.3154"
     id="path229" />
  <ellipse
     cx="8.5111"
     cy="24.369"
     rx="1.2842"
     ry="1.0522"
     fill="#2e3440"
     stroke-width=".35592"
     style="paint-order:fill markers stroke"
     id="ellipse231" />
  <ellipse
     cx="8.5146"
     cy="24.297"
     rx="1.2388"
     ry=".92715"
     fill="#7b88a1"
     stroke-width=".32815"
     style="paint-order:fill markers stroke"
     id="ellipse233" />
  <path
     d="m8.5407 23.599a0.13862 0.6054 2.5757 0 0-0.14748 0.40447 0.76584 0.13862 23.938 0 0-0.57835-0.10958 0.76584 0.13862 23.938 0 0 0.38179 0.31376 0.13862 0.76584 66.062 0 0-0.38179 0.30995 0.13862 0.76584 66.062 0 0 0.55948-0.10585 0.13862 0.6054 2.5757 0 0 0.10966 0.39693 0.13862 0.6054 2.5757 0 0 0.15121-0.40074 0.76584 0.13862 23.938 0 0 0.57835 0.10966 0.76584 0.13862 23.938 0 0-0.38179-0.30995 0.13862 0.76584 66.062 0 0 0.38179-0.31376 0.13862 0.76584 66.062 0 0-0.56328 0.10585 0.13862 0.6054 2.5757 0 0-0.10966-0.40074z"
     fill="#2e3440"
     stroke-width="7.3154"
     id="path235" />
  <ellipse
     cx="55.103"
     cy="24.369"
     rx="1.2842"
     ry="1.0522"
     fill="#2e3440"
     stroke-width=".35592"
     style="paint-order:fill markers stroke"
     id="ellipse237" />
  <ellipse
     cx="55.106"
     cy="24.297"
     rx="1.2388"
     ry=".92715"
     fill="#7b88a1"
     stroke-width=".32815"
     style="paint-order:fill markers stroke"
     id="ellipse239" />
  <path
     d="m55.132 23.599a0.13862 0.6054 2.5757 0 0-0.14748 0.40447 0.76584 0.13862 23.938 0 0-0.57835-0.10958 0.76584 0.13862 23.938 0 0 0.38179 0.31376 0.13862 0.76584 66.062 0 0-0.38179 0.30995 0.13862 0.76584 66.062 0 0 0.55948-0.10585 0.13862 0.6054 2.5757 0 0 0.10966 0.39693 0.13862 0.6054 2.5757 0 0 0.15121-0.40074 0.76584 0.13862 23.938 0 0 0.57835 0.10966 0.76584 0.13862 23.938 0 0-0.38179-0.30995 0.13862 0.76584 66.062 0 0 0.38179-0.31376 0.13862 0.76584 66.062 0 0-0.56328 0.10585 0.13862 0.6054 2.5757 0 0-0.10966-0.40074z"
     fill="#2e3440"
     stroke-width="7.3154"
     id="path241" />
  <ellipse
     cx="11.291"
     cy="5.1764"
     rx="1.2842"
     ry="1.0522"
     fill="#2e3440"
     stroke-width=".35592"
     style="paint-order:fill markers stroke"
     id="ellipse243" />
  <ellipse
     cx="11.294"
     cy="5.1042"
     rx="1.2388"
     ry=".92715"
     fill="#7b88a1"
     stroke-width=".32815"
     style="paint-order:fill markers stroke"
     id="ellipse245" />
  <path
     d="m11.321 4.406a0.13862 0.6054 2.5757 0 0-0.14748 0.40447 0.76584 0.13862 23.938 0 0-0.57835-0.10958 0.76584 0.13862 23.938 0 0 0.38179 0.31376 0.13862 0.76584 66.062 0 0-0.38179 0.30995 0.13862 0.76584 66.062 0 0 0.55948-0.10585 0.13862 0.6054 2.5757 0 0 0.10966 0.39693 0.13862 0.6054 2.5757 0 0 0.15121-0.40074 0.76584 0.13862 23.938 0 0 0.57835 0.10966 0.76584 0.13862 23.938 0 0-0.38179-0.30995 0.13862 0.76584 66.062 0 0 0.38179-0.31376 0.13862 0.76584 66.062 0 0-0.56328 0.10585 0.13862 0.6054 2.5757 0 0-0.10966-0.40073z"
     fill="#2e3440"
     stroke-width="7.3154"
     id="path247" />
  <ellipse
     cx="53.076"
     cy="5.1764"
     rx="1.2842"
     ry="1.0522"
     fill="#2e3440"
     stroke-width=".35592"
     style="paint-order:fill markers stroke"
     id="ellipse249" />
  <ellipse
     cx="53.08"
     cy="5.1042"
     rx="1.2388"
     ry=".92715"
     fill="#7b88a1"
     stroke-width=".32815"
     style="paint-order:fill markers stroke"
     id="ellipse251" />
  <path
     d="m53.106 4.406a0.13862 0.6054 2.5757 0 0-0.14748 0.40447 0.76584 0.13862 23.938 0 0-0.57835-0.10958 0.76584 0.13862 23.938 0 0 0.38179 0.31376 0.13862 0.76584 66.062 0 0-0.38179 0.30995 0.13862 0.76584 66.062 0 0 0.55948-0.10585 0.13862 0.6054 2.5757 0 0 0.10966 0.39693 0.13862 0.6054 2.5757 0 0 0.15121-0.40074 0.76584 0.13862 23.938 0 0 0.57835 0.10966 0.76584 0.13862 23.938 0 0-0.38179-0.30995 0.13862 0.76584 66.062 0 0 0.38179-0.31376 0.13862 0.76584 66.062 0 0-0.56328 0.10585 0.13862 0.6054 2.5757 0 0-0.10966-0.40073z"
     fill="#2e3440"
     stroke-width="7.3154"
     id="path253" />
</svg>
