<svg viewBox="0 0 22 22" xmlns="http://www.w3.org/2000/svg">
    <style type="text/css" id="current-color-scheme">.ColorScheme-Text {color:#fcfcfc;}.ColorScheme-NegativeText {color:#da4453;}
    </style>
    <path d="m 5.1210938,3 2,2 H 8 v 0.8789062 l 1,1 V 5 h 4 v 3 h -2.878906 l 1,1 h 3.171875 l 1,1 H 16 v 3 h -0.707031 l -0.08594,0.08594 0.707031,0.707031 L 16,13.707031 v 0.171875 l 1,1 V 5.2929688 L 14.707031,3 Z M 14,5 h 1 c 0.554,0 1,0.446 1,1 V 9.2929688 L 14.707031,8 H 14 Z M 5,7.1210938 V 17 c 0,0 0,2 2,2 2,0 9.878906,0 9.878906,0 l -1.24414,-1.244141 C 15.46112,17.901522 15.245416,18 15,18 h -1 v -1.878906 l -1,-1 V 18 H 9 v -3 h 3.878906 l -1,-1 H 7.7070312 l -1,-1 H 6 V 10 H 6.7070312 L 7.2929688,9.4140625 6.5859375,8.7070312 6,9.2929688 V 8.1210938 Z M 6,13.707031 7.2929688,15 H 8 v 3 H 7 C 6.446,18 6,17.554 6,17 Z" class="ColorScheme-Text" fill="currentColor"/>
    <path d="m3.5 2.7929688-.7070312.7070312 15.353516 15.353516.353516.353515.707031-.707031-.353515-.353516-15-15z" class="ColorScheme-NegativeText" fill="currentColor" stroke-linecap="square" stroke-miterlimit="0"/>
</svg>
