<svg xmlns="http://www.w3.org/2000/svg" height="22" width="22">
    <defs id="defs1">
        <style type="text/css" id="current-color-scheme">.ColorScheme-Text {color:#fcfcfc;}</style>
    </defs>
    <path style="fill:currentColor;fill-opacity:1;stroke:none" class="ColorScheme-Text" d="m 3,8 v 6 c 0,1 1,1 1,1 h 8 L 10,7 H 4 C 4,7 3,7 3,8 Z M 1,8 v 6 c 0,3 3,3 3,3 0,0 10,0 13,0 3,0 3,-3 3,-3 v -1 h 0.5 c 0.277,0 0.5,-0.223 0.5,-0.5 v -3 C 21,9.223 20.777,9 20.5,9 H 20 V 8 C 20,8 20,5 17,5 14,5 4,5 4,5 4,5 1,5 1,8 Z M 2,8 C 2,6 4,6 4,6 c 0,0 11,0 13,0 2,0 2,2 2,2 v 6 c 0,0 0,2 -2,2 -2,0 -13,0 -13,0 0,0 -2,0 -2,-2 z" fill-rule="evenodd"/></svg>
