<svg xmlns="http://www.w3.org/2000/svg" viewBox="0 0 22 22">
  <defs id="defs3051">
    <style type="text/css" id="current-color-scheme">.ColorScheme-Text {color:#fcfcfc;}</style>
  </defs>
 <path style="fill:currentColor;fill-opacity:1;stroke:none"
       d="m 3,7 c 0,3 0,9 0,9 l 3,4 v -3 -1 h 10 c 0,0 3,0 3,-3 0,-3 0,-3 0,-6 C 19,4 16,4 16,4 H 6 C 6,4 3,4 3,7 Z M 4,7 C 4,5 6,5 6,5 l 10,0 c 0,0 2,0 2,2.0472906 C 18,9.0945812 18,11 18,13 c 0,2 -2,2 -2,2 H 6 C 6,15 4,15 4,13 4,11 4,9 4,7 Z m 4,-1 -1,1 3,3 -3,3 1,1 3,-3 3,3 1,-1 -3,-3 3,-3 -1,-1 -3,3 z"
     class="ColorScheme-Text"
     />
</svg>
