<svg viewBox="0 0 22 22" xmlns="http://www.w3.org/2000/svg">
    <defs id="defs1">
        <style type="text/css" id="current-color-scheme">.ColorScheme-Text {color:#fcfcfc;}</style>
    </defs>
    <path style="fill:currentColor;fill-opacity:1;stroke:none"
        d="M 16 12 A 3 1 0 0 0 13 13 L 13 18 A 3 1 0 0 0 16 19 A 3 1 0 0 0 19 18 L 19 13 A 3 1 0 0 0 16 12 z M 15.9 13 A 3 1 0 0 1 16 13 A 3 1 0 0 1 18 13.257812 L 18 13.74 A 3 1 0 0 1 16 14 A 3 1 0 0 1 14 13.7 L 14 13.2 A 3 1 0 0 1 15.9 13 z M 14 14.74 A 3 1 0 0 0 16 15 A 3 1 0 0 0 18 14.74 L 18 15.74 A 3 1 0 0 1 16 16 A 3 1 0 0 1 14 15.7 L 14 14.74 z M 14 16.74 A 3 1 0 0 0 16 17 A 3 1 0 0 0 18 16.74 L 18 17.74 A 3 1 0 0 1 16 18 A 3 1 0 0 1 14 17.7 L 14 16.74 z "
        class="ColorScheme-Text"/>
    <path style="fill:currentColor;fill-opacity:1;stroke:none"
        d="m 4,6 c 0,3 0,7 0,10 0,3 3,3 3,3 h 5 V 16 H 7 L 5,14 V 11.9 C 5.6,11.7 6,11.1 6,10.5 6,9.9 5.6,9.3 5,9.1 V 7 C 5,5.3 6.3,4 8,4 h 4 c 1.66,0 3,1.34 3,3 v 2.1 c -0.6,0.2 -1,0.8 -1,1.4 6.76e-4,0.2 0,0.3 0.1,0.5 H 16 C 16,11 16,9 16,6 16,3 13,3 13,3 H 7 C 7,3 4,3 4,6 Z m 2,11 h 5 v 1 H 6 Z"
        class="ColorScheme-Text"/>
</svg>
