<?xml version="1.0" encoding="UTF-8"?>
<svg xmlns="http://www.w3.org/2000/svg" xmlns:xlink="http://www.w3.org/1999/xlink" xmlns:cc="http://creativecommons.org/ns#" xmlns:dc="http://purl.org/dc/elements/1.1/" xmlns:rdf="http://www.w3.org/1999/02/22-rdf-syntax-ns#" xmlns:inkscape="http://www.inkscape.org/namespaces/inkscape" xmlns:sodipodi="http://sodipodi.sourceforge.net/DTD/sodipodi-0.dtd" width="22" height="22">
    <style type="text/css" id="current-color-scheme">
      .ColorScheme-Text {
        color:#fcfcfc;
      }
      .ColorScheme-Background {
        color:#eff0f1;
      }
      .ColorScheme-Highlight {
        color:#3daee9;
      }
      .ColorScheme-ViewText {
        color:#31363b;
      }
      .ColorScheme-ViewBackground {
        color:#fcfcfc;
      }
      .ColorScheme-ViewHover {
        color:#93cee9;
      }
      .ColorScheme-ViewFocus{
        color:#3daee9;
      }
      .ColorScheme-ButtonText {
        color:#31363b;
      }
      .ColorScheme-ButtonBackground {
        color:#eff0f1;
      }
      .ColorScheme-ButtonHover {
        color:#93cee9;
      }
      .ColorScheme-ButtonFocus{
        color:#3daee9;
      }
      </style>
    <g transform="translate(110,8e-6) translate(-110,-8e-06)" id="fcitx-rime">
    <path class="ColorScheme-Text" style="fill:currentColor;fill-opacity:1;stroke:none" d="m 113,18 c 0,3 0,7 0,10 0,3 3,3 3,3 l 10,0 c 0,0 3,0 3,-3 0,-3 0,-7 0,-10 0,-3 -3,-3 -3,-3 h -10 c 0,0 -3,0 -3,3 z m 1,0 c 0,-2 2,-2 2,-2 h 10 c 0,0 2,0 2,2 0,2 0,8 0,10 0,2 -2,2 -2,2 h -10 c 0,0 -2,0 -2,-2 0,-2 0,-8 0,-10 z m 6,-1 v 6.982422 c -1.81096,-0.08165 -2.72052,-0.606587 -3.26172,-1.492188 C 116.14843,21.525025 116,19.979167 116,18 h -1 c 0,2.020833 0.10157,3.724975 0.88672,5.009766 0.72658,1.188957 2.06293,1.873963 4.11328,1.970703 V 28 h -5 v 1 h 11 v -1 h -5 v -3.019531 c 2.05035,-0.09674 3.3867,-0.781746 4.11328,-1.970703 C 125.89843,21.724975 126,20.020833 126,18 h -1 c 0,1.979167 -0.14843,3.525025 -0.73828,4.490234 -0.5412,0.885601 -1.45076,1.410542 -3.26172,1.492188 V 17 Z" transform="translate(-110,-12)" id="path4365"/>
    <rect style="fill:none;fill-opacity:1;stroke:none;stroke-linejoin:miter" id="rect4367" width="22" height="22" x="0" y="0"/>
  </g>
</svg>
