<svg xmlns="http://www.w3.org/2000/svg" viewBox="0 0 22 22">
  <defs id="defs3051">
    <style type="text/css" id="current-color-scheme">.ColorScheme-Text {color:#fcfcfc;}</style>
  </defs>
    <path
       style="fill:currentColor;fill-opacity:1;stroke:none" 
       d="m 3,6 c 0,3 0,7 0,10 0,3 3,3 3,3 h 10 c 0,0 3,0 3,-3 C 19,13 19,9 19,6 19,3 16,3 16,3 H 6 C 6,3 3,3 3,6 Z M 4,6 C 4,4 6,4 6,4 h 10 c 0,0 2,0 2,2 0,2 0,8 0,10 0,2 -2,2 -2,2 H 6 C 6,18 4,18 4,16 4,14 4,8 4,6 Z M 6,6 V 7 H 9.8769531 L 9.2109375,10 H 7 v 1 H 8.9882812 L 8.0996094,15 H 6 v 1 H 16 V 15 H 14.5 V 10 H 10.236328 L 10.902344,7 H 15 V 6 Z m 4.013672,5 H 13.5 v 4 H 9.1230469 Z"
     class="ColorScheme-Text"
        />
</svg>
