<svg xmlns="http://www.w3.org/2000/svg" viewBox="0 0 22 22">
  <defs id="defs3051">
    <style type="text/css" id="current-color-scheme">.ColorScheme-Text {color:#fcfcfc;}</style>
  </defs>
    <path
       style="fill:currentColor;fill-opacity:1;stroke:none" 
       d="m 3,6 c 0,3 0,7 0,10 0,3 3,3 3,3 l 10,0 c 0,0 3,0 3,-3 C 19,13 19,9 19,6 19,3 16,3.0019531 16,3.0019531 H 6 C 6,3.0019531 3,3 3,6 Z M 4,6 C 4,4 6,4 6,4 h 10 c 0,0 2,0 2,2 0,2 0,8 0,10 0,2 -2,2 -2,2 H 6 C 6,18 4,18 4,16 4,14 4,8 4,6 Z M 10.900391,4.7011719 10.099609,5.3007812 11.375,7 H 10 v 1 h 1 v 3 H 9.1171875 L 9.2226562,10.947266 8.7773438,10.052734 8,10.441406 V 8 H 9 V 7 H 8 V 5 H 7 V 7 H 5 v 1 h 2 v 2.941406 L 4.7773438,12.052734 5.2226562,12.947266 7,12.058594 V 16 H 5 v 1 h 3 v -5.441406 l 1,-0.5 V 12 h 1.960938 c -0.08868,0.895032 -0.391653,1.61152 -0.792969,2.306641 -0.4973153,0.8613 -1.5097659,1.830078 -1.5097659,1.830078 l 0.6835938,0.728515 c 0,0 1.0706891,-0.983593 1.6914061,-2.058593 C 11.481893,14.02943 11.862844,13.118701 11.958984,12 H 14 v 5 h 1 v -5 h 2 V 11 H 15 V 8 h 2 V 7 h -2.375 l 1.275391,-1.6992188 -0.800782,-0.5996093 -1.5,2 L 13.998047,7 H 12.001953 L 12.400391,6.7011719 Z M 12,8 h 2 v 3 h -2 z"
       class="ColorScheme-Text"
        />
</svg>
