<svg xmlns="http://www.w3.org/2000/svg" viewBox="0 0 22 22">
  <defs id="defs3051">
    <style type="text/css" id="current-color-scheme">.ColorScheme-Text {color:#fcfcfc;}</style>
  </defs>
    <path
       style="fill:currentColor;fill-opacity:1;stroke:none" 
       d="m 3,6 v 9.996375 C 3,15.996375 3,19 6,19 c 3,0 7,0 10,0 3,0 3,-3 3,-3 V 6 C 19,6 19,3 16,3 13,3 9,3 6,3 3,3 3,6 3,6 Z M 5,5 h 5.548828 l -0.05078,0.5488281 c 0,0 -0.328139,3.521106 -1.2246095,6.1289059 0.5826734,0.8731 1.1390045,1.775219 1.8378905,3.011719 l -0.86914,0.490235 c -0.5388845,-0.953401 -0.9847126,-1.6884 -1.4218755,-2.375 -1.3944413,3.1253 -3.3652344,4.488281 -3.3652344,4.488281 L 4.8984375,16.460938 c 0,0 1.9703908,-1.31395 3.2636719,-4.65625 C 7.3964558,10.698287 6.5268081,9.5832533 5.109375,7.8144531 L 5.890625,7.1875 C 7.0718949,8.6617002 7.8640436,9.679778 8.5585938,10.642578 9.1095504,8.7368779 9.3567404,6.6434001 9.4277344,6 H 5 Z m 6,0 h 6 v 0.5 c 0,2.1466003 -0.832862,4.968103 -1.707031,6.908203 -0.110964,0.2463 -0.241608,0.465959 -0.367188,0.693359 0.62377,1.083401 1.46019,2.113469 2.84375,3.230469 l -0.626953,0.779297 c -1.281085,-1.0343 -2.147062,-2.040853 -2.802734,-3.064453 -1.393199,1.9869 -3.103516,3.037109 -3.103516,3.037109 L 10.71875,16.228516 c 0,0 1.7803,-1.100778 3.068359,-3.142578 C 13.449417,12.437537 13.165672,11.77865 12.900391,11.09375 12.142306,9.1367498 11.691778,6.5916001 11.589844,6 H 11 Z m 1.607422,1 c 0.139266,0.7654001 0.568348,3.0333217 1.226562,4.732422 0.173508,0.4479 0.351003,0.86735 0.539063,1.28125 0.0025,-0.006 0.0053,-0.0056 0.0078,-0.01563 0.756947,-1.68 1.434346,-4.1449468 1.542969,-5.998047 z"
       class="ColorScheme-Text"
        />
</svg>
