<svg xmlns="http://www.w3.org/2000/svg" height="22" width="22">
    <defs id="defs3051">
        <style type="text/css" id="current-color-scheme">.ColorScheme-NegativeText {color:#da4453;}</style>
    </defs>
    <path style="fill:currentColor;fill-opacity:1;stroke:none" class="ColorScheme-NegativeText" d="m 13,3 -1,1 v 2 h 7 C 19,6 19,3 16,3 Z M 9,7 7,9 v 1 h 8 V 7 Z m 7,0 v 3 h 3 V 7 Z M 5,11 3,13 v 1 h 8 v -3 z m -2,4 c 0,0 0,3 3,3 v -3 z m 4,0 v 3 h 4 v -3 z m 6,-4 c -0.554,0 -1,0.446 -1,1 v 6 c 0,0.554 0.446,1 1,1 h 6 c 0.554,0 1,-0.446 1,-1 v -6 c 0,-0.554 -0.446,-1 -1,-1 z"/>
    <path d="M14 12l-1 1 2 2-2 2 1 1 2-2 2 2 1-1-2-2 2-2-1-1-2 2z" fill="#fff"/>
</svg>
