<?xml version="1.0" encoding="UTF-8"?>
<svg xmlns="http://www.w3.org/2000/svg" xmlns:xlink="http://www.w3.org/1999/xlink" xmlns:cc="http://creativecommons.org/ns#" xmlns:dc="http://purl.org/dc/elements/1.1/" xmlns:rdf="http://www.w3.org/1999/02/22-rdf-syntax-ns#" xmlns:inkscape="http://www.inkscape.org/namespaces/inkscape" xmlns:sodipodi="http://sodipodi.sourceforge.net/DTD/sodipodi-0.dtd" width="22" height="22">
    <style type="text/css" id="current-color-scheme">
      .ColorScheme-Text {
        color:#fcfcfc;
      }
      .ColorScheme-Background {
        color:#eff0f1;
      }
      .ColorScheme-Highlight {
        color:#3daee9;
      }
      .ColorScheme-ViewText {
        color:#31363b;
      }
      .ColorScheme-ViewBackground {
        color:#fcfcfc;
      }
      .ColorScheme-ViewHover {
        color:#93cee9;
      }
      .ColorScheme-ViewFocus{
        color:#3daee9;
      }
      .ColorScheme-ButtonText {
        color:#31363b;
      }
      .ColorScheme-ButtonBackground {
        color:#eff0f1;
      }
      .ColorScheme-ButtonHover {
        color:#93cee9;
      }
      .ColorScheme-ButtonFocus{
        color:#3daee9;
      }
      </style>
    <g transform="translate(88,22.000008) translate(-88,-22)" id="ime-libpinyin-chewing">
    <path id="path4360" transform="translate(-88,-34)" d="m 94,36.999992 c -3,0 -3,3 -3,3 v 10 c 0,0 0,3 3,3 3,0 7,0 10,0 3,0 3,-3 3,-3 v -10 c 0,0 0,-3 -3,-3 -3,0 -7,0 -10,0 z M 93,39 h 6 v 1 h -2 v 3 H 98.5 99 L 98.599609,42.699219 C 98.599609,42.699219 100,40.75 100,39 h 1 c 0,0.708749 -0.16537,1.388658 -0.38281,2 H 102 v -2 h 1 v 2 h 2 v 1 h -2 v 2 h 2 v 1 h -5 v -1 h 2 v -2 h -1.80273 c -0.398628,0.789612 -0.796879,1.300781 -0.796879,1.300781 L 99,43 v 8 H 98.5 94 93 v -8 h 1 v -3 h -1 z m 2,1 v 3 h 1 v -3 z m 0,4 v 3 h -1 v 1 h 3 v 1 h -3 v 1 h 4 v -6 h -1 v 3 h -1 v -3 z m 5,2 h 5 v 5 h -5 v -4.5 z m 1,1 v 3 h 3 v -3 z" style="fill:currentColor;fill-opacity:1;stroke:none" class="ColorScheme-Text"/>
    <rect style="fill:none;fill-opacity:1;stroke:none;stroke-linejoin:miter" id="rect4353" width="22" height="22" x="0" y="0"/>
  </g>
</svg>
