<?xml version="1.0" encoding="UTF-8" standalone="no"?>
<svg
  viewBox="0 0 22 22"
  version="1.1"
  id="svg1"
  xmlns="http://www.w3.org/2000/svg"
  xmlns:svg="http://www.w3.org/2000/svg">
 <defs
   id="defs3051">
  <style
    type="text/css"
    id="current-color-scheme">
      .ColorScheme-Text {
        color:#fcfcfc;
      }
      </style>
 </defs>
 <path
   style="fill:currentColor;fill-opacity:1;stroke:none"
   d="m 6,5 v 12 c 0,0 0,2 2,2 2,0 4,0 6,0 2,0 2,-2 2,-2 V 5 C 16,5 16,3 14,3 12,3 10.038765,3 8.058147,3 6,3 6,5 6,5 Z M 9,4 h 4 V 5 H 9 Z M 7,7 c 0,0 0,-1 1,-1 1,0 5,0 6,0 1,0 1,1 1,1 v 4.5 l -1.107422,-0.277344 c -0.0672,-0.2522 -0.166996,-0.494403 -0.296875,-0.720703 L 14.181641,9.5253906 13.474609,8.8183594 12.498047,9.4042969 C 12.271331,9.2728969 12.028379,9.1718156 11.775391,9.1035156 L 11.5,8 h -1 l -0.277344,1.1074219 c -0.2521217,0.067 -0.4944009,0.166975 -0.7207029,0.296875 L 8.5253906,8.8183594 7.8183594,9.5253906 8.4042969,10.501953 c -0.131391,0.2267 -0.2325113,0.469656 -0.3007813,0.722656 L 7,11.5 Z m 4.089844,3.001953 c 0.980147,0.04425 1.783462,0.792964 1.896484,1.767578 l -0.002,0.482422 c -0.133056,1.050004 -1.061131,1.814553 -2.117187,1.744141 C 9.8117786,13.925873 8.9935345,13.046004 9,11.988281 c 0.00668,-1.057191 0.8349942,-1.92658 1.890625,-1.984375 0.06633,-0.00396 0.132821,-0.00461 0.199219,-0.002 z M 7,12.5 8.1074219,12.777344 c 0.0672,0.2522 0.166996,0.494403 0.296875,0.720703 l -0.5859375,0.976562 0.7070312,0.707032 0.9765625,-0.585938 c 0.226716,0.1314 0.4696683,0.232481 0.7226559,0.300781 L 10.5,16 h 1 l 0.277344,-1.107422 c 0.252122,-0.067 0.494401,-0.166975 0.720703,-0.296875 l 0.976562,0.585938 0.707032,-0.707032 -0.585938,-0.976562 c 0.131391,-0.2267 0.232511,-0.469656 0.300781,-0.722656 L 15,12.5 V 17 c 0,0 0,1 -1,1 -1,0 -5,0 -6,0 -1,0 -1,-1 -1,-1 z"
   class="ColorScheme-Text"
   id="path1" />
</svg>
