<?xml version="1.0" encoding="UTF-8"?>
<svg xmlns="http://www.w3.org/2000/svg" xmlns:xlink="http://www.w3.org/1999/xlink" xmlns:cc="http://creativecommons.org/ns#" xmlns:dc="http://purl.org/dc/elements/1.1/" xmlns:rdf="http://www.w3.org/1999/02/22-rdf-syntax-ns#" xmlns:inkscape="http://www.inkscape.org/namespaces/inkscape" xmlns:sodipodi="http://sodipodi.sourceforge.net/DTD/sodipodi-0.dtd" width="22" height="22">
    <style type="text/css" id="current-color-scheme">
      .ColorScheme-Text {
        color:#fcfcfc;
      }
      .ColorScheme-Background {
        color:#eff0f1;
      }
      .ColorScheme-Highlight {
        color:#3daee9;
      }
      .ColorScheme-ViewText {
        color:#31363b;
      }
      .ColorScheme-ViewBackground {
        color:#fcfcfc;
      }
      .ColorScheme-ViewHover {
        color:#93cee9;
      }
      .ColorScheme-ViewFocus{
        color:#3daee9;
      }
      .ColorScheme-ButtonText {
        color:#31363b;
      }
      .ColorScheme-ButtonBackground {
        color:#eff0f1;
      }
      .ColorScheme-ButtonHover {
        color:#93cee9;
      }
      .ColorScheme-ButtonFocus{
        color:#3daee9;
      }
      </style>
    <g id="kpackagekit-important" transform="translate(-44,2.66454e-15)">
    <g id="g4216">
      <path style="fill:currentColor;fill-rule:evenodd;stroke:none;stroke-width:1px;stroke-linecap:butt;stroke-linejoin:miter;stroke-opacity:1" d="m 51,7 -3,3 v 6 c 0,0 0,3 3,3 3,0 5,0 8,0 3,0 3.099609,-3 3.099609,-3 l 0,-6 -3,-3 H 57 53.099609 Z m 0.3,1 h 3.7 3.7 l 2,2 H 49.3 Z m 1.7,3 h 4 v 5 l -1,-1 -1,1 -1,-1 -1,1 z" id="path4198" inkscape:connector-curvature="0" sodipodi:nodetypes="ccccccccccccccccccccccccc" class="ColorScheme-Text"/>
      <path style="fill:#fdbc4b;fill-opacity:1;fill-rule:evenodd;stroke:none;stroke-width:1px;stroke-linecap:butt;stroke-linejoin:miter;stroke-opacity:1" d="m 60,3 3,5 -6,0 z" id="path4202" inkscape:connector-curvature="0"/>
    </g>
    <rect y="-2.6645353e-15" x="44" height="22" width="22" id="rect4206" style="opacity:1;fill:none;fill-opacity:0.59905659;stroke:none"/>
  </g>
</svg>
