<svg id="svg11" version="1.1" viewBox="0 0 22 22" xmlns="http://www.w3.org/2000/svg">
    <style type="text/css" id="current-color-scheme">
        .ColorScheme-Text {color:#fcfcfc;}</style>
    <path id="rect3983" d="m 11.121244,4.4142134 c 0,0 -2.1212443,-2.1212447 -4.2424886,-4e-7 -0.7848937,0.7848937 -1.6059349,1.6059349 -2.4645419,2.4645419 -2.1212449,2.1212449 -3e-7,4.2424891 -3e-7,4.2424891 l 6.4645418,6.464542 c 0,0 2.121245,2.121245 4.24249,0 2.121244,-2.121245 0.343297,-0.343298 2.464541,-2.464542 2.121245,-2.121244 0,-4.242489 0,-4.242489 z M 12,3.0019531 c -0.27005,0.0085 -0.539381,0.03263 -0.806641,0.072266 l 0.933594,0.9335937 c 2.086776,0.053187 3.995928,1.1871387 5.041016,2.9941406 H 15.998047 15 V 7.2929688 8 h 0.707031 0.291016 1.640625 0.359375 0.699219 0.300781 L 19,4 H 18 V 6.4257812 C 16.74166,4.3083788 14.463082,3.0081356 12,3.0019531 Z m -1.585787,2.1192912 6.464542,6.4645417 c 0,0 1.414214,1.414214 10e-7,2.828427 -1.414213,1.414214 -1.050328,1.050329 -2.464542,2.464542 -1.414214,1.414214 -2.828428,0 -2.828428,0 L 5.1212444,10.414213 c 0,0 -1.4142133,-1.414213 5e-7,-2.8284267 C 5.865035,6.8419962 6.772277,5.9347542 7.5857868,5.1212444 9,3.7070312 10.414213,5.1212443 10.414213,5.1212443 Z M 3.0019531,14 3,18 h 1 v -2.425781 c 1.2583398,2.117403 3.5369179,3.417646 6,3.423828 0.27005,-0.0085 0.539381,-0.03263 0.806641,-0.07227 L 9.8730469,17.992188 C 7.7862705,17.939001 5.8771189,16.805049 4.8320312,14.998047 h 1.1699219 1 V 14.707031 14 H 6.2929688 6.0019531 4.3613281 4.0019531 3.3027344 Z" class="ColorScheme-Text" fill="currentColor" stroke-linecap="square" style="paint-order:markers fill stroke"/>
</svg>
