<svg xmlns="http://www.w3.org/2000/svg" viewBox="0 0 22 22">
  <defs id="defs3051">
    <style type="text/css" id="current-color-scheme">.ColorScheme-Text {color:#fcfcfc;}</style>
  </defs>
  <path
     d="M 18.767578,14.013672 C 17.792964,14.126694 17.044251,14.930009 17,15.910156 c -6.73e-4,0.02994 -6.73e-4,0.0599 0,0.08984 l 1,0 C 17.999477,15.49265 18.378963,15.06531 18.882812,15.005855 18.920882,14.996559 18.960942,14.9967 19,15 c 0.507347,-5.23e-4 0.934687,0.394585 0.994141,0.898438 -0.01833,1.179783 -0.896224,1.236706 -1.992188,1.322265 0,0 -0.002,1.690325 -0.002,1.792969 l 1,0 L 19,18 l 0.002,0 0.230469,0 c 0.97452,-0.113022 1.72328,-0.916337 1.767531,-1.896484 -0.01062,-0.105074 -0.0084,-0.195751 -0.01367,-0.320313 -0.113022,-0.974614 -0.916337,-1.723327 -1.896484,-1.767578 -0.106474,-9.03e-4 -0.212743,-0.0013 -0.322266,-0.002 z M 18.001953,20 l 0,1 1,0 0,-1 -1,0 z"
     style="fill:#fdbc4b;fill-opacity:1;stroke:none" />
    <path
       style="fill:currentColor"
       d="m 2,2 v 18 h 1 v -3 h 4 v 1 h 8 v -1 h 1 V 16 H 5 C 5,16 3,16 3,14 3,12 3,9 3,7 3,5 5,5 5,5 H 16.999495 C 16.999495,5 19,5 19,7 c 0,2 0,6 0,6 h 1 c 0,0 0,-3 0,-6 C 20,4 17,4 17,4 H 3 V 2 Z M 12.5,6 C 11.149586,6.0015725 9.9205451,6.7798894 9.3417969,8 H 6 v 7 h 7 V 12.958984 C 14.720082,12.710713 15.997459,11.237905 16,9.5 16,7.5670034 14.432997,6 12.5,6 Z m -0.06445,1 c 0.02148,-2.769e-4 0.04297,-2.769e-4 0.06445,0 1.380712,0 2.5,1.1192881 2.5,2.5 -0.002,1.18641 -0.837558,2.208031 -2,2.445312 V 8 H 10.503906 C 10.961439,7.3893498 11.672798,7.0210826 12.435547,7 Z M 7,9 H 9.0390625 C 9.014102,9.1655181 9.0010477,9.3326137 9,9.5 c 0.00157,1.738647 1.279185,3.21256 3,3.460938 V 14 H 7 Z m 3.050781,0 H 12 v 2.949219 C 10.836122,11.711643 10.000129,10.687878 10,9.5 c 8.9e-5,-0.1679493 0.0171,-0.3354622 0.05078,-0.5 z"
          class="ColorScheme-Text"/>
</svg>
