<?xml version="1.0" encoding="UTF-8" standalone="no"?>
<svg
   height="32"
   width="32"
   version="1.1"
   id="svg16"
   sodipodi:docname="preferences-desktop-cryptography.svg"
   inkscape:version="1.3.2 (091e20ef0f, 2023-11-25)"
   xmlns:inkscape="http://www.inkscape.org/namespaces/inkscape"
   xmlns:sodipodi="http://sodipodi.sourceforge.net/DTD/sodipodi-0.dtd"
   xmlns="http://www.w3.org/2000/svg"
   xmlns:svg="http://www.w3.org/2000/svg">
  <defs
     id="defs16" />
  <sodipodi:namedview
     id="namedview16"
     pagecolor="#ffffff"
     bordercolor="#999999"
     borderopacity="1"
     inkscape:showpageshadow="2"
     inkscape:pageopacity="0"
     inkscape:pagecheckerboard="0"
     inkscape:deskcolor="#d1d1d1"
     showgrid="true"
     inkscape:zoom="23.875"
     inkscape:cx="16"
     inkscape:cy="16"
     inkscape:window-width="1920"
     inkscape:window-height="996"
     inkscape:window-x="0"
     inkscape:window-y="0"
     inkscape:window-maximized="1"
     inkscape:current-layer="svg16">
    <inkscape:grid
       id="grid16"
       units="px"
       originx="0"
       originy="0"
       spacingx="1"
       spacingy="1"
       empcolor="#0099e5"
       empopacity="0.30196078"
       color="#0099e5"
       opacity="0.14901961"
       empspacing="5"
       dotted="false"
       gridanglex="30"
       gridanglez="30"
       visible="true" />
  </sodipodi:namedview>
  <linearGradient
     id="a"
     gradientTransform="matrix(.54545384 0 0 .53846154 177.71482 249.75292)"
     gradientUnits="userSpaceOnUse"
     x1="386.57101"
     x2="386.87817"
     y1="549.79797"
     y2="502.8541">
    <stop
       offset="0"
       stop-color="#7f8c8d"
       id="stop1" />
    <stop
       offset="1"
       stop-color="#afb0b3"
       id="stop2" />
  </linearGradient>
  <linearGradient
     id="b"
     gradientUnits="userSpaceOnUse"
     x1="400.57144"
     x2="400.57144"
     y1="522.79797"
     y2="535.79797">
    <stop
       offset="0"
       stop-color="#da4453"
       id="stop3" />
    <stop
       offset="1"
       stop-color="#c72737"
       id="stop4" />
  </linearGradient>
  <linearGradient
     id="c"
     gradientUnits="userSpaceOnUse"
     x1="12"
     x2="26"
     y1="11"
     y2="25">
    <stop
       offset="0"
       stop-color="#292c2f"
       id="stop5" />
    <stop
       offset="1"
       stop-color="#292c2f"
       stop-opacity=".137755"
       id="stop6" />
  </linearGradient>
  <linearGradient
     id="d"
     gradientTransform="matrix(.55555494 0 0 .54843315 382.79368 514.4732)"
     gradientUnits="userSpaceOnUse"
     x1="12"
     x2="12"
     y1="48"
     y2="10">
    <stop
       offset="0"
       stop-color="#eef1f2"
       id="stop7" />
    <stop
       offset="1"
       stop-color="#f9fafb"
       id="stop8" />
  </linearGradient>
  <g
     transform="translate(-384.57143 -515.798)"
     id="g16">
    <path
       d="m 388.57146,519.798 c -0.0215,-0.98994 0.96359,-2.01958 2.00597,-2 h 19.994 c 1.03078,0.0395 1.94436,1.05069 1.99999,2 v 26 h -23.99996 z"
       fill="url(#a)"
       stroke-width="0.541946"
       id="path8"
       sodipodi:nodetypes="ccccccc"
       style="fill:url(#a)" />
    <path
       d="m409.57143 542.798h2.99999v3h-2.99999zm-20.99997 0h2.99997v3h-2.99997z"
       fill="#292c2f"
       opacity=".3"
       stroke-width=".522233"
       id="path9" />
    <path
       d="m391.57145 542.798h17.99998v3h-17.99998z"
       fill="#292c2e"
       stroke-width=".984823"
       id="path10" />
    <path
       d="m393.57143 543.798h9v1h-9zm10 0h4v1h-4z"
       fill="#f6b44d"
       stroke-width="1.006395"
       id="path11" />
    <path
       d="m395.57143 519.86245c-2.76142 0-5 2.20953-5 4.93555v5c.70597.62334 1.1102 1.56499 1.11133 2.5-.001.93463-.40565 1.87691-1.11133 2.5v3l3 3h14l3-3v-3c-.70568-.62309-1.11033-1.56537-1.11133-2.5.001-.93501.40536-1.87666 1.11133-2.5v-5c0-2.72602-2.23858-4.93555-5-4.93555z"
       fill="url(#d)"
       stroke-width=".551983"
       id="path12" />
    <path
       d="m16 7v.00195c-.79532-.0004-1.558264.3150332-2.121094.8769531-.55223.5519532-.867526 1.2974382-.878906 2.0781281.00055.0143.000953.028569.002.042969h-.002v3h-2v7l7 7h10v-9.2421302l-9.878906-9.8789638z"
       fill="url(#c)"
       opacity=".2"
       transform="translate(384.57143 515.798)"
       id="path13" />
    <path
       d="m388.57143 544.798h24v1h-24z"
       fill="#292c2f"
       opacity=".4"
       stroke-width=".738551"
       id="path14" />
    <path
       d="m400.57143 522.798c-1.662 0-3 1.338-3 3v3h-2v7h10v-7h-2v-3c0-1.662-1.338-3-3-3zm0 1c1.2465 0 2 .5458 2 2v3h-4v-3c0-1.4542.75351-2 2-2z"
       fill="url(#b)"
       id="path15" />
    <path
       d="m388.57143 542.798h3v3zm21 0h3v3h-3z"
       fill="#292c2f"
       opacity=".2"
       id="path16" />
  </g>
</svg>
