<?xml version="1.0" encoding="UTF-8" standalone="no"?>
<svg
  viewBox="0 0 32 32"
  version="1.1"
  id="svg1"
  xmlns="http://www.w3.org/2000/svg"
  xmlns:svg="http://www.w3.org/2000/svg">
 <defs
   id="defs3051">
  <style
    type="text/css"
    id="current-color-scheme">
      .ColorScheme-Text {
        color:#fcfcfc;
      }
      </style>
 </defs>
 <path
   style="fill:currentColor;fill-opacity:1;stroke:none"
   d="M 10,4 C 7,4 7,6 7,6 H 4 v 6 h 3 v 8 H 4 v 6 h 3 c 0,0 0,2 3,2 3,0 14,0 14,0 0,0 4,0 4,-4 C 28,20 28,12 28,8 28,4 24,4 24,4 24,4 13,4 10,4 Z M 8,7 c 0,0 0,-2 3,-2 3,0 1,0 1,0 v 22 c 0,0 2,0 -1,0 -3,0 -3,-2.006481 -3,-2.006481 z m 5,-2 h 11 c 0,0 3,0 3,3 0,3 0,13 0,16 0,3 -3,3 -3,3 H 13 Z"
   class="ColorScheme-Text"
   id="path1" />
</svg>
