<svg xmlns="http://www.w3.org/2000/svg" viewBox="0 0 32 32"><defs id="defs3051">
        <style type="text/css" id="current-color-scheme">.ColorScheme-NegativeText {color:#da4453;}</style>
    </defs>
    <g style="fill:currentColor;fill-opacity:1;stroke:none" class="ColorScheme-NegativeText"><path d="M 4,8.0580641 C 4,12.116128 4,20 4,24 c 0,4 4,4 4,4 h 16 c 0,0 4,0 4,-4 C 28,20 28,12 28,8 28,4 24,4 24,4 H 8 C 8,4 4,4 4,8.0580641 Z M 5,13 c 0,-3 3,-3 3,-3 h 16 c 0,0 3,0 3,3 0,3 0,8 0,11 0,3 -3,3 -3,3 H 8 C 8,27 5,27 5,24 5,21 5,16 5,13 Z"/><path d="M12 17h8v3h-8z"/></g></svg>
