<svg viewBox="0 0 32 32" xmlns="http://www.w3.org/2000/svg"><style type="text/css" id="current-color-scheme">.ColorScheme-Text{color:#fcfcfc;}</style><g style="fill:currentColor;fill-opacity:1;stroke:none" class="ColorScheme-Text"><path d="m 2,6 c 0,4 0,16 0,20 0,4 4,4 4,4 H 21 V 29 H 6 C 6,29 3,29 3,26 3,23 3,9.1651978 3,6.0825989 3,3 6,3 6,3 h 10 v 2 h 2 V 3 h 8 c 0,0 3,0 3,3 0,3 0,12 0,12 h 1 C 30,18 30,10 30,6 30,2 26,2 26,2 H 6 C 6,2 2,2 2,6 Z M 16,5 h -2 v 2 h 2 z m 0,2 v 2 h 2 V 7 Z m 0,2 h -2 v 2 h 2 z m 0,2 v 2 h 2 v -2 z m 0,2 h -2 v 2 2 h 2 2 v -2 h -2 z"/><path d="m25.5 17.996094-4.5 4.5.707031.707031 3.292969-3.292969v10.089844h1v-10.089844l3.292969 3.292969.707031-.707031z"/></g></svg>
