<?xml version="1.0" encoding="UTF-8" standalone="no"?>
<svg
   viewBox="0 0 32 32"
   version="1.1"
   id="svg1"
   sodipodi:docname="compass.svg"
   width="32"
   height="32"
   inkscape:version="1.3.2 (091e20ef0f, 2023-11-25)"
   xmlns:inkscape="http://www.inkscape.org/namespaces/inkscape"
   xmlns:sodipodi="http://sodipodi.sourceforge.net/DTD/sodipodi-0.dtd"
   xmlns="http://www.w3.org/2000/svg"
   xmlns:svg="http://www.w3.org/2000/svg">
  <sodipodi:namedview
     id="namedview1"
     pagecolor="#ffffff"
     bordercolor="#999999"
     borderopacity="1"
     inkscape:showpageshadow="2"
     inkscape:pageopacity="0"
     inkscape:pagecheckerboard="0"
     inkscape:deskcolor="#d1d1d1"
     inkscape:zoom="6.0078125"
     inkscape:cx="12.816645"
     inkscape:cy="-23.719116"
     inkscape:window-width="1920"
     inkscape:window-height="1001"
     inkscape:window-x="0"
     inkscape:window-y="0"
     inkscape:window-maximized="1"
     inkscape:current-layer="svg1" />
  <defs
     id="defs3051">
    <style
       type="text/css"
       id="current-color-scheme">
            .ColorScheme-Text {
                color:#fcfcfc;
            }
        </style>
  </defs>
  <g
     id="compass"
     transform="translate(32,9.9999997)">
    <path
       style="clip-rule:evenodd;fill:#ffffc1;fill-opacity:0;fill-rule:evenodd;stroke-width:1.00213;stroke-linejoin:round;stroke-miterlimit:1.41421"
       d="M -32,-9.9999997 V 22 H 0 V -9.9999997 Z"
       id="rect817"
       inkscape:connector-curvature="0" />
    <path
       d="m -24.7,14.82211 c 0,1.754972 3.879992,3.177624 8.666247,3.177624 4.786254,0 8.666246,-1.422652 8.666246,-3.177624 0,-1.262983 -2.009645,-2.353736 -4.920221,-2.86611 0.850624,0.335205 1.374944,0.783299 1.374944,1.277298 0,1.037013 -2.292735,1.87769 -5.120969,1.87769 -2.828234,0 -5.12097,-0.840677 -5.12097,-1.87769 0,-0.493999 0.524326,-0.942093 1.374944,-1.277298 C -22.690354,12.468374 -24.7,13.559127 -24.7,14.82211 Z"
       id="path4"
       style="fill:#d3dae3;fill-opacity:1;stroke-width:0.288873" />
    <path
       d="m -15.972393,12.775768 a 0.82690729,0.82690728 0 0 0 0.656104,-0.473087 l 4.674287,-9.3485019 a 6.2305204,6.2305203 0 0 0 -0.48332,-6.4738542 6.098727,6.0987269 0 0 0 -10.363488,6.3472772 l 4.760799,9.5211579 a 0.77259303,0.77259302 0 0 0 0.755618,0.427008 z m -3.380318,-12.81759166 a 3.3189591,3.3189591 0 1 1 3.318958,3.31895776 3.3226856,3.3226856 0 0 1 -3.318958,-3.31895776 z"
       id="path6"
       style="fill:#d3dae3;fill-opacity:1;stroke-width:0.288873" />
  </g>
</svg>
