<svg xmlns="http://www.w3.org/2000/svg" viewBox="0 0 32 32">
  <defs id="defs3051">
<style type="text/css" id="current-color-scheme">.ColorScheme-Text {color:#fcfcfc;}</style>
  </defs>
 <path style="fill:currentColor;fill-opacity:1;stroke:none" 
       d="M 8,5 C 8,5 4,5 4,8.9876221 4,12.975244 4,21 4,21 l 6,6 v -6 h 14 c 0,0 4,0 4,-4 0,-4 0,-4 0,-8 C 28,5 24,5 24,5 Z M 5,9 C 5,6 8,6 8,6 h 16 c 0,0 3,0 3,3 0,3 0,5 0,8 0,3 -3,3 -3,3 0,0 -13,0 -16,0 -3,0 -3,-3 -3,-3 0,0 0,-5 0,-8 z"
     class="ColorScheme-Text"
     />
</svg>
