<!DOCTYPE svg>
<svg viewBox="0 0 32 32" xmlns="http://www.w3.org/2000/svg" version="1.1">
    <defs>
        <style type="text/css" id="current-color-scheme">.ColorScheme-Text {color:#fcfcfc;}.ColorScheme-NegativeText {color:#da4453;}</style>
    </defs>
    <path style="fill:currentColor; fill-opacity:1; stroke:none" d="M 21,20.707 24.293,24 21,27.293 C 21.013,27.318 21.707,28 21.707,28 L 25,24.707 28.293,28 29,27.293 25.707,24 29,20.707 28.293,20 25,23.293 21.707,20 Z M 17,7 h 5 v 6 h 6 v 6 h 1 V 12 L 23,6 h -7 z m -1,21 c 4,0 4,0 4,0 v -1 c 0,0 -1,0 -4,0 -3,0 -3,-1 -3,-1 h -1 c 0,0 0,2 4,2 z" class="ColorScheme-NegativeText"/>
    <path style="fill:currentColor; fill-opacity:1; stroke:none" d="M 20,22 V 10 L 14,4 H 7 c 0,0 -4,0 -4,4 0,4 0,10 0,14 0,4 4,4 4,4 0,0 5,-0.01577 9,-0.01577 C 20,25.98423 20,22 20,22 Z M 4,22 C 4,19 4,11 4,8 4,5 7,5 7,5 h 6 v 6 h 6 v 11 c 0,0 0,3 -3,2.99895 C 13,24.9979 7,25 7,25 7,25 4,25 4,22 Z" class="ColorScheme-Text"/>
</svg>
