<!DOCTYPE svg>
<svg version="1.1" xmlns="http://www.w3.org/2000/svg" viewBox="0 0 32 32">
    <defs>
<style type="text/css" id="current-color-scheme">.ColorScheme-Text {color:#fcfcfc;}</style>
    </defs>
    <path class="ColorScheme-Text" style="fill:currentColor; fill-opacity:1; stroke:none" d="m 6,8 c 0,4 0,12 0,16 0,4 4,4 4,4 h 6 V 27 H 10 C 10,27 7,27 7,24 7,21 7,11 7,8 7,5 10,5 10,5 h 8 v 7 h 7 c 0,0 0,3.87575 0,7 0,3.12425 -3,3.5 -3,3.5 H 17.9141 L 21.707,18.707 21,18 l -4,4 -1,1 5,5 0.707,-0.707 L 17.9141,23.5 H 22 c 0,0 3.9999,0 3.9999,-4.5 0,-4.5 10e-5,-8 10e-5,-8 L 19,4 H 10 C 10,4 6,4 6,8 Z"/>
</svg>
