<!DOCTYPE svg>
<svg version="1.1" xmlns="http://www.w3.org/2000/svg" viewBox="0 0 32 32">
    <defs>
<style type="text/css" id="current-color-scheme">.ColorScheme-Text {color:#fcfcfc;}</style>
    </defs>
    <path class="ColorScheme-Text" style="fill:currentColor; fill-opacity:1; stroke:none" d="m 6,24 v -8 h 1 v 8 c 0,0 0,3 3,3 3,0 9,0 12,0 3,0 3,-3 3,-3 v -8 h 1 v 8 c 0,0 0,4 -4,4 -4,0 -8,0 -12,0 -4,0 -4,-4 -4,-4 z m 3,-9 v -2 h 2 v 2 z m 6,0 v -2 h 2 v 2 z m 6,0 v -2 h 2 v 2 z M 6,12 v -2 h 2 v 2 z m 6,0 v -2 h 2 v 2 z m 6,0 v -2 h 2 v 2 z m 6,0 v -2 h 2 v 2 z M 9,9 V 7 h 2 v 2 z m 6,0 V 7 h 2 v 2 z m 6,0 V 7 h 2 V 9 Z M 6,6 V 4 h 2 v 2 z m 6,0 V 4 h 2 v 2 z m 6,0 V 4 h 2 v 2 z m 6,0 V 4 h 2 v 2 z"/>
</svg>
