<!DOCTYPE svg>
<svg version="1.1" xmlns="http://www.w3.org/2000/svg" viewBox="0 0 32 32">
    <defs>
<style type="text/css" id="current-color-scheme">.ColorScheme-Text {color:#fcfcfc;}</style>
    </defs>
    <path class="ColorScheme-Text" style="fill:currentColor; fill-opacity:1; stroke:none" d="M 7,8 C 7,5 10,5 10,5 h 8 v 7 h 7 v 7 h 1 V 11 L 19,4 h -9 c 0,0 -4,0 -4,4 0,4 0,12 0,16 0,4 4,4 4,4 h 9 v -1 l -9,0 C 10,27 7,27 7,24 7,21 7,11 7,8 Z m 9.9961,14.5 v 1 h 8.0898 L 21.293,27.293 22,28 l 5,-5 -5,-5 -0.707,0.707 3.7929,3.793 z"/>
</svg>
