<svg xmlns="http://www.w3.org/2000/svg" viewBox="0 0 32 32">
  <defs
     id="defs3051">
<style type="text/css" id="current-color-scheme">.ColorScheme-Text {color:#fcfcfc;}</style>
  </defs>
  <path
     style="fill:currentColor;fill-opacity:1;stroke:none" 
     d="m 4,8 c 0,4 0,15 0,15 h 1 c 0,0 0,-5 0,-7 0,-2 2,-2 2,-2 l 3,0 3,-3 h 11 c 0,0 3,0 3,3 0,3 0,9 0,9 h 1 c 0,0 0,-8 0,-12 C 28,7 24,7 24,7 H 18 L 15,4 H 8 C 8,4 4,4 4,8 Z m 8,15 v 2 H 4 v 1 h 8 v 2 h 8 v -2 h 8 v -1 h -8 v -2 z m 4,1 c 0.828427,0 1.5,0.671573 1.5,1.5 0,0.828427 -0.671573,1.5 -1.5,1.5 -0.828427,0 -1.5,-0.671573 -1.5,-1.5 0,-0.828427 0.671573,-1.5 1.5,-1.5 z"
     id="path74" 
     class="ColorScheme-Text"
     />
</svg>
