<svg xmlns="http://www.w3.org/2000/svg" viewBox="0 0 32 32">
    <defs id="defs3051">
        <style type="text/css" id="current-color-scheme">.ColorScheme-NegativeText {color:#da4453;}</style>
    </defs>
    <path
        style="fill:currentColor;fill-opacity:1;stroke:none" 
        class="ColorScheme-NegativeText"
        d="M 18,20.707 21.293,24 18,27.293 C 18.013,27.318 18.707,28 18.707,28 L 22,24.707 25.293,28 26,27.293 22.707,24 26,20.707 25.293,20 22,23.293 18.707,20 Z M 6,8 c 0,4 0,12 0,16 0,4 4,4 4,4 h 7 V 27 H 10 C 10,27 7,27 7,24 7,21 7,11 7,8 7,5 10,5 10,5 h 8 v 7 h 7 v 7 h 1 V 11 L 19,4 H 18 10 C 10,4 6,4 6,8 Z"/>
</svg>
