<!DOCTYPE svg>
<svg version="1.1" xmlns="http://www.w3.org/2000/svg" viewBox="0 0 32 32">
    <defs>
<style type="text/css" id="current-color-scheme">.ColorScheme-Text {color:#fcfcfc;}</style>
    </defs>
    <path class="ColorScheme-Text" style="fill:currentColor; fill-opacity:1; stroke:none" d="m 6,28 v -2 h 2 v 2 z m 6,0 v -2 h 2 v 2 z m 6,0 v -2 h 2 v 2 z m 6,0 v -2 h 2 v 2 z M 9,25 v -2 h 2 v 2 z m 6,0 v -2 h 2 v 2 z m 6,0 v -2 h 2 v 2 z M 6,22 v -2 h 2 v 2 z m 6,0 v -2 h 2 v 2 z m 6,0 v -2 h 2 v 2 z m 6,0 v -2 h 2 v 2 z M 9,19 v -2 h 2 v 2 z m 6,0 v -2 h 2 v 2 z m 6,0 v -2 h 2 v 2 z M 6,17 C 6,17 6,12 6,8 6,4 10,4 10,4 h 9 l 7,7 v 6 H 25 V 12 H 18 V 5 h -8 c 0,0 -3,0 -3,3 0,3 0,9 0,9 z"/>
</svg>
