<svg xmlns="http://www.w3.org/2000/svg" viewBox="0 0 32 32">
  <defs
     id="defs3051">
<style type="text/css" id="current-color-scheme">.ColorScheme-Text {color:#fcfcfc;}</style>
  </defs>
  <path
     style="fill:currentColor;fill-opacity:1;stroke:none" 
     d="m 6,8 c 0,4 0,12 0,16 0,4 4,4 4,4 h 4 V 27 H 10 C 10,27 7,27 7,24 7,21 7,11 7,8 7,5 10,5 10,5 h 8 v 7 h 7 v 4 h 1 V 11 L 19,4 H 18 10 C 10,4 6,4 6,8 Z m 12.5,8 c -2.493,0 -4.5,2.01 -4.5,4.5 0,2.493 2.01,4.5 4.5,4.5 1.063643,0 2.026341,-0.381199 2.794922,-0.994141 L 25.292969,28.003906 26,27.296875 22.001953,23.298828 C 22.617604,22.529048 23,21.565338 23,20.5 23,18.007 20.99,16 18.5,16 Z m 0,1 C 20.439,17 22,18.561 22,20.5 22,22.439 20.439,24 18.5,24 16.561,24 15,22.439 15,20.5 15,18.561 16.561,17 18.5,17 Z"
     id="path32" 
     class="ColorScheme-Text"
     />
</svg>
