<svg xmlns="http://www.w3.org/2000/svg" viewBox="0 0 32 32">
  <defs
     id="defs3051">
<style type="text/css" id="current-color-scheme">.ColorScheme-Text {color:#fcfcfc;}</style>
  </defs>
  <path
     style="fill:currentColor;fill-opacity:1;stroke:none" 
     d="m 6,8 c 0,4 0,12 0,16 0,4 4,4 4,4 h 5 V 27 H 10 C 10,27 7,27 7,24 7,21 7,11 7,8 7,5 10,5 10,5 h 8 v 7 h 7 v 3 h 1 V 11 L 19,4 H 18 10 C 10,4 6,4 6,8 Z m 18.5,8 C 23.672,16 23,16.672 23,17.5 23,18.328 23.672,19 24.5,19 25.328,19 26,18.328 26,17.5 26,16.672 25.328,16 24.5,16 Z m -3,3 C 21.224,19 21,19.224 21,19.5 21,19.776 21.224,20 21.5,20 21.776,20 22,19.776 22,19.5 22,19.224 21.776,19 21.5,19 Z m -2,1 C 19.224,20 19,20.224 19,20.5 19,20.776 19.224,21 19.5,21 19.776,21 20,20.776 20,20.5 20,20.224 19.776,20 19.5,20 Z m -3,1 C 15.672,21 15,21.672 15,22.5 15,23.328 15.672,24 16.5,24 17.328,24 18,23.328 18,22.5 18,21.672 17.328,21 16.5,21 Z m 3,3 C 19.224,24 19,24.224 19,24.5 19,24.776 19.224,25 19.5,25 19.776,25 20,24.776 20,24.5 20,24.224 19.776,24 19.5,24 Z m 2,1 C 21.224,25 21,25.224 21,25.5 21,25.776 21.224,26 21.5,26 21.776,26 22,25.776 22,25.5 22,25.224 21.776,25 21.5,25 Z m 3,0 C 23.672,25 23,25.672 23,26.5 23,27.328 23.672,28 24.5,28 25.328,28 26,27.328 26,26.5 26,25.672 25.328,25 24.5,25 Z"
     id="path46" 
     class="ColorScheme-Text"
     />
</svg>
