<!DOCTYPE svg>
<svg version="1.1" xmlns="http://www.w3.org/2000/svg" viewBox="0 0 32 32">
    <defs>
<style type="text/css" id="current-color-scheme">.ColorScheme-Text {color:#fcfcfc;}</style>
    </defs>
    <path class="ColorScheme-Text" style="fill:currentColor; fill-opacity:1; stroke:none" d="m 10,4 c 0,0 -4,0 -4,4 0,4 0,8 0,8 H 7 C 7,16 7,11 7,8 7,5 10,5 10,5 h 8 v 7 h 7 v 4 h 1 V 11 L 19,4 Z m 11,12 c -1.657,0 -3,1.343 -3,3 v 3 c 0,0 -2,0 -2,2 0,2 0,0 0,2 0,2 2,2 2,2 l 6,0 c 0,0 2,0 2,-2 0,-2 0,0 0,-2 0,-2 -2,-2 -2,-2 v -3 c 0,-1.657 -1.343,-3 -3,-3 z M 9,17 v 2 h 2 v -2 z m 12,0 c 1.105,0 2,0.895 2,2 v 3 h -4 v -3 c 0,-1.105 0.895,-2 2,-2 z M 6,20 v 2 h 2 v -2 z m 6,0 v 2 h 2 v -2 z m -3,3 v 2 h 2 v -2 z m -3,3 v 2 h 2 v -2 z m 6,0 v 2 h 2 v -2 z"/>
</svg>
