<svg viewBox="0 0 32 32" xmlns="http://www.w3.org/2000/svg"><style type="text/css" id="current-color-scheme">.ColorScheme-NegativeText{color:#da4453;}</style><g style="fill:currentColor;fill-opacity:1;stroke:none" class="ColorScheme-NegativeText"><path d="M 5,6.0502711 C 5,10.100542 5,15 5,15 H 6 C 6,15 6,9 6,6 6,3 9,3 9,3 h 11 v 7 h 7 v 5 h 1 V 9 L 21,2 9,1.9684939 C 9,1.9684939 5,2 5,6.0502711 Z"/><path d="m5.0000234 17.999856 1.9999766.000144-.0000233 11.999784-1.9999767-.000144z"/><path d="m2 16h28v1h-28z"/><path d="m8.0000234 17.999856 1.9999766.000144-.000023 11.999784-1.999977-.000144z"/><path d="m11 18 1.999977.000144-.000023 11.999784-1.999977-.000144z"/><path d="m14 18 1.999977.000144-.000023 11.999784-1.999977-.000144z"/><path d="m17 18 1.999977.000144-.000023 11.999784-1.999977-.000144z"/><path d="m20 18 1.999977.000144-.000023 11.999784-1.999977-.000144z"/><path d="m23.000023 17.999856 1.999977.000144-.000023 11.999784-1.999977-.000144z"/><path d="m26.000023 17.999856 1.999977.000144-.000023 11.999784-1.999977-.000144z"/></g></svg>
