<svg xmlns="http://www.w3.org/2000/svg" viewBox="0 0 32 32">
  <defs
     id="defs3051">
<style type="text/css" id="current-color-scheme">.ColorScheme-Text {color:#fcfcfc;}</style>
  </defs>
  <path
     style="fill:currentColor;fill-opacity:1;stroke:none" 
     d="m 3,9 c 0,3 0,9 0,12 0,3 2,3 2,3 0,0 0,2 3,2 3,0 18,0 18,0 0,0 3,0 3,-3 0,-3 0,-9 0,-12 C 29,8 27,8 27,8 27,8 27,6 24,6 21,6 6,6 6,6 6,6 3,6 3,9 Z M 4,9 C 4,7 6,7 6,7 c 0,0 18,0 19,0 1,0 1,1 1,1 H 8 C 8,8 5,8 5,11 5,14 5,23 5,23 5,23 4,23 4,22 4,21 4,11 4,9 Z m 2,2 C 6,9 8,9 8,9 h 18 c 0,0 2,0 2,2 0,2 0,10 0,12 0,2 -2,2 -2,2 0,0 -16,0 -18,0 C 6,25 6,23 6,23 6,23 6,13 6,11 Z m 8,2 v 8 l 7,-4 z"
     id="path10" 
     class="ColorScheme-Text"
     />
</svg>
