<svg xmlns="http://www.w3.org/2000/svg" viewBox="0 0 32 32">
  <defs id="defs3051">
<style type="text/css" id="current-color-scheme">.ColorScheme-Text {color:#fcfcfc;}</style>
  </defs>
 <path style="fill:currentColor;fill-opacity:1;stroke:none" 
       d="m 8,4 c 0,0 -4,0 -4,4 0,4 0,12 0,16 0,4 4,4 4,4 h 16 c 0,0 4,0 4,-4 0,-4 0,-9 0,-13 C 28,7 24,7 24,7 H 18 L 15,4 Z m 5,7 h 11 c 0,0 3,0 3,3 0,3 0,7 0,10 0,3 -3,3 -3,3 H 8 c 0,0 -3,0 -3,-3 0,-3 0,-6 0,-8 0,-2 2,-2 2,-2 h 3 z"
     class="ColorScheme-Text"
     />
</svg>
