<svg xmlns="http://www.w3.org/2000/svg" viewBox="0 0 32 32">
  <defs
     id="defs3051">
<style type="text/css" id="current-color-scheme">.ColorScheme-Text {color:#fcfcfc;}</style>
  </defs>
  <path
     style="fill:currentColor;fill-opacity:1;stroke:none" 
     d="m 4,8 c 0,4 0,12 0,16 0,4 4,4 4,4 h 9 V 27 H 8 c 0,0 -3,0 -3,-3 0,-3 0,-6 0,-8 0,-2 2,-2 2,-2 h 3 l 3,-3 h 11 c 0,0 3,0 3,3 0,3 0,3 0,3 h 1 c 0,0 0,-2 0,-6 C 28,7 24,7 24,7 H 18 L 15,4 H 8 C 8,4 4,4 4,8 Z m 18,9 v 5 h -5 v 1 h 5 v 5 h 1 v -5 h 5 v -1 h -5 v -5 z"
     id="path99" 
     class="ColorScheme-Text"
     />
</svg>
