<svg viewBox="0 0 32 32" xmlns="http://www.w3.org/2000/svg">
<style type="text/css" id="current-color-scheme">.ColorScheme-Text {color:#fcfcfc;}</style>
    <path class="ColorScheme-Text" fill="currentColor"
         d="M 13.6465,23.3535 2,11.707 2.707,11 14.3535,22.6465 c 0.95827,0.95827 2.365717,0.940899 3.299808,0.0068 C 18.587399,21.719217 29.293,11 29.293,11 L 30,11.707 18.3535,23.3535 c -1.6465,1.6465 -3.7675,0.9395 -4.707,0 z M 30,27 H 2 v 1 H 30 Z M 13.6465,16.353499 2,4.7069995 2.707,4 14.3535,15.646499 c 0.95827,0.95827 2.365717,0.940899 3.299808,0.0068 C 18.587399,14.719216 29.293,4 29.293,4 L 30,4.7069995 18.3535,16.353499 c -1.6465,1.6465 -3.7675,0.9395 -4.707,0 z"/>
</svg>
