<svg viewBox="0 0 32 32" xmlns="http://www.w3.org/2000/svg">
<style type="text/css" id="current-color-scheme">.ColorScheme-Text {color:#fcfcfc;}</style>
    <path d="M 13.6465,24.3535 2,12.707 2.707,12 14.3535,23.6465 c 0.95827,0.95827 2.365717,0.940899 3.299808,0.0068 C 18.587399,22.719217 29.293,12 29.293,12 L 30,12.707 18.3535,24.3535 c -1.6465,1.6465 -3.7675,0.9395 -4.707,0 z m 0,-7.000001 L 2,5.7069995 2.707,5 14.3535,16.646499 c 0.95827,0.95827 2.365717,0.940899 3.299808,0.0068 C 18.587399,15.719216 29.293,5 29.293,5 L 30,5.7069995 18.3535,17.353499 c -1.6465,1.6465 -3.7675,0.9395 -4.707,0 z" class="ColorScheme-Text" fill="currentColor"/>
</svg>
