<svg viewBox="0 0 32 32" xmlns="http://www.w3.org/2000/svg">
<style type="text/css" id="current-color-scheme">.ColorScheme-Text {color:#fcfcfc;}</style>
    <g class="ColorScheme-Text" fill="currentColor">
        <path d="M 27.292969,2 28,2.7070312 c 0,1e-7 -10.718262,10.7065348 -11.652344,11.6406248 -0.934098,0.93409 -0.952409,2.340559 0.0059,3.298828 L 28,29.292969 27.292969,30 15.646484,18.353516 c -0.939499,-0.939499 -1.646498,-3.060533 0,-4.707032 z m -7,0 L 21,2.7070312 c 0,1e-7 -10.718262,10.7065348 -11.652344,11.6406248 -0.934098,0.93409 -0.952409,2.340559 0.00586,3.298828 L 21,29.292969 20.292969,30 8.646484,18.353516 c -0.939499,-0.939499 -1.646498,-3.060533 0,-4.707032 z M 5,2 V 30 H 4 V 2 Z"/>
    </g>
</svg>
