<svg viewBox="0 0 32 32" xmlns="http://www.w3.org/2000/svg">
<style type="text/css" id="current-color-scheme">.ColorScheme-Text {color:#fcfcfc;}</style>
    <g class="ColorScheme-Text" fill="currentColor">
        <path d="m 27,2 v 28 h 1 V 2 Z M 16.353499,18.3535 4.7069995,30 4,29.293 15.646499,17.6465 c 0.95827,-0.95827 0.940899,-2.365717 0.0068,-3.299808 C 14.719216,13.412601 4,2.707 4,2.707 L 4.7069995,2 16.353499,13.6465 c 1.6465,1.6465 0.9395,3.7675 0,4.707 z"/>
        <path d="M 23.3535,18.3535 11.707,30 11,29.293 22.6465,17.6465 c 0.95827,-0.95827 0.940899,-2.365717 0.0068,-3.299808 C 21.719217,13.412601 11,2.707 11,2.707 L 11.707,2 23.3535,13.6465 c 1.6465,1.6465 0.9395,3.7675 0,4.707 z"/>
    </g>
</svg>
