<svg viewBox="0 0 32 32" xmlns="http://www.w3.org/2000/svg">
<style type="text/css" id="current-color-scheme">.ColorScheme-Text {color:#fcfcfc;}</style>
 <path class="ColorScheme-Text" fill="currentColor"
       d="M 13.6465,8.6465 2,20.293 2.707,21 14.3535,9.3535 C 15.31177,8.39523 16.719217,8.412601 17.653308,9.3467 18.587399,10.280783 29.293,21 29.293,21 L 30,20.293 18.3535,8.6465 C 16.707,7 14.586,7.707 13.6465,8.6465 Z M 30,5 H 2 V 4 H 30 Z M 13.6465,15.646501 2,27.293 2.707,28 14.3535,16.353501 c 0.95827,-0.95827 2.365717,-0.940899 3.299808,-0.0068 C 18.587399,17.280784 29.293,28 29.293,28 L 30,27.293 18.3535,15.646501 c -1.6465,-1.6465 -3.7675,-0.9395 -4.707,0 z"
   id="path1"/>
</svg>
