<svg viewBox="0 0 32 32" xmlns="http://www.w3.org/2000/svg">
<style type="text/css" id="current-color-scheme">.ColorScheme-Text {color:#fcfcfc;}</style>
    <path d="M 13.6465,7.6465 2,19.293 2.707,20 14.3535,8.3535 C 15.31177,7.39523 16.719217,7.412601 17.653308,8.3467 18.587399,9.280783 29.293,20 29.293,20 L 30,19.293 18.3535,7.6465 C 16.707,6 14.586,6.707 13.6465,7.6465 Z m 0,7.000001 L 2,26.293001 2.707,27 14.3535,15.353501 c 0.95827,-0.95827 2.365717,-0.940899 3.299808,-0.0068 C 18.587399,16.280784 29.293,27 29.293,27 L 30,26.293001 18.3535,14.646501 c -1.6465,-1.6465 -3.7675,-0.9395 -4.707,0 z" class="ColorScheme-Text" fill="currentColor"/>
</svg>
