<svg xmlns="http://www.w3.org/2000/svg" viewBox="0 0 32 32">
  <defs id="defs3051">
<style type="text/css" id="current-color-scheme">.ColorScheme-Text {color:#fcfcfc;}</style>
  </defs>
 <path style="fill:currentColor;fill-opacity:1;stroke:none" 
       d="M 7,4 C 7,4 4,4 4,7 4,10 4,8 4,8 H 5 C 5,8 5,9 5,7 5,5 7,5 7,5 H 8 V 4 Z m 3,0 v 1 h 1 c 0,0 2,0 2,2 0,2 0,1 0,1 h 1 c 0,0 0,2 0,-1 0,-3 -3,-3 -3,-3 z m 6,0 v 1 h 8 c 0,0 3,0 3,3 0,3 0,13 0,16 0,3 -3,3 -3,3 h -8 v 1 h 8 c 0,0 4,0 4,-4 C 28,20 28,12 28,8 28,4 24,4 24,4 Z M 4,10 c 0,0 0,-2 0,1 0,3 3,3 3,3 H 8 V 13 L 7,13 C 7,13 5,13 5,11 5,9 5,10 5,10 Z m 9,0 c 0,0 0,-1 0,1 0,2 -2,2 -2,2 h -1 v 1 h 1 c 0,0 3,0 3,-3 0,-3 0,-1 0,-1 z M 9,18 4,23 5,24 9,28 9.7070312,27.292969 5.9140625,23.5 H 17 v -1 H 5.9140625 l 3.7929687,-3.792969 z"
     class="ColorScheme-Text"
     />
</svg>
