<svg xmlns="http://www.w3.org/2000/svg" viewBox="0 0 32 32">
  <defs id="defs3051">
<style type="text/css" id="current-color-scheme">.ColorScheme-Text {color:#fcfcfc;}</style>
  </defs>
 <path 
     style="fill:currentColor;fill-opacity:1;stroke:none" 
     d="M 6 5 C 2.000004 5 2 9 2 9 L 2 18 L 3 18 L 3 12 L 29 12 L 29 23 C 29 25.999997 26 26 26 26 L 13 26 L 13 27 L 26 27 C 26 27 30 26.999996 30 23 L 30 9 C 30 9 29.999996 5 26 5 L 6 5 z M 6 6 L 26 6 C 28.999997 6 29 9 29 9 L 29 11 L 3 11 L 3 9 C 3 9 3.000003 6 6 6 z M 7 18.064453 L 2 22.013672 L 7 25.960938 L 7 23 L 13 23 L 13 21.025391 L 7 21.025391 L 7 18.064453 z "
     class="ColorScheme-Text"
     />
</svg>
