<svg xmlns="http://www.w3.org/2000/svg" viewBox="0 0 32 32">
  <defs id="defs3051">
<style type="text/css" id="current-color-scheme">.ColorScheme-Text {color:#fcfcfc;}</style>
  </defs>
 <path 
     style="fill:currentColor;fill-opacity:1;stroke:none" 
     d="m 5,5 c 0,0 -3,6e-6 -3,3 v 16 c 0,0 6e-6,3 3,3 H 17 V 26 H 5 C 4.000002,26 3.4296875,24.683594 3.4296875,24.683594 L 12.785156,15.541016 16,18.683594 C 20.078253,14.68504 24.155144,10.685095 28.232422,6.6855469 28.232422,6.6855469 29,7.000002 29,8 v 7 h 1 V 8 C 30,5.000006 27,5 27,5 Z M 4.453125,6 h 23.09375 L 16,17.285156 Z M 3.7714844,6.6816406 C 6.7662765,9.6578475 9.0422328,11.899459 12.070312,14.841797 L 3,23.707031 V 8 C 3,7.000002 3.7714844,6.6816406 3.7714844,6.6816406 Z"
     class="ColorScheme-Text"
     />
    <path
     style="fill:#2ecc71;fill-opacity:1;stroke:none"
     d="M 27.398438,15 22.287109,20.111328 19,23.398438 19,27 22.601562,27 31,18.601562 Z M 27,17 l 2,2 -7,7 -1,0 -1,-1 0,-1 z"
     />
</svg>
