<svg xmlns="http://www.w3.org/2000/svg" viewBox="0 0 32 32">
  <defs id="defs3051">
<style type="text/css" id="current-color-scheme">.ColorScheme-Text {color:#fcfcfc;}</style>
  </defs>
 <path 
     style="fill:currentColor;fill-opacity:1;stroke:none" 
     d="M 8 5 L 8 6 L 27.546875 6 L 16 17.285156 L 9 10.464844 L 9 11.837891 C 10.371451 13.183234 10.743857 13.525672 12.115234 14.871094 L 9 18 L 9 19.5625 L 12.835938 15.580078 C 13.890545 16.614661 14.945101 17.64931 16 18.683594 L 19.214844 15.541016 L 28.570312 24.683594 C 28.570312 24.683594 27.999995 26 27 26 L 14 26 L 14 27 L 27 27 C 29.999985 27 30 24 30 24 L 30 8 C 30 5.000015 27 5 27 5 L 8 5 z M 28.228516 6.6816406 C 28.228516 6.6816406 29 7.000005 29 8 L 29 23.707031 L 19.929688 14.841797 C 22.957755 11.899468 25.233732 9.6578385 28.228516 6.6816406 z M 2 13 L 2 14 L 8 14 L 8 13 L 2 13 z M 4 16 L 4 17 L 8 17 L 8 16 L 4 16 z M 6 19 L 6 20 L 8 20 L 8 19 L 6 19 z "
     class="ColorScheme-Text"
     />
</svg>
