<svg xmlns="http://www.w3.org/2000/svg" viewBox="0 0 32 32">
  <defs id="defs3051">
<style type="text/css" id="current-color-scheme">.ColorScheme-Text {color:#fcfcfc;}</style>
  </defs>
 <path 
     style="fill:currentColor;fill-opacity:1;stroke:none" 
     d="M 5 5 C 5 5 2 5.000009 2 8 L 2 15 L 2 24 C 2 24 2.000009 27 5 27 L 14 27 L 18 27 L 27 27 C 29.999991 27 30 24 30 24 L 30 15 L 30 8 C 30 5.000009 27 5 27 5 L 5 5 z M 4.453125 6 L 27.546875 6 L 16 17.285156 L 4.453125 6 z M 3.7675781 6.6855469 C 4.0630385 6.9753745 4.3588399 7.2648564 4.6542969 7.5546875 C 7.2075926 10.088014 9.3652367 12.213316 12.070312 14.841797 L 3 23.707031 L 3 15 L 3 8 C 3 7.9375002 3.002162 7.8775757 3.0078125 7.8203125 C 3.0134344 7.7630779 3.0227089 7.7084006 3.0332031 7.65625 C 3.0751802 7.4484901 3.1523585 7.2791557 3.2421875 7.1445312 C 3.242736 7.1437111 3.2435913 7.1433957 3.2441406 7.1425781 C 3.2887935 7.0759191 3.3351833 7.0194621 3.3828125 6.96875 C 3.3834966 6.9680241 3.3840816 6.9675196 3.3847656 6.9667969 C 3.4322958 6.9163787 3.480747 6.8738058 3.5253906 6.8378906 C 3.526201 6.8372419 3.5265353 6.8365816 3.5273438 6.8359375 C 3.661134 6.7293377 3.7675781 6.6855469 3.7675781 6.6855469 z M 28.232422 6.6855469 C 28.232422 6.6855469 28.338866 6.7293377 28.472656 6.8359375 C 28.473465 6.8365816 28.473799 6.8372419 28.474609 6.8378906 C 28.519253 6.8738058 28.567704 6.9163787 28.615234 6.9667969 C 28.615918 6.9675196 28.616503 6.9680241 28.617188 6.96875 C 28.664817 7.0194621 28.711207 7.0759191 28.755859 7.1425781 C 28.756409 7.1433957 28.757264 7.1437111 28.757812 7.1445312 C 28.847641 7.2791557 28.92482 7.4484901 28.966797 7.65625 C 28.987892 7.760658 29 7.8750004 29 8 L 29 15 L 29 23.707031 L 19.929688 14.841797 C 22.634763 12.213316 24.792407 10.088014 27.345703 7.5546875 C 27.64116 7.2648564 27.936962 6.9753745 28.232422 6.6855469 z M 12.785156 15.541016 L 16 18.683594 L 19.214844 15.541016 L 28.570312 24.683594 C 28.570312 24.683594 27.999997 26 27 26 L 18 26 L 14 26 L 5 26 C 4.000003 26 3.4296875 24.683594 3.4296875 24.683594 L 12.785156 15.541016 z "
     class="ColorScheme-Text"
     />
</svg>
