<svg xmlns="http://www.w3.org/2000/svg" viewBox="0 0 32 32">
  <defs id="defs3051">
<style type="text/css" id="current-color-scheme">.ColorScheme-Text {color:#fcfcfc;}</style>
  </defs>
 <path 
     style="fill:currentColor;fill-opacity:1;stroke:none" 
     d="m 5,5 v 4 c 0,0 -3,2 -3,4 0,2 0,6 0,10 0,4 4,4 4,4 h 20 c 0,0 4,0 4,-4 0,-4 0,-8 0,-10 0,-2 -3,-4 -3,-4 V 5 Z m 1,1 h 20 v 6.974609 L 16,18.429688 6,12.974609 Z M 8,8 V 9 H 24 V 8 Z m 0,3 v 1 h 9 V 11 Z M 3,16 C 3,14 5,14 5,14 H 5.7871094 L 16,19.570312 26.212891,14 H 27 c 0,0 2,0 2,2 0,2 0,4 0,7 0,3 -3,3 -3,3 L 6,26 c 0,0 -3,0 -3,-3 0,-3 0,-5 0,-7 z"
     class="ColorScheme-Text"
     />
</svg>
