<svg xmlns="http://www.w3.org/2000/svg" viewBox="0 0 32 32">
  <defs id="defs3051">
<style type="text/css" id="current-color-scheme">.ColorScheme-Text {color:#fcfcfc;}</style>
  </defs>
 <path 
     style="fill:currentColor;fill-opacity:1;stroke:none" 
     d="m 5,5 c 0,0 -3,6e-6 -3,3 v 16 c 0,0 6e-6,3 3,3 H 19 V 26 H 5 C 4.000002,26 3.4296875,24.683594 3.4296875,24.683594 L 12.785156,15.541016 16,18.683594 19.216797,15.529297 28.232422,6.6855469 C 28.232422,6.6855469 29,7.000002 29,8 v 7 h 1 V 8 C 30,5.000006 27,5 27,5 Z M 19.216797,15.529297 21,17.285156 V 15.888672 L 19.931641,14.830078 Z M 4.453125,6 h 23.09375 L 16,17.285156 Z M 3.7714844,6.6816406 C 6.7662765,9.6578475 9.0422328,11.899459 12.070312,14.841797 L 3,23.707031 V 8 C 3,7.000002 3.7714844,6.6816406 3.7714844,6.6816406 Z M 26.499953,14.988343 c -1.380706,0 -2.499991,1.119285 -2.5,2.5 v 6.035156 h 0.002 c 0.01909,0.813907 0.683917,1.464008 1.498047,1.464844 0.828427,0 1.5,-0.671573 1.5,-1.5 v -5.5 h -1 v 5.5 c 0,0.276142 -0.223857,0.5 -0.5,0.5 -0.276142,0 -0.5,-0.223858 -0.5,-0.5 v -6 c 0,-0.828427 0.671573,-1.5 1.5,-1.5 0.828427,0 1.5,0.671573 1.5,1.5 v 6 c 0,1.380712 -1.119288,2.5 -2.5,2.5 -1.380712,0 -2.5,-1.119288 -2.5,-2.5 v -6.5 h -1 v 6.5 c 0,1.933 1.567,3.500008 3.5,3.5 1.933,8e-6 3.500008,-1.567 3.5,-3.5 V 17.453186 H 28.998 C 28.97887,16.08698 27.866285,14.989275 26.499953,14.988343 Z"
     class="ColorScheme-Text"
     />
</svg>
