<svg viewBox="0 0 32 32" xmlns="http://www.w3.org/2000/svg">
    <defs>
        <style id="current-color-scheme" type="text/css">.ColorScheme-Text {color:#fcfcfc;}.ColorScheme-NegativeText {color:#da4453;}</style>
    </defs>
    <path class="ColorScheme-Text" d="m 2,8 v 16 c 0,0 0,3 3,3 H 19 V 26 H 5 C 4,26 3.4296875,24.683594 3.4296875,24.683594 L 12.785156,15.541016 16,18.683594 28.233321,6.6864465 C 28.233321,6.6864465 29,7 29,8 v 8 h 1 V 8 C 30,5 27,5 27,5 H 5 C 5,5 2,5 2,8 Z M 3.7718199,6.6813051 C 6.766618,9.657518 9.0422258,11.899453 12.070312,14.841797 L 3,23.707031 V 8 C 3,7 3.7718199,6.6813051 3.7718199,6.6813051 Z M 4.453125,6 h 23.09375 L 16,17.285156 Z" fill="currentColor"/>
    <path class="ColorScheme-NegativeText" d="m30 21.5a5.5 5.5 0 0 0-5.5-5.5 5.5 5.5 0 0 0-5.5 5.5 5.5 5.5 0 0 0 5.5 5.5 5.5 5.5 0 0 0 5.5-5.5zm-1 0a4.5 4.5 0 0 1-0.988281 2.804688l-6.326172-6.314454a4.5 4.5 0 0 1 2.814453-0.990234 4.5 4.5 0 0 1 4.5 4.5zm-1.689453 3.511719a4.5 4.5 0 0 1-2.810547 0.988281 4.5 4.5 0 0 1-4.5-4.5 4.5 4.5 0 0 1 0.984375-2.800781z" fill="currentColor"/>
</svg>
