<svg xmlns="http://www.w3.org/2000/svg" viewBox="0 0 32 32">
  <defs id="defs3051">
<style type="text/css" id="current-color-scheme">.ColorScheme-Text {color:#fcfcfc;}</style>
  </defs>
 <path 
     style="fill:currentColor;fill-opacity:1;stroke:none" 
     d="m 27,5 c 0,0 3,6e-6 3,3 v 16 c 0,0 -6e-6,3 -3,3 H 14 v -1 h 13 c 0.999998,0 1.570312,-1.316406 1.570312,-1.316406 L 19.214844,15.541016 16,18.683594 C 11.921747,14.68504 7.844856,10.685095 3.767578,6.6855469 3.767578,6.6855469 3,7.000002 3,8 v 7 H 2 V 8 C 2,5.000006 5,5 5,5 Z m 0.546875,1 H 4.453125 L 16,17.285156 Z m 0.681641,0.6816406 C 25.233723,9.6578475 22.957767,11.899459 19.929688,14.841797 L 29,23.707031 V 8 C 29,7.000002 28.228516,6.6816406 28.228516,6.6816406 Z M 7,19 2,23 7,27 v -3 h 6 V 22 H 7 Z"
     class="ColorScheme-Text"
     />
</svg>
