<?xml version="1.0" encoding="UTF-8" standalone="no"?>
<svg
   viewBox="0 0 32 32"
   id="svg6"
   width="32"
   height="32"
   version="1.1"
   sodipodi:docname="media-skip-backward.svg"
   inkscape:version="1.3.2 (091e20ef0f, 2023-11-25)"
   xmlns:inkscape="http://www.inkscape.org/namespaces/inkscape"
   xmlns:sodipodi="http://sodipodi.sourceforge.net/DTD/sodipodi-0.dtd"
   xmlns="http://www.w3.org/2000/svg"
   xmlns:svg="http://www.w3.org/2000/svg">
  <defs
     id="defs1" />
  <sodipodi:namedview
     id="namedview1"
     pagecolor="#ffffff"
     bordercolor="#999999"
     borderopacity="1"
     inkscape:showpageshadow="2"
     inkscape:pageopacity="0"
     inkscape:pagecheckerboard="0"
     inkscape:deskcolor="#d1d1d1"
     inkscape:zoom="11.22532"
     inkscape:cx="15.946093"
     inkscape:cy="22.716502"
     inkscape:window-width="1920"
     inkscape:window-height="996"
     inkscape:window-x="0"
     inkscape:window-y="0"
     inkscape:window-maximized="1"
     inkscape:current-layer="svg6" />
  <style
     type="text/css"
     id="current-color-scheme">.ColorScheme-Text { color: #fcfcfc; }
</style>
  <g
     id="media-skip-backward"
     transform="translate(-96,-22)"
     style="fill:#bac8df;fill-opacity:1">
    <path
       style="opacity:0.00100002;fill:#bac8df;fill-opacity:1"
       d="M 128,22 H 96 v 32 h 32 z"
       id="path77" />
    <path
       d="m 106.39,43.019953 v -9.921798 c 0.01,-2.530873 2.75968,-2.530873 2.7692,0 v 9.921798 c -0.01,2.530873 -2.75968,2.530873 -2.7692,0 z m 2.21536,-9.921798 z"
       id="path8-6-7-36-3"
       style="stroke-width:0.32508;fill-opacity:1;fill:currentColor;"
       sodipodi:nodetypes="cccccccccc"
       class="ColorScheme-Text " />
    <path
       d="M 120.4853,29.514747 C 118.21882,27.248194 115.2051,26 112,26 c -3.2051,0 -6.21883,1.248194 -8.4851,3.514747 C 101.24821,31.7813 100,34.794774 100,38 c 0,3.205226 1.24821,6.218694 3.5149,8.485253 C 105.78117,48.751664 108.7949,50 112,50 c 3.2053,0 6.21882,-1.248336 8.4853,-3.514747 C 122.75164,44.218694 124,41.205226 124,38 c 0,-3.205224 -1.24836,-6.218849 -3.5147,-8.485253 z M 119.115,45.81465 c -2.20952,1.874206 -3.9915,2.760222 -7.115,2.73735 -3.31598,-0.02428 -4.54596,-0.647314 -7.115,-2.738 -2.08741,-2.087254 -3.437,-4.862043 -3.437,-7.813997 0,-2.952096 1.39242,-6.090431 3.437,-7.815001 2.29379,-2.015596 4.20568,-2.714962 7.115,-2.737 2.95186,-0.02236 4.92759,0.91947 7.115,2.737205 2.08737,2.087403 3.437,4.8627 3.437,7.814795 0,2.951956 -1.34963,5.727395 -3.437,7.814648 z"
       id="path2-36-912-3-3-35-6"
       style="stroke-width:0.0374999;fill-opacity:1;fill:currentColor;"
       sodipodi:nodetypes="cscscscsccscscscsc"
       class="ColorScheme-Text " />
    <path
       d="m 109.2,38 c -3.3e-4,-0.19226 0.076,-0.376171 0.21206,-0.512 l 5.93206,-5.338437 c 0.58054,-0.439139 2,-0.59774 2.00052,0.89554 v 4.606719 4 c 0,0.55855 0.12313,1.63231 -0.371,2.12836 v 0 c -0.49547,0.49552 -1.29886,0.49552 -1.79433,0 L 109.41206,38.513 C 109.27598,38.377171 109.19967,38.192269 109.2,38 Z"
       id="path4-3-3"
       style="stroke-width:0.36249;fill-opacity:1;fill:currentColor;"
       sodipodi:nodetypes="ccccccssccc"
       class="ColorScheme-Text " />
  </g>
</svg>
