<?xml version="1.0" encoding="UTF-8" standalone="no"?>
<svg
   viewBox="0 0 32 32"
   version="1.1"
   id="svg2"
   sodipodi:docname="media-mount.svg"
   inkscape:version="1.3.2 (091e20ef0f, 2023-11-25)"
   width="32"
   height="32"
   xmlns:inkscape="http://www.inkscape.org/namespaces/inkscape"
   xmlns:sodipodi="http://sodipodi.sourceforge.net/DTD/sodipodi-0.dtd"
   xmlns="http://www.w3.org/2000/svg"
   xmlns:svg="http://www.w3.org/2000/svg">
  <defs
     id="defs2" />
  <sodipodi:namedview
     id="namedview2"
     pagecolor="#ffffff"
     bordercolor="#999999"
     borderopacity="1"
     inkscape:showpageshadow="2"
     inkscape:pageopacity="0"
     inkscape:pagecheckerboard="0"
     inkscape:deskcolor="#d1d1d1"
     showgrid="true"
     inkscape:zoom="8.6590909"
     inkscape:cx="15.821522"
     inkscape:cy="38.572179"
     inkscape:window-width="1920"
     inkscape:window-height="996"
     inkscape:window-x="0"
     inkscape:window-y="0"
     inkscape:window-maximized="1"
     inkscape:current-layer="svg2">
    <inkscape:grid
       id="grid2"
       units="px"
       originx="4.5692"
       originy="6.839054"
       spacingx="1"
       spacingy="1"
       empcolor="#0099e5"
       empopacity="0.30196078"
       color="#0099e5"
       opacity="0.14902"
       empspacing="5"
       dotted="false"
       gridanglex="30"
       gridanglez="30"
       visible="true" />
  </sodipodi:namedview>
  <style
     type="text/css"
     id="current-color-scheme">.ColorScheme-Text { color: #fcfcfc; }
</style>
  <g
     id="media-skip-forward"
     transform="rotate(90,64,-64)"
     style="fill:#bac8df;fill-opacity:1">
    <path
       style="opacity:0.00100002;fill:#bac8df;fill-opacity:1"
       d="m 128,-32 h 32 V 0 h -32 z"
       id="path97" />
    <path
       d="M 152.4853,-24.485253 C 150.21882,-26.751806 147.2051,-28 144,-28 c -3.2051,0 -6.21883,1.248194 -8.4851,3.514747 C 133.24821,-22.218701 132,-19.205227 132,-16 c 0,3.205227 1.24821,6.218694 3.5149,8.485252 2.26627,2.266411 5.28,3.514747 8.4851,3.514747 3.2053,0 6.21882,-1.248336 8.4853,-3.514747 C 154.75164,-9.781306 156,-12.794773 156,-16 c 0,-3.205226 -1.24836,-6.218849 -3.5147,-8.485253 z m -1.3703,16.299902 c -2.20952,1.874207 -3.9915,2.760224 -7.115,2.73735 -3.31598,-0.02428 -4.54596,-0.647314 -7.115,-2.738 -2.08741,-2.087254 -3.437,-4.862043 -3.437,-7.813998 0,-2.952096 1.39242,-6.09043 3.437,-7.815 2.29379,-2.015596 4.20568,-2.714962 7.115,-2.737 2.95186,-0.02236 4.92759,0.91947 7.115,2.737205 2.08737,2.087403 3.437,4.862699 3.437,7.814795 0,2.951956 -1.34963,5.727395 -3.437,7.814648 z"
       id="path2-36-912-3-3-35-3"
       style="stroke-width:0.0374999;fill-opacity:1;fill:currentColor;"
       sodipodi:nodetypes="cscscscsccscscscsc"
       class="ColorScheme-Text " />
    <path
       d="m 146.8,-11.200046 v -9.921799 c 0.01,-2.530873 2.75968,-2.530873 2.7692,0 v 9.921799 c -0.01,2.530873 -2.75968,2.530873 -2.7692,0 z m 2.21536,-9.921799 z"
       id="path8-6-7-36-6"
       style="stroke-width:0.32508;fill-opacity:1;fill:currentColor;"
       sodipodi:nodetypes="cccccccccc"
       class="ColorScheme-Text " />
    <path
       d="m 146.70026,-16.200178 c 3.3e-4,0.19226 -0.076,0.376171 -0.21206,0.512 l -5.93206,5.338437 c -0.58054,0.439139 -2,0.59774 -2.00052,-0.89554 v -4.606719 -4 c 0,-0.55855 -0.12313,-1.63231 0.371,-2.12836 v 0 c 0.49547,-0.49552 1.29886,-0.49552 1.79433,0 l 5.76725,5.267182 c 0.13608,0.135829 0.21239,0.320731 0.21206,0.513 z"
       id="path4-3-3-9"
       style="stroke-width:0.36249;fill-opacity:1;fill:currentColor;"
       sodipodi:nodetypes="ccccccssccc"
       class="ColorScheme-Text " />
  </g>
</svg>
