<svg xmlns="http://www.w3.org/2000/svg" viewBox="0 0 32 32">
  <defs
     id="defs3051">
<style type="text/css" id="current-color-scheme">.ColorScheme-Text {color:#fcfcfc;}</style>
  </defs>
  <path
     style="fill:currentColor;fill-opacity:1;stroke:none" 
     d="m 4,10 c 0,4 0,8 0,12 0,4 4,4 4,4 h 7 V 25 H 8 C 8,25 5,25 5,22 5,19 5,13 5,10 5,7 8,7 8,7 h 16 c 0,0 3,0 3,3 0,3 0,8 0,8 h 1 c 0,0 0,-4 0,-8 C 28,6 24,6 24,6 H 8 C 8,6 4,6 4,10 Z m 6.001953,-1.0019531 c -1.6568542,10e-8 -3,1.3431461 -2.9999999,3.0000001 0,1.656854 1.3431457,3 2.9999999,3 1.656854,0 3,-1.343146 3,-3 0,-1.656854 -1.343146,-3.0000001 -3,-3.0000001 z m 0,1 c 1.10457,0 2,0.8954301 2,2.0000001 0,1.104569 -0.895431,2 -2,2 -1.1045695,0 -1.9999999,-0.895431 -1.9999999,-2 -10e-8,-1.104569 0.8954304,-2 1.9999999,-2.0000001 z M 7,17 v 6 h 6 v -6 z m 1,1 h 4 v 4 H 8 Z M 27.273438,19 19.636719,26.560547 16.728516,23.679688 16,24.400391 19.636719,28 28,19.720703 Z"
     id="path56" 
     class="ColorScheme-Text"
     />
</svg>
