<?xml version="1.0" encoding="UTF-8" standalone="no"?>
<svg
   width="32"
   height="32"
   version="1.1"
   id="svg1"
   sodipodi:docname="system-search.svg"
   inkscape:version="1.3.2 (091e20ef0f, 2023-11-25)"
   xmlns:inkscape="http://www.inkscape.org/namespaces/inkscape"
   xmlns:sodipodi="http://sodipodi.sourceforge.net/DTD/sodipodi-0.dtd"
   xmlns="http://www.w3.org/2000/svg"
   xmlns:svg="http://www.w3.org/2000/svg">
  <defs
     id="defs1" />
  <sodipodi:namedview
     id="namedview1"
     pagecolor="#ffffff"
     bordercolor="#999999"
     borderopacity="1"
     inkscape:showpageshadow="2"
     inkscape:pageopacity="0"
     inkscape:pagecheckerboard="0"
     inkscape:deskcolor="#d1d1d1"
     inkscape:zoom="16.99266"
     inkscape:cx="22.892237"
     inkscape:cy="19.214179"
     inkscape:window-width="1920"
     inkscape:window-height="1001"
     inkscape:window-x="0"
     inkscape:window-y="0"
     inkscape:window-maximized="1"
     inkscape:current-layer="svg1" />
  <style
     type="text/css"
     id="current-color-scheme">
        .ColorScheme-Text {
            color:#fcfcfc;
        }
    </style>
  <g
     id="system-search"
     transform="translate(0 -32) translate(-22,32)">
    <path
       id="path68"
       d="m22 0v32h32v-32z"
       fill="none" />
  </g>
  <path
     d="m 4.0000675,12.698433 c 4.635e-4,4.756929 3.8554968,8.612162 8.6121065,8.612627 2.096353,-1.92e-4 4.016267,-0.750559 5.509572,-1.995446 l 1.766728,1.766822 c 0.0069,0.0072 0.01507,0.009 0.02217,0.01485 -0.412266,0.871968 -0.280266,1.9397 0.438939,2.659037 l 3.641035,3.642672 c 0.915988,0.916007 2.405354,0.916007 3.321297,0 0.917678,-0.917723 0.917678,-2.40375 0,-3.321462 l -3.640989,-3.6427 c -0.721175,-0.721207 -1.788616,-0.852851 -2.66087,-0.43821 -0.0065,-0.007 -0.0075,-0.01455 -0.0144,-0.02133 L 19.228928,18.208459 C 20.4737,16.715076 21.223986,14.79505 21.224173,12.69858 21.223705,7.9416463 17.368686,4.0864635 12.612159,4.086 7.8554963,4.086426 4.0004635,7.9416163 4,12.698525 Z m 14.0924745,0 c -0.0013,3.024427 -2.456166,5.479307 -5.480323,5.480768 -3.024253,-0.0021 -5.4791017,-2.456297 -5.4804717,-5.480768 0.0021,-3.0244117 2.4561727,-5.4792947 5.4804717,-5.4807467 3.024157,0.0023 5.478918,2.456335 5.480323,5.4807467 z"
     id="path2-3-6"
     style="color:#fcfcfc;fill:currentColor;fill-opacity:1;stroke-width:0.0312511"
     class="ColorScheme-Text " />
</svg>
