<?xml version="1.0" encoding="UTF-8" standalone="no"?>
<svg
   version="1.1"
   viewBox="0 0 32 32"
   id="svg1"
   sodipodi:docname="system-shutdown-update.svg"
   width="32"
   height="32"
   inkscape:version="1.3.2 (091e20ef0f, 2023-11-25)"
   xmlns:inkscape="http://www.inkscape.org/namespaces/inkscape"
   xmlns:sodipodi="http://sodipodi.sourceforge.net/DTD/sodipodi-0.dtd"
   xmlns="http://www.w3.org/2000/svg"
   xmlns:svg="http://www.w3.org/2000/svg">
  <sodipodi:namedview
     id="namedview1"
     pagecolor="#ffffff"
     bordercolor="#999999"
     borderopacity="1"
     inkscape:showpageshadow="2"
     inkscape:pageopacity="0"
     inkscape:pagecheckerboard="0"
     inkscape:deskcolor="#d1d1d1"
     inkscape:zoom="17.058951"
     inkscape:cx="24.268784"
     inkscape:cy="14.244721"
     inkscape:window-width="1920"
     inkscape:window-height="1004"
     inkscape:window-x="0"
     inkscape:window-y="0"
     inkscape:window-maximized="1"
     inkscape:current-layer="svg1" />
  <defs
     id="defs1">
    <style
       id="current-color-scheme"
       type="text/css">.ColorScheme-Text { color:#232629; }</style>
  </defs>
  <path
     class="ColorScheme-Text"
     d="m 14.746094,4 v 10 h 2.507812 V 4 Z M 18,4.171875 v 2.03125 C 22.655508,7.1534264 25.999484,11.248493 26,16 h 2 C 27.998032,10.145893 23.772228,5.1475592 18,4.171875 Z m -4,0.00782 C 8.2306814,5.15487 4.0057772,10.148846 4,16 c 0,6.62741 5.3725896,12 12,12 0.670625,-0.0052 1.339635,-0.06662 2,-0.1836 V 25.769532 C 17.342784,25.913438 16.672721,25.990652 16,26 10.477158,26 6,21.522842 6,16 6.004225,11.251428 9.3473662,7.1606504 14,6.2109376 Z M 23,16 18,22 h 3 v 6 h 4 v -6 h 3 z"
     fill="currentColor"
     id="path1"
     style="stroke-width:1" />
</svg>
