<svg xmlns="http://www.w3.org/2000/svg" viewBox="0 0 32 32">
  <defs
     id="defs3051">
<style type="text/css" id="current-color-scheme">.ColorScheme-Text {color:#fcfcfc;}</style>
  </defs>
  <path
     style="fill:currentColor;fill-opacity:1;stroke:none"
   d="M 16 4 A 12 12 0 0 0 4.1289062 14.644531 L 27.898438 14.644531 A 12 12 0 0 0 16 4 z M 16 5.2753906 A 10.724531 10.724531 0 0 1 26.455078 13.626953 L 5.5742188 13.626953 A 10.724531 10.724531 0 0 1 16 5.2753906 z M 8.5 10.75 L 8.5 12.25 L 13.5 12.25 L 13.5 10.75 L 8.5 10.75 z M 14.5 10.75 L 14.5 12.25 L 17.5 12.25 L 17.5 10.75 L 14.5 10.75 z M 18.5 10.75 L 18.5 12.25 L 23.5 12.25 L 23.5 10.75 L 18.5 10.75 z M 4.0234375 16.335938 A 12 12 0 0 0 16 28 A 12 12 0 0 0 27.976562 16.335938 L 4.0234375 16.335938 z M 5.3847656 17.373047 L 26.632812 17.373047 A 10.724531 10.724531 0 0 1 16 26.724609 A 10.724531 10.724531 0 0 1 5.3847656 17.373047 z M 10 19 C 9.1715746 19 8.5 19.671575 8.5 20.5 C 8.5 21.328425 9.1715746 22 10 22 C 10.828425 22 11.5 21.328425 11.5 20.5 C 11.5 19.671575 10.828425 19 10 19 z M 14 19 C 13.171575 19 12.5 19.671575 12.5 20.5 C 12.5 21.328425 13.171575 22 14 22 C 14.828425 22 15.5 21.328425 15.5 20.5 C 15.5 19.671575 14.828425 19 14 19 z M 18 19 C 17.171575 19 16.5 19.671575 16.5 20.5 C 16.5 21.328425 17.171575 22 18 22 C 18.828425 22 19.5 21.328425 19.5 20.5 C 19.5 19.671575 18.828425 19 18 19 z M 22 19 C 21.171575 19 20.5 19.671575 20.5 20.5 C 20.5 21.328425 21.171575 22 22 22 C 22.828425 22 23.5 21.328425 23.5 20.5 C 23.5 19.671575 22.828425 19 22 19 z " class="ColorScheme-Text" />
</svg>
