<svg xmlns="http://www.w3.org/2000/svg" viewBox="0 0 32 32">
  <defs
     id="defs3051">
<style type="text/css" id="current-color-scheme">.ColorScheme-Text {color:#fcfcfc;}</style>
  </defs>
  <path
     style="fill:currentColor;fill-opacity:1;stroke:none" 
     d="m 4,8 c 0,4 0,12 0,16 0,4 4,4 4,4 h 16 c 0,0 4,0 4,-4 C 28,20 28,12 28,8 28,4 24,4 24,4 H 8 C 8,4 4,4 4,8 Z m 1,4 C 5,9 8,9 8,9 h 16 c 0,0 3,0 3,3 0,3 0,9 0,12 0,3 -3,3 -3,3 H 8 C 8,27 5,27 5,24 5,21 5,15 5,12 Z m 3,-1 v 6 h 7 v -6 z m 9,0 v 6 h 7 v -6 z m -8,1 h 5 v 4 H 9 Z m 9,0 h 5 v 4 H 18 Z M 8,19 v 6 h 7 v -6 z m 9,0 v 6 h 7 v -6 z m -8,1 h 5 v 4 H 9 Z m 9,0 h 5 v 4 h -5 z"
     id="path45" 
     class="ColorScheme-Text"
     />
</svg>
