<svg xmlns="http://www.w3.org/2000/svg" viewBox="0 0 32 32">
  <defs
     id="defs3051">
<style type="text/css" id="current-color-scheme">.ColorScheme-Text {color:#fcfcfc;}</style>
  </defs>
  <path
     style="fill:currentColor;fill-opacity:1;stroke:none" 
     d="m 4,8 c 0,4 0,12 0,16 0,4 4,4 4,4 l 16,0 c 0,0 4,0 4,-4 C 28,20 28,12 28,8 28,4 24,4 24,4 H 8 C 8,4 4,4 4,8 Z m 1,4 C 5,9 8,9 8,9 L 19,9 V 27 L 8,27 C 8,27 5,27 5,24 5,21 5,15 5,12 Z M 20,9 h 4 c 0,0 3,0 3,3 0,3 0,9 0,12 0,3 -3,3 -3,3 l -4,0 z"
     id="path79" 
     class="ColorScheme-Text"/>
  <path
     style="fill:#da4453"
     id="path81"
     d="M 16,14.71 12.707,18.003 16,21.296 c -0.013,0.025 -0.707,0.707 -0.707,0.707 L 12,18.71 8.707,22.003 8,21.296 11.293,18.003 8,14.71 8.707,14.003 12,17.296 15.293,14.003 Z" 
     />
</svg>
