<svg xmlns="http://www.w3.org/2000/svg" viewBox="0 0 32 32">
  <defs
     id="defs3051">
<style type="text/css" id="current-color-scheme">.ColorScheme-Text {color:#fcfcfc;}</style>
  </defs>
  <path
     style="fill:currentColor;fill-opacity:1;stroke:none" 
     d="m 4,8 c 0,4 0,12 0,16 0,4 4,4 4,4 h 16 c 0,0 4,0 4,-4 C 28,20 28,12 28,8 28,4 24,4 24,4 H 8 C 8,4 4,4 4,8 Z m 1,4 C 5,9 8,9 8,9 h 4 V 27 L 8,27 C 8,27 5,27 5,24 5,21 5,15 5,12 Z m 8,-3 h 11 c 0,0 3,0 3,3 0,3 0,9 0,12 0,3 -3,3 -3,3 l -11,0 z"
     id="path8" 
     class="ColorScheme-Text"
     />
  <path
     style="fill:#da4453"
     id="path10"
     d="M 16,14.71 19.293,18.003 16,21.296 c 0.013,0.025 0.707,0.707 0.707,0.707 L 20,18.71 23.293,22.003 24,21.296 20.707,18.003 24,14.71 23.293,14.003 20,17.296 16.707,14.003 Z" />
</svg>
