<svg xmlns="http://www.w3.org/2000/svg" viewBox="0 0 32 32">
  <defs id="defs3051">
<style type="text/css" id="current-color-scheme">.ColorScheme-Text {color:#fcfcfc;}</style>
  </defs>
 <path style="fill:currentColor;fill-opacity:1;stroke:none" 
    d="m 4,8 c 0,4 0,12 0,16 0,4 4,4 4,4 h 16 c 0,0 4,0 4,-4 C 28,20 28,12 28,8 28,4 24,4 24,4 H 8 C 8,4 4,4 4,8 Z M 5,8 C 5,5 8,5 8,5 h 16 c 0,0 3,0 3,3 0,3 0,13 0,16 0,3 -3,3 -3,3 H 8 C 8,27 5,27 5,24 5,21 5,11 5,8 Z m 6,-1 c -2.209139,0 -4,1.790861 -4,4 0,2.209139 1.790861,4 4,4 2.209139,0 4,-1.790861 4,-4 0,-2.209139 -1.790861,-4 -4,-4 m 0,1 c 1.656854,0 3,1.3431458 3,3 0,1.656854 -1.343146,3 -3,3 C 9.3431458,14 8,12.656854 8,11 8,9.3431458 9.3431458,8 11,8 m 9.5,6.793 -5,5 -2,-2 -6.5,6.5 0.707,0.707 5.793,-5.793 2,2 5,-5 L 24.293,20 25,19.293 Z"
     class="ColorScheme-Text"
     />
</svg>
