<svg xmlns="http://www.w3.org/2000/svg" viewBox="0 0 32 32">
  <defs
     id="defs3051">
<style type="text/css" id="current-color-scheme">.ColorScheme-Text {color:#fcfcfc;}</style>
  </defs>
  <path
     style="fill:currentColor;fill-opacity:1;stroke:none" 
     d="m 4,8 c 0,4 0,6 0,6 H 14 V 4 H 8 C 8,4 4,4 4,8 Z M 5,8 C 5,5 8,5 8,5 h 5 v 8 H 5 C 5,13 5,11 5,8 Z M 16,6 V 7 H 28 V 6 Z m 0,5 v 1 H 28 V 11 Z M 4,18 c 0,0 0,2 0,6 0,4 4,4 4,4 l 6,0 V 18 Z m 12,2 v 1 h 8 v -1 z m 0,5 v 1 h 8 v -1 z"
     id="path59" 
     class="ColorScheme-Text"
     />
</svg>
