<svg xmlns="http://www.w3.org/2000/svg" viewBox="0 0 32 32">
  <defs id="defs3051">
<style type="text/css" id="current-color-scheme">.ColorScheme-Text {color:#fcfcfc;}</style>
  </defs>
 <path style="fill:currentColor;fill-opacity:1;stroke:none" 
       d="M 4,8 V 9 H 5 V 8 C 5,5 8,5 8,5 H 9 V 4 H 8 C 8,4 4,4 4,8 Z M 23,4 v 1 h 4 v 4 h 1 V 4 Z M 7,9 c 0,2 0,12 0,14 0,2 2,2 2,2 h 2 c 0,0 2,0 2,-2 C 13,21 13,11 13,9 13,7 11,7 11,7 H 9 C 9,7 7,7 7,9 Z m 13,4 c 0,2 0,4 0,6 0,2 2,2 2,2 h 1 c 0,0 2,0 2,-2 0,-2 0,-4 0,-6 0,-2 -2,-2 -2,-2 h -1 c 0,0 -2,0 -2,2 z m -5,0 v 6 l 3,-3 z M 4,23 v 1 c 0,4 4,4 4,4 H 9 V 27 H 8 c 0,0 -3,0 -3,-3 v -1 z m 23,0 v 1 c 0,0 0,3 -3,3 h -1 v 1 h 1 c 4,0 4,-4 4,-4 v -1 z"
     class="ColorScheme-Text"
     />
</svg>
