<svg xmlns="http://www.w3.org/2000/svg" viewBox="0 0 32 32">
  <defs id="defs3051">
<style type="text/css" id="current-color-scheme">.ColorScheme-Text {color:#fcfcfc;}</style>
  </defs>
 <path style="fill:currentColor;fill-opacity:1;stroke:none" 
       d="m 4,8 c 0,4 0,1 0,1 H 5 C 5,9 5,11 5,8 5,5 8,5 8,5 H 9 V 4 H 8 C 8,4 4,4 4,8 Z M 23,4 v 1 h 1 c 0,0 3,0 3,3 0,3 0,1 0,1 h 1 c 0,0 0,3 0,-1 C 28,4 24,4 24,4 Z M 13.708984,8.25 13,8.9726562 19.666016,15.982422 13,22.990234 13.673828,23.75 21,15.982422 Z M 4,23 c 0,0 0,-3 0,1 0,4 4,4 4,4 H 9 V 27 H 8 c 0,0 -3,0 -3,-3 0,-3 0,-1 0,-1 z m 23,0 c 0,0 0,-2 0,1 0,3 -3,3 -3,3 h -1 v 1 h 1 c 0,0 4,0 4,-4 0,-4 0,-1 0,-1 z"
     class="ColorScheme-Text"
     />
</svg>
