<svg xmlns="http://www.w3.org/2000/svg" viewBox="0 0 32 32">
  <defs id="defs3051">
<style type="text/css" id="current-color-scheme">.ColorScheme-Text {color:#fcfcfc;}</style>
  </defs>
 <path style="fill:currentColor;fill-opacity:1;stroke:none" 
      d="M 8,4 C 8,4 4,4 4,8 4,12 4,9 4,9 H 5 C 5,9 5,11 5,8 5,5 8,5 8,5 H 9 V 4 Z m 15,0 v 1 h 1 c 0,0 3,0 3,3 0,3 0,1 0,1 h 1 c 0,0 0,3 0,-1 C 28,4 24,4 24,4 Z M 18.291016,8.25 11,15.982422 18.326172,23.75 19,22.990234 12.333984,15.982422 19,8.9726562 Z M 4,23 c 0,0 0,-3 0,1 0,4 4,4 4,4 H 9 V 27 H 8 c 0,0 -3,0 -3,-3 0,-3 0,-1 0,-1 z m 23,0 c 0,0 0,-2 0,1 0,3 -3,3 -3,3 h -1 v 1 h 1 c 0,0 4,0 4,-4 0,-4 0,-1 0,-1 z"
     class="ColorScheme-Text"
     />
</svg>
