<?xml version="1.0" encoding="UTF-8"?>
<svg xmlns="http://www.w3.org/2000/svg" xmlns:xlink="http://www.w3.org/1999/xlink" xmlns:cc="http://creativecommons.org/ns#" xmlns:dc="http://purl.org/dc/elements/1.1/" xmlns:rdf="http://www.w3.org/1999/02/22-rdf-syntax-ns#" xmlns:inkscape="http://www.inkscape.org/namespaces/inkscape" xmlns:sodipodi="http://sodipodi.sourceforge.net/DTD/sodipodi-0.dtd" width="32" height="32">
    <style type="text/css" id="current-color-scheme">.ColorScheme-Text {color:#fcfcfc;}</style>
    <g id="apport" transform="translate(-22,0)">
    <path id="path12" class="ColorScheme-Text" d="m 26,8 v 16 c 0,0 0,4 4,4 4,0 12,0 16,0 4,0 4,-4 4,-4 V 8 C 50,8 50,4 46,4 42,4 34,4 30,4 26,4 26,8 26,8 Z m 1,0 c 0,0 0,-3 3,-3 3,0 13,0 16,0 3,0 3,3 3,3 v 16 c 0,0 0,3 -3,3 -3,0 -13,0 -16,0 -3,0 -3,-3 -3,-3 z m 2,-1 v 2 h 2 V 7 Z m 2,2 v 3 h 3 V 9 Z m 3,0 h 2 V 7 h -2 z m 0,3 v 2 h 2 v -2 z m -3,0 h -2 v 2 h 2 z m 9,-5 v 2 h 2 V 7 Z m 2,2 v 3 h 3 V 9 Z m 3,0 h 2 V 7 h -2 z m 0,3 v 2 h 2 v -2 z m -3,0 h -2 v 2 h 2 z m -8,5 v 2 h 8 v -2 z m 8,2 v 2 h 2 v -2 z m 2,2 v 2 h 2 V 21 Z M 34,19 h -2 v 2 h 2 z m -2,2 h -2 v 2 h 2 z" style="fill:currentColor;fill-opacity:1;stroke:none"/>
    <path id="path14" d="M 22 0 L 22 32 L 54 32 L 54 0 L 22 0 z " style="opacity:1;fill:none"/>
  </g>
</svg>
