<svg height="32" width="32" xmlns="http://www.w3.org/2000/svg">
    <style type="text/css" id="current-color-scheme">.ColorScheme-Text {color:#fcfcfc;}.ColorScheme-NegativeText {color:#da4453;}</style>
    <g class="ColorScheme-Text" fill="currentColor">
        <path d="m 3,14 c 0,4 0,0 0,4 0,4 4,4 4,4 0,0 16,0 18,0 2,0 3,-3 3,-3 0.554,0 1,-0.446 1,-1 v -4 c 0,-0.554 -0.446,-1 -1,-1 0,0 -1,-3 -3,-3 -2,0 -18,0 -18,0 0,0 -4,0 -4,4 z m 1,0 c 0,-3 3,-3 3,-3 0,0 17,0 18,0 1,0 2,2 2,2 v 6 c 0,0 -1,2 -2,2 -1,0 -18,0 -18,0 0,0 -3,0 -3,-3 0,-3 0,-1 0,-4 z"/>
        <path d="m 5,14 c 0,-2 2,-2 2,-2 0,0 15,0 17,0 2,0 2,2 2,2 v 4 c 0,0 0,2 -2,2 -2,0 -17,0 -17,0 0,0 -2,0 -2,-2 0,-2 0,-2 0,-4 z"/>
    </g>
    <rect class="ColorScheme-NegativeText" fill="currentColor" height="10" rx="1" width="10" x="22" y="16"/>
    <path d="M24.707 18l-.707.707L26.293 21 24 23.293l.707.707L27 21.707 29.293 24l.707-.707L27.707 21 30 18.707 29.293 18 27 20.293z" fill="#fcfcfc"/>
</svg>
