<svg height="32" width="32" xmlns="http://www.w3.org/2000/svg">
    <style type="text/css" id="current-color-scheme">.ColorScheme-PositiveText {color:#27ae60;}.ColorScheme-NegativeText {color:#da4453;}</style>
    <path d="m 3,14 v 4 c 0,0 0,4 4,4 4,0 13,0 17,0 4,0 4,-3 4,-3 0.554,0 1,-0.446 1,-1 v -4 c 0,-0.554 -0.446,-1 -1,-1 0,0 0,-3 -3,-3 -3,0 -14,0 -18,0 -4,0 -4,4 -4,4 z m 1,0 c 0,0 0,-3 3,-3 3,0 16,0 18,0 2,0 2.020268,2 2.020268,2 L 27,19 c 0,0 0.52505,2 -3,2 -3.52505,0 -14,0 -17,0 -3,0 -3,-3 -3,-3 z" class="ColorScheme-NegativeText" fill="currentColor"/>
    <path d="M16 13a3 3 0 0 0-2.826 2H12v2h1.176A3 3 0 0 0 16 19v-1h2v-1h-2v-2h2v-1h-2z" class="ColorScheme-PositiveText" fill="currentColor"/>
</svg>
