<?xml version="1.0" encoding="UTF-8" standalone="no"?>
<svg
  height="32"
  width="32"
  version="1.1"
  id="svg3"
  xmlns="http://www.w3.org/2000/svg"
  xmlns:svg="http://www.w3.org/2000/svg">
 <defs
   id="defs3" />
 <style type="text/css" id="current-color-scheme">.ColorScheme-Text {color:#fcfcfc;}.ColorScheme-PositiveText {color:#27ae60;}</style>
 <g
   class="ColorScheme-Text"
   fill="currentColor"
   id="g2">
  <path
    d="m 3,14 v 4 c 0,4 4,4 4,4 0,0 15,0 18,0 3,0 3,-3 3,-3 0.554,0 1,-0.446 1,-1 v -4 c 0,-0.554 -0.446,-1 -1,-1 0,0 0,-3 -3,-3 -3,0 -18,0 -18,0 0,0 -4,0 -4,4 z m 1,0 c 0,-3 3,-3 3,-3 0,0 16,0 18,0 2,0 2,2 2,2 l 0,6 c 0,0 0,2 -2,2 -2,0 -18,0 -18,0 0,0 -3,0 -3,-3 z"
    id="path1" />
  <path
    d="m 5,14 c 0,-2 2,-2 2,-2 h 2 l 2,8 H 7 c 0,0 -2,0 -2,-2 0,-2 0,-2 0,-4 z"
    id="path2" />
 </g>
 <path
   d="M16 13a3 3 0 0 0-2.826 2H12v2h1.176A3 3 0 0 0 16 19v-1h2v-1h-2v-2h2v-1h-2z"
   class="ColorScheme-PositiveText"
   fill="currentColor"
   id="path3" />
</svg>
