<?xml version="1.0" encoding="UTF-8" standalone="no"?>
<svg
   width="32"
   height="32"
   version="1.1"
   id="svg8"
   sodipodi:docname="input-keyboard-virtual-off.svg"
   inkscape:version="1.2.2 (b0a8486541, 2022-12-01)"
   xmlns:inkscape="http://www.inkscape.org/namespaces/inkscape"
   xmlns:sodipodi="http://sodipodi.sourceforge.net/DTD/sodipodi-0.dtd"
   xmlns="http://www.w3.org/2000/svg"
   xmlns:svg="http://www.w3.org/2000/svg">
  <defs
     id="defs12" />

  <style
     type="text/css"
     id="current-color-scheme">.ColorScheme-Text {
        color:#fcfcfc;
      }
      .ColorScheme-Background {
        color:#eff0f1;
      }
      .ColorScheme-Highlight {
        color:#3daee9;
      }
      .ColorScheme-ViewText {
        color:#31363b;
      }
      .ColorScheme-ViewBackground {
        color:#fcfcfc;
      }
      .ColorScheme-ViewHover {
        color:#93cee9;
      }
      .ColorScheme-ViewFocus{
        color:#3daee9;
      }
      .ColorScheme-ButtonText {
        color:#31363b;
      }
      .ColorScheme-ButtonBackground {
        color:#eff0f1;
      }
      .ColorScheme-ButtonHover {
        color:#93cee9;
      }
      .ColorScheme-ButtonFocus{
        color:#3daee9;
      }</style>
  <g
     id="input-keyboard-virtual-off"
     transform="scale(1.4545455)">
    <rect
       width="22"
       height="22"
       fill="none"
       id="rect3"
       x="0"
       y="0" />
    <path
       class="ColorScheme-Text"
       transform="matrix(0.68749998,0,0,0.68749998,-15.124999,22.000003)"
       d="m 24.999999,-18.000005 v 10.052271 c 0,0 0,3.9477286 4,3.9477286 4,0 14,0 18,0 4,0 4,-3.9999999 4,-3.9999999 l 0,-9.9999997 c 0,0 0,-3 -3,-3 h -20 c -3,0 -3,3 -3,3 z m 3,-2 h 20 C 49.999999,-20.000005 50,-18 50,-18 H 26 c 0,0 -1e-6,-2.000005 1.999999,-2.000005 z M 26,-17 h 24 l -10e-7,8.9999947 c 0,0 0,2.9999999 -3,2.9999999 -3,0 -15,0 -18,0 -3,0 -3,-2.9999999 -3,-2.9999999 z m 1,2 v 2 h 1 v -2 z m 2,0 v 2 h 2 v -2 z m 3,0 v 2 h 2 v -2 z m 3,0 v 2 h 2 v -2 z m 3,0 v 2 h 2 v -2 z m 3,0 v 2 h 2 v -2 z m 3,0 v 2 h 2 v -2 z m 3,0 v 2 h 2 v -2 z m -20,3 v 2 h 3 v -2 z m 4,0 v 2 h 2 v -2 z m 3,0 v 2 h 2 v -2 z m 3,0 v 2 h 2 v -2 z m 3,0 v 2 h 2 v -2 z m 3,0 v 2 h 2 v -2 z m 3,0 v 2 h 3 v -2 z m -19,3 v 2 h 2 v -2 z m 3,0 v 2 h 2 v -2 z m 3,0 v 2 h 10 v -2 z m 11,0 v 2 h 2 v -2 z m 3,0 v 2 h 2 v -2 z"
       fill="currentColor"
       id="path5" />
  </g>
</svg>
