<?xml version="1.0" encoding="UTF-8"?>
<svg xmlns="http://www.w3.org/2000/svg" xmlns:xlink="http://www.w3.org/1999/xlink" xmlns:cc="http://creativecommons.org/ns#" xmlns:dc="http://purl.org/dc/elements/1.1/" xmlns:rdf="http://www.w3.org/1999/02/22-rdf-syntax-ns#" xmlns:inkscape="http://www.inkscape.org/namespaces/inkscape" xmlns:sodipodi="http://sodipodi.sourceforge.net/DTD/sodipodi-0.dtd" width="32" height="32">
    <style type="text/css" id="current-color-scheme">.ColorScheme-Text {
        color:#fcfcfc;
      }
      .ColorScheme-Background {
        color:#eff0f1;
      }
      .ColorScheme-Highlight {
        color:#3daee9;
      }
      .ColorScheme-ViewText {
        color:#31363b;
      }
      .ColorScheme-ViewBackground {
        color:#fcfcfc;
      }
      .ColorScheme-ViewHover {
        color:#93cee9;
      }
      .ColorScheme-ViewFocus{
        color:#3daee9;
      }
      .ColorScheme-ButtonText {
        color:#31363b;
      }
      .ColorScheme-ButtonBackground {
        color:#eff0f1;
      }
      .ColorScheme-ButtonHover {
        color:#93cee9;
      }
      .ColorScheme-ButtonFocus{
        color:#3daee9;
      }</style>
    <g id="input-keyboard-brightness" transform="translate(-364,-460.36237) translate(-38,-96)">
        <rect x="402" y="556.36237" width="32" height="32" ry="0" fill="none"/>
        <path class="ColorScheme-Text" transform="translate(364,460.36237)" d="m 44,104 c 0,4 0,16 0,16 l 10,4 10,-4 v -10 h -1 v 4 c 0,0 0,3 -3,3 -3,0 -9,0 -12,0 -3,0 -3,-3 -3,-3 0,0 0,-7 0,-10 0,-3 3,-3 3,-3 l 9,0 v -1 l -9,0 c 0,0 -4,0 -4,4 z m 9.40625,0 L 49,114 h 1.300781 l 1.322266,-3 h 4.722656 l 1.349609,3 H 59 l -4.5,-10 z m 0.552734,1.69531 1.9375,4.30469 H 52.0625 Z M 45,118 h 18 v 1 H 45 Z" fill="currentColor"/>
        <path class="ColorScheme-Text" transform="translate(326,534.3622)" d="m100 25c-0.277 0-0.5 0.223-0.5 0.5v1c0 0.277 0.223 0.5 0.5 0.5s0.5-0.223 0.5-0.5v-1c0-0.277-0.223-0.5-0.5-0.5zm-3.181641 1.318359c-0.127809 0-0.255581 0.04855-0.353515 0.146485-0.195869 0.195868-0.195869 0.511162 0 0.707031l0.707031 0.707031c0.195869 0.195869 0.511163 0.195869 0.707031 0 0.195869-0.195868 0.195869-0.511162 0-0.707031l-0.707031-0.707031c-0.09793-0.09793-0.225706-0.146485-0.353516-0.146485zm6.363281 0c-0.12781 0-0.25558 0.04855-0.35352 0.146485l-0.70703 0.707031c-0.19586 0.195869-0.19586 0.511163 0 0.707031 0.19587 0.195869 0.51117 0.195869 0.70703 0l0.70704-0.707031c0.19586-0.195869 0.19586-0.511163 0-0.707031-0.0979-0.09793-0.22571-0.146485-0.35352-0.146485zm-3.18164 1.681641c-1.104569 0-2 0.895431-2 2s0.895431 2 2 2c1.10457 0 2-0.895431 2-2s-0.89543-2-2-2zm0 1v2c-0.552285 0-1-0.447715-1-1s0.447715-1 1-1zm-4.5 0.5c-0.277 0-0.5 0.223-0.5 0.5s0.223 0.5 0.5 0.5h1c0.277 0 0.5-0.223 0.5-0.5s-0.223-0.5-0.5-0.5zm8 0c-0.277 0-0.5 0.223-0.5 0.5s0.223 0.5 0.5 0.5h1c0.277 0 0.5-0.223 0.5-0.5s-0.223-0.5-0.5-0.5zm-5.974609 2.474609c-0.12781 0-0.255582 0.04855-0.353516 0.146485l-0.707031 0.707031c-0.195869 0.195869-0.195869 0.511163 0 0.707031 0.195868 0.195869 0.511162 0.195869 0.707031 0l0.707031-0.707031c0.195869-0.195869 0.195869-0.511163 0-0.707031-0.09793-0.09793-0.225706-0.146485-0.353515-0.146485zm4.949219 0c-0.12781 0-0.25558 0.04855-0.35352 0.146485-0.19586 0.195868-0.19586 0.511162 0 0.707031l0.70703 0.707031c0.19587 0.195869 0.51117 0.195869 0.70704 0 0.19586-0.195868 0.19586-0.511162 0-0.707031l-0.70704-0.707031c-0.0979-0.09793-0.2257-0.146485-0.35351-0.146485zm-2.47461 1.025391c-0.277 0-0.5 0.223-0.5 0.5v1c0 0.277 0.223 0.5 0.5 0.5s0.5-0.223 0.5-0.5v-1c0-0.277-0.223-0.5-0.5-0.5z" fill="currentColor"/>
    </g>
</svg>
