<svg id="svg15" version="1.1" viewBox="0 0 32 32" xmlns="http://www.w3.org/2000/svg">
    <style type="text/css" id="current-color-scheme">.ColorScheme-Text {color:#fcfcfc;}</style>
    <path id="rect908" d="M 10.355538,6.0425109 C 7.5314494,8.8752695 8.9434939,7.4588902 6.1194049,10.291649 c -2.824089,2.832758 0.1057285,5.55949 0.1057285,5.55949 l 9.9146556,9.884311 c 0,0 2.735699,2.921447 5.636222,0.164889 2.900523,-2.756559 1.488479,-1.340179 4.236134,-4.249138 2.747655,-2.908959 -0.165959,-5.651944 -0.165959,-5.651944 L 16,6.0462654 c 0,0 -2.820373,-2.8365131 -5.644462,-0.00375 z m 0.63168,0.6297463 c 2.194577,-2.048293 4.205015,0.1499601 4.205015,0.1499601 l 9.931802,9.9014067 c 0,0 2.221553,2.020785 0.179996,4.22163 -2.041557,2.200845 -2.041555,2.200846 -4.236133,4.249139 -2.194577,2.048292 -4.222162,-0.167057 -4.222162,-0.167057 l -9.9146559,-9.88431 c 0,0 -2.2215523,-2.020786 -0.1799956,-4.221631 C 8.7926413,8.7205505 8.7926411,8.7205502 10.987218,6.6722572 Z M 17.22166,4.9471066 c -0.332402,0.012158 -0.664082,0.039386 -0.994017,0.081602 l 0.938936,0.9360621 c 2.785053,-0.1306604 5.498199,0.9073249 7.484866,2.8635323 0.608221,0.625527 1.131966,1.3279624 1.557891,2.0894114 l -3.18945,0.0049 0.0015,0.999999 4.999994,-0.0077 -0.0015,-0.999999 -0.0061,-3.999995 -0.999999,0.00153 0.0052,3.3710906 C 26.557257,9.4988944 25.999114,8.7708251 25.357392,8.1201888 23.199473,5.9852331 20.255224,4.8369231 17.22166,4.9471066 Z M 4.0337027,19.951711 l 0.00153,0.999999 0.00613,3.999995 0.9999992,-0.0015 -0.00517,-3.37109 c 0.4616609,0.788673 1.0198036,1.516742 1.6615265,2.167378 2.4057055,2.379972 5.772979,3.520183 9.129749,3.091481 L 14.888537,25.901879 C 12.103484,26.03254 9.3903382,24.994555 7.4036714,23.038347 6.7954466,22.412822 6.2717051,21.710384 5.84578,20.948935 l 3.1894495,-0.0049 -0.00153,-0.999999 z" class="ColorScheme-Text" fill="currentColor" stroke-linecap="square" style="paint-order:markers fill stroke"/>
</svg>
