<svg viewBox="0 0 32 32" xmlns="http://www.w3.org/2000/svg">
    <style type="text/css" id="current-color-scheme">.ColorScheme-Text {color:#fcfcfc;}</style>
    <g class="ColorScheme-Text" fill="currentColor">
        <path d="m 4,12 c 0,4 0,4 0,8 0,4 4,4 4,4 H 18 V 23 H 8.0376551 C 8.0376551,23 5.0101953,23 5,20 4.9898047,17 5,15 5,12 5,9 8,9 8,9 h 16 c 0,0 3,0 3,3 0,3 0,10 0,10 h 1 c 0,0 0,-6 0,-10 C 28,8 24,8 24,8 H 8 C 8,8 4,8 4,12 Z"/>
        <path d="M 23.5,18 C 22.119288,18 21,19.119288 21,20.5 V 23 c 0,0 -2,0 -2,2 0,2 0,-1 0,1 0,2 2,2 2,2 h 5 c 0,0 2,0 2,-2 0,-2 0,1 0,-1 0,-2 -2,-2 -2,-2 V 20.5 C 26,19.119288 24.880712,18 23.5,18 Z m 0,1 c 0.828427,0 1.5,0.671573 1.5,1.5 V 23 H 22 V 20.5 C 22,19.671573 22.671573,19 23.5,19 Z" fill-rule="evenodd"/>
    </g>
</svg>
