<?xml version="1.0" encoding="UTF-8"?>
<svg xmlns="http://www.w3.org/2000/svg" xmlns:xlink="http://www.w3.org/1999/xlink" xmlns:cc="http://creativecommons.org/ns#" xmlns:dc="http://purl.org/dc/elements/1.1/" xmlns:rdf="http://www.w3.org/1999/02/22-rdf-syntax-ns#" xmlns:inkscape="http://www.inkscape.org/namespaces/inkscape" xmlns:sodipodi="http://sodipodi.sourceforge.net/DTD/sodipodi-0.dtd" width="32" height="32">
    <style type="text/css" id="current-color-scheme">
      .ColorScheme-Text {
        color:#fcfcfc;
      }
      .ColorScheme-Background {
        color:#eff0f1;
      }
      .ColorScheme-Highlight {
        color:#3daee9;
      }
      .ColorScheme-ViewText {
        color:#31363b;
      }
      .ColorScheme-ViewBackground {
        color:#fcfcfc;
      }
      .ColorScheme-ViewHover {
        color:#93cee9;
      }
      .ColorScheme-ViewFocus{
        color:#3daee9;
      }
      .ColorScheme-ButtonText {
        color:#31363b;
      }
      .ColorScheme-ButtonBackground {
        color:#eff0f1;
      }
      .ColorScheme-ButtonHover {
        color:#93cee9;
      }
      .ColorScheme-ButtonFocus{
        color:#3daee9;
      }
      .ColorScheme-NegativeText {
        color:#da4453;
      }
      </style>
    <g id="touchpad_disabled" inkscape:label="#touchpad_disabled" transform="translate(-22,0)">
      <path id="path28" class="ColorScheme-NegativeText" d="M 34,10.207 37.293,13.5 34,16.793 c 0.013,0.025 0.707,0.707 0.707,0.707 L 38,14.207 41.293,17.5 42,16.793 38.707,13.5 42,10.207 41.293,9.5 38,12.793 34.707,9.5 Z" style="fill:currentColor;fill-opacity:1;stroke:none"/>
    <path id="path24" class="ColorScheme-Text" d="m 30,4 c 0,0 -4,0 -4,4 v 17 c 0,3 3,3 3,3 h 18 c 0,0 3,0 3,-3 C 50,22 50,8 50,8 50,8 50,4 46,4 42,4 30,4 30,4 Z m -3,4 c 0,-3 3,-3 3,-3 0,0 13,0 16,0 3,0 3,3 3,3 V 22 H 27 c 0,0 0,-11 0,-14 z m 0,15 h 10 v 4 c 0,0 -6,0 -8,0 -2,0 -2,-2 -2,-2 z m 12,0 h 10 c 0,0 0,0 0,2 0,2 -2,2 -2,2 h -8 z" style="fill:currentColor;fill-opacity:0.6;stroke:none"/>
    <path id="path26" d="M 22 0 L 22 32 L 54 32 L 54 0 L 22 0 z " style="opacity:1;fill:none"/>
  </g>
</svg>
