<svg version="1.1" viewBox="0 0 16 16" xmlns="http://www.w3.org/2000/svg">
    <defs>
        <style id="current-color-scheme" type="text/css">.ColorScheme-Text {color:#fcfcfc;}</style>
    </defs>
    <path class="ColorScheme-Text" d="m 10.005155,10 v 1 H 12 V 10 Z M 4,8 v 1 h 8 V 8 Z m 0,2 v 1 H 8 V 10 Z M 4,3 c 0,0 -2,0 -2,2 0,2 0,4 0,6 0,2 2,2 2,2 h 8 c 0,0 2,0 2,-2 0,-2 0,-4 0,-6 0,-2 -2,-2 -2,-2 z m 0,1 h 8 c 0,0 1,0 1,1 0,1 0,5 0,6 0,1 -1,1 -1,1 H 4 C 4,12 3,12 3,11 3,10 3,6 3,5 3,4 4,4 4,4 Z" fill="currentColor"/>
</svg>
