<svg xmlns="http://www.w3.org/2000/svg" viewBox="0 0 16 16">
  <defs id="defs3051">
    <style type="text/css" id="current-color-scheme">.ColorScheme-Text {color:#fcfcfc;}</style>
  </defs>
 <path style="fill:currentColor;fill-opacity:1;stroke:none" 
       d="M 5,2 C 5,2 3,2 3,4 H 2 v 2 h 1 v 4 H 2 v 2 h 1 c 0,2 2,2 2,2 h 7 c 0,0 2,0 2,-2 V 4 C 14,2 12,2 12,2 Z M 4,4 C 4,3 5,3 5,3 V 13 C 5,13 4,13 4,12 4,11 4,5 4,4 Z M 6,3 h 6 c 0,0 1,0 1,1 v 8 c 0,1 -1,1 -1,1 H 6 Z"
     class="ColorScheme-Text"
     />
</svg>
