<svg xmlns="http://www.w3.org/2000/svg" viewBox="0 0 16 16">
  <defs id="defs3051">
    <style type="text/css" id="current-color-scheme">.ColorScheme-Text {color:#fcfcfc;}</style>
  </defs>
 <path style="fill:currentColor;fill-opacity:1;stroke:none" 
     d="m 2,4 v 2 c 0,2 2,2 2,2 h 2 v 2 1 l 3,3 v -3 h 3 c 0,0 2,0 2,-2 V 7 C 14,5 12,5 12,5 H 10 V 4 C 10,4 10,2 8,1.9993499 6,1.9986998 4,2 4,2 4,2 2,2 2,4 Z M 4,3 H 8 C 9,3 9,4 9,4 V 6 C 9,7 8,7 8,7 H 4 C 4,7 3,7 3,6 V 4 C 3,3 4,3 4,3 Z m 6,3 h 2 c 0,0 1,0 1,1 v 2 c 0,1 -1,1 -1,1 H 8 v 0 C 8,10 7,10 7,9 7,8 7,8 7,8 h 1 v 2 L 10,8 V 7 Z"
     class="ColorScheme-Text"
     />
</svg>
