<svg xmlns="http://www.w3.org/2000/svg" viewBox="0 0 16 16">
  <defs id="defs3051">
    <style type="text/css" id="current-color-scheme">.ColorScheme-Text {color:#fcfcfc;}.ColorScheme-NegativeText {color:#da4453;}</style>
  </defs>
  <path 
     style="fill:currentColor;fill-opacity:1;stroke:none" 
     d="M 8,2 C 6.343,2 5,3.343 5,5 H 4 c 0,0 -2,0 -2,2 0,2 0,3 0,5 0,2 2,2 2,2 H 8 V 13 H 4 C 4,13 3,13 3,12 3,11 3,8 3,7 3,6 4,6 4,6 H 5 V 7.0878906 C 4.401,7.2998906 4.001,7.865 4,8.5 4,9.328 4.672,10 5.5,10 6.328,10 7,9.328 7,8.5 6.999,7.865 6.599,7.2998906 6,7.0878906 V 6 h 4 v 2 h 1 V 6 h 1 c 0,0 1,0 1,1 0,1 0,1 0,1 h 1 C 14,8 14,8.9669198 14,6.9834599 14,5 12,5 12,5 H 11 C 11,3.343 9.657,2 8,2 Z m 0,1 c 1.105,0 2,0.895 2,2 H 6 C 6,3.895 6.895,3 8,3 Z M 5.5,8 C 5.776,8 6,8.224 6,8.5 6,8.776 5.776,9 5.5,9 5.224,9 5,8.776 5,8.5 5,8.224 5.224,8 5.5,8 Z"
     class="ColorScheme-Text"/>
  <path
     style="fill:currentColor;fill-opacity:1;stroke:none" 
     d="M 9,9.83 10.667,11.497 9,13.164 9.833,13.997 11.5,12.33 13.167,13.997 14,13.164 12.333,11.497 14,9.83 13.167,8.997 11.5,10.664 9.833,8.997 Z" 
     class="ColorScheme-NegativeText"
     />
</svg>
