<svg xmlns="http://www.w3.org/2000/svg" viewBox="0 0 16 16">
  <defs id="defs3051">
    <style type="text/css" id="current-color-scheme">.ColorScheme-Text {color:#fcfcfc;}</style>
  </defs>
 <path style="fill:currentColor;fill-opacity:1;stroke:none" 
     d="M 8,2 C 6.3431458,2 5,3.3431458 5,5 H 4 c 0,0 -2,0 -2,2 0,2 0,3 0,5 0,2 2,2 2,2 h 8 c 0,0 2,0 2,-2 0,-2 0,-3 0,-5 C 14,5 12,5 12,5 H 11 C 11,3.3431458 9.6568542,2 8,2 Z m 0,1 c 1.1045695,0 2,0.8954305 2,2 H 6 C 6,3.8954305 6.8954305,3 8,3 Z M 3,7 C 3,6 4,6 4,6 H 5 V 7.0878906 C 4.4014078,7.2995242 4.0008908,7.8650979 4,8.5 4,9.3284271 4.6715729,10 5.5,10 6.3284271,10 7,9.3284271 7,8.5 6.9991092,7.8650979 6.5985922,7.2995242 6,7.0878906 V 6 h 4 V 7.0878906 C 9.4014078,7.2995242 9.0008908,7.8650979 9,8.5 9,9.3284271 9.6715729,10 10.5,10 11.328427,10 12,9.3284271 12,8.5 11.999109,7.8650979 11.598592,7.2995242 11,7.0878906 V 6 h 1 c 0,0 1,0 1,1 0,1 0,4 0,5 0,1 -1,1 -1,1 H 4 C 4,13 3,13 3,12 3,11 3,8 3,7 Z M 5.5,8 C 5.7761424,8 6,8.2238576 6,8.5 6,8.7761424 5.7761424,9 5.5,9 5.2238576,9 5,8.7761424 5,8.5 5,8.2238576 5.2238576,8 5.5,8 Z m 5,0 C 10.776142,8 11,8.2238576 11,8.5 11,8.7761424 10.776142,9 10.5,9 10.223858,9 10,8.7761424 10,8.5 10,8.2238576 10.223858,8 10.5,8 Z"
     class="ColorScheme-Text"
     />
</svg>
