<svg xmlns="http://www.w3.org/2000/svg" viewBox="0 0 16 16">
  <defs id="defs3051">
    <style type="text/css" id="current-color-scheme">
      .ColorScheme-Text {
        color:#eff0f1;
      }
      .ColorScheme-NegativeText {
        color:#da4453;
      }
      </style>
  </defs>
  <path
     style="fill:currentColor;fill-opacity:1;stroke:none" 
     class="ColorScheme-NegativeText"
     d="m 2,4 c 0,2 0,6 0,8 0,2 2,2 2,2 h 8 c 0,0 2,0 2,-2 0,-2 0,-5.9823448 0,-7.9911724 C 14,2 12,2 12,2 H 4 C 4,2 2,2 2,4 Z m 2,1 h 8 c 0,0 1,0 1,1 0,1 0,5 0,6 0,1 -1,1 -1,1 H 4 C 4,13 3,13 3,12 3,11 3,7 3,6 3,5 4,5 4,5 Z m 2,4 c 0,1 1,1 1,1 H 9 C 9,10 9.9988542,10 10,9.0022969 10.001146,8.0045938 9,8 9,8 H 7 C 7,8 6,8 6,9 Z"
      />
</svg>
