<svg viewBox="0 0 16 16" xmlns="http://www.w3.org/2000/svg"><style type="text/css" id="current-color-scheme">.ColorScheme-Text{color:#fcfcfc;}.ColorScheme-NegativeText{color:#da4453;}</style><path d="M 2,3.9867444 C 2,3.9867444 2,10 2,12 c 0,2 2,2 2,2 H 9 V 13 H 4 C 4,13 3,13 3,12 3,11 3,4 3,4 3,3 4,3 4,3 H 8 V 4 H 9 V 3 h 3.002696 C 12.002696,3 13,3 13,4 v 5 h 1 V 4.0610733 C 14,2 12,2 12,2 H 4 C 4,2 2,2 2,3.9867444 Z M 8,4 H 7 V 5 H 8 Z M 8,5 V 6 H 9 V 5 Z M 8,6 H 7 V 7 8 H 9 V 7 H 8 Z" style="fill:currentColor;fill-opacity:1;stroke:none" class="ColorScheme-Text"/><path d="m9.0000005 11h4.9999995v1h-4.9999995z" style="fill:currentColor;fill-opacity:1;stroke:none" class="ColorScheme-NegativeText"/></svg>
