<svg viewBox="0 0 16 16" xmlns="http://www.w3.org/2000/svg"><style type="text/css" id="current-color-scheme">.ColorScheme-Text{color:#fcfcfc;}</style><g style="fill:currentColor;fill-opacity:1;stroke:none" class="ColorScheme-Text"><path d="M 2,3.9867444 C 2,3.9867444 2,10 2,12 c 0,2 2,2 2,2 H 9 V 13 H 4 C 4,13 3,13 3,12 3,11 3,4 3,4 3,3 4,3 4,3 H 8 V 4 H 9 V 3 h 3.002696 C 12.002696,3 13,3 13,4 v 5 h 1 V 4.0610733 C 14,2 12,2 12,2 H 4 C 4,2 2,2 2,3.9867444 Z M 8,4 H 7 V 5 H 8 Z M 8,5 V 6 H 9 V 5 Z M 8,6 H 7 V 7 8 H 9 V 7 H 8 Z"/><path d="m11.5 8-2.5 2.5.7070312.707031 1.2929688-1.2929685v4.0859375h1v-4.0859375l1.292969 1.2929685.707031-.707031z"/></g></svg>
