<!DOCTYPE svg>
<svg version="1.1" viewBox="0 0 16 16" xmlns="http://www.w3.org/2000/svg">
    <defs>
        <style id="current-color-scheme" type="text/css">.ColorScheme-Text {color:#fcfcfc;}</style>
    </defs>
    <path class="ColorScheme-Text" style="fill:currentColor; fill-opacity:1; stroke:none" d="m 8,3 h 5 v 9 c 0,1 -1,1 -1,1 H 8 Z M 4,3 h 9 V 9 L 11,7 7.65625,10.3438 6.3125,9 H 6.2813 L 3,12.2813 V 4 C 3,3 4,3 4,3 Z M 2,4 v 8 c 0,2 2,2 2,2 h 8 c 0,0 2,0 2,-2 0,0 0,-6 0,-8 C 14,2 12,2 12,2 H 4 C 4,2 2,2 2,4 Z M 6,4 C 4.89543,4 4,4.89543 4,6 4,7.10457 4.89543,8 6,8 7.10457,8 8,7.10457 8,6 8,4.89543 7.10457,4 6,4 Z"/>
</svg>
