<svg xmlns="http://www.w3.org/2000/svg" viewBox="0 0 16 16">
  <defs id="defs3051">
    <style type="text/css" id="current-color-scheme"> .ColorScheme-Text { color:#fcfcfc; } </style>
  </defs>
 <path style="fill:currentColor;fill-opacity:1;stroke:none" 
       d="m 4,2 c 0,0 -2,0 -2,2 0,2 0,6 0,8 0,2 2,2 2,2 H 8 V 13 H 4 C 4,13 3,13 3,12 3,11 3,7 3,6 3,5 4,5 4,5 h 8 c 0,0 1,0 1,1 0,1 0,2 0,2 h 1 C 14,8 14,6 14,4 14,2 12,2 12,2 Z m 7,6 v 2 H 8 v 2 h 3 v 2 l 3,-3 z"
     class="ColorScheme-Text"
     />
</svg>
