<svg xmlns="http://www.w3.org/2000/svg" viewBox="0 0 16 16">
  <defs id="defs3051">
    <style type="text/css" id="current-color-scheme">.ColorScheme-Text {color:#fcfcfc;}.ColorScheme-NegativeText {color:#da4453;}</style>
  </defs>
 <path style="fill:currentColor;fill-opacity:1;stroke:none" 
     d="M 12,2 H 4 c 0,0 -2,0 -2,2 0,2 0,6 0,8 0,2 2,2 2,2 l 8,0 c 0,0 2,0 2,-2 0,-2 0,-6.0072045 0,-8.0036022 C 14,2 12,2 12,2 Z m 1,2 c 0,1 0,7 0,8 0,1 -1,1 -1,1 l -2,0 V 11 H 9 v 2 H 7 V 11 H 6 v 2 H 4 C 4,13 3,13 3,12 3,11 3,5 3,4 3,3 4,3 4,3 H 6 V 5 H 7 V 3 h 2 v 2 h 1 V 3 h 2 c 0,0 1,0 1,1 z"
     class="ColorScheme-Text"
     /> 
 <path
       d="M 13,5 3,5 3,6.719 6.281,10 3,10 l 0,1 10,0 0,-1 -1.281,0 -4,-4 2.563,0 2.719,2.719 0,-1.438 L 11.72,6 13.001,6 Z m -2.719,5 -2.563,0 -4,-4 2.563,0 z"
     style="fill:currentColor;fill-opacity:1;stroke:none" 
     class="ColorScheme-NegativeText"
      />
</svg>
