<svg xmlns="http://www.w3.org/2000/svg" viewBox="0 0 16 16">
  <defs id="defs3051">
    <style type="text/css" id="current-color-scheme">.ColorScheme-Text {color:#fcfcfc;}.ColorScheme-NegativeText {color:#da4453;}</style>
  </defs>
 <path style="fill:currentColor;fill-opacity:1;stroke:none" 
       d="m 4,2 c 0,0 -2,0 -2,2 0,2 0,7 0,7 l 3,3 V 11 H 7 V 10 H 4 C 4,10 3,10 3,9 3,7.5409734 3,4.7472602 3,4 3,3 4,3 4,3 h 8 c 0,0 1,0 1,1 0,1 0,3 0,3 h 1 C 14,7 14,6 14,4 14,2 12,2 12,2 Z"
     class="ColorScheme-Text"
     />
  <path
     style="fill:currentColor;fill-opacity:1;stroke:none" 
     class="ColorScheme-NegativeText"
     d="M 8.99,8 8,8.99 10.01,11 8,13.01 8.99,14 11,11.99 13.01,14 14,13.01 11.99,11 14,8.99 13.01,8 11,10.01 Z" />
</svg>
