<?xml version="1.0" encoding="UTF-8" standalone="no"?>
<svg
  viewBox="0 0 16 16"
  version="1.1"
  id="svg1"
  xmlns="http://www.w3.org/2000/svg"
  xmlns:svg="http://www.w3.org/2000/svg">
 <defs
   id="defs3051">
  <style
    type="text/css"
    id="current-color-scheme">
      .ColorScheme-Text {
        color:#fcfcfc;
      }
      </style>
 </defs>
 <path
   style="fill:currentColor;fill-opacity:1;stroke:none"
   d="m 4,2 c 0,0 -2,0 -2,2 0,2 0,6 0,8 0,2 2,2 2,2 h 8 c 0,0 2,0 2,-2 0,-2 0,-6 0,-8 0,-2 -2,-2 -2,-2 z m 0,1 h 8 c 0,0 1,0 1,1 0,1 0,7 0,8 0,1 -1,1 -1,1 H 4 C 4,13 3,13 3,12 3,11 3,5 3,4 3,3 4,3 4,3 Z M 4.71875,4 4,4.6875 6.625,7.5 4.03125,10.3125 4.71875,11 7.6875,7.84375 8,7.5 7.6875,7.15625 Z M 8,11 v 1 h 4 v -1 z"
   class="ColorScheme-Text"
   id="path1" />
</svg>
