<svg xmlns="http://www.w3.org/2000/svg" viewBox="0 0 16 16">
  <defs id="defs3051">
    <style type="text/css" id="current-color-scheme">.ColorScheme-Text {color:#fcfcfc;}.ColorScheme-Highlight {color:#3daee9;}</style>
  </defs>
  <path 
        style="fill:currentColor;fill-opacity:1;stroke:none"
        d="M 4,2 C 4,2 2,2 2,4 2,6 2,7 2,7 H 7 V 2 Z m 5,0 v 5 h 5 C 14,7 14,6 14,4 14,2 11.986191,2 11.986191,2 Z M 4,3 H 6 V 6 H 3 C 3,6 3,5 3,4 3,3 4,3 4,3 Z m 6,0 h 2 c 0,0 1,0 1,1 0,1 0,2 0,2 H 10 Z M 2,9 c 0,0 0,1 0,3 0,2 2,2 2,2 l 3,0 V 9 Z m 1,1 h 3 v 3 H 4 c 0,0 -1,0 -1,-1 0,-1 0,-2 0,-2 z"
        class="ColorScheme-Text"
        />
  <path 
        style="fill:currentColor;fill-opacity:1;stroke:none"
        d="M 11.5,8 A 1.5,1.5 0 0 0 10,9.5 l 0,1.5 -1,0 0,3 5,0 0,-3 -1,0 0,-1.5 A 1.5,1.5 0 0 0 11.5,8 m 0,1 A 0.5,0.5 0 0 1 12,9.5 l 0,1.5 -1,0 0,-1.5 A 0.5,0.5 0 0 1 11.5,9"
        class="ColorScheme-Highlight"
        />
</svg>
