<svg viewBox="0 0 16 16" xmlns="http://www.w3.org/2000/svg">
<style type="text/css" id="current-color-scheme">.ColorScheme-Text {color:#fcfcfc;}</style>
    <g class="ColorScheme-Text" fill="currentColor">
        <path d="m 3,2 v 4 h 11 c 0,0 0,3 0,4 0,1 -1,1 -1,1 H 12 V 7 h -1 v 4 H 7 v 1 h 4 v 1 h 1 v -1 h 1 c 0,0 2,0 2,-2 0,-3 0,-8 0,-8 z M 4,3 H 5 V 4 H 7 V 3 h 4 v 1 h 2 V 3 h 1 V 5 H 4 Z"/>
        <path d="M3.5 7A2.5 2.5 0 0 0 1 9.5v1.973a2.5 2.5 0 0 0 0 .027A2.5 2.5 0 0 0 3.5 14 2.5 2.5 0 0 0 6 11.5V9.527A2.5 2.5 0 0 0 6 9.5 2.5 2.5 0 0 0 3.5 7zm0 1A1.5 1.5 0 0 1 5 9.5v1.955a1.5 1.5 0 0 1 0 .045A1.5 1.5 0 0 1 3.5 13 1.5 1.5 0 0 1 2 11.5V9.545A1.5 1.5 0 0 1 2 9.5 1.5 1.5 0 0 1 3.5 8zM3 9v1h1V9z"/>
    </g>
</svg>
