<!DOCTYPE svg>
<svg viewBox="0 0 16 16" version="1.1" xmlns="http://www.w3.org/2000/svg">
    <defs>
<style type="text/css" id="current-color-scheme">.ColorScheme-Text {color:#fcfcfc;}</style>
    </defs>
    <path class="ColorScheme-Text" style="fill:currentColor; fill-opacity:1; stroke:none" d="M 1,13 C 1,11 1,5 1,3 1,1 3,1 3,1 h 10 c 0.6667,0.66667 1.3333,1.33333 2,2 0,0 0,8 0,10 0,2 -2,2 -2,2 H 3 c 0,0 -2,0 -2,-2 z m 2,1 h 10 c 0,0 1,0 1,-1 0,-1 0,-9 0,-9 H 12 V 2 H 3 c 0,0 -1,0 -1,1 0,1 0,9 0,10 0,1 1,1 1,1 z M 3,12 V 4 h 4 v 8 z m 6,0 V 4 h 2 v 1 h -1 v 6 h 2 V 5 h 1 v 7 z M 4,11 H 6 V 5 H 4 Z"/>
</svg>
