<svg xmlns="http://www.w3.org/2000/svg" viewBox="0 0 16 16">
  <defs id="defs3051">
<style type="text/css" id="current-color-scheme">.ColorScheme-Text {color:#fcfcfc;}</style>
  </defs>
 <path style="fill:currentColor;fill-opacity:1;stroke:none" 
     d="m 1,3 c 0,2 0,8 0,10 0,2 2,2 2,2 h 10 c 0,0 2,0 2,-2 C 15,11 15,5 15,3 15,1 13,1 13,1 H 3 C 3,1 1,1 1,3 Z M 3,2 h 10 c 0,0 1,0 1,1 0,1 0,9 0,10 0,1 -1,1 -1,1 H 3 C 3,14 2,14 2,13 2,12 2,4 2,3 2,2 3,2 3,2 Z m 1,1 v 4 h 8 V 3 Z m 1,1 h 6 V 6 H 5 Z M 4,9 v 4 h 8 V 9 Z m 1,1 h 6 v 2 H 5 Z"
     class="ColorScheme-Text"
     />
</svg>
