<!DOCTYPE svg>
<svg viewBox="0 0 16 16" version="1.1" xmlns="http://www.w3.org/2000/svg">
    <defs>
<style type="text/css" id="current-color-scheme">.ColorScheme-Text {color:#fcfcfc;}</style>
    </defs>
    <path class="ColorScheme-Text" style="fill:currentColor; fill-opacity:1; stroke:none" d="M 15,13 C 15,11 15,3 15,3 14.3333,2.33333 13.6667,1.66667 13,1 H 3 c 0,0 -2,0 -2,2 0,2 0,8 0,10 0,2 2,2 2,2 h 10 c 0,0 2,0 2,-2 z m -1,0 c 0,1 -1,1 -1,1 H 3 C 3,14 2,14 2,13 2,12 2,4 2,3 2,2 3,2 3,2 h 9 v 2 h 2 c 0,0 0,8 0,9 z m -2,0 V 9 H 4 v 4 z M 11,12 H 5 v -2 h 6 z M 12,7 V 5 H 11 V 6 H 5 V 4 h 6 V 3 H 4 v 4 z"/>
</svg>
