<svg xmlns="http://www.w3.org/2000/svg" viewBox="0 0 16 16">
  <defs id="defs3051">
    <style type="text/css" id="current-color-scheme">.ColorScheme-Text {color:#fcfcfc;}</style>
  </defs>
 <path style="fill:currentColor;fill-opacity:1;stroke:none" 
     d="m 2,4 c 0,2 0,6 0,8 0,2 2,2 2,2 h 8 c 0,0 2,0 2,-2 0,-2 0,-4 0,-6 C 14,4 12,4 12,4 H 9.0078125 l -2,-2 L 7,2.0078125 V 2 H 4 C 4,2 2,2 2,4 Z M 4,3 H 6.5917969 L 7.59375,4 H 7 v 0.00781 L 6.9921875,4 l -2,2 H 3 C 3,6 3,5 3,4 3,3 4,3 4,3 Z M 2.967002,8 C 3,7 4,7 4,7 h 8 c 0,0 1,0 1,1 0,1 0,3 0,4 0,1 -1,1 -1,1 H 4 C 4,13 3,13 3,12 3,11 2.934004,9 2.967002,8 Z"
     class="ColorScheme-Text"
     />
</svg>
