<svg viewBox="0 0 16 16" xmlns="http://www.w3.org/2000/svg">
    <style type="text/css" id="current-color-scheme">.ColorScheme-Text {color:#fcfcfc;}</style>
    <path d="m 5,2 c 0,0 -2,0 -2,2 0,2 0,6 0,8 0,2 2,2 2,2 h 5.5 C 11.885,14 13,12.885 13,11.5 13,10.115 11.885,9 10.5,9 H 8.7070312 L 10.207031,7.5 9.5,6.7929688 6.7929688,9.5 9.5,12.207031 10.207031,11.5 8.7070312,10 H 10.5 c 0.831,0 1.5,0.669 1.5,1.5 0,0.831 -0.669,1.5 -1.5,1.5 H 5 C 5,13 4,13 4,12 4,11 4,5 4,4 4,3 5,3 5,3 h 4 v 3 h 3 v 2 h 1 V 5 L 10,2 Z" class="ColorScheme-Text" fill="currentColor"/>
</svg>
