<svg version="1.1" viewBox="0 0 16 16" xmlns="http://www.w3.org/2000/svg">
    <defs>
    <style type="text/css" id="current-color-scheme">.ColorScheme-Text {color:#fcfcfc;}</style>
    </defs>
    <path style="fill:currentColor;fill-opacity:1;stroke:none"
          d="m 9.0000002,9 v 3 H 11 V 11 H 10 V 9 Z M 10,8 c -1.6619998,0 -2.9999998,1.338 -2.9999998,3 0,1.662 1.338,3 2.9999998,3 1.662,0 3,-1.338 3,-3 0,-1.662 -1.338,-3 -3,-3 z m 0,1 c 1.104569,0 2,0.8954305 2,2 0,1.104569 -0.895431,2 -2,2 C 8.8954306,13 8.0000002,12.104569 8.0000002,11 8.0000002,9.8954306 8.8954306,9.0000001 10,9 Z M 3,4 c 0,2 0,6 0,8 0,2 2,2 2,2 H 7 V 13 H 5 C 5,13 4,13 4,12 4,11 4,5 4,4 4,3 5,3 5,3 h 4 v 3 h 3 v 2 h 1 V 5 L 10,2 H 9 5 C 5,2 3,2 3,4 Z"
          class="ColorScheme-Text"
    />
</svg>
