<svg viewBox="0 0 16 16" version="1.1" xmlns="http://www.w3.org/2000/svg">
    <defs>
    <style type="text/css" id="current-color-scheme">.ColorScheme-Text {color:#fcfcfc;}</style>
    </defs>
    <path class="ColorScheme-Text" style="fill:currentColor; fill-opacity:1; stroke:none" d="m 13,5 c 0,0 0,3 0,5 0,2 -2,2 -2,2 H 8.91406 L 10.5352,13.6211 9.82812,14.3281 7,11.5 9.82812,8.67188 10.5352,9.37891 8.91406,11 H 11 c 0,0 1,0 1,-1 0,-1 0,-4 0,-4 H 9 V 3 H 5 C 5,3 4,3 4,4 v 8 c 0,1 1,1 1,1 h 2 v 1 H 5 C 5,14 3,14 3,12 V 4 C 3,2 5,2 5,2 h 5 z"/>
</svg>
