<svg version="1.1" viewBox="0 0 16 16" xmlns="http://www.w3.org/2000/svg">
    <style type="text/css" id="current-color-scheme">.ColorScheme-Text {color:#fcfcfc;}</style>
    <path class="ColorScheme-Text" d="m 13,4 c 0,2 0,6 0,8 0,2 -2,2 -2,2 H 5.5 C 4.115,14 3,12.885 3,11.5 3,10.115 4.115,9 5.5,9 H 7.2929688 L 5.792969,7.5 6.5,6.7929688 9.2070312,9.5 6.5,12.207031 5.792969,11.5 7.2929688,10 H 5.5 C 4.669,10 4,10.669 4,11.5 4,12.331 4.669,13 5.5,13 H 11 c 0,0 1,0 1,-1 0,-1 0,-7 0,-8 C 12,3 11,3 11,3 H 7 V 6 H 4 V 8 H 3 V 5 L 6,2 h 5 c 0,0 2,0 2,2 z" fill="currentColor"/>
</svg>
