<svg xmlns="http://www.w3.org/2000/svg" viewBox="0 0 16 16">
  <defs id="defs3051">
    <style type="text/css" id="current-color-scheme">.ColorScheme-Text {color:#fcfcfc;}</style>
  </defs>
 <path style="fill:currentColor;fill-opacity:1;stroke:none" 
     d="m 2,4 v 7 H 3 C 3,11 3,9 3,8 3,7 4,7 4,7 h 8 c 0,0 1,0 1,1 0,1 0,3 0,3 h 1 C 14,11 14,8 14,6 14,4 12,4 12,4 H 9.0078125 l -2,-2 L 7,2.0078125 V 2 H 4 C 4,2 2,2 2,4 Z M 4,3 H 6.5917969 L 7.59375,4 H 7 v 0.00781 L 6.9921875,4 l -2,2 H 3 C 3,6 3,5 3,4 3,3 4,3 4,3 Z m 2,8 v 1 H 2 v 1 h 4 v 1 h 4 v -1 h 4 v -1 h -4 v -1 z m 1,1 h 1 1 v 1 H 8 7 Z"
     class="ColorScheme-Text"
     />
</svg>
