<!DOCTYPE svg>
<svg viewBox="0 0 16 16" version="1.1" xmlns="http://www.w3.org/2000/svg">
    <defs>
    <style type="text/css" id="current-color-scheme">.ColorScheme-Text {color:#fcfcfc;}</style>
    </defs>
    <path class="ColorScheme-Text" style="fill:currentColor; fill-opacity:1; stroke:none" d="m 3,4 c 0,2 0,6 0,8 0,2 2,2 2,2 H 7 V 13 H 5 C 5,13 4,13 4,12 4,11 4,5 4,4 4,3 5,3 5,3 h 4 v 3 h 3 v 1 h 1 V 5 L 10,2 H 5 C 5,2 3,2 3,4 Z m 9,4 -4,4 v 2 h 2 l 4,-4 z m -0.3106,1.68945 0.5919,0.59185 -2.9688,3 -0.59375,-0.5938 z"/>
</svg>
