<svg xmlns="http://www.w3.org/2000/svg" viewBox="0 0 16 16">
  <defs id="defs3051">
    <style type="text/css" id="current-color-scheme">.ColorScheme-Text {color:#fcfcfc;}</style>
  </defs>
 <path style="fill:currentColor;fill-opacity:1;stroke:none" 
     d="m 5,2 c 0,0 -2,0 -2,2 0,2 0,6 0,8 0,2 2,2 2,2 H 9 V 13 H 5 C 5,13 4,13 4,12 4,11 4,5 4,4 4,3 5,3 5,3 h 4 v 3 h 3 v 3 h 1 V 7 6 5 L 10,2 H 8 Z M 11.5,9 11.021484,10.345703 9.7324219,9.7324219 10.345703,11.021484 9,11.5 10.345703,11.978516 9.7324219,13.267578 11.021484,12.654297 11.5,14 11.978516,12.654297 13.267578,13.267578 12.654297,11.978516 14,11.5 12.654297,11.021484 13.267578,9.7324219 11.978516,10.345703 Z"
     class="ColorScheme-Text"
     />
</svg>
