<svg version="1.1" viewBox="0 0 16 16" xmlns="http://www.w3.org/2000/svg">
    <defs>
<style type="text/css" id="current-color-scheme">.ColorScheme-Text {color:#fcfcfc;}</style>
    </defs>
    <path class="ColorScheme-Text" style="fill:currentColor;fill-opacity:1;stroke:none" d="M 3,4 C 3,6 3,7 3,7 H 4 C 4,7 4,5 4,4 4,3 5,3 5,3 h 4 v 3 h 3 v 1 h 1 V 6 5 L 10,2 H 9 5 C 5,2 3,2 3,4 Z M 2,8 V 9 H 14 V 8 Z m 1,2 v 2 h 1 v -2 z m 9,0 v 2 h 1 v -2 z m -9,3 v 1 h 2 v -1 z m 4,0 v 1 h 2 v -1 z m 4,0 v 1 h 2 v -1 z"/>
</svg>
