<!DOCTYPE svg>
<svg viewBox="0 0 16 16" version="1.1" xmlns="http://www.w3.org/2000/svg">
    <defs>
    <style type="text/css" id="current-color-scheme">.ColorScheme-Text {color:#fcfcfc;}</style>
    </defs>
    <path class="ColorScheme-Text" style="fill:currentColor; fill-opacity:1; stroke:none" d="m 7,12 h 4.0859 L 9.46484,13.6211 10.1719,14.3281 13,11.5 10.1719,8.67187 9.46484,9.37891 11.0859,11 H 7 Z M 4,12 C 4,11 4,5 4,4 4,3 5,3 5,3 h 4 v 3 h 3 v 3 h 1 V 5 L 10,2 H 5 c 0,0 -2,0 -2,2 0,2 0,6 0,8 0,2 2,2 2,2 H 8 V 13 H 5 c 0,0 -1,0 -1,-1 z"/>
</svg>
