<svg xmlns="http://www.w3.org/2000/svg" viewBox="0 0 16 16">
  <defs id="defs3051">
<style type="text/css" id="current-color-scheme">.ColorScheme-Text {color:#fcfcfc;}</style>
  </defs>
 <path style="fill:currentColor;fill-opacity:1;stroke:none" 
       d="M 10.171875,1.671875 9.4648438,2.3789062 10.414062,3.328125 11.085938,4 H 9 7 v 1 h 1 1 2.085938 L 10.414062,5.671875 9.4648438,6.6210938 10.171875,7.328125 11.121094,6.3789062 13,4.5 11.121094,2.6210938 Z m -4.34375,2 L 4.8789062,4.6210938 3,6.5 4.8789062,8.3789062 5.828125,9.328125 6.5351562,8.6210938 5.5859375,7.671875 4.9140625,7 H 7 8 9 V 6 H 7 4.9140625 L 5.5859375,5.328125 6.5351562,4.3789062 Z M 12,7 v 3 H 9 v 3 H 5 C 5,13 4,13 4,12 4,11 4,9 4,9 H 3 c 0,0 0,1 0,3 0,2 2,2 2,2 h 4 1 l 3,-3 V 10 7 Z"
     class="ColorScheme-Text"
     />
</svg>
