<!DOCTYPE svg>
<svg viewBox="0 0 16 16" version="1.1" xmlns="http://www.w3.org/2000/svg">
    <defs>
        <style type="text/css" id="current-color-scheme">.ColorScheme-Text {color:#fcfcfc;}</style>
    </defs>
    <path class="ColorScheme-Text" style="fill:currentColor; fill-opacity:1; stroke:none" d="m 3,4 c 0,2 0,6 0,8 0,2 2,2 2,2 H 8 V 13 H 5 C 5,13 4,13 4,12 4,11 4,5 4,4 4,3 5,3 5,3 h 4 v 3 h 3 v 1 h 1 V 5 L 10,2 H 5 C 5,2 3,2 3,4 Z m 8.5,4 C 10.6716,8 10,8.67157 10,9.5 V 11 c 0,0 -1,0 -1,1 0,1 0,0 0,1 0,1 1,1 1,1 h 3 c 0,0 1,0 1,-1 0,-1 0,0 0,-1 0,-1 -1,-1 -1,-1 V 9.5 C 13,8.67157 12.3284,8 11.5,8 Z m 0,1 C 11.7761,9 12,9.22386 12,9.5 V 11 H 11 V 9.5 C 11,9.22386 11.2239,9 11.5,9 Z"/>
</svg>
