<svg xmlns="http://www.w3.org/2000/svg" viewBox="0 0 16 16">
  <defs id="defs3051">
    <style type="text/css" id="current-color-scheme">.ColorScheme-Text {color:#bebebe;}</style>
  </defs>
 <path style="fill:currentColor;fill-opacity:1;stroke:none" 
     d="m 3,4 c 0,2 0,6 0,8 0,2 2,2 2,2 h 6 c 0,0 2,0 2,-2 0,-2 0,-7 0,-7 L 10,2 H 5 C 5,2 3,2 3,4 Z M 4,4 C 4,3 5,3 5,3 h 4 v 3 h 3 c 0,0 0,5 0,6 0,1 -1,1 -1,1 H 5 C 5,13 4,13 4,12 4,11 4,5 4,4 Z M 7.4550781,6 C 6.8367377,6.0195037 6.293799,6.4166245 6.0878906,7 H 5 V 8 H 6.0878906 C 6.2995242,8.5985922 6.8650979,8.9991092 7.5,9 8.1349021,8.9991092 8.7004758,8.5985922 8.9121094,8 H 11 V 7 H 8.9121094 C 8.7004758,6.4014078 8.1349021,6.0008908 7.5,6 7.4850269,5.9997758 7.4700512,5.9997758 7.4550781,6 Z M 7.5,7 C 7.7761424,7 8,7.2238576 8,7.5 8,7.7761424 7.7761424,8 7.5,8 7.2238576,8 7,7.7761424 7,7.5 7,7.2238576 7.2238576,7 7.5,7 Z M 8.4550781,9 C 7.8367377,9.0195037 7.293799,9.4166245 7.0878906,10 H 5 v 1 H 7.0878906 C 7.2995242,11.598592 7.8650979,11.999109 8.5,12 9.1349021,11.999109 9.7004758,11.598592 9.9121094,11 H 11 V 10 H 9.9121094 C 9.7004758,9.4014078 9.1349021,9.0008908 8.5,9 8.4850269,8.9997758 8.4700512,8.9997758 8.4550781,9 Z M 8.5,10 C 8.7761424,10 9,10.223858 9,10.5 9,10.776142 8.7761424,11 8.5,11 8.2238576,11 8,10.776142 8,10.5 8,10.223858 8.2238576,10 8.5,10 Z"
     class="ColorScheme-Text"
     />
</svg>
