<svg xmlns="http://www.w3.org/2000/svg" viewBox="0 0 16 16">
  <defs id="defs3051">
    <style type="text/css" id="current-color-scheme">.ColorScheme-Text {color:#fcfcfc;}</style>
  </defs>
 <path style="fill:currentColor;fill-opacity:1;stroke:none" 
     d="M 3,2 V 4 H 5 V 2 Z M 5,4 V 6 H 7 V 4 Z M 7,4 H 9 V 2 H 7 Z m 2,0 v 2 h 2 V 4 Z m 2,0 h 2 V 2 H 11 Z M 9,6 C 7.338,6 6,7.338 6,9 c 0,1.662 1.338,3 3,3 0.64939,0 1.26003,-0.2145 1.75,-0.5625 L 13.28125,14 14,13.28125 11.4375,10.75 C 11.78555,10.2601 12,9.6494 12,9 12,7.338 10.662,6 9,6 Z M 3,6 c 0,0 0,4 0,6 0,2 2,2 2,2 H 9 V 13 H 5 C 5,13 4,13 4,12 4,11 4,6 4,6 Z m 6,1 c 1.108,0 2,0.892 2,2 0,1.108 -0.892,2 -2,2 C 7.892,11 7,10.108 7,9 7,7.892 7.892,7 9,7 Z"
     class="ColorScheme-Text"
     />
</svg>
