<svg xmlns="http://www.w3.org/2000/svg" viewBox="0 0 16 16">
  <defs id="defs3051">
<style type="text/css" id="current-color-scheme">.ColorScheme-Text {color:#fcfcfc;}</style>
  </defs>
 <path style="fill:currentColor;fill-opacity:1;stroke:none" 
     d="M 4,2 C 4,2 2,2 2,4 2,6 2,5 2,5 H 3 C 3,5 3,5 3,4 3,3 4,3 4,3 H 5 V 2 Z m 2,0 v 1 h 4 V 2 Z m 5,0 v 1 h 1 c 0,0 1,0 1,1 0,1 0,1 0,1 h 1 C 14,5 14,6 14,4 14,2 12,2 12,2 Z M 7.8554688,4 C 7.1506154,4 6.5325467,4.1658269 6,4.4980469 l 0.2109375,0.6601562 c 0.53646,-0.30364 1.0476431,-0.4570312 1.5332031,-0.4570312 0.4033267,0 0.7123611,0.09583 0.9277344,0.2851562 0.2153733,0.18576 0.3242188,0.4670498 0.3242188,0.8457031 0,0.2071934 -0.054416,0.4351607 -0.1640626,0.6816407 C 8.7263046,6.7565852 8.5941333,6.9969881 8.4375,7.2363281 8.2808667,7.4756681 8.1214842,7.7229358 7.9609375,7.9765625 7.8043042,8.2301892 7.6682546,8.5091929 7.5507812,8.8164062 7.4372079,9.1200463 7.3750146,9.4203035 7.3632812,9.7167969 H 7.890625 C 8.0041783,9.3738635 8.15579,9.0494008 8.34375,8.7421875 8.53563,8.4314075 8.7222171,8.1694181 8.9023438,7.9550781 9.0863838,7.7407448 9.2613075,7.5248802 9.4296875,7.3105469 9.6019875,7.0962135 9.7399902,6.8652877 9.8417969,6.6152344 9.9475235,6.365181 10,6.095994 10,5.8066406 10,5.4922873 9.9416921,5.2162354 9.8242188,4.9804688 9.7106587,4.7411287 9.5512763,4.5514294 9.3476562,4.4121094 9.1479496,4.272796 8.9224883,4.1694358 8.671875,4.1015625 8.4212617,4.0336892 8.1491487,4 7.8554688,4 Z M 2,6 v 4 H 3 V 6 Z m 11,0 v 4 h 1 V 6 Z m -5.390625,4.816406 c -0.2192867,0 -0.388386,0.05561 -0.5058594,0.169922 -0.11356,0.114313 -0.1699218,0.253649 -0.1699218,0.417969 0,0.164327 0.056362,0.305948 0.1699218,0.423828 C 7.220989,11.942438 7.3900883,12 7.609375,12 c 0.21928,0 0.38644,-0.05756 0.5,-0.171875 0.11356,-0.114307 0.1699219,-0.255928 0.1699219,-0.423828 0,-0.16432 -0.056362,-0.303656 -0.1699219,-0.417969 -0.11356,-0.114307 -0.28072,-0.169922 -0.5,-0.169922 z M 2,11 c 0,0 0,-1 0,1 0,2 2,2 2,2 H 5 V 13 H 4 c 0,0 -1,0 -1,-1 0,-1 0,-1 0,-1 z m 11,0 c 0,0 0,0 0,1 0,1 -1,1 -1,1 h -1 v 1 h 1 c 0,0 2,0 2,-2 0,-2 0,-1 0,-1 z m -7,2 v 1 h 4 v -1 z"
     class="ColorScheme-Text"
     />
</svg>
