<!DOCTYPE svg>
<svg viewBox="0 0 16 16" version="1.1" xmlns="http://www.w3.org/2000/svg">
    <defs>
<style type="text/css" id="current-color-scheme">.ColorScheme-Text {color:#fcfcfc;}</style>
    </defs>
    <path class="ColorScheme-Text" style="fill:currentColor; fill-opacity:1; stroke:none" d="m 3,4 c 0,2 0,6 0,8 0,2 2,2 2,2 0,0 4,0 6,0 2,0 2,-2 2,-2 V 5 L 10,2 H 5 C 5,2 3,2 3,4 Z M 4,4 C 4,3 5,3 5,3 v 8 H 4 C 4,11 4,5 4,4 Z M 6,3 h 3 v 3 h 3 v 5 H 6 Z m 3,3 -2,2 2,2 z m -5,6 h 1 v 1 H 4 Z m 2,0 h 6 c 0,0 0,1 -1,1 -1,0 -5,0 -5,0 z"/>
</svg>
