<svg xmlns="http://www.w3.org/2000/svg" viewBox="0 0 16 16">
  <defs id="defs3051">
    <style type="text/css" id="current-color-scheme">.ColorScheme-NegativeText {color:#da4453;}</style>
  </defs>
  <path
     style="fill:currentColor;fill-opacity:1;stroke:none" 
     class="ColorScheme-NegativeText"
     d="M 7,2 C 5,2 5,4 5,4 h 1 c 0,0 0,-1 1,-1 1,0 1,0 2,0 1,0 1,1 1,1 h 1 C 11,4 11,2 9,2 Z M 2,5 v 1 h 2 c 0,0 0,4 0,6 0,2 2,2 2,2 h 4 c 0,0 2,0 2,-2 0,-2 0,-6 0,-6 h 2 V 5 Z m 3,1 h 6 c 0,0 0,5 0,6 0,1 -1,1 -1,1 H 6 C 6,13 5,13 5,12 5,11 5,6 5,6 Z"
     />
</svg>
