<svg xmlns="http://www.w3.org/2000/svg" viewBox="0 0 16 16">
  <defs id="defs3051">
<style type="text/css" id="current-color-scheme">.ColorScheme-Text {color:#fcfcfc;}</style>
  </defs>
 <path style="fill:currentColor;fill-opacity:1;stroke:none" 
     d="M 4,2 C 4,2 2,2 2,4 2,6 2,5 2,5 H 3 C 3,5 3,5 3,4 3,3 4,3 4,3 H 5 V 2 Z m 2,0 v 1 h 4 V 2 Z m 5,0 v 1 h 1 c 0,0 1,0 1,1 0,1 0,1 0,1 h 1 C 14,5 14,6 14,4 14,2 12,2 12,2 Z M 6,5 C 5.4477153,5 5,5.4477153 5,6 5,6.5522847 5.4477153,7 6,7 6.5522847,7 7,6.5522847 7,6 7,5.4477153 6.5522847,5 6,5 Z m 4,0 C 9.4477153,5 9,5.4477153 9,6 9,6.5522847 9.4477153,7 10,7 10.552285,7 11,6.5522847 11,6 11,5.4477153 10.552285,5 10,5 Z M 2,6 v 4 H 3 V 6 Z m 11,0 v 4 h 1 V 6 Z M 4,9 c 0,1.656854 1.790861,3 4,3 2.209139,0 4,-1.343146 4,-3 H 11 C 11,10.104569 9.6568542,11 8,11 6.3431458,11 5,10.104569 5,9 Z m -2,2 c 0,0 0,-1 0,1 0,2 2,2 2,2 H 5 V 13 H 4 c 0,0 -1,0 -1,-1 0,-1 0,-1 0,-1 z m 11,0 c 0,0 0,0 0,1 0,1 -1,1 -1,1 h -1 v 1 h 1 c 0,0 2,0 2,-2 0,-2 0,-1 0,-1 z m -7,2 v 1 h 4 v -1 z"
     class="ColorScheme-Text"
     />
</svg>
