<svg xmlns="http://www.w3.org/2000/svg" viewBox="0 0 16 16">
  <defs id="defs3051">
    <style type="text/css" id="current-color-scheme">.ColorScheme-Text {color:#fcfcfc;}.ColorScheme-Highlight {color:#3daee9;}</style>
  </defs>
  <path 
        style="fill:currentColor;fill-opacity:1;stroke:none"
        d="M 7,2 V 3 H 9 V 6 H 7 V 7 H 9 V 9 H 7 v 1 h 2 v 3 H 7 v 1 h 5 c 0,0 2,0 2,-2 0,-2 0,-6 0,-8 0,-2 -2,-2 -2,-2 z m 3,1 h 2 c 0,0 1,0 1,1 0,1 0,2 0,2 h -3 z m 0,4 h 3 v 2 h -3 z m -4,3 -4,2 4,2 z m 4,0 h 3 c 0,0 0,1 0,2 0,1 -1,1 -1,1 h -2 z"
        class="ColorScheme-Text"
        />
  <path 
        style="fill:currentColor;fill-opacity:1;stroke:none"
        d="M 7,2 6,2 6,3.281 4.719,2 3.281,2 6,4.719 l 0,2.563 -3,-3 0,-2.281 -1,0 0,7 1.719,0 L 3,8.282 3,5.719 6,8.719 6,9 7,9 7,3 Z"
        class="ColorScheme-Highlight"
        />
</svg>
