<svg xmlns="http://www.w3.org/2000/svg" viewBox="0 0 16 16">
  <defs id="defs3051">
    <style type="text/css" id="current-color-scheme">.ColorScheme-Text {color:#fcfcfc;}.ColorScheme-NegativeText {color:#da4453;}</style>
  </defs>
 <path style="fill:currentColor;fill-opacity:1;stroke:none" 
     d="m 2,4 c 0,1.5432705 0,5.7439473 0,8 0,2 2,2 2,2 h 8 c 0,0 2,0 2,-2 0,-2 0,-6 0,-8 C 14,2 12,2 12,2 H 4 C 4,2 2,2 2,4 Z M 4.0634766,2.999 12,3 c 0,0 1,0 1,1 0,1 0,2 0,2 h -2 v 1 h 2 v 2 h -2 v 1 h 2 c 0,0 0,1 0,2 0,1 -1,1 -1,1 H 4 C 4,13 3,13 3,12 3,11 3,10 3,10 H 5 V 9 H 3 V 7 H 5 V 6 H 3 C 3,6 3,5 3,4 3,3 4.0634766,2.999 4.0634766,2.999 Z"
     class="ColorScheme-Text"
     />
  <path 
      style="fill:currentColor;fill-opacity:1;stroke:none" 
     d="m5 3v10h1.719l3.281-3.281v3.281h1v-10h-1v1.281l-4 4v-2.563l2.719-2.719h-1.438l-1.281 1.281v-1.281zm5 2.719v2.563l-4 4v-2.563z" 
        class="ColorScheme-NegativeText"
  />
</svg>
