<svg xmlns="http://www.w3.org/2000/svg" viewBox="0 0 16 16">
  <defs id="defs3051">
    <style type="text/css" id="current-color-scheme">.ColorScheme-Text {color:#fcfcfc;}.ColorScheme-Highlight {color:#3daee9;}</style>
  </defs>
  <path 
        style="fill:currentColor;fill-opacity:1;stroke:none"
        d="M 4,2 C 4,2 2,2 2,4 2,6 2,5 2,5 H 3 C 3,5 3,5 3,4 3,3 4,3 4,3 H 6 V 5 H 7 V 3 h 2 v 2 h 1 V 3 h 2 c 0,0 1,0 1,1 0,1 0,1 0,1 h 1 C 14,5 14,6 14,4 14,2 12,2 12,2 H 9 Z m 6,4 2,4 2,-4 z m -8,4 c 0,0 0,0 0,2 0,2 2,2 2,2 h 8 c 0,0 2,0 2,-2 0,-2 0,-2 0,-2 h -1 c 0,0 0,1 0,2 0,1 -1,1 -1,1 H 10 V 10 H 9 v 3 H 7 V 10 H 6 v 3 H 4 c 0,0 -1,0 -1,-1 0,-1 0,-2 0,-2 z"
        class="ColorScheme-Text"
        />
  <path 
        style="fill:currentColor;fill-opacity:1;stroke:none"
        d="M 2,5 2,6 3.281,6 2,7.281 2,8.719 4.719,6 l 2.563,0 -3,3 -2.281,0 0,1 7,0 0,-1.719 L 8.282,9 5.719,9 8.719,6 9,6 9,5 3,5 Z" 
        class="ColorScheme-Highlight"
        />
</svg>
