<svg xmlns="http://www.w3.org/2000/svg" viewBox="0 0 16 16">
  <defs id="defs3051">
    <style type="text/css" id="current-color-scheme">.ColorScheme-Text {color:#fcfcfc;}.ColorScheme-Highlight {color:#3daee9;}</style>
  </defs>
  <path 
        style="fill:currentColor;fill-opacity:1;stroke:none"
        d="m 2,4 v 7 c 0,2 2,2 2,2 H 6 V 12 H 4 C 4,12 3,12 3,11 V 4 C 3,4 3,3 4,3 h 6 c 1,0 1,1 1,1 v 1 h 1 V 4 C 12,4 12,2 10,2 H 4 C 2,2 2,4 2,4 Z"
        class="ColorScheme-Highlight"
        />
  <path 
        style="fill:currentColor;fill-opacity:1;stroke:none"
        d="m 5,6 v 6 c 0,2 2,2 2,2 V 13 C 7,13 6,13 6,12 V 6 C 6,5 7,5 7,5 h 4 c 1,0 1,1 1,1 h 1 C 13,6 13,4 11,4 9,4 7,4.0209424 7,4.0209424 7,4.0209424 5,4 5,6 Z m 6.003906,1 c -1.1045694,1e-7 -1.9999998,0.8954306 -1.9999998,2 v 2 c 0,0 -1,0 -1,1 v 1 C 8.0039062,14 9,14 9,14 h 4 c 0,0 1.003906,0 1.003906,-1 v -1 c 0,-1 -1,-1 -1,-1 V 9 c 0,-1.1045695 -0.895431,-2 -2,-2 z m 0,1 c 0.552285,0 1,0.4477153 1,1 v 2 h -2 V 9 c 0,-0.5522847 0.447715,-1 1,-1 z"
        class="ColorScheme-Text"
        />
</svg>
