<svg xmlns="http://www.w3.org/2000/svg" viewBox="0 0 16 16">
  <defs id="defs3051">
<style type="text/css" id="current-color-scheme">.ColorScheme-Text {color:#fcfcfc;}</style>
  </defs>
 <path style="fill:currentColor;fill-opacity:1;stroke:none" 
     d="M 4,2 C 4,2 2,2 2,4 2,6 2,5 2,5 H 3 C 3,5 3,5 3,4 3,3 4,3 4,3 H 5 V 2 Z m 2,0 v 1 h 4 V 2 Z m 5,0 v 1 h 1 c 0,0 1,0 1,1 0,1 0,1 0,1 h 1 C 14,5 14,6 14,4 14,2 12,2 12,2 Z M 8,4 C 7.1715729,4 6.5,4.6715729 6.5,5.5 6.5,6.3284271 7.1715729,7 8,7 8.8284271,7 9.5,6.3284271 9.5,5.5 9.5,4.6715729 8.8284271,4 8,4 Z M 2,6 v 4 H 3 V 6 Z m 11,0 v 4 h 1 V 6 Z M 8,8 C 6.3431458,8 5,9.3431458 5,11 v 1 h 6 V 11 C 11,9.3431458 9.6568542,8 8,8 Z m 0,1 c 1.1045695,0 2,0.8954305 2,2 H 6 C 6,9.8954305 6.8954305,9 8,9 Z m -6,2 c 0,0 0,-1 0,1 0,2 2,2 2,2 H 5 V 13 H 4 c 0,0 -1,0 -1,-1 0,-1 0,-1 0,-1 z m 11,0 c 0,0 0,0 0,1 0,1 -1,1 -1,1 h -1 v 1 h 1 c 0,0 2,0 2,-2 0,-2 0,-1 0,-1 z m -7,2 v 1 h 4 v -1 z"
     class="ColorScheme-Text"
     />
</svg>
