<svg xmlns="http://www.w3.org/2000/svg" viewBox="0 0 16 16">
  <defs id="defs3051">
<style type="text/css" id="current-color-scheme">.ColorScheme-Text {color:#fcfcfc;}</style>
  </defs>
 <path style="fill:currentColor;fill-opacity:1;stroke:none" 
     d="m 4,2 c 0,0 -2,0 -2,2 0,2 0,6 0,8 0,2 2,2 2,2 h 5 1 2 c 0,0 2,0 2,-2 0,-2 0,-6 0,-8 C 14,2 12,2 12,2 Z M 4,3 H 6 V 5 H 7 V 3 h 2 v 2 h 1 V 3 h 1 1 c 0,0 1,0 1,1 0,1 0,1 0,1 V 6 H 11.65625 11 V 7 H 11.65625 13 v 2 h -1 -1 v 1 h 1 1 c 0,0 0,1 0,2 0,1 -1,1 -1,1 H 11 10 V 11 H 9 v 2 H 7 V 11 H 6 v 2 H 4 C 4,13 3,13 3,12 3,11 3,10 3,10 H 5 V 9 H 3 V 7 H 5 V 6 H 3 V 5 C 3,5 3,5 3,4 3,3 4,3 4,3 Z m 3,3 -2,2 2,2 z m 2,0 v 4 l 2,-2 z"
     class="ColorScheme-Text"
     />
</svg>
