<svg viewBox="0 0 16 16" xmlns="http://www.w3.org/2000/svg"><style type="text/css" id="current-color-scheme">.ColorScheme-NegativeText{color:#da4453;}</style><path d="M 5,2 C 5,2 3,2 3,4 3,6 3,7 3,7 H 4 C 4,7 4,5 4,4 4,3 5,3 5,3 h 4 v 3 h 3 v 1 h 1 V 5 L 10,2 Z" style="fill:currentColor;fill-opacity:1;stroke:none" class="ColorScheme-NegativeText"/><path d="m2 8h12v1h-12z" style="fill:currentColor;fill-opacity:1;stroke:none" class="ColorScheme-NegativeText"/><g fill="#da4452"><path d="m3.0000117 10 .9999883.000012-.0000117 3.999988-.9999883-.000012z"/><path d="m5.0000117 10 .9999883.000012-.0000117 3.999988-.9999883-.000012z"/><path d="m7.0000117 10 .9999883.000012-.0000117 3.999988-.9999883-.000012z"/><path d="m9.0000117 10 .9999883.000012-.0000117 3.999988-.9999883-.000012z"/><path d="m11.000012 10 .999988.000012-.000012 3.999988-.999988-.000012z"/></g></svg>
