<svg xmlns="http://www.w3.org/2000/svg" viewBox="0 0 16 16">
  <defs id="defs3051">
    <style type="text/css" id="current-color-scheme">.ColorScheme-Text {color:#fcfcfc;}</style>
  </defs>
 <path style="fill:currentColor;fill-opacity:1;stroke:none" 
       d="m 5,2 v 1 c 0,0 -2,0 -2,2 0,2 0,5 0,7 0,2 2,2 2,2 h 6 c 0,0 2,0 2,-2 0,-2 0,-5 0,-7 C 13,3 11,3 11,3 V 2 Z M 4,5 C 4,4 5,4 5,4 v 1 h 6 V 4 c 0,0 1,0 1,1 0,1 0,7 0,7 0,1 -1,1 -1,1 H 5 C 5,13 4,13 4,12 4,12 4,6 4,5 Z m 1,2 v 1 h 5 V 7 Z m 0,3 v 1 h 3 v -1 z"
     class="ColorScheme-Text"
     />
</svg>
