<svg xmlns="http://www.w3.org/2000/svg" viewBox="0 0 16 16">
  <defs id="defs3051">
    <style type="text/css" id="current-color-scheme">.ColorScheme-Text {color:#fcfcfc;}.ColorScheme-Highlight {color:#3daee9;}.ColorScheme-NegativeText {color:#da4453;}</style>
  </defs>
  <path 
        style="fill:currentColor;fill-opacity:1;stroke:none"
        d="m 2,4 c 0,2 0,6 0,8 0,2 2,2 2,2 h 8 c 0,0 2,0 2,-2 0,-2 0,-6 0,-8 C 14,2 12,2 12,2 H 4 C 4,2 2,2 2,4 Z M 4,2.99975 h 8 C 12,2.99975 13,3 12.9995,4 12.999115,4.7694979 13,9.7754676 13,12 c 0,1 -1,1 -1,1 l -8,-5e-4 C 4,12.9995 3,13 2.99975,12 2.9995,11 2.9995,5 2.99975,4 3,3 4,2.99975 4,2.99975 Z"
        class="ColorScheme-Text"
        />
  <path 
     style="fill:currentColor;fill-opacity:1;stroke:none" 
     class="ColorScheme-NegativeText"
        d="M 7 2 L 7 7.0019531 L 9 7.0019531 L 9 2 L 7 2 z M 9 7.0019531 L 9 9.0058594 L 14 9.0058594 L 14 7.0019531 L 9 7.0019531 z M 9 9.0058594 L 7 9.0058594 L 7 14.007812 L 9 14.007812 L 9 9.0058594 z M 7 9.0058594 L 7 7.0019531 L 2 7.0019531 L 2 9.0058594 L 7 9.0058594 z "
        />
  <path
        style="fill:currentColor;fill-opacity:1;stroke:none"
     d="m 8,6.005 c -1.10475,0 -2.00025,0.8955 -2.00025,2.00025 0,1.10475 0.8955,2.00025 2.00025,2.00025 1.10475,0 2.00025,-0.8955 2.00025,-2.00025 C 10.00025,6.9005 9.10475,6.005 8,6.005 m 0,0.99975 c 0.552,0 0.99975,0.44775 0.99975,0.99975 C 8.99975,8.5565 8.552,9.00425 8,9.00425 7.448,9.00425 7.00025,8.5565 7.00025,8.0045 7.00025,7.4525 7.448,7.00475 8,7.00475"
        class="ColorScheme-Highlight"
      />
</svg>
