<svg xmlns="http://www.w3.org/2000/svg" viewBox="0 0 16 16">
  <defs id="defs3051">
<style type="text/css" id="current-color-scheme">.ColorScheme-Text {color:#fcfcfc;}</style>
  </defs>
 <path style="fill:currentColor;fill-opacity:1;stroke:none" 
       d="M 5,2 C 3,2 3,4 3,4 v 1 c 0,0 -1,0 -1,2 0,2 0,3 0,5 0,2 2,2 2,2 h 8 c 0,0 2,0 2,-2 0,-2 0,-3 0,-5 C 14,5 13,5 13,5 V 4 C 13,4 13,2 11,2 9,2 7,2 5,2 Z M 4,4 c 0,0 0,-1 1,-1 1,0 5,0 6,0 1,0 1,1 1,1 V 5 H 4 Z m 0,2 h 8 c 0,0 1,0 1,1 0,1 0,4 0,5 0,1 -1,1 -1,1 H 4 C 4,13 3,13 3,12 3,11 3,8 3,7 3,6 4,6 4,6 Z m 3,1 v 5 l 3,-2.5 z"
     class="ColorScheme-Text"
     />
</svg>
