<svg xmlns="http://www.w3.org/2000/svg" viewBox="0 0 16 16">
  <defs id="defs3051">
    <style type="text/css" id="current-color-scheme">.ColorScheme-Text {color:#fcfcfc;}</style>
  </defs>
 <path style="fill:currentColor;fill-opacity:1;stroke:none" 
     d="m 2,4 v 8 c 0,2 2,2 2,2 H 9 V 13 H 4 C 4,13 3,13 3,12 V 8 c 0,0 0,-1 1,-1 1,0 7,0 8,0 1,0 1,1 1,1 v 1 h 1 V 6 C 14,4 12,4 12,4 H 9.0078125 l -2,-2 L 7,2.0078125 V 2 H 4 C 4,2 2,2 2,4 Z M 4,3 H 6.5917969 L 7.59375,4 H 7 V 4.00781 L 6.9921875,4 l -2,2 H 3 V 4 C 3,3 4,3 4,3 Z m 7.5,6 c -1.380712,-2e-7 -2.4999998,1.119288 -2.5,2.5 7.831e-4,0.489828 0.1454439,0.968635 0.4160156,1.376953 L 10.148438,12.144531 C 10.051619,11.943408 10.000907,11.723212 10,11.5 10,10.671573 10.671573,10 11.5,10 c 0.223212,9.07e-4 0.443408,0.05162 0.644531,0.148438 L 12.876953,9.4160156 C 12.468635,9.1454439 11.989828,9.0007831 11.5,9 Z m 2.083984,1.123047 -0.732422,0.732422 C 12.948381,11.056592 12.999093,11.276788 13,11.5 13,12.328427 12.328427,13 11.5,13 11.276788,12.999093 11.056592,12.94838 10.855469,12.851562 l -0.732422,0.732422 C 10.531365,13.854556 11.010172,13.999217 11.5,14 12.880712,14 14,12.880712 14,11.5 13.999217,11.010172 13.854556,10.531365 13.583984,10.123047 Z"
     class="ColorScheme-Text"
     />
</svg>
