<svg xmlns="http://www.w3.org/2000/svg" viewBox="0 0 16 16">
  <defs id="defs3051">
    <style type="text/css" id="current-color-scheme">.ColorScheme-Text {color:#fcfcfc;}</style>
  </defs>
 <path style="fill:currentColor;fill-opacity:1;stroke:none" 
       d="m 2,4 v 8 c 0,2 2,2 2,2 h 8 c 0,0 2,0 2,-2 0,-2 0,-6 0,-8 C 14,2 12,2 12,2 H 4 C 4,2 2,2 2,4 Z M 8.6875,2.5 10.34375,3.59375 12,2.5 12.6875,2.9375 10.6875,4.25 10.34375,4.5 10,4.25 8,2.9375 Z M 3,6 C 3,5 4,5 4,5 h 8 c 0,0 1,0 1,1 0,1 0,5 0,6 0,1 -1,1 -1,1 H 4 c 0,0 -1,0 -1,-1 z m 1,0 v 6 H 7 V 6 Z m 4,1 v 1 h 4 V 7 Z m 0,3 v 1 h 4 v -1 z"
     class="ColorScheme-Text"
     />
</svg>
