<!DOCTYPE svg>
<svg viewBox="0 0 16 16" version="1.1" xmlns="http://www.w3.org/2000/svg">
    <defs>
<style type="text/css" id="current-color-scheme">.ColorScheme-Text {color:#fcfcfc;}</style>
    </defs>
    <path class="ColorScheme-Text" style="fill:currentColor; fill-opacity:1; stroke:none" d="M 4,2 V 3 H 3 V 4 H 4 V 6 H 3 V 7 H 4 V 8 H 5 V 7 H 7 V 8 H 8 V 7 H 9 V 6 H 8 V 4 H 9 V 3 H 8 V 2 H 7 V 3 H 5 V 2 Z m 6,0 v 4 h 2 v 1 h 1 V 5 Z M 5,4 H 7 V 6 H 5 Z M 9,8 V 9 H 8 v 1 h 1 v 2 H 8 v 1 h 1 v 1 h 1 v -1 h 2 v 1 h 1 v -1 h 1 v -1 h -1 v -2 h 1 V 9 H 13 V 8 H 12 V 9 H 10 V 8 Z M 3,9 c 0,0 0,1 0,3 0,2 2,2 2,2 H 7 V 13 H 5 C 5,13 4,13 4,12 4,11 4,9 4,9 Z m 7,1 h 2 v 2 h -2 z"/>
</svg>
