<svg xmlns="http://www.w3.org/2000/svg" viewBox="0 0 16 16">
  <defs id="defs3051">
    <style type="text/css" id="current-color-scheme">.ColorScheme-Text {color:#fcfcfc;}</style>
  </defs>
 <path style="fill:currentColor;fill-opacity:1;stroke:none" 
       d="m 2,5 c 0,2 0,4 0,6 0,2 2,2 2,2 H 6 V 12 H 4 C 4,12 3,12 3,11 3,10 3,6 3,5 3,4 4,4 4,4 c 0,0 7,0 8,0 1,0 1,1 1,1 v 1 h 1 V 5 C 14,5 14,3 12,3 10,3 4,3 4,3 4,3 2,3 2,5 Z m 8,1 c -2.20914,0 -4,1.7908667 -4,4 0,2.209133 1.79086,4 4,4 2.20914,0 4,-1.790867 4,-4 0,-2.2091333 -1.79086,-4 -4,-4 z m 0,0.6660156 c 0.11506,0 0.221924,0.010151 0.333984,0.021484 h 0.08203 c 0.03507,0.00667 0.07073,0.014198 0.105468,0.019531 0.09577,0.015333 0.176718,0.04112 0.269532,0.064453 0.171066,0.042 0.34048,0.098482 0.5,0.1660156 0.08795,0.037333 0.1661,0.0806 0.25,0.125 -4.7e-5,0.00667 5.33e-4,0.012198 0,0.019531 0.01933,0.00867 0.0299,0.046453 0.0625,0.064453 0.012,0.00667 0.01022,0.013531 0.02148,0.019531 0.01933,0.010667 0.04502,0.022349 0.04102,0.041016 -0.0053,0.026667 -0.04383,0.021016 -0.0625,0.041016 0.0027,0.038667 -0.03102,0.038453 -0.04102,0.064453 0.006,0.016667 0.03835,0.021682 0.04102,0.041016 -0.0033,0.021333 -0.04902,0.019682 -0.04102,0.041016 0.036,0.028 0.06952,0.00667 0.103516,0 0.07466,-0.00933 0.1415,-0.00635 0.1875,-0.041016 -0.006,-0.035333 0.0665,-0.0305 0.0625,-0.0625 0.01913,0.014 0.04357,0.027016 0.0625,0.041016 -0.0072,0.00667 -0.01153,0.016198 -0.01953,0.019531 -0.014,0.00667 -0.0303,0.013484 -0.04297,0.021484 -0.01867,0.012 -0.04117,0.027682 -0.0625,0.041016 -0.01533,0.010667 -0.0465,0.0625 -0.0625,0.0625 -0.01933,0 -0.0485,-0.023531 -0.0625,-0.019531 -0.02,0.00667 -0.01842,0.033682 -0.04102,0.041016 -0.044,0.016 -0.131158,-0.024318 -0.146484,0.041016 0.01867,0.038 0.09167,0.020349 0.125,0.041016 0.02067,0.013333 0.05723,0.061318 0.0625,0.083984 0.0053,0.018667 0.008,0.105 0,0.125 -0.02067,0.053333 -0.08321,0.041682 -0.144532,0.041016 h -0.04297 c -0.10332,-0.00667 -0.203334,-0.052516 -0.25,0.021484 0.0033,0.056667 0.01267,0.095198 0,0.1445313 -0.0093,0.036 -0.0645,0.074402 -0.0625,0.1054687 6.66e-4,0.016 0.03897,0.039833 0.04297,0.0625 0.0027,0.012 -0.0053,0.029682 0,0.041016 0.01733,0.032667 0.05137,-0.00667 0.08203,0 0.02933,0.00667 0.0625,0.049365 0.0625,0.082031 0,0.023333 -0.0047,0.061318 -0.01953,0.083984 -0.02933,0.044 -0.083,0.0385 -0.125,0.0625 -0.03467,0.02 -0.04183,0.071069 -0.0625,0.1054687 -0.022,0.037333 -0.05163,0.049982 -0.04297,0.1035156 -0.03,0.059333 -0.063,0.096333 -0.125,0.125 -0.018,0.008 -0.0459,0.00753 -0.0625,0.019531 -0.01333,0.00933 -0.02235,0.04312 -0.04102,0.064453 -0.02333,0.026 -0.04983,0.0425 -0.0625,0.0625 -0.0093,0.015333 -0.01155,0.041167 -0.02148,0.0625 -0.01467,0.028 -0.0439,0.0345 -0.0625,0.0625 -0.0087,0.013333 -0.01027,0.045167 -0.01953,0.0625 -0.02133,0.038667 -0.04697,0.069516 -0.04297,0.1035156 0.0033,0.032 0.04097,0.033167 0.04297,0.0625 0.002,0.016 -0.02215,0.023682 -0.02148,0.041016 6.67e-4,0.025333 0.01955,0.044453 0.02148,0.064453 0.0047,0.049333 -0.03363,0.069782 -0.04297,0.1035156 -0.0047,0.016 0.004,0.028349 0,0.041016 -0.008,0.024667 -0.04035,0.054651 -0.04102,0.083984 -6.67e-4,0.020667 0.03902,0.033167 0.04102,0.0625 0.0013,0.019333 -0.02353,0.043833 -0.01953,0.0625 0.0073,0.036 0.07552,0.075516 0.103516,0.1035156 0.038,0.038 0.08686,0.065269 0.103516,0.1054688 0.014,0.034 0.01697,0.0996 0.04297,0.1250001 0.01933,0.01867 0.05737,0.02168 0.08203,0.04101 0.02333,0.018 0.0379,0.02168 0.0625,0.04102 0.04067,0.032 0.103302,0.108182 0.167968,0.103516 0.034,-0.0067 0.06548,-0.03502 0.103516,-0.04102 0.03933,-0.0067 0.08501,-0.02482 0.125,-0.02148 0.03067,0.0067 0.07152,0.02348 0.103516,0.02148 0.03333,-0.0067 0.0675,-0.0075 0.105468,-0.02148 0.066,-0.02867 0.173545,-0.07617 0.269532,-0.0625 0.07333,0.01067 0.07367,0.09233 0.125,0.125 0.05867,0.0067 0.09982,-0.01133 0.146484,0 0.03533,0.0087 0.08065,0.05598 0.08398,0.08398 0.0033,0.02867 -0.03897,0.06598 -0.04297,0.08398 -0.0093,0.03867 0.0067,0.07885 0,0.103516 -0.0053,0.01933 -0.0202,0.04317 -0.01953,0.0625 0,0.01733 0.02302,0.06132 0.04102,0.08398 0.022,0.028 0.05732,0.05203 0.08398,0.08203 0.04867,0.056 0.06952,0.1135 0.103516,0.1875 0.0087,0.01867 -0.008,0.04045 0,0.06445 -0.01467,0.111933 -0.05167,0.188567 -0.125,0.3125 -0.03467,0.04 -0.08465,0.07507 -0.08398,0.125 -0.0027,0.12 0.06787,0.1965 0.0625,0.3125 -0.012,0.155933 0.012,0.166733 0,0.25 0.05267,0.02667 0.01533,0.110616 0,0.166015 -0.02267,0.066 -0.04983,0.081 -0.0625,0.125 0.0354,0.01534 0.08568,0.0093 0.125,0 -0.01987,0.02067 -0.04217,0.04184 -0.0625,0.0625 -0.150807,0.150802 -0.322667,0.296149 -0.5,0.416016 -0.344027,0.2324 -0.725372,0.408933 -1.144532,0.5 -0.229026,0.05 -0.465057,0.0625 -0.708984,0.0625 -0.1268867,0 -0.2520867,-0.0055 -0.375,-0.01953 -0.097907,-0.01133 -0.1958756,-0.02168 -0.2910156,-0.04102 -0.18878,-0.03867 -0.3672821,-0.118433 -0.5429688,-0.1875 -0.006,-0.01133 -0.020998,-0.02963 -0.019531,-0.04297 0.034667,-0.01467 0.099673,0.04933 0.125,0 0.012667,-0.02333 -0.016667,-0.08018 0,-0.103515 0.012,-0.016 0.078856,-0.01487 0.1035156,-0.01953 0.035333,-0.0067 0.085469,-0.01215 0.1054688,-0.02149 0.022,-0.014 0.045016,-0.06265 0.041016,-0.103515 -0.002,-0.01933 -0.025749,-0.02564 -0.041016,-0.04297 -0.012667,-0.01467 0.00867,-0.02768 0,-0.04102 -0.016,-0.02333 -0.0559,-0.0285 -0.0625,-0.0625 0.048,-0.0093 0.1181732,0.04082 0.1875,0.02149 0.032666,-0.0093 0.088182,-0.07278 0.1035156,-0.103516 0.00467,-0.0093 -0.00533,-0.03097 0,-0.04297 0.006,-0.012 0.019484,-0.03502 0.021484,-0.04101 0.00467,-0.018 -0.004,-0.0075 0,-0.01953 0.012,-0.034 0.040547,-0.05998 0.060547,-0.08398 0.015333,-0.01867 0.0485,-0.04317 0.0625,-0.0625 0.016,-0.02067 0.010884,-0.02235 0.021484,-0.04102 0.01,-0.06067 -0.036151,-0.114702 -0.021484,-0.167968 0.016,-0.06 0.1099754,-0.09767 0.1679688,-0.125 0.02,-0.0093 0.0459,-0.01353 0.0625,-0.01953 0.04,-0.014 0.087667,-0.02835 0.125,-0.04101 0.062667,-0.02267 0.072849,-0.06773 0.1035156,-0.125 0.014667,-0.02667 0.038349,-0.06465 0.041016,-0.08399 0.00267,-0.01733 -0.00333,-0.02101 0,-0.04101 0.00333,-0.01933 -0.00533,-0.03983 0,-0.0625 C 9.985849,11.576802 10,11.512402 10,11.480469 c 0,-0.02667 -0.020884,-0.0385 -0.021484,-0.0625 -0.00467,-0.08667 0.030566,-0.07767 0.0625,-0.125 0.016,-0.02333 0.0317,-0.06732 0.04297,-0.08399 0.054,-0.08 0.151198,-0.107182 0.144532,-0.228515 -0.0027,-0.04 -0.03323,-0.133818 -0.0625,-0.146485 -0.01667,-0.0073 -0.0379,-0.01282 -0.0625,-0.02148 -0.07866,-0.02933 -0.1465227,-0.118333 -0.228516,-0.125 h -0.041016 c -0.032,0 -0.069475,-0.01487 -0.1054688,-0.01953 -0.022667,-0.0067 -0.068698,0.0067 -0.082031,0 -0.020667,-0.01 -0.026302,-0.05117 -0.042969,-0.0625 -0.013333,-0.0093 -0.0419,-0.01415 -0.0625,-0.02149 -0.032667,-0.012 -0.044031,-0.03901 -0.082031,-0.04101 -0.012,0 -0.029635,0.0067 -0.042969,0 -0.020667,-0.0067 -0.04128,-0.0095 -0.060547,-0.02149 -0.024,-0.01467 -0.052567,-0.02035 -0.0625,-0.04101 0.022,-0.07193 -0.0479,-0.083 -0.0625,-0.125 -0.00667,-0.01933 0.00667,-0.0647 0,-0.08203 -0.00867,-0.02467 -0.035233,-0.04379 -0.0625,-0.06445 -0.048,-0.03733 -0.077824,-0.05383 -0.1464844,-0.0625 -0.030667,-0.0067 -0.066856,0.0067 -0.1035156,0 -0.038667,-0.0067 -0.095673,-0.02917 -0.125,-0.0625 -0.028,-0.03267 -0.0379,-0.06663 -0.0625,-0.08203 -0.023334,-0.014666 -0.0465,-0.028302 -0.0625,-0.042969 -0.00733,-0.00667 -0.014818,-0.00553 -0.021484,-0.019531 -0.012,-0.024667 -0.036151,-0.0325 -0.021484,-0.0625 -0.026667,-0.013333 -0.012349,0.024198 -0.041016,0.019531 -0.026,-0.036667 -0.044882,-0.073033 -0.1035156,-0.0625 -0.026667,0.00667 -0.052651,0.061833 -0.083984,0.0625 -0.026,0 -0.049984,-0.057167 -0.083984,-0.0625 -0.026,-0.00667 -0.064031,0.024818 -0.082031,0.021484 -0.028667,-0.00667 -0.036567,-0.023682 -0.0625,-0.041016 -0.019334,-0.012667 -0.051834,-0.041682 -0.0625,-0.041016 -0.033334,0 -0.059502,0.065682 -0.1054688,0.041016 -0.022667,-0.028667 0.048218,-0.035833 0.021484,-0.0625 -0.02,-0.019333 -0.025016,0.010198 -0.041016,0.019531 -0.018667,0.012 -0.0419,0.014151 -0.0625,0.021484 -0.046,0.017333 -0.089007,0.022349 -0.125,0.041016 -0.033333,0.017333 -0.043233,0.0285 -0.0625,0.0625 -0.015333,0.028 -0.039233,0.082651 -0.0625,0.083984 -0.028,0 -0.037167,-0.029682 -0.0625,-0.041016 -0.07666,-0.033333 -0.1241735,0.018198 -0.1875,0.019531 -0.058667,0 -0.1491511,-0.091151 -0.1464844,-0.1464844 0.002,-0.034 0.017551,-0.083 0.021484,-0.125 0.00333,-0.033333 0.040416,-0.073116 0.041016,-0.1035156 6.666e-4,-0.041333 -0.076849,-0.057833 -0.1035156,-0.0625 -0.062667,-0.011333 -0.1376578,0.028 -0.2089844,0 -0.013333,-0.022667 0.013551,-0.039833 0.021484,-0.0625 0.00467,-0.012 -0.00467,-0.027682 0,-0.041016 0.008,-0.021334 0.052567,-0.039834 0.0625,-0.0625 0.00733,-0.017334 -0.00733,-0.0405 0,-0.0625 0.00867,-0.024 0.039016,-0.045167 0.041016,-0.0625 0.00267,-0.022667 -0.023082,-0.049786 -0.041016,-0.064453 -0.055333,0.00667 -0.093,0.00748 -0.125,0.021484 -0.071993,0.032667 -0.052333,0.1238177 -0.125,0.1464844 -0.024667,0.008 -0.055984,0.014865 -0.083984,0.019531 -0.0122,0.00667 -0.027349,0 -0.041016,0 0.00133,-0.00667 -0.00133,-0.012865 0,-0.019531 0.00333,-0.015333 0.016265,-0.026349 0.019531,-0.041016 0.047533,-0.2166668 0.1215777,-0.4264001 0.2089844,-0.625 h 0.021484 c 0.025333,0.00667 0.0405,0.039682 0.0625,0.041016 0.061333,0.00667 0.074333,-0.057318 0.125,-0.083984 0.052,0.00733 0.077673,-0.00667 0.125,0 0.032,0.00667 0.078189,0.038349 0.1035156,0.041016 0.021333,0 0.021016,-0.022198 0.041016,-0.019531 0.02,0.00667 0.059233,0.0385 0.0625,0.0625 0.00333,0.03 -0.028265,0.070449 -0.019531,0.1035156 0.031333,0.032 0.099865,0.043833 0.1445312,0.0625 0.029333,-0.024667 0.00467,-0.068849 0,-0.1035156 -6.667e-4,-0.015333 0.002,-0.0485 0,-0.0625 -0.00333,-0.024 -0.019531,-0.041833 -0.019531,-0.0625 0,-0.095333 0.080538,-0.1307021 0.1445312,-0.1679688 0.027333,-0.016 0.059984,-0.0505 0.083984,-0.0625 0.034,-0.016667 0.055984,-0.00553 0.083984,-0.019531 0.050667,-0.028667 0.085666,-0.073002 0.125,-0.1054688 0.018,-0.043333 -0.002,-0.1018646 0,-0.1445312 0.018,-0.011333 0.043233,0 0.0625,0 0.030666,-0.00667 0.045166,-0.045167 0.0625,-0.0625 0.01,-0.01 0.029016,-0.011484 0.041016,-0.021484 0.030667,-0.024 0.035833,-0.051833 0.0625,-0.0625 0.00933,-0.00667 0.026349,-0.016818 0.041016,-0.021484 0.02,-0.00667 0.051984,-0.00753 0.083984,-0.019531 0.020667,-0.00733 0.075984,-0.012818 0.083984,-0.021484 0.01,-0.01 -0.00267,-0.047167 0,-0.0625 0.016,-0.075267 0.1201733,-0.078116 0.1875,-0.1035156 0.046667,-0.017333 0.092531,-0.0717 0.1445312,-0.0625 -0.01,0.036 -0.049682,0.038698 -0.041016,0.082031 0.011333,0.060667 0.082182,-0.010865 0.1035156,-0.019531 0.040667,-0.017333 0.1146353,-0.0425 0.1679688,-0.0625 C 9.0896354,7.6923177 9.1689933,7.679 9.125,7.625 9.0883333,7.6183333 9.0749688,7.653349 9.0429688,7.6660156 9.0209686,7.6726823 9.0186667,7.6484844 9,7.6464844 c -0.018,0 -0.023016,0.022865 -0.041016,0.019531 -0.018,-0.00667 -0.038349,-0.0405 -0.041016,-0.0625 -0.00733,-0.056 0.0399,-0.061982 0.0625,-0.1035156 -0.015334,-0.050667 -0.08234,-0.021682 -0.125,-0.041016 0.00467,-0.03 0.027233,-0.057786 0.0625,-0.064453 0.028666,-0.00667 0.1076665,0.00748 0.125,0.021484 0.01,0.00867 -0.015267,0.027682 0,0.041016 0.017333,0.015333 0.0399,0.00667 0.0625,0 0.008,-0.038 -0.049636,-0.016349 -0.042969,-0.041016 0.045333,-0.029333 0.1321733,-0.014151 0.1875,-0.021484 0.032,-0.00667 0.076802,-0.025682 0.1054688,-0.041016 0.026666,-0.015333 0.0345,-0.044865 0.0625,-0.019531 0.008,0.027333 -0.00602,0.047833 -0.021484,0.0625 C 9.345151,7.4418177 9.2899933,7.4884156 9.25,7.5410156 c 0.024667,0.024 0.064102,0.016818 0.1054688,0.021484 0.016,0.00667 0.0459,0 0.0625,0 0.02,0.00667 0.044547,-0.00667 0.060547,0 0.028,0.00667 0.034567,0.0625 0.0625,0.0625 0.045333,0 0.026,-0.053984 0,-0.083984 C 9.5490156,7.5096823 9.5739,7.4809844 9.5625,7.4589844 9.5418333,7.417651 9.4629844,7.471302 9.4589844,7.4179688 9.4563177,7.3846353 9.488,7.380802 9.5,7.3554688 c -0.00533,-0.064 0.047682,-0.067 0.041016,-0.125 C 9.5376823,7.2064687 9.5166667,7.2101667 9.5,7.1875 9.4913333,7.1755 9.488449,7.1343333 9.4785156,7.125 9.443849,7.0956667 9.379,7.1185 9.375,7.0625 c -0.002,-0.033333 0.00467,-0.067782 0,-0.1035156 -0.00467,-0.034 -0.033233,-0.1398177 -0.0625,-0.1464844 -0.037333,-0.008 -0.058816,0.063318 -0.1035156,0.083984 -0.024,0.011333 -0.080809,0.023531 -0.1054688,0.019531 C 9.0875156,6.909349 9.0645,6.9063333 9.0625,6.875 c -0.00267,-0.028 0.030616,-0.0405 0.041016,-0.0625 0.00267,-0.00667 -0.00133,-0.012198 0,-0.019531 C 9.1519156,6.7796354 9.2008133,6.7613333 9.25,6.75 c 0.027933,-0.00667 0.055784,-0.014198 0.083984,-0.019531 0.019933,-0.00667 0.0425,0.00667 0.0625,0 C 9.4855177,6.713802 9.574649,6.6981198 9.6660156,6.6894531 9.7768423,6.6781198 9.8859333,6.6679688 10,6.6679688 Z m -1.3535156,0.3125 C 8.6252844,7.1001823 8.5106667,7.149951 8.375,7.1464844 c -0.030667,0.029333 -0.00468,0.084333 -0.021484,0.125 -0.014,0.034 -0.069522,0.065167 -0.1035156,0.0625 -0.024667,0 -0.0625,-0.039167 -0.0625,-0.0625 0,-0.028667 0.046218,-0.029833 0.021484,-0.0625 0.00133,-0.00667 0.012598,-0.014818 0.019531,-0.021484 0.013467,-0.00867 0.029369,-0.013484 0.042969,-0.021484 0.1208,-0.074333 0.24464,-0.1288333 0.375,-0.1875 z m 2.7910156,0.125 c -0.01227,0.00667 -0.01068,0.014818 -0.02148,0.021484 -0.02533,0.015333 -0.04317,0.034349 -0.0625,0.041016 -0.02733,0.01 -0.05857,0.016349 -0.0625,0.041016 -0.0033,0.020667 0.02222,0.022349 0.02148,0.041016 -0.01,0.024667 -0.01615,0.034453 -0.02148,0.064453 0.034,0.055333 0.104491,-0.012818 0.146484,-0.021484 0.01867,-0.00667 0.03102,-0.00748 0.04102,-0.021484 0.01133,-0.018 0.01288,-0.037167 0.02148,-0.0625 0.0093,-0.028 0.04435,-0.037833 0.04102,-0.0625 -0.0027,-0.024667 -0.06222,-0.044349 -0.103516,-0.041016 z M 7.7910156,7.5214844 c 0.0316,0.025333 0.076724,0.079782 0.021484,0.1035156 -0.00667,0.00667 -0.087516,0.024151 -0.1035156,0.021484 -0.00667,0 -0.015884,-0.016818 -0.021484,-0.021484 0.034467,-0.033333 0.067656,-0.071516 0.1035156,-0.1035156 z m 0.125,0.125 c 0.016,0 0.024302,0.040349 0.042969,0.041016 0.018,0 0.030349,-0.024151 0.041016,-0.021484 0.028,0.00733 0.048218,0.063318 0.021484,0.083984 -0.022,0.00667 -0.026969,-0.024151 -0.042969,-0.021484 C 7.9331823,7.7365156 7.909,7.836651 7.875,7.8339844 7.843,7.8273177 7.8207823,7.751849 7.8535156,7.7285156 c 6.667e-4,-0.02 -0.00133,-0.020349 0,-0.041016 0.01,-0.012 0.035833,-0.043016 0.0625,-0.041016 z M 7.75,7.6660156 c 0.00933,0 0.018218,-0.00667 0.021484,0 -0.00467,0.035333 -0.015635,0.045833 -0.042969,0.0625 -0.047333,0.028667 -0.088182,0.064 -0.1035156,0.125 -0.00467,0.018 -0.061318,0.066767 -0.083984,0.0625 -0.052667,-0.011333 0.030969,-0.1097333 0.042969,-0.125 C 7.5973177,7.774349 7.6096667,7.7686667 7.625,7.75 7.6403333,7.7313333 7.651349,7.6981667 7.6660156,7.6875 7.6820156,7.6761667 7.722,7.6666354 7.75,7.6679688 Z m 4.521484,0.1054688 c 0.05267,-0.00667 0.07952,0.050031 0.103516,0.082031 0.02,0.026 0.07085,0.065984 0.103516,0.083984 0.01867,0.01 0.04183,0.032349 0.0625,0.041016 0.04333,0.019333 0.123,0.082333 0.125,0.125 6.66e-4,0.021333 -0.02293,0.0425 -0.01953,0.0625 0.03267,0.00667 0.06183,-0.049365 0.0625,-0.082031 0.06127,0.086667 0.113083,0.1771312 0.166016,0.2695312 0.025,0.043333 0.06092,0.08 0.08398,0.125 -0.0294,0.00867 -0.03823,0.013016 -0.04297,0.041016 C 12.909349,8.5568647 12.931,8.6184 12.875,8.625 c -0.03533,0.00667 -0.07634,-0.029682 -0.125,-0.041016 -0.02,-0.00667 -0.0465,0.00667 -0.0625,0 C 12.650833,8.5719844 12.656267,8.522 12.625,8.5 c -0.018,-0.012667 -0.07485,-0.038349 -0.103516,-0.041016 -0.018,0 -0.0243,0.00667 -0.04297,0 -0.02267,-0.00667 -0.06337,0.00933 -0.08203,0 -0.018,-0.011333 -0.05783,-0.047167 -0.0625,-0.0625 -0.0073,-0.024667 0.06117,-0.041167 0.0625,-0.0625 0.0013,-0.016 -0.01822,-0.039786 -0.02148,-0.064453 -0.0027,-0.014666 0.0033,-0.031016 0,-0.041016 -0.0047,-0.017333 -0.03523,-0.018865 -0.0625,-0.019531 H 12.25 12.125 12.0625 c -0.058,0.00667 -0.101151,-0.00667 -0.146484,0 -0.03267,0 -0.09433,0.027682 -0.125,0.041016 -0.01533,0.00733 -0.02102,0.00953 -0.04102,0.019531 -0.0093,0.00667 -0.02902,0.016151 -0.04102,0.021484 -0.01867,0.00867 -0.04457,0.035682 -0.0625,0.041016 -0.026,0.00667 -0.05817,-0.00667 -0.105468,0 -0.034,0 -0.08137,-0.021833 -0.08203,-0.0625 -6.66e-4,-0.062 0.107356,-0.029682 0.166016,-0.041016 0.022,-0.00667 0.03583,-0.025016 0.0625,-0.041016 0.01267,-0.00733 0.0096,-0.013484 0.02148,-0.021484 0.02,-0.014 0.05923,-0.0465 0.0625,-0.0625 0.0027,-0.014667 -0.002,-0.029682 0,-0.041016 0.0027,-0.014 0.02302,-0.022349 0.04102,-0.041016 0.028,-0.028 0.04932,-0.065984 0.08398,-0.083984 0.02333,-0.012 0.05183,-0.022349 0.0625,-0.041016 0.0027,-0.021333 -6.66e-4,-0.021016 0,-0.041016 C 11.973651,7.8421354 11.988,7.836651 12,7.8339844 c 0.036,-0.008 0.06155,0 0.103516,0 0.018,0 0.04323,0.00867 0.0625,0 0.016,-0.010667 0.02697,-0.033682 0.04297,-0.041016 0.01733,-0.00933 0.04117,-0.020151 0.0625,-0.021484 z m 0.375,0.3945312 H 12.5625 c -0.02933,0 -0.06665,-0.015333 -0.08398,0 0.02467,0.04 0.06967,0.0525 0.125,0.0625 0.02,-0.014667 0.03363,-0.0365 0.04297,-0.0625 z m -4.5624996,-0.375 h 0.0625 c 0.016667,0 0.034349,-0.00667 0.041016,0 -0.010667,0.044 -0.1118177,0.037484 -0.1464844,0.021484 0.002,-0.016667 0.021635,-0.018818 0.042969,-0.021484 z M 7.9375,7.875 c -0.029133,0.021333 -0.057282,0.047833 -0.1035156,0.0625 -0.025333,0.008 -0.057833,0.00652 -0.0625,-0.021484 -0.00533,-0.034667 0.039833,-0.016198 0.0625,-0.019531 C 7.8633177,7.8898177 7.9035,7.8763333 7.9375,7.875 Z m 4.333984,0 c -0.022,0.00733 -0.03267,0.055833 0,0.0625 0.01533,-0.00933 0.0236,-0.033833 0.01953,-0.0625 -0.0087,-0.00933 -0.01293,-0.00667 -0.01953,0 z m -0.04297,0.1035156 c 6.66e-4,0.037333 0.0073,0.073069 0,0.1054688 0.02133,0.041333 0.07332,0.00652 0.08398,-0.021484 0.01267,-0.069333 -0.009,-0.092651 -0.04102,-0.083984 -0.01067,0.00667 -0.0317,-0.00867 -0.04297,0 z m -5.5195316,1.5625 c 0.0376,0.034 0.058549,0.083202 0.1035156,0.1054688 0.016667,0.00867 0.041233,0.014198 0.0625,0.019531 0.017333,0.00667 0.024349,-0.00667 0.041016,0 0.035333,0.012 0.077475,0.028349 0.1054688,0.041016 0.042667,0.018667 0.088333,0.084136 0.125,0.1054688 0.002,0.021333 -0.00667,0.0465 0,0.0625 0.017333,0.023333 0.0345,0.0465 0.0625,0.0625 0.034,0.018667 0.050031,0.047833 0.082031,0.0625 0.011333,0.0067 0.025635,-0.00667 0.042969,0 0.044,0.01333 0.065482,0.07357 0.1035156,0.0625 0.024667,-0.0073 0.017551,-0.0385 0.021484,-0.0625 0.016667,-0.018 0.0365,-0.041016 0.0625,-0.041016 0.041333,0 0.047167,0.063316 0.0625,0.1035156 0.00867,0.02267 0.035016,0.0385 0.041016,0.0625 0.01,0.04133 0.00867,0.162833 0,0.1875 -0.010667,0.03067 -0.058651,0.0285 -0.083984,0.0625 -0.012,0.016 -0.010265,0.05117 -0.019531,0.0625 -0.016,0.01933 -0.030969,0.02497 -0.042969,0.04297 -0.00667,0.01 -0.013598,0.02768 -0.019531,0.04101 -0.02,0.04267 -0.059635,0.07367 -0.042969,0.125 0.00667,0.02067 0.042969,0.03783 0.042969,0.0625 0,0.02933 -0.057833,0.05199 -0.0625,0.08399 -0.00333,0.02333 0.012265,0.0507 0.019531,0.08203 0.00533,0.02333 0.0485,0.04717 0.0625,0.0625 0.023333,0.026 0.041233,0.07247 0.0625,0.105469 0.042,0.06467 0.064169,0.143698 0.1054688,0.207031 0.022,0.03267 0.067365,0.04932 0.082031,0.08398 0.00733,0.01733 -0.00667,0.0465 0,0.0625 0.024,0.054 0.1335067,0.119885 0.1875,0.146485 0.025333,0.01267 0.060651,0.0062 0.083984,0.01953 0.035333,0.02 0.1070067,0.0744 0.125,0.105469 0.016,0.028 0.013551,0.09993 0.021484,0.144531 0.01,0.05867 -0.00267,0.104569 0,0.167969 0.002,0.03467 0.019531,0.04736 0.019531,0.08203 0,0.012 6.667e-4,0.04983 0,0.0625 -6.666e-4,0.04133 0.00333,0.083 0,0.125 -0.002,0.02267 -0.00133,0.04317 0,0.0625 0.002,0.02067 0.020218,0.02497 0.021484,0.04297 0.00133,0.01933 -0.023551,0.04717 -0.021484,0.0625 0.00467,0.042 0.034969,0.06465 0.042969,0.103515 0.00667,0.03067 0.023531,0.109818 0.019531,0.146485 -0.00267,0.01933 -0.016865,0.0405 -0.019531,0.0625 -0.002,0.01733 0.00267,0.02568 0,0.04101 -0.002,0.01533 0.004,0.02835 0,0.04102 -0.021267,-0.01333 -0.041633,-0.02702 -0.0625,-0.04102 -0.1773334,-0.119866 -0.3491934,-0.265215 -0.5,-0.416015 -0.0204,-0.02067 -0.042633,-0.04312 -0.0625,-0.06445 C 7.4635977,12.164282 7.3494267,12.019467 7.25,11.875 7.241,11.861667 7.2373156,11.846651 7.2285156,11.833984 7.113149,11.661118 7.0193733,11.486569 6.9375,11.292969 6.9315,11.278969 6.9216823,11.264 6.9160156,11.25 6.8457623,11.077333 6.7907133,10.894651 6.75,10.708984 6.7423333,10.673651 6.735049,10.640869 6.7285156,10.605469 6.7119823,10.516402 6.6967667,10.425384 6.6875,10.333984 6.6761,10.220984 6.6660156,10.115067 6.6660156,10 c 0,-0.1584 0.021569,-0.306451 0.042969,-0.4589844 z"
     class="ColorScheme-Text"
     />
</svg>
