<!DOCTYPE svg>
<svg viewBox="0 0 16 16" version="1.1" xmlns="http://www.w3.org/2000/svg">
    <defs>
        <style type="text/css" id="current-color-scheme">.ColorScheme-Highlight {color:#3daee9;}.ColorScheme-Text {color:#fcfcfc;}</style>
    </defs>
    <path style="fill:currentColor; fill-opacity:1; stroke:none" d="M 3,12 V 4 C 3,2 5,2 5,2 h 5 l 3,3 c 0,0 0,5 0,7 0,2 -2,2 -2,2 H 5 c 0,0 -2,0 -2,-2 z m 1,0 c 0,1 1,0.982459 1,0.982459 l 6,0.0153 c 0,0 1,0.0022 1,-0.997759 0,-1 0,-6 0,-6 H 9 V 3 H 5 C 5,3 4,3 4,4 Z M 7,7 v 1 h 4 V 7 Z m 0,2 v 1 h 3 V 9 Z" class="ColorScheme-Text"/>
    <path style="fill:currentColor; fill-opacity:1; stroke:none" d="M 5 12 L 5 11 L 5 4 L 6 4 L 8 4 L 8 5 L 6 5 L 6 11 L 11 11 L 11 12 L 5 12 Z" class="ColorScheme-Highlight"/>
</svg>
