<svg xmlns="http://www.w3.org/2000/svg" viewBox="0 0 16 16">
  <defs id="defs3051">
<style type="text/css" id="current-color-scheme">.ColorScheme-Text {color:#fcfcfc;}</style>
  </defs>
 <path style="fill:currentColor;fill-opacity:1;stroke:none" 
       d="m 0,4 c 0,2 0,6 0,8 0,2 2,2 2,2 h 8 L 15.292969,8.7070312 16,8 15.292969,7.2929688 10,2 H 2 C 2,2 0,2 0,4 Z M 4,4 H 5 V 5 H 4 C 3.44778,5 3,5.44771 3,6 V 7 C 3,7.38251 2.86072,7.73504 2.625,8 2.86072,8.26497 3,8.6175 3,9 v 1 c 0,0.55222 0.44771,1 1,1 h 1 v 1 H 4 C 2.89549,12 2,11.10452 2,10 V 9 C 2,8.72385 1.77614,8.5 1.5,8.5 H 1 v -1 H 1.5 C 1.77614,7.5 2,7.27616 2,7 V 6 C 2,4.89549 2.89548,4 4,4 Z M 6,4 H 7 C 8.10452,4 9,4.89549 9,6 V 7 C 9,7.27616 9.22386,7.5 9.5,7.5 H 10 v 1 H 9.5 C 9.22386,8.5 9,8.72385 9,9 v 1 c 0,1.10452 -0.89549,2 -2,2 H 6 v -1 h 1 c 0.55229,0 1,-0.44778 1,-1 V 9 C 8,8.6175 8.13928,8.26497 8.375,8 8.13928,7.73504 8,7.38251 8,7 V 6 C 8,5.44771 7.55222,5 7,5 H 6 Z"
     class="ColorScheme-Text"
     />
</svg>
