<svg xmlns="http://www.w3.org/2000/svg" viewBox="0 0 16 16">
  <defs id="defs3051">
<style type="text/css" id="current-color-scheme">.ColorScheme-Text {color:#fcfcfc;}</style>
  </defs>
 <path style="fill:currentColor;fill-opacity:1;stroke:none" 
     d="M 4,2 C 2,2 2,4 2,4 V 7 H 14 V 4 C 14,4 14,2 12,2 9.3333333,2 6.6666667,2 4,2 Z m 0,1 c 2.6666667,0 5.3333333,0 8,0 1,0 1,1 1,1 V 6 H 3 V 4 C 3,4 3,3 4,3 Z M 2,8 v 3 H 7 V 8 Z m 6,0 v 3 H 9 V 8 Z m 6,0 -4,3 4,3 z"
     class="ColorScheme-Text"
     />
</svg>
