<svg xmlns="http://www.w3.org/2000/svg" viewBox="0 0 16 16">
  <defs id="defs3051">
<style type="text/css" id="current-color-scheme">.ColorScheme-Text {color:#fcfcfc;}</style>
  </defs>
 <path style="fill:currentColor;fill-opacity:1;stroke:none" 
       d="M 6,2 0.70703125,7.2929688 0,8 0.70703125,8.7070312 6,14 h 8 c 0,0 2,0 2,-2 0,-2 0,-6 0,-8 0,-2 -2,-2 -2,-2 z m 3,2 h 1 V 5 H 9 C 8.44778,5 8,5.44771 8,6 V 7 C 8,7.38251 7.86072,7.73504 7.625,8 7.86072,8.26497 8,8.6175 8,9 v 1 c 0,0.55222 0.44771,1 1,1 h 1 v 1 H 9 C 7.89549,12 7,11.10452 7,10 V 9 C 7,8.72385 6.77614,8.5 6.5,8.5 H 6 v -1 H 6.5 C 6.77614,7.5 7,7.27616 7,7 V 6 C 7,4.89549 7.89548,4 9,4 Z m 2,0 h 1 c 1.10452,0 2,0.89549 2,2 v 1 c 0,0.27616 0.22386,0.5 0.5,0.5 H 15 v 1 H 14.5 C 14.22386,8.5 14,8.72385 14,9 v 1 c 0,1.10452 -0.89549,2 -2,2 h -1 v -1 h 1 c 0.55229,0 1,-0.44778 1,-1 V 9 C 13,8.6175 13.13928,8.26497 13.375,8 13.13928,7.73504 13,7.38251 13,7 V 6 C 13,5.44771 12.55222,5 12,5 h -1 z"
     class="ColorScheme-Text"
     />
</svg>
