<svg xmlns="http://www.w3.org/2000/svg" viewBox="0 0 16 16">
  <defs id="defs3051">
    <style type="text/css" id="current-color-scheme">.ColorScheme-Text {color:#fcfcfc;}.ColorScheme-Highlight {color:#3daee9;}</style>
  </defs>
  <path 
        style="fill:currentColor;fill-opacity:1;stroke:none"
        d="m 2,4 c 0,0 0,6 0,8 0,2 2,2 2,2 h 7 V 13 H 4 C 4,13 3,13 3,12 3,11 3,4 3,4 3,3 4,3 4,3 c 0,0 7,0 8,0 1,0 1,1 1,1 v 3 h 1 V 4 C 14,4 14,2 12,2 10,2 4,2 4,2 4,2 2,2 2,4 Z m 2,0 v 1 h 7 V 4 Z M 4,6 V 7 H 9 V 6 Z m 0,3 v 1 h 6 V 9 Z"
        class="ColorScheme-Text"
        />
  <path 
        style="fill:currentColor;fill-opacity:1;stroke:none"
        d="M 13 8 L 12 10 L 13 10 L 13 14 L 14 14 L 14 8 L 13 8 z M 4 11 L 4 12 L 8 12 L 8 11 L 4 11 z "
        class="ColorScheme-Highlight"
        />
</svg>
