<svg xmlns="http://www.w3.org/2000/svg" viewBox="0 0 16 16">
  <defs id="defs3051">
    <style type="text/css" id="current-color-scheme">.ColorScheme-Text {color:#fcfcfc;}.ColorScheme-Highlight {color:#3daee9;}</style>
  </defs>
  <path 
        style="fill:currentColor;fill-opacity:1;stroke:none"
        d="m 2,4 c 0,2 0,4 0,6 0,2 2,2 2,2 0,0 0,2 2,2 2,0 5,0 5,0 v -1 c 0,0 -4,0 -5,0 -1,0 -1,-1 -1,-1 h 4 c 0,0 2,0 2,-2 0,-2 0,-5 0,-5 0,0 0,0 1,0 1,0 1,1 1,1 v 1 h 1 V 6 C 14,6 14,4 12,4 10,4 11,4 11,4 11,4 11,2 9,2 7,2 4,2 4,2 4,2 2,2 2,4 Z M 4,3 c 0,0 4,0 5,0 1,0 1,1 1,1 0,0 0,5 0,6 0,1 -1,1 -1,1 H 4 C 4,11 3,11 3,10 3,9 3,5 3,4 3,3 4,3 4,3 Z M 4,4 V 5 H 9 V 4 Z M 4,6 V 7 H 7 V 6 Z"
        class="ColorScheme-Text"
        />
  <path 
        style="fill:currentColor;fill-opacity:1;stroke:none"
        d="M 13 8 L 13 9 L 14 9 L 14 8 L 13 8 z M 4 9 L 4 10 L 8 10 L 8 9 L 4 9 z M 13 10 L 13 14 L 14 14 L 14 10 L 13 10 z "
        class="ColorScheme-Highlight"
        />
</svg>
