<svg xmlns="http://www.w3.org/2000/svg" viewBox="0 0 16 16">
  <defs id="defs3051">
<style type="text/css" id="current-color-scheme">.ColorScheme-Text {color:#fcfcfc;}</style>
  </defs>
 <path style="fill:currentColor;fill-opacity:1;stroke:none" 
     d="m 2,4 c 0,2 0,6 0,8 0,2 2,2 2,2 H 9 V 13 H 7 V 11 H 6 v 2 H 4 C 4,13 3,13 3,12 3,11 3,10 3,10 H 5 V 9 H 3 V 7 H 5 V 6 H 3 V 5 C 3,5 3,5 3,4 3,3 4,3 4,3 H 6 V 5 H 7 V 3 h 2 v 2 h 1 V 3 h 2 c 0,0 1,0 1,1 0,1 0,1 0,1 V 6 H 11.65625 11 V 7 H 11.65625 13 v 1 h 1 C 14,8 14,6 14,4 14,2 12,2 12,2 H 4 C 4,2 2,2 2,4 Z m 5,2 -2,2 2,2 z m 2,0 v 3 h 1 l 1,-1 z m 2,3 v 1 h -1 v 4 h 4 V 10 H 13 V 9 Z m 0,2 h 2 v 2 h -2 z"
     class="ColorScheme-Text"
     />
</svg>
