<svg viewBox="0 0 16 16" version="1.1" xmlns="http://www.w3.org/2000/svg">
    <defs>
<style type="text/css" id="current-color-scheme">.ColorScheme-Text {color:#fcfcfc;}</style>
    </defs>
    <path class="ColorScheme-Text" style="fill:currentColor; fill-opacity:1; stroke:none" d="M 5,2 C 3,2 3,4 3,4 H 2 v 2 h 1 v 4 H 2 v 2 h 1 c 0,0 0,2 2,2 2,0 3,0 3,0 V 13 H 6 V 3 h 6 c 0,0 1,0 1,1 v 6 c 0,1 -1,1 -1,1 H 9.9 L 11.5,9.4 10.8,8.671875 8,11.5 10.8,14.3 11.5,13.6 9.9,12 H 12 c 0,0 2,0 2,-2 V 4 C 14,2 12,2 12,2 12,2 7,2 5,2 Z M 4,4 C 4,3 5,3 5,3 V 13 C 5,13 4,13 4,12 4,11 4,5 4,4 Z"/>
</svg>
