<svg xmlns="http://www.w3.org/2000/svg" viewBox="0 0 16 16">
  <defs id="defs3051">
<style type="text/css" id="current-color-scheme">.ColorScheme-Text {color:#fcfcfc;}</style>
  </defs>
 <path style="fill:currentColor;fill-opacity:1;stroke:none" 
     d="M 4,2 C 2,2 2,4 2,4 h 1 c 0,0 0,-1 1,-1 1,0 7,0 8,0 1,0 1,1 1,1 h 1 C 14,4 14,2 12,2 10,2 6,2 4,2 Z M 8,4 3,9.1679688 3.8046875,10 8,5.6621094 12.195312,10 13,9.1679688 Z m -2,6 v 4 h 1 3 V 10 H 9 v 3 H 7 v -3 z"
     class="ColorScheme-Text"
     />
</svg>
