<svg xmlns="http://www.w3.org/2000/svg" viewBox="0 0 16 16">
  <defs id="defs3051">
<style type="text/css" id="current-color-scheme">.ColorScheme-Text {color:#fcfcfc;}</style>
  </defs>
    <path
       style="fill:currentColor;fill-opacity:1;stroke:none" 
       d="m 4,2 c 0,0 -2,0 -2,2 0,2 0,6 0,8 0,2 2,2 2,2 h 8 c 0,0 2,0 2,-2 0,-2 0,-6 0,-8 0,-2 -2,-2 -2,-2 z m 0,1 h 8 c 0,0 1,0 1,1 0,1 0,3 0,3 H 3 C 3,7 3,5 3,4 3,3 4,3 4,3 Z M 5.0390625,4 C 4.7689864,3.9895743 4.5061912,4.0889151 4.3105469,4.2753906 3.9807173,4.5891715 3.9044482,5.0861252 4.125,5.484375 4.3456813,5.8834702 4.8084217,6.0827057 5.25,5.96875 5.6917002,5.8547035 6.00023,5.456186 6,5 H 5 L 5.5292969,4.1523438 C 5.3819261,4.0597686 5.2129465,4.007257 5.0390625,4 Z M 3,8 h 10 c 0,0 0,3 0,4 0,1 -1,1 -1,1 H 4 C 4,13 3,13 3,12 3,11 3,8 3,8 Z m 8,1 v 3 h 1 V 9 Z m -2,2 v 1 h 1 v -1 z"
        class="ColorScheme-Text" />
</svg>
