<svg xmlns="http://www.w3.org/2000/svg" viewBox="0 0 16 16">
  <defs id="defs3051">
    <style type="text/css" id="current-color-scheme">.ColorScheme-Text {color:#fcfcfc;}</style>
  </defs>
 <path style="fill:currentColor;fill-opacity:1;stroke:none" 
     d="M 3,2 V 4 L 1,6 c 0,0 0,4 0,6 0,2 2,2 2,2 H 9 V 13 H 3 C 3,13 2,13 2,12 2,11 2,7 2,7 H 3.9980469 4 l 3.9785156,1.9902344 v 0.00195 L 8,9 l 0.021484,-0.00781 v -0.00195 L 12,7 h 0.002 H 13 14 v 2 h 1 V 6 L 13,4 V 2 Z m 1,1 h 8 V 5.8632812 L 11.753906,6.0058594 8,7.8828125 4.2460938,6.0058594 4,5.8691406 Z m 1,1 v 1 h 6 V 4 Z m 7,5 c -0.552285,0 -1,0.4477153 -1,1 0,0.552285 0.447715,1 1,1 0.552285,0 1,-0.447715 1,-1 0,-0.5522847 -0.447715,-1 -1,-1 z m -1.320312,3 C 10.248235,12.379197 10.000649,12.925595 10,13.5 V 14 h 4 V 13.5 C 13.999351,12.925595 13.751765,12.379197 13.320312,12 Z"
     class="ColorScheme-Text"
     />
</svg>
