<svg xmlns="http://www.w3.org/2000/svg" viewBox="0 0 16 16">
  <defs id="defs3051">
    <style type="text/css" id="current-color-scheme">.ColorScheme-Text {color:#fcfcfc;}.ColorScheme-NegativeText {color:#da4453;}</style>
  </defs>
  <path
     style="fill:currentColor;fill-opacity:1;stroke:none" 
     class="ColorScheme-Text"
    d="m 1,4 c 0,2 0,6 0,8 0,2 2,2 2,2 l 6,0 V 13 H 2.656 L 6.642,8.35 7.999,9.707 c -0.013,-0.024 6,-6 6,-6 V 8 h 1 C 14.999,8 15,6 15,4 15,2 13,2 13,2 H 3 C 3,2 1,2 1,4 Z M 2.707,3 H 13.293 L 8,8.293 Z M 2,3.707 5.934,7.641 2,12.231 Z" />
  <path
     style="fill:currentColor;fill-opacity:1;stroke:none" 
     class="ColorScheme-NegativeText"
    d="M 12 8 L 12 12 L 13 12 L 13 8 L 12 8 z M 12 13 L 12 14 L 13 14 L 13 13 L 12 13 z " />
</svg>
