<svg xmlns="http://www.w3.org/2000/svg" viewBox="0 0 16 16">
  <defs id="defs3051">
    <style type="text/css" id="current-color-scheme">.ColorScheme-Text {color:#fcfcfc;}</style>
  </defs>
 <path style="fill:currentColor;fill-opacity:1;stroke:none" 
     d="m 1,4 c 0,2 0,6 0,8 0,2 2,2 2,2 H 9 V 13 H 2.65625 L 6.6425781,8.3496094 8,9.7070312 c -0.013148,-0.02367 6,-6 6,-6 V 8 h 1 C 15,8 15,6 15,4 15,2 13,2 13,2 H 3 C 3,2 1,2 1,4 Z M 2.7070312,3 H 13.292969 L 8,8.2929688 Z M 2,3.7070312 5.9335938,7.640625 2,12.230469 Z M 12,8 11.425781,9.6132812 9.8789062,8.8789062 10.613281,10.425781 9,11 10.613281,11.574219 9.8789062,13.121094 11.425781,12.386719 12,14 12.574219,12.386719 14.121094,13.121094 13.386719,11.574219 15,11 13.386719,10.425781 14.121094,8.8789062 12.574219,9.6132812 Z"
     class="ColorScheme-Text"
     />
</svg>
