<svg xmlns="http://www.w3.org/2000/svg" viewBox="0 0 16 16">
  <defs id="defs3051">
    <style type="text/css" id="current-color-scheme">.ColorScheme-Text {color:#fcfcfc;}</style>
  </defs>
 <path style="fill:currentColor;fill-opacity:1;stroke:none" 
     d="m 1,4 c 0,2 0,6 0,8 0,2 2,2 2,2 H 9 V 13 H 2.65625 L 6.6425781,8.3496094 8,9.7070312 c -0.013148,-0.02367 6,-6 6,-6 V 8 h 1 C 15,8 15,6 15,4 15,2 13,2 13,2 H 3 C 3,2 1,2 1,4 Z M 2.7070312,3 H 13.292969 L 8,8.2929688 Z M 2,3.7070312 5.9335938,7.640625 2,12.230469 Z M 12.5,8 C 11.671573,8 11,8.6715729 11,9.5 V 11 c 0,0 -1,0 -1,1 0,1 0,0 0,1 0,1 1,1 1,1 h 2.990485 c 0,0 1.009515,0 1.009515,-1 0,-1 0,0 0,-1 0,-1 -1,-1 -1,-1 V 9.5 C 14,8.6715729 13.328427,8 12.5,8 Z m 0,1 C 12.776142,9 13,9.2238576 13,9.5 V 11 H 12 V 9.5 C 12,9.2238576 12.223858,9 12.5,9 Z M 11,12 h 3 v 1 h -3 z"
     class="ColorScheme-Text"
     />
</svg>
