<?xml version="1.0" encoding="UTF-8" standalone="no"?>
<svg
   viewBox="0 0 32 32"
   id="svg6"
   version="1.1"
   sodipodi:docname="media-seek-backward.svg"
   width="32"
   height="32"
   inkscape:version="1.3.2 (091e20ef0f, 2023-11-25)"
   xmlns:inkscape="http://www.inkscape.org/namespaces/inkscape"
   xmlns:sodipodi="http://sodipodi.sourceforge.net/DTD/sodipodi-0.dtd"
   xmlns="http://www.w3.org/2000/svg"
   xmlns:svg="http://www.w3.org/2000/svg">
  <defs
     id="defs1" />
  <sodipodi:namedview
     id="namedview1"
     pagecolor="#ffffff"
     bordercolor="#999999"
     borderopacity="1"
     inkscape:showpageshadow="2"
     inkscape:pageopacity="0"
     inkscape:pagecheckerboard="0"
     inkscape:deskcolor="#d1d1d1"
     inkscape:zoom="9.9466905"
     inkscape:cx="16.286824"
     inkscape:cy="24.430236"
     inkscape:window-width="1920"
     inkscape:window-height="996"
     inkscape:window-x="0"
     inkscape:window-y="0"
     inkscape:window-maximized="1"
     inkscape:current-layer="svg6" />
  <style
     type="text/css"
     id="current-color-scheme">.ColorScheme-Text { color: #fcfcfc; }
</style>
  <g
     id="media-seek-backward-0"
     style="fill:#bac8df;fill-opacity:1">
    <path
       style="opacity:0.00100002;fill:#bac8df;fill-opacity:1"
       d="M 32,-5e-7 H -1e-6 V 32 H 32 Z"
       id="path82" />
    <path
       d="M 24.485297,7.514747 C 22.218817,5.248194 19.2051,4 16,4 12.7949,4 9.78117,5.248194 7.5149,7.514747 5.24821,9.781299 4,12.794773 4,16 c 0,3.205227 1.24821,6.218694 3.5149,8.485251 2.26627,2.266412 5.28,3.514747 8.4851,3.514747 3.2053,0 6.218817,-1.248335 8.485297,-3.514747 2.26634,-2.266557 3.5147,-5.280024 3.5147,-8.485251 0,-3.205226 -1.24836,-6.218849 -3.5147,-8.485253 z M 23.115,23.814649 C 20.905477,25.688855 19.123498,26.574873 16,26.551998 12.684023,26.527718 11.454045,25.904684 8.885,23.813998 6.79759,21.726744 5.448,18.951955 5.448,16 c 0,-2.952094 1.392416,-6.090429 3.437,-7.814999 2.293791,-2.015596 4.205681,-2.714962 7.115,-2.737 2.951865,-0.02236 4.927587,0.91947 7.115,2.737205 2.08737,2.087403 3.437,4.8627 3.437,7.814795 0,2.951956 -1.34963,5.727395 -3.437,7.814648 z"
       id="path2-36-912-3-3-35-3-3"
       style="stroke-width:0.0374999;fill-opacity:1;fill:currentColor;"
       sodipodi:nodetypes="cscscscsccscscscsc"
       class="ColorScheme-Text " />
    <path
       d="m 14.800001,16.100131 c -3.34e-4,-0.192262 0.07598,-0.376726 0.212058,-0.512554 l 5.767249,-5.7671547 c 1.19622,-1.1930277 2.987381,0.5981017 1.794335,1.7943037 l -4.485841,4.485404 4.485841,4.485405 c 0.494128,0.496046 0.494128,1.298256 0,1.794302 v 0 c -0.495477,0.49552 -1.298858,0.49552 -1.794335,0 l -5.767249,-5.767152 c -0.136074,-0.135828 -0.212392,-0.320292 -0.212058,-0.512554 z m 2.518959,0.256277 z"
       id="path4-3-75-6"
       style="stroke-width:0.36249;fill-opacity:1;fill:currentColor;"
       sodipodi:nodetypes="ccccccsscccccccccccc"
       class="ColorScheme-Text " />
    <path
       d="m 8.8120011,16.10013 c -3.344e-4,-0.192262 0.075984,-0.376726 0.212058,-0.512554 L 14.791308,9.8204223 c 1.19622,-1.1930277 2.987381,0.5981017 1.794335,1.7943037 l -4.485841,4.485404 4.485841,4.485405 c 0.494128,0.496046 0.494128,1.298256 0,1.794302 v 0 c -0.495477,0.49552 -1.298858,0.49552 -1.794335,0 L 9.0240591,16.612685 C 8.8879846,16.476857 8.8116664,16.292392 8.8120011,16.10013 Z m 7.2607149,4.997956 z"
       id="path4-3-75-2"
       style="stroke-width:0.36249;fill-opacity:1;fill:currentColor;"
       sodipodi:nodetypes="ccccccsscccccccccccc"
       class="ColorScheme-Text " />
  </g>
</svg>
