<svg xmlns="http://www.w3.org/2000/svg" viewBox="0 0 16 16">
  <defs id="defs3051">
    <style type="text/css" id="current-color-scheme">.ColorScheme-Text {color:#fcfcfc;}</style>
  </defs>
 <path style="fill:currentColor;fill-opacity:1;stroke:none" 
     d="m 1,4 c 0,2 0,6 0,8 0,2 2,2 2,2 h 9 c 0,0 2,0 2,-2 0,-2 0,-6 0,-8 C 14,2 12,2 12,2 H 3 C 3,2 1,2 1,4 Z M 4,3 h 8 c 0,0 1,0 1,1 0,1 0,7 0,8 0,1 -1,1 -1,1 H 4 C 4,13 3,13 3,12 3,11 3,5 3,4 3,3 4,3 4,3 Z"
     class="ColorScheme-Text"
     />
</svg>
