<?xml version="1.0" encoding="UTF-8" standalone="no"?>
<svg
  viewBox="0 0 16 16"
  id="svg2"
  version="1.1"
  xmlns="http://www.w3.org/2000/svg"
  xmlns:svg="http://www.w3.org/2000/svg"
  xmlns:rdf="http://www.w3.org/1999/02/22-rdf-syntax-ns#"
  xmlns:cc="http://creativecommons.org/ns#"
  xmlns:dc="http://purl.org/dc/elements/1.1/">
 <metadata
   id="metadata14">
  <rdf:RDF>
   <cc:Work
     rdf:about="">
    <dc:format>image/svg+xml</dc:format>
    <dc:type
      rdf:resource="http://purl.org/dc/dcmitype/StillImage" />
   </cc:Work>
  </rdf:RDF>
 </metadata>
 <defs
   id="defs3051">
  <style
    type="text/css"
    id="current-color-scheme">
      .ColorScheme-Text {
        color:#bebebe;
      }
      .ColorScheme-Highlight {
        color:#3daee9;
      }
      </style>
 </defs>
 <g
   transform="matrix(1,0,0,-1,-421.71,547.79)"
   id="g6">
  <path
    style="color:#bebebe;fill:currentColor;fill-opacity:1;stroke:none"
    d="m 424.71,543.79 c 0,-2 0,-6 0,-8 0,-2 2,-2 2,-2 h 6 c 0,0 2,0 2,2 0,2 0,7 0,7 l -3,3 h -5 c 0,0 -2,0 -2,-2 z m 2,1 h 4 v -3 h 3 c 0,0 0,-5 0,-6 0,-1 -1,-0.99607 -1,-0.99607 l -6,-0.004 c 0,0 -1,0 -1,1 0,1 0,7 0,8 0,1 1,1 1,1 z"
    class="ColorScheme-Text"
    id="path8" />
  <path
    style="color:#3daee9;fill:currentColor;fill-opacity:1;stroke:none"
    d="m 426.71,535.79 6,0 0,2 -6,0 z"
    class="ColorScheme-Highlight"
    id="path10" />
 </g>
</svg>
