<svg xmlns="http://www.w3.org/2000/svg" viewBox="0 0 16 16">
  <defs id="defs3051">
<style type="text/css" id="current-color-scheme">.ColorScheme-Text {color:#fcfcfc;}</style>
  </defs>
 <path 
     style="fill:currentColor;fill-opacity:1;stroke:none" 
     d="m 4,2 c 0,0 -2,0 -2,2 0,2 0,6 0,8 0,2 2,2 2,2 h 7.022064 C 11.022064,14 13,14 13,12 13,10 13,6 13,4 13,2 11,2 11,2 Z M 4,3 H 7 V 13 H 4 C 4,13 3,13 3,12 3,11 3,5 3,4 3,3 4,3 4,3 Z m 4,0 h 3 c 0,0 1,0 1,1 0,1 0,7 0,8 0,1 -1,1 -1,1 H 8 Z"
     class="ColorScheme-Text"/>
</svg>
