<svg xmlns="http://www.w3.org/2000/svg" viewBox="0 0 16 16">
  <defs id="defs3051">
    <style type="text/css" id="current-color-scheme">.ColorScheme-Text {color:#fcfcfc;}.ColorScheme-NegativeText {color:#da4453;}</style>
  </defs>
 <path 
     style="fill:currentColor;fill-opacity:1;stroke:none" 
     d="m 2,4 c 0,2 0,6 0,8 0,2 2,2 2,2 H 8 V 13 H 4 C 4,13 3,13 3,12 3,11 3,7 3,6 3,5 4,5 4,5 h 8 c 0,0 1,0 1,1 0,1 0,2 0,2 h 1 C 14,8 14,6 14,4 14,2 12,2 12,2 H 4 C 4,2 2,2 2,4 Z"
     class="ColorScheme-Text"/>
   <path
     style="fill:currentColor;fill-opacity:1;stroke:none" 
     class="ColorScheme-NegativeText"
    d="M 9.71,9 9.003,9.707 10.796,11.5 9.003,13.293 9.71,14 11.503,12.207 13.296,14 14.003,13.293 12.21,11.5 14.003,9.707 13.296,9 11.503,10.793 Z" />
</svg>
