<svg xmlns="http://www.w3.org/2000/svg" viewBox="0 0 16 16">
  <defs id="defs3051">
    <style type="text/css" id="current-color-scheme">.ColorScheme-Text {color:#fcfcfc;}</style>
  </defs>
 <path 
     style="fill:currentColor;fill-opacity:1;stroke:none" 
     d="m 2,4 c 0,2 0,6 0,8 0,2 2,2 2,2 H 8 V 13 H 4 C 4,13 3,13 3,12 3,11 3,7 3,6 3,5 4,5 4,5 h 8 c 0,0 1,0 1,1 0,1 0,2 0,2 h 1 C 14,8 14,6 14,4 14,2 12,2 12,2 H 4 C 4,2 2,2 2,4 Z M 11.001953,8.0019531 10.427734,9.6152344 8.8808594,8.8789062 9.6152344,10.425781 8.0019531,11 9.6152344,11.574219 8.8789062,13.121094 10.425781,12.386719 11,14 11.574219,12.386719 13.121094,13.121094 12.386719,11.574219 14,11 12.386719,10.427734 13.121094,8.8808594 11.574219,9.6152344 Z"
     class="ColorScheme-Text"/>
</svg>
