<svg xmlns="http://www.w3.org/2000/svg" viewBox="0 0 16 16">
  <defs id="defs3051">
<style type="text/css" id="current-color-scheme">.ColorScheme-Text {color:#fcfcfc;}</style>
  </defs>
 <path style="fill:currentColor;fill-opacity:1;stroke:none" 
     d="M 5,2 3,5 H 4 V 7 L 6,4 H 5 Z m 3,0 v 1 h 3 c 0,0 1,0 1,1 0,1 0,6 0,6 H 9 v 3 H 5 C 5,13 4,13 4,12.079 4,11.158001 4,8 4,8 H 3 c 0,0 0,2 0,4 0,2 2,2 2,2 h 4 1 l 3,-3 v -1 c 0,0 0,-4 0,-6 0,-2 -2,-2 -2,-2 z"
     class="ColorScheme-Text"
     />
</svg>
