<!DOCTYPE svg>
<svg viewBox="0 0 16 16" version="1.1" xmlns="http://www.w3.org/2000/svg">
    <defs>
<style type="text/css" id="current-color-scheme">.ColorScheme-Text {color:#fcfcfc;}</style>
    </defs>
    <path class="ColorScheme-Text" style="fill:currentColor; fill-opacity:1; stroke:none" d="M 5,2 C 4.997862,1.9909818 3,2 3,4 3,6 3,7 3,7 V 8 H 13 V 7 5 L 10,2 Z M 4,4 C 4,3 5,3 5,3 l 4,0 v 3 h 3 V 7 H 4 C 4,7 4,5 4,4 Z M 3,9 v 3.017009 C 3,12.017009 3,14 5,14 c 2,0 4,0 6,0 2,0 2,-2 2,-2 V 10 9 Z m 1,1 h 8 v 2 c 0,0 0,1 -1,1 -1,0 -5,0 -6,0 -1,0 -1,-1 -1,-1 z"/>
</svg>
