<svg xmlns="http://www.w3.org/2000/svg" viewBox="0 0 16 16">
  <defs id="defs3051">
<style type="text/css" id="current-color-scheme">.ColorScheme-Text {color:#fcfcfc;}</style>
  </defs>
 <path style="fill:currentColor;fill-opacity:1;stroke:none" 
       d="M 3.5,3 1,6 H 2.6660156 3 c 0,0 0,3 0,5 0,2 2,2 2,2 H 9 V 12 H 5 C 5,12 4,12 4,11 4,10 4,6 4,6 H 4.3339844 6 Z M 7,3 v 1 h 4 c 0,0 1,0 1,1 0,1 0,5 0,5 H 11.666016 10 l 2.5,3 2.5,-3 H 13.333984 13 c 0,0 0,-3 0,-5 0,-2 -2,-2 -2,-2 z"
     class="ColorScheme-Text"
     />
</svg>
