<svg viewBox="0 0 16 16" xmlns="http://www.w3.org/2000/svg">
<style type="text/css" id="current-color-scheme">.ColorScheme-Text {color:#fcfcfc;}</style>
    <g class="ColorScheme-Text" fill="currentColor">
        <path d="m 4,2 c 0,0 -2,0 -2,2 0,2 0,6 0,8 0,2 2,2 2,2 h 8 c 0,0 2,0 2,-2 0,-2 0,-6 0,-8 0,-2 -2,-2 -2,-2 z m 3,1 h 5 c 0,0 1,0 1,1 0,1 0,7 0,8 0,1 -1,1 -1,1 H 7 C 7,13 6,13 6,12 6,11 6,5 6,4 6,3 7,3 7,3 Z"/>
        <path d="m8.3530312 4.6464844-.7070312.7070312 2.646484 2.6464844-2.646484 2.646484.7070312.707032 3.3535158-3.353516z"/>
    </g>
</svg>
