<svg xmlns="http://www.w3.org/2000/svg" viewBox="0 0 16 16">
  <defs id="defs3051">
<style type="text/css" id="current-color-scheme">.ColorScheme-Text {color:#fcfcfc;}</style>
  </defs>
 <path style="fill:currentColor;fill-opacity:1;stroke:none" 
       d="m 2,2 c 0,0 0,8 0,10 0,2 2,2 2,2 V 13 C 4,13 3,13 3,12 3,11 3,5 3,5 H 6 V 9 H 7 V 2 Z M 8,2 V 9 H 9 V 5 h 4 v 2 h 1 V 2 Z M 12.171875,7.671875 11.464844,8.3789062 12.414062,9.328125 13.085938,10 H 11 9 v 1 h 1 1 2.085938 l -0.671876,0.671875 -0.949218,0.949219 0.707031,0.707031 0.949219,-0.949219 L 15,10.5 13.121094,8.6210938 Z m -4.34375,2 L 6.8789062,10.621094 5,12.5 6.8789062,14.378906 7.828125,15.328125 8.5351562,14.621094 7.5859375,13.671875 6.9140625,13 H 9 10 11 V 12 H 9 6.9140625 l 0.671875,-0.671875 0.9492187,-0.949219 z"
     class="ColorScheme-Text"
     />
</svg>
