<svg xmlns="http://www.w3.org/2000/svg" viewBox="0 0 16 16">
  <defs id="defs3051">
    <style type="text/css" id="current-color-scheme">.ColorScheme-Text {color:#fcfcfc;}.ColorScheme-NegativeText {color:#da4453;}</style>
  </defs>
  <path 
     style="fill:currentColor;fill-opacity:1;stroke:none" 
     d="m 2,4 v 8 c 0,2 2,2 2,2 H 8 V 2 H 4 C 4,2 2,2 2,4 Z M 3,4 C 3,3 4,3 4,3 H 7 V 13 H 4 C 4,13 3,13 3,12 Z M 4,4 V 5 H 6 V 4 Z M 4,6 V 7 H 6 V 6 Z M 4,8 V 9 H 5 V 8 Z"
     class="ColorScheme-Text"/>
  <path
      style="fill:currentColor;fill-opacity:1;stroke:none" 
     class="ColorScheme-NegativeText"
   d="m 9,2 v 12 h 3 c 0,0 2,0 2,-2 0,-2 0,-6 0,-8 0,-2 -2,-2 -2,-2 h -2 z m 1,1 h 2 c 0,0 1,0 1,1 0,1 0,7 0,8 0,1 -1,1 -1,1 l -2,0 z" />
</svg>
