<svg xmlns="http://www.w3.org/2000/svg" viewBox="0 0 16 16">
  <defs id="defs3051">
    <style type="text/css" id="current-color-scheme"> .ColorScheme-Text { color:#fcfcfc; } </style>
  </defs>
 <path style="fill:currentColor;fill-opacity:1;stroke:none" 
     d="m 4,2 c 0,0 -2,0 -2,2 0,2 0,6 0,8 0,2 2,2 2,2 H 7 V 13 12 L 8,11 9,10 10,9 11,8 11.5,7.5 11,7 7.65625,10.34375 6.3125,9 H 6.28125 L 3,12.28125 C 3,12.28125 3,5 3,4 3,3 4,3 4,3 h 8 c 0,0 1,0 1,1 0,1 0,4 0,4 h 1 C 14,8 14,6 14,4 14,2 12,2 12,2 Z M 6,4 C 4.89543,4 4,4.89543 4,6 4,7.10457 4.89543,8 6,8 7.10457,8 8,7.10457 8,6 8,4.89543 7.10457,4 6,4 Z m 5,5 -1,1 -2,2 v 1 1 h 2 L 10.59375,13.40625 11,13 l 1,-1 1,-1 c 0,0 1,-1 0,-2 -1,-1 -2,0 -2,0 z m 0.6875,0.6875 0.59375,0.59375 L 12,10.5625 10.59375,11.96875 V 12 L 9.3125,13.28125 8.71875,12.6875 l 1.875,-1.90625 z"
     class="ColorScheme-Text"
     />
</svg>
