<svg xmlns="http://www.w3.org/2000/svg" viewBox="0 0 16 16">
  <defs id="defs3051">
<style type="text/css" id="current-color-scheme">.ColorScheme-Text {color:#fcfcfc;}</style>
  </defs>
 <path style="fill:currentColor;fill-opacity:1;stroke:none" 
     d="m 2,4 c 0,2 0,6 0,8 0,2 2,2 2,2 h 8 c 0,0 2,0 2,-2 0,-2 0,-8 0,-8 H 5 V 3 h 9 V 2 H 4 C 4,2 2,2 2,4 Z M 3,6 H 13 V 9 H 3 Z m 0,4 h 6 v 1 H 3 Z m 7,0 h 3 c 0,0 0,1 0,2 0,1 -1,1 -1,1 l -2,0 z m -7,2 h 6 v 1 C 9,13 5,13 4,13 3,13 3,12 3,12 Z"
     class="ColorScheme-Text"
     />
</svg>
