<svg height="16" width="16" xmlns="http://www.w3.org/2000/svg">
    <style type="text/css" id="current-color-scheme">.ColorScheme-Text {color:#fcfcfc;}</style>
    <path fill="currentColor" class="ColorScheme-Text" d="M 5,4 V 5 C 5,5 4,5 3,5 2,5 2,6 2,6 V 7 H 14 V 6 C 14,6 14,5 13,5 12,5 11,5 11,5 V 4 C 11,4 11,3 10,3 9,3 7,3 6,3 5,3 5,4 5,4 Z m 2,0 c 1,8.505e-4 1,0 2,0 1,0 1,1 1,1 H 6 C 6,5 6,3.9991495 7,4 Z M 2,8 c 0,0 0,1 0,3 0,2 2,2 2,2 h 8 c 0,0 2,0 2,-2 0,-2 0,-3 0,-3 h -4 v 2 H 6 V 8 Z M 7,8 V 9 H 9 V 8 Z"/>
</svg>
