<svg version="1.1" viewBox="0 0 16 16" xmlns="http://www.w3.org/2000/svg"><style type="text/css" id="current-color-scheme">.ColorScheme-NegativeText { color: #da4453; }.ColorScheme-Text { color: #fcfcfc; }</style>
    <path d="m 5.1210938,3 1,1 C 6.1210938,4 8,4 9,4 c 1,0 1,1 1,1 H 7.1210938 l 1,1 H 10 v 1.8789062 l 2,2 V 6 c 0,0 1,0 1,1 0,1 0,3.878906 0,3.878906 l 1,1 C 14,11.878906 14,9 14,7 14,5 12,5 12,5 H 11 C 11,5 11,3 9,3 7,3 5.1210938,3 5.1210938,3 Z M 2,5 c 0,0 0,4 0,6 0,2 2,2 2,2 h 6.878906 L 9.8789062,12 H 6 V 8.1210938 l -2,-2 V 12 C 4,12 3,12 3,11 3,10 3,6 3,6 h 0.8789062 l -1,-1 z" fill="currentColor" class="ColorScheme-Text"/>
    <path d="M 2.7070312,2 2,2.7070312 13.292969,14 14,13.267578 Z" fill="currentColor" class="ColorScheme-NegativeText"/>
</svg>
