<svg xmlns="http://www.w3.org/2000/svg" viewBox="0 0 16 16">
  <defs id="defs3051">
    <style type="text/css" id="current-color-scheme">.ColorScheme-Text {color:#fcfcfc;}</style>
  </defs>
 <path style="fill:currentColor;fill-opacity:1;stroke:none" 
       d="m 2,4 c 0,2 0,3 0,5 0,2 2,2 2,2 h 2 v 2 H 5 v 1 h 6 v -1 h -1 v -2 h 2 c 0,0 2,0 2,-2 C 14,7 14,6 14,4 14,2 12,2 12,2 H 4 C 4,2 2,2 2,4 Z M 4,3 h 8 c 0,0 1,0 1,1 0,1 0,4 0,5 0,1 -1,1 -1,1 H 4 C 4,10 3,10 3,9 3,8 3,5 3,4 3,3 4,3 4,3 Z m 3,1 v 5 l 3,-2.5 z m 0,7 h 2 v 2 H 7 Z"
     class="ColorScheme-Text"
     />
</svg>
