<svg xmlns="http://www.w3.org/2000/svg" viewBox="0 0 16 16">
  <defs id="defs3051">
<style type="text/css" id="current-color-scheme">.ColorScheme-Text {color:#fcfcfc;}</style>
  </defs>
 <path style="fill:currentColor;fill-opacity:1;stroke:none" 
       d="M 5,2 C 3,2 3,4 3,4 H 2 v 1 h 1 v 6 H 2 v 1 h 1 c 0,0 0,2 2,2 2,0 2,0 2,0 V 13 C 7,13 7,13 6,13 5,13 5,12 5,12 V 4 c 0,0 0,-1 1,-1 1,0 6,0 6,0 0,0 1,0 1,1 v 3 h 1 V 4 C 14,2 12,2 12,2 12,2 7,2 5,2 Z M 11.171875,8.671875 10.464844,9.3789062 11.414062,10.328125 12.085938,11 H 8 v 1 h 4.085938 l -0.671876,0.671875 -0.949218,0.949219 0.707031,0.707031 0.949219,-0.949219 L 14,11.5 12.121094,9.6210938 Z"
     class="ColorScheme-Text"
     />
</svg>
