<svg xmlns="http://www.w3.org/2000/svg" viewBox="0 0 16 16">
  <defs id="defs3051">
<style type="text/css" id="current-color-scheme">.ColorScheme-Text {color:#fcfcfc;}</style>
  </defs>
 <path style="fill:currentColor;fill-opacity:1;stroke:none" 
     d="m 2,2 v 10 c 0,0 0,2 2,2 2,0 6,0 8,0 2,0 2,-2 2,-2 V 2 H 12 V 4 H 10 V 2 H 6 V 4 H 4 V 2 Z m 1,3 h 10 v 7 c 0,0 0,1 -1,1 -1,0 -7,0 -8,0 C 3,13 3,12 3,12 Z M 5,7 V 8 H 4 l 1,1 v 1 h 6 V 9 L 12,8 H 11 V 7 Z m 6,3 v 1 h 1 z m -6,0 -1,1 h 1 z"
     class="ColorScheme-Text"
     />
</svg>
