<svg version="1.1" viewBox="0 0 16 16" xmlns="http://www.w3.org/2000/svg"><style type="text/css" id="current-color-scheme">.ColorScheme-Text { color: #fcfcfc; }.ColorScheme-NegativeText { color: #da4453; }</style>
    <path d="m 2,2 v 1 c 0,0 9,0 10,0 1,0 1,1 1,1 v 1 h 1 V 4 C 14,4 14,2 12,2 10,2 2,2 2,2 Z m 0,4 c 0,2 0,4 0,6 0,2 2,2 2,2 H 6 V 13 H 4 C 4,13 3,13 3,12 3,10.64087 3,7.7632387 3,6 3,5 4,5 4,5 h 8 V 4 H 4 C 4,4 2,4 2,6 Z M 4,6 V 7 H 6 V 6 Z M 9,6 C 7,6 7,8 7,8 v 6 H 8 V 8 c 0,0 0,-1 1,-1 1,0 2,0 3,0 1,0 1,1 1,1 h 1 C 14,8 14,6 12,6 10,6 11,6 9,6 Z M 4,9 v 1 H 5 V 9 Z m 0,2 v 1 h 2 v -1 z" fill="currentColor" class="ColorScheme-Text"/>
    <path d="m9 11v1h5v-1z" fill="currentColor" class="ColorScheme-NegativeText"/>
</svg>
