<svg xmlns="http://www.w3.org/2000/svg" viewBox="0 0 16 16">
  <defs id="defs3051">
<style type="text/css" id="current-color-scheme">.ColorScheme-Text {color:#fcfcfc;}</style>
  </defs>
 <path style="fill:currentColor;fill-opacity:1;stroke:none" 
       d="M 4,2 C 4,2 2,2 2,4 2,6 2,7 2,7 h 4 v 5 h 1 2 v 2 h 3 c 0,0 2,0 2,-2 V 9 H 9 v 2 H 7 V 7 5 h 2 v 2 h 5 C 14,7 14,6 14,4 14,2 12,2 12,2 H 9 V 4 H 7 V 2 Z M 4,3 H 6 V 6 H 3 C 3,6 3,5 3,4 3,3 4,3 4,3 Z m 6,0 h 2 c 0,0 1,0 1,1 0,1 0,2 0,2 h -3 z"
     class="ColorScheme-Text"
     />
</svg>
