<svg version="1.1" viewBox="0 0 16 16" xmlns="http://www.w3.org/2000/svg">
    <style id="current-color-scheme" type="text/css">.ColorScheme-Text { color: #fcfcfc; }</style>
    <path d="m 2,2 v 1 c 0,0 9,0 10,0 1,0 1,1 1,1 v 1 h 1 V 4 C 14,4 14,2 12,2 10,2 2,2 2,2 Z m 0,4 c 0,1.325322 0,4.071596 0,6 0,2 2,2 2,2 H 6 V 13 H 4 C 4,13 3,13 3,12 3,11 3,7 3,6 3,5 4,5 4,5 h 8 V 4 H 4 C 4,4 2,4 2,6 Z M 4,6 V 7 H 6 V 6 Z m 3,0 v 1 c 2.271,0.034398 1,0 1,0 0,0 3,0 4,0 1,0 1,1 1,1 h 1 C 14,8 14,6 12,6 10,6 7,6 7,6 Z m 5,2 -4,4 v 2 h 2 l 4,-4 z M 4,9 v 1 H 5 V 9 Z m 7.6895,0.68945 0.5918,0.5918 -2.9688,2.9844 v 0.01563 l -0.59375,-0.59375 2.9707,-2.998 z M 4,10.99995 v 1 h 2 v -1 z" class="ColorScheme-Text" fill="currentColor"/>
</svg>
