<svg xmlns="http://www.w3.org/2000/svg" viewBox="0 0 16 16">
  <defs id="defs3051">
    <style type="text/css" id="current-color-scheme"> .ColorScheme-Text { color:#fcfcfc; } </style>
  </defs>
 <path style="fill:currentColor;fill-opacity:1;stroke:none" 
       d="m 2,4 c 0,2 0,6 0,8 0,2 2,2 2,2 h 8 c 0,0 2,0 2,-2 0,-2 0,-6 0,-8 C 14,2 12,2 12,2 H 4 C 4,2 2,2 2,4 Z M 3,6 C 3,5 4,5 4,5 h 8 c 0,0 1,0 1,1 0,1 0,5 0,6 0,1 -1,1 -1,1 H 4 C 4,13 3,13 3,12 3,11 3,7 3,6 Z M 4,6 V 8 H 6 V 6 Z m 3,1 v 1 h 5 V 7 Z M 4,9 v 1 h 8 V 9 Z m 0,2 v 1 h 8 v -1 z"
     class="ColorScheme-Text"
     />
</svg>
