<svg xmlns="http://www.w3.org/2000/svg" viewBox="0 0 16 16">
  <defs id="defs3051">
<style type="text/css" id="current-color-scheme">.ColorScheme-Text {color:#fcfcfc;}</style>
  </defs>
 <path style="fill:currentColor;fill-opacity:1;stroke:none" 
       d="M 4,2 C 4,2 2,2 2,4 2,6 2,7 2,7 H 7 V 2 Z m 4,0 v 1 h 6 V 2 Z M 4,3 H 6 V 6 H 3 C 3,6 3,5 3,4 3,3 4,3 4,3 Z m 4,2 v 1 h 6 V 5 Z M 2,9 c 0,0 0,1 0,3 0,2 2,2 2,2 H 7 V 9 Z m 6,0 v 1 h 4 V 9 Z m 0,3 v 1 h 4 v -1 z"
     class="ColorScheme-Text"
     />
</svg>
