<svg viewBox="0 0 16 16" xmlns="http://www.w3.org/2000/svg">
  <style type="text/css" id="current-color-scheme">.ColorScheme-Text {color:#fcfcfc;}.ColorScheme-NegativeText {color:#da4453;}</style>
<path
    d="m 3,4 v 4 c 0,0 -2,0 -2,2 0,2 0,2 0,2 0,2 2,2 2,2 h 8 c 0,0 2,0 2,-2 0,-2 0,0 0,-2 C 13,8 11,8 11,8 H 4 V 4 C 4,3 5,3 5,3 h 8 c 0,0 1,0 1,1 v 10 h 1 V 4 C 15,2 13,2 13,2 H 5 C 5,2 3,2 3,4 Z M 5,4 V 5 H 9 V 4 Z M 5,6 V 7 H 8 V 6 Z M 3,9 h 8 c 0,0 1,0 1,1 0,1 0,1 0,2 0,1 -1,1 -1,1 H 3 C 3,13 2,13 2,12 2,12 2,11 2,10 2,9 3,9 3,9 Z m 0,2 v 1 h 6 v -1 z m 7,0 v 1 h 1 v -1 z"
    style="fill:currentColor;fill-opacity:1;stroke:none"
    class="ColorScheme-Text"
    />
<path
    d="m10 4v1h3v-1z"
    style="fill:currentColor;fill-opacity:1;stroke:none"
    class="ColorScheme-NegativeText"
    />
</svg>
