<svg xmlns="http://www.w3.org/2000/svg" viewBox="0 0 16 16">
  <defs id="defs3051">
<style type="text/css" id="current-color-scheme">.ColorScheme-Text {color:#fcfcfc;}</style>
  </defs>
  <g
     transform="translate(-421.71429,-531.79074)">
    <rect
       style="opacity:1;fill:#1d99f3;fill-opacity:1;stroke:none;stroke-linecap:round"
       id="rect4143"
       width="1"
       height="8"
       x="430.71429"
       y="536.79071"
       ry="2.53291e-05" />
    <path
       style="fill:currentColor;fill-opacity:1;stroke:none" 
       d="m 2,2 v 10 c 0,0 0,2 2,2 2,0 6,0 8,0 2,0 2,-2 2,-2 V 2 H 12 V 4 H 10 V 2 H 6 V 4 H 4 V 2 Z m 1,3 h 10 v 7 c 0,0 0,1 -1,1 -1,0 -7,0 -8,0 C 3,13 3,12 3,12 Z M 4,6 V 9 H 5 V 8 H 8 V 9 H 9 V 6 H 8 V 7 H 5 V 6 Z M 8,9 H 7 v 3 h 1 v -1 h 3 v 1 h 1 V 9 h -1 v 1 H 8 Z"
       transform="translate(421.71429,531.79074)"
     class="ColorScheme-Text"
       id="rect4449" />
  </g>
</svg>
