<svg xmlns="http://www.w3.org/2000/svg" viewBox="0 0 16 16">
  <defs id="defs3051">
<style type="text/css" id="current-color-scheme">.ColorScheme-Text {color:#fcfcfc;}</style>
  </defs>
 <path style="fill:currentColor;fill-opacity:1;stroke:none" 
       d="M 4,3 C 4,3 2,3 2,5 2,7 2,8 2,8 h 8 V 3 Z m 7,0 v 5 h 3 C 14,8 14,7 14,5 14,3 12,3 12,3 Z M 4,4 H 9 V 7 H 3 C 3,7 3,6 3,5 3,4 4,4 4,4 Z M 2,9 c 0,0 0,1 0,3 0,2 2,2 2,2 l 8,0 c 0,0 2,0 2,-2 0,-2 0,-3 0,-3 z m 1,1 h 10 c 0,0 0,1 0,2 0,1 -1,1 -1,1 H 4 c 0,0 -1,0 -1,-1 0,-1 0,-2 0,-2 z"
     class="ColorScheme-Text"
     />
</svg>
