<svg version="1.1" viewBox="0 0 16 16" xmlns="http://www.w3.org/2000/svg">
    <defs>
<style type="text/css" id="current-color-scheme">.ColorScheme-Text {color:#fcfcfc;}</style>
    </defs>
    <path  d="M 3 2 L 3 4 C 3 5.999998 5 6 5 6 L 11 6 C 11 6 13 5.999998 13 4 L 13 2 L 12 2 L 12 4 C 12 4.999999 11 5 11 5 L 5 5 C 5 5 4 4.999999 4 4 L 4 2 L 3 2 z M 5 7 C 5 7 3 7.000002 3 9 L 3 14 L 4 14 C 4 14 3.9927 9.999999 4 9 C 4.0072953 8.000001 5 8 5 8 L 9 8 L 9 11 L 12 11 L 12 14 L 13 14 L 13 10 L 10 7 L 5 7 z "  style="fill:currentColor;fill-opacity:1;stroke:none" class="ColorScheme-Text"/>
</svg>
