<svg version="1.1" viewBox="0 0 16 16" xmlns="http://www.w3.org/2000/svg">
    <defs>
<style type="text/css" id="current-color-scheme">.ColorScheme-Text {color:#fcfcfc;}</style>
    </defs>
    <path d="M 0,12 V 5 L 3,2 H 6 C 8,2 8,4 8,4 8,4 8,2 10,2 h 3 l 3,3 v 7 c 0,2 -2,2 -2,2 0,0 -2,0 -4,0 -2,0 -2,-2 -2,-2 0,0 0,2 -2,2 -2,0 -4,0 -4,0 0,0 -2,0 -2,-2 z m 2,1 h 4 c 0,0 1,0 1,-1 V 4 C 7,3 6,3 6,3 H 4 V 6 H 1 v 6 c 0,1 1,1 1,1 z m 8,0 h 4 c 0,0 1,0 1,-1 V 6 H 12 V 3 H 10 C 10,3 9,3 9,4 v 8 c 0,1 1,1 1,1 z"  style="fill:currentColor;fill-opacity:1;stroke:none" class="ColorScheme-Text"/>
</svg>
