<svg xmlns="http://www.w3.org/2000/svg" viewBox="0 0 16 16">
  <defs id="defs3051">
<style type="text/css" id="current-color-scheme">.ColorScheme-Text {color:#fcfcfc;}</style>
  </defs>
 <path style="fill:currentColor;fill-opacity:1;stroke:none" 
     d="M 5,2 C 3,2 3,4 3,4 H 2 v 1 h 1 v 6 H 2 v 1 h 1 c 0,0 0,2 2,2 2,0 5,0 7,0 2,0 2,-2 2,-2 V 4 C 14,4 14,2 12,2 10,2 7,2 5,2 Z m 1,1 c 1,0 5,0 6,0 1,0 1,1 1,1 v 8 c 0,0 0,1 -1,1 -1,0 -5,0 -6,0 C 5,13 5,12 5,12 V 4 C 5,4 5,3 6,3 Z m 0,1 v 1 h 6 V 4 Z m 0,4 v 1 h 6 V 8 Z m 4,3 v 1 h 2 v -1 z"
     class="ColorScheme-Text"
     />
</svg>
