<svg xmlns="http://www.w3.org/2000/svg" viewBox="0 0 16 16">
  <defs id="defs3051">
<style type="text/css" id="current-color-scheme">.ColorScheme-Text {color:#fcfcfc;}</style>
  </defs>
 <path style="fill:currentColor;fill-opacity:1;stroke:none" 
     d="m 1,4 c 0,2 0,6 0,8 0,2 2,2 2,2 h 5 c 0,0 2,0 2,-2 0,-2 0,-6 0,-8 C 10,2 8,2 8,2 H 3 C 3,2 1,2 1,4 Z M 8,3 c 0,0 1,0 1,1 0,1 0,7 0,8 0,1 -1,1 -1,1 z m 3,2 v 7 l 1.5,2 1.5,-2 V 5 Z m 1,1 h 1 v 5 h -1 z"
     class="ColorScheme-Text"
     />
</svg>
