<svg viewBox="0 0 16 16" xmlns="http://www.w3.org/2000/svg">
  <defs id="defs3051">
    <style type="text/css" id="current-color-scheme">.ColorScheme-Text {color:#fcfcfc;}.ColorScheme-NegativeText {color:#2ecc71;}</style>
  </defs>
<path d="m 2,2 v 1 h 10 c 1,0 1,1 1,1 v 1 h 1 V 4 C 14,4 14,2 12,2 Z M 4,4 C 4,4 2,4 2,6 v 6 c 0,2 2,2 2,2 H 6 V 13 H 4 C 4,13 3,13 3,12 V 6 C 3,5 4,5 4,5 h 8 V 4 Z M 4,6 V 7 H 6 V 6 Z m 0,3 v 1 H 5 V 9 Z m 0,2 v 1 h 2 v -1 z"
      style="fill:currentColor;fill-opacity:1;stroke:none"
      class="ColorScheme-Text"
      />
<path d="m 9,6 c 0,0 -2,0 -2,2 0,2 0,2 0,4 0,2 2,2 2,2 h 3 c 0,0 2,0 2,-2 0,-2 0,-2 0,-4 0,-2 -2,-2 -2,-2 z m 0,1 h 3 c 0,0 1,0 1,1 0,1 0,3 0,4 0,1 -1,1 -1,1 H 9 C 9,13 8,13 8,12 8,11 8,9 8,8 8,7 9,7 9,7 Z m 0,1 v 2 h 3 V 8 Z m 0,3 v 1 h 1 v -1 z m 2,0 v 1 h 1 v -1 z"
      style="fill:currentColor;fill-opacity:1;stroke:none"
      class="ColorScheme-NegativeText"
      />
</svg>
