<svg viewBox="0 0 16 16" xmlns="http://www.w3.org/2000/svg">
  <defs id="defs3051">
<style type="text/css" id="current-color-scheme">.ColorScheme-Text {color:#fcfcfc;}</style>
  </defs>
<path
    d="M 2 2 L 2 3 L 12 3 C 12.999999 3 13 4 13 4 L 13 5 L 14 5 L 14 4 C 14 4 13.999998 2 12 2 L 2 2 z M 4 4 C 4 4 2 4.000002 2 6 L 2 12 C 2 13.999998 4 14 4 14 L 6 14 L 6 13 L 4 13 C 4 13 3 12.999999 3 12 L 3 6 C 3 5.000001 4 5 4 5 L 12 5 L 12 4 L 4 4 z M 4 6 L 4 7 L 6 7 L 6 6 L 4 6 z M 9 6 C 9 6 7 6.000002 7 8 L 7 12 C 7 13.999998 9 14 9 14 L 12 14 C 12 14 14 13.999998 14 12 L 14 8 C 14 6.000002 12 6 12 6 L 9 6 z M 9 7 L 12 7 C 12 7 13 7.000001 13 8 L 13 12 C 13 12.999999 12 13 12 13 L 9 13 C 9 13 8 12.999999 8 12 L 8 8 C 8 7.000001 9 7 9 7 z M 9 8 L 9 10 L 12 10 L 12 8 L 9 8 z M 4 9 L 4 10 L 5 10 L 5 9 L 4 9 z M 4 11 L 4 12 L 6 12 L 6 11 L 4 11 z M 9 11 L 9 12 L 10 12 L 10 11 L 9 11 z M 11 11 L 11 12 L 12 12 L 12 11 L 11 11 z "
    style="fill:currentColor;fill-opacity:1;stroke:none" 
    class="ColorScheme-Text"
    />
</svg>
