<svg xmlns="http://www.w3.org/2000/svg" viewBox="0 0 16 16">
  <defs id="defs3051">
<style type="text/css" id="current-color-scheme">.ColorScheme-Text {color:#fcfcfc;}</style>
  </defs>
 <path style="fill:currentColor;fill-opacity:1;stroke:none" 
       d="M 2,4 C 2,6 2,7 2,7 H 7 V 2 H 4 C 4,2 2,2 2,4 Z M 9,2 v 5 h 5 C 14,7 14,6 14,4 14,2 12,2 12,2 Z M 3,4 C 3,3 4,3 4,3 H 6 V 6 H 3 C 3,6 3,5 3,4 Z M 2,9 c 0,0 0,1 0,3 0,2 2,2 2,2 H 7 V 9 Z m 7,0 v 5 h 3 c 0,0 2,0 2,-2 0,-2 0,-3 0,-3 z m 1,1 h 3 c 0,0 0,1 0,2 0,1 -1,1 -1,1 l -2,0 z"
     class="ColorScheme-Text"
     />
</svg>
