<svg xmlns="http://www.w3.org/2000/svg" viewBox="0 0 16 16">
  <defs id="defs3051">
<style type="text/css" id="current-color-scheme">.ColorScheme-Text {color:#fcfcfc;}</style>
  </defs>
 <path style="fill:currentColor;fill-opacity:1;stroke:none" 
       d="M 4,2 C 4,2 2,2 2,4 2,6 2,7 2,7 V 8 H 14 V 7 C 14,7 14,6 14,4 14,2 12,2 12,2 Z M 3,5 H 6 V 7 H 3 Z m 4,0 h 6 V 7 H 7 Z m -5,5 v 2 c 0,0 0,2 2,2 2,0 6,0 8,0 2,0 2,-2 2,-2 v -2 z m 1,1 h 3 v 2 C 6,13 5,13 4,13 3,13 3,12 3,12 Z m 4,0 h 6 v 1 c 0,0 0,1 -1,1 -1,0 -5,0 -5,0 z"
     class="ColorScheme-Text"
     />
</svg>
