<svg xmlns="http://www.w3.org/2000/svg" viewBox="0 0 16 16">
  <defs id="defs3051">
<style type="text/css" id="current-color-scheme">.ColorScheme-Text {color:#fcfcfc;}</style>
  </defs>
<path
    d="M 7,3 C 5,3 5,5 5,5 H 4 c 0,0 -2,0 -2,2 0,2 0,2 0,4 0,2 2,2 2,2 h 8 c 0,0 2,0 2,-2 C 14,9 14,9 14,7 14,5 12,5 12,5 H 11 C 11,5 11,3 9,3 7,3 9,3 7,3 Z m 0,1 c 1,0 1,0 2,0 1,0 1,1 1,1 H 6 C 6,5 6,4 7,4 Z M 3,7 C 3,6 4,6 4,6 v 6 C 4,12 3,12 3,11 3,10 3,8 3,7 Z M 6,6 h 4 v 6 H 6 Z m 6,0 c 0,0 1,0 1,1 0,1 0,3 0,4 0,1 -1,1 -1,1 z"
    style="fill:currentColor;fill-opacity:1;stroke:none"
    class="ColorScheme-Text"
    />
</svg>
