<svg xmlns="http://www.w3.org/2000/svg" viewBox="0 0 16 16">
  <defs id="defs3051">
    <style type="text/css" id="current-color-scheme"> .ColorScheme-Text { color:#fcfcfc; } </style>
  </defs>
 <path style="fill:currentColor;fill-opacity:1;stroke:none" 
       d="m 2,4 c 0,2 0,6 0,8 0,2 2,2 2,2 H 8 9 V 13 H 8 4 C 4,13 3,13 3,12 3,11 3,7 3,6 3,5 4,5 4,5 h 8 c 0,0 1,0 1,1 0,1 0,1 0,1 h 1 C 14,7 14,6 14,4 14,2 12,2 12,2 H 4 C 4,2 2,2 2,4 Z M 8.6875,2.5 10.34375,3.59375 12,2.5 12.6875,2.9375 10.6875,4.25 10.34375,4.5 10,4.25 8,2.9375 Z M 4,6 v 2 2 2 H 6 7 V 11 10 8 7 6 H 6 Z M 8,7 V 8 H 9 V 7 Z M 12,7 9,11.082031 11,11 v 3 l 3,-4 h -2 z"
     class="ColorScheme-Text"
     />
</svg>
