<svg xmlns="http://www.w3.org/2000/svg" viewBox="0 0 16 16">
  <defs id="defs3051">
<style type="text/css" id="current-color-scheme">.ColorScheme-Text {color:#fcfcfc;}</style>
  </defs>
    <path
       style="fill:currentColor;fill-opacity:1;stroke:none" 
       d="m 2,2 c 0,0 0,8 0,10 0,2 2,2 2,2 H 7 V 13 H 4 C 4,13 3,13 3,12 3,11 3,5 3,5 h 10 v 3 h 1 V 2 H 12 V 4 H 10 V 2 H 6 V 4 H 4 V 2 Z M 4,6 V 9 H 5 V 8 H 8 V 9 H 9 V 6 H 8 V 7 H 5 V 6 Z m 8,2 -1,1 -1,1 -2,2 v 1 1 h 2 L 10.59375,13.40625 11,13 l 1,-1 1,-1 1,-1 z M 11.689453,9.6894531 12.28125,10.28125 12,10.5625 10.59375,11.96875 v 0.01563 L 9.3125,13.28125 8.71875,12.6875 Z"
        class="ColorScheme-Text"
       id="rect4449" />
</svg>
