<svg version="1.1" viewBox="0 0 16 16" xmlns="http://www.w3.org/2000/svg">
    <defs>
        <style id="current-color-scheme" type="text/css"> .ColorScheme-Text { color:#fcfcfc; }</style>
    </defs>
    <path class="ColorScheme-Text" d="m 14,4 c 0,2 0,6 0,8 0,2 -2,2 -2,2 H 4 C 4,14 2,14 2,12 2,10 2,6 2,4 2,2 4,2 4,2 h 8 c 0,0 2,0 2,2 z m -2,0 h -1 v 9 h 1 c 0,0 1,0 1,-1 0,-1 0,-6 0,-7 C 13,4 12,4 12,4 Z M 10,4 H 4 c 0,0 -1,0 -1,1 0,1 0,6 0,7 0,1 1,1 1,1 h 6 z M 7,6 V 8 H 9 V 9 H 7 v 2 H 6 V 9 H 4 V 8 H 6 V 6 Z" fill="currentColor"/>
</svg>
