<svg xmlns="http://www.w3.org/2000/svg" viewBox="0 0 16 16">
  <defs id="defs3051">
    <style type="text/css" id="current-color-scheme">.ColorScheme-Text {color:#fcfcfc;}.ColorScheme-NegativeText {color:#da4453;}</style>
  </defs>
  <g
     transform="translate(-421.71429,-531.79074)">
    <path
       style="fill:currentColor;fill-opacity:1;stroke:none" 
       d="m 2,2 c 0,0 -0.00114,8.00008 0,10 0.00114,1.99992 2,2 2,2 H 8 V 13 H 4 C 4,13 3,13 3,12 3,11 3,5 3,5 h 10 v 3 h 1 V 2 H 12 V 4 H 10 V 2 H 6 V 4 H 4 V 2 Z M 4,6 V 9 H 5 V 8 H 8 V 9 H 9 V 6 H 8 V 7 H 5 V 6 Z"
       transform="translate(421.71429,531.79074)"
     class="ColorScheme-Text"
       id="rect4449" />
    <path
        style="fill:currentColor;fill-opacity:1;stroke:none" 
     class="ColorScheme-NegativeText"
    d="m 430.71429,541.62397 1.66667,1.66672 -1.66667,1.66665 0.83333,0.83332 1.66667,-1.66657 1.66667,1.66657 0.83333,-0.83332 -1.66666,-1.66665 1.66666,-1.66672 -0.83333,-0.83332 -1.66667,1.66672 -1.66667,-1.66672 -0.83333,0.83332 z" />
  </g>
</svg>
