<svg xmlns="http://www.w3.org/2000/svg" viewBox="0 0 16 16">
  <defs id="defs3051">
<style type="text/css" id="current-color-scheme">.ColorScheme-Text {color:#fcfcfc;}</style>
  </defs>
 <path style="fill:currentColor;fill-opacity:1;stroke:none" 
     d="M 4.5,2 C 4.2238635,2 4.0000083,2.2238552 4,2.5 4.0000083,2.7761448 4.2238635,3 4.5,3 4.7761365,3 4.9999917,2.7761448 5,2.5 4.9999917,2.2238552 4.7761365,2 4.5,2 Z m 3,0 C 7.2238576,2 7,2.2238576 7,2.5 7,2.7761424 7.2238576,3 7.5,3 7.7761424,3 8,2.7761424 8,2.5 8,2.2238576 7.7761424,2 7.5,2 Z m 3,0 C 10.223863,2 10.000008,2.2238552 10,2.5 10.000008,2.7761448 10.223863,3 10.5,3 10.776137,3 10.999992,2.7761448 11,2.5 10.999992,2.2238552 10.776137,2 10.5,2 Z M 4,4 v 2 c 0,0 -2,0 -2,2 0,2 0,4 0,4 0,0 0,2 2,2 2,0 6,0 8,0 2,0 2,-2 2,-2 0,0 0,-2 0,-4 C 14,6 12,6 12,6 H 11 V 4 H 10 V 6 H 8 V 4 H 7 V 6 H 5 V 4 Z m 0,3 h 8 c 0,0 1,0 1,1 0,1 0,2 0,2 -1.104569,0 -2,-0.4477153 -2,-1 V 8 H 10 V 9 C 10,9.5522847 9.1045695,10 8,10 6.8954305,10 6,9.5522847 6,9 V 8 H 5 V 9 C 5,9.5522847 4.1045695,10 3,10 3,10 3,9 3,8 3,7 4,7 4,7 Z m 1.5,3.103516 C 6.0551241,10.662911 6.9938991,10.99955 8,11 9.0061009,10.99955 9.9448759,10.662911 10.5,10.103516 11.055124,10.662911 11.993899,10.99955 13,11 v 1 c 0,0 0,1 -1,1 -1,0 -7,0 -8,0 -1,0 -1,-1 -1,-1 v -1 c 1.0061009,-4.5e-4 1.9448759,-0.337089 2.5,-0.896484 z"
     class="ColorScheme-Text"
     />
</svg>
