<?xml version="1.0" encoding="UTF-8" standalone="no"?>
<svg
  viewBox="0 0 16 16"
  version="1.1"
  id="svg1"
  xmlns="http://www.w3.org/2000/svg"
  xmlns:svg="http://www.w3.org/2000/svg">
 <defs
   id="defs3051">
  <style
    type="text/css"
    id="current-color-scheme">
      .ColorScheme-Text {
        color:#fcfcfc;
      }
      </style>
 </defs>
 <path
   style="fill:currentColor;fill-opacity:1;stroke:none"
   d="m 2,4 c 0,2 0,6 0,8 0,2 2,2 2,2 H 9 V 13 H 4 C 4,13 3,13 3,12 3,11 3,6 3,5 3,4 4,4 4,4 h 8 c 0,0 1,0 1,1 0,1 0,4 0,4 h 1 C 14,9 14,6 14,4 14,2 12,2 12,2 H 4 C 4,2 2,2 2,4 Z m 9,5 v 2 H 9 v 1 h 2 v 2 h 1 v -2 h 2 V 11 H 12 V 9 Z"
   class="ColorScheme-Text"
   id="rect4498" />
</svg>
