<svg xmlns="http://www.w3.org/2000/svg" viewBox="0 0 16 16">
  <defs id="defs3051">
    <style type="text/css" id="current-color-scheme">.ColorScheme-Text {color:#fcfcfc;}</style>
  </defs>
 <path style="fill:currentColor;fill-opacity:1;stroke:none" 
       d="m 4,2 c 0,0 -2,0 -2,2 0,2 0,6 0,8 0,2 2,2 2,2 h 8 c 0,0 2,0 2,-2 0,-2 0,-6 0,-8 0,-2 -2,-2 -2,-2 z m 0,3 h 8 c 0,0 1,0 1,1 0,1 0,5 0,6 0,1 -1,1 -1,1 H 4 C 4,13 3,13 3,12 3,11 3,7 3,6 3,5 4,5 4,5 Z M 9.1992188,6 8.125,7.0078125 6,9 8.125,10.992188 9.1992188,12 10,11.25 8.9257812,10.242188 7.5996094,9 8.9257812,7.7578125 10,6.75 Z"
     class="ColorScheme-Text"
     />
</svg>
