<svg xmlns="http://www.w3.org/2000/svg" viewBox="0 0 16 16">
  <defs id="defs3051">
    <style type="text/css" id="current-color-scheme">.ColorScheme-Text {color:#fcfcfc;}</style>
  </defs>
 <path style="fill:currentColor;fill-opacity:1;stroke:none" 
       d="m 4,2 c 0,0 -2,0 -2,2 0,2 0,6 0,8 0,2 2,2 2,2 h 8 c 0,0 2,0 2,-2 0,-2 0,-6 0,-8 C 14,2 12,2 12,2 Z M 3,6 C 3,5 4,5 4,5 h 8 c 0,0 1,0 1,1 0,1 0,5 0,6 0,1 -1,1 -1,1 H 4 C 4,13 3,13 3,12 3,11 3,7 3,6 Z M 6.8007812,6 6,6.75 7.0742188,7.7578125 8.4003906,9 7.0742188,10.242188 6,11.25 6.8007812,12 7.875,10.992188 10,9 7.875,7.0078125 Z"
     class="ColorScheme-Text"
     />
</svg>
