<svg xmlns="http://www.w3.org/2000/svg" viewBox="0 0 16 16">
  <defs id="defs3051">
<style type="text/css" id="current-color-scheme">.ColorScheme-Text {color:#fcfcfc;}</style>
  </defs>
 <path style="fill:currentColor;fill-opacity:1;stroke:none" 
       d="M 2,4 H 3 C 3,3 4,3 4,3 V 2 C 4,2 2,2 2,4 Z M 7,2 V 3 H 9 V 2 Z m 5,0 v 1 c 0,0 1,0 1,1 h 1 C 14,2 12,2 12,2 Z M 8,4 v 1 h 2.292969 L 7,8.2929688 7.7070312,9 11,5.7070312 V 8 h 1 V 4 H 11 Z M 2,7 V 9 H 3 V 7 Z m 11,0 v 2 h 1 V 7 Z M 2,10 v 4 h 4 v -4 z m 1,1 h 2 v 2 H 3 Z m 10,1 c 0,1 -1,1 -1,1 v 1 c 0,0 2,0 2,-2 z m -6,1 v 1 h 2 v -1 z"
     class="ColorScheme-Text"
     />
</svg>
