<svg xmlns="http://www.w3.org/2000/svg" viewBox="0 0 16 16">
  <defs id="defs3051">
<style type="text/css" id="current-color-scheme">.ColorScheme-Text {color:#fcfcfc;}</style>
  </defs>
 <path style="fill:currentColor;fill-opacity:1;stroke:none" 
       d="M 2,4 C 2,6 2,5 2,5 H 3 C 3,5 3,5 3,4 3,3 4,3 4,3 H 5 V 2 H 4 C 4,2 2,2 2,4 Z m 9,-2 v 1 h 1 c 0,0 1,0 1,1 0,1 0,1 0,1 h 1 C 14,5 14,6 14,4 14,2 12,2 12,2 Z M 4,4 v 8 h 8 V 4 Z m 1,1 h 6 v 6 H 5 Z m -3,6 c 0,0 0,-1 0,1 0,2 2,2 2,2 H 5 V 13 H 4 c 0,0 -1,0 -1,-1 0,-1 0,-1 0,-1 z m 11,0 c 0,0 0,0 0,1 0,1 -1,1 -1,1 h -1 v 1 h 1 c 0,0 2,0 2,-2 0,-2 0,-1 0,-1 z"
     class="ColorScheme-Text"
     />
</svg>
