<svg xmlns="http://www.w3.org/2000/svg" viewBox="0 0 16 16">
  <defs id="defs3051">
<style type="text/css" id="current-color-scheme">.ColorScheme-Text {color:#fcfcfc;}</style>
  </defs>
 <path style="fill:currentColor;fill-opacity:1;stroke:none" 
       d="M 2,4 C 2,6 2,9 2,9 H 3 C 3,9 3,5 3,4 3,3 4,3 4,3 h 8 c 0,0 1,0 1,1 0,1 0,7 0,8 0,1 -1,1 -1,1 H 7 v 1 h 5 c 0,0 2,0 2,-2 0,-2 0,-6 0,-8 C 14,2 12,2 12,2 H 4 C 4,2 2,2 2,4 Z M 11.292969,4 8,7.2929688 V 5 H 7 v 4 h 1 3 V 8 H 8.7070312 L 12,4.7070312 Z M 2,10 v 4 h 4 v -4 z m 1,1 h 2 v 2 H 3 Z"
     class="ColorScheme-Text"
     />
</svg>
