<svg xmlns="http://www.w3.org/2000/svg" viewBox="0 0 16 16">
  <defs id="defs3051">
<style type="text/css" id="current-color-scheme">.ColorScheme-Text {color:#fcfcfc;}</style>
  </defs>
 <path style="fill:currentColor;fill-opacity:1;stroke:none" 
       d="M 2,2 V 6 H 6 V 2 Z m 5,0 v 1 h 5 c 0,0 1,0 1,1 0,1 0,2 0,2 h 1 C 14,6 14,6 14,4 14,2 12,2 12,2 Z M 3,3 H 5 V 5 H 3 Z M 2,7 c 0,0 0,3 0,5 0,2 2,2 2,2 H 7 V 13 H 4 C 4,13 3,13 3,12 3,11 3,7 3,7 Z m 8,0.4296875 V 12.085938 L 8.3789062,10.464844 7.671875,11.171875 9.7929688,13.292969 10.5,14 13.328125,11.171875 12.621094,10.464844 11,12.085938 V 7.4296875 Z"
     class="ColorScheme-Text"
     />
</svg>
