<svg xmlns="http://www.w3.org/2000/svg" xmlns:svg="http://www.w3.org/2000/svg" viewBox="0 0 24 24" version="1.1" id="svg6" width="24" height="24">
  <defs id="defs3051">
    <style type="text/css" id="current-color-scheme"> .ColorScheme-Text { color:#eff0f1; } </style>
  </defs>
  <g transform="translate(1,1)">
    <path style="fill:currentColor" d="M 3,5.1666667 V 16.847053 C 3,18.351852 3.6666667,19 5.1904589,19 H 16.710395 C 18.314815,19 19,18.351852 19,16.842805 V 5.1820121 C 19,3.652212 18.314815,3 16.696812,3 H 5.1851852 C 3.6666667,3 3,3.652212 3,5.1666667 Z m 14.666667,1.88915 H 4.290646 L 4.2896775,4.9116789 c 0,-0.4815914 0.2960357,-0.6224934 0.6965729,-0.6224934 l 12.0099536,0.00905 c 0.473535,0 0.661119,0.2820601 0.661119,0.6405783 z M 4.3333333,8.38915 H 7 v 4.000001 H 4.3333333 Z m 4,0 h 5.3333337 v 4.000001 H 8.3333333 Z M 15,8.38915 h 2.666667 v 4.000001 H 15 Z M 4.3333333,13.722484 H 7 v 4 H 4.3333333 Z m 4,0 h 5.3333337 v 4 H 8.3333333 Z m 6.6666667,0 h 2.666667 v 4 H 15 Z" class="ColorScheme-Text" id="path1-9"/>
  </g>
</svg>
