<svg xmlns="http://www.w3.org/2000/svg" xmlns:svg="http://www.w3.org/2000/svg" viewBox="0 0 24 24" version="1.1" id="svg6" width="24" height="24">
  <defs id="defs3051">
    <style type="text/css" id="current-color-scheme"> .ColorScheme-Text { color:#eff0f1; } </style>
  </defs>
  <g transform="translate(1,1)">
    <path style="fill:currentColor;stroke-width:1.31966" d="M 5.9387755,3 C 4.4915918,3 3.3265306,4.1893333 3.3265306,5.6666667 V 16.333333 C 3.3265306,17.810667 4.4915918,19 5.9387755,19 H 16.387755 C 17.834939,19 19,17.810667 19,16.333333 V 5.6666667 C 19,4.1893333 17.834939,3 16.387755,3 Z m 0,2.6666667 H 16.387755 c 0.723592,0 1.306123,0.5946666 1.306123,1.3333333 v 9.333333 c 0,0.609215 -0.501454,1.25 -1.306123,1.25 H 5.9387755 c -0.8456313,0 -1.3061224,-0.625112 -1.3061224,-1.25 V 7 c 0,-0.7386667 0.5825306,-1.3333333 1.3061224,-1.3333333 z M 7,7.6964378 v 3.5000002 h 3.5 V 7.6964378 Z m 4.5,0 V 11.196438 H 15 V 7.6964378 Z M 7,12.196438 v 3.5 h 3.5 v -3.5 z m 4.5,0 v 3.5 H 15 v -3.5 z" class="ColorScheme-Text" id="path1"/>
  </g>
</svg>
