<svg xmlns="http://www.w3.org/2000/svg" xmlns:svg="http://www.w3.org/2000/svg" viewBox="0 0 24 24" version="1.1" id="svg1" width="24" height="24">
  <defs id="defs3051">
    <style type="text/css" id="current-color-scheme"> .ColorScheme-Text { color:#eff0f1; } </style>
  </defs>
  <g transform="translate(1,1)">
    <path style="fill:currentColor" d="m 5,5.6758277 v 4 h 2 l 2,-2 v -2 z M 13.5,6 C 11.56101,6 10,7.561 10,9.5 10,11.439 11.56101,13 13.5,13 15.43899,13 17,11.439 17,9.5 17,7.561 15.43899,6 13.5,6 Z m 0,1 C 14.885,7 16,8.115 16,9.5 16,10.885 14.885,12 13.5,12 12.115,12 11,10.885 11,9.5 11,8.115 12.115,7 13.5,7 Z M 9,8.6758277 l -1,1 H 9 Z M 13,8 v 2 h 1 1 V 9 H 14 V 8 Z m -8,4 v 2 h 2 l 1,1 v -1 h 0.2363281 v -2 z m -2,6 v 1 H 19 V 18 Z M 5,3 C 3.892,3 3,3.892 3,5 v 10 c 0,1.108 0.892,2 2,2 h 12 c 1.108,0 2,-0.892 2,-2 V 5 C 19,3.892 18.108,3 17,3 Z m 0,1 h 12 c 0.554,0 1,0.446 1,1 v 10 c 0,0.456911 -0.383925,0.9375 -1,0.9375 H 5 C 4.3525635,15.9375 4,15.468666 4,15 V 5 C 4,4.446 4.446,4 5,4 Z" class="ColorScheme-Text" id="path1"/>
  </g>
</svg>
