<svg xmlns="http://www.w3.org/2000/svg" viewBox="0 0 24 24" width="24" height="24">
  <defs id="defs3051">
    <style type="text/css" id="current-color-scheme">
      .ColorScheme-Text {
        color:#eff0f1
      }
      </style>
  </defs>
  <g transform="translate(1,1)">
    <path style="fill:currentColor" d="M 18.1,3.14 4.3835787,16.912028 3.3300765,16.910899 H 3 V 18.3 19 H 3.7 18.511728 C 19.007547,19 19,18.999679 19,18.572495 v -1.237437 c 0,-0.424159 -4.72e-4,-0.424159 -0.488272,-0.424159 H 7.8080412 5.7968248 L 18.9,3.9 Z M 17.3,7.4 16.5,8.2 c 0.8,1.3 1.5,3.1 1.5,4.8 0,1 -0.3,2 -0.6,3 h 1.1 C 18.8,15 19,14 19,13 19,10.9 18.4,9 17.3,7.4 Z m 0.418822,9.768888 c 0.06932,0 0.141806,0.0093 0.161091,0.02038 0.01928,0.01132 0.03506,0.138935 0.03506,0.222961 v 1.071888 c 0,0.08404 -0.0071,0.173187 -0.0158,0.198069 -0.0088,0.0249 -0.111061,0.04529 -0.180372,0.04529 h -0.05142 c -0.06933,0 -0.14182,-0.0093 -0.161091,-0.02037 -0.01929,-0.01132 -0.03506,-0.138899 -0.03506,-0.222961 v -1.071891 c 0,-0.08404 0.0071,-0.173132 0.01576,-0.198068 0.0088,-0.0249 0.111061,-0.04529 0.180376,-0.04529 z m -2.181755,0 c 0.06932,0 0.14182,0.0093 0.161097,0.02038 0.01929,0.01132 0.03506,0.138935 0.03506,0.222961 v 1.071888 c 0,0.08404 -0.0071,0.173187 -0.0158,0.198069 -0.0087,0.0249 -0.111061,0.04529 -0.180374,0.04529 h -0.05142 c -0.06933,0 -0.141806,-0.0093 -0.161096,-0.02037 -0.01929,-0.01132 -0.03506,-0.138899 -0.03506,-0.222961 v -1.071891 c 0,-0.08404 0.0071,-0.173132 0.0158,-0.198068 0.0088,-0.0249 0.111061,-0.04529 0.180376,-0.04529 z m -2.181778,0 c 0.06933,0 0.141806,0.0093 0.161091,0.02038 0.01928,0.01132 0.03506,0.138935 0.03506,0.222961 v 1.071888 c 0,0.08404 -0.0071,0.173187 -0.01576,0.198069 -0.0087,0.0249 -0.111096,0.04529 -0.180406,0.04529 h -0.05137 c -0.06933,0 -0.14182,-0.0093 -0.161093,-0.02037 -0.01928,-0.01132 -0.03506,-0.138899 -0.03506,-0.222961 v -1.071891 c 0,-0.08404 0.0071,-0.173132 0.01576,-0.198068 0.0088,-0.0249 0.111061,-0.04529 0.180374,-0.04529 z m -2.181718,0 c 0.06932,0 0.141807,0.0093 0.161092,0.02038 0.01928,0.01132 0.03506,0.138935 0.03506,0.222961 v 1.071888 c 0,0.08404 -0.0071,0.173187 -0.01576,0.198069 -0.0088,0.0249 -0.111062,0.04529 -0.180377,0.04529 h -0.05142 c -0.06933,0 -0.14182,-0.0093 -0.161091,-0.02037 -0.01928,-0.01132 -0.03506,-0.138899 -0.03506,-0.222961 v -1.071891 c 0,-0.08404 0.0072,-0.173132 0.01579,-0.198068 0.0088,-0.0249 0.111062,-0.04529 0.180376,-0.04529 z m -2.1817828,0 c 0.069326,0 0.1418058,0.0093 0.1610957,0.02038 0.01927,0.01132 0.035064,0.138935 0.035064,0.222961 v 1.071888 c 0,0.08404 -0.00716,0.173187 -0.015796,0.198069 -0.00876,0.0249 -0.1110622,0.04529 -0.1803754,0.04529 h -0.05137 c -0.069326,0 -0.1418204,-0.0093 -0.1610972,-0.02037 -0.019284,-0.01132 -0.035064,-0.138899 -0.035064,-0.222961 v -1.071891 c 0,-0.08404 0.00716,-0.173132 0.015766,-0.198068 0.00876,-0.0249 0.1110918,-0.04529 0.1804065,-0.04529 z m -2.0628089,0.03308 c 0.06933,0 0.141806,0.0093 0.161091,0.02038 0.01928,0.01132 0.03506,0.138935 0.03506,0.222961 v 1.071888 c 0,0.08404 -0.0071,0.173187 -0.01576,0.198069 -0.0087,0.0249 -0.111096,0.04529 -0.180406,0.04529 h -0.05137 c -0.06933,0 -0.14182,-0.0093 -0.161093,-0.02037 -0.01928,-0.01132 -0.03506,-0.138899 -0.03506,-0.222961 v -1.071891 c 0,-0.08404 0.0071,-0.173132 0.01576,-0.198068 0.0088,-0.0249 0.111061,-0.04529 0.180374,-0.04529 z m -2.181718,0 c 0.06932,0 0.141807,0.0093 0.161092,0.02038 0.01928,0.01132 0.03506,0.138935 0.03506,0.222961 v 1.071888 c 0,0.08404 -0.0071,0.173187 -0.01576,0.198069 -0.0088,0.0249 -0.111062,0.04529 -0.180377,0.04529 h -0.05142 c -0.06933,0 -0.14182,-0.0093 -0.161091,-0.02037 -0.01928,-0.01132 -0.03506,-0.138899 -0.03506,-0.222961 v -1.071891 c 0,-0.08404 0.0072,-0.173132 0.01579,-0.198068 0.0088,-0.0249 0.111062,-0.04529 0.180376,-0.04529 z" class="ColorScheme-Text"/>
  </g>
</svg>
