<?xml version="1.0" encoding="UTF-8" standalone="no"?>
<svg
   viewBox="0 0 24 24"
   width="24"
   height="24"
   version="1.1"
   id="svg2"
   xmlns="http://www.w3.org/2000/svg"
   xmlns:svg="http://www.w3.org/2000/svg">
  <defs
     id="defs3051">
    <style
       type="text/css"
       id="current-color-scheme"> .ColorScheme-Text { color:#eff0f1; } </style>
  </defs>
  <path
     id="path2-3"
     style="color:#eff0f1;fill:currentColor;fill-opacity:1;stroke-width:0.0222328"
     class="ColorScheme-Text"
     d="M 4.8544567,3.9854038 C 3.9619203,3.9876917 3.1290201,4.3516218 2.4072066,4.8846065 1.890813,5.2666397 0.81467887,6.0131866 0.7986559,6.749774 0.78998407,7.2393068 1.0822197,7.6910517 1.2764226,8.1142257 1.5055788,8.6060698 4.6118393,15.158451 5.5304235,16.192446 6.0079808,16.727721 6.6627206,16.587241 6.8322855,16.083962 6.994449,15.592158 6.8173393,15.045029 6.631999,14.546342 6.2990923,13.622175 5.957176,12.708431 5.6222215,11.781971 6.7892655,11.335917 7.6325392,10.432006 8.1404065,9.2950811 8.3925385,8.7231993 8.4317601,7.8299468 8.2509812,6.9584058 8.0434837,5.9678777 7.4819311,5.0935609 6.6737253,4.5445368 6.1464395,4.1877416 5.5502095,3.9854038 4.8544567,3.9854038 Z M 21.743196,5.3832363 c -0.270363,-0.00707 -0.573402,0.040821 -0.761506,0.2107181 -0.174933,0.1601026 -0.329903,0.4736553 -0.421437,1.1370428 -0.322703,2.3744819 -0.444149,4.3305888 -0.0918,4.4793228 h 0.0021 c 0.298307,0.125828 0.506256,-0.0639 1.554306,-2.0174683 0.05845,-0.1074992 0.493498,-0.9790244 0.542443,-1.091144 0.209729,-0.4597856 0.429785,-0.931051 0.557047,-1.4228684 C 23.20258,6.3700274 23.176089,6.131882 22.94911,5.8985566 22.691777,5.635532 22.352184,5.4611027 21.997702,5.4061858 21.920448,5.3941877 21.833292,5.3855938 21.743173,5.3832364 Z M 4.0553971,5.9757503 c 0.067734,-0.00177 0.1449903,0.012289 0.2357539,0.043813 0.1404001,0.050273 0.2638715,0.1415265 0.3755372,0.2399264 0.5165559,0.4506531 0.927064,1.0923728 1.1078344,1.7900602 0.091844,0.3477112 0.1225514,0.7094459 0.085538,1.0640219 C 5.8401077,9.2805398 5.8093618,9.4534496 5.724451,9.5975975 5.622932,9.7714064 5.4371447,9.9185439 5.2362528,9.8750765 5.1047678,9.8476223 4.9901347,9.7587683 4.8920104,9.658101 4.4490425,9.2006036 4.1195269,8.4346069 3.9010098,7.8284 3.7580384,7.4365844 3.4006359,5.9927535 4.0553971,5.9757503 Z M 16.091362,6.7560331 c -0.24603,0.00557 -0.492626,0.038828 -0.734384,0.093884 -0.501391,0.1143877 -0.983992,0.5797465 -1.030641,1.341502 0.06692,1.7728544 0.223185,4.7038819 0.396401,6.4675839 0.04548,0.455214 0.02569,0.997926 0.609205,0.872081 0.720541,-0.157838 0.555123,-1.483346 0.557046,-3.215016 v -0.09389 c 0.583459,0.04574 1.943403,-0.480749 2.393006,-1.205893 C 19.103129,9.6872302 18.99658,8.0587697 17.641496,7.1712103 17.170535,6.8629321 16.632628,6.7437596 16.091362,6.7560331 Z m -4.911191,1.2184093 c -0.03677,-9.013e-4 -0.07373,-2.638e-4 -0.110569,0.00209 -1.1476106,0.057184 -1.669246,1.3721738 -1.8255279,2.3992696 -0.1923419,1.278743 0.2394418,3.040502 0.9784819,3.790837 0.44942,0.457517 1.182126,0.592171 1.810924,0.406832 0.717594,-0.210467 1.167766,-0.835532 1.335244,-1.53553 0.175605,-0.740637 0.19849,-1.770653 -0.0083,-2.708038 v -0.0021 c -0.263979,-1.1909955 -0.90104,-2.2329566 -2.069626,-2.3450203 -0.03683,-0.00344 -0.0738,-0.00744 -0.110569,-0.00834 z m 4.955003,0.4548171 c 0.35461,0.00465 0.643675,0.4586529 0.740643,0.7781963 0.110767,0.3660176 0.05496,0.7592505 -0.12101,1.0932312 -0.1253,0.24019 -0.400324,0.638474 -0.707262,0.519492 -0.08397,-0.03203 -0.141999,-0.115202 -0.168991,-0.20446 -0.163102,-0.542137 -0.170992,-1.8346768 -0.0772,-2.038331 0.03865,-0.08694 0.177976,-0.128033 0.262876,-0.1418696 0.02418,-0.00385 0.04729,-0.00657 0.07093,-0.00626 z m -5.032197,1.7462465 c 0.13347,-0.01267 0.278316,0.03859 0.423523,0.179424 0.131543,0.128098 0.219647,0.299499 0.277479,0.47568 0.114556,0.347713 0.126818,0.728223 0.03757,1.082798 -0.05847,0.233327 -0.182063,0.473979 -0.400573,0.540356 -0.06405,0.0202 -0.129972,0.01934 -0.194028,0.0083 h -0.0021 c -0.174378,-0.03266 -0.339184,-0.166242 -0.452685,-0.321279 -0.245439,-0.33627 -0.337883,-0.818768 -0.275393,-1.2351 0.05492,-0.366457 0.292622,-0.702342 0.586254,-0.730212 z m 9.219437,1.898549 c -0.06064,-0.0029 -0.127134,0.0042 -0.198201,0.02504 -0.254817,0.07549 -0.454939,0.316117 -0.517406,0.588341 -0.06073,0.260784 0.0042,0.562162 0.196114,0.740644 0.205294,0.192212 0.496754,0.239249 0.734383,0.08136 0.151463,-0.100656 0.239285,-0.261527 0.279566,-0.4423 0.09647,-0.420331 -0.07002,-0.973185 -0.494456,-0.993087 z m 1.374882,3.890982 c -0.609391,0 -1.429128,0.381144 -1.429128,1.147475 0,0.860106 0.584056,1.048804 1.308123,1.126611 0.42576,0.04574 0.952027,0.131556 0.968051,0.557046 0,0.468925 -0.474529,0.590428 -0.928412,0.590428 -0.244237,0 -0.542398,-0.08565 -0.734384,-0.202371 l -0.03964,-0.525753 h -0.588342 c 0.0049,0.130408 0,0.987418 0,0.838699 0.44297,0.409492 0.792197,0.519009 1.351933,0.517406 0.734706,0 1.591119,-0.255165 1.596033,-1.220495 0,-0.883005 -0.755311,-1.070993 -1.537616,-1.180855 -0.47976,-0.07318 -0.748988,-0.166135 -0.748988,-0.506975 0,-0.347671 0.41622,-0.541489 0.807405,-0.546615 0.181497,-0.0046 0.417691,0.0273 0.646758,0.143955 l 0.03547,0.506975 h 0.569565 c 0,-0.308811 0.0042,-0.490217 0.0042,-0.799059 -0.4431,-0.375088 -0.790351,-0.457571 -1.280999,-0.446472 z m -3.813787,0.01254 c -1.069744,10e-7 -1.898549,0.778097 -1.898549,2.036245 0,1.008816 0.596283,1.996607 1.873513,1.996607 1.277244,0 1.853995,-1.002805 1.858909,-2.007037 0.01069,-1.03856 -0.593478,-2.014717 -1.833873,-2.025815 z m 0,0.63424 c 0.86014,0.01601 1.200353,0.712368 1.189201,1.389488 0,0.651968 -0.332876,1.362364 -1.203806,1.362364 -0.870896,0 -1.241359,-0.656125 -1.241359,-1.356105 0.0042,-0.805206 0.454209,-1.395747 1.255964,-1.395747 z m -6.463412,2.724731 c -0.166495,0 -0.30043,0.140936 -0.30043,0.317121 v 0.02921 c 0,0.176088 0.134069,0.317121 0.30043,0.317121 h 3.471632 c 0.166464,0 0.30043,-0.14094 0.30043,-0.317121 v -0.02921 c 0,-0.176095 -0.134538,-0.317121 -0.30043,-0.317121 z" />
</svg>
