<svg xmlns="http://www.w3.org/2000/svg" viewBox="0 0 24 24" width="24" height="24">
  <defs id="defs3051">
    <style type="text/css" id="current-color-scheme">
      .ColorScheme-Text {
        color:#eff0f1
      }
      </style>
  </defs>
  <g transform="translate(1,1)">
    <path style="fill:currentColor;fill-opacity:1;stroke:none" id="path2445" class="ColorScheme-Text " d="M 11 3 C 6.000005 3 3 7.000004 3 11 C 3 14.999996 6.0006563 18.962891 11.019531 18.962891 C 16.038406 18.962891 19 14.99935 19 10.980469 C 19 6.9615878 15.999995 3 11 3 z M 12.962891 3.5429688 C 15.51525 4.3908808 18.597656 6.6142758 18.597656 11.015625 C 18.597656 15.416974 15.592268 17.672745 12.730469 18.511719 L 12.099609 16.001953 C 11.97914 15.345875 11.890269 14.708994 11.837891 14.113281 C 11.583859 14.139331 11.301171 14.164062 11 14.164062 C 9.9079284 14.164062 9.0805917 13.890777 8.5253906 13.615234 C 7.9754273 13.337092 7.671875 13.037109 7.671875 13.037109 C 7.5671079 12.932147 7.5671079 12.774883 7.671875 12.669922 C 7.7268549 12.617282 7.7867027 12.589844 7.8574219 12.589844 C 7.9281408 12.589855 7.9886589 12.617652 8.0410156 12.669922 C 8.0410156 12.669922 8.2654878 12.898519 8.7578125 13.142578 C 9.2527824 13.391902 9.9969705 13.640625 11 13.640625 C 11.286635 13.640625 11.555604 13.613941 11.800781 13.587891 C 11.802081 13.587689 11.803388 13.588088 11.804688 13.587891 C 11.707788 12.107784 11.785156 11.015625 11.785156 11.015625 L 10.214844 11.015625 C 10.214844 11.015625 10.005288 8.4830155 11.498047 6.0292969 L 12.962891 3.5429688 z M 11.804688 13.587891 C 11.815177 13.758466 11.83063 13.929572 11.84375 14.113281 C 12.524657 14.018791 13.073965 13.825211 13.466797 13.615234 C 14.016761 13.337039 14.320313 13.037109 14.320312 13.037109 C 14.425069 12.932147 14.425069 12.774884 14.320312 12.669922 C 14.273153 12.617282 14.213287 12.589844 14.142578 12.589844 C 14.071868 12.589855 14.011357 12.617652 13.958984 12.669922 C 13.958984 12.669922 13.734533 12.898519 13.242188 13.142578 C 12.891996 13.318046 12.42302 13.587891 11.804688 13.587891 z M 8.1191406 8.390625 C 8.2632021 8.390625 8.3808594 8.5099615 8.3808594 8.6542969 L 8.3808594 9.7050781 C 8.3808594 9.8494135 8.2631807 9.9667969 8.1191406 9.9667969 C 7.9750791 9.9667969 7.8574219 9.8494135 7.8574219 9.7050781 L 7.8574219 8.6542969 C 7.8574219 8.5099615 7.9750791 8.390625 8.1191406 8.390625 z M 13.880859 8.390625 C 13.73682 8.390625 13.619141 8.5099615 13.619141 8.6542969 L 13.619141 9.7050781 C 13.619141 9.8494135 13.73682 9.9667969 13.880859 9.9667969 C 14.024899 9.9667969 14.142578 9.8494135 14.142578 9.7050781 L 14.142578 8.6542969 C 14.142578 8.5099615 14.024899 8.390625 13.880859 8.390625 z "/>
  </g>
</svg>
