<svg xmlns="http://www.w3.org/2000/svg" xmlns:svg="http://www.w3.org/2000/svg" xmlns:rdf="http://www.w3.org/1999/02/22-rdf-syntax-ns#" xmlns:cc="http://creativecommons.org/ns#" xmlns:dc="http://purl.org/dc/elements/1.1/" viewBox="0 0 24 24" version="1.1" id="svg6" width="24" height="24">
  <defs id="defs3051">
    <style type="text/css" id="current-color-scheme"> .ColorScheme-Text { color:#eff0f1; } </style>
  </defs>
  <g transform="translate(1,1)">
    <path d="m 6.9470854,7.5658951 c 0.040669,0.2399816 0.2500551,0.4207494 0.5001101,0.4207494 h 0.515739 c 0.306322,0 0.5501226,-0.2649172 0.5094918,-0.5609992 C 8.3536552,6.5467488 7.9598146,5.736422 7.3284182,5.0975073 6.8783218,4.6393603 6.5907521,4.0596605 6.5032373,3.4301003 6.4688733,3.1838812 6.2563034,3 6,3 H 5.4873823 C 5.1810664,3 4.9435141,3.2649172 4.9778965,3.5609981 5.0998087,4.5552098 5.540522,5.4715059 6.2469279,6.1914508 6.6220122,6.5716834 6.8626929,7.0485295 6.9470854,7.5658951 Z m 3.5007816,0 c 0.04065,0.2399816 0.250057,0.4207494 0.500113,0.4207494 h 0.515739 c 0.306319,0 0.550125,-0.2649172 0.50949,-0.5609992 C 11.854438,6.5467488 11.460594,5.736422 10.829205,5.0975073 10.379103,4.6393603 10.091536,4.0596605 10.004021,3.4301003 9.9696576,3.1838812 9.7570877,3 9.5007855,3 H 8.9881653 C 8.6818505,3 8.4411711,3.2649172 8.478682,3.5609981 8.6005696,4.5552098 9.041305,5.4715059 9.7477121,6.1914508 10.122797,6.5716834 10.363475,7.0485295 10.447867,7.5658951 Z m 5.029254,1.4180768 H 3.9745442 c -0.5532499,0 -1.000219,0.4456803 -1.000219,0.9973282 v 5.9839709 c 0,1.651826 1.3440481,2.991984 3.0006693,2.991984 h 6.0013405 c 1.656621,0 3.000673,-1.340158 3.000673,-2.991984 h 0.500113 c 1.93168,0 3.500782,-1.564558 3.500782,-3.49065 0,-1.92609 -1.569102,-3.4906491 -3.500782,-3.4906491 z m 0,4.9866421 h -0.500113 v -2.991986 h 0.500113 c 0.828307,0 1.500334,0.670078 1.500334,1.495993 0,0.825911 -0.672027,1.495993 -1.500334,1.495993 z" id="path70" style="fill:currentColor;fill-opacity:1" class="ColorScheme-Text"/>
  </g>
</svg>
