<svg xmlns="http://www.w3.org/2000/svg" xmlns:svg="http://www.w3.org/2000/svg" viewBox="0 0 24 24" version="1.1" id="svg1" width="24" height="24">
  <defs id="defs3051">
    <style type="text/css" id="current-color-scheme"> .ColorScheme-Text { color:#eff0f1; } </style>
  </defs>
  <g transform="translate(1,1)">
    <path style="fill:currentColor;fill-opacity:1;stroke:none" d="M 8,5 V 9 H 9 V 5 c 0,0 0,-1 1,-1 1,0 1,0 2,0 1,0 1,1 1,1 v 4 h 1 V 5 C 14,5 14,3 12,3 10,3 12,3 10,3 8,3 8,5 8,5 Z M 5.7929688,10 5,10.816406 11,17 17,10.816406 16.207031,10 11,15.367188 Z M 4,17 v 1 c 0,0.576445 0.4479878,1 1,1 h 12 c 0.535187,0 1,-0.419588 1,-1 v -1 h -1 c 0,0.519789 -0.334469,1 -0.868171,1 H 6.0321506 C 5.3971298,18 5,17.640769 5,17 Z" id="rect4161" class="ColorScheme-Text"/>
  </g>
</svg>
