<svg xmlns="http://www.w3.org/2000/svg" xmlns:svg="http://www.w3.org/2000/svg" viewBox="0 0 24 24" version="1.1" id="svg1" width="24" height="24">
  <defs id="defs3051">
    <style type="text/css" id="current-color-scheme"> .ColorScheme-Text { color:#eff0f1; } </style>
  </defs>
  <g transform="translate(1,1)">
    <path style="fill:currentColor;fill-opacity:1;stroke:none" d="m 16.057694,3.0078055 c -0.07,-7.982e-4 -0.141794,0.019695 -0.209498,0.065511 -0.03615,0.026628 -0.193207,0.2265908 -0.347529,0.4450617 l -0.280961,0.4013856 -0.101815,-0.073835 c -0.14249,-0.099811 -0.279979,-0.1218848 -0.408227,-0.060312 -0.08863,0.042393 -0.296367,0.3272626 -1.659331,2.2523371 -0.860155,1.2136177 -1.559595,2.216051 -1.557518,2.2315422 0.0017,0.012921 0.350981,0.3026203 0.773376,0.6395142 l 0.772398,0.6166375 1.016158,-1.4381275 c 0.559274,-0.7911791 1.024582,-1.431425 1.035736,-1.4225292 0.03619,0.028748 0.102055,0.6498497 0.08908,0.849566 -0.0052,0.108942 -0.04356,0.3047102 -0.08321,0.4346619 -0.07071,0.23222 -0.07842,0.24583 -1.338232,2.0339685 -0.696758,0.9885525 -1.276896,1.8281645 -1.287329,1.8613495 -0.02993,0.09151 0.0032,0.262682 0.06852,0.360833 0.108985,0.165479 0.378536,0.217782 0.531572,0.09983 C 13.17662,12.223254 15.67193,8.6552621 15.751278,8.4691503 15.983055,7.93842 16.031047,7.2588025 15.884416,6.5901211 15.826484,6.3247118 15.750724,6.0695885 15.676875,5.8882149 15.655366,5.8387004 15.691149,5.7753322 15.924551,5.4421155 16.145096,5.1240328 16.195665,5.03471 16.199637,4.9523413 16.208416,4.7770386 16.157934,4.6794612 15.996015,4.5457548 L 15.845255,4.4209727 16.144817,3.9935905 C 16.390376,3.6401192 16.443468,3.5476909 16.447314,3.465341 16.458355,3.202791 16.267666,3.0101865 16.05769,3.007802 Z m -5.046523,5.9272067 c -0.0074,0.0011 -0.923879,1.2946968 -2.0381881,2.8710558 -1.7922279,2.538426 -2.0471427,2.91416 -2.2124415,3.237087 -0.3284018,0.642906 -0.6857718,1.623058 -0.9231548,2.51854 -0.1538835,0.574338 -0.1616047,0.522364 0.052862,0.400347 0.6615157,-0.37951 1.5256353,-0.995575 2.0283996,-1.448526 0.4916174,-0.443431 0.5753229,-0.556175 2.6578668,-3.50225 L 12.57946,10.174527 11.801189,9.5537292 C 11.373146,9.2123301 11.018527,8.9339005 11.011171,8.9350122 Z M 9.0440181,17.767744 c -0.8580072,0.09355 -3.2100592,0.295386 -3.2907555,0.374714 -0.1583787,0.155464 0.063976,0.926751 0.2885367,0.857007 0.059647,-0.01921 1.62106,-0.287733 2.7158758,-0.385384 0.2456017,-0.04473 2.9955299,-0.317976 3.2293429,-0.347649 0,0 4.025738,-0.438902 3.92614,-0.536619 -0.475939,-0.466959 -6.8691399,0.03794 -6.8691399,0.03794 z" id="path5" class="ColorScheme-Text"/>
  </g>
</svg>
