<?xml version="1.0" encoding="UTF-8" standalone="no"?>
<svg
   viewBox="0 0 24 24"
   width="24"
   height="24"
   version="1.1"
   id="svg2"
   xmlns="http://www.w3.org/2000/svg"
   xmlns:svg="http://www.w3.org/2000/svg">
  <defs
     id="defs3051">
    <style
       type="text/css"
       id="current-color-scheme"> .ColorScheme-Text { color:#eff0f1; } </style>
  </defs>
  <path
     style="color:#eff0f1;fill:currentColor;fill-opacity:1;stroke:none;stroke-width:1.00988"
     d="M 5.8915609,4 A 1.8986303,1.8985105 0 0 0 4,5.8904317 v 8.1817723 a 1.8986303,1.8985105 0 0 0 1.8895411,1.888412 h 2.1511078 v 2.150972 A 1.8986303,1.8985105 0 0 0 9.9291801,20 H 18.111469 A 1.8986303,1.8985105 0 0 0 20,18.111588 v -6.88614 A 1.8986303,1.8985105 0 0 0 18.111469,9.3370361 H 15.960361 V 7.1860641 A 1.8986303,1.8985105 0 0 0 14.07183,5.2976521 H 10.587641 L 9.9211008,4.6311537 9.5928801,4.3029538 9.2909171,4.0010098 H 5.8915609 Z M 8.3819984,7.6192881 H 15.333207 V 9.3360263 H 14.62627 L 13.95973,8.6695279 13.632519,8.3413279 13.330556,8.039384 H 9.9311999 A 1.8986303,1.8985105 0 0 0 8.0426687,9.9298157 V 15.332492 H 5.8915609 A 1.2563277,1.2562484 0 0 1 4.6311936,14.072204 V 9.1300177 h 2.2349302 v -0.00606 l 0.00606,0.00606 1.510825,-1.5107296 z M 9.93019,8.6695279 h 2.957016 l 0.727135,0.7270891 -3.032759,3.01742 H 8.6688127 V 9.9298157 c 0,-0.6988134 0.5625197,-1.2612976 1.2603674,-1.2612976 z m 2.491447,2.9891441 h 6.951209 v 6.451906 c 0,0.696794 -0.56252,1.260288 -1.260367,1.260288 H 9.93019 A 1.2563277,1.2562484 0 0 1 8.6698226,18.110578 v -4.941176 h 2.2349304 v -0.0061 l 0.0061,0.0061 z"
     class="ColorScheme-Text"
     id="path1" />
</svg>
