<svg xmlns="http://www.w3.org/2000/svg" xmlns:svg="http://www.w3.org/2000/svg" viewBox="0 0 24 24" version="1.1" id="svg6" width="24" height="24">
  <defs id="defs3051">
  </defs>
  <g transform="translate(1,1)">
    <path style="fill:#eb0a42;stroke-width:1.33333" d="M 3,5.6666668 V 16.333334 c 0,1.333332 1.199456,2.666665 2.553333,2.666665 h 10.886668 c 1.359376,0 2.56,-1.333333 2.56,-2.666665 V 5.6666668 C 19.000001,4.3333334 17.933253,3 16.581334,3 H 5.4 C 4.036609,3 3,4.3333334 3,5.6666668 Z m 1.333333,0.9333334 c 0,-2.6666668 1.333334,-2.2666668 2.6435,-2.2666668 h 8.034789 c 1.321712,0 2.655045,-0.4 2.655045,2.2666668 v 8.8000008 c 0,2.666666 -1.333333,2.266665 -2.666666,2.266665 H 6.92296 c -1.256293,0 -2.589627,0.266668 -2.589627,-2.399998 z m 1.333334,0.4 V 9.6666669 H 8.333334 V 7.0000002 Z m 8,0 v 2.6666667 h 2.666667 V 7.0000002 Z M 8.333334,12.333334 v 1.333334 h 5.333333 v -1.333334 z m 5.333333,1.333334 v 1.333333 h 1.333334 v -1.333333 z m 1.333334,1.333333 v 1.333333 h 1.333333 V 15.000001 Z M 8.333334,13.666668 H 7 v 1.333333 H 8.333334 Z M 7,15.000001 H 5.666667 v 1.333333 H 7 Z" id="path4-3"/>
  </g>
</svg>
