<svg xmlns="http://www.w3.org/2000/svg" viewBox="0 0 24 24" width="24" height="24">
  <defs id="defs3051">
    <style type="text/css" id="current-color-scheme">
      .ColorScheme-Text {
        color:#eff0f1;
      }
      </style>
  </defs>
  <g transform="translate(1,1)">
    <path style="fill:currentColor" d="m 3,6 c 0,3 0,7 0,10 0,3 3,3 3,3 h 8 V 18 H 6 c 0,0 -2,0 -2,-2 0,-2 0,-4 0,-5 0,-1 1,-1 1,-1 h 2 v 0 0 L 9,8 h 7 c 0,0 2,0 2,2 0,2 0,4 0,4 h 1 c 0,0 0,-3 0,-6 C 19,5 16,5 16,5 H 12 L 10,3 V 3 3 H 6 C 6,3 3,3 3,6 Z m 13,8 v 2 h -2 v 1 h 2 v 2 h 1 v -2 h 2 v -1 h -2 v -2 z" class="ColorScheme-Text"/>
  </g>
</svg>
