<svg xmlns="http://www.w3.org/2000/svg" xmlns:svg="http://www.w3.org/2000/svg" viewBox="0 0 24 24" version="1.1" id="svg12" width="24" height="24">
  <defs id="defs3051">
    <style type="text/css" id="current-color-scheme">
      .ColorScheme-Text {
        color:#eff0f1;
      }
      </style>
  </defs>
  <g transform="translate(1,1)">
    <path id="path40" class="ColorScheme-Text" fill="currentColor" d="m 6.9433594,7.1738281 c -1.0503856,0 -2.0366562,0.3919301 -2.7773438,1.1015625 -0.749567,0.7166989 -1.1621093,1.674279 -1.1621094,2.6992184 0,1.023654 0.4136427,1.985775 1.1621094,2.701172 0.7414004,0.709525 1.7274076,1.09961 2.7773438,1.09961 0.2021736,-1.98e-4 0.4033997,-0.0142 0.6035156,-0.04297 C 9.2348964,14.491715 10.365479,13.278067 11,12.345703 c 0.632521,0.93238 1.762392,2.14178 3.451172,2.382813 0.201455,0.02998 0.403471,0.04687 0.603516,0.04687 1.049998,0 2.035353,-0.390101 2.777343,-1.09961 0.749164,-0.715397 1.160157,-1.677517 1.160157,-2.701172 0,-1.0249391 -0.410978,-1.9825196 -1.160157,-2.6992184 -0.740673,-0.7086245 -1.727407,-1.1015625 -2.777343,-1.1015625 -0.200184,0 -0.402061,0.016052 -0.603516,0.044922 C 12.762531,7.459845 11.632645,8.6729342 11,9.6054688 10.365433,8.6729299 9.2349427,7.4594886 7.546875,7.21875 7.346102,7.190004 7.1435434,7.1738281 6.9433594,7.1738281 Z M 7.3554688,8.5546875 C 8.9458464,8.7811691 9.9209006,10.346458 10.25,10.974609 c -0.3299986,0.629036 -1.3041383,2.196077 -2.8945312,2.423829 -0.13919,0.01912 -0.2788404,0.03125 -0.4160157,0.03125 -1.4291517,0 -2.5898437,-1.102154 -2.5898437,-2.455079 0,-1.3532032 1.6495679,-2.3461981 2.2402344,-2.4218746 0.1362054,-0.017451 0.5211986,-0.036908 0.765625,0.00195 z m 7.6992192,-0.03125 c 1.429834,0 2.59375,1.0980153 2.59375,2.4511715 0,1.353157 -1.165202,2.455078 -2.59375,2.455079 -0.13654,0 -0.276795,-0.01211 -0.416016,-0.03125 -1.590331,-0.227783 -2.560813,-1.795692 -2.890625,-2.423829 0.329828,-0.629437 1.303906,-2.1965866 2.894531,-2.4238278 0.137919,-0.020021 0.275555,-0.027344 0.41211,-0.027344 z m -0.501954,1.2792969 v 0.8027346 h -0.800781 v 0.761719 h 0.800781 v 0.800781 h 0.763672 v -0.800781 h 0.802735 V 10.605469 H 15.316406 V 9.8027344 Z M 5.8574219,10.605469 v 0.761719 h 2.3652343 v -0.761719 z"/>
  </g>
</svg>
