<svg xmlns="http://www.w3.org/2000/svg" viewBox="0 0 24 24" width="24" height="24">
  <defs id="defs3051">
    <style type="text/css" id="current-color-scheme"> .ColorScheme-Text { color:#eff0f1; } </style>
  </defs>
  <g transform="translate(1,1)">
    <path style="fill:currentColor;fill-opacity:1;stroke:none" d="m 3,3 v 1 1 1 c 0,0 -2,0 -2,3 0,3 0,3 0,3 v 4 c 0,0 0,3 3,3 3,0 11,0 14,0 3,0 3,-3 3,-3 0,0 0,-4 0,-7 C 21,6 19,6 19,6 V 3 H 4 Z M 4,4 H 18 V 6 8.7988281 L 11,12.839844 4,8.7988281 V 5 Z M 5,5 V 5.9863281 L 4.9863281,6 H 5 17 17.013672 L 17,5.9863281 V 5 Z m 0,2 v 1 h 7 V 7 Z M 4.078125,10 11,13.996094 17.921875,10 H 18 c 0,0 2,0 2,2 0,2 0,4 0,4 0,0 0,2 -2,2 C 16,18 6,18 4,18 2,18 2,16 2,16 v -4 c 0,-2 2.078125,-2 2.078125,-2 z" class="ColorScheme-Text"/>
  </g>
</svg>
