<svg height="90" viewBox="0 0 90 90.000002" width="90" xmlns="http://www.w3.org/2000/svg" xmlns:xlink="http://www.w3.org/1999/xlink"><linearGradient id="a"><stop offset="0" stop-color="#3fc6a8"/><stop offset="1" stop-color="#0f4c8f"/></linearGradient><linearGradient id="b" gradientTransform="matrix(.225 0 0 .22499998 -130 1045.8622)" gradientUnits="userSpaceOnUse" x1="0" x2="400" xlink:href="#a" y1="200" y2="200"/><linearGradient id="c" gradientTransform="matrix(.225 0 0 .22499998 .000018 962.36243)" gradientUnits="userSpaceOnUse" x1="0" x2="400" xlink:href="#a" y1="200" y2="200"/><linearGradient id="d" gradientTransform="matrix(.225 0 0 .22499998 .000539 962.36354)" gradientUnits="userSpaceOnUse" x1="0" x2="400" xlink:href="#a" y1="200" y2="200"/><linearGradient id="e" gradientTransform="matrix(.1916662 0 0 .19166618 6.667233 969.0294)" gradientUnits="userSpaceOnUse" x1="0" x2="400" xlink:href="#a" y1="200" y2="200"/><g transform="translate(0 -962.36216)"><path d="m-85 1045.8622a4.5 4.4999996 0 0 0 -4.5 4.5 4.5 4.4999996 0 0 0 .01364.2689 40.5 40.499996 0 0 0 -21.4128 9.1094 4.5 4.4999996 0 0 0 -3.35084-1.5033 4.5 4.4999996 0 0 0 -4.5 4.5 4.5 4.4999996 0 0 0 1.64839 3.4769 40.5 40.499996 0 0 0 -8.09956 20.1586 4.5 4.4999996 0 0 0 -.29883-.01 4.5 4.4999996 0 0 0 -4.5 4.5 4.5 4.4999996 0 0 0 4.5 4.5 4.5 4.4999996 0 0 0 .26895-.014 40.5 40.499996 0 0 0 8.14702 20.1471 4.5 4.4999996 0 0 0 -1.66597 3.4915 4.5 4.4999996 0 0 0 4.5 4.5 4.5 4.4999996 0 0 0 3.36665-1.5223 40.5 40.499996 0 0 0 21.393898 9.0985 4.5 4.4999996 0 0 0 -.01055.2988 4.5 4.4999996 0 0 0 4.5 4.5 4.5 4.4999996 0 0 0 4.5-4.5 4.5 4.4999996 0 0 0 -.01364-.2689 40.5 40.499996 0 0 0 21.412793-9.1095 4.5 4.4999996 0 0 0 3.350842 1.5034 4.5 4.4999996 0 0 0 4.5-4.5 4.5 4.4999996 0 0 0 -1.648388-3.477 40.5 40.499996 0 0 0 8.099561-20.1585 4.5 4.4999996 0 0 0 .298827.01 4.5 4.4999996 0 0 0 4.5-4.5 4.5 4.4999996 0 0 0 -4.5-4.5 4.5 4.4999996 0 0 0 -.268945.014 40.5 40.499996 0 0 0 -8.147022-20.1472 4.5 4.4999996 0 0 0 1.665967-3.4914 4.5 4.4999996 0 0 0 -4.5-4.5 4.5 4.4999996 0 0 0 -3.36665 1.5222 40.5 40.499996 0 0 0 -21.393898-9.0984 4.5 4.4999996 0 0 0 .01055-.2988 4.5 4.4999996 0 0 0 -4.5-4.5zm0 9a36 35.999997 0 0 1 36 36 36 35.999997 0 0 1 -36 36 36 35.999997 0 0 1 -36-36 36 35.999997 0 0 1 36-36zm0 4.5a4.5 4.4999996 0 0 0 -4.5 4.5 4.5 4.4999996 0 0 0 .02198.4043 27 26.999998 0 0 0 -22.52198 26.5957 27 26.999998 0 0 0 22.518895 26.6203 4.5 4.4999996 0 0 0 -.0189.3797 4.5 4.4999996 0 0 0 4.5 4.5 4.5 4.4999996 0 0 0 4.5-4.5 4.5 4.4999996 0 0 0 -.02198-.4043 27 26.999998 0 0 0 22.521985-26.5957 27 26.999998 0 0 0 -22.518896-26.6203 4.5 4.4999996 0 0 0 .0189-.3797 4.5 4.4999996 0 0 0 -4.5-4.5zm0 9a22.5 22.499998 0 0 1 22.5 22.5 22.5 22.499998 0 0 1 -22.5 22.5 22.5 22.499998 0 0 1 -22.5-22.5 22.5 22.499998 0 0 1 22.5-22.5zm0 9a13.5 13.499999 0 0 0 -13.5 13.5 13.5 13.499999 0 0 0 13.5 13.5 13.5 13.499999 0 0 0 13.5-13.5 13.5 13.499999 0 0 0 -13.5-13.5z" fill="url(#b)"/><ellipse cx="88.810265" cy="1092.3622" fill="#ffe680" rx="16.189735" ry="15"/><path d="m45.000018 962.36243c-2.485282 0-4.5 2.01472-4.5 4.5.0019.09.0064.17984.01367.26953-7.874784.87655-15.319485 4.04376-21.41211 9.10938-.85239-.95524-2.071307-1.50219-3.351562-1.50391-2.485282 0-4.5 2.01472-4.5 4.5.0014 1.34718.606265 2.62288 1.648438 3.47656-4.4852936 5.85638-7.2859274 12.82657-8.09961 20.15821-.099471-.01-.1991354-.01-.298828-.01-2.4852815 0-4.50000022 2.0147-4.5 4.5-.00000022 2.4853 2.0147185 4.5 4.5 4.5.089963 0 .1798475-.01.269531-.014.829466 7.3322 3.6463725 14.2985 8.146485 20.1465-1.052988.8537-1.665021 2.1366-1.666016 3.4922 0 2.4853 2.014718 4.5 4.5 4.5 1.288458 0 2.514372-.5557 3.367188-1.5215 6.08862 5.0579 13.525907 8.2207 21.392578 9.0976-.0066.099-.0098.1992-.0098.2989 0 2.4853 2.014718 4.5 4.5 4.5s4.5-2.0147 4.5-4.5c-.0019-.09-.0064-.1799-.01367-.2696 7.874776-.8765 15.319475-4.0437 21.41211-9.1093.852392.9552 2.071309 1.5022 3.351562 1.5039 2.485282 0 4.5-2.0147 4.5-4.5-.0014-1.3472-.606254-2.6229-1.648438-3.4766 4.485292-5.8564 7.285926-12.8266 8.09961-20.1582.09947.01.199135.01.298828.01 2.485282 0 4.5-2.0147 4.5-4.5s-2.014718-4.5-4.5-4.5c-.08996 0-.179848.01-.269531.014-.829458-7.33223-3.646352-14.29852-8.146451-20.14649 1.052986-.85371 1.665018-2.13661 1.666016-3.49219 0-2.48528-2.014718-4.5-4.5-4.5-1.288457.002-2.51437.55566-3.367188 1.52149-6.088612-5.0579-13.525901-8.22077-21.392578-9.09766.0066-.0995.0098-.19914.0098-.29883 0-2.48528-2.014718-4.5-4.5-4.5zm0 11.99973c19.999982 0 33.000022 13.11768 32.999982 33.00004.000002 19.8823-13.11773 33-32.999982 33s-33.00002-13.1174-33.000018-32.9997c-.00004-19.88228 13.117739-33.00034 33.000018-33.00034z" fill="url(#c)"/><path d="m45 975.86204c-2.485282 0-4.5 2.01472-4.5 4.5.0017.13505.0096.26995.02344.4043-12.990339 2.184-22.508564 13.42323-22.52344 26.59596.0022 13.181 9.521328 24.4338 22.519531 26.6211-.01183.126-.01835.2524-.01953.3789 0 2.4853 2.014718 4.5 4.5 4.5s4.5-2.0147 4.5-4.5c-.0011-.135-.0083-.2699-.02148-.4043 12.989515-2.1848 22.506706-13.4237 22.521479-26.5957-.0029-13.17972-9.520815-24.43142-22.517578-26.61945.01124-.12663.0171-.25368.01758-.3808 0-2.48528-2.014718-4.5-4.5-4.5zm0 12.00023c12.426455 0 19.500067 7.0735 19.5 19.50003.000001 12.4264-7.073592 19.5-19.5 19.5s-19.500001-7.0736-19.5-19.5c-.000067-12.42653 7.073545-19.50003 19.5-19.50003z" fill="url(#d)"/><path d="m45 995.86216c-6.351304 0-11.500044 5.14844-11.499967 11.50004 0 6.3517 5.148708 11.5 11.499967 11.5s11.499967-5.1483 11.499967-11.5c.000077-6.3516-5.148657-11.50004-11.499967-11.50004z" fill="url(#e)"/></g></svg>