<svg xmlns="http://www.w3.org/2000/svg" viewBox="0 0 24 24" width="24" height="24">
  <defs id="defs3051">
    <style type="text/css" id="current-color-scheme">
      .ColorScheme-Text {
        color:#eff0f1
      }
      </style>
  </defs>
  <g transform="translate(1,1)">
    <path style="fill:currentColor;fill-opacity:1;stroke:none" d="m 5,16 v 1 H 17 V 16 Z M 6,3 C 6,3 3,3 3,6 v 10 c 0,3 3,3 3,3 h 10 c 3,0 3,-3 3,-3 V 6 c 0,0 0,-3 -3,-3 z m 0,1 h 10 c 2,0 2,2 2,2 v 10 c 0,0 -3.9e-5,1.925 -2,1.9375 L 6,18 C 6,18 4,18 4,16 V 6 C 4,4 6,4 6,4 Z" class="ColorScheme-Text" id="path1"/>
  </g>
</svg>
