<svg version="1.1" viewBox="0 0 16 16" xmlns="http://www.w3.org/2000/svg">
    <defs>
        <style type="text/css" id="current-color-scheme">.ColorScheme-Text {color:#eff0f1;}</style>
    </defs>
    <path class="ColorScheme-Text" d="m 1.9999973,4 c -2.7e-6,2 -2.7e-6,6 0,8 C 2,14 4,13.999996 4,13.999996 h 8 c 0,0 2,4e-6 2,-2.059529 C 14,9.8809332 14.000023,6 14.000011,4 14,2 12,2.000001 12,2.000001 l -8,0 C 4,2.000001 2,2 1.9999973,4 Z m 1,0 C 3,3 4,3 4,3 h 8 c 0,0 1,0 1.000011,1 1.2e-5,1 1.2e-5,7 0,8 C 13,13 12,12.999996 12,12.999996 L 3.9413244,13 c 0,0 -0.9413244,0 -0.9413271,-1 -2.7e-6,-1 -2.7e-6,-7 0,-8 z M 8.000011,3 5.9830481,7 8.000011,7.0169492 V 10 l 2,-4.0000005 h -2 z M 3.9999973,8.98875 v 2.999996 h 1 V 8.98875 Z m 2,0 v 2.999996 h 1 V 8.98875 Z m 4.5000137,0 c -0.82843,0 -1.5,0.67157 -1.5,1.499996 0,0.82843 0.67157,1.5 1.5,1.5 0.82843,0 1.5,-0.67157 1.5,-1.5 0,-0.828426 -0.67157,-1.499996 -1.5,-1.499996 z" fill="currentColor"/>
</svg>
