<svg version="1.1" viewBox="0 0 16 16" xmlns="http://www.w3.org/2000/svg"><defs><style type="text/css" id="current-color-scheme">.ColorScheme-Text {
        color:#eff0f1;
      }</style></defs><path d="m 1,6 c 0,2 0,2 0,4 0,2 2,2 2,2 0,0 4,0 6,0 2,0 2,-2 2,-2 l 3,1.494167 C 14,11.494167 15,12 15,11 15,10 15,6 15,5 15,4 14,4.512087 14,4.512087 L 11,6 C 11,6 11,4 9,4 7,4 3,4 3,4 3,4 1,4 1,6 Z M 2,6 C 2,5 3,5 3,5 c 0,0 5,0 6,0 1,0 1,1 1,1 v 4 c 0,0 0,1 -1,1 C 8,11 3,11 3,11 3,11 2,11 2,10 2,9 2,7 2,6 Z m 12,0 v 4.003792 c 0,0 0,0.393927 -0.847957,0 C 12.304086,9.6098643 11,8.92777 11,8.92777 V 7.07227 C 11,7.07227 12.337944,6.42773 13.168972,6 14,5.57227 14,6 14,6 Z M 7,6 V 7 H 9 V 6 Z" style="fill:currentColor;fill-opacity:1;stroke:none" class="ColorScheme-Text"/></svg>
