<svg xmlns="http://www.w3.org/2000/svg" viewBox="0 0 16 16">
  <defs id="defs3051">
    <style type="text/css" id="current-color-scheme">.ColorScheme-Text {color:#eff0f1;}</style>
  </defs>
    <path 
        style="fill:currentColor;fill-opacity:1;stroke:none" 
        d="M 11,2 V 3 H 3 c 0,0 -2,0 -2,2 0,2 0,4 0,6 0,2 2,2 2,2 h 10 c 0,0 2,0 2,-2 C 15,9 15,7 15,5 15,3 14,3 14,3 V 2 Z M 2,5 C 2,4 3,4 3,4 h 10 c 0,0 1,0 1,1 0,1 0,5.115247 0,6.057624 C 14,12 13,12 13,12 H 3 C 3,12 2,12 2,11 2,10 2,6 2,5 Z M 6,5 C 4.3431458,5 3,6.3431458 3,8 3,9.6568542 4.3431458,11 6,11 7.6568542,11 9,9.6568542 9,8 9,6.3431458 7.6568542,5 6,5 Z M 6,6 C 7.1045695,6 8,6.8954305 8,8 8,9.1045695 7.1045695,10 6,10 4.8954305,10 4,9.1045695 4,8 4,6.8954305 4.8954305,6 6,6 Z"
        class="ColorScheme-Text"/>
</svg>
