<svg viewBox="0 0 16 16" xmlns="http://www.w3.org/2000/svg">
    <style type="text/css" id="current-color-scheme">.ColorScheme-Text {color:#eff0f1;}</style>
    <g fill="currentColor" class="ColorScheme-Text">
        <path d="m 3,4 v 8 c 0,0 0,2 2,2 2,0 4,0 6,0 2,0 2,-2 2,-2 L 13,4 C 13,4 13,2 11,2 9,2 7,2 5,2 3,2 3,4 3,4 Z M 6,3 h 4 c 1.104569,0 2,0.8954305 2,2 v 1 c -1.333333,0 -1.333333,2 0,2 v 2 l -1,1 H 5 L 4,10 V 8 C 5.3333328,8 5.3333328,6 4,6 V 5 C 4,3.8954305 4.8954305,3 6,3 Z m -2,9 h 4 v 1 H 4 Z m 6,0 h 2 v 1 h -2 z"/>
        <path d="m 7.998,4 c -1.1045695,0 -2,0.8954305 -2,2 L 6,7 C 6,7 5,7 4.998,8 4.996,9 4.996,8 4.998,9 5,10 6,10 6,10 h 4 c 0,0 1,0 0.998,-1 -0.002,-1 -0.002,0 0,-1 0.002,-1 -1,-1 -1,-1 V 6 c 0,-1.1045695 -0.8954305,-2 -2,-2 z m 0,1 c 0.5522847,0 1,0.4477153 1,1 v 1 h -2 V 6 c 0,-0.5522847 0.4477153,-1 1,-1 z"/>
    </g>
</svg>
