<svg height="16" width="16" xmlns="http://www.w3.org/2000/svg">
    <style type="text/css" id="current-color-scheme">.ColorScheme-Text {color:#eff0f1;}</style>
    <g class="ColorScheme-Text" fill="currentColor">
        <path d="M 9,1 C 7.8954305,1 7,1.8954305 7,3 7,3 5,3 3,3 1,3 1,5 1,5 v 7 c 0,0 0,2 2,2 2,0 8,0 10,0 2,0 2,-2 2,-2 V 5.0022017 C 15,5.0022017 15,3 13,3 11,3 8,3 8,3 8,2.4477153 8.4477153,2 9,2 h 2 c 0.552285,0 1,-0.4477153 1,-1 z M 3,4 c 1,0 9,0 10,0 1,0 1,1 1,1 H 2 C 2,5 2,4 3,4 Z M 2,6 h 12 v 6 c 0,0 0,1 -1,1 -1,0 -9,0 -10,0 -1,0 -1,-1 -1,-1 z"/>
        <path d="M3 7v1h1V7zm2 0v1h1V7zm2 0v1h1V7zm2 0v1h1V7zm2 0v1h2V7zM3 9v1h2V9zm3 0v1h1V9zm2 0v1h1V9zm2 0v1h3V9zm-7 2v1h1v-1zm2 0v1h6v-1zm7 0v1h1v-1z"/>
    </g>
</svg>
