<svg xmlns="http://www.w3.org/2000/svg" viewBox="0 0 16 16">
  <defs id="defs3051">
    <style type="text/css" id="current-color-scheme">.ColorScheme-Text {color:#eff0f1;}</style>
  </defs>
    <path 
        style="fill:currentColor;fill-opacity:1;stroke:none" 
        d="m 3,4 c 0,2 0,6 0,8 0,2 2,2 2,2 h 6 c 0,0 2,0 2,-2 0,-2 0,-6 0,-8 C 13,2 11,2 11,2 H 5 C 5,2 3,2 3,4 Z M 4,4 C 4,3 5,3 5,3 h 6 c 0,0 1,0 1,1 0,1 0,7 0,8 0,1 -1,1 -1,1 H 5 C 5,13 4,13 4,12 4,11 4,5 4,4 Z m 1,0 v 3 h 6 V 4 Z m 3,4 c -1.1045695,0 -2,0.8954305 -2,2 0,1.104569 0.8954305,2 2,2 1.1045695,0 2,-0.895431 2,-2 C 10,8.8954305 9.1045695,8 8,8 Z M 8,9 C 8.5522847,9 9,9.4477153 9,10 9,10.552285 8.5522847,11 8,11 7.4477153,11 7,10.552285 7,10 7,9.4477153 7.4477153,9 8,9 Z"
        class="ColorScheme-Text"/>
</svg>
