<svg xmlns="http://www.w3.org/2000/svg" viewBox="0 0 16 16">
  <defs id="defs3051">
    <style type="text/css" id="current-color-scheme">.ColorScheme-Text {color:#eff0f1;}</style>
  </defs>
    <path 
        style="fill:currentColor;fill-opacity:1;stroke:none" 
          d="m 7,2 v 1 h 5 c 0,0 1,0 1,1 0,1 0,4 0,5 0,1 -1,1 -1,1 H 7 v 2 1 H 6 C 5.4459904,13 5,12.55401 5,12 V 10 8 7 C 5,7 6,7 6,6 6,5 6,5 6,4 6,3 5,3 5,3 H 4 C 4,3 3,3 3,4 3,5 3,5 3,6 3,7 4,7 4,7 v 1 2 2 c 0,1.108 0.892,2 2,2 h 1 2 2 V 13 H 9 v -1 h 3 c 0,0 2,0 2,-2 C 14,8 14,6 14,4 14,2 12.052908,2 12.052908,2 Z M 4,5 H 5 V 6 H 4 Z M 2,8 v 4 H 3 V 10 8 Z"
          class="ColorScheme-Text"
        />
</svg>
