<svg height="16" width="16" xmlns="http://www.w3.org/2000/svg">
    <style type="text/css" id="current-color-scheme">.ColorScheme-Text {color:#eff0f1;}</style>
    <path fill="currentColor" class="ColorScheme-Text" d="m 0,4 c 0,2 0,8 0,8 0,0 0,2 2,2 2,0 10,0 12,0 2,0 2,-2 2,-2 0,0 0,-6 0,-8 C 16,2 14,2 14,2 H 2 C 2,2 0,2 0,4 Z M 1,4 C 1,3 2,3 2,3 V 5 H 3 V 3 H 4 V 5 H 5 V 3 H 6 V 5 H 7 V 3 h 2 v 2 h 1 V 3 h 1 v 2 h 1 V 3 h 1 v 2 h 1 V 3 c 0,0 1,0 1,1 0,1 0,6 0,6 h -3 v 1 h -2 v 2 H 6 V 11 H 4 V 10 H 1 C 1,10 1,5 1,4 Z"/>
</svg>
