<svg xmlns="http://www.w3.org/2000/svg" viewBox="0 0 16 16">
  <defs id="defs3051">
    <style type="text/css" id="current-color-scheme">.ColorScheme-Text {color:#eff0f1;}.ColorScheme-NegativeText {color:#da4453;}</style>
  </defs>
  <path
     style="fill:currentColor;fill-opacity:1;stroke:none" 
     class="ColorScheme-NegativeText"
     d="m 2,4 c 0,0 0,3 0,5 0,2 2,2 2,2 h 3 5 c 0,0 2,0 2,-2 C 14,7 14,4 14,4 14,4 14,2 12,2 10,2 6,2 4,2 2,2 2,4 2,4 Z m 1,0 c 0,0 0,-1 1,-1 1,0 7,0 8,0 1,0 1,1 1,1 0,0 0,4 0,5 0,1 -1,1 -1,1 H 4 C 4,10 3,10 3,9 3,8 3,4 3,4 Z m 7,0 v 1 h 2 V 4 Z m -8,8 v 1 h 4 v -1 z m 8,0 v 1 h 4 v -1 z m -3,1 v 1 h 2 v -1 z"
     />
</svg>
