<svg xmlns="http://www.w3.org/2000/svg" viewBox="0 0 16 16">
  <defs id="defs3051">
    <style type="text/css" id="current-color-scheme">.ColorScheme-Text {color:#eff0f1;}</style>
  </defs>
    <path 
        style="fill:currentColor;fill-opacity:1;stroke:none" 
        d="m 0,4 v 8 c 0,0 0,2 2,2 2,0 10,0 12,0 2,0 2,-2 2,-2 V 3.9784389 C 16,3.9784389 16,2 14,2 12,2 4,2 2,2 0,2 0,4 0,4 Z M 3,5 C 3,4 4,4 4,4 h 8 c 0,0 1,0 1,1 0,1 0,5 0,6 0,1 -1,1 -1,1 H 4 C 4,12 3,12 3,11 3,10 3,6 3,5 Z M 1,7 H 2 V 9 H 1 Z m 13,0 h 1 v 2 h -1 z"
        class="ColorScheme-Text"/>
</svg>
