<?xml version="1.0" encoding="UTF-8" standalone="no"?>
<svg
   width="22"
   height="22"
   viewBox="0 0 22 22"
   fill="none"
   version="1.1"
   id="svg1"
   sodipodi:docname="kate-symbolic.svg"
   inkscape:version="1.3.2 (091e20ef0f, 2023-11-25)"
   xmlns:inkscape="http://www.inkscape.org/namespaces/inkscape"
   xmlns:sodipodi="http://sodipodi.sourceforge.net/DTD/sodipodi-0.dtd"
   xmlns="http://www.w3.org/2000/svg"
   xmlns:svg="http://www.w3.org/2000/svg">
  <defs
     id="defs1" />
  <sodipodi:namedview
     id="namedview1"
     pagecolor="#ffffff"
     bordercolor="#999999"
     borderopacity="1"
     inkscape:showpageshadow="2"
     inkscape:pageopacity="0"
     inkscape:pagecheckerboard="0"
     inkscape:deskcolor="#d1d1d1"
     inkscape:zoom="16.83798"
     inkscape:cx="10.808898"
     inkscape:cy="10.571339"
     inkscape:window-width="1920"
     inkscape:window-height="996"
     inkscape:window-x="0"
     inkscape:window-y="0"
     inkscape:window-maximized="1"
     inkscape:current-layer="svg1" />
  <style
     type="text/css"
     id="current-color-scheme">.ColorScheme-Text { color: #fcfcfc; }
</style>
  <g
     id="22-22-kate"
     transform="translate(-32,-10)">
    <g
       id="g1112">
      <rect
         style="opacity:0.00100002"
         width="22"
         height="22"
         x="32"
         y="10"
         id="rect2" />
      <path
         style="stroke-opacity:1;stroke-dasharray:none;stroke-miterlimit:4;stroke-linejoin:miter;stroke-linecap:butt;stroke-width:0.0502859;stroke:none;fill-opacity:1;fill:currentColor;"
         d="m 40.490919,17.604795 c -0.608092,-2.018768 -4.04451,-1.528903 -4.618919,-1.57273 0.644708,-0.320033 1.22734,-0.583832 2.556441,-1.546644 2.560422,-1.854787 5.271232,-1.450284 6.628732,-0.713702 -3.711208,0.141079 -3.004194,2.162945 -2.457567,3.228281 -0.695149,0.201919 -1.792494,0.50673 -2.108687,0.604795 z"
         id="path905-7"
         inkscape:connector-curvature="0"
         class="ColorScheme-Text" />
      <path
         sodipodi:nodetypes="cssscccccsssc"
         inkscape:connector-curvature="0"
         id="path907-5"
         d="m 49.651714,14.826878 c -1.336409,1.765232 -3.558327,4.150184 -5.990089,4.464342 -2.431762,0.314158 -4.750053,-0.03387 -5.287065,1.777191 -0.494536,1.667824 1.244803,3.224988 3.048791,2.849693 1.927224,-0.400936 1.511011,-2.585306 0.456896,-4.072807 0.8007,-0.04592 0.651757,-0.03403 2.009569,-0.10247 2.023893,1.725152 2.694733,2.217012 6.230597,4.733992 -2.724807,-0.28538 -3.716508,-0.547404 -5.670829,-1.716391 0.506272,1.270791 1.58837,4.154979 1.822766,6.392867 -1.127174,-1.619678 -1.554494,-2.214907 -3.301348,-3.383392 -2.237605,-1.496755 -4.049808,-1.547426 -5.098682,-3.752603 -1.04661,-2.200413 0.338719,-3.785456 2.817662,-4.47189 3.54259,-0.980967 6.595003,-1.911012 8.961732,-2.718532 z"
         style="fill:#e6e6e6;fill-opacity:1;stroke:none;stroke-width:0.0502859;stroke-linecap:butt;stroke-linejoin:miter;stroke-miterlimit:4;stroke-dasharray:none;stroke-opacity:1" />
      <path
         sodipodi:nodetypes="cccc"
         inkscape:connector-curvature="0"
         id="path909-3"
         d="m 41.880247,19.845297 c 0.8007,-0.04592 0.651757,-0.03403 2.009569,-0.10247 2.023893,1.725152 2.694733,2.217012 6.230597,4.733992 -3.554019,-0.254241 -6.243085,-1.302423 -8.240166,-4.631522 z"
         style="fill:#e6e6e6;fill-opacity:1;stroke:none;stroke-width:0.0502859;stroke-linecap:butt;stroke-linejoin:miter;stroke-miterlimit:4;stroke-dasharray:none;stroke-opacity:1" />
      <path
         style="stroke-opacity:1;stroke-dasharray:none;stroke-miterlimit:4;stroke-linejoin:miter;stroke-linecap:butt;stroke-width:0.0502859;stroke:none;fill-opacity:1;fill:currentColor;"
         d="m 49.651714,14.826878 c -1.336409,1.765232 -3.558327,4.150184 -5.990089,4.464342 -2.431762,0.314158 -4.750053,-0.03387 -5.287065,1.777191 -0.494536,1.667824 1.244803,3.224988 3.048791,2.849693 1.927224,-0.400936 1.511011,-2.585306 0.456896,-4.072807 0.8007,-0.04592 0.651757,-0.03403 2.009569,-0.10247 2.023893,1.725152 2.694733,2.217012 6.230597,4.733992 -2.724807,-0.28538 -3.716508,-0.547404 -5.670829,-1.716391 0.506272,1.270791 1.58837,4.154979 1.822766,6.392867 -1.127174,-1.619678 -1.554494,-2.214907 -3.301348,-3.383392 -2.237605,-1.496755 -4.049808,-1.547426 -5.098682,-3.752603 -1.04661,-2.200413 0.338719,-3.785456 2.817662,-4.47189 3.54259,-0.980967 6.595003,-1.911012 8.961732,-2.718532 z"
         id="path911-5"
         inkscape:connector-curvature="0"
         sodipodi:nodetypes="cssscccccsssc"
         class="ColorScheme-Text" />
      <path
         style="stroke-opacity:1;stroke-dasharray:none;stroke-miterlimit:4;stroke-linejoin:miter;stroke-linecap:butt;stroke-width:0.0502859;stroke:none;fill-opacity:1;fill:currentColor;"
         d="m 41.880247,19.845297 c 0.8007,-0.04592 0.651757,-0.03403 2.009569,-0.10247 2.023893,1.725152 2.694733,2.217012 6.230597,4.733992 -3.554019,-0.254241 -6.243085,-1.302423 -8.240166,-4.631522 z"
         id="path913-6"
         inkscape:connector-curvature="0"
         sodipodi:nodetypes="cccc"
         class="ColorScheme-Text" />
      <path
         sodipodi:nodetypes="ccccc"
         inkscape:connector-curvature="0"
         id="path915-2"
         d="m 35.872,16.032065 c 0.644708,-0.320033 1.22734,-0.583832 2.556441,-1.546644 2.560422,-1.854787 5.271232,-1.450284 6.628732,-0.713702 -3.711208,0.141079 -3.233029,0.880531 -3.246725,1.460218 -2.465736,-0.519746 -3.185678,0.187417 -5.938448,0.800128 z"
         style="stroke-opacity:1;stroke-dasharray:none;stroke-miterlimit:4;stroke-linejoin:miter;stroke-linecap:butt;stroke-width:0.0502859;stroke:none;fill-opacity:1;fill:currentColor;"
         class="ColorScheme-Text" />
      <path
         inkscape:connector-curvature="0"
         id="path917-9"
         d="M 45.057173,13.771719 C 41.345965,13.912798 42.052979,15.934664 42.599606,17 c -0.433077,0.125795 -0.90247,0.269103 -1.481405,0.422322 -2.335942,-4.162253 2.03243,-4.703736 3.938972,-3.650603 z"
         style="stroke-opacity:1;stroke-dasharray:none;stroke-miterlimit:4;stroke-linejoin:miter;stroke-linecap:butt;stroke-width:0.0502859;stroke:none;fill-opacity:1;fill:currentColor;"
         sodipodi:nodetypes="cccc"
         class="ColorScheme-Text" />
      <path
         sodipodi:nodetypes="cscc"
         style="stroke-opacity:1;stroke-dasharray:none;stroke-miterlimit:4;stroke-linejoin:miter;stroke-linecap:butt;stroke-width:0.0502859;stroke:none;fill-opacity:1;fill:currentColor;"
         d="m 38.540592,23.05421 c -1.816063,-2.338402 -1.480748,-4.481753 2.075364,-5.595367 3.509293,-1.098955 6.669029,-1.824445 9.035758,-2.631965 -6.386928,2.433558 -14.384611,4.059651 -11.111122,8.227332 z"
         id="path919-1"
         inkscape:connector-curvature="0"
         class="ColorScheme-Text" />
    </g>
  </g>
</svg>
