<?xml version="1.0" encoding="UTF-8" standalone="no"?>
<svg
  width="22"
  height="22"
  version="1.1"
  id="svg6"
  xmlns="http://www.w3.org/2000/svg"
  xmlns:svg="http://www.w3.org/2000/svg">
 <defs
   id="defs10" />
 <style
   type="text/css"
   id="current-color-scheme">
      .ColorScheme-Text {
        color:#eff0f1;
      }
      .ColorScheme-Background {
        color:#eff0f1;
      }
      .ColorScheme-Highlight {
        color:#3daee9;
      }
      .ColorScheme-ViewText {
        color:#31363b;
      }
      .ColorScheme-ViewBackground {
        color:#fcfcfc;
      }
      .ColorScheme-ViewHover {
        color:#93cee9;
      }
      .ColorScheme-ViewFocus{
        color:#3daee9;
      }
      .ColorScheme-ButtonText {
        color:#31363b;
      }
      .ColorScheme-ButtonBackground {
        color:#eff0f1;
      }
      .ColorScheme-ButtonHover {
        color:#93cee9;
      }
      .ColorScheme-ButtonFocus{
        color:#3daee9;
      }
      </style>
 <g
   id="kget"
   transform="translate(-326,-534.36218)">
  <rect
    y="534.36218"
    x="326"
    height="22"
    width="22"
    id="rect4148"
    style="opacity:1;fill:none;fill-opacity:1;stroke:none;stroke-width:0.1;stroke-linecap:square;stroke-linejoin:miter;stroke-miterlimit:4;stroke-dasharray:none;stroke-dashoffset:0;stroke-opacity:1" />
  <path
    id="rect4170"
    transform="translate(326,534.36218)"
    d="M 10,3 C 9,3 9,4 9,4 v 4 1 2 h 1 V 4.5116573 C 10,4.5116573 10.007347,4 10.362375,4 c 0.30201,0 1.0429,0 1.31244,0 C 12,4 12,4.5116573 12,4.5116573 V 11 h 1 V 9 8 4 C 13,4 13,3 12,3 11,3 11,3 10,3 Z M 6.7578125,10.34375 6.0507812,11.050781 11,16 15.949219,11.050781 15.242188,10.34375 11,14.585938 Z M 5,17 c 0,0 0,2 2,2 h 8 c 2,0 2,-2 2,-2 h -1 c 0,0 0,1 -1,1 H 7 C 6,18 6,17 6,17 Z"
    style="opacity:1;fill:currentColor;fill-opacity:1;stroke:none;stroke-width:2.8;stroke-miterlimit:4;stroke-dasharray:none;stroke-opacity:0.550265"
    class="ColorScheme-Text" />
 </g>
</svg>
