<?xml version="1.0" encoding="UTF-8" standalone="no"?>
<svg
  width="22"
  height="22"
  version="1.1"
  id="svg6"
  xmlns="http://www.w3.org/2000/svg"
  xmlns:svg="http://www.w3.org/2000/svg">
 <defs
   id="defs10" />
 <style
   type="text/css"
   id="current-color-scheme">
      .ColorScheme-Text {
        color:#eff0f1;
      }
      .ColorScheme-Background {
        color:#eff0f1;
      }
      .ColorScheme-Highlight {
        color:#3daee9;
      }
      .ColorScheme-ViewText {
        color:#31363b;
      }
      .ColorScheme-ViewBackground {
        color:#fcfcfc;
      }
      .ColorScheme-ViewHover {
        color:#93cee9;
      }
      .ColorScheme-ViewFocus{
        color:#3daee9;
      }
      .ColorScheme-ButtonText {
        color:#31363b;
      }
      .ColorScheme-ButtonBackground {
        color:#eff0f1;
      }
      .ColorScheme-ButtonHover {
        color:#93cee9;
      }
      .ColorScheme-ButtonFocus{
        color:#3daee9;
      }
      </style>
 <g
   id="konversation"
   transform="translate(-326,-534.36218)">
  <path
    id="rect3353"
    d="m 343,538.67351 -11,3.10666 v 0.58201 5.00002 0.58203 l 1,0.28516 v 2.13281 0.30078 c 0,0 4.03328,1.14226 5.01664,1.42073 C 339,552.36218 339,551.3622 339,551.3622 v -1.42383 l 4,1.12842 c 0,0 1,0.29539 1,-0.74756 v -10.91406 c 0,-1.04299 -1,-0.73166 -1,-0.73166 z m -0.5325,1.19229 c 0,0 0.5325,0 0.5325,0.49638 v 9 c 0,0.51453 -0.5325,0.51453 -0.5325,0.51453 0,0 -8.17246,-2.30704 -8.81635,-2.51453 C 333.00726,547.15469 333,546.76361 333,546.76361 v -3.78333 c 0,0 0.19019,-0.50796 0.65115,-0.6181 0.46095,-0.11014 8.81635,-2.49638 8.81635,-2.49638 z M 331,542.06533 l -1,0.28515 v 0.0117 1 3 1 0.0117 l 1,0.28516 v -0.29688 -0.74609 -3.50782 -0.74609 z m 3,6.44921 4,1.13868 v 1.42578 l -4,-1.13282 z"
    style="opacity:1;fill:currentColor;fill-opacity:1;stroke:none;stroke-width:0.1;stroke-linecap:round;stroke-linejoin:miter;stroke-miterlimit:4;stroke-dasharray:none;stroke-opacity:0.299435"
    class="ColorScheme-Text" />
  <rect
    y="534.36218"
    x="326"
    height="22"
    width="22"
    id="rect4170"
    style="opacity:1;fill:none;fill-opacity:1;stroke:none" />
 </g>
</svg>
