<?xml version="1.0" encoding="UTF-8"?>
<svg xmlns="http://www.w3.org/2000/svg" xmlns:xlink="http://www.w3.org/1999/xlink" xmlns:cc="http://creativecommons.org/ns#" xmlns:dc="http://purl.org/dc/elements/1.1/" xmlns:rdf="http://www.w3.org/1999/02/22-rdf-syntax-ns#" xmlns:inkscape="http://www.inkscape.org/namespaces/inkscape" xmlns:sodipodi="http://sodipodi.sourceforge.net/DTD/sodipodi-0.dtd" width="22" height="22">
    <style type="text/css" id="current-color-scheme">
      .ColorScheme-Text {
        color:#eff0f1;
      }
      </style>
    <g transform="translate(-326,-534.3622) translate(0,2e-05)" id="kruler">
    <rect y="534.36218" x="326" height="22" width="22" id="rect4165" style="opacity:1;fill:none;fill-opacity:1;stroke:none"/>
    <path inkscape:connector-curvature="0" id="path6" class="ColorScheme-Text" d="m 330,538.36218 c 0,0 -2,0 -2,2.00002 0,2.00002 0,7.99998 0,9.99998 0,2 2,2 2,2 l 16,2e-5 v -1 l -16,-2e-5 c 0,0 -1,0 -1,-1 0,-1 0,-8 0,-9 0,-1 1,-1 1,-1 l 16,2e-5 v -2 z m 0,3.00002 v 3 h 1 v -3 z m 2,0 v 3 h 1 v -3 z m 2,0 v 6 h 1 v -6 z m 2,0 v 3 h 1 v -3 z m 2,0 v 3 h 1 v -3 z m 2,0 v 6 h 1 v -6 z m 2,0 v 3 h 1 v -3 z m 2,0 v 3 h 1 v -3 z" style="fill:currentColor;fill-opacity:1;stroke:none"/>
  </g>
</svg>
