<?xml version="1.0" encoding="UTF-8" standalone="no"?>
<svg
  width="22"
  height="22"
  version="1.1"
  id="svg1"
  xmlns="http://www.w3.org/2000/svg"
  xmlns:svg="http://www.w3.org/2000/svg">
 <defs
   id="defs1" />
 <style
   type="text/css"
   id="current-color-scheme">
      .ColorScheme-Text {
        color:#eff0f1;
      }
      .ColorScheme-Background {
        color:#eff0f1;
      }
      .ColorScheme-Highlight {
        color:#3daee9;
      }
      .ColorScheme-ViewText {
        color:#31363b;
      }
      .ColorScheme-ViewBackground {
        color:#fcfcfc;
      }
      .ColorScheme-ViewHover {
        color:#93cee9;
      }
      .ColorScheme-ViewFocus{
        color:#3daee9;
      }
      .ColorScheme-ButtonText {
        color:#31363b;
      }
      .ColorScheme-ButtonBackground {
        color:#eff0f1;
      }
      .ColorScheme-ButtonHover {
        color:#93cee9;
      }
      .ColorScheme-ButtonFocus{
        color:#3daee9;
      }
      </style>
 <g
   id="ktorrent">
  <path
    id="rect4163"
    d="M 8,5 V 9 H 9 V 5 c 0,0 0,-1 1,-1 1,0 1,0 2,0 1,0 1,1 1,1 v 4 h 1 V 5 C 14,5 14,3 12,3 10,3 12,3 10,3 8,3 8,5 8,5 Z M 5.7929688,10 5,10.816406 11,17 17,10.816406 16.207031,10 11,15.367188 Z M 4,17 c 0,0 0,2 2,2 2,0 8,0 10,0 2,0 2,-2 2,-2 h -1 c 0,0 0,1 -1,1 -1,0 -9,0 -10,0 -1,0 -1,-1 -1,-1 z"
    style="fill:currentColor;fill-opacity:1;stroke:none"
    class="ColorScheme-Text" />
  <rect
    y="0"
    x="0"
    height="22"
    width="22"
    id="rect4183"
    style="opacity:1;fill:none;fill-opacity:1;stroke:none;stroke-width:0.1;stroke-linecap:square;stroke-linejoin:miter;stroke-miterlimit:4;stroke-dasharray:none;stroke-dashoffset:0;stroke-opacity:1" />
 </g>
</svg>
