<?xml version="1.0" encoding="UTF-8" standalone="no"?>
<svg
   width="64"
   height="64"
   version="1"
   id="svg2417"
   sodipodi:docname="acetoneiso.svg"
   inkscape:version="1.2.2 (b0a8486541, 2022-12-01)"
   xmlns:inkscape="http://www.inkscape.org/namespaces/inkscape"
   xmlns:sodipodi="http://sodipodi.sourceforge.net/DTD/sodipodi-0.dtd"
   xmlns:xlink="http://www.w3.org/1999/xlink"
   xmlns="http://www.w3.org/2000/svg"
   xmlns:svg="http://www.w3.org/2000/svg"
   xmlns:rdf="http://www.w3.org/1999/02/22-rdf-syntax-ns#"
   xmlns:cc="http://creativecommons.org/ns#"
   xmlns:dc="http://purl.org/dc/elements/1.1/">
  <sodipodi:namedview
     id="namedview2419"
     pagecolor="#ffffff"
     bordercolor="#999999"
     borderopacity="1"
     inkscape:showpageshadow="0"
     inkscape:pageopacity="0"
     inkscape:pagecheckerboard="0"
     inkscape:deskcolor="#d1d1d1"
     showgrid="false"
     inkscape:zoom="7"
     inkscape:cx="-8"
     inkscape:cy="15.285714"
     inkscape:window-width="1920"
     inkscape:window-height="1048"
     inkscape:window-x="0"
     inkscape:window-y="0"
     inkscape:window-maximized="1"
     inkscape:current-layer="svg2417" />
  <metadata
     id="metadata2386">
    <rdf:RDF>
      <cc:Work
         rdf:about="">
        <dc:format>image/svg+xml</dc:format>
        <dc:type
           rdf:resource="http://purl.org/dc/dcmitype/StillImage" />
      </cc:Work>
    </rdf:RDF>
  </metadata>
  <defs
     id="defs2399">
    <linearGradient
       id="linearGradient986"
       x1="13.51"
       x2="54.293"
       y1="13.195"
       y2="53.978"
       gradientUnits="userSpaceOnUse">
      <stop
         stop-color="#fefefe"
         offset="0"
         id="stop2388" />
      <stop
         stop-color="#d2f3ff"
         offset=".18101"
         id="stop2390" />
      <stop
         stop-color="#9fe7fc"
         offset=".48345"
         id="stop2392" />
      <stop
         stop-color="#add0d5"
         offset=".57177"
         id="stop2394" />
      <stop
         stop-color="#f05d06"
         offset="1"
         id="stop2396" />
    </linearGradient>
    <linearGradient
       inkscape:collect="always"
       xlink:href="#linearGradient986"
       id="linearGradient2554"
       gradientUnits="userSpaceOnUse"
       x1="13.51"
       y1="13.195"
       x2="54.293"
       y2="53.978"
       gradientTransform="translate(-3.66e-4,4.3518648e-5)" />
    <linearGradient
       inkscape:collect="always"
       xlink:href="#linearGradient986"
       id="linearGradient3148"
       gradientUnits="userSpaceOnUse"
       x1="13.51"
       y1="13.195"
       x2="54.293"
       y2="53.978" />
    <linearGradient
       inkscape:collect="always"
       xlink:href="#linearGradient986"
       id="linearGradient12005"
       x1="25.500593"
       y1="25.5"
       x2="38.500591"
       y2="38.5"
       gradientUnits="userSpaceOnUse" />
    <linearGradient
       inkscape:collect="always"
       xlink:href="#linearGradient986"
       id="linearGradient12007"
       x1="19.500593"
       y1="19.5"
       x2="44.500591"
       y2="44.5"
       gradientUnits="userSpaceOnUse" />
  </defs>
  <g
     stroke-linecap="round"
     stroke-linejoin="round"
     id="g2415"
     transform="translate(0,-68.928571)">
    <circle
       cx="32"
       cy="32"
       r="30"
       fill="url(#linearGradient986)"
       stroke-width="5.375"
       style="fill:url(#linearGradient3148);paint-order:stroke fill markers"
       id="circle2401" />
    <path
       d="M 31.855,2 A 30,30 0 0 0 2,32 30,30 0 0 0 32,62 30,30 0 0 0 62,32 30,30 0 0 0 32,2 30,30 0 0 0 31.85547,2 Z m 0.002,0.5 a 29.5,29.5 0 0 1 0.14258,0 29.5,29.5 0 0 1 29.5,29.5 29.5,29.5 0 0 1 -29.5,29.5 29.5,29.5 0 0 1 -29.5,-29.5 29.5,29.5 0 0 1 29.357,-29.5 z"
       fill="#020202"
       opacity="0.5"
       stroke-width="5.375"
       style="paint-order:stroke fill markers"
       id="path2403" />
    <path
       d="M 32,18.5 A 13.5,13.5 0 0 0 18.5,32 13.5,13.5 0 0 0 32,45.5 13.5,13.5 0 0 0 45.5,32 13.5,13.5 0 0 0 32,18.5 Z M 31.89258,19 A 13,13 0 0 1 32,19 13,13 0 0 1 45,32 13,13 0 0 1 32,45 13,13 0 0 1 19,32 13,13 0 0 1 31.893,19 Z"
       fill="#ffffff"
       opacity="0.3"
       stroke-width="4.5686"
       style="paint-order:stroke fill markers"
       id="path2405" />
    <circle
       cx="32"
       cy="32"
       r="12.5"
       fill="#ffffff"
       stroke-width="4.2302"
       style="paint-order:stroke fill markers"
       id="circle2407" />
    <circle
       cx="32"
       cy="32"
       r="11.5"
       fill="#030001"
       stroke-width="3.8917"
       style="paint-order:stroke fill markers"
       id="circle2409" />
    <circle
       cx="32"
       cy="32"
       r="6.5"
       fill="#85909d"
       stroke-width="2.1997"
       style="paint-order:stroke fill markers"
       id="circle2411" />
    <circle
       cx="32"
       cy="32"
       r="6"
       fill="#ffffff"
       stroke-width="2.0305"
       style="paint-order:stroke fill markers"
       id="circle2413" />
  </g>
  <g
     id="g14244">
    <path
       id="circle2538"
       style="fill:url(#linearGradient2554);stroke-linecap:round;stroke-linejoin:round;paint-order:stroke fill markers"
       d="m 32.000366,2.0000435 a 30,30 0 0 0 -30,30.0000005 30,30 0 0 0 30,30 30,30 0 0 0 30,-30 30,30 0 0 0 -30,-30.0000005 z m 0,9.0156255 A 20.984489,20.984489 0 0 1 52.984741,32.000044 20.984489,20.984489 0 0 1 32.000366,52.984419 20.984489,20.984489 0 0 1 11.015991,32.000044 20.984489,20.984489 0 0 1 32.000366,11.015669 Z" />
    <path
       d="m 31.854634,2.0000435 a 30,30 0 0 0 -29.855,30.0000005 30,30 0 0 0 30,30 30,30 0 0 0 30,-30 30,30 0 0 0 -30,-30.0000005 30,30 0 0 0 -0.14453,0 z m 0.002,0.5 a 29.5,29.5 0 0 1 0.14258,0 29.5,29.5 0 0 1 29.5,29.5000005 29.5,29.5 0 0 1 -29.5,29.5 29.5,29.5 0 0 1 -29.5,-29.5 29.5,29.5 0 0 1 29.357,-29.5000005 z"
       fill="#020202"
       opacity="0.5"
       stroke-width="5.375"
       style="stroke-linecap:round;stroke-linejoin:round;paint-order:stroke fill markers"
       id="path2540" />
    <path
       d="m 31.999634,18.500044 a 13.5,13.5 0 0 0 -13.5,13.5 13.5,13.5 0 0 0 13.5,13.5 13.5,13.5 0 0 0 13.5,-13.5 13.5,13.5 0 0 0 -13.5,-13.5 z m -0.10742,0.5 a 13,13 0 0 1 0.10742,0 13,13 0 0 1 13,13 13,13 0 0 1 -13,13 13,13 0 0 1 -13,-13 13,13 0 0 1 12.893,-13 z"
       fill="#ffffff"
       opacity="0.3"
       stroke-width="4.5686"
       style="stroke-linecap:round;stroke-linejoin:round;paint-order:stroke fill markers"
       id="path2542" />
    <path
       id="circle2544"
       style="fill:url(#linearGradient12007);fill-opacity:1;stroke-linecap:round;stroke-linejoin:round;paint-order:stroke fill markers"
       d="m 32.000593,19.5 a 12.5,12.5 0 0 0 -12.5,12.5 12.5,12.5 0 0 0 12.5,12.5 12.5,12.5 0 0 0 12.5,-12.5 12.5,12.5 0 0 0 -12.5,-12.5 z m 0,1 a 11.5,11.5 0 0 1 11.5,11.5 11.5,11.5 0 0 1 -11.5,11.5 11.5,11.5 0 0 1 -11.5,-11.5 11.5,11.5 0 0 1 11.5,-11.5 z" />
    <path
       id="circle2548"
       style="fill:url(#linearGradient12005);fill-opacity:1;stroke-linecap:round;stroke-linejoin:round;paint-order:stroke fill markers"
       d="m 32.000593,25.5 a 6.5,6.5 0 0 0 -6.5,6.5 6.5,6.5 0 0 0 6.5,6.5 6.5,6.5 0 0 0 6.5,-6.5 6.5,6.5 0 0 0 -6.5,-6.5 z m 0,2.875 A 3.6246233,3.6246233 0 0 1 35.62364,32 a 3.6246233,3.6246233 0 0 1 -3.623047,3.625 3.6246233,3.6246233 0 0 1 -3.625,-3.625 3.6246233,3.6246233 0 0 1 3.625,-3.625 z" />
  </g>
</svg>
