<?xml version="1.0" encoding="UTF-8" standalone="no"?>
<svg
   width="64"
   height="64"
   version="1.1"
   viewBox="0 0 16.933 16.933"
   id="svg29"
   sodipodi:docname="awf.svg"
   inkscape:version="1.2.1 (9c6d41e410, 2022-07-14, custom)"
   xmlns:inkscape="http://www.inkscape.org/namespaces/inkscape"
   xmlns:sodipodi="http://sodipodi.sourceforge.net/DTD/sodipodi-0.dtd"
   xmlns:xlink="http://www.w3.org/1999/xlink"
   xmlns="http://www.w3.org/2000/svg"
   xmlns:svg="http://www.w3.org/2000/svg"
   xmlns:rdf="http://www.w3.org/1999/02/22-rdf-syntax-ns#"
   xmlns:cc="http://creativecommons.org/ns#"
   xmlns:dc="http://purl.org/dc/elements/1.1/">
  <sodipodi:namedview
     id="namedview31"
     pagecolor="#ffffff"
     bordercolor="#999999"
     borderopacity="1"
     inkscape:showpageshadow="0"
     inkscape:pageopacity="0"
     inkscape:pagecheckerboard="0"
     inkscape:deskcolor="#d1d1d1"
     showgrid="false"
     inkscape:zoom="2.3036213"
     inkscape:cx="-35.596128"
     inkscape:cy="25.394799"
     inkscape:window-width="1920"
     inkscape:window-height="989"
     inkscape:window-x="0"
     inkscape:window-y="0"
     inkscape:window-maximized="1"
     inkscape:current-layer="svg29" />
  <defs
     id="defs17">
    <linearGradient
       id="linearGradient2121"
       x1="1.5652"
       x2="1.5652"
       y1="25.244"
       y2="28.82"
       gradientTransform="translate(7.6401,-13.958)"
       gradientUnits="userSpaceOnUse">
      <stop
         stop-color="#72d7ff"
         offset="0"
         id="stop2" />
      <stop
         stop-color="#09abed"
         offset="1"
         id="stop4" />
    </linearGradient>
    <linearGradient
       id="linearGradient2190"
       x1="-1.1093"
       x2="1.2942"
       y1="30.48"
       y2="29.185"
       gradientTransform="matrix(1.4311,0,0,1.4311,7.3533,-26.773)"
       gradientUnits="userSpaceOnUse">
      <stop
         stop-color="#00b2ed"
         offset="0"
         id="stop7" />
      <stop
         stop-color="#009cdc"
         offset="1"
         id="stop9" />
    </linearGradient>
    <linearGradient
       id="linearGradient2195"
       x1="-.92444"
       x2="1.2942"
       y1="30.48"
       y2="29.185"
       gradientTransform="matrix(-1.4311,0,0,1.4311,11.057,-26.773)"
       gradientUnits="userSpaceOnUse">
      <stop
         stop-color="#3dc2f5"
         offset="0"
         id="stop12" />
      <stop
         stop-color="#79cbea"
         offset="1"
         id="stop14" />
    </linearGradient>
    <linearGradient
       inkscape:collect="always"
       xlink:href="#linearGradient2121"
       id="linearGradient322"
       gradientUnits="userSpaceOnUse"
       gradientTransform="matrix(2.0739,0,0,2.0739,5.220363,-51.297496)"
       x1="1.5652"
       y1="25.244"
       x2="1.5652"
       y2="28.82" />
    <linearGradient
       inkscape:collect="always"
       xlink:href="#linearGradient2190"
       id="linearGradient324"
       gradientUnits="userSpaceOnUse"
       gradientTransform="matrix(2.9679583,0,0,2.9679583,26.279903,-77.874525)"
       x1="-1.1093"
       y1="30.48"
       x2="1.2942"
       y2="29.185" />
    <linearGradient
       inkscape:collect="always"
       xlink:href="#linearGradient2195"
       id="linearGradient326"
       gradientUnits="userSpaceOnUse"
       gradientTransform="matrix(-2.9679583,0,0,2.9679583,33.961006,-77.874525)"
       x1="-.92444"
       y1="30.48"
       x2="1.2942"
       y2="29.185" />
  </defs>
  <metadata
     id="metadata19">
    <rdf:RDF>
      <cc:Work
         rdf:about="">
        <dc:format>image/svg+xml</dc:format>
        <dc:type
           rdf:resource="http://purl.org/dc/dcmitype/StillImage" />
      </cc:Work>
    </rdf:RDF>
  </metadata>
  <path
     d="m 8.44507,1.0581093 a 1.3944074,1.3944074 0 0 0 -0.07395,0.00332 1.3944074,1.3944074 0 0 0 -0.07288,0.00643 1.3944074,1.3944074 0 0 0 -0.07181,0.011821 1.3944074,1.3944074 0 0 0 -0.07288,0.013895 1.3944074,1.3944074 0 0 0 -0.0718,0.01825 1.3944074,1.3944074 0 0 0 -0.06859,0.022502 1.3944074,1.3944074 0 0 0 -0.06859,0.025716 1.3944074,1.3944074 0 0 0 -0.06859,0.028931 1.3944074,1.3944074 0 0 0 -0.06645,0.033224 L 2.067119,4.3139664 C 1.864111,4.4233231 1.700267,4.5789901 1.58699,4.7619288 1.473714,4.9448675 1.411227,5.1553476 1.411227,5.3738952 V 11.55785 c 0,0.218527 0.06249,0.429007 0.175763,0.611946 0.113277,0.182918 0.277115,0.338626 0.480129,0.447962 l 5.742421,3.09177 c 0.203008,0.109357 0.430397,0.163963 0.65697,0.163963 0.226553,0 0.452878,-0.05465 0.655892,-0.163963 l 5.742422,-3.09177 c 0.202993,-0.109356 0.366852,-0.265023 0.480128,-0.447962 0.113277,-0.182939 0.176821,-0.393419 0.176821,-0.611967 V 5.3738745 c 0,-0.2185269 -0.06354,-0.429007 -0.176821,-0.6119665 C 15.231676,4.5790523 15.068916,4.4232817 14.865902,4.3139456 L 9.122444,1.2221755 a 1.3944074,1.3944074 0 0 0 -0.03751,-0.019287 1.3944074,1.3944074 0 0 0 -0.06645,-0.031088 1.3944074,1.3944074 0 0 0 -0.06859,-0.026795 1.3944074,1.3944074 0 0 0 -0.06859,-0.02358 1.3944074,1.3944074 0 0 0 -0.07181,-0.020324 1.3944074,1.3944074 0 0 0 -0.07181,-0.015969 1.3944074,1.3944074 0 0 0 -0.07288,-0.012858 1.3944074,1.3944074 0 0 0 -0.07288,-0.0085 1.3944074,1.3944074 0 0 0 -0.07288,-0.00436 1.3944074,1.3944074 0 0 0 -0.07288,-0.0011 z M 2.536529,6.1926709 7.90482,9.0444908 V 14.548829 L 2.630892,11.70883 c -0.0582,-0.03138 -0.09431,-0.08866 -0.09431,-0.151104 z M 14.396127,6.328781 v 5.228717 a 0.17284712,0.17284712 0 0 1 0,0.0064 0.17284712,0.17284712 0 0 1 -0.0033,0.02574 0.17284712,0.17284712 0 0 1 -0.0054,0.02464 0.17284712,0.17284712 0 0 1 -0.01182,0.0236 0.17284712,0.17284712 0 0 1 -0.01389,0.02144 0.17284712,0.17284712 0 0 1 -0.01721,0.01929 0.17284712,0.17284712 0 0 1 -0.02032,0.01721 0.17284712,0.17284712 0 0 1 -0.02142,0.01286 L 9.027802,14.548676 V 9.1804142 Z"
     fill="url(#linearGradient2121)"
     stroke-width="0.548712"
     style="fill:url(#linearGradient322);stroke-linecap:round;stroke-linejoin:round;paint-order:stroke fill markers"
     id="path314" />
  <path
     d="m 23.227952,4.8118683 c -0.09658,0.1721959 -0.161831,0.3617089 -0.161831,0.5626698 v 6.1841629 c 0,0.218526 0.06249,0.429006 0.175763,0.611945 0.113272,0.182918 0.277115,0.338627 0.480129,0.447983 l 5.742421,3.091978 c 0.203012,0.109357 0.430418,0.163962 0.656991,0.163962 V 8.4744794 Z"
     fill="url(#linearGradient2190)"
     stroke-width="0.78522"
     style="fill:url(#linearGradient324);stroke-linecap:round;stroke-linejoin:round;paint-order:stroke fill markers"
     id="path316" />
  <path
     d="M 37.013787,4.8118683 30.12118,8.4739609 v 7.4000901 c 0.226553,0 0.452899,-0.05465 0.655892,-0.163963 l 5.742422,-3.091977 c 0.202993,-0.109357 0.366852,-0.265045 0.480128,-0.447983 0.113277,-0.182939 0.176842,-0.393419 0.176842,-0.611946 V 5.3740196 c 0,-0.2009609 -0.06618,-0.3904739 -0.162905,-0.562649 z"
     fill="url(#linearGradient2195)"
     stroke-width="0.78522"
     style="fill:url(#linearGradient326);stroke-linecap:round;stroke-linejoin:round;paint-order:stroke fill markers"
     id="path318" />
</svg>
