<?xml version="1.0" encoding="UTF-8" standalone="no"?>
<svg
   id="App-Store"
   width="64"
   height="64"
   enable-background="new 0 0 1024 1024"
   image-rendering="optimizeSpeed"
   version="1.1"
   viewBox="0 0 64 64"
   sodipodi:docname="bluetooth.svg"
   xml:space="preserve"
   inkscape:version="1.2.1 (9c6d41e410, 2022-07-14)"
   xmlns:inkscape="http://www.inkscape.org/namespaces/inkscape"
   xmlns:sodipodi="http://sodipodi.sourceforge.net/DTD/sodipodi-0.dtd"
   xmlns:xlink="http://www.w3.org/1999/xlink"
   xmlns="http://www.w3.org/2000/svg"
   xmlns:svg="http://www.w3.org/2000/svg"><sodipodi:namedview
     id="namedview12"
     pagecolor="#ffffff"
     bordercolor="#999999"
     borderopacity="1"
     inkscape:showpageshadow="0"
     inkscape:pageopacity="0"
     inkscape:pagecheckerboard="0"
     inkscape:deskcolor="#d1d1d1"
     showgrid="false"
     inkscape:zoom="1.84375"
     inkscape:cx="120.94915"
     inkscape:cy="21.694915"
     inkscape:window-width="1920"
     inkscape:window-height="936"
     inkscape:window-x="0"
     inkscape:window-y="40"
     inkscape:window-maximized="1"
     inkscape:current-layer="App-Store" /><defs
     id="defs7"><linearGradient
       inkscape:collect="always"
       id="linearGradient8755"><stop
         style="stop-color:#1ccaff;stop-opacity:1"
         offset="0"
         id="stop8749" /><stop
         style="stop-color:#2fcdfe;stop-opacity:0"
         offset="1"
         id="stop8753" /></linearGradient><linearGradient
       inkscape:collect="always"
       id="linearGradient2403"><stop
         style="stop-color:#452cfd;stop-opacity:1"
         offset="0"
         id="stop2399" /><stop
         style="stop-color:#8145ff;stop-opacity:1"
         offset="0.50165313"
         id="stop8189" /><stop
         style="stop-color:#2fcdfe;stop-opacity:1"
         offset="1"
         id="stop2401" /></linearGradient><linearGradient
       id="linearGradient1302"
       x1="32.424"
       x2="32.424"
       y1="6.5793"
       y2="57.801"
       gradientTransform="matrix(1.0714 0 0 1.0714 -2.2857 -2.2857)"
       gradientUnits="userSpaceOnUse"><stop
         stop-color="#1f79dd"
         offset="0"
         id="stop2" /><stop
         stop-color="#46b9ff"
         offset="1"
         id="stop4" /></linearGradient><linearGradient
       inkscape:collect="always"
       xlink:href="#linearGradient2403"
       id="linearGradient8743"
       x1="15.640072"
       y1="17.850487"
       x2="48.353451"
       y2="43.620163"
       gradientUnits="userSpaceOnUse" /><radialGradient
       inkscape:collect="always"
       xlink:href="#linearGradient8755"
       id="radialGradient8747"
       cx="48.115135"
       cy="24.43684"
       fx="48.115135"
       fy="24.43684"
       r="18.36697"
       gradientTransform="matrix(1,0,0,1.6333683,0,-20.267785)"
       gradientUnits="userSpaceOnUse" /></defs><path
     id="path1579"
     style="opacity:1;fill:url(#linearGradient8743);fill-rule:evenodd;stroke-width:5.58139;stroke-linecap:round;stroke-linejoin:round;paint-order:stroke fill markers;fill-opacity:1"
     d="m 29.660174,1.9999802 c -0.311491,3.98e-4 -0.62399,0.03379 -0.93205,0.100836 -0.154029,0.03352 -0.306837,0.07498 -0.457848,0.125363 -0.151012,0.05038 -0.300395,0.109773 -0.446949,0.177143 -0.195436,0.08986 -0.381456,0.192738 -0.558683,0.307959 -0.177229,0.115221 -0.344212,0.241008 -0.501454,0.378815 -0.157242,0.137808 -0.306019,0.286601 -0.441496,0.444222 -0.135479,0.157623 -0.258704,0.324065 -0.370641,0.498728 -0.111937,0.174663 -0.213164,0.358855 -0.299781,0.547783 -0.08662,0.188931 -0.158501,0.382789 -0.218023,0.583213 -0.05952,0.200424 -0.105616,0.406771 -0.136266,0.615915 -0.03065,0.209146 -0.04633,0.422626 -0.04633,0.637719 V 20.630064 l -4.382267,-3.651888 c -0.231958,-0.193291 -0.478109,-0.358606 -0.735827,-0.496003 -0.25772,-0.137396 -0.526497,-0.247475 -0.801236,-0.32976 -0.274738,-0.08228 -0.556373,-0.138288 -0.83939,-0.166242 -0.283016,-0.02796 -0.567737,-0.02832 -0.850291,-0.0027 -0.282552,0.02559 -0.563314,0.07699 -0.836663,0.155341 -0.273349,0.07836 -0.540381,0.18307 -0.795786,0.313409 -0.255403,0.13034 -0.498933,0.287209 -0.727652,0.468749 -0.228717,0.181541 -0.441702,0.389409 -0.634992,0.621367 -0.193291,0.231959 -0.358606,0.478037 -0.496003,0.735829 -0.137396,0.257791 -0.247475,0.526372 -0.32976,0.801234 -0.08229,0.274863 -0.135561,0.556218 -0.163517,0.839391 -0.02796,0.283172 -0.03104,0.56757 -0.0055,0.85029 0.02559,0.282719 0.07971,0.56316 0.158068,0.836664 0.07836,0.273505 0.183068,0.540256 0.313408,0.795785 0.13034,0.255528 0.284484,0.501588 0.466024,0.730377 0.181541,0.228792 0.389408,0.441704 0.621367,0.634993 l 9.884628,8.233103 -9.884628,8.233103 c -0.231978,0.193254 -0.439751,0.4063 -0.621367,0.634992 -0.181614,0.228691 -0.338295,0.472266 -0.468749,0.727652 -0.130454,0.255387 -0.234911,0.522444 -0.313408,0.795786 -0.0785,0.27334 -0.129599,0.554109 -0.155343,0.836663 -0.02574,0.282554 -0.02508,0.567265 0.0027,0.850291 0.02781,0.283025 0.08137,0.564633 0.163518,0.839389 0.08215,0.274756 0.192462,0.540766 0.32976,0.79851 0.137299,0.257746 0.302766,0.506561 0.496004,0.738554 h 0.0027 c 0.193272,0.231984 0.406288,0.439746 0.634992,0.621367 0.228705,0.18162 0.472257,0.335563 0.727652,0.466024 0.255397,0.130461 0.522441,0.234906 0.795786,0.313408 0.273344,0.0785 0.554111,0.132321 0.836663,0.158066 0.282554,0.02575 0.567271,0.02508 0.850291,-0.0027 0.283021,-0.02781 0.564643,-0.08408 0.83939,-0.166241 0.274747,-0.08216 0.543502,-0.189727 0.801236,-0.327035 0.257732,-0.137308 0.503852,-0.302748 0.735827,-0.496004 l 4.382267,-3.649163 v 14.209663 c 0,0.215093 0.01574,0.428575 0.04633,0.637719 0.03059,0.209144 0.07685,0.412768 0.136266,0.61319 0.05941,0.200423 0.131543,0.397009 0.218023,0.585938 0.08648,0.188927 0.185276,0.370397 0.297056,0.545058 0.111781,0.174662 0.238045,0.343832 0.373366,0.501454 0.135319,0.157621 0.281673,0.303687 0.438771,0.441496 0.157097,0.137809 0.324341,0.266317 0.501454,0.38154 0.177113,0.115224 0.363318,0.218093 0.558683,0.307959 0.195384,0.08987 0.396736,0.163936 0.599565,0.223474 0.202828,0.05954 0.40619,0.103875 0.61319,0.133539 0.207,0.02966 0.416195,0.04608 0.624091,0.04633 0.207897,2.48e-4 0.415846,-0.0149 0.621367,-0.0436 0.20552,-0.02871 0.407868,-0.07089 0.607739,-0.128089 0.19987,-0.0572 0.397717,-0.13006 0.588663,-0.215298 0.190947,-0.08524 0.374485,-0.184243 0.553234,-0.297056 0.178748,-0.112814 0.351803,-0.238886 0.51508,-0.378816 l 16.27816,-13.953487 c 0.12329,-0.105714 0.238934,-0.217826 0.348837,-0.33521 0.109902,-0.117384 0.214786,-0.240172 0.310683,-0.367915 0.09589,-0.127742 0.183081,-0.2611 0.264353,-0.397892 0.08127,-0.136791 0.154718,-0.27789 0.220748,-0.42242 0.06603,-0.144529 0.124248,-0.29054 0.174419,-0.441497 0.05017,-0.150957 0.09439,-0.3045 0.128089,-0.460574 0.0337,-0.156074 0.05698,-0.31432 0.07358,-0.474201 0.0166,-0.15988 0.02564,-0.322725 0.02453,-0.485101 -0.0011,-0.16247 -0.0112,-0.322609 -0.02998,-0.482376 -0.01878,-0.159768 -0.04594,-0.318455 -0.08176,-0.474201 -0.03582,-0.155746 -0.08131,-0.310167 -0.133539,-0.460574 -0.05223,-0.150408 -0.111862,-0.297745 -0.179869,-0.441497 -0.06801,-0.143752 -0.143053,-0.283917 -0.2262,-0.419694 -0.08315,-0.135779 -0.174876,-0.265955 -0.272528,-0.392442 -0.09765,-0.126489 -0.201888,-0.249311 -0.313408,-0.365189 -0.111522,-0.11588 -0.229532,-0.225807 -0.354289,-0.32976 l -9.876452,-8.230378 9.876452,-8.227651 c 0.124747,-0.103954 0.242788,-0.213939 0.354289,-0.32976 0.111501,-0.115823 0.215781,-0.236078 0.313408,-0.362464 0.09763,-0.126387 0.189406,-0.25952 0.272528,-0.395167 0.08312,-0.135648 0.158209,-0.276091 0.2262,-0.419695 0.06799,-0.143605 0.12764,-0.288515 0.179869,-0.438771 0.05223,-0.150258 0.0977,-0.304968 0.133539,-0.460576 0.03584,-0.155606 0.06294,-0.314548 0.08176,-0.474199 0.01882,-0.159653 0.02881,-0.319983 0.02998,-0.482378 0.0012,-0.162417 -0.0053,-0.322472 -0.0218,-0.482376 -0.01651,-0.159903 -0.04273,-0.320842 -0.07631,-0.476926 -0.03358,-0.156082 -0.07533,-0.309619 -0.125364,-0.460574 -0.05003,-0.150954 -0.108533,-0.296976 -0.174418,-0.441497 -0.06589,-0.144519 -0.139616,-0.285641 -0.220749,-0.422419 -0.08113,-0.136778 -0.168576,-0.270163 -0.264353,-0.397892 -0.09578,-0.12773 -0.200867,-0.250541 -0.310683,-0.367914 -0.109816,-0.117374 -0.225586,-0.2295 -0.348837,-0.335212 v -0.0027 L 32.543531,3.0655692 c -0.163221,-0.14 -0.336372,-0.265737 -0.51508,-0.378815 -0.178707,-0.113079 -0.362325,-0.214221 -0.553234,-0.299782 -0.19091,-0.08556 -0.388833,-0.157848 -0.588663,-0.215299 -0.199829,-0.05745 -0.402274,-0.09935 -0.607739,-0.128088 -0.205466,-0.02875 -0.410986,-0.04387 -0.618641,-0.04361 z m 4.425872,14.0297958 5.017259,4.303233 -5.017259,4.177869 z m 0,23.46475 5.017259,4.180596 -5.017259,4.297782 z" /><path
     id="path8745"
     style="opacity:1;fill:url(#radialGradient8747);fill-rule:evenodd;stroke-width:5.58139;stroke-linecap:round;stroke-linejoin:round;paint-order:stroke fill markers;fill-opacity:1"
     d="m 29.660174,1.9999802 c -0.311491,3.98e-4 -0.62399,0.03379 -0.93205,0.100836 -0.154029,0.03352 -0.306837,0.07498 -0.457848,0.125363 -0.151012,0.05038 -0.300395,0.109773 -0.446949,0.177143 -0.195436,0.08986 -0.381456,0.192738 -0.558683,0.307959 -0.177229,0.115221 -0.344212,0.241008 -0.501454,0.378815 -0.157242,0.137808 -0.306019,0.286601 -0.441496,0.444222 -0.135479,0.157623 -0.258704,0.324065 -0.370641,0.498728 -0.111937,0.174663 -0.213164,0.358855 -0.299781,0.547783 -0.08662,0.188931 -0.158501,0.382789 -0.218023,0.583213 -0.05952,0.200424 -0.105616,0.406771 -0.136266,0.615915 -0.03065,0.209146 -0.04633,0.422626 -0.04633,0.637719 V 20.630064 l -4.382267,-3.651888 c -0.231958,-0.193291 -0.478109,-0.358606 -0.735827,-0.496003 -0.25772,-0.137396 -0.526497,-0.247475 -0.801236,-0.32976 -0.274738,-0.08228 -0.556373,-0.138288 -0.83939,-0.166242 -0.283016,-0.02796 -0.567737,-0.02832 -0.850291,-0.0027 -0.282552,0.02559 -0.563314,0.07699 -0.836663,0.155341 -0.273349,0.07836 -0.540381,0.18307 -0.795786,0.313409 -0.255403,0.13034 -0.498933,0.287209 -0.727652,0.468749 -0.228717,0.181541 -0.441702,0.389409 -0.634992,0.621367 -0.193291,0.231959 -0.358606,0.478037 -0.496003,0.735829 -0.137396,0.257791 -0.247475,0.526372 -0.32976,0.801234 -0.08229,0.274863 -0.135561,0.556218 -0.163517,0.839391 -0.02796,0.283172 -0.03104,0.56757 -0.0055,0.85029 0.02559,0.282719 0.07971,0.56316 0.158068,0.836664 0.07836,0.273505 0.183068,0.540256 0.313408,0.795785 0.13034,0.255528 0.284484,0.501588 0.466024,0.730377 0.181541,0.228792 0.389408,0.441704 0.621367,0.634993 l 9.884628,8.233103 -9.884628,8.233103 c -0.231978,0.193254 -0.439751,0.4063 -0.621367,0.634992 -0.181614,0.228691 -0.338295,0.472266 -0.468749,0.727652 -0.130454,0.255387 -0.234911,0.522444 -0.313408,0.795786 -0.0785,0.27334 -0.129599,0.554109 -0.155343,0.836663 -0.02574,0.282554 -0.02508,0.567265 0.0027,0.850291 0.02781,0.283025 0.08137,0.564633 0.163518,0.839389 0.08215,0.274756 0.192462,0.540766 0.32976,0.79851 0.137299,0.257746 0.302766,0.506561 0.496004,0.738554 h 0.0027 c 0.193272,0.231984 0.406288,0.439746 0.634992,0.621367 0.228705,0.18162 0.472257,0.335563 0.727652,0.466024 0.255397,0.130461 0.522441,0.234906 0.795786,0.313408 0.273344,0.0785 0.554111,0.132321 0.836663,0.158066 0.282554,0.02575 0.567271,0.02508 0.850291,-0.0027 0.283021,-0.02781 0.564643,-0.08408 0.83939,-0.166241 0.274747,-0.08216 0.543502,-0.189727 0.801236,-0.327035 0.257732,-0.137308 0.503852,-0.302748 0.735827,-0.496004 l 4.382267,-3.649163 v 14.209663 c 0,0.215093 0.01574,0.428575 0.04633,0.637719 0.03059,0.209144 0.07685,0.412768 0.136266,0.61319 0.05941,0.200423 0.131543,0.397009 0.218023,0.585938 0.08648,0.188927 0.185276,0.370397 0.297056,0.545058 0.111781,0.174662 0.238045,0.343832 0.373366,0.501454 0.135319,0.157621 0.281673,0.303687 0.438771,0.441496 0.157097,0.137809 0.324341,0.266317 0.501454,0.38154 0.177113,0.115224 0.363318,0.218093 0.558683,0.307959 0.195384,0.08987 0.396736,0.163936 0.599565,0.223474 0.202828,0.05954 0.40619,0.103875 0.61319,0.133539 0.207,0.02966 0.416195,0.04608 0.624091,0.04633 0.207897,2.48e-4 0.415846,-0.0149 0.621367,-0.0436 0.20552,-0.02871 0.407868,-0.07089 0.607739,-0.128089 0.19987,-0.0572 0.397717,-0.13006 0.588663,-0.215298 0.190947,-0.08524 0.374485,-0.184243 0.553234,-0.297056 0.178748,-0.112814 0.351803,-0.238886 0.51508,-0.378816 l 16.27816,-13.953487 c 0.12329,-0.105714 0.238934,-0.217826 0.348837,-0.33521 0.109902,-0.117384 0.214786,-0.240172 0.310683,-0.367915 0.09589,-0.127742 0.183081,-0.2611 0.264353,-0.397892 0.08127,-0.136791 0.154718,-0.27789 0.220748,-0.42242 0.06603,-0.144529 0.124248,-0.29054 0.174419,-0.441497 0.05017,-0.150957 0.09439,-0.3045 0.128089,-0.460574 0.0337,-0.156074 0.05698,-0.31432 0.07358,-0.474201 0.0166,-0.15988 0.02564,-0.322725 0.02453,-0.485101 -0.0011,-0.16247 -0.0112,-0.322609 -0.02998,-0.482376 -0.01878,-0.159768 -0.04594,-0.318455 -0.08176,-0.474201 -0.03582,-0.155746 -0.08131,-0.310167 -0.133539,-0.460574 -0.05223,-0.150408 -0.111862,-0.297745 -0.179869,-0.441497 -0.06801,-0.143752 -0.143053,-0.283917 -0.2262,-0.419694 -0.08315,-0.135779 -0.174876,-0.265955 -0.272528,-0.392442 -0.09765,-0.126489 -0.201888,-0.249311 -0.313408,-0.365189 -0.111522,-0.11588 -0.229532,-0.225807 -0.354289,-0.32976 l -9.876452,-8.230378 9.876452,-8.227651 c 0.124747,-0.103954 0.242788,-0.213939 0.354289,-0.32976 0.111501,-0.115823 0.215781,-0.236078 0.313408,-0.362464 0.09763,-0.126387 0.189406,-0.25952 0.272528,-0.395167 0.08312,-0.135648 0.158209,-0.276091 0.2262,-0.419695 0.06799,-0.143605 0.12764,-0.288515 0.179869,-0.438771 0.05223,-0.150258 0.0977,-0.304968 0.133539,-0.460576 0.03584,-0.155606 0.06294,-0.314548 0.08176,-0.474199 0.01882,-0.159653 0.02881,-0.319983 0.02998,-0.482378 0.0012,-0.162417 -0.0053,-0.322472 -0.0218,-0.482376 -0.01651,-0.159903 -0.04273,-0.320842 -0.07631,-0.476926 -0.03358,-0.156082 -0.07533,-0.309619 -0.125364,-0.460574 -0.05003,-0.150954 -0.108533,-0.296976 -0.174418,-0.441497 -0.06589,-0.144519 -0.139616,-0.285641 -0.220749,-0.422419 -0.08113,-0.136778 -0.168576,-0.270163 -0.264353,-0.397892 -0.09578,-0.12773 -0.200867,-0.250541 -0.310683,-0.367914 -0.109816,-0.117374 -0.225586,-0.2295 -0.348837,-0.335212 v -0.0027 L 32.543531,3.0655692 c -0.163221,-0.14 -0.336372,-0.265737 -0.51508,-0.378815 -0.178707,-0.113079 -0.362325,-0.214221 -0.553234,-0.299782 -0.19091,-0.08556 -0.388833,-0.157848 -0.588663,-0.215299 -0.199829,-0.05745 -0.402274,-0.09935 -0.607739,-0.128088 -0.205466,-0.02875 -0.410986,-0.04387 -0.618641,-0.04361 z m 4.425872,14.0297958 5.017259,4.303233 -5.017259,4.177869 z m 0,23.46475 5.017259,4.180596 -5.017259,4.297782 z" /></svg>
