<?xml version="1.0" encoding="UTF-8" standalone="no"?>
<svg
   width="64"
   height="64"
   version="1.1"
   viewBox="0 0 16.933 16.933"
   id="svg29"
   sodipodi:docname="empathy.svg"
   xml:space="preserve"
   inkscape:version="1.2.1 (9c6d41e410, 2022-07-14, custom)"
   xmlns:inkscape="http://www.inkscape.org/namespaces/inkscape"
   xmlns:sodipodi="http://sodipodi.sourceforge.net/DTD/sodipodi-0.dtd"
   xmlns:xlink="http://www.w3.org/1999/xlink"
   xmlns="http://www.w3.org/2000/svg"
   xmlns:svg="http://www.w3.org/2000/svg"
   xmlns:rdf="http://www.w3.org/1999/02/22-rdf-syntax-ns#"
   xmlns:cc="http://creativecommons.org/ns#"
   xmlns:dc="http://purl.org/dc/elements/1.1/"><sodipodi:namedview
     id="namedview31"
     pagecolor="#ffffff"
     bordercolor="#999999"
     borderopacity="1"
     inkscape:showpageshadow="0"
     inkscape:pageopacity="0"
     inkscape:pagecheckerboard="0"
     inkscape:deskcolor="#d1d1d1"
     showgrid="false"
     inkscape:zoom="11.313709"
     inkscape:cx="25.279067"
     inkscape:cy="31.775611"
     inkscape:window-width="1920"
     inkscape:window-height="1005"
     inkscape:window-x="0"
     inkscape:window-y="0"
     inkscape:window-maximized="1"
     inkscape:current-layer="svg29" /><metadata
     id="metadata2"><rdf:RDF><cc:Work
         rdf:about=""><dc:format>image/svg+xml</dc:format><dc:type
           rdf:resource="http://purl.org/dc/dcmitype/StillImage" /></cc:Work></rdf:RDF></metadata><defs
     id="defs11"><linearGradient
       inkscape:collect="always"
       id="linearGradient1913"><stop
         style="stop-color:#1f81fb;stop-opacity:1"
         offset="0"
         id="stop1909" /><stop
         style="stop-color:#228af4;stop-opacity:1"
         offset="1"
         id="stop1911" /></linearGradient><style
       type="text/css"
       id="style4" /><linearGradient
       id="linearGradient2448"
       x1="71.441"
       x2="110"
       y1="266.25"
       y2="319"
       gradientUnits="userSpaceOnUse"><stop
         stop-color="#28c3fa"
         offset="0"
         id="stop6" /><stop
         stop-color="#0a78c8"
         offset="1"
         id="stop8" /></linearGradient><linearGradient
       inkscape:collect="always"
       xlink:href="#linearGradient1913"
       id="linearGradient1915"
       x1="6.6697458"
       y1="-13.139492"
       x2="39.707389"
       y2="-13.139492"
       gradientUnits="userSpaceOnUse"
       gradientTransform="matrix(0.48050301,0,0,0.48050301,-2.6756753,14.780062)" /></defs><path
     id="rect448"
     style="opacity:1;fill:url(#linearGradient1915);fill-opacity:1;fill-rule:evenodd;stroke-width:0.0203962;stroke-linecap:round;stroke-linejoin:round;paint-order:stroke fill markers"
     d="m 4.5437034,3.2146549 c -2.2240548,0 -4.01454568,1.7904916 -4.01454568,4.0145455 0,2.2240559 1.79049088,4.0145466 4.01454568,4.0145466 H 7.6929172 V 8.0657299 h -2.325099 c -0.4634653,0 -0.8365296,-0.3730632 -0.8365296,-0.8365295 0,-0.4634653 0.3730643,-0.8365285 0.8365296,-0.8365285 h 2.325099 v -3.178017 z m 4.8222718,0 v 3.178017 h 2.3248518 c 0.463465,0 0.836778,0.3730632 0.836778,0.8365285 0,0.4634663 -0.373313,0.8365295 -0.836778,0.8365295 H 9.3659752 v 3.1780171 l 5.5060958,2.413992 c 0.203787,0.08813 0.382079,0.09106 0.503061,-0.06456 0.121062,-0.155662 0.0686,-0.357252 -0.06531,-0.496605 l -1.839668,-1.998826 h -7.44e-4 c 1.696102,-0.469475 2.934432,-2.0190097 2.934432,-3.8685446 0,-2.2240537 -1.790491,-4.0145455 -4.014545,-4.0145455 z" /></svg>
