<?xml version="1.0" encoding="UTF-8" standalone="no"?>
<svg
   width="64"
   height="64"
   version="1.1"
   viewBox="0 0 64 64"
   id="svg6"
   sodipodi:docname="GDevelop.svg"
   inkscape:version="1.2.1 (9c6d41e410, 2022-07-14, custom)"
   xmlns:inkscape="http://www.inkscape.org/namespaces/inkscape"
   xmlns:sodipodi="http://sodipodi.sourceforge.net/DTD/sodipodi-0.dtd"
   xmlns:xlink="http://www.w3.org/1999/xlink"
   xmlns="http://www.w3.org/2000/svg"
   xmlns:svg="http://www.w3.org/2000/svg">
  <defs
     id="defs10">
    <linearGradient
       inkscape:collect="always"
       id="linearGradient1279">
      <stop
         style="stop-color:#21d0ff;stop-opacity:1"
         offset="0"
         id="stop1275" />
      <stop
         style="stop-color:#088aff;stop-opacity:1"
         offset="1"
         id="stop1277" />
    </linearGradient>
    <linearGradient
       id="linearGradient21603"
       x1="132.03999"
       x2="182.59"
       y1="31.174999"
       y2="31.174999"
       gradientUnits="userSpaceOnUse"
       xlink:href="#linearGradient10697" />
    <linearGradient
       id="linearGradient10697">
      <stop
         stop-color="#0778ff"
         offset="0"
         id="stop239" />
      <stop
         stop-color="#09a3ff"
         offset="1"
         id="stop241" />
    </linearGradient>
    <linearGradient
       id="linearGradient21605"
       x1="132.03999"
       x2="187.28"
       y1="31.174999"
       y2="31.174999"
       gradientUnits="userSpaceOnUse"
       xlink:href="#linearGradient10697" />
    <linearGradient
       id="linearGradient897"
       x1="159.59"
       x2="183.27"
       y1="30.030001"
       y2="28.386999"
       gradientUnits="userSpaceOnUse"
       xlink:href="#linearGradient21607" />
    <linearGradient
       id="linearGradient21607"
       x1="159.59"
       x2="183.27"
       y1="30.030001"
       y2="28.386999"
       gradientUnits="userSpaceOnUse">
      <stop
         stop-color="#21d0ff"
         offset="0"
         id="stop246" />
      <stop
         stop-color="#099eff"
         offset="1"
         id="stop248" />
    </linearGradient>
    <linearGradient
       inkscape:collect="always"
       xlink:href="#linearGradient1279"
       id="linearGradient1281"
       x1="32"
       y1="8.3085938"
       x2="32"
       y2="55.515312"
       gradientUnits="userSpaceOnUse" />
  </defs>
  <sodipodi:namedview
     id="namedview8"
     pagecolor="#ffffff"
     bordercolor="#999999"
     borderopacity="1"
     inkscape:showpageshadow="0"
     inkscape:pageopacity="0"
     inkscape:pagecheckerboard="0"
     inkscape:deskcolor="#d1d1d1"
     showgrid="false"
     inkscape:zoom="6.640625"
     inkscape:cx="40.809412"
     inkscape:cy="40.432941"
     inkscape:window-width="1920"
     inkscape:window-height="1005"
     inkscape:window-x="0"
     inkscape:window-y="0"
     inkscape:window-maximized="1"
     inkscape:current-layer="svg6" />
  <path
     id="path2"
     d="M 36.306641 8.3085938 C 21.230656 8.3085938 16.923828 15.397473 16.923828 25.539062 C 16.923828 27.219061 17.056526 28.80473 17.322266 30.298828 C 18.660764 37.824321 23.728453 42.769531 36.306641 42.769531 C 40.614036 42.769531 44.273438 41.691406 44.273438 41.691406 L 47.767578 30.298828 L 49.228516 25.539062 C 50.240815 22.241666 50.765468 21.230469 47.076172 21.230469 L 33.076172 21.230469 C 31.286374 21.230469 29.845703 22.673092 29.845703 24.462891 C 29.845703 26.252689 31.286374 27.693359 33.076172 27.693359 L 40.025391 27.693359 L 39.316406 30.298828 L 37.708984 36.197266 C 37.708984 36.197266 37.292863 36.308594 36.308594 36.308594 C 29.043301 36.308594 25.409921 34.347524 24.044922 30.298828 C 23.589202 28.946629 23.386719 27.362261 23.386719 25.539062 C 23.386719 18.25727 26.616703 14.769531 36.308594 14.769531 L 60 14.769531 L 57.845703 8.3085938 L 36.308594 8.3085938 L 36.306641 8.3085938 z M 4 21.230469 L 4 27.693359 C 4 28.572878 4.0396981 29.440029 4.109375 30.298828 C 5.2646738 44.539814 15.993661 55.691406 36.306641 55.691406 C 49.228628 55.691406 55.691051 51.383669 59.998047 44.921875 L 51.167969 44.921875 C 47.937272 47.075573 44.921332 49.230469 36.306641 49.230469 C 22.349655 49.230469 12.09153 40.963917 10.644531 30.298828 C 10.528531 29.443809 10.460937 28.576258 10.460938 27.693359 L 10.460938 21.232422 L 4 21.230469 z "
     style="fill:url(#linearGradient1281);fill-opacity:1" />
</svg>
