<?xml version="1.0" encoding="UTF-8" standalone="no"?>
<svg
   width="64"
   height="64"
   version="1.1"
   viewBox="0 0 16.933 16.933"
   id="svg45"
   sodipodi:docname="gnome-glines.svg"
   inkscape:version="1.2.1 (9c6d41e410, 2022-07-14, custom)"
   xmlns:inkscape="http://www.inkscape.org/namespaces/inkscape"
   xmlns:sodipodi="http://sodipodi.sourceforge.net/DTD/sodipodi-0.dtd"
   xmlns:xlink="http://www.w3.org/1999/xlink"
   xmlns="http://www.w3.org/2000/svg"
   xmlns:svg="http://www.w3.org/2000/svg"
   xmlns:rdf="http://www.w3.org/1999/02/22-rdf-syntax-ns#"
   xmlns:cc="http://creativecommons.org/ns#"
   xmlns:dc="http://purl.org/dc/elements/1.1/">
  <sodipodi:namedview
     id="namedview47"
     pagecolor="#ffffff"
     bordercolor="#999999"
     borderopacity="1"
     inkscape:showpageshadow="0"
     inkscape:pageopacity="0"
     inkscape:pagecheckerboard="0"
     inkscape:deskcolor="#d1d1d1"
     showgrid="false"
     inkscape:zoom="4.695631"
     inkscape:cx="-14.268583"
     inkscape:cy="30.986251"
     inkscape:window-width="1920"
     inkscape:window-height="1005"
     inkscape:window-x="0"
     inkscape:window-y="0"
     inkscape:window-maximized="1"
     inkscape:current-layer="svg45" />
  <metadata
     id="metadata2">
    <rdf:RDF>
      <cc:Work
         rdf:about="">
        <dc:format>image/svg+xml</dc:format>
        <dc:type
           rdf:resource="http://purl.org/dc/dcmitype/StillImage" />
      </cc:Work>
    </rdf:RDF>
  </metadata>
  <defs
     id="defs11">
    <linearGradient
       inkscape:collect="always"
       id="linearGradient1001">
      <stop
         style="stop-color:#00c5c4;stop-opacity:1"
         offset="0"
         id="stop997" />
      <stop
         style="stop-color:#00a499;stop-opacity:1"
         offset="0.49897131"
         id="stop2656" />
      <stop
         style="stop-color:#00b4af;stop-opacity:1"
         offset="1"
         id="stop999" />
    </linearGradient>
    <linearGradient
       id="linearGradient1394"
       x1="-9.4731"
       x2="-9.4731"
       y1="16.326"
       y2=".57806"
       gradientTransform="translate(-3.131308)"
       gradientUnits="userSpaceOnUse">
      <stop
         stop-color="#00b5b0"
         offset="0"
         id="stop4" />
      <stop
         stop-color="#00a398"
         offset=".48133"
         id="stop6" />
      <stop
         stop-color="#00c6c5"
         offset="1"
         id="stop8" />
    </linearGradient>
    <linearGradient
       inkscape:collect="always"
       xlink:href="#linearGradient1001"
       id="linearGradient1003"
       x1="8.4360113"
       y1="0.92602342"
       x2="8.4360113"
       y2="16.006977"
       gradientUnits="userSpaceOnUse" />
  </defs>
  <g
     fill="#5e4aa6"
     stroke-width=".26458"
     id="g21">
    <circle
       cx="-356.16"
       cy="-328.33"
       r="0"
       id="circle15" />
    <circle
       cx="-65.244"
       cy="6.4929"
       r="0"
       fill-rule="evenodd"
       id="circle17" />
    <circle
       cx="-334.56"
       cy="-330.99"
       r="0"
       id="circle19" />
  </g>
  <path
     id="circle25"
     style="fill:url(#linearGradient1003);stroke-width:0.129741;stroke-linecap:round;fill-opacity:1"
     d="M 8.4360115 0.92602344 A 1.468088 1.468088 0 0 0 6.967913 2.394122 A 1.468088 1.468088 0 0 0 8.4360115 3.8622205 A 1.468088 1.468088 0 0 0 9.90411 2.394122 A 1.468088 1.468088 0 0 0 8.4360115 0.92602344 z M 5.4212678 3.9671216 A 1.468088 1.468088 0 0 0 3.9531693 5.4352202 A 1.468088 1.468088 0 0 0 5.4212678 6.9033187 A 1.468088 1.468088 0 0 0 6.8893663 5.4352202 A 1.468088 1.468088 0 0 0 5.4212678 3.9671216 z M 11.507081 3.9846913 A 1.468088 1.468088 0 0 0 10.038983 5.4527898 A 1.468088 1.468088 0 0 0 11.507081 6.9208883 A 1.468088 1.468088 0 0 0 12.97518 5.4527898 A 1.468088 1.468088 0 0 0 11.507081 3.9846913 z M 8.5068068 6.9730805 A 1.468088 1.468088 0 0 0 7.0387083 8.441179 A 1.468088 1.468088 0 0 0 8.5068068 9.9092776 A 1.468088 1.468088 0 0 0 9.9749054 8.441179 A 1.468088 1.468088 0 0 0 8.5068068 6.9730805 z M 2.396189 6.9916837 A 1.468088 1.468088 0 0 0 0.92809045 8.4597822 A 1.468088 1.468088 0 0 0 2.396189 9.9278807 A 1.468088 1.468088 0 0 0 3.8642875 8.4597822 A 1.468088 1.468088 0 0 0 2.396189 6.9916837 z M 14.536811 7.0505936 A 1.468088 1.468088 0 0 0 13.068712 8.5186922 A 1.468088 1.468088 0 0 0 14.536811 9.9867907 A 1.468088 1.468088 0 0 0 16.00491 8.5186922 A 1.468088 1.468088 0 0 0 14.536811 7.0505936 z M 5.4243683 10.032782 A 1.468088 1.468088 0 0 0 3.9562698 11.500364 A 1.468088 1.468088 0 0 0 5.4243683 12.968462 A 1.468088 1.468088 0 0 0 6.8924669 11.500364 A 1.468088 1.468088 0 0 0 5.4243683 10.032782 z M 11.468325 10.036916 A 1.468088 1.468088 0 0 0 10.000226 11.505014 A 1.468088 1.468088 0 0 0 11.468325 12.973113 A 1.468088 1.468088 0 0 0 12.936423 11.505014 A 1.468088 1.468088 0 0 0 11.468325 10.036916 z M 8.4773518 13.070779 A 1.468088 1.468088 0 0 0 7.0092533 14.538878 A 1.468088 1.468088 0 0 0 8.4773518 16.006977 A 1.468088 1.468088 0 0 0 9.9454504 14.538878 A 1.468088 1.468088 0 0 0 8.4773518 13.070779 z " />
  <g
     transform="matrix(1.3872135,0,0,1.3872135,28.40485,-6.2040428)"
     fill="#ffffff"
     stroke-linecap="round"
     stroke-width="0.093526"
     id="g985">
    <circle
       cx="-14.344"
       cy="-3.2714"
       r="1.0583"
       id="circle967" />
    <circle
       cx="-12.181"
       cy="-5.4257002"
       r="1.0583"
       opacity="0.9"
       id="circle969" />
    <circle
       cx="-16.566"
       cy="-1.0659"
       r="1.0583"
       opacity="0.9"
       id="circle971" />
    <circle
       cx="-16.568001"
       cy="-5.4382"
       r="1.0583"
       opacity="0.8"
       id="circle973" />
    <circle
       cx="-12.209"
       cy="-1.0628"
       r="1.0583"
       opacity="0.8"
       id="circle975" />
    <circle
       cx="-14.395"
       cy="-7.6304998"
       r="1.0583"
       opacity="0.5"
       id="circle977" />
    <circle
       cx="-18.749001"
       cy="-3.2578001"
       r="1.0583"
       opacity="0.5"
       id="circle979" />
    <circle
       cx="-9.9968996"
       cy="-3.2155001"
       r="1.0583"
       opacity="0.6"
       id="circle981" />
    <circle
       cx="-14.365"
       cy="1.1243"
       r="1.0583"
       opacity="0.6"
       id="circle983" />
  </g>
</svg>
