<?xml version="1.0" encoding="UTF-8" standalone="no"?>
<!-- Created with Inkscape (http://www.inkscape.org/) -->

<svg
   width="64"
   height="64"
   version="1.1"
   viewBox="0 0 16.933 16.933"
   id="svg78"
   sodipodi:docname="gnome-music.svg"
   xml:space="preserve"
   inkscape:version="1.2.1 (9c6d41e410, 2022-07-14, custom)"
   xmlns:inkscape="http://www.inkscape.org/namespaces/inkscape"
   xmlns:sodipodi="http://sodipodi.sourceforge.net/DTD/sodipodi-0.dtd"
   xmlns:xlink="http://www.w3.org/1999/xlink"
   xmlns="http://www.w3.org/2000/svg"
   xmlns:svg="http://www.w3.org/2000/svg"
   xmlns:rdf="http://www.w3.org/1999/02/22-rdf-syntax-ns#"
   xmlns:cc="http://creativecommons.org/ns#"
   xmlns:dc="http://purl.org/dc/elements/1.1/"><sodipodi:namedview
     id="namedview80"
     pagecolor="#ffffff"
     bordercolor="#999999"
     borderopacity="1"
     inkscape:showpageshadow="0"
     inkscape:pageopacity="0"
     inkscape:pagecheckerboard="0"
     inkscape:deskcolor="#d1d1d1"
     showgrid="false"
     inkscape:zoom="2.8284271"
     inkscape:cx="-52.679455"
     inkscape:cy="36.239222"
     inkscape:window-width="1920"
     inkscape:window-height="1005"
     inkscape:window-x="0"
     inkscape:window-y="0"
     inkscape:window-maximized="1"
     inkscape:current-layer="svg78" /><defs
     id="defs34"><linearGradient
       inkscape:collect="always"
       id="linearGradient74186"><stop
         style="stop-color:#663ef2;stop-opacity:1"
         offset="0"
         id="stop74182" /><stop
         style="stop-color:#6342ed;stop-opacity:0"
         offset="1"
         id="stop74184" /></linearGradient><linearGradient
       inkscape:collect="always"
       id="linearGradient66310"><stop
         style="stop-color:#bf4cfb;stop-opacity:1"
         offset="0"
         id="stop66306" /><stop
         style="stop-color:#b84bf4;stop-opacity:0"
         offset="1"
         id="stop66308" /></linearGradient><linearGradient
       inkscape:collect="always"
       id="linearGradient65058"><stop
         style="stop-color:#8bdaf6;stop-opacity:1"
         offset="0"
         id="stop65054" /><stop
         style="stop-color:#8adaf2;stop-opacity:0"
         offset="1"
         id="stop65056" /></linearGradient><linearGradient
       inkscape:collect="always"
       id="linearGradient51991"><stop
         style="stop-color:#0180fe;stop-opacity:0.00140465"
         offset="0"
         id="stop51987" /><stop
         style="stop-color:#147ce5;stop-opacity:1"
         offset="1"
         id="stop51989" /></linearGradient><linearGradient
       id="i"
       x1="400.4"
       x2="400.4"
       y1="545.62"
       y2="517.62"
       gradientTransform="matrix(.41967 0 0 .41967 -173.34 -178.23)"
       gradientUnits="userSpaceOnUse"><stop
         stop-color="#d3d3d3"
         offset="0"
         id="stop2" /><stop
         stop-color="#fcf9f9"
         offset="1"
         id="stop4" /></linearGradient><linearGradient
       id="f"
       x1="400.4"
       x2="400.4"
       y1="545.62"
       y2="517.62"
       gradientTransform="matrix(.43343 0 0 .43343 -193.09 -179.69)"
       gradientUnits="userSpaceOnUse"><stop
         stop-color="#8d3aff"
         offset="0"
         id="stop7" /><stop
         stop-color="#ff3680"
         offset="1"
         id="stop9" /></linearGradient><linearGradient
       id="linearGradient1634"
       x1="-54.828"
       x2="-63.444"
       y1="-1.7294"
       y2="-11.074"
       gradientTransform="matrix(1.0909,0,0,1.0909,61.281,70.76)"
       gradientUnits="userSpaceOnUse"><stop
         stop-color="#8f62bc"
         offset="0"
         id="stop12" /><stop
         stop-color="#f7904e"
         offset="1"
         id="stop14" /></linearGradient><linearGradient
       id="linearGradient987"
       x1="-54.828"
       x2="-63.444"
       y1="-1.7294"
       y2="-11.074"
       gradientTransform="matrix(3.4523,0,0,3.4523,191.99,263.05)"
       gradientUnits="userSpaceOnUse"><stop
         stop-color="#232223"
         offset="0"
         id="stop17" /><stop
         stop-color="#49484d"
         offset="1"
         id="stop19" /></linearGradient><linearGradient
       id="linearGradient1034"
       x1="-54.828"
       x2="-63.444"
       y1="-1.7294"
       y2="-11.074"
       gradientTransform="matrix(.3727 0 0 .3727 18.862 66.055)"
       gradientUnits="userSpaceOnUse"><stop
         stop-color="#d2d2d2"
         offset="0"
         id="stop22" /><stop
         stop-color="#fff"
         offset="1"
         id="stop24" /></linearGradient><linearGradient
       id="linearGradient1044"
       x1="-54.828"
       x2="-63.444"
       y1="-1.7294"
       y2="-11.074"
       gradientTransform="matrix(.14259 0 0 .14259 5.2712 64.548)"
       gradientUnits="userSpaceOnUse"><stop
         stop-color="#232223"
         offset="0"
         id="stop27" /><stop
         stop-color="#49484d"
         offset="1"
         id="stop29" /></linearGradient><linearGradient
       id="linearGradient963"
       x1="400.4"
       x2="400.4"
       y1="545.62"
       y2="517.62"
       gradientTransform="matrix(.41967 0 0 .41967 -173.34 -178.23)"
       gradientUnits="userSpaceOnUse"
       xlink:href="#i" /><linearGradient
       id="linearGradient965"
       x1="400.4"
       x2="400.4"
       y1="545.62"
       y2="517.62"
       gradientTransform="matrix(.43343 0 0 .43343 -193.09 -179.69)"
       gradientUnits="userSpaceOnUse"
       xlink:href="#f" /><linearGradient
       inkscape:collect="always"
       xlink:href="#linearGradient51991"
       id="linearGradient51993"
       x1="8.6838226"
       y1="8.6094522"
       x2="14.116112"
       y2="14.041741"
       gradientUnits="userSpaceOnUse" /><linearGradient
       inkscape:collect="always"
       xlink:href="#linearGradient65058"
       id="linearGradient64080"
       gradientUnits="userSpaceOnUse"
       x1="14.116112"
       y1="2.8912592"
       x2="8.8859653"
       y2="8.1214056" /><linearGradient
       inkscape:collect="always"
       xlink:href="#linearGradient66310"
       id="linearGradient65545"
       gradientUnits="userSpaceOnUse"
       x1="14.116112"
       y1="2.8912592"
       x2="8.8859653"
       y2="8.1214056"
       gradientTransform="rotate(180,8.4665004,8.4664993)" /><linearGradient
       inkscape:collect="always"
       xlink:href="#linearGradient74186"
       id="linearGradient72386"
       gradientUnits="userSpaceOnUse"
       x1="2.8912594"
       y1="2.8168886"
       x2="8.8903284"
       y2="8.815958" /><linearGradient
       inkscape:collect="always"
       xlink:href="#linearGradient74186"
       id="linearGradient94766"
       gradientUnits="userSpaceOnUse"
       x1="2.8912594"
       y1="2.8168886"
       x2="8.8903284"
       y2="8.815958"
       gradientTransform="translate(-26.889327)" /><linearGradient
       inkscape:collect="always"
       xlink:href="#linearGradient66310"
       id="linearGradient94768"
       gradientUnits="userSpaceOnUse"
       gradientTransform="translate(9.9563264,-16.932999)"
       x1="14.116112"
       y1="2.8912592"
       x2="8.8859653"
       y2="8.1214056" /><linearGradient
       inkscape:collect="always"
       xlink:href="#linearGradient65058"
       id="linearGradient94770"
       gradientUnits="userSpaceOnUse"
       x1="14.116112"
       y1="2.8912592"
       x2="8.8859653"
       y2="8.1214056"
       gradientTransform="translate(-26.889327)" /><linearGradient
       inkscape:collect="always"
       xlink:href="#linearGradient51991"
       id="linearGradient94772"
       gradientUnits="userSpaceOnUse"
       x1="8.6838226"
       y1="8.6094522"
       x2="14.116112"
       y2="14.041741"
       gradientTransform="translate(-26.889327)" /></defs><metadata
     id="metadata36"><rdf:RDF><cc:Work
         rdf:about=""><dc:format>image/svg+xml</dc:format><dc:type
           rdf:resource="http://purl.org/dc/dcmitype/StillImage" /></cc:Work></rdf:RDF></metadata><path
     id="circle75706"
     style="opacity:1;fill:#8bdbf6;fill-opacity:1;fill-rule:evenodd;stroke-width:0.0759857;stroke-linecap:round;stroke-linejoin:round;stroke-dasharray:none;paint-order:stroke fill markers"
     d="M 8.4665 0.52915625 A 7.9373436 7.9373436 0 0 0 0.52915625 8.4665 A 7.9373436 7.9373436 0 0 0 8.4665 16.403844 A 7.9373436 7.9373436 0 0 0 16.403844 8.4665 A 7.9373436 7.9373436 0 0 0 8.4665 0.52915625 z M 8.4665 5.8207187 A 2.6457813 2.6457813 0 0 1 11.112281 8.4665 A 2.6457813 2.6457813 0 0 1 8.4665 11.112281 A 2.6457813 2.6457813 0 0 1 5.8207187 8.4665 A 2.6457813 2.6457813 0 0 1 8.4665 5.8207187 z " /><path
     id="path38096"
     style="opacity:1;fill:url(#linearGradient51993);fill-opacity:1;fill-rule:evenodd;stroke-width:0.0759857;stroke-linecap:round;stroke-linejoin:round;stroke-dasharray:none;paint-order:stroke fill markers"
     d="M 8.4664995,0.52915613 A 7.9373436,7.9373436 0 0 0 0.5291565,8.4664999 7.9373436,7.9373436 0 0 0 8.4664995,16.403844 7.9373436,7.9373436 0 0 0 16.403843,8.4664999 7.9373436,7.9373436 0 0 0 8.4664995,0.52915613 Z m 0,5.29156247 A 2.6457813,2.6457813 0 0 1 11.11228,8.4664999 2.6457813,2.6457813 0 0 1 8.4664995,11.112281 2.6457813,2.6457813 0 0 1 5.8207185,8.4664999 2.6457813,2.6457813 0 0 1 8.4664995,5.8207186 Z" /><g
     transform="translate(-21.834 .89695)"
     fill="#5e4aa6"
     stroke-width=".26458"
     id="g46"><circle
       cx="-330.35"
       cy="-328.38"
       r="0"
       id="circle38" /><circle
       cx="-312.11"
       cy="-326.25"
       r="0"
       id="circle40" /><circle
       cx="-306.02"
       cy="-333.07"
       r="0"
       id="circle42" /><circle
       cx="-308.84"
       cy="-326.01"
       r="0"
       id="circle44" /></g><circle
     cx="-5.2346"
     cy="44.956"
     r="0"
     fill="url(#i)"
     image-rendering="optimizeSpeed"
     stroke-width=".26458"
     id="circle48" /><circle
     cx="-19.466"
     cy="50.818"
     r="0"
     fill="none"
     image-rendering="optimizeSpeed"
     stroke="url(#f)"
     stroke-width=".56347"
     id="circle50" /><path
     id="circle64076"
     style="opacity:1;fill:url(#linearGradient64080);fill-opacity:1;fill-rule:evenodd;stroke-width:0.0759857;stroke-linecap:round;stroke-linejoin:round;stroke-dasharray:none;paint-order:stroke fill markers"
     d="M 8.4664997,0.52915612 A 7.9373436,7.9373436 0 0 0 0.52915625,8.4664999 7.9373436,7.9373436 0 0 0 8.4664997,16.403844 7.9373436,7.9373436 0 0 0 16.403844,8.4664999 7.9373436,7.9373436 0 0 0 8.4664997,0.52915612 Z m 0,5.29156248 A 2.6457813,2.6457813 0 0 1 11.112281,8.4664999 2.6457813,2.6457813 0 0 1 8.4664997,11.112281 2.6457813,2.6457813 0 0 1 5.8207182,8.4664999 2.6457813,2.6457813 0 0 1 8.4664997,5.8207186 Z" /><path
     id="circle65543"
     style="opacity:1;fill:url(#linearGradient65545);fill-opacity:1;fill-rule:evenodd;stroke-width:0.0759857;stroke-linecap:round;stroke-linejoin:round;stroke-dasharray:none;paint-order:stroke fill markers"
     d="M 8.4664999,0.5291565 A 7.9373436,7.9373436 0 0 0 0.52915612,8.4664995 7.9373436,7.9373436 0 0 0 8.4664999,16.403843 7.9373436,7.9373436 0 0 0 16.403844,8.4664995 7.9373436,7.9373436 0 0 0 8.4664999,0.5291565 Z m 0,5.291562 A 2.6457813,2.6457813 0 0 1 11.112281,8.4664995 2.6457813,2.6457813 0 0 1 8.4664999,11.112281 2.6457813,2.6457813 0 0 1 5.8207186,8.4664995 2.6457813,2.6457813 0 0 1 8.4664999,5.8207185 Z" /><path
     id="circle72384"
     style="opacity:1;fill:url(#linearGradient72386);fill-opacity:1;fill-rule:evenodd;stroke-width:0.0759857;stroke-linecap:round;stroke-linejoin:round;stroke-dasharray:none;paint-order:stroke fill markers"
     d="M 8.4664999,0.52915615 A 7.9373436,7.9373436 0 0 0 0.52915612,8.4664998 7.9373436,7.9373436 0 0 0 8.4664999,16.403844 7.9373436,7.9373436 0 0 0 16.403844,8.4664998 7.9373436,7.9373436 0 0 0 8.4664999,0.52915615 Z m 0,5.29156195 A 2.6457813,2.6457813 0 0 1 11.112281,8.4664998 2.6457813,2.6457813 0 0 1 8.4664999,11.112281 2.6457813,2.6457813 0 0 1 5.8207186,8.4664998 2.6457813,2.6457813 0 0 1 8.4664999,5.8207181 Z" /><circle
     style="opacity:1;fill:#8bdbf6;fill-opacity:1;fill-rule:evenodd;stroke-width:0.0759857;stroke-linecap:round;stroke-linejoin:round;stroke-dasharray:none;paint-order:stroke fill markers"
     id="circle94754"
     cx="-18.422827"
     cy="8.4665003"
     r="7.9373436" /><circle
     style="opacity:1;fill:url(#linearGradient94772);fill-opacity:1;fill-rule:evenodd;stroke-width:0.0759857;stroke-linecap:round;stroke-linejoin:round;stroke-dasharray:none;paint-order:stroke fill markers"
     id="circle94756"
     cx="-18.422827"
     cy="8.4665003"
     r="7.9373436" /><circle
     style="opacity:1;fill:url(#linearGradient94770);fill-opacity:1;fill-rule:evenodd;stroke-width:0.0759857;stroke-linecap:round;stroke-linejoin:round;stroke-dasharray:none;paint-order:stroke fill markers"
     id="circle94758"
     cx="-18.422827"
     cy="8.4665003"
     r="7.9373436" /><circle
     style="opacity:1;fill:url(#linearGradient94768);fill-opacity:1;fill-rule:evenodd;stroke-width:0.0759857;stroke-linecap:round;stroke-linejoin:round;stroke-dasharray:none;paint-order:stroke fill markers"
     id="circle94760"
     cx="18.422827"
     cy="-8.4665003"
     r="7.9373436"
     transform="scale(-1)" /><circle
     style="opacity:1;fill:url(#linearGradient94766);fill-opacity:1;fill-rule:evenodd;stroke-width:0.0759857;stroke-linecap:round;stroke-linejoin:round;stroke-dasharray:none;paint-order:stroke fill markers"
     id="circle94762"
     cx="-18.422827"
     cy="8.4665003"
     r="7.9373436" /><circle
     style="opacity:1;fill:#000000;fill-opacity:1;fill-rule:evenodd;stroke-width:0.0253286;stroke-linecap:round;stroke-linejoin:round;stroke-dasharray:none;paint-order:stroke fill markers"
     id="circle94764"
     cx="-18.422827"
     cy="8.4665003"
     r="2.6457813" /></svg>
