<?xml version="1.0" encoding="UTF-8" standalone="no"?>
<svg
   width="64"
   height="64"
   viewBox="0 0 64 64"
   version="1.1"
   id="svg28"
   sodipodi:docname="gnome-tweak-tool.svg"
   xml:space="preserve"
   inkscape:version="1.2.2 (b0a8486541, 2022-12-01)"
   xmlns:inkscape="http://www.inkscape.org/namespaces/inkscape"
   xmlns:sodipodi="http://sodipodi.sourceforge.net/DTD/sodipodi-0.dtd"
   xmlns:xlink="http://www.w3.org/1999/xlink"
   xmlns="http://www.w3.org/2000/svg"
   xmlns:svg="http://www.w3.org/2000/svg"><sodipodi:namedview
     id="namedview30"
     pagecolor="#ffffff"
     bordercolor="#999999"
     borderopacity="1"
     inkscape:showpageshadow="0"
     inkscape:pageopacity="0"
     inkscape:pagecheckerboard="0"
     inkscape:deskcolor="#d1d1d1"
     showgrid="false"
     inkscape:zoom="1.6601563"
     inkscape:cx="-181.30824"
     inkscape:cy="-25.901176"
     inkscape:window-width="1920"
     inkscape:window-height="1000"
     inkscape:window-x="0"
     inkscape:window-y="0"
     inkscape:window-maximized="1"
     inkscape:current-layer="svg28" /><defs
     id="defs19"><linearGradient
       inkscape:collect="always"
       id="linearGradient1015"><stop
         style="stop-color:#264ff9;stop-opacity:1"
         offset="0"
         id="stop1011" /><stop
         style="stop-color:#66e9fe;stop-opacity:1"
         offset="1"
         id="stop1013" /></linearGradient><linearGradient
       id="linear0"
       gradientUnits="userSpaceOnUse"
       x1="9.7297"
       y1="24.2703"
       x2="22.354"
       y2="11.646"
       gradientTransform="matrix(2,0,0,-2,0,68)"><stop
         offset="0.2961"
         style="stop-color:rgb(7.058824%,28.235294%,53.72549%);stop-opacity:1;"
         id="stop2" /><stop
         offset="0.7933"
         style="stop-color:rgb(10.196078%,23.921569%,45.490196%);stop-opacity:1;"
         id="stop4" /></linearGradient><linearGradient
       id="linear1"
       gradientUnits="userSpaceOnUse"
       x1="10.3857"
       y1="23.6143"
       x2="20.2343"
       y2="13.7657"
       gradientTransform="matrix(2,0,0,-2,0,68)"><stop
         offset="0"
         style="stop-color:rgb(100%,100%,100%);stop-opacity:1;"
         id="stop7" /><stop
         offset="0.242"
         style="stop-color:rgb(94.901961%,94.901961%,94.901961%);stop-opacity:1;"
         id="stop9" /><stop
         offset="1"
         style="stop-color:rgb(80%,80%,80%);stop-opacity:1;"
         id="stop11" /></linearGradient><linearGradient
       id="linear2"
       gradientUnits="userSpaceOnUse"
       x1="1.1849"
       y1="32.7367"
       x2="27.1727"
       y2="6.749"
       gradientTransform="matrix(2,0,0,-2,0,68)"><stop
         offset="0.1453"
         style="stop-color:rgb(54.117647%,56.862745%,59.607843%);stop-opacity:1;"
         id="stop14" /><stop
         offset="0.8939"
         style="stop-color:rgb(38.823529%,43.921569%,48.235294%);stop-opacity:1;"
         id="stop16" /></linearGradient><linearGradient
       inkscape:collect="always"
       xlink:href="#linearGradient1015"
       id="linearGradient1017"
       x1="-151.90347"
       y1="32.872383"
       x2="-99.945808"
       y2="-17.583902"
       gradientUnits="userSpaceOnUse"
       gradientTransform="matrix(0.75441721,0,0,0.75441721,127.7942,27.239745)" /><linearGradient
       inkscape:collect="always"
       xlink:href="#linearGradient1015"
       id="linearGradient4962"
       gradientUnits="userSpaceOnUse"
       x1="-145.65773"
       y1="6.3087821"
       x2="-108.29882"
       y2="6.3087821"
       gradientTransform="translate(0,-97.631182)" /></defs><path
     id="path377"
     style="opacity:1;fill:url(#linearGradient1017);fill-opacity:1;fill-rule:evenodd;stroke-width:1.03025;stroke-linecap:round;stroke-linejoin:round;paint-order:stroke fill markers"
     d="m 32.366314,2.002132 c -0.819539,-0.0097 -1.63692,0.013678 -2.448906,0.070727 -9.743857,0.6845925 -18.811945,6.1165707 -23.8982336,14.926262 -5.61876357,9.732 -5.23303757,21.609984 0.5171907,30.853012 a 7.3043086,7.3043086 0 0 0 -0.81041,3.307942 7.3043086,7.3043086 0 0 0 7.3039959,7.303997 7.3043086,7.3043086 0 0 0 7.303997,-7.303997 7.3043086,7.3043086 0 0 0 -7.303997,-7.303996 7.3043086,7.3043086 0 0 0 -1.604608,0.197445 C 7.1620788,36.788733 6.9828142,27.641738 11.350196,20.077202 16.753536,10.718335 27.731861,6.1702532 38.170317,8.9672301 A 3.078256,3.078256 0 0 0 41.940932,6.790913 3.078256,3.078256 0 0 0 39.764612,3.0217744 C 37.308131,2.3635613 34.824929,2.0312322 32.366314,2.002132 Z m 18.876642,3.4022451 a 7.3043086,7.3043086 0 0 0 -7.303995,7.3039959 7.3043086,7.3043086 0 0 0 7.303995,7.303996 7.3043086,7.3043086 0 0 0 1.296653,-0.129666 c 4.298712,7.274421 4.488977,16.451929 0.109036,24.038209 -5.403338,9.358867 -16.381662,13.906948 -26.820118,11.109972 a 3.078256,3.078256 0 0 0 -3.770615,2.176316 3.078256,3.078256 0 0 0 2.17632,3.770613 c 13.101239,3.510468 26.965202,-2.232564 33.746906,-13.97882 5.583239,-9.670457 5.23708,-21.460134 -0.409625,-30.677668 A 7.3043086,7.3043086 0 0 0 58.546951,12.708373 7.3043086,7.3043086 0 0 0 51.242956,5.4043771 Z M 31.999418,17.906779 A 14.092102,14.092102 0 0 0 17.907146,31.999056 14.092102,14.092102 0 0 0 31.999418,46.091334 14.092102,14.092102 0 0 0 46.091698,31.999056 14.092102,14.092102 0 0 0 31.999418,17.906779 Z" /><circle
     style="opacity:1;fill:url(#linearGradient4962);fill-opacity:1;fill-rule:evenodd;stroke-width:1.36563;stroke-linecap:round;stroke-linejoin:round;paint-order:stroke fill markers"
     id="circle4952"
     cx="-126.97828"
     cy="-91.322403"
     r="18.679455" /><path
     style="opacity:1;fill:none;fill-rule:evenodd;stroke:#000000;stroke-width:8.16062;stroke-linecap:round;stroke-linejoin:round;stroke-dasharray:none;stroke-opacity:1;paint-order:stroke fill markers"
     id="path4954"
     sodipodi:type="arc"
     sodipodi:cx="-126.97828"
     sodipodi:cy="-91.322403"
     sodipodi:rx="35.68589"
     sodipodi:ry="35.68589"
     sodipodi:start="5.4977871"
     sodipodi:end="1.8325957"
     sodipodi:arc-type="arc"
     d="m -101.74455,-116.55614 a 35.68589,35.68589 0 0 1 5.671159,43.076681 35.68589,35.68589 0 0 1 -40.141079,16.626979"
     sodipodi:open="true" /><path
     style="opacity:1;fill:none;fill-rule:evenodd;stroke:#000000;stroke-width:8.16062;stroke-linecap:round;stroke-linejoin:round;stroke-dasharray:none;stroke-opacity:1;paint-order:stroke fill markers"
     id="path4956"
     sodipodi:type="arc"
     sodipodi:cx="-126.97828"
     sodipodi:cy="-91.322403"
     sodipodi:rx="35.68589"
     sodipodi:ry="35.68589"
     sodipodi:start="2.3561945"
     sodipodi:end="4.9741884"
     sodipodi:arc-type="arc"
     d="m -152.21201,-66.088668 a 35.68589,35.68589 0 0 1 -5.67116,-43.076682 35.68589,35.68589 0 0 1 40.14108,-16.62698"
     sodipodi:open="true" /><circle
     style="opacity:1;fill:#0764ab;fill-rule:evenodd;stroke-width:0.707843;stroke-linecap:round;stroke-linejoin:round;paint-order:stroke fill markers"
     id="circle4958"
     cx="-101.47102"
     cy="-116.89285"
     r="9.6820545" /><circle
     style="opacity:1;fill:#0764ab;fill-rule:evenodd;stroke-width:0.707843;stroke-linecap:round;stroke-linejoin:round;paint-order:stroke fill markers"
     id="circle4960"
     cx="-152.12311"
     cy="-65.924133"
     r="9.6820545" /></svg>
