<?xml version="1.0" encoding="UTF-8" standalone="no"?>
<svg
   width="64"
   height="64"
   version="1.1"
   id="svg58"
   sodipodi:docname="hwinfo.svg"
   xml:space="preserve"
   inkscape:version="1.2.2 (b0a8486541, 2022-12-01)"
   xmlns:inkscape="http://www.inkscape.org/namespaces/inkscape"
   xmlns:sodipodi="http://sodipodi.sourceforge.net/DTD/sodipodi-0.dtd"
   xmlns:xlink="http://www.w3.org/1999/xlink"
   xmlns="http://www.w3.org/2000/svg"
   xmlns:svg="http://www.w3.org/2000/svg"
   xmlns:rdf="http://www.w3.org/1999/02/22-rdf-syntax-ns#"
   xmlns:cc="http://creativecommons.org/ns#"
   xmlns:dc="http://purl.org/dc/elements/1.1/"><sodipodi:namedview
     id="namedview60"
     pagecolor="#ffffff"
     bordercolor="#999999"
     borderopacity="1"
     inkscape:showpageshadow="0"
     inkscape:pageopacity="0"
     inkscape:pagecheckerboard="0"
     inkscape:deskcolor="#d1d1d1"
     showgrid="false"
     inkscape:zoom="1.6601563"
     inkscape:cx="113.24235"
     inkscape:cy="-19.877647"
     inkscape:window-width="1920"
     inkscape:window-height="1000"
     inkscape:window-x="0"
     inkscape:window-y="0"
     inkscape:window-maximized="1"
     inkscape:current-layer="svg58" /><metadata
     id="metadata2"><rdf:RDF><cc:Work
         rdf:about=""><dc:format>image/svg+xml</dc:format><dc:type
           rdf:resource="http://purl.org/dc/dcmitype/StillImage" /></cc:Work></rdf:RDF></metadata><defs
     id="defs24"><linearGradient
       inkscape:collect="always"
       id="linearGradient1151"><stop
         style="stop-color:#1da444;stop-opacity:1"
         offset="0"
         id="stop1147" /><stop
         style="stop-color:#24b94d;stop-opacity:1"
         offset="1"
         id="stop1149" /></linearGradient><linearGradient
       id="c"
       x1="32"
       x2="32"
       y1="11"
       y2="53"
       gradientTransform="matrix(1.0131 0 0 1.0131 -.4209 -.45351)"
       gradientUnits="userSpaceOnUse"><stop
         stop-color="#dcdede"
         offset="0"
         id="stop4" /><stop
         stop-color="#939493"
         offset="1"
         id="stop6" /></linearGradient><linearGradient
       id="b"
       x1="8.4666"
       x2="8.4666"
       y1="284.83"
       y2="292.24"
       gradientTransform="matrix(3.8292 0 0 3.8292 -.4209 -1072.9)"
       gradientUnits="userSpaceOnUse"><stop
         stop-color="#4c5557"
         offset="0"
         id="stop9" /><stop
         stop-color="#282929"
         offset="1"
         id="stop11" /></linearGradient><linearGradient
       id="linearGradient957"
       x1="28.61"
       x2="28.61"
       y1="-2.8309"
       y2="67.173"
       gradientTransform="matrix(.91664 0 0 .91664 2.6667 2.6676)"
       gradientUnits="userSpaceOnUse"><stop
         stop-color="#20df5f"
         offset="0"
         id="stop14" /><stop
         stop-color="#298f38"
         offset="1"
         id="stop16" /></linearGradient><linearGradient
       id="linearGradient977"
       x1="30"
       x2="30"
       y1="10"
       y2="70"
       gradientTransform="matrix(1.1023 0 0 1.1023 -3.2445 -3.2717)"
       gradientUnits="userSpaceOnUse"><stop
         offset="0"
         id="stop19" /><stop
         stop-opacity=".35"
         offset="1"
         id="stop21" /></linearGradient><linearGradient
       inkscape:collect="always"
       xlink:href="#linearGradient1151"
       id="linearGradient1153"
       x1="129.23267"
       y1="28.217656"
       x2="201.38661"
       y2="28.217656"
       gradientUnits="userSpaceOnUse" /></defs><g
     transform="matrix(3.7796 0 0 3.7796 -151.13 -27.199)"
     fill="#5e4aa6"
     stroke-width=".26458"
     id="g56"><circle
       cx="-330.35"
       cy="-328.38"
       r="0"
       id="circle48" /><circle
       cx="-312.11"
       cy="-326.25"
       r="0"
       id="circle50" /><circle
       cx="-306.02"
       cy="-333.07"
       r="0"
       id="circle52" /><circle
       cx="-308.84"
       cy="-326.01"
       r="0"
       id="circle54" /></g><rect
     style="opacity:0.620308;fill:#00e6b5;fill-rule:evenodd;stroke-width:3.78022;stroke-linecap:round;stroke-linejoin:round;paint-order:stroke fill markers"
     id="rect1018"
     width="69.476212"
     height="7.0788231"
     x="130.57159"
     y="-32.472397"
     ry="3.5394115" /><rect
     style="opacity:0.620308;fill:none;fill-rule:evenodd;stroke:#000000;stroke-width:22.0596;stroke-linecap:round;stroke-linejoin:round;stroke-dasharray:none;stroke-opacity:1;paint-order:stroke fill markers"
     id="rect1020"
     width="67.416656"
     height="8.8748999"
     x="131.60136"
     y="-33.370438"
     ry="4.4374499" /><rect
     style="opacity:0.620308;fill:#00e6b5;fill-rule:evenodd;stroke-width:5.90998;stroke-linecap:round;stroke-linejoin:round;paint-order:stroke fill markers"
     id="rect1022"
     width="77.415421"
     height="15.527748"
     x="126.60197"
     y="-36.696861"
     ry="7.7638741" /><g
     id="g11647"
     transform="matrix(0.78997761,0,0,0.78997761,-98.590914,9.7086833)"><rect
       style="opacity:1;fill:#464e50;fill-opacity:1;fill-rule:evenodd;stroke-width:3.78022;stroke-linecap:round;stroke-linejoin:round;paint-order:stroke fill markers"
       id="rect407"
       width="69.476212"
       height="7.0788231"
       x="62.200562"
       y="133.30554"
       ry="3.5394115"
       transform="rotate(-45)" /><path
       id="rect460"
       style="color:#000000;opacity:1;fill:url(#linearGradient1153);fill-opacity:1;fill-rule:evenodd;stroke-linecap:round;stroke-linejoin:round;-inkscape-stroke:none;paint-order:stroke fill markers"
       d="m 144.61133,-7.859375 c -3.98764,3.465e-4 -7.97346,1.4812763 -10.93555,4.4433594 -5.92415,5.9241618 -5.92415,15.9488886 0,21.8730466 l 9.75977,9.759766 -9.75977,9.761719 c -5.92416,5.924164 -5.92378,15.948878 0,21.873046 5.92418,5.924169 15.94888,5.924166 21.87305,0 l 9.75976,-9.761718 9.76172,9.761718 c 5.92418,5.924161 15.9489,5.924164 21.87305,0 5.92415,-5.924162 5.92452,-15.948888 0,-21.873046 l -9.75977,-9.759766 9.75977,-9.761719 c 5.92415,-5.924164 5.92416,-15.9488789 0,-21.8730466 -2.96209,-2.962084 -6.94986,-4.443015 -10.9375,-4.4433594 -3.98764,-3.444e-4 -7.97541,1.4812778 -10.9375,4.4433594 l -9.75977,9.7597656 -9.75976,-9.7597656 c -2.96208,-2.9620792 -6.94989,-4.4437059 -10.9375,-4.4433594 z M 144,-0.86132812 c 1.98477,1.7e-7 3.96955,0.76055777 5.49023,2.28125002 l 10.3711,10.3710941 5.44726,5.447265 5.44922,-5.445312 10.3711,-10.3730471 c 3.04138,-3.0413875 7.93908,-3.0413889 10.98047,0 3.04138,3.0413888 3.04138,7.9371271 0,10.9785161 l -10.37305,10.373046 -5.44727,5.447266 5.44532,5.445312 10.37304,10.373047 c 3.0414,3.041385 3.0414,7.939083 0,10.980469 -3.04139,3.041386 -7.93714,3.041384 -10.97851,0 l -10.37305,-10.373047 -5.44727,-5.445312 -5.44531,5.445312 -10.37305,10.373047 c -3.04137,3.041387 -7.93711,3.041389 -10.97851,0 -3.04139,-3.041389 -3.04139,-7.939082 0,-10.980469 l 10.37109,-10.373047 5.44727,-5.445312 -5.44727,-5.447266 -10.37304,-10.373046 c -3.04139,-3.0413856 -3.04139,-7.9371304 0,-10.9785161 1.52068,-1.52069295 3.50546,-2.2812502 5.49023,-2.28125002 z" /><rect
       style="opacity:1;fill:#444b4d;fill-opacity:1;fill-rule:evenodd;stroke-width:2.35496;stroke-linecap:round;stroke-linejoin:round;paint-order:stroke fill markers"
       id="rect1032"
       width="26.962955"
       height="7.0788231"
       x="102.10652"
       y="-100.47751"
       ry="3.5394115"
       transform="rotate(45)" /><rect
       style="opacity:1;fill:#444b4d;fill-opacity:1;fill-rule:evenodd;stroke-width:2.35496;stroke-linecap:round;stroke-linejoin:round;paint-order:stroke fill markers"
       id="rect1122"
       width="26.962955"
       height="7.0788231"
       x="144.61978"
       y="-100.47751"
       ry="3.5394115"
       transform="rotate(45)" /></g></svg>
