<?xml version="1.0" encoding="UTF-8" standalone="no"?>
<svg
   width="64"
   height="64"
   version="1.1"
   viewBox="0 0 16.933 16.933"
   id="svg61"
   sodipodi:docname="ms-powerpoint.svg"
   xml:space="preserve"
   inkscape:version="1.2.2 (b0a8486541, 2022-12-01)"
   xmlns:inkscape="http://www.inkscape.org/namespaces/inkscape"
   xmlns:sodipodi="http://sodipodi.sourceforge.net/DTD/sodipodi-0.dtd"
   xmlns:xlink="http://www.w3.org/1999/xlink"
   xmlns="http://www.w3.org/2000/svg"
   xmlns:svg="http://www.w3.org/2000/svg"
   xmlns:rdf="http://www.w3.org/1999/02/22-rdf-syntax-ns#"
   xmlns:cc="http://creativecommons.org/ns#"
   xmlns:dc="http://purl.org/dc/elements/1.1/"><sodipodi:namedview
     id="namedview63"
     pagecolor="#ffffff"
     bordercolor="#999999"
     borderopacity="1"
     inkscape:showpageshadow="0"
     inkscape:pageopacity="0"
     inkscape:pagecheckerboard="0"
     inkscape:deskcolor="#d1d1d1"
     showgrid="false"
     inkscape:zoom="2.8284271"
     inkscape:cx="-43.84062"
     inkscape:cy="-15.202796"
     inkscape:window-width="1920"
     inkscape:window-height="1048"
     inkscape:window-x="0"
     inkscape:window-y="0"
     inkscape:window-maximized="1"
     inkscape:current-layer="svg61" /><defs
     id="defs39"><linearGradient
       id="linearGradient3031"
       x1="9.591"
       x2="16.867"
       y1="-16.139"
       y2="-8.8634"
       gradientTransform="translate(24.822691,24.606)"
       gradientUnits="userSpaceOnUse"
       xlink:href="#linearGradient5523" /><linearGradient
       id="linearGradient5523"><stop
         stop-color="#ba3921"
         offset="0"
         id="stop3" /><stop
         stop-color="#ed5630"
         offset="1"
         id="stop5" /></linearGradient><linearGradient
       id="linearGradient5525"
       x1="9.591"
       x2="16.867"
       y1="-16.139"
       y2="-8.8634"
       gradientTransform="translate(24.822681,24.606)"
       gradientUnits="userSpaceOnUse"
       xlink:href="#linearGradient5523" /><linearGradient
       id="linearGradient5509"
       x1="10.004"
       x2="15.368"
       y1="-16.552"
       y2="-21.916"
       gradientTransform="translate(24.822681,24.606)"
       gradientUnits="userSpaceOnUse"><stop
         stop-color="#ff9b73"
         offset="0"
         id="stop9" /><stop
         stop-color="#dc8c64"
         offset="1"
         id="stop11" /></linearGradient><linearGradient
       id="linearGradient5517"
       x1="2.3151"
       x2="9.5248"
       y1="-8.8634"
       y2="-16.139"
       gradientTransform="translate(24.822681,24.606)"
       gradientUnits="userSpaceOnUse"><stop
         stop-color="#dd4d2b"
         offset="0"
         id="stop14" /><stop
         stop-color="#bc3a22"
         offset="1"
         id="stop16" /></linearGradient><linearGradient
       id="linearGradient5501"
       x1="2.3812"
       x2="9.5248"
       y1="-23.283"
       y2="-16.139"
       gradientTransform="translate(24.822681,24.606)"
       gradientUnits="userSpaceOnUse"><stop
         stop-color="#aa5a41"
         offset="0"
         id="stop19" /><stop
         stop-color="#e17855"
         offset="1"
         id="stop21" /></linearGradient><linearGradient
       id="linearGradient7321"
       x1="3.8543"
       x2="15.186"
       y1="-11.827"
       y2="-11.827"
       gradientTransform="translate(24.822101,24.606)"
       gradientUnits="userSpaceOnUse"><stop
         stop-color="#9b321e"
         offset="0"
         id="stop24" /><stop
         stop-color="#f55532"
         offset="1"
         id="stop26" /></linearGradient><linearGradient
       id="linearGradient5461"
       x1="9.7894"
       x2="17.727"
       y1="-30.691"
       y2="-22.754"
       gradientTransform="translate(16.024671,35.189)"
       gradientUnits="userSpaceOnUse"><stop
         stop-color="#6d2618"
         offset="0"
         id="stop29" /><stop
         stop-color="#af3d20"
         offset="1"
         id="stop31" /></linearGradient><linearGradient
       id="linearGradient3018"
       x1="9.7529"
       x2="17.764"
       y1="-29.806"
       y2="-23.42"
       gradientTransform="translate(16.024671,35.189)"
       gradientUnits="userSpaceOnUse"><stop
         stop-color="#6e2313"
         offset="0"
         id="stop34" /><stop
         stop-color="#b74226"
         offset="1"
         id="stop36" /></linearGradient></defs><metadata
     id="metadata41"><rdf:RDF><cc:Work
         rdf:about=""><dc:format>image/svg+xml</dc:format><dc:type
           rdf:resource="http://purl.org/dc/dcmitype/StillImage" /></cc:Work></rdf:RDF></metadata><g
     id="g10214"
     transform="matrix(0.82405498,0,0,0.82405498,15.57349,3.256612)"><path
       id="rect710"
       style="opacity:1;fill:#f3966e;fill-opacity:1;fill-rule:evenodd;stroke-width:0.299337;stroke-linecap:round;stroke-linejoin:round;paint-order:stroke fill markers"
       d="m -16.614163,-2.8281955 2.985806,2.94136466 V 9.9888577 h 6.5855147 c 3.5503228,0 6.4082682,-2.8584621 6.4082682,-6.4087849 0,-3.55032297 -2.8579454,-6.4082683 -6.4082682,-6.4082683 z m 5.420751,5.74889 h 4.4895604 c 0.3319059,0 0.5989181,0.2675289 0.5989181,0.5994348 0,0.3319059 -0.2670122,0.598918 -0.5989181,0.598918 h -4.4895604 c -0.331906,0 -0.598918,-0.2670121 -0.598918,-0.598918 0,-0.3319059 0.267012,-0.5994348 0.598918,-0.5994348 z" /><path
       id="rect805"
       style="opacity:1;fill:#c16749;fill-opacity:1;fill-rule:evenodd;stroke-width:0.212074;stroke-linecap:round;stroke-linejoin:round;paint-order:stroke fill markers"
       d="m -13.628357,0 2.808042,2.9206945 h 4.1164634 c 0.3319059,0 0.5989181,0.2675289 0.5989181,0.5994348 0,0.3319059 -0.2670122,0.598918 -0.5989181,0.598918 h -4.1164634 l -2.808042,3.041615 h 6.374679 c 1.9834919,-3.9e-5 3.5800727,-1.5970976 3.5800727,-3.5805895 C -3.6736053,1.5965807 -5.2701861,0 -7.253678,0 Z" /><path
       style="fill:#f3966e;fill-opacity:1;stroke:none;stroke-width:0.264578px;stroke-linecap:butt;stroke-linejoin:miter;stroke-opacity:1"
       d="M -16.61409,-2.8281955 -13.628357,0 l 2.73e-4,12.486544 -2.986167,2.986167 z"
       id="path650"
       sodipodi:nodetypes="ccccc" /><path
       style="fill:#a2553f;fill-opacity:1;stroke:none;stroke-width:0.264578px;stroke-linecap:butt;stroke-linejoin:miter;stroke-opacity:1"
       d="m -13.628236,12.486519 2.903225,2.903224 V 9.9888554 L -13.628357,7.160635 Z"
       id="path652"
       sodipodi:nodetypes="ccccc" /><path
       style="fill:#a2553f;fill-opacity:1;stroke:none;stroke-width:0.264578px;stroke-linecap:butt;stroke-linejoin:miter;stroke-opacity:1"
       d="m -13.628357,0 2.808024,2.9208488 v 1.1981756 l -2.808024,3.0416106 z"
       id="path654"
       sodipodi:nodetypes="ccccc" /><path
       style="fill:#7a4030;fill-opacity:1;stroke:none;stroke-width:0.264578px;stroke-linecap:butt;stroke-linejoin:miter;stroke-opacity:1"
       d="m -13.628084,12.486544 -2.986167,2.986167 5.88924,-0.08297 z"
       id="path7663" /></g><g
     id="g10228"
     transform="matrix(0.82405498,0,0,0.82405498,15.57349,3.256612)"><path
       id="path10216"
       style="opacity:1;fill:#f3966e;fill-opacity:1;fill-rule:evenodd;stroke-width:0.299337;stroke-linecap:round;stroke-linejoin:round;paint-order:stroke fill markers"
       d="m -16.614163,-2.8281955 2.985806,2.94136466 V 9.9888577 h 6.5855147 c 3.5503228,0 6.4082682,-2.8584621 6.4082682,-6.4087849 0,-3.55032297 -2.8579454,-6.4082683 -6.4082682,-6.4082683 z m 5.420751,5.74889 h 4.4895604 c 0.3319059,0 0.5989181,0.2675289 0.5989181,0.5994348 0,0.3319059 -0.2670122,0.598918 -0.5989181,0.598918 h -4.4895604 c -0.331906,0 -0.598918,-0.2670121 -0.598918,-0.598918 0,-0.3319059 0.267012,-0.5994348 0.598918,-0.5994348 z" /><path
       id="path10218"
       style="opacity:1;fill:#c16749;fill-opacity:1;fill-rule:evenodd;stroke-width:0.212074;stroke-linecap:round;stroke-linejoin:round;paint-order:stroke fill markers"
       d="m -13.628357,0 2.808042,2.9206945 h 4.1164634 c 0.3319059,0 0.5989181,0.2675289 0.5989181,0.5994348 0,0.3319059 -0.2670122,0.598918 -0.5989181,0.598918 h -4.1164634 l -2.808042,3.041615 h 6.374679 c 1.9834919,-3.9e-5 3.5800727,-1.5970976 3.5800727,-3.5805895 C -3.6736053,1.5965807 -5.2701861,0 -7.253678,0 Z" /><path
       style="fill:#f3966e;fill-opacity:1;stroke:none;stroke-width:0.264578px;stroke-linecap:butt;stroke-linejoin:miter;stroke-opacity:1"
       d="M -16.61409,-2.8281955 -13.628357,0 l 2.73e-4,12.486544 -2.986167,2.986167 z"
       id="path10220"
       sodipodi:nodetypes="ccccc" /><path
       style="fill:#a2553f;fill-opacity:1;stroke:none;stroke-width:0.264578px;stroke-linecap:butt;stroke-linejoin:miter;stroke-opacity:1"
       d="m -13.628236,12.486519 2.903225,2.903224 V 9.9888554 L -13.628357,7.160635 Z"
       id="path10222"
       sodipodi:nodetypes="ccccc" /><path
       style="fill:#a2553f;fill-opacity:1;stroke:none;stroke-width:0.264578px;stroke-linecap:butt;stroke-linejoin:miter;stroke-opacity:1"
       d="m -13.628357,0 2.808024,2.9208488 v 1.1981756 l -2.808024,3.0416106 z"
       id="path10224"
       sodipodi:nodetypes="ccccc" /><path
       style="fill:#7a4030;fill-opacity:1;stroke:none;stroke-width:0.264578px;stroke-linecap:butt;stroke-linejoin:miter;stroke-opacity:1"
       d="m -13.628084,12.486544 -2.986167,2.986167 5.88924,-0.08297 z"
       id="path10226" /></g></svg>
