<?xml version="1.0" encoding="UTF-8" standalone="no"?>
<!-- Created with Inkscape (http://www.inkscape.org/) -->

<svg
   width="64"
   height="64"
   version="1.1"
   viewBox="0 0 16.933 16.933"
   id="svg50"
   sodipodi:docname="office-calendar.svg"
   xml:space="preserve"
   inkscape:version="1.2.2 (b0a8486541, 2022-12-01)"
   xmlns:inkscape="http://www.inkscape.org/namespaces/inkscape"
   xmlns:sodipodi="http://sodipodi.sourceforge.net/DTD/sodipodi-0.dtd"
   xmlns:xlink="http://www.w3.org/1999/xlink"
   xmlns="http://www.w3.org/2000/svg"
   xmlns:svg="http://www.w3.org/2000/svg"
   xmlns:rdf="http://www.w3.org/1999/02/22-rdf-syntax-ns#"
   xmlns:cc="http://creativecommons.org/ns#"
   xmlns:dc="http://purl.org/dc/elements/1.1/"><sodipodi:namedview
     id="namedview52"
     pagecolor="#ffffff"
     bordercolor="#999999"
     borderopacity="1"
     inkscape:showpageshadow="0"
     inkscape:pageopacity="0"
     inkscape:pagecheckerboard="0"
     inkscape:deskcolor="#d1d1d1"
     showgrid="false"
     inkscape:zoom="2.3478155"
     inkscape:cx="55.796548"
     inkscape:cy="60.907682"
     inkscape:window-width="1920"
     inkscape:window-height="1002"
     inkscape:window-x="0"
     inkscape:window-y="0"
     inkscape:window-maximized="1"
     inkscape:current-layer="svg50" /><defs
     id="defs10"><linearGradient
       inkscape:collect="always"
       id="linearGradient2317"><stop
         style="stop-color:#bf8dfb;stop-opacity:1"
         offset="0"
         id="stop2313" /><stop
         style="stop-color:#6728ca;stop-opacity:1"
         offset="1"
         id="stop2315" /></linearGradient><linearGradient
       id="linearGradient873"
       x1="-48.646"
       x2="-32.772"
       y1="-3.0915"
       y2="9.574"
       gradientTransform="matrix(1 0 0 .91665 49.175 7.5514)"
       gradientUnits="userSpaceOnUse"><stop
         stop-color="#26b4eb"
         offset="0"
         id="stop2" /><stop
         stop-color="#017adc"
         offset="1"
         id="stop4" /></linearGradient><filter
       id="filter965"
       x="-0.18291424"
       y="-0.082690708"
       width="1.3658285"
       height="1.1653814"
       color-interpolation-filters="sRGB"><feGaussianBlur
         stdDeviation="0.12760554"
         id="feGaussianBlur7" /></filter><linearGradient
       inkscape:collect="always"
       xlink:href="#linearGradient2317"
       id="linearGradient2319"
       x1="154.73351"
       y1="-73.27079"
       x2="154.73351"
       y2="-44.178566"
       gradientUnits="userSpaceOnUse"
       gradientTransform="matrix(0.52747878,0,0,0.52747878,-71.391559,39.442521)" /></defs><metadata
     id="metadata12"><rdf:RDF><cc:Work
         rdf:about=""><dc:format>image/svg+xml</dc:format><dc:type
           rdf:resource="http://purl.org/dc/dcmitype/StillImage" /><dc:title /></cc:Work></rdf:RDF></metadata><rect
     style="opacity:1;fill:#d82b87;fill-rule:evenodd;stroke-width:0.0269306;stroke-linecap:round;stroke-linejoin:round;paint-order:stroke fill markers"
     id="rect451"
     width="12.818741"
     height="12.849512"
     x="31.52883"
     y="-6.1264191"
     rx="0"
     ry="1.68129" /><rect
     style="opacity:1;fill:#d82b87;fill-rule:evenodd;stroke-width:0.0269306;stroke-linecap:round;stroke-linejoin:round;paint-order:stroke fill markers"
     id="rect1056"
     width="12.818741"
     height="12.849512"
     x="47.660625"
     y="-6.1264191"
     rx="0"
     ry="1.68129" /><rect
     style="opacity:1;fill:#d82b87;fill-rule:evenodd;stroke-width:0.0404717;stroke-linecap:round;stroke-linejoin:round;paint-order:stroke fill markers"
     id="rect1058"
     width="28.950537"
     height="12.849512"
     x="31.52883"
     y="10.115913"
     rx="0"
     ry="1.68129" /><path
     id="rect1060"
     style="opacity:1;fill:#d82b87;fill-rule:evenodd;stroke-width:0.0269306;stroke-linecap:round;stroke-linejoin:round;paint-order:stroke fill markers"
     d="M 41.276255 0.3989342 C 40.344821 0.3989342 39.594737 1.1490203 39.594737 2.0804522 L 39.594737 6.7229715 L 39.615407 6.7229715 C 40.555216 6.7229715 41.311394 7.479666 41.311394 8.4194754 C 41.311394 9.3592847 40.555216 10.115979 39.615407 10.115979 L 39.594737 10.115979 L 39.594737 11.567542 C 39.594737 12.498973 40.344821 13.248543 41.276255 13.248543 L 50.732339 13.248543 C 51.66377 13.248543 52.41334 12.498973 52.41334 11.567542 L 52.41334 10.115462 C 51.479299 10.108824 50.729238 9.3551377 50.729238 8.4194754 C 50.729238 7.4838131 51.479299 6.7301264 52.41334 6.7234883 L 52.41334 2.0804522 C 52.41334 1.1490203 51.66377 0.3989342 50.732339 0.3989342 L 47.700542 0.3989342 L 47.700542 2.0272265 C 47.700542 2.967035 46.943847 3.7237304 46.004038 3.7237304 C 45.06423 3.7237304 44.307534 2.967035 44.307534 2.0272265 L 44.307534 0.3989342 L 41.276255 0.3989342 z " /><path
     id="rect1071"
     style="opacity:1;fill:url(#linearGradient2319);fill-opacity:1;fill-rule:evenodd;stroke-width:0.0142053;stroke-linecap:round;stroke-linejoin:round;paint-order:stroke fill markers"
     d="m 1.718034,0.7937345 c -0.4913095,0 -0.88696603,0.395653 -0.88696603,0.886965 v 5.004238 c 0,0.491312 0.39565653,0.886693 0.88696603,0.886693 h 3.367683 0.010919 c 0.49573,0 0.894599,0.399141 0.894599,0.894869 0,0.495729 -0.398869,0.89487 -0.894599,0.89487 H 1.71805 c -0.4913095,0 -0.88696603,0.395381 -0.88696603,0.8866925 V 15.2523 c 0,0.491312 0.39565653,0.886965 0.88696603,0.886965 h 13.497185 c 0.491315,0 0.886697,-0.395653 0.886697,-0.886965 v -5.004238 c 0,-0.4913115 -0.395382,-0.8866925 -0.886697,-0.8866925 h -3.367957 v -2.72e-4 c -0.492687,-0.0035 -0.888327,-0.401056 -0.888327,-0.894598 0,-0.493541 0.39564,-0.891095 0.888327,-0.894597 v -2.72e-4 h 3.367957 c 0.491315,0 0.886697,-0.395381 0.886697,-0.886693 v -5.004238 c 0,-0.491312 -0.395382,-0.886965 -0.886697,-0.886965 h -4.988156 c -0.49131,0 -0.886692,0.395653 -0.886692,0.886965 v 3.607555 c -0.08806,0.40201 -0.444701,0.70134 -0.873879,0.70134 -0.428993,0 -0.785353,-0.299056 -0.87361,-0.700796 v -3.608099 c 0,-0.491312 -0.395652,-0.886965 -0.886967,-0.886965 z" /></svg>
