<?xml version="1.0" encoding="UTF-8" standalone="no"?>
<svg
   width="64"
   height="64"
   version="1.1"
   viewBox="0 0 16.933 16.933"
   id="svg44"
   sodipodi:docname="okular.svg"
   inkscape:version="1.2.2 (b0a8486541, 2022-12-01)"
   xmlns:inkscape="http://www.inkscape.org/namespaces/inkscape"
   xmlns:sodipodi="http://sodipodi.sourceforge.net/DTD/sodipodi-0.dtd"
   xmlns:xlink="http://www.w3.org/1999/xlink"
   xmlns="http://www.w3.org/2000/svg"
   xmlns:svg="http://www.w3.org/2000/svg"
   xmlns:rdf="http://www.w3.org/1999/02/22-rdf-syntax-ns#"
   xmlns:cc="http://creativecommons.org/ns#"
   xmlns:dc="http://purl.org/dc/elements/1.1/">
  <sodipodi:namedview
     id="namedview46"
     pagecolor="#ffffff"
     bordercolor="#999999"
     borderopacity="1"
     inkscape:showpageshadow="0"
     inkscape:pageopacity="0"
     inkscape:pagecheckerboard="0"
     inkscape:deskcolor="#d1d1d1"
     showgrid="false"
     inkscape:zoom="4.695631"
     inkscape:cx="27.578828"
     inkscape:cy="31.305697"
     inkscape:window-width="1920"
     inkscape:window-height="1002"
     inkscape:window-x="0"
     inkscape:window-y="0"
     inkscape:window-maximized="1"
     inkscape:current-layer="svg44" />
  <defs
     id="defs22">
    <linearGradient
       inkscape:collect="always"
       id="linearGradient7779">
      <stop
         style="stop-color:#0875e4;stop-opacity:1"
         offset="0"
         id="stop7775" />
      <stop
         style="stop-color:#074694;stop-opacity:1"
         offset="1"
         id="stop7777" />
    </linearGradient>
    <linearGradient
       inkscape:collect="always"
       id="linearGradient2921">
      <stop
         style="stop-color:#1ea7f0;stop-opacity:1;"
         offset="0"
         id="stop2917" />
      <stop
         style="stop-color:#2063c0;stop-opacity:1"
         offset="1"
         id="stop2919" />
    </linearGradient>
    <linearGradient
       id="linearGradient3861"
       x1="15.742"
       x2="61.539"
       y1="31.642"
       y2="31.642"
       gradientTransform="matrix(.26458 0 0 .26458 16.326 -1.4985)"
       gradientUnits="userSpaceOnUse">
      <stop
         stop-color="#0364c8"
         offset="0"
         id="stop2" />
      <stop
         stop-color="#0979ea"
         offset="1"
         id="stop4" />
    </linearGradient>
    <linearGradient
       id="linearGradient3065"
       x1="91.192"
       x2="113.16"
       y1="117.86"
       y2="117.86"
       gradientTransform="matrix(.28075 0 0 .28075 -15.238 -12.725)"
       gradientUnits="userSpaceOnUse">
      <stop
         stop-color="#138acc"
         offset="0"
         id="stop7" />
      <stop
         stop-color="#1faaf4"
         offset="1"
         id="stop9" />
    </linearGradient>
    <linearGradient
       id="linearGradient4645"
       x1="9.7894"
       x2="17.727"
       y1="-30.691"
       y2="-22.754"
       gradientTransform="matrix(1 0 0 1 6.3228 35.614)"
       gradientUnits="userSpaceOnUse">
      <stop
         stop-color="#2267c3"
         offset="0"
         id="stop12" />
      <stop
         stop-color="#1248ad"
         offset="1"
         id="stop14" />
    </linearGradient>
    <linearGradient
       id="linearGradient4360"
       x1="11.514"
       x2="17.752"
       y1="-30.694"
       y2="-23.208"
       gradientTransform="matrix(1 0 0 1 6.3228 35.614)"
       gradientUnits="userSpaceOnUse">
      <stop
         stop-color="#1e62c1"
         offset="0"
         id="stop17" />
      <stop
         stop-color="#0f3b8f"
         offset="1"
         id="stop19" />
    </linearGradient>
    <linearGradient
       inkscape:collect="always"
       xlink:href="#linearGradient2921"
       id="linearGradient2923"
       x1="-9.6500101"
       y1="4.9072409"
       x2="-15.162084"
       y2="18.554058"
       gradientUnits="userSpaceOnUse" />
    <linearGradient
       inkscape:collect="always"
       xlink:href="#linearGradient7779"
       id="linearGradient7709"
       x1="-9.6498671"
       y1="4.9070973"
       x2="-15.162084"
       y2="18.554058"
       gradientUnits="userSpaceOnUse" />
  </defs>
  <metadata
     id="metadata24">
    <rdf:RDF>
      <cc:Work
         rdf:about="">
        <dc:format>image/svg+xml</dc:format>
        <dc:type
           rdf:resource="http://purl.org/dc/dcmitype/StillImage" />
      </cc:Work>
    </rdf:RDF>
  </metadata>
  <g
     id="g6667"
     transform="translate(23.629656,-2.1504192)">
    <path
       id="path475"
       style="fill:#8725d8;fill-rule:evenodd;stroke-width:0.246317;stroke-linecap:round;stroke-linejoin:round;paint-order:stroke fill markers"
       d="m -15.162084,18.554058 v -8.13216 h -0.0021 v 8.13216 a 7.9373436,7.9373436 0 0 0 0.001,0 7.9373436,7.9373436 0 0 0 10e-4,0 z" />
    <path
       id="path2576"
       style="fill:url(#linearGradient7709);fill-opacity:1;fill-rule:evenodd;stroke-width:0.246317;stroke-linecap:round;stroke-linejoin:round;paint-order:stroke fill markers"
       d="m -9.6483167,4.9081309 -5.5137673,5.5137671 v 8.13216 a 7.9373436,7.9373436 0 0 0 7.9363107,-7.937344 7.9373436,7.9373436 0 0 0 -2.4225434,-5.7085831 z" />
    <path
       id="path2574"
       style="fill:#8725d8;fill-rule:evenodd;stroke-width:0.246317;stroke-linecap:round;stroke-linejoin:round;paint-order:stroke fill markers"
       d="m -9.649867,4.9070974 -5.512217,5.5148006 5.5137673,-5.5137671 a 7.9373436,7.9373436 0 0 0 -0.00155,-0.00103 z" />
    <path
       id="path2572"
       style="fill:#8725d8;fill-rule:evenodd;stroke-width:0.246317;stroke-linecap:round;stroke-linejoin:round;paint-order:stroke fill markers"
       d="m -20.675334,4.9107147 5.511183,5.5111833 -5.509632,-5.5127336 a 7.9373436,7.9373436 0 0 0 -0.0016,0.00155 z" />
    <path
       id="path2587"
       style="fill:url(#linearGradient2923);fill-opacity:1;fill-rule:evenodd;stroke-width:0.246317;stroke-linecap:round;stroke-linejoin:round;paint-order:stroke fill markers"
       d="m -15.163196,2.6795755 a 7.9373436,7.9373436 0 0 0 -5.510666,2.2297941 l 5.509633,5.5127334 h 0.0021 L -9.6499457,4.9073026 A 7.9373436,7.9373436 0 0 0 -15.163196,2.6795755 Z m -0.001,7.7425275 -5.511183,-5.5111831 a 7.9373436,7.9373436 0 0 0 -2.425127,5.7059991 7.9373436,7.9373436 0 0 0 7.93631,7.937344 z" />
  </g>
  <g
     id="g323"
     transform="translate(23.629656,-2.1504192)">
    <path
       id="path313"
       style="fill:#8725d8;fill-rule:evenodd;stroke-width:0.246317;stroke-linecap:round;stroke-linejoin:round;paint-order:stroke fill markers"
       d="m -15.162084,18.554058 v -8.13216 h -0.0021 v 8.13216 a 7.9373436,7.9373436 0 0 0 0.001,0 7.9373436,7.9373436 0 0 0 10e-4,0 z" />
    <path
       id="path315"
       style="fill:url(#linearGradient7709);fill-opacity:1;fill-rule:evenodd;stroke-width:0.246317;stroke-linecap:round;stroke-linejoin:round;paint-order:stroke fill markers"
       d="m -9.6483167,4.9081309 -5.5137673,5.5137671 v 8.13216 a 7.9373436,7.9373436 0 0 0 7.9363107,-7.937344 7.9373436,7.9373436 0 0 0 -2.4225434,-5.7085831 z" />
    <path
       id="path317"
       style="fill:#8725d8;fill-rule:evenodd;stroke-width:0.246317;stroke-linecap:round;stroke-linejoin:round;paint-order:stroke fill markers"
       d="m -9.649867,4.9070974 -5.512217,5.5148006 5.5137673,-5.5137671 a 7.9373436,7.9373436 0 0 0 -0.00155,-0.00103 z" />
    <path
       id="path319"
       style="fill:#8725d8;fill-rule:evenodd;stroke-width:0.246317;stroke-linecap:round;stroke-linejoin:round;paint-order:stroke fill markers"
       d="m -20.675334,4.9107147 5.511183,5.5111833 -5.509632,-5.5127336 a 7.9373436,7.9373436 0 0 0 -0.0016,0.00155 z" />
    <path
       id="path321"
       style="fill:url(#linearGradient2923);fill-opacity:1;fill-rule:evenodd;stroke-width:0.246317;stroke-linecap:round;stroke-linejoin:round;paint-order:stroke fill markers"
       d="m -15.163196,2.6795755 a 7.9373436,7.9373436 0 0 0 -5.510666,2.2297941 l 5.509633,5.5127334 h 0.0021 L -9.6499457,4.9073026 A 7.9373436,7.9373436 0 0 0 -15.163196,2.6795755 Z m -0.001,7.7425275 -5.511183,-5.5111831 a 7.9373436,7.9373436 0 0 0 -2.425127,5.7059991 7.9373436,7.9373436 0 0 0 7.93631,7.937344 z" />
  </g>
</svg>
