<?xml version="1.0" encoding="UTF-8" standalone="no"?>
<svg
   width="64"
   height="64"
   version="1.1"
   id="svg39"
   sodipodi:docname="pithos.svg"
   inkscape:version="1.2.2 (b0a8486541, 2022-12-01)"
   xmlns:inkscape="http://www.inkscape.org/namespaces/inkscape"
   xmlns:sodipodi="http://sodipodi.sourceforge.net/DTD/sodipodi-0.dtd"
   xmlns:xlink="http://www.w3.org/1999/xlink"
   xmlns="http://www.w3.org/2000/svg"
   xmlns:svg="http://www.w3.org/2000/svg"
   xmlns:rdf="http://www.w3.org/1999/02/22-rdf-syntax-ns#"
   xmlns:cc="http://creativecommons.org/ns#"
   xmlns:dc="http://purl.org/dc/elements/1.1/">
  <sodipodi:namedview
     id="namedview41"
     pagecolor="#ffffff"
     bordercolor="#999999"
     borderopacity="1"
     inkscape:showpageshadow="0"
     inkscape:pageopacity="0"
     inkscape:pagecheckerboard="0"
     inkscape:deskcolor="#d1d1d1"
     showgrid="false"
     inkscape:zoom="6.640625"
     inkscape:cx="-20.329412"
     inkscape:cy="24.545882"
     inkscape:window-width="1920"
     inkscape:window-height="1002"
     inkscape:window-x="0"
     inkscape:window-y="0"
     inkscape:window-maximized="1"
     inkscape:current-layer="svg39" />
  <metadata
     id="metadata2">
    <rdf:RDF>
      <cc:Work
         rdf:about="">
        <dc:format>image/svg+xml</dc:format>
        <dc:type
           rdf:resource="http://purl.org/dc/dcmitype/StillImage" />
        <dc:title />
      </cc:Work>
    </rdf:RDF>
  </metadata>
  <defs
     id="defs24">
    <linearGradient
       inkscape:collect="always"
       id="linearGradient2303">
      <stop
         style="stop-color:#e02aee;stop-opacity:1"
         offset="0"
         id="stop2299" />
      <stop
         style="stop-color:#611fac;stop-opacity:1"
         offset="1"
         id="stop2301" />
    </linearGradient>
    <linearGradient
       id="d"
       x1="99.036"
       x2="99.036"
       y1="-.50472"
       y2="199.84"
       gradientTransform="matrix(0.29439553,0,0,0.29439553,-83.462046,2.5603191)"
       gradientUnits="userSpaceOnUse">
      <stop
         stop-color="#369"
         offset="0"
         id="stop4" />
      <stop
         stop-color="#25507b"
         offset="1"
         id="stop6" />
    </linearGradient>
    <linearGradient
       id="a"
       x1="403.12"
       x2="403.12"
       y1="211.25"
       y2="396.25"
       gradientUnits="userSpaceOnUse">
      <stop
         stop-color="#5a1aa9"
         offset="0"
         id="stop9" />
      <stop
         stop-color="#c063d5"
         offset="1"
         id="stop11" />
    </linearGradient>
    <filter
       id="f"
       x="-0.042001731"
       y="-0.031499028"
       width="1.0840035"
       height="1.0629981"
       color-interpolation-filters="sRGB">
      <feGaussianBlur
         stdDeviation="2.42805"
         id="feGaussianBlur14" />
    </filter>
    <linearGradient
       id="c"
       x1="402.70999"
       x2="402.70999"
       y1="211.2478"
       y2="396.2532"
       gradientUnits="userSpaceOnUse"
       gradientTransform="matrix(0.31350052,0,0,0.31350052,-94.378895,-63.225583)">
      <stop
         stop-color="#fff"
         offset="0"
         id="stop17"
         style="stop-color:#5f1eab;stop-opacity:1" />
      <stop
         stop-color="#d7d7d7"
         offset="1"
         id="stop19"
         style="stop-color:#ba5fd2;stop-opacity:1" />
    </linearGradient>
    <linearGradient
       id="b"
       x1="402.71"
       x2="402.71"
       y1="316.42"
       y2="341.92"
       gradientUnits="userSpaceOnUse"
       xlink:href="#a"
       gradientTransform="matrix(0.20000227,0,0,0.20000227,-48.000246,-27.993727)" />
    <linearGradient
       id="e"
       x1="396.33"
       x2="396.33"
       y1="137.89"
       y2="463.07"
       gradientUnits="userSpaceOnUse"
       xlink:href="#a"
       gradientTransform="matrix(0.20000227,0,0,0.20000227,-134.32432,-27.993727)" />
    <linearGradient
       inkscape:collect="always"
       xlink:href="#linearGradient2303"
       id="linearGradient2305"
       x1="32.048939"
       y1="61"
       x2="32.048939"
       y2="3.0000005"
       gradientUnits="userSpaceOnUse" />
    <linearGradient
       id="linearGradient1247"
       x1="4.1936002"
       x2="14.044"
       y1="4.5504999"
       y2="14.411"
       gradientUnits="userSpaceOnUse"
       gradientTransform="matrix(3.779602,0,0,3.779602,-66.687637,-10.078013)">
      <stop
         stop-color="#28b7ff"
         offset="0"
         id="stop5428" />
      <stop
         stop-color="#e328ee"
         offset="1"
         id="stop5430" />
    </linearGradient>
  </defs>
  <path
     id="Combined Shape"
     class="shp2"
     d="m 32.048938,3.0000005 c -12.035273,0 -21.794775,9.7833315 -21.794775,21.8468205 v 27.216681 c 0.253934,-0.05016 0.514132,-0.07654 0.783742,-0.07654 2.163153,2e-6 3.918712,1.75556 3.918712,3.918712 0,1.554962 -0.903029,2.896634 -2.213459,3.529904 C 13.925053,60.413698 15.444456,61 17.096603,61 c 3.777677,0 6.839376,-3.073725 6.839376,-6.860807 l 0.0031,-29.295434 c 0,-4.489324 3.62998,-8.131328 8.109897,-8.131328 h 0.198997 c 4.360786,0 7.800318,3.455575 7.815993,7.800687 0.0031,-0.0627 0.0061,-0.127114 0.0061,-0.189813 l -0.0061,0.385749 -0.0031,-0.0031 c 0.0031,-0.0627 0.0031,-0.130175 0.0031,-0.192874 -0.191235,4.414083 -3.888546,8.073158 -7.917023,8.073158 -3.777677,0 -6.839376,3.070664 -6.839376,6.857746 0,3.787084 3.061699,6.854684 6.839376,6.854684 11.483513,0 21.15695,-9.595335 21.592717,-21.320242 0.0031,-0.06171 0.0031,-0.12512 0.0061,-0.189813 V 24.785513 24.5957 C 53.77709,12.657689 44.211101,3.0000005 32.247935,3.0000005 Z m 0.146951,32.1365005 c 2.379466,2e-6 4.310584,1.931118 4.310584,4.310584 0,2.379468 -1.931118,4.310583 -4.310584,4.310583 -2.379467,0 -4.310583,-1.931115 -4.310583,-4.310583 0,-2.379466 1.931116,-4.310584 4.310583,-4.310584 z"
     style="fill:url(#linearGradient2305);fill-opacity:1" />
</svg>
