<?xml version="1.0" encoding="UTF-8" standalone="no"?>
<!-- Created with Inkscape (http://www.inkscape.org/) -->

<svg
   width="64"
   height="64"
   version="1.1"
   viewBox="0 0 16.933 16.933"
   id="svg61"
   sodipodi:docname="polari.svg"
   inkscape:version="1.2.2 (b0a8486541, 2022-12-01)"
   xmlns:inkscape="http://www.inkscape.org/namespaces/inkscape"
   xmlns:sodipodi="http://sodipodi.sourceforge.net/DTD/sodipodi-0.dtd"
   xmlns:xlink="http://www.w3.org/1999/xlink"
   xmlns="http://www.w3.org/2000/svg"
   xmlns:svg="http://www.w3.org/2000/svg"
   xmlns:rdf="http://www.w3.org/1999/02/22-rdf-syntax-ns#"
   xmlns:cc="http://creativecommons.org/ns#"
   xmlns:dc="http://purl.org/dc/elements/1.1/">
  <sodipodi:namedview
     id="namedview63"
     pagecolor="#ffffff"
     bordercolor="#999999"
     borderopacity="1"
     inkscape:showpageshadow="0"
     inkscape:pageopacity="0"
     inkscape:pagecheckerboard="0"
     inkscape:deskcolor="#d1d1d1"
     showgrid="false"
     inkscape:zoom="4.695631"
     inkscape:cx="13.629691"
     inkscape:cy="11.287088"
     inkscape:window-width="1920"
     inkscape:window-height="1002"
     inkscape:window-x="0"
     inkscape:window-y="0"
     inkscape:window-maximized="1"
     inkscape:current-layer="svg61" />
  <defs
     id="defs27">
    <linearGradient
       id="linearGradient1362"
       x1="-65"
       x2="-65"
       y1="35"
       y2="85"
       gradientUnits="userSpaceOnUse">
      <stop
         stop-color="#f5f7f5"
         offset="0"
         id="stop2" />
      <stop
         stop-color="#cfe9fc"
         offset="1"
         id="stop4" />
    </linearGradient>
    <linearGradient
       id="linearGradient14116"
       x1="-24.077"
       x2="-11.112"
       y1="19.05"
       y2="19.05"
       gradientTransform="matrix(-1 0 0 1 -33.337 0)"
       gradientUnits="userSpaceOnUse">
      <stop
         stop-color="#fafbfb"
         offset="0"
         id="stop7" />
      <stop
         stop-color="#fafbfb"
         stop-opacity="0"
         offset="1"
         id="stop9" />
    </linearGradient>
    <linearGradient
       id="linearGradient14120"
       x1="-65"
       x2="-65"
       y1="35"
       y2="85"
       gradientTransform="matrix(-.213 0 0 .213 -26.262 7.033)"
       gradientUnits="userSpaceOnUse">
      <stop
         stop-color="#28c3fa"
         offset="0"
         id="stop12" />
      <stop
         stop-color="#0a78c8"
         offset="1"
         id="stop14" />
    </linearGradient>
    <linearGradient
       id="linearGradient14331"
       x1="-16.668"
       x2="-16.668"
       y1="11.377"
       y2="12.7"
       gradientUnits="userSpaceOnUse">
      <stop
         stop-color="#28c3fa"
         offset="0"
         id="stop17" />
      <stop
         stop-color="#0a78c8"
         offset="1"
         id="stop19" />
    </linearGradient>
    <linearGradient
       id="linearGradient32580"
       x1="-16.668"
       x2="-16.668"
       y1="12.964"
       y2="11.112"
       gradientUnits="userSpaceOnUse">
      <stop
         stop-color="#fafbfb"
         offset="0"
         id="stop22" />
      <stop
         stop-color="#f3f5f7"
         offset="1"
         id="stop24" />
    </linearGradient>
    <linearGradient
       inkscape:collect="always"
       xlink:href="#linearGradient1913"
       id="linearGradient1915"
       x1="6.6697459"
       y1="-13.139492"
       x2="39.70739"
       y2="-13.139492"
       gradientUnits="userSpaceOnUse"
       gradientTransform="matrix(-0.48050301,0,0,0.48050301,19.608782,14.779846)" />
    <linearGradient
       inkscape:collect="always"
       id="linearGradient1913">
      <stop
         style="stop-color:#1f81fb;stop-opacity:1"
         offset="0"
         id="stop1909" />
      <stop
         style="stop-color:#228af4;stop-opacity:1"
         offset="1"
         id="stop1911" />
    </linearGradient>
  </defs>
  <metadata
     id="metadata29">
    <rdf:RDF>
      <cc:Work
         rdf:about="">
        <dc:format>image/svg+xml</dc:format>
        <dc:type
           rdf:resource="http://purl.org/dc/dcmitype/StillImage" />
      </cc:Work>
    </rdf:RDF>
  </metadata>
  <path
     id="rect448"
     style="fill:url(#linearGradient1915);fill-opacity:1;fill-rule:evenodd;stroke-width:0.0203962;stroke-linecap:round;stroke-linejoin:round;paint-order:stroke fill markers"
     d="M 4.4166977 3.2147276 L 4.4166977 3.2167946 C 2.2519914 3.2835393 0.52915625 5.0474002 0.52915625 7.2288738 C 0.52915625 9.0780541 1.767165 10.628023 3.4627696 11.097812 L 1.6231248 13.096617 C 1.4892153 13.23597 1.4369522 13.437556 1.5580138 13.593218 C 1.6789951 13.748838 1.8570294 13.745946 2.0608156 13.657812 L 7.5673478 11.243537 L 9.240081 11.243537 L 12.389181 11.243537 L 12.390731 11.243537 C 14.61406 11.242706 16.403844 9.4524048 16.403844 7.2288738 C 16.403844 5.0053452 14.61406 3.2155586 12.390731 3.2147276 L 9.240081 3.2147276 L 7.5673478 3.2147276 L 4.5438192 3.2147276 L 4.4166977 3.2147276 z M 6.9183046 3.8322488 C 7.1918752 3.8322488 7.4118048 4.0678229 7.4118048 4.3608883 L 7.4118048 5.1742593 L 9.5211952 5.1742593 L 9.5211952 4.3608883 C 9.5211952 4.0678229 9.7411252 3.8322488 10.014695 3.8322488 C 10.288266 3.8322488 10.508712 4.0678229 10.508712 4.3608883 L 10.508712 5.1742593 L 11.322083 5.1742593 C 11.615149 5.1742593 11.85124 5.3947055 11.85124 5.6682763 C 11.85124 5.9418469 11.615149 6.1622932 11.322083 6.1622932 L 10.508712 6.1622932 L 10.508712 8.2711669 L 11.322083 8.2711669 C 11.615149 8.2711669 11.85124 8.4910965 11.85124 8.7646671 C 11.85124 9.0382379 11.615149 9.2586841 11.322083 9.2586841 L 10.508712 9.2586841 L 10.508712 10.072055 C 10.508712 10.365121 10.288266 10.601211 10.014695 10.601211 C 9.7411252 10.601211 9.5211952 10.365121 9.5211952 10.072055 L 9.5211952 9.2586841 L 7.4118048 9.2586841 L 7.4118048 10.072055 C 7.4118048 10.365121 7.1918752 10.601211 6.9183046 10.601211 C 6.6447338 10.601211 6.4242876 10.365121 6.4242876 10.072055 L 6.4242876 9.2586841 L 5.6109166 9.2586841 C 5.3178512 9.2586841 5.0817603 9.0382379 5.0817603 8.7646671 C 5.0817603 8.4910965 5.3178512 8.2711669 5.6109166 8.2711669 L 6.4242876 8.2711669 L 6.4242876 6.1622932 L 5.6109166 6.1622932 C 5.3178512 6.1622932 5.0817603 5.9418469 5.0817603 5.6682763 C 5.0817603 5.3947055 5.3178512 5.1742593 5.6109166 5.1742593 L 6.4242876 5.1742593 L 6.4242876 4.3608883 C 6.4242876 4.0678229 6.6447338 3.8322488 6.9183046 3.8322488 z M 7.4118048 6.1622932 L 7.4118048 8.2711669 L 9.5211952 8.2711669 L 9.5211952 6.1622932 L 7.4118048 6.1622932 z " />
</svg>
