<?xml version="1.0" encoding="UTF-8" standalone="no"?>
<svg
   width="64"
   height="64"
   version="1.1"
   id="svg33"
   sodipodi:docname="qbittorrent.svg"
   xml:space="preserve"
   inkscape:version="1.2.2 (b0a8486541, 2022-12-01)"
   xmlns:inkscape="http://www.inkscape.org/namespaces/inkscape"
   xmlns:sodipodi="http://sodipodi.sourceforge.net/DTD/sodipodi-0.dtd"
   xmlns:xlink="http://www.w3.org/1999/xlink"
   xmlns="http://www.w3.org/2000/svg"
   xmlns:svg="http://www.w3.org/2000/svg"><sodipodi:namedview
     id="namedview35"
     pagecolor="#ffffff"
     bordercolor="#999999"
     borderopacity="1"
     inkscape:showpageshadow="0"
     inkscape:pageopacity="0"
     inkscape:pagecheckerboard="0"
     inkscape:deskcolor="#d1d1d1"
     showgrid="false"
     inkscape:zoom="3.3203125"
     inkscape:cx="28.611765"
     inkscape:cy="18.672941"
     inkscape:window-width="1920"
     inkscape:window-height="1002"
     inkscape:window-x="0"
     inkscape:window-y="0"
     inkscape:window-maximized="1"
     inkscape:current-layer="svg33" /><defs
     id="defs19"><linearGradient
       inkscape:collect="always"
       id="linearGradient1334"><stop
         style="stop-color:#2aa9fa;stop-opacity:1"
         offset="0"
         id="stop1330" /><stop
         style="stop-color:#15d5fd;stop-opacity:1"
         offset="1"
         id="stop1332" /></linearGradient><linearGradient
       id="linearGradient22227"><stop
         stop-color="#bbe3ff"
         offset="0"
         id="stop2" /><stop
         stop-color="#fcffff"
         offset="1"
         id="stop4" /></linearGradient><linearGradient
       id="linearGradient994"
       x1="35.425"
       x2="35.425"
       y1="-94.008"
       y2="-35.155"
       gradientTransform="translate(-0.7663,95.947)"
       gradientUnits="userSpaceOnUse"><stop
         stop-color="#d6efff"
         offset="0"
         id="stop7" /><stop
         stop-color="#daeffe"
         offset="1"
         id="stop9" /></linearGradient><linearGradient
       id="linearGradient11351"
       x1="35.425"
       x2="35.425"
       y1="-94.008"
       y2="-35.155"
       gradientTransform="matrix(0.91667,0,0,0.91667,1.9642,90.618)"
       gradientUnits="userSpaceOnUse"><stop
         stop-color="#6faae6"
         offset="0"
         id="stop12" /><stop
         stop-color="#396ebb"
         offset="1"
         id="stop14" /></linearGradient><linearGradient
       id="linearGradient22229"
       x1="-51.775"
       x2="-12.7"
       y1="-91.068"
       y2="-91.068"
       gradientUnits="userSpaceOnUse"
       xlink:href="#linearGradient22227" /><linearGradient
       id="linearGradient32180"
       x1="-51.775"
       x2="-21.578"
       y1="-91.068"
       y2="-91.068"
       gradientUnits="userSpaceOnUse"
       xlink:href="#linearGradient22227" /><linearGradient
       inkscape:collect="always"
       xlink:href="#linearGradient1334"
       id="linearGradient1336"
       x1="110.73898"
       y1="75.475868"
       x2="187.45822"
       y2="75.475868"
       gradientUnits="userSpaceOnUse"
       gradientTransform="matrix(-0.40437177,0,-0.19950561,0.40437177,94.612502,-2.7207399)" /><linearGradient
       inkscape:collect="always"
       xlink:href="#linearGradient1334"
       id="linearGradient5242"
       gradientUnits="userSpaceOnUse"
       gradientTransform="matrix(0.40437177,0,0.19950561,-0.40437177,-30.612502,66.72074)"
       x1="110.73898"
       y1="75.475868"
       x2="187.45822"
       y2="75.475868" /></defs><path
     style="fill:#000000;fill-opacity:1;stroke:none;stroke-width:1px;stroke-linecap:butt;stroke-linejoin:miter;stroke-opacity:1"
     d="m 123.92863,-74.27634 34.19009,-10e-7 c 0,0 26.01139,10e-7 29.03543,25.912023 3.31725,28.424477 -21.3391,42.0273497 -34.10595,42.0817697 -12.76685,0.0544 -14.85681,-0.90911 -16.42588,3.65279 -1.56906,4.5619 0.79606,7.1292 -4.52335,7.1292 h -19.27523 c 0,0 -2.67052,0.13789 -1.96561,-3.92036001 0.7049,-4.05825999 13.0705,-74.85542169 13.0705,-74.85542169 z"
     id="path1264"
     sodipodi:nodetypes="ccsssscsc" /><path
     id="path1266"
     style="opacity:0.6;fill:#000000;fill-rule:evenodd;stroke-width:0.1;stroke-linecap:round;stroke-linejoin:round;paint-order:stroke fill markers"
     d="m 150.47261,-61.663146 a 2.0744352,2.9087011 18.057178 0 0 -0.76056,0.345703 2.1361047,2.9951719 18.057179 0 0 -0.69361,0.667969 2.1361047,2.9951719 18.057179 0 0 -0.51576,0.898437 2.1361047,2.9951719 18.057179 0 0 -0.27819,1.021485 l -5.61159,35.984375 a 2.1765089,3.0518252 18.057179 0 0 -0.0361,1.019531 2.1765089,3.0518252 18.057179 0 0 0.23636,0.904297 2.1765089,3.0518252 18.057179 0 0 0.4766,0.679687 1.9138819,2.6835789 18.057177 0 0 0.47265,0.300782 1.9138819,2.6835789 18.057177 0 0 0.54921,0.08984 2.3817195,3.3395646 18.057178 0 0 1.14066,-0.375 l 25.16964,-17.857422 a 2.1350416,2.9936812 18.057178 0 0 0.20107,-0.154297 2.1350416,2.9936812 18.057178 0 0 0.19271,-0.175781 2.1350416,2.9936812 18.057178 0 0 0.18243,-0.195312 2.1350416,2.9936812 18.057178 0 0 0.17022,-0.214844 2.1350416,2.9936812 18.057178 0 0 0.15608,-0.232422 2.1350416,2.9936812 18.057178 0 0 0.14205,-0.246094 2.1350416,2.9936812 18.057178 0 0 0.12608,-0.259765 2.1350416,2.9936812 18.057178 0 0 0.10629,-0.269532 2.1350416,2.9936812 18.057178 0 0 0.0905,-0.27539 2.1350416,2.9936812 18.057178 0 0 0.0689,-0.28125 2.1350416,2.9936812 18.057178 0 0 0.0493,-0.283203 2.3817195,3.3395646 18.057178 0 0 -0.0883,-1.447266 2.3817195,3.3395646 18.057178 0 0 -0.59513,-1.107422 l -19.54956,-18.175778 a 2.0744352,2.9087011 18.057178 0 0 -0.64984,-0.355469 2.0744352,2.9087011 18.057178 0 0 -0.75211,-0.0059 z" /><g
     id="g5276"><path
       id="path393"
       style="fill:url(#linearGradient1336);fill-opacity:1;stroke:none;stroke-width:0.404372px;stroke-linecap:butt;stroke-linejoin:miter;stroke-opacity:1"
       d="m 37.299889,11.872184 c 0,0 -12.186316,37.029253 -12.710919,38.670299 -0.524598,1.641042 -1.577364,1.585105 -1.577364,1.585105 h -7.794424 c -2.151015,0 2.379563,-9.438887 2.655201,-11.283586 0.275638,-1.844704 -0.761761,-1.454909 -5.913458,-1.476907 C 6.8072355,39.345085 -0.44899716,33.844354 6.5632375,22.35031 12.955663,11.87223 23.473848,11.872184 23.473848,11.872184 Z m -12.938764,6.755852 c -0.07479,-0.01873 -0.158099,-0.01793 -0.246019,0.0024 -0.08771,0.01991 -0.178662,0.05896 -0.26855,0.115309 l -9.276371,5.912358 c -0.134227,0.09254 -0.261343,0.21587 -0.371181,0.360143 -0.109587,0.144347 -0.198876,0.305543 -0.260667,0.470714 -0.01101,0.03082 -0.02102,0.06166 -0.02978,0.0924 -0.0086,0.03072 -0.01605,0.06129 -0.02231,0.09162 -0.0061,0.03007 -0.01105,0.05985 -0.01479,0.08925 -0.004,0.02967 -0.0069,0.05893 -0.0085,0.08767 -0.0015,0.02876 -0.0017,0.05697 -6.25e-4,0.08451 8.02e-4,0.02756 0.0028,0.05445 0.0061,0.08056 0.0033,0.02584 0.0079,0.05087 0.01353,0.07503 0.0057,0.02438 0.01255,0.04784 0.0206,0.07029 0.0085,0.02214 0.01811,0.04322 0.02885,0.06318 0.01021,0.02036 0.02155,0.0396 0.03395,0.05765 0.01263,0.01783 0.02631,0.03443 0.041,0.04976 l 5.321003,5.808895 c 0.0828,0.07653 0.189337,0.118166 0.311193,0.121628 0.061,0.0021 0.125968,-0.0077 0.19291,-0.02922 0.06675,-0.02133 0.134775,-0.05405 0.201936,-0.09714 0.09192,-0.05854 0.181224,-0.133371 0.263901,-0.221141 0.08329,-0.08792 0.158686,-0.187619 0.222743,-0.294591 0.06366,-0.106731 0.115042,-0.218986 0.151808,-0.331712 l 3.948777,-11.704694 c 0.04035,-0.113089 0.06541,-0.225687 0.07402,-0.332501 0.0084,-0.106447 2.27e-4,-0.205396 -0.02405,-0.292221 -0.02414,-0.08706 -0.06407,-0.160608 -0.117933,-0.217192 -0.05203,-0.05565 -0.116877,-0.0939 -0.191483,-0.11294 z"
       sodipodi:nodetypes="cscsssscccccccccccccccccccccccccccccccc" /><path
       id="path5240"
       style="fill:url(#linearGradient5242);fill-opacity:1;stroke:none;stroke-width:0.404372px;stroke-linecap:butt;stroke-linejoin:miter;stroke-opacity:1"
       d="m 26.70011,52.127816 c 0,0 12.186316,-37.029253 12.710919,-38.670299 0.524598,-1.641042 1.577364,-1.585105 1.577364,-1.585105 h 7.794424 c 2.151015,0 -2.379563,9.438887 -2.655201,11.283586 -0.275638,1.844704 0.761761,1.454909 5.913458,1.476907 5.151689,0.02201 12.407922,5.522741 5.395688,17.016785 -6.392426,10.47808 -16.910611,10.478126 -16.910611,10.478126 z m 12.938764,-6.755852 c 0.07479,0.01873 0.158099,0.01793 0.246019,-0.0024 0.08771,-0.01991 0.178662,-0.05896 0.26855,-0.115309 l 9.276371,-5.912358 c 0.134227,-0.09254 0.261343,-0.21587 0.371181,-0.360143 0.109587,-0.144347 0.198876,-0.305543 0.260667,-0.470714 0.01101,-0.03082 0.02102,-0.06166 0.02978,-0.0924 0.0086,-0.03072 0.01605,-0.06129 0.02231,-0.09162 0.0061,-0.03007 0.01105,-0.05985 0.01479,-0.08925 0.004,-0.02967 0.0069,-0.05893 0.0085,-0.08767 0.0014,-0.02876 0.0017,-0.05697 6.25e-4,-0.08451 -8.02e-4,-0.02756 -0.0028,-0.05445 -0.0061,-0.08056 -0.0033,-0.02584 -0.0079,-0.05087 -0.01353,-0.07503 -0.0057,-0.02438 -0.01255,-0.04784 -0.0206,-0.07029 -0.0085,-0.02214 -0.01811,-0.04322 -0.02885,-0.06318 -0.01022,-0.02036 -0.02155,-0.0396 -0.03395,-0.05765 -0.01263,-0.01783 -0.02631,-0.03443 -0.041,-0.04976 l -5.321003,-5.808895 c -0.0828,-0.07653 -0.189337,-0.118166 -0.311193,-0.121628 -0.061,-0.0021 -0.125968,0.0077 -0.19291,0.02922 -0.06675,0.02133 -0.134775,0.05405 -0.201936,0.09714 -0.09192,0.05854 -0.181224,0.133371 -0.263901,0.221141 -0.08329,0.08792 -0.158686,0.187619 -0.222743,0.294591 -0.06366,0.106731 -0.115042,0.218986 -0.151808,0.331712 L 39.37942,44.417095 c -0.04035,0.113089 -0.06541,0.225687 -0.07402,0.332501 -0.0084,0.106447 -2.27e-4,0.205396 0.02405,0.292221 0.02414,0.08706 0.06407,0.160608 0.117933,0.217192 0.05203,0.05565 0.116877,0.0939 0.191483,0.11294 z"
       sodipodi:nodetypes="cscsssscccccccccccccccccccccccccccccccc" /></g></svg>
