<?xml version="1.0" encoding="UTF-8" standalone="no"?>
<svg
   id="Apps-Visual-Studio-Code"
   width="64"
   height="64"
   enable-background="new 0 0 1024 1024"
   image-rendering="optimizeSpeed"
   version="1.1"
   viewBox="0 0 64 64"
   sodipodi:docname="remote-desktop.svg"
   inkscape:version="1.2.2 (b0a8486541, 2022-12-01)"
   xmlns:inkscape="http://www.inkscape.org/namespaces/inkscape"
   xmlns:sodipodi="http://sodipodi.sourceforge.net/DTD/sodipodi-0.dtd"
   xmlns:xlink="http://www.w3.org/1999/xlink"
   xmlns="http://www.w3.org/2000/svg"
   xmlns:svg="http://www.w3.org/2000/svg"
   xmlns:rdf="http://www.w3.org/1999/02/22-rdf-syntax-ns#"
   xmlns:cc="http://creativecommons.org/ns#"
   xmlns:dc="http://purl.org/dc/elements/1.1/">
  <sodipodi:namedview
     id="namedview26337"
     pagecolor="#ffffff"
     bordercolor="#999999"
     borderopacity="1"
     inkscape:showpageshadow="0"
     inkscape:pageopacity="0"
     inkscape:pagecheckerboard="0"
     inkscape:deskcolor="#d1d1d1"
     showgrid="false"
     inkscape:zoom="6.328125"
     inkscape:cx="23.545679"
     inkscape:cy="15.802469"
     inkscape:window-width="1920"
     inkscape:window-height="962"
     inkscape:window-x="0"
     inkscape:window-y="40"
     inkscape:window-maximized="1"
     inkscape:current-layer="Apps-Visual-Studio-Code" />
  <metadata
     id="metadata26281">
    <rdf:RDF>
      <cc:Work
         rdf:about="">
        <dc:format>image/svg+xml</dc:format>
        <dc:type
           rdf:resource="http://purl.org/dc/dcmitype/StillImage" />
      </cc:Work>
    </rdf:RDF>
  </metadata>
  <defs
     id="defs26312">
    <style
       type="text/css"
       id="style26283" />
    <style
       type="text/css"
       id="style26285" />
    <linearGradient
       id="linearGradient29240-3"
       x1="32"
       x2="32"
       y1="44"
       y2="52"
       gradientTransform="matrix(0.79998,0,0,1,6.4007,0)"
       gradientUnits="userSpaceOnUse">
      <stop
         stop-color="#818990"
         offset="0"
         id="stop26287" />
      <stop
         stop-color="#9fa8b0"
         offset="1"
         id="stop26289" />
    </linearGradient>
    <linearGradient
       id="linearGradient1455-5"
       x1="4"
       x2="60"
       y1="27"
       y2="27"
       gradientTransform="matrix(1,0,0,1.0556,66.028,26.343)"
       gradientUnits="userSpaceOnUse">
      <stop
         stop-color="#555a5f"
         offset="0"
         id="stop26292" />
      <stop
         stop-color="#4b4f53"
         offset="1"
         id="stop26294" />
    </linearGradient>
    <linearGradient
       id="linearGradient17498-6"
       x1="4"
       x2="60"
       y1="9"
       y2="45"
       gradientTransform="matrix(0.96428,0,0,1,67.171,27.843)"
       gradientUnits="userSpaceOnUse">
      <stop
         stop-color="#3fe3e7"
         offset="0"
         id="stop26297" />
      <stop
         stop-color="#066bbc"
         offset="1"
         id="stop26299" />
    </linearGradient>
    <linearGradient
       id="linearGradient1229"
       x1="17"
       x2="17"
       y1="7"
       y2="51"
       gradientTransform="matrix(0.93334,0,0,0.93334,-30.394,-54.786)"
       gradientUnits="userSpaceOnUse">
      <stop
         stop-color="#6c7378"
         offset="0"
         id="stop26302" />
      <stop
         stop-color="#42464a"
         offset="1"
         id="stop26304" />
    </linearGradient>
    <linearGradient
       id="linearGradient1242"
       x1="-9"
       x2="45"
       y1="50"
       y2="50"
       gradientTransform="matrix(0.93334,0,0,0.93334,-30.394,-54.786)"
       gradientUnits="userSpaceOnUse">
      <stop
         stop-color="#a1aab3"
         offset="0"
         id="stop26307" />
      <stop
         stop-color="#818990"
         offset="1"
         id="stop26309" />
    </linearGradient>
    <linearGradient
       inkscape:collect="always"
       xlink:href="#linearGradient11856"
       id="linearGradient18018"
       gradientUnits="userSpaceOnUse"
       x1="398.27402"
       y1="70.976974"
       x2="470.46307"
       y2="70.976974" />
    <linearGradient
       inkscape:collect="always"
       id="linearGradient11856">
      <stop
         style="stop-color:#18a5ff;stop-opacity:1"
         offset="0"
         id="stop11852" />
      <stop
         style="stop-color:#7f53fe;stop-opacity:1"
         offset="1"
         id="stop11854" />
    </linearGradient>
    <linearGradient
       inkscape:collect="always"
       xlink:href="#linearGradient8260"
       id="linearGradient8262"
       x1="457.65158"
       y1="17.401951"
       x2="457.65158"
       y2="68.780685"
       gradientUnits="userSpaceOnUse" />
    <linearGradient
       inkscape:collect="always"
       id="linearGradient8260">
      <stop
         style="stop-color:#18a5ff;stop-opacity:1"
         offset="0"
         id="stop8256" />
      <stop
         style="stop-color:#4b1dbb;stop-opacity:1"
         offset="1"
         id="stop8258" />
    </linearGradient>
    <linearGradient
       inkscape:collect="always"
       xlink:href="#linearGradient4459"
       id="linearGradient3832"
       x1="408.16336"
       y1="27.192556"
       x2="460.4751"
       y2="27.192556"
       gradientUnits="userSpaceOnUse" />
    <linearGradient
       inkscape:collect="always"
       id="linearGradient4459">
      <stop
         style="stop-color:#19a3fe;stop-opacity:1"
         offset="0"
         id="stop4455" />
      <stop
         style="stop-color:#236cd2;stop-opacity:1"
         offset="1"
         id="stop4457" />
    </linearGradient>
    <linearGradient
       inkscape:collect="always"
       xlink:href="#linearGradient2117"
       id="linearGradient2119"
       x1="408.51642"
       y1="17.385881"
       x2="408.68668"
       y2="68.245064"
       gradientUnits="userSpaceOnUse" />
    <linearGradient
       inkscape:collect="always"
       id="linearGradient2117">
      <stop
         style="stop-color:#18a5ff;stop-opacity:1"
         offset="0"
         id="stop2113" />
      <stop
         style="stop-color:#4c1fba;stop-opacity:1"
         offset="1"
         id="stop2115" />
    </linearGradient>
    <linearGradient
       inkscape:collect="always"
       xlink:href="#linearGradient11856"
       id="linearGradient28180"
       gradientUnits="userSpaceOnUse"
       x1="398.27402"
       y1="70.976974"
       x2="470.46307"
       y2="70.976974" />
    <linearGradient
       inkscape:collect="always"
       xlink:href="#linearGradient11856"
       id="linearGradient28182"
       gradientUnits="userSpaceOnUse"
       x1="398.27402"
       y1="70.976974"
       x2="470.46307"
       y2="70.976974" />
    <linearGradient
       inkscape:collect="always"
       xlink:href="#linearGradient8260"
       id="linearGradient28184"
       gradientUnits="userSpaceOnUse"
       x1="457.65158"
       y1="17.401951"
       x2="457.65158"
       y2="68.780685" />
    <linearGradient
       inkscape:collect="always"
       xlink:href="#linearGradient4459"
       id="linearGradient28186"
       gradientUnits="userSpaceOnUse"
       x1="408.16336"
       y1="27.192556"
       x2="460.4751"
       y2="27.192556" />
    <linearGradient
       inkscape:collect="always"
       xlink:href="#linearGradient2117"
       id="linearGradient28188"
       gradientUnits="userSpaceOnUse"
       x1="408.51642"
       y1="17.385881"
       x2="408.68668"
       y2="68.245064" />
    <linearGradient
       inkscape:collect="always"
       xlink:href="#linearGradient11856"
       id="linearGradient28190"
       gradientUnits="userSpaceOnUse"
       x1="398.27402"
       y1="70.976974"
       x2="470.46307"
       y2="70.976974" />
    <linearGradient
       inkscape:collect="always"
       xlink:href="#linearGradient13727"
       id="linearGradient1016"
       gradientUnits="userSpaceOnUse"
       x1="22.225"
       y1="12.435"
       x2="34.395"
       y2="12.435"
       gradientTransform="matrix(3.5513889,0,0,3.5513889,-76.926778,-4.3663357)" />
    <linearGradient
       id="linearGradient13727"
       x1="22.225"
       x2="34.395"
       y1="12.435"
       y2="12.435"
       gradientUnits="userSpaceOnUse">
      <stop
         stop-color="#07decd"
         offset="0"
         id="stop297" />
      <stop
         stop-color="#2aa6f2"
         offset="1"
         id="stop299" />
    </linearGradient>
    <linearGradient
       inkscape:collect="always"
       xlink:href="#linearGradient5683"
       id="linearGradient1018"
       gradientUnits="userSpaceOnUse"
       x1="22.225"
       y1="5.1592999"
       x2="34.395"
       y2="5.1592999"
       gradientTransform="matrix(3.5513889,0,0,3.5513889,-76.926778,-4.3663357)" />
    <linearGradient
       id="linearGradient5683"
       x1="22.225"
       x2="34.395"
       y1="5.1592999"
       y2="5.1592999"
       gradientUnits="userSpaceOnUse">
      <stop
         stop-color="#3ba2e5"
         offset="0"
         id="stop292" />
      <stop
         stop-color="#03decd"
         offset="1"
         id="stop294" />
    </linearGradient>
    <linearGradient
       id="linearGradient65902"
       x1="31.007999"
       x2="32.847"
       y1="7.6949"
       y2="9.5346003"
       gradientUnits="userSpaceOnUse">
      <stop
         stop-color="#2273ba"
         offset="0"
         id="stop307" />
      <stop
         stop-color="#26acee"
         offset="1"
         id="stop309" />
    </linearGradient>
    <linearGradient
       inkscape:collect="always"
       xlink:href="#linearGradient22356"
       id="linearGradient1022"
       gradientUnits="userSpaceOnUse"
       x1="23.811001"
       y1="9.5258999"
       x2="25.664"
       y2="7.6728001"
       gradientTransform="matrix(3.5513889,0,0,3.5513889,-76.926778,-4.3663357)" />
    <linearGradient
       id="linearGradient22356"
       x1="23.811001"
       x2="25.664"
       y1="9.5258999"
       y2="7.6728001"
       gradientUnits="userSpaceOnUse">
      <stop
         stop-color="#0bd8d1"
         offset="0"
         id="stop302" />
      <stop
         stop-color="#0aa8a7"
         offset="1"
         id="stop304" />
    </linearGradient>
    <linearGradient
       inkscape:collect="always"
       xlink:href="#linearGradient22356"
       id="linearGradient29351"
       gradientUnits="userSpaceOnUse"
       x1="23.811001"
       y1="9.5258999"
       x2="25.664"
       y2="7.6728001"
       gradientTransform="matrix(3.5513889,0,0,3.5513889,-76.926778,-4.3663357)" />
    <linearGradient
       inkscape:collect="always"
       xlink:href="#linearGradient11856"
       id="linearGradient30159"
       gradientUnits="userSpaceOnUse"
       x1="398.27402"
       y1="70.976974"
       x2="470.46307"
       y2="70.976974"
       gradientTransform="matrix(0.6329032,0,0,0.6329032,-236.15056,9.4713518)" />
  </defs>
  <path
     id="path324"
     style="fill:url(#linearGradient1018);paint-order:stroke fill markers"
     d="M 6.7226562,5.0292969 C 4.1065638,5.0292969 2,7.1358251 2,9.7519531 V 31.337891 l 8.457031,-8.455079 v -6.521484 c 0,-1.59244 1.282594,-2.875 2.875,-2.875 h 20.560547 c 1.592442,0 2.875,1.28256 2.875,2.875 v 4.136719 h 8.455078 V 9.7519531 c 0,-2.6160925 -2.104575,-4.7226562 -4.720703,-4.7226562 z"
     sodipodi:nodetypes="ssccssssccsss" />
  <path
     d="m 10.457348,22.882761 -7.82e-4,8.456567 H 1.9999992 l 8.4565668,-8.456567 z"
     fill="url(#linearGradient22356)"
     id="path328"
     style="fill:url(#linearGradient29351);stroke-width:3.55139"
     sodipodi:nodetypes="ccccc" />
  <path
     id="path330"
     style="fill:url(#linearGradient1016);paint-order:stroke fill markers"
     d="M 2.0019531,31.339844 V 43.53125 c 0,2.616092 2.1045752,4.720703 4.7207031,4.720703 h 9.1914058 c -0.06132,-0.08137 -0.12153,-0.161749 -0.175781,-0.240234 -0.01696,-0.02457 -0.03055,-0.04802 -0.04687,-0.07227 v -7.748047 -0.394531 h -2.359375 c -1.592441,0 -2.875,-1.28256 -2.875,-2.875 v -5.582031 z"
     sodipodi:nodetypes="csscccccsscc" />
  <path
     d="m 10.457348,22.882761 -7.82e-4,8.456567 H 1.9999992 l 8.4565668,-8.456567 z"
     fill="url(#linearGradient22356)"
     id="path336"
     style="fill:url(#linearGradient1022);stroke-width:3.55139"
     sodipodi:nodetypes="ccccc" />
  <g
     id="g18016"
     transform="matrix(0.6329032,0,0,0.6329032,-236.15056,9.4713518)">
    <path
       id="path18005"
       style="opacity:1;fill:url(#linearGradient28180);fill-opacity:1;fill-rule:evenodd;stroke-width:0.100341;stroke-linecap:round;stroke-linejoin:round;paint-order:stroke fill markers"
       d="m 419,69.228516 c -0.26047,-0.01166 -0.52115,-0.02225 -0.77539,-0.03711 -0.33944,-0.01984 -0.67302,-0.04341 -1.00195,-0.06836 -0.32894,-0.02495 -0.65407,-0.05216 -0.97266,-0.08203 -0.31859,-0.02987 -0.63104,-0.0611 -0.93945,-0.0957 -0.30842,-0.0346 -0.61176,-0.07219 -0.91016,-0.111328 -0.2984,-0.03913 -0.59231,-0.08152 -0.88086,-0.125 -0.28855,-0.04348 -0.5727,-0.08908 -0.85156,-0.136718 -0.27886,-0.04763 -0.55293,-0.09684 -0.82227,-0.148438 -0.26933,-0.0516 -0.53299,-0.104787 -0.79297,-0.160156 -0.25997,-0.05537 -0.51485,-0.112926 -0.76562,-0.171875 -0.25078,-0.05895 -0.49852,-0.119302 -0.74023,-0.181641 -0.24174,-0.06234 -0.47808,-0.125869 -0.71094,-0.191406 -0.23287,-0.06554 -0.46139,-0.132628 -0.68555,-0.201172 -0.22416,-0.06854 -0.44454,-0.139579 -0.66016,-0.210937 -0.21561,-0.07136 -0.42558,-0.142814 -0.63281,-0.216797 -0.20723,-0.07398 -0.41037,-0.150147 -0.60937,-0.226563 -0.19901,-0.07642 -0.39499,-0.153764 -0.58594,-0.232422 -0.3819,-0.157313 -0.74701,-0.31924 -1.09766,-0.484375 -0.35065,-0.165132 -0.6871,-0.332482 -1.00781,-0.503906 -0.3207,-0.171424 -0.6259,-0.347256 -0.91797,-0.523437 -0.29206,-0.176184 -0.57121,-0.353792 -0.83594,-0.533203 -0.26472,-0.179414 -0.5152,-0.359904 -0.7539,-0.541016 -0.2387,-0.181113 -0.46573,-0.361724 -0.67969,-0.542969 -0.21396,-0.181245 -0.41493,-0.363112 -0.60547,-0.542969 -0.19053,-0.179854 -0.37064,-0.35821 -0.53906,-0.535156 -0.16842,-0.176946 -0.32503,-0.352878 -0.47266,-0.52539 -0.14762,-0.172515 -0.28592,-0.341252 -0.41406,-0.507813 -0.12814,-0.166561 -0.24551,-0.33115 -0.35547,-0.490234 -0.0246,-0.03561 -0.0446,-0.06833 -0.0684,-0.103516 v 4.064453 c 0,0.462153 0.023,0.919351 0.0684,1.369141 0.0454,0.449783 0.11256,0.892902 0.20117,1.328125 0.0886,0.435217 0.19852,0.862795 0.32813,1.28125 0.12961,0.418448 0.27886,0.827086 0.44726,1.226562 0.16841,0.399483 0.35555,0.789661 0.56055,1.167969 0.205,0.378308 0.42858,0.744685 0.66797,1.099609 0.23939,0.354931 0.496,0.697994 0.76758,1.027344 0.27158,0.32935 0.55781,0.645699 0.85937,0.947266 0.30157,0.301561 0.61792,0.587794 0.94727,0.859375 0.32935,0.271575 0.67241,0.528186 1.02734,0.767578 0.35493,0.239392 0.7213,0.462968 1.09961,0.667969 0.37831,0.204994 0.76849,0.392146 1.16797,0.560546 0.39948,0.168407 0.80811,0.317657 1.22656,0.447266 0.41846,0.129609 0.84603,0.239516 1.28125,0.328125 0.43523,0.08861 0.87834,0.155766 1.32813,0.201172 0.44979,0.04541 0.90699,0.06836 1.36914,0.06836 h 20.16016 c -0.45297,0 -0.90096,-0.0219 -1.3418,-0.06641 -0.44085,-0.0445 -0.87422,-0.112372 -1.30078,-0.199219 -0.42657,-0.08685 -0.84573,-0.193281 -1.25586,-0.320312 -0.41013,-0.127031 -0.81159,-0.274396 -1.20313,-0.439453 -0.39154,-0.165057 -0.77374,-0.347905 -1.14453,-0.548828 -0.37078,-0.200924 -0.73025,-0.419666 -1.07812,-0.654297 -0.34788,-0.234632 -0.68502,-0.485773 -1.00782,-0.751953 -0.3228,-0.26618 -0.63216,-0.546228 -0.92773,-0.841797 -0.29557,-0.29557 -0.57562,-0.606888 -0.8418,-0.929688 -0.26618,-0.3228 -0.51732,-0.657987 -0.75195,-1.005859 -0.23463,-0.347872 -0.45337,-0.707341 -0.6543,-1.078125 -0.20092,-0.370784 -0.38377,-0.752994 -0.54883,-1.144531 C 419.22805,69.903085 419.11105,69.566919 419,69.228516 Z" />
    <path
       id="path18003"
       style="opacity:1;fill:url(#linearGradient28182);fill-opacity:1;fill-rule:evenodd;stroke-width:0.100341;stroke-linecap:round;stroke-linejoin:round;paint-order:stroke fill markers"
       d="m 419,69.228516 c 0.11105,0.338402 0.22805,0.674568 0.36523,1 0.16506,0.391537 0.34791,0.773747 0.54883,1.144531 0.20093,0.370784 0.41967,0.730253 0.6543,1.078125 0.23463,0.347872 0.48577,0.683059 0.75195,1.005859 0.26618,0.3228 0.54623,0.634118 0.8418,0.929688 0.29557,0.295569 0.60493,0.575617 0.92773,0.841797 0.3228,0.26618 0.65994,0.517321 1.00782,0.751953 0.34787,0.234631 0.70734,0.453373 1.07812,0.654297 0.37079,0.200923 0.75299,0.383771 1.14453,0.548828 0.39154,0.165057 0.793,0.312422 1.20313,0.439453 0.41013,0.127031 0.82929,0.233466 1.25586,0.320312 0.42656,0.08685 0.85993,0.154716 1.30078,0.199219 0.44084,0.0445 0.88883,0.06641 1.3418,0.06641 h 5.88867 20.6914 c 0.45296,0 0.90096,-0.0219 1.3418,-0.06641 0.44084,-0.0445 0.87421,-0.112372 1.30078,-0.199219 0.42657,-0.08685 0.84573,-0.193281 1.25586,-0.320312 0.41013,-0.127031 0.81159,-0.274396 1.20313,-0.439453 0.39153,-0.165057 0.77374,-0.347905 1.14453,-0.548828 0.37078,-0.200924 0.73025,-0.419666 1.07812,-0.654297 0.34787,-0.234632 0.68306,-0.485773 1.00586,-0.751953 0.3228,-0.26618 0.63412,-0.546228 0.92969,-0.841797 0.29557,-0.29557 0.57562,-0.606888 0.8418,-0.929688 0.26618,-0.3228 0.51732,-0.657987 0.75195,-1.005859 0.23463,-0.347872 0.45337,-0.707341 0.6543,-1.078125 0.20092,-0.370784 0.38377,-0.752994 0.54882,-1.144531 0.16506,-0.391538 0.31243,-0.792993 0.43946,-1.203125 0.12703,-0.410132 0.23346,-0.829292 0.32031,-1.25586 0.0869,-0.426567 0.15472,-0.859937 0.19922,-1.300781 0.0445,-0.440844 0.0664,-0.888836 0.0664,-1.341797 v -4.361328 c -0.082,0.09291 -0.1634,0.185821 -0.25586,0.285156 -0.12047,0.129448 -0.24985,0.26324 -0.38867,0.402344 -0.13881,0.139104 -0.28745,0.284339 -0.44531,0.431641 -0.15786,0.1473 -0.32433,0.29713 -0.50195,0.451172 -0.17763,0.15404 -0.36634,0.311379 -0.56446,0.470703 -0.19811,0.159322 -0.40568,0.321227 -0.625,0.484375 -0.21931,0.163147 -0.45016,0.328626 -0.6914,0.49414 -0.24125,0.165514 -0.49392,0.331625 -0.75781,0.498047 -0.2639,0.166423 -0.53892,0.332174 -0.82618,0.498047 -0.28725,0.165873 -0.58708,0.330249 -0.89843,0.494141 -0.31135,0.16389 -0.63454,0.327825 -0.97071,0.488281 -0.33616,0.160456 -0.68516,0.319041 -1.04687,0.474609 -0.36171,0.155568 -0.73507,0.307806 -1.12305,0.457031 -0.38798,0.149227 -0.79011,0.294116 -1.20508,0.435547 -0.41496,0.141433 -0.84442,0.279925 -1.28711,0.41211 -0.44268,0.132185 -0.89801,0.259374 -1.36914,0.380859 -0.47112,0.121485 -0.95674,0.236372 -1.45703,0.345703 -0.50029,0.109331 -1.0167,0.21287 -1.54687,0.308594 -0.53018,0.09572 -1.07398,0.183007 -1.63477,0.263672 -0.56079,0.08066 -1.13834,0.154598 -1.73047,0.21875 -0.59213,0.06415 -1.20003,0.119831 -1.82422,0.166015 -0.62419,0.04619 -1.26489,0.08261 -1.92187,0.109376 -0.32849,0.01338 -0.65927,0.02495 -0.9961,0.0332 -0.33681,0.0083 -0.67819,0.01268 -1.02343,0.01563 -0.34525,0.0029 -0.69507,0.0045 -1.04883,0.002 -0.35376,-0.0025 -0.71186,-0.0094 -1.07422,-0.01758 -0.36236,-0.0082 -0.72855,-0.01914 -1.09961,-0.0332 -0.0855,-0.0032 -0.17377,-0.0082 -0.25976,-0.01172 h -21.10352 c -0.28831,0 -0.56989,-0.02505 -0.85352,-0.04297 -0.075,-0.0016 -0.15206,-0.002 -0.22656,-0.0039 -0.36093,-0.009 -0.7163,-0.02062 -1.0664,-0.03516 -0.0879,-0.0036 -0.17249,-0.0098 -0.25977,-0.01367 z" />
    <path
       id="path2062"
       style="opacity:1;fill:#fecf40;fill-rule:evenodd;stroke-width:0.100341;stroke-linecap:round;stroke-linejoin:round;paint-order:stroke fill markers"
       d="m 471.08398,60.751953 c -0.084,0.09531 -0.16861,0.190839 -0.26367,0.292969 -0.1204,0.129364 -0.24998,0.263326 -0.38867,0.402344 -0.13869,0.139018 -0.28566,0.282472 -0.44336,0.429687 -0.1577,0.147215 -0.32646,0.29917 -0.5039,0.453125 -0.17745,0.153955 -0.36459,0.311464 -0.5625,0.470703 -0.19792,0.159239 -0.40588,0.319356 -0.625,0.482422 -0.21913,0.163066 -0.44839,0.328704 -0.68946,0.494141 -0.24106,0.165436 -0.49407,0.331696 -0.75781,0.498047 -0.26374,0.16635 -0.53903,0.332239 -0.82617,0.498047 -0.28715,0.165808 -0.58524,0.330313 -0.89649,0.49414 -0.31124,0.163827 -0.63658,0.327888 -0.97265,0.488281 -0.33608,0.160393 -0.6833,0.31715 -1.04492,0.472657 -0.36163,0.155506 -0.73711,0.309817 -1.125,0.458984 -0.3879,0.149167 -0.78824,0.294171 -1.20313,0.435547 -0.41489,0.141376 -0.8445,0.278025 -1.28711,0.410156 -0.44261,0.132132 -0.89809,0.259425 -1.36914,0.380859 -0.47105,0.121435 -0.95681,0.236419 -1.45703,0.345704 -0.50022,0.109285 -1.01482,0.21291 -1.54492,0.308593 -0.53011,0.09568 -1.076,0.184997 -1.63672,0.265625 -0.56072,0.08063 -1.13646,0.152676 -1.72852,0.216797 -0.59205,0.06412 -1.2001,0.119855 -1.82422,0.166016 -0.62411,0.04616 -1.26497,0.08263 -1.92187,0.109375 -0.32845,0.01337 -0.66127,0.02495 -0.99805,0.0332 -0.33678,0.0082 -0.67823,0.01268 -1.02344,0.01563 -0.3452,0.0029 -0.69316,0.0045 -1.04687,0.002 -0.35371,-0.0025 -0.7119,-0.0094 -1.07422,-0.01758 -0.36232,-0.0082 -0.7286,-0.01913 -1.09961,-0.0332 -0.0141,-5.37e-4 -0.0288,-0.0014 -0.043,-0.002 h -0.21679 c 0.086,0.0036 0.17423,0.0085 0.25976,0.01172 0.37106,0.01407 0.73725,0.02499 1.09961,0.0332 0.36236,0.0082 0.72046,0.01503 1.07422,0.01758 0.35376,0.0025 0.70358,9.94e-4 1.04883,-0.002 0.34524,-0.0029 0.68661,-0.0074 1.02343,-0.01563 0.33683,-0.0083 0.66761,-0.01982 0.9961,-0.0332 0.65698,-0.02677 1.29768,-0.06319 1.92187,-0.109376 0.62419,-0.04619 1.23209,-0.101864 1.82422,-0.166015 0.59213,-0.06415 1.16968,-0.138086 1.73047,-0.21875 0.56079,-0.08066 1.10459,-0.167948 1.63477,-0.263672 0.53017,-0.09572 1.04658,-0.199263 1.54687,-0.308594 0.50029,-0.109331 0.98591,-0.224218 1.45703,-0.345703 0.47113,-0.121485 0.92646,-0.248674 1.36914,-0.380859 0.44269,-0.132185 0.87215,-0.270677 1.28711,-0.41211 0.41497,-0.141432 0.8171,-0.28632 1.20508,-0.435547 0.38798,-0.149226 0.76134,-0.301463 1.12305,-0.457031 0.36171,-0.155568 0.71071,-0.314153 1.04687,-0.474609 0.33617,-0.160456 0.65936,-0.32439 0.97071,-0.488281 0.31135,-0.163892 0.61118,-0.328268 0.89843,-0.494141 0.28726,-0.165873 0.56228,-0.331624 0.82618,-0.498047 0.26389,-0.166422 0.51656,-0.332533 0.75781,-0.498047 0.24124,-0.165514 0.47209,-0.330992 0.6914,-0.49414 0.21932,-0.163148 0.42689,-0.325052 0.625,-0.484375 0.19812,-0.159324 0.38683,-0.316662 0.56446,-0.470703 0.17762,-0.154042 0.34409,-0.303871 0.50195,-0.451172 0.15786,-0.147302 0.3065,-0.292537 0.44531,-0.431641 0.13882,-0.139104 0.26819,-0.272896 0.38867,-0.402344 0.0925,-0.09934 0.17381,-0.192241 0.25586,-0.285156 z" />
    <path
       id="path2060"
       style="opacity:1;fill:url(#linearGradient28184);fill-opacity:1;fill-rule:evenodd;stroke-width:0.100341;stroke-linecap:round;stroke-linejoin:round;paint-order:stroke fill markers"
       d="m 460.81836,35.048828 c 0.0341,0.333185 0.0527,0.671195 0.0527,1.013672 V 39.587891 43.75 56.044922 c 0,6.545018 -4.69151,11.941983 -10.90625,13.05664 -0.77136,0.138352 -1.56263,0.222657 -2.375,0.222657 h -4.86328 c 0.0142,5.45e-4 0.0288,0.0014 0.043,0.002 0.37101,0.01407 0.73729,0.02499 1.09961,0.0332 0.36232,0.0082 0.72051,0.01503 1.07422,0.01758 0.35371,0.0025 0.70167,9.89e-4 1.04687,-0.002 0.34521,-0.0029 0.68666,-0.0074 1.02344,-0.01563 0.33678,-0.0082 0.6696,-0.01983 0.99805,-0.0332 0.6569,-0.02675 1.29776,-0.06321 1.92187,-0.109375 0.62412,-0.04616 1.23217,-0.101895 1.82422,-0.166016 0.59206,-0.06412 1.1678,-0.136168 1.72852,-0.216797 0.56072,-0.08063 1.10661,-0.169942 1.63672,-0.265625 0.5301,-0.09568 1.0447,-0.199308 1.54492,-0.308593 0.50022,-0.109285 0.98598,-0.224269 1.45703,-0.345704 0.47105,-0.121433 0.92653,-0.248727 1.36914,-0.380859 0.44261,-0.132131 0.87222,-0.26878 1.28711,-0.410156 0.41489,-0.141376 0.81523,-0.28638 1.20313,-0.435547 0.38788,-0.149167 0.76337,-0.303479 1.125,-0.458984 0.36161,-0.155507 0.70884,-0.312264 1.04492,-0.472657 0.33607,-0.160392 0.66141,-0.324454 0.97265,-0.488281 0.31125,-0.163827 0.60934,-0.328333 0.89649,-0.49414 0.28714,-0.165808 0.56243,-0.331698 0.82617,-0.498047 0.26374,-0.166351 0.51675,-0.332611 0.75781,-0.498047 0.24107,-0.165437 0.47033,-0.331075 0.68946,-0.494141 0.21911,-0.163066 0.42708,-0.323183 0.625,-0.482422 0.1979,-0.159239 0.38505,-0.316748 0.5625,-0.470703 0.17743,-0.153955 0.3462,-0.30591 0.5039,-0.453125 0.1577,-0.147215 0.30467,-0.29067 0.44336,-0.429687 0.13869,-0.139018 0.26827,-0.27298 0.38867,-0.402344 0.0951,-0.10213 0.17964,-0.197654 0.26367,-0.292969 V 26.828125 c 0,-5.210653 -4.19555,-9.404297 -9.40625,-9.404297 h -10.70312 c 0.12149,0.03604 0.24206,0.06839 0.36523,0.109375 0.23057,0.07672 0.46425,0.162373 0.69922,0.257813 0.23497,0.09544 0.47152,0.200417 0.70899,0.316406 0.23746,0.115989 0.47484,0.242492 0.71289,0.380859 0.23805,0.138367 0.47613,0.288575 0.71289,0.451172 0.23675,0.162597 0.47152,0.336732 0.70508,0.525391 0.23355,0.188658 0.46685,0.390872 0.69531,0.607422 0.22846,0.21655 0.45237,0.44904 0.67383,0.695312 0.22146,0.246272 0.43978,0.507331 0.65234,0.785156 0.21256,0.277825 0.41933,0.571604 0.62109,0.882813 0.20176,0.311209 0.39884,0.639905 0.5879,0.986328 0.18905,0.346423 0.37046,0.710282 0.54492,1.09375 0.17445,0.383468 0.34205,0.786641 0.5,1.208984 0.15795,0.422343 0.30577,0.865076 0.44531,1.328125 0.13954,0.463049 0.26944,0.945586 0.38867,1.451172 0.11924,0.505586 0.22915,1.034031 0.32617,1.583985 0.097,0.549953 0.18099,1.122598 0.25391,1.71875 0.0729,0.596151 0.13473,1.215195 0.18164,1.859375 0.0323,0.443653 0.0491,0.915645 0.0684,1.382812 z" />
    <path
       id="path2087"
       style="opacity:1;fill:url(#linearGradient28186);fill-opacity:1;fill-rule:evenodd;stroke-width:0.100341;stroke-linecap:round;stroke-linejoin:round;paint-order:stroke fill markers"
       d="m 450.94336,17.423828 h -35.125 c -0.10739,0.05621 -0.21355,0.107762 -0.32227,0.169922 -0.19371,0.110754 -0.38936,0.232349 -0.58593,0.363281 -0.19658,0.130933 -0.39408,0.271057 -0.5918,0.423828 -0.0989,0.07639 -0.19805,0.156121 -0.29688,0.238282 -0.0988,0.08216 -0.19829,0.167717 -0.29687,0.255859 -0.0986,0.08814 -0.19681,0.179103 -0.29492,0.273438 -0.0981,0.09433 -0.19554,0.192233 -0.29297,0.292968 -0.0974,0.100735 -0.19449,0.205157 -0.29102,0.3125 -0.0965,0.107344 -0.19364,0.217871 -0.28906,0.332032 -0.0954,0.114156 -0.18911,0.230377 -0.2832,0.351562 -0.0941,0.121185 -0.1887,0.246582 -0.28125,0.375 -0.0926,0.128418 -0.18265,0.26063 -0.27344,0.396484 -0.0908,0.135859 -0.18071,0.276414 -0.26953,0.419922 -0.0888,0.143508 -0.17704,0.290046 -0.26367,0.441406 -0.0866,0.151365 -0.17163,0.307371 -0.25586,0.466797 -0.0842,0.15943 -0.16839,0.322531 -0.25,0.490235 -0.0816,0.167703 -0.16145,0.33944 -0.24024,0.515625 -0.0788,0.176184 -0.15668,0.356145 -0.23242,0.541015 -0.0757,0.184874 -0.15022,0.374588 -0.22265,0.56836 -0.0725,0.193771 -0.14194,0.392826 -0.21094,0.595703 -0.069,0.202877 -0.13587,0.408903 -0.20117,0.621094 -0.0653,0.212186 -0.13001,0.430635 -0.19141,0.652343 -0.0614,0.221713 -0.12046,0.448245 -0.17774,0.679688 -0.0572,0.231442 -0.11307,0.467604 -0.16601,0.708984 -0.0529,0.241381 -0.102,0.486755 -0.15039,0.738282 -0.0484,0.251522 -0.0951,0.509603 -0.13867,0.771484 -0.0436,0.26188 -0.0844,0.528338 -0.12305,0.800781 -0.0386,0.272443 -0.0759,0.550772 -0.10938,0.833985 -0.0334,0.283208 -0.0638,0.571043 -0.0918,0.865234 -0.028,0.294191 -0.0538,0.593064 -0.0762,0.898437 -0.0224,0.305378 -0.042,0.616822 -0.0586,0.933594 -0.0138,0.263773 -0.0236,0.534835 -0.0332,0.806641 0.71955,-4.683186 4.73427,-8.251953 9.625,-8.251953 h 3.52539 26.18359 3.52539 c 5.01057,0 9.11407,3.741574 9.68555,8.59375 -0.0184,-0.414662 -0.0317,-0.83843 -0.0605,-1.234375 -0.0469,-0.644025 -0.10873,-1.263387 -0.18164,-1.859375 -0.0729,-0.595988 -0.1569,-1.167014 -0.2539,-1.716797 -0.097,-0.549784 -0.20697,-1.078573 -0.32617,-1.583985 -0.11921,-0.505411 -0.24918,-0.9883 -0.38868,-1.451171 -0.13949,-0.462872 -0.28742,-0.904009 -0.44531,-1.326172 -0.15789,-0.422164 -0.32561,-0.825697 -0.5,-1.208985 -0.17438,-0.383288 -0.35595,-0.747505 -0.54492,-1.09375 -0.18897,-0.346244 -0.38428,-0.673341 -0.58594,-0.984375 -0.20166,-0.311033 -0.40865,-0.605158 -0.62109,-0.882812 -0.21245,-0.277655 -0.43102,-0.539049 -0.65235,-0.785156 -0.22132,-0.246108 -0.44551,-0.476967 -0.67382,-0.69336 -0.22831,-0.216393 -0.45998,-0.418911 -0.69336,-0.607422 -0.23339,-0.188511 -0.46852,-0.362929 -0.70508,-0.52539 -0.23656,-0.162461 -0.47506,-0.312929 -0.71289,-0.451172 -0.23784,-0.138244 -0.47567,-0.265 -0.71289,-0.38086 -0.23723,-0.115859 -0.47427,-0.221097 -0.70899,-0.316406 -0.23471,-0.09531 -0.46696,-0.181223 -0.69726,-0.257812 -0.13266,-0.04412 -0.26188,-0.0788 -0.39258,-0.117188 z" />
    <path
       id="path2085"
       style="opacity:1;fill:#fecf40;fill-rule:evenodd;stroke-width:0.100341;stroke-linecap:round;stroke-linejoin:round;paint-order:stroke fill markers"
       d="m 450.94336,17.423828 c 0.1307,0.03838 0.25992,0.07307 0.39258,0.117188 0.2303,0.07659 0.46255,0.162504 0.69726,0.257812 0.23472,0.09531 0.47176,0.200547 0.70899,0.316406 0.23722,0.11586 0.47505,0.242616 0.71289,0.38086 0.23783,0.138243 0.47633,0.288711 0.71289,0.451172 0.23656,0.162461 0.47169,0.336879 0.70508,0.52539 0.23338,0.188511 0.46505,0.391029 0.69336,0.607422 0.22831,0.216393 0.4525,0.447252 0.67382,0.69336 0.22133,0.246107 0.4399,0.507501 0.65235,0.785156 0.21244,0.277654 0.41943,0.571779 0.62109,0.882812 0.20166,0.311034 0.39697,0.638131 0.58594,0.984375 0.18897,0.346245 0.37054,0.710462 0.54492,1.09375 0.17439,0.383288 0.34211,0.786821 0.5,1.208985 0.15789,0.422163 0.30582,0.8633 0.44531,1.326172 0.1395,0.462871 0.26947,0.94576 0.38868,1.451171 0.1192,0.505412 0.22916,1.034201 0.32617,1.583985 0.097,0.549783 0.181,1.120809 0.2539,1.716797 0.0729,0.595988 0.13475,1.21535 0.18164,1.859375 0.0288,0.395945 0.0421,0.819713 0.0605,1.234375 0.006,0.04949 0.0125,0.09872 0.0176,0.148437 -0.0192,-0.467167 -0.036,-0.939159 -0.0684,-1.382812 -0.0469,-0.64418 -0.10872,-1.263224 -0.18164,-1.859375 -0.0729,-0.596152 -0.15688,-1.168797 -0.25391,-1.71875 -0.097,-0.549954 -0.20693,-1.078399 -0.32617,-1.583985 -0.11923,-0.505586 -0.24913,-0.988123 -0.38867,-1.451172 -0.13954,-0.463049 -0.28736,-0.905782 -0.44531,-1.328125 -0.15795,-0.422343 -0.32555,-0.825516 -0.5,-1.208984 -0.17446,-0.383468 -0.35587,-0.747327 -0.54492,-1.09375 -0.18906,-0.346423 -0.38614,-0.675119 -0.5879,-0.986328 -0.20176,-0.311209 -0.40853,-0.604988 -0.62109,-0.882813 -0.21256,-0.277825 -0.43088,-0.538884 -0.65234,-0.785156 -0.22146,-0.246272 -0.44537,-0.478762 -0.67383,-0.695312 -0.22846,-0.21655 -0.46176,-0.418764 -0.69531,-0.607422 -0.23356,-0.188659 -0.46833,-0.362794 -0.70508,-0.525391 -0.23676,-0.162597 -0.47484,-0.312805 -0.71289,-0.451172 -0.23805,-0.138367 -0.47543,-0.26487 -0.71289,-0.380859 -0.23747,-0.115989 -0.47402,-0.220967 -0.70899,-0.316406 -0.23497,-0.09544 -0.46865,-0.181095 -0.69922,-0.257813 -0.12317,-0.04098 -0.24374,-0.07334 -0.36523,-0.109375 z" />
    <path
       id="path2057"
       style="opacity:1;fill:#fecf40;fill-rule:evenodd;stroke-width:0.100341;stroke-linecap:round;stroke-linejoin:round;paint-order:stroke fill markers"
       d="m 420.19141,69.263672 c -0.31474,-0.0085 -0.62715,-0.01852 -0.9336,-0.03125 -0.35003,-0.01454 -0.69384,-0.03094 -1.0332,-0.05078 -0.33936,-0.01984 -0.67505,-0.04341 -1.00391,-0.06836 -0.32885,-0.02495 -0.65219,-0.05217 -0.9707,-0.08203 -0.31851,-0.02987 -0.63112,-0.06111 -0.93945,-0.0957 -0.30834,-0.03459 -0.61184,-0.0722 -0.91016,-0.111328 -0.29832,-0.03913 -0.5924,-0.07958 -0.88086,-0.123047 -0.28846,-0.04347 -0.57084,-0.0891 -0.84961,-0.136719 -0.27877,-0.04762 -0.55302,-0.09881 -0.82226,-0.150391 -0.26925,-0.05158 -0.53504,-0.104801 -0.79493,-0.160156 -0.25988,-0.05536 -0.51494,-0.112941 -0.76562,-0.171875 -0.25068,-0.05893 -0.49663,-0.119319 -0.73828,-0.18164 -0.24165,-0.06232 -0.47817,-0.125889 -0.71094,-0.191407 -0.23277,-0.06552 -0.46148,-0.132649 -0.68555,-0.201172 -0.22406,-0.06852 -0.44268,-0.137648 -0.6582,-0.208984 -0.21552,-0.07134 -0.42763,-0.144792 -0.63476,-0.21875 -0.20714,-0.07396 -0.41047,-0.150173 -0.60938,-0.226562 -0.19891,-0.07639 -0.39313,-0.153794 -0.58398,-0.232422 -0.38172,-0.157257 -0.74719,-0.317354 -1.09766,-0.482422 -0.35047,-0.165068 -0.68728,-0.334512 -1.00781,-0.50586 -0.32054,-0.171347 -0.62607,-0.345387 -0.91797,-0.521484 -0.2919,-0.176097 -0.56941,-0.353887 -0.83399,-0.533203 -0.26457,-0.179316 -0.51535,-0.360011 -0.7539,-0.541016 -0.23856,-0.181004 -0.46389,-0.361808 -0.67774,-0.542968 -0.21384,-0.181161 -0.41698,-0.363182 -0.60742,-0.542969 -0.19044,-0.179788 -0.36876,-0.358271 -0.53711,-0.535156 -0.16834,-0.176886 -0.32705,-0.350984 -0.47461,-0.523438 -0.14755,-0.172453 -0.28403,-0.343273 -0.41211,-0.509766 -0.12807,-0.166492 -0.24752,-0.329278 -0.35742,-0.488281 -0.0268,-0.03882 -0.0484,-0.07497 -0.0742,-0.113281 v 0.01563 c 0.0238,0.03519 0.0437,0.0679 0.0684,0.103516 0.10996,0.159086 0.22733,0.323673 0.35547,0.490234 0.12814,0.166561 0.26644,0.335298 0.41406,0.507813 0.14763,0.172514 0.30424,0.348444 0.47266,0.52539 0.16842,0.176946 0.34853,0.3553 0.53906,0.535156 0.19054,0.179857 0.39151,0.361724 0.60547,0.542969 0.21396,0.181245 0.44099,0.361856 0.67969,0.542969 0.2387,0.181112 0.48918,0.361602 0.7539,0.541016 0.26473,0.179413 0.54388,0.357019 0.83594,0.533203 0.29207,0.176183 0.59727,0.352013 0.91797,0.523437 0.32071,0.171424 0.65716,0.338772 1.00781,0.503906 0.35065,0.165135 0.71576,0.32706 1.09766,0.484375 0.19095,0.07866 0.38693,0.156006 0.58594,0.232422 0.199,0.07642 0.40214,0.15258 0.60937,0.226563 0.20723,0.07398 0.4172,0.145438 0.63281,0.216797 0.21562,0.07136 0.436,0.142394 0.66016,0.210937 0.22416,0.06854 0.45268,0.135635 0.68555,0.201172 0.23286,0.06554 0.4692,0.129068 0.71094,0.191406 0.24173,0.06234 0.48945,0.122691 0.74023,0.181641 0.25077,0.05895 0.50565,0.116506 0.76562,0.171875 0.25998,0.05537 0.52364,0.108559 0.79297,0.160156 0.26934,0.0516 0.54341,0.100803 0.82227,0.148438 0.27886,0.04763 0.56301,0.09324 0.85156,0.136718 0.28855,0.04348 0.58246,0.08587 0.88086,0.125 0.2984,0.03914 0.60174,0.07673 0.91016,0.111328 0.30841,0.0346 0.62086,0.06583 0.93945,0.0957 0.31859,0.02987 0.64372,0.05708 0.97266,0.08203 0.32893,0.02495 0.66251,0.04852 1.00195,0.06836 0.33943,0.01984 0.68505,0.03624 1.03516,0.05078 0.3501,0.01454 0.70547,0.02611 1.0664,0.03516 0.0745,0.0019 0.1516,0.0023 0.22656,0.0039 -0.12006,-0.0076 -0.24217,-0.0069 -0.36132,-0.01758 z" />
    <path
       id="path2055"
       style="opacity:1;fill:url(#linearGradient28188);fill-opacity:1;fill-rule:evenodd;stroke-width:0.100341;stroke-linecap:round;stroke-linejoin:round;paint-order:stroke fill markers"
       d="m 407.31836,17.423828 c -5.21069,0 -9.4043,4.193634 -9.4043,9.404297 V 48.539062 60.78125 c 0.0258,0.03831 0.0474,0.07446 0.0742,0.113281 0.1099,0.159003 0.22935,0.321789 0.35742,0.488281 0.12808,0.166493 0.26456,0.337313 0.41211,0.509766 0.14756,0.172454 0.30627,0.346552 0.47461,0.523438 0.16835,0.176885 0.34667,0.355368 0.53711,0.535156 0.19044,0.179787 0.39358,0.361808 0.60742,0.542969 0.21385,0.18116 0.43918,0.361964 0.67774,0.542968 0.23855,0.181005 0.48933,0.3617 0.7539,0.541016 0.26458,0.179316 0.54209,0.357106 0.83399,0.533203 0.2919,0.176097 0.59743,0.350137 0.91797,0.521484 0.32053,0.171348 0.65734,0.340792 1.00781,0.50586 0.35047,0.165068 0.71594,0.325165 1.09766,0.482422 0.19085,0.07863 0.38507,0.156033 0.58398,0.232422 0.19891,0.07639 0.40224,0.152604 0.60938,0.226562 0.20713,0.07396 0.41924,0.147414 0.63476,0.21875 0.21552,0.07134 0.43414,0.140462 0.6582,0.208984 0.22407,0.06852 0.45278,0.135655 0.68555,0.201172 0.23277,0.06552 0.46929,0.129085 0.71094,0.191407 0.24165,0.06232 0.4876,0.122706 0.73828,0.18164 0.25068,0.05893 0.50574,0.11652 0.76562,0.171875 0.25989,0.05536 0.52568,0.108572 0.79493,0.160156 0.26924,0.05159 0.54349,0.102768 0.82226,0.150391 0.27877,0.04762 0.56115,0.09325 0.84961,0.136719 0.28846,0.04347 0.58254,0.08392 0.88086,0.123047 0.29832,0.03913 0.60182,0.07674 0.91016,0.111328 0.30833,0.03459 0.62094,0.06584 0.93945,0.0957 0.31851,0.02987 0.64185,0.05709 0.9707,0.08203 0.32886,0.02495 0.66455,0.04852 1.00391,0.06836 0.33936,0.01984 0.68317,0.03624 1.0332,0.05078 0.30645,0.01273 0.61886,0.02272 0.9336,0.03125 -6.78267,-0.610551 -12.06446,-6.271704 -12.06446,-13.21875 V 43.75 39.587891 36.0625 c 0,-0.167563 0.0171,-0.330652 0.0254,-0.496094 0.0152,-0.30331 0.046,-0.601218 0.0879,-0.896484 0.0103,-0.311282 0.0233,-0.617143 0.0391,-0.917969 0.0166,-0.316826 0.0362,-0.628162 0.0586,-0.933594 0.0224,-0.305429 0.0481,-0.606147 0.0762,-0.90039 0.0281,-0.294245 0.0583,-0.581968 0.0918,-0.865235 0.0335,-0.283265 0.0707,-0.561487 0.10937,-0.833984 0.0387,-0.272497 0.0794,-0.538848 0.12305,-0.800781 0.0437,-0.261936 0.0903,-0.519903 0.13867,-0.771485 0.0484,-0.251579 0.0994,-0.496845 0.15235,-0.738281 0.053,-0.241436 0.10675,-0.479441 0.16406,-0.710937 0.0573,-0.231499 0.11825,-0.457918 0.17969,-0.679688 0.0614,-0.221769 0.1241,-0.438144 0.18945,-0.65039 0.0654,-0.212249 0.13213,-0.420114 0.20117,-0.623047 0.069,-0.202936 0.14037,-0.399921 0.21289,-0.59375 0.0725,-0.193831 0.14687,-0.383425 0.22266,-0.56836 0.0758,-0.184934 0.15359,-0.366722 0.23242,-0.542969 0.0788,-0.176244 0.15856,-0.347861 0.24024,-0.515624 0.0817,-0.167766 0.16375,-0.330741 0.24804,-0.490235 0.0843,-0.159494 0.17112,-0.315367 0.25781,-0.466797 0.0867,-0.15143 0.17479,-0.297832 0.26368,-0.441406 0.0889,-0.143574 0.17867,-0.283995 0.26953,-0.419922 0.0909,-0.135927 0.18277,-0.267997 0.27539,-0.396484 0.0926,-0.128488 0.18515,-0.253744 0.27929,-0.375 0.0942,-0.121256 0.18967,-0.239283 0.28516,-0.353516 0.0955,-0.114233 0.1905,-0.224613 0.28711,-0.332031 0.0966,-0.107418 0.19351,-0.211689 0.29102,-0.3125 0.0975,-0.100812 0.19672,-0.198556 0.29492,-0.292969 0.0982,-0.09441 0.19625,-0.185215 0.29492,-0.273437 0.0987,-0.08822 0.19797,-0.173621 0.29687,-0.25586 0.0989,-0.08224 0.19792,-0.161818 0.29688,-0.238281 0.099,-0.07646 0.19826,-0.149758 0.29688,-0.220703 0.0986,-0.07094 0.19652,-0.139542 0.29492,-0.205078 0.0984,-0.06554 0.19727,-0.127413 0.29492,-0.1875 0.0976,-0.06009 0.19405,-0.118385 0.29101,-0.173828 0.1045,-0.05975 0.20727,-0.1098 0.31055,-0.164063 z" />
  </g>
  <g
     id="g22197"
     transform="matrix(0.6329032,0,0,0.6329032,-236.15056,9.4713518)">
    <path
       id="path22181"
       style="opacity:1;fill:url(#linearGradient28190);fill-opacity:1;fill-rule:evenodd;stroke-width:0.100341;stroke-linecap:round;stroke-linejoin:round;paint-order:stroke fill markers"
       d="m 419,69.228516 c -0.26047,-0.01166 -0.52115,-0.02225 -0.77539,-0.03711 -0.33944,-0.01984 -0.67302,-0.04341 -1.00195,-0.06836 -0.32894,-0.02495 -0.65407,-0.05216 -0.97266,-0.08203 -0.31859,-0.02987 -0.63104,-0.0611 -0.93945,-0.0957 -0.30842,-0.0346 -0.61176,-0.07219 -0.91016,-0.111328 -0.2984,-0.03913 -0.59231,-0.08152 -0.88086,-0.125 -0.28855,-0.04348 -0.5727,-0.08908 -0.85156,-0.136718 -0.27886,-0.04763 -0.55293,-0.09684 -0.82227,-0.148438 -0.26933,-0.0516 -0.53299,-0.104787 -0.79297,-0.160156 -0.25997,-0.05537 -0.51485,-0.112926 -0.76562,-0.171875 -0.25078,-0.05895 -0.49852,-0.119302 -0.74023,-0.181641 -0.24174,-0.06234 -0.47808,-0.125869 -0.71094,-0.191406 -0.23287,-0.06554 -0.46139,-0.132628 -0.68555,-0.201172 -0.22416,-0.06854 -0.44454,-0.139579 -0.66016,-0.210937 -0.21561,-0.07136 -0.42558,-0.142814 -0.63281,-0.216797 -0.20723,-0.07398 -0.41037,-0.150147 -0.60937,-0.226563 -0.19901,-0.07642 -0.39499,-0.153764 -0.58594,-0.232422 -0.3819,-0.157313 -0.74701,-0.31924 -1.09766,-0.484375 -0.35065,-0.165132 -0.6871,-0.332482 -1.00781,-0.503906 -0.3207,-0.171424 -0.6259,-0.347256 -0.91797,-0.523437 -0.29206,-0.176184 -0.57121,-0.353792 -0.83594,-0.533203 -0.26472,-0.179414 -0.5152,-0.359904 -0.7539,-0.541016 -0.2387,-0.181113 -0.46573,-0.361724 -0.67969,-0.542969 -0.21396,-0.181245 -0.41493,-0.363112 -0.60547,-0.542969 -0.19053,-0.179854 -0.37064,-0.35821 -0.53906,-0.535156 -0.16842,-0.176946 -0.32503,-0.352878 -0.47266,-0.52539 -0.14762,-0.172515 -0.28592,-0.341252 -0.41406,-0.507813 -0.12814,-0.166561 -0.24551,-0.33115 -0.35547,-0.490234 -0.0246,-0.03561 -0.0446,-0.06833 -0.0684,-0.103516 v 4.064453 c 0,0.462153 0.023,0.919351 0.0684,1.369141 0.0454,0.449783 0.11256,0.892902 0.20117,1.328125 0.0886,0.435217 0.19852,0.862795 0.32813,1.28125 0.12961,0.418448 0.27886,0.827086 0.44726,1.226562 0.16841,0.399483 0.35555,0.789661 0.56055,1.167969 0.205,0.378308 0.42858,0.744685 0.66797,1.099609 0.23939,0.354931 0.496,0.697994 0.76758,1.027344 0.27158,0.32935 0.55781,0.645699 0.85937,0.947266 0.30157,0.301561 0.61792,0.587794 0.94727,0.859375 0.32935,0.271575 0.67241,0.528186 1.02734,0.767578 0.35493,0.239392 0.7213,0.462968 1.09961,0.667969 0.37831,0.204994 0.76849,0.392146 1.16797,0.560546 0.39948,0.168407 0.80811,0.317657 1.22656,0.447266 0.41846,0.129609 0.84603,0.239516 1.28125,0.328125 0.43523,0.08861 0.87834,0.155766 1.32813,0.201172 0.44979,0.04541 0.90699,0.06836 1.36914,0.06836 h 20.16016 c -0.45297,0 -0.90096,-0.0219 -1.3418,-0.06641 -0.44085,-0.0445 -0.87422,-0.112372 -1.30078,-0.199219 -0.42657,-0.08685 -0.84573,-0.193281 -1.25586,-0.320312 -0.41013,-0.127031 -0.81159,-0.274396 -1.20313,-0.439453 -0.39154,-0.165057 -0.77374,-0.347905 -1.14453,-0.548828 -0.37078,-0.200924 -0.73025,-0.419666 -1.07812,-0.654297 -0.34788,-0.234632 -0.68502,-0.485773 -1.00782,-0.751953 -0.3228,-0.26618 -0.63216,-0.546228 -0.92773,-0.841797 -0.29557,-0.29557 -0.57562,-0.606888 -0.8418,-0.929688 -0.26618,-0.3228 -0.51732,-0.657987 -0.75195,-1.005859 -0.23463,-0.347872 -0.45337,-0.707341 -0.6543,-1.078125 -0.20092,-0.370784 -0.38377,-0.752994 -0.54883,-1.144531 C 419.22805,69.903085 419.11105,69.566919 419,69.228516 Z" />
    <path
       id="path22183"
       style="opacity:1;fill:url(#linearGradient18018);fill-opacity:1;fill-rule:evenodd;stroke-width:0.100341;stroke-linecap:round;stroke-linejoin:round;paint-order:stroke fill markers"
       d="m 419,69.228516 c 0.11105,0.338402 0.22805,0.674568 0.36523,1 0.16506,0.391537 0.34791,0.773747 0.54883,1.144531 0.20093,0.370784 0.41967,0.730253 0.6543,1.078125 0.23463,0.347872 0.48577,0.683059 0.75195,1.005859 0.26618,0.3228 0.54623,0.634118 0.8418,0.929688 0.29557,0.295569 0.60493,0.575617 0.92773,0.841797 0.3228,0.26618 0.65994,0.517321 1.00782,0.751953 0.34787,0.234631 0.70734,0.453373 1.07812,0.654297 0.37079,0.200923 0.75299,0.383771 1.14453,0.548828 0.39154,0.165057 0.793,0.312422 1.20313,0.439453 0.41013,0.127031 0.82929,0.233466 1.25586,0.320312 0.42656,0.08685 0.85993,0.154716 1.30078,0.199219 0.44084,0.0445 0.88883,0.06641 1.3418,0.06641 h 5.88867 20.6914 c 0.45296,0 0.90096,-0.0219 1.3418,-0.06641 0.44084,-0.0445 0.87421,-0.112372 1.30078,-0.199219 0.42657,-0.08685 0.84573,-0.193281 1.25586,-0.320312 0.41013,-0.127031 0.81159,-0.274396 1.20313,-0.439453 0.39153,-0.165057 0.77374,-0.347905 1.14453,-0.548828 0.37078,-0.200924 0.73025,-0.419666 1.07812,-0.654297 0.34787,-0.234632 0.68306,-0.485773 1.00586,-0.751953 0.3228,-0.26618 0.63412,-0.546228 0.92969,-0.841797 0.29557,-0.29557 0.57562,-0.606888 0.8418,-0.929688 0.26618,-0.3228 0.51732,-0.657987 0.75195,-1.005859 0.23463,-0.347872 0.45337,-0.707341 0.6543,-1.078125 0.20092,-0.370784 0.38377,-0.752994 0.54882,-1.144531 0.16506,-0.391538 0.31243,-0.792993 0.43946,-1.203125 0.12703,-0.410132 0.23346,-0.829292 0.32031,-1.25586 0.0869,-0.426567 0.15472,-0.859937 0.19922,-1.300781 0.0445,-0.440844 0.0664,-0.888836 0.0664,-1.341797 v -4.361328 c -0.082,0.09291 -0.1634,0.185821 -0.25586,0.285156 -0.12047,0.129448 -0.24985,0.26324 -0.38867,0.402344 -0.13881,0.139104 -0.28745,0.284339 -0.44531,0.431641 -0.15786,0.1473 -0.32433,0.29713 -0.50195,0.451172 -0.17763,0.15404 -0.36634,0.311379 -0.56446,0.470703 -0.19811,0.159322 -0.40568,0.321227 -0.625,0.484375 -0.21931,0.163147 -0.45016,0.328626 -0.6914,0.49414 -0.24125,0.165514 -0.49392,0.331625 -0.75781,0.498047 -0.2639,0.166423 -0.53892,0.332174 -0.82618,0.498047 -0.28725,0.165873 -0.58708,0.330249 -0.89843,0.494141 -0.31135,0.16389 -0.63454,0.327825 -0.97071,0.488281 -0.33616,0.160456 -0.68516,0.319041 -1.04687,0.474609 -0.36171,0.155568 -0.73507,0.307806 -1.12305,0.457031 -0.38798,0.149227 -0.79011,0.294116 -1.20508,0.435547 -0.41496,0.141433 -0.84442,0.279925 -1.28711,0.41211 -0.44268,0.132185 -0.89801,0.259374 -1.36914,0.380859 -0.47112,0.121485 -0.95674,0.236372 -1.45703,0.345703 -0.50029,0.109331 -1.0167,0.21287 -1.54687,0.308594 -0.53018,0.09572 -1.07398,0.183007 -1.63477,0.263672 -0.56079,0.08066 -1.13834,0.154598 -1.73047,0.21875 -0.59213,0.06415 -1.20003,0.119831 -1.82422,0.166015 -0.62419,0.04619 -1.26489,0.08261 -1.92187,0.109376 -0.32849,0.01338 -0.65927,0.02495 -0.9961,0.0332 -0.33681,0.0083 -0.67819,0.01268 -1.02343,0.01563 -0.34525,0.0029 -0.69507,0.0045 -1.04883,0.002 -0.35376,-0.0025 -0.71186,-0.0094 -1.07422,-0.01758 -0.36236,-0.0082 -0.72855,-0.01914 -1.09961,-0.0332 -0.0855,-0.0032 -0.17377,-0.0082 -0.25976,-0.01172 h -21.10352 c -0.28831,0 -0.56989,-0.02505 -0.85352,-0.04297 -0.075,-0.0016 -0.15206,-0.002 -0.22656,-0.0039 -0.36093,-0.009 -0.7163,-0.02062 -1.0664,-0.03516 -0.0879,-0.0036 -0.17249,-0.0098 -0.25977,-0.01367 z" />
    <path
       id="path22185"
       style="opacity:1;fill:#fecf40;fill-rule:evenodd;stroke-width:0.100341;stroke-linecap:round;stroke-linejoin:round;paint-order:stroke fill markers"
       d="m 471.08398,60.751953 c -0.084,0.09531 -0.16861,0.190839 -0.26367,0.292969 -0.1204,0.129364 -0.24998,0.263326 -0.38867,0.402344 -0.13869,0.139018 -0.28566,0.282472 -0.44336,0.429687 -0.1577,0.147215 -0.32646,0.29917 -0.5039,0.453125 -0.17745,0.153955 -0.36459,0.311464 -0.5625,0.470703 -0.19792,0.159239 -0.40588,0.319356 -0.625,0.482422 -0.21913,0.163066 -0.44839,0.328704 -0.68946,0.494141 -0.24106,0.165436 -0.49407,0.331696 -0.75781,0.498047 -0.26374,0.16635 -0.53903,0.332239 -0.82617,0.498047 -0.28715,0.165808 -0.58524,0.330313 -0.89649,0.49414 -0.31124,0.163827 -0.63658,0.327888 -0.97265,0.488281 -0.33608,0.160393 -0.6833,0.31715 -1.04492,0.472657 -0.36163,0.155506 -0.73711,0.309817 -1.125,0.458984 -0.3879,0.149167 -0.78824,0.294171 -1.20313,0.435547 -0.41489,0.141376 -0.8445,0.278025 -1.28711,0.410156 -0.44261,0.132132 -0.89809,0.259425 -1.36914,0.380859 -0.47105,0.121435 -0.95681,0.236419 -1.45703,0.345704 -0.50022,0.109285 -1.01482,0.21291 -1.54492,0.308593 -0.53011,0.09568 -1.076,0.184997 -1.63672,0.265625 -0.56072,0.08063 -1.13646,0.152676 -1.72852,0.216797 -0.59205,0.06412 -1.2001,0.119855 -1.82422,0.166016 -0.62411,0.04616 -1.26497,0.08263 -1.92187,0.109375 -0.32845,0.01337 -0.66127,0.02495 -0.99805,0.0332 -0.33678,0.0082 -0.67823,0.01268 -1.02344,0.01563 -0.3452,0.0029 -0.69316,0.0045 -1.04687,0.002 -0.35371,-0.0025 -0.7119,-0.0094 -1.07422,-0.01758 -0.36232,-0.0082 -0.7286,-0.01913 -1.09961,-0.0332 -0.0141,-5.37e-4 -0.0288,-0.0014 -0.043,-0.002 h -0.21679 c 0.086,0.0036 0.17423,0.0085 0.25976,0.01172 0.37106,0.01407 0.73725,0.02499 1.09961,0.0332 0.36236,0.0082 0.72046,0.01503 1.07422,0.01758 0.35376,0.0025 0.70358,9.94e-4 1.04883,-0.002 0.34524,-0.0029 0.68661,-0.0074 1.02343,-0.01563 0.33683,-0.0083 0.66761,-0.01982 0.9961,-0.0332 0.65698,-0.02677 1.29768,-0.06319 1.92187,-0.109376 0.62419,-0.04619 1.23209,-0.101864 1.82422,-0.166015 0.59213,-0.06415 1.16968,-0.138086 1.73047,-0.21875 0.56079,-0.08066 1.10459,-0.167948 1.63477,-0.263672 0.53017,-0.09572 1.04658,-0.199263 1.54687,-0.308594 0.50029,-0.109331 0.98591,-0.224218 1.45703,-0.345703 0.47113,-0.121485 0.92646,-0.248674 1.36914,-0.380859 0.44269,-0.132185 0.87215,-0.270677 1.28711,-0.41211 0.41497,-0.141432 0.8171,-0.28632 1.20508,-0.435547 0.38798,-0.149226 0.76134,-0.301463 1.12305,-0.457031 0.36171,-0.155568 0.71071,-0.314153 1.04687,-0.474609 0.33617,-0.160456 0.65936,-0.32439 0.97071,-0.488281 0.31135,-0.163892 0.61118,-0.328268 0.89843,-0.494141 0.28726,-0.165873 0.56228,-0.331624 0.82618,-0.498047 0.26389,-0.166422 0.51656,-0.332533 0.75781,-0.498047 0.24124,-0.165514 0.47209,-0.330992 0.6914,-0.49414 0.21932,-0.163148 0.42689,-0.325052 0.625,-0.484375 0.19812,-0.159324 0.38683,-0.316662 0.56446,-0.470703 0.17762,-0.154042 0.34409,-0.303871 0.50195,-0.451172 0.15786,-0.147302 0.3065,-0.292537 0.44531,-0.431641 0.13882,-0.139104 0.26819,-0.272896 0.38867,-0.402344 0.0925,-0.09934 0.17381,-0.192241 0.25586,-0.285156 z" />
    <path
       id="path22187"
       style="opacity:1;fill:url(#linearGradient8262);fill-opacity:1;fill-rule:evenodd;stroke-width:0.100341;stroke-linecap:round;stroke-linejoin:round;paint-order:stroke fill markers"
       d="m 460.81836,35.048828 c 0.0341,0.333185 0.0527,0.671195 0.0527,1.013672 V 39.587891 43.75 56.044922 c 0,6.545018 -4.69151,11.941983 -10.90625,13.05664 -0.77136,0.138352 -1.56263,0.222657 -2.375,0.222657 h -4.86328 c 0.0142,5.45e-4 0.0288,0.0014 0.043,0.002 0.37101,0.01407 0.73729,0.02499 1.09961,0.0332 0.36232,0.0082 0.72051,0.01503 1.07422,0.01758 0.35371,0.0025 0.70167,9.89e-4 1.04687,-0.002 0.34521,-0.0029 0.68666,-0.0074 1.02344,-0.01563 0.33678,-0.0082 0.6696,-0.01983 0.99805,-0.0332 0.6569,-0.02675 1.29776,-0.06321 1.92187,-0.109375 0.62412,-0.04616 1.23217,-0.101895 1.82422,-0.166016 0.59206,-0.06412 1.1678,-0.136168 1.72852,-0.216797 0.56072,-0.08063 1.10661,-0.169942 1.63672,-0.265625 0.5301,-0.09568 1.0447,-0.199308 1.54492,-0.308593 0.50022,-0.109285 0.98598,-0.224269 1.45703,-0.345704 0.47105,-0.121433 0.92653,-0.248727 1.36914,-0.380859 0.44261,-0.132131 0.87222,-0.26878 1.28711,-0.410156 0.41489,-0.141376 0.81523,-0.28638 1.20313,-0.435547 0.38788,-0.149167 0.76337,-0.303479 1.125,-0.458984 0.36161,-0.155507 0.70884,-0.312264 1.04492,-0.472657 0.33607,-0.160392 0.66141,-0.324454 0.97265,-0.488281 0.31125,-0.163827 0.60934,-0.328333 0.89649,-0.49414 0.28714,-0.165808 0.56243,-0.331698 0.82617,-0.498047 0.26374,-0.166351 0.51675,-0.332611 0.75781,-0.498047 0.24107,-0.165437 0.47033,-0.331075 0.68946,-0.494141 0.21911,-0.163066 0.42708,-0.323183 0.625,-0.482422 0.1979,-0.159239 0.38505,-0.316748 0.5625,-0.470703 0.17743,-0.153955 0.3462,-0.30591 0.5039,-0.453125 0.1577,-0.147215 0.30467,-0.29067 0.44336,-0.429687 0.13869,-0.139018 0.26827,-0.27298 0.38867,-0.402344 0.0951,-0.10213 0.17964,-0.197654 0.26367,-0.292969 V 26.828125 c 0,-5.210653 -4.19555,-9.404297 -9.40625,-9.404297 h -10.70312 c 0.12149,0.03604 0.24206,0.06839 0.36523,0.109375 0.23057,0.07672 0.46425,0.162373 0.69922,0.257813 0.23497,0.09544 0.47152,0.200417 0.70899,0.316406 0.23746,0.115989 0.47484,0.242492 0.71289,0.380859 0.23805,0.138367 0.47613,0.288575 0.71289,0.451172 0.23675,0.162597 0.47152,0.336732 0.70508,0.525391 0.23355,0.188658 0.46685,0.390872 0.69531,0.607422 0.22846,0.21655 0.45237,0.44904 0.67383,0.695312 0.22146,0.246272 0.43978,0.507331 0.65234,0.785156 0.21256,0.277825 0.41933,0.571604 0.62109,0.882813 0.20176,0.311209 0.39884,0.639905 0.5879,0.986328 0.18905,0.346423 0.37046,0.710282 0.54492,1.09375 0.17445,0.383468 0.34205,0.786641 0.5,1.208984 0.15795,0.422343 0.30577,0.865076 0.44531,1.328125 0.13954,0.463049 0.26944,0.945586 0.38867,1.451172 0.11924,0.505586 0.22915,1.034031 0.32617,1.583985 0.097,0.549953 0.18099,1.122598 0.25391,1.71875 0.0729,0.596151 0.13473,1.215195 0.18164,1.859375 0.0323,0.443653 0.0491,0.915645 0.0684,1.382812 z" />
    <path
       id="path22189"
       style="opacity:1;fill:url(#linearGradient3832);fill-opacity:1;fill-rule:evenodd;stroke-width:0.100341;stroke-linecap:round;stroke-linejoin:round;paint-order:stroke fill markers"
       d="m 450.94336,17.423828 h -35.125 c -0.10739,0.05621 -0.21355,0.107762 -0.32227,0.169922 -0.19371,0.110754 -0.38936,0.232349 -0.58593,0.363281 -0.19658,0.130933 -0.39408,0.271057 -0.5918,0.423828 -0.0989,0.07639 -0.19805,0.156121 -0.29688,0.238282 -0.0988,0.08216 -0.19829,0.167717 -0.29687,0.255859 -0.0986,0.08814 -0.19681,0.179103 -0.29492,0.273438 -0.0981,0.09433 -0.19554,0.192233 -0.29297,0.292968 -0.0974,0.100735 -0.19449,0.205157 -0.29102,0.3125 -0.0965,0.107344 -0.19364,0.217871 -0.28906,0.332032 -0.0954,0.114156 -0.18911,0.230377 -0.2832,0.351562 -0.0941,0.121185 -0.1887,0.246582 -0.28125,0.375 -0.0926,0.128418 -0.18265,0.26063 -0.27344,0.396484 -0.0908,0.135859 -0.18071,0.276414 -0.26953,0.419922 -0.0888,0.143508 -0.17704,0.290046 -0.26367,0.441406 -0.0866,0.151365 -0.17163,0.307371 -0.25586,0.466797 -0.0842,0.15943 -0.16839,0.322531 -0.25,0.490235 -0.0816,0.167703 -0.16145,0.33944 -0.24024,0.515625 -0.0788,0.176184 -0.15668,0.356145 -0.23242,0.541015 -0.0757,0.184874 -0.15022,0.374588 -0.22265,0.56836 -0.0725,0.193771 -0.14194,0.392826 -0.21094,0.595703 -0.069,0.202877 -0.13587,0.408903 -0.20117,0.621094 -0.0653,0.212186 -0.13001,0.430635 -0.19141,0.652343 -0.0614,0.221713 -0.12046,0.448245 -0.17774,0.679688 -0.0572,0.231442 -0.11307,0.467604 -0.16601,0.708984 -0.0529,0.241381 -0.102,0.486755 -0.15039,0.738282 -0.0484,0.251522 -0.0951,0.509603 -0.13867,0.771484 -0.0436,0.26188 -0.0844,0.528338 -0.12305,0.800781 -0.0386,0.272443 -0.0759,0.550772 -0.10938,0.833985 -0.0334,0.283208 -0.0638,0.571043 -0.0918,0.865234 -0.028,0.294191 -0.0538,0.593064 -0.0762,0.898437 -0.0224,0.305378 -0.042,0.616822 -0.0586,0.933594 -0.0138,0.263773 -0.0236,0.534835 -0.0332,0.806641 0.71955,-4.683186 4.73427,-8.251953 9.625,-8.251953 h 3.52539 26.18359 3.52539 c 5.01057,0 9.11407,3.741574 9.68555,8.59375 -0.0184,-0.414662 -0.0317,-0.83843 -0.0605,-1.234375 -0.0469,-0.644025 -0.10873,-1.263387 -0.18164,-1.859375 -0.0729,-0.595988 -0.1569,-1.167014 -0.2539,-1.716797 -0.097,-0.549784 -0.20697,-1.078573 -0.32617,-1.583985 -0.11921,-0.505411 -0.24918,-0.9883 -0.38868,-1.451171 -0.13949,-0.462872 -0.28742,-0.904009 -0.44531,-1.326172 -0.15789,-0.422164 -0.32561,-0.825697 -0.5,-1.208985 -0.17438,-0.383288 -0.35595,-0.747505 -0.54492,-1.09375 -0.18897,-0.346244 -0.38428,-0.673341 -0.58594,-0.984375 -0.20166,-0.311033 -0.40865,-0.605158 -0.62109,-0.882812 -0.21245,-0.277655 -0.43102,-0.539049 -0.65235,-0.785156 -0.22132,-0.246108 -0.44551,-0.476967 -0.67382,-0.69336 -0.22831,-0.216393 -0.45998,-0.418911 -0.69336,-0.607422 -0.23339,-0.188511 -0.46852,-0.362929 -0.70508,-0.52539 -0.23656,-0.162461 -0.47506,-0.312929 -0.71289,-0.451172 -0.23784,-0.138244 -0.47567,-0.265 -0.71289,-0.38086 -0.23723,-0.115859 -0.47427,-0.221097 -0.70899,-0.316406 -0.23471,-0.09531 -0.46696,-0.181223 -0.69726,-0.257812 -0.13266,-0.04412 -0.26188,-0.0788 -0.39258,-0.117188 z" />
    <path
       id="path22191"
       style="opacity:1;fill:#fecf40;fill-rule:evenodd;stroke-width:0.100341;stroke-linecap:round;stroke-linejoin:round;paint-order:stroke fill markers"
       d="m 450.94336,17.423828 c 0.1307,0.03838 0.25992,0.07307 0.39258,0.117188 0.2303,0.07659 0.46255,0.162504 0.69726,0.257812 0.23472,0.09531 0.47176,0.200547 0.70899,0.316406 0.23722,0.11586 0.47505,0.242616 0.71289,0.38086 0.23783,0.138243 0.47633,0.288711 0.71289,0.451172 0.23656,0.162461 0.47169,0.336879 0.70508,0.52539 0.23338,0.188511 0.46505,0.391029 0.69336,0.607422 0.22831,0.216393 0.4525,0.447252 0.67382,0.69336 0.22133,0.246107 0.4399,0.507501 0.65235,0.785156 0.21244,0.277654 0.41943,0.571779 0.62109,0.882812 0.20166,0.311034 0.39697,0.638131 0.58594,0.984375 0.18897,0.346245 0.37054,0.710462 0.54492,1.09375 0.17439,0.383288 0.34211,0.786821 0.5,1.208985 0.15789,0.422163 0.30582,0.8633 0.44531,1.326172 0.1395,0.462871 0.26947,0.94576 0.38868,1.451171 0.1192,0.505412 0.22916,1.034201 0.32617,1.583985 0.097,0.549783 0.181,1.120809 0.2539,1.716797 0.0729,0.595988 0.13475,1.21535 0.18164,1.859375 0.0288,0.395945 0.0421,0.819713 0.0605,1.234375 0.006,0.04949 0.0125,0.09872 0.0176,0.148437 -0.0192,-0.467167 -0.036,-0.939159 -0.0684,-1.382812 -0.0469,-0.64418 -0.10872,-1.263224 -0.18164,-1.859375 -0.0729,-0.596152 -0.15688,-1.168797 -0.25391,-1.71875 -0.097,-0.549954 -0.20693,-1.078399 -0.32617,-1.583985 -0.11923,-0.505586 -0.24913,-0.988123 -0.38867,-1.451172 -0.13954,-0.463049 -0.28736,-0.905782 -0.44531,-1.328125 -0.15795,-0.422343 -0.32555,-0.825516 -0.5,-1.208984 -0.17446,-0.383468 -0.35587,-0.747327 -0.54492,-1.09375 -0.18906,-0.346423 -0.38614,-0.675119 -0.5879,-0.986328 -0.20176,-0.311209 -0.40853,-0.604988 -0.62109,-0.882813 -0.21256,-0.277825 -0.43088,-0.538884 -0.65234,-0.785156 -0.22146,-0.246272 -0.44537,-0.478762 -0.67383,-0.695312 -0.22846,-0.21655 -0.46176,-0.418764 -0.69531,-0.607422 -0.23356,-0.188659 -0.46833,-0.362794 -0.70508,-0.525391 -0.23676,-0.162597 -0.47484,-0.312805 -0.71289,-0.451172 -0.23805,-0.138367 -0.47543,-0.26487 -0.71289,-0.380859 -0.23747,-0.115989 -0.47402,-0.220967 -0.70899,-0.316406 -0.23497,-0.09544 -0.46865,-0.181095 -0.69922,-0.257813 -0.12317,-0.04098 -0.24374,-0.07334 -0.36523,-0.109375 z" />
    <path
       id="path22193"
       style="opacity:1;fill:#fecf40;fill-rule:evenodd;stroke-width:0.100341;stroke-linecap:round;stroke-linejoin:round;paint-order:stroke fill markers"
       d="m 420.19141,69.263672 c -0.31474,-0.0085 -0.62715,-0.01852 -0.9336,-0.03125 -0.35003,-0.01454 -0.69384,-0.03094 -1.0332,-0.05078 -0.33936,-0.01984 -0.67505,-0.04341 -1.00391,-0.06836 -0.32885,-0.02495 -0.65219,-0.05217 -0.9707,-0.08203 -0.31851,-0.02987 -0.63112,-0.06111 -0.93945,-0.0957 -0.30834,-0.03459 -0.61184,-0.0722 -0.91016,-0.111328 -0.29832,-0.03913 -0.5924,-0.07958 -0.88086,-0.123047 -0.28846,-0.04347 -0.57084,-0.0891 -0.84961,-0.136719 -0.27877,-0.04762 -0.55302,-0.09881 -0.82226,-0.150391 -0.26925,-0.05158 -0.53504,-0.104801 -0.79493,-0.160156 -0.25988,-0.05536 -0.51494,-0.112941 -0.76562,-0.171875 -0.25068,-0.05893 -0.49663,-0.119319 -0.73828,-0.18164 -0.24165,-0.06232 -0.47817,-0.125889 -0.71094,-0.191407 -0.23277,-0.06552 -0.46148,-0.132649 -0.68555,-0.201172 -0.22406,-0.06852 -0.44268,-0.137648 -0.6582,-0.208984 -0.21552,-0.07134 -0.42763,-0.144792 -0.63476,-0.21875 -0.20714,-0.07396 -0.41047,-0.150173 -0.60938,-0.226562 -0.19891,-0.07639 -0.39313,-0.153794 -0.58398,-0.232422 -0.38172,-0.157257 -0.74719,-0.317354 -1.09766,-0.482422 -0.35047,-0.165068 -0.68728,-0.334512 -1.00781,-0.50586 -0.32054,-0.171347 -0.62607,-0.345387 -0.91797,-0.521484 -0.2919,-0.176097 -0.56941,-0.353887 -0.83399,-0.533203 -0.26457,-0.179316 -0.51535,-0.360011 -0.7539,-0.541016 -0.23856,-0.181004 -0.46389,-0.361808 -0.67774,-0.542968 -0.21384,-0.181161 -0.41698,-0.363182 -0.60742,-0.542969 -0.19044,-0.179788 -0.36876,-0.358271 -0.53711,-0.535156 -0.16834,-0.176886 -0.32705,-0.350984 -0.47461,-0.523438 -0.14755,-0.172453 -0.28403,-0.343273 -0.41211,-0.509766 -0.12807,-0.166492 -0.24752,-0.329278 -0.35742,-0.488281 -0.0268,-0.03882 -0.0484,-0.07497 -0.0742,-0.113281 v 0.01563 c 0.0238,0.03519 0.0437,0.0679 0.0684,0.103516 0.10996,0.159086 0.22733,0.323673 0.35547,0.490234 0.12814,0.166561 0.26644,0.335298 0.41406,0.507813 0.14763,0.172514 0.30424,0.348444 0.47266,0.52539 0.16842,0.176946 0.34853,0.3553 0.53906,0.535156 0.19054,0.179857 0.39151,0.361724 0.60547,0.542969 0.21396,0.181245 0.44099,0.361856 0.67969,0.542969 0.2387,0.181112 0.48918,0.361602 0.7539,0.541016 0.26473,0.179413 0.54388,0.357019 0.83594,0.533203 0.29207,0.176183 0.59727,0.352013 0.91797,0.523437 0.32071,0.171424 0.65716,0.338772 1.00781,0.503906 0.35065,0.165135 0.71576,0.32706 1.09766,0.484375 0.19095,0.07866 0.38693,0.156006 0.58594,0.232422 0.199,0.07642 0.40214,0.15258 0.60937,0.226563 0.20723,0.07398 0.4172,0.145438 0.63281,0.216797 0.21562,0.07136 0.436,0.142394 0.66016,0.210937 0.22416,0.06854 0.45268,0.135635 0.68555,0.201172 0.23286,0.06554 0.4692,0.129068 0.71094,0.191406 0.24173,0.06234 0.48945,0.122691 0.74023,0.181641 0.25077,0.05895 0.50565,0.116506 0.76562,0.171875 0.25998,0.05537 0.52364,0.108559 0.79297,0.160156 0.26934,0.0516 0.54341,0.100803 0.82227,0.148438 0.27886,0.04763 0.56301,0.09324 0.85156,0.136718 0.28855,0.04348 0.58246,0.08587 0.88086,0.125 0.2984,0.03914 0.60174,0.07673 0.91016,0.111328 0.30841,0.0346 0.62086,0.06583 0.93945,0.0957 0.31859,0.02987 0.64372,0.05708 0.97266,0.08203 0.32893,0.02495 0.66251,0.04852 1.00195,0.06836 0.33943,0.01984 0.68505,0.03624 1.03516,0.05078 0.3501,0.01454 0.70547,0.02611 1.0664,0.03516 0.0745,0.0019 0.1516,0.0023 0.22656,0.0039 -0.12006,-0.0076 -0.24217,-0.0069 -0.36132,-0.01758 z" />
    <path
       id="path22195"
       style="opacity:1;fill:url(#linearGradient2119);fill-opacity:1;fill-rule:evenodd;stroke-width:0.100341;stroke-linecap:round;stroke-linejoin:round;paint-order:stroke fill markers"
       d="m 407.31836,17.423828 c -5.21069,0 -9.4043,4.193634 -9.4043,9.404297 V 48.539062 60.78125 c 0.0258,0.03831 0.0474,0.07446 0.0742,0.113281 0.1099,0.159003 0.22935,0.321789 0.35742,0.488281 0.12808,0.166493 0.26456,0.337313 0.41211,0.509766 0.14756,0.172454 0.30627,0.346552 0.47461,0.523438 0.16835,0.176885 0.34667,0.355368 0.53711,0.535156 0.19044,0.179787 0.39358,0.361808 0.60742,0.542969 0.21385,0.18116 0.43918,0.361964 0.67774,0.542968 0.23855,0.181005 0.48933,0.3617 0.7539,0.541016 0.26458,0.179316 0.54209,0.357106 0.83399,0.533203 0.2919,0.176097 0.59743,0.350137 0.91797,0.521484 0.32053,0.171348 0.65734,0.340792 1.00781,0.50586 0.35047,0.165068 0.71594,0.325165 1.09766,0.482422 0.19085,0.07863 0.38507,0.156033 0.58398,0.232422 0.19891,0.07639 0.40224,0.152604 0.60938,0.226562 0.20713,0.07396 0.41924,0.147414 0.63476,0.21875 0.21552,0.07134 0.43414,0.140462 0.6582,0.208984 0.22407,0.06852 0.45278,0.135655 0.68555,0.201172 0.23277,0.06552 0.46929,0.129085 0.71094,0.191407 0.24165,0.06232 0.4876,0.122706 0.73828,0.18164 0.25068,0.05893 0.50574,0.11652 0.76562,0.171875 0.25989,0.05536 0.52568,0.108572 0.79493,0.160156 0.26924,0.05159 0.54349,0.102768 0.82226,0.150391 0.27877,0.04762 0.56115,0.09325 0.84961,0.136719 0.28846,0.04347 0.58254,0.08392 0.88086,0.123047 0.29832,0.03913 0.60182,0.07674 0.91016,0.111328 0.30833,0.03459 0.62094,0.06584 0.93945,0.0957 0.31851,0.02987 0.64185,0.05709 0.9707,0.08203 0.32886,0.02495 0.66455,0.04852 1.00391,0.06836 0.33936,0.01984 0.68317,0.03624 1.0332,0.05078 0.30645,0.01273 0.61886,0.02272 0.9336,0.03125 -6.78267,-0.610551 -12.06446,-6.271704 -12.06446,-13.21875 V 43.75 39.587891 36.0625 c 0,-0.167563 0.0171,-0.330652 0.0254,-0.496094 0.0152,-0.30331 0.046,-0.601218 0.0879,-0.896484 0.0103,-0.311282 0.0233,-0.617143 0.0391,-0.917969 0.0166,-0.316826 0.0362,-0.628162 0.0586,-0.933594 0.0224,-0.305429 0.0481,-0.606147 0.0762,-0.90039 0.0281,-0.294245 0.0583,-0.581968 0.0918,-0.865235 0.0335,-0.283265 0.0707,-0.561487 0.10937,-0.833984 0.0387,-0.272497 0.0794,-0.538848 0.12305,-0.800781 0.0437,-0.261936 0.0903,-0.519903 0.13867,-0.771485 0.0484,-0.251579 0.0994,-0.496845 0.15235,-0.738281 0.053,-0.241436 0.10675,-0.479441 0.16406,-0.710937 0.0573,-0.231499 0.11825,-0.457918 0.17969,-0.679688 0.0614,-0.221769 0.1241,-0.438144 0.18945,-0.65039 0.0654,-0.212249 0.13213,-0.420114 0.20117,-0.623047 0.069,-0.202936 0.14037,-0.399921 0.21289,-0.59375 0.0725,-0.193831 0.14687,-0.383425 0.22266,-0.56836 0.0758,-0.184934 0.15359,-0.366722 0.23242,-0.542969 0.0788,-0.176244 0.15856,-0.347861 0.24024,-0.515624 0.0817,-0.167766 0.16375,-0.330741 0.24804,-0.490235 0.0843,-0.159494 0.17112,-0.315367 0.25781,-0.466797 0.0867,-0.15143 0.17479,-0.297832 0.26368,-0.441406 0.0889,-0.143574 0.17867,-0.283995 0.26953,-0.419922 0.0909,-0.135927 0.18277,-0.267997 0.27539,-0.396484 0.0926,-0.128488 0.18515,-0.253744 0.27929,-0.375 0.0942,-0.121256 0.18967,-0.239283 0.28516,-0.353516 0.0955,-0.114233 0.1905,-0.224613 0.28711,-0.332031 0.0966,-0.107418 0.19351,-0.211689 0.29102,-0.3125 0.0975,-0.100812 0.19672,-0.198556 0.29492,-0.292969 0.0982,-0.09441 0.19625,-0.185215 0.29492,-0.273437 0.0987,-0.08822 0.19797,-0.173621 0.29687,-0.25586 0.0989,-0.08224 0.19792,-0.161818 0.29688,-0.238281 0.099,-0.07646 0.19826,-0.149758 0.29688,-0.220703 0.0986,-0.07094 0.19652,-0.139542 0.29492,-0.205078 0.0984,-0.06554 0.19727,-0.127413 0.29492,-0.1875 0.0976,-0.06009 0.19405,-0.118385 0.29101,-0.173828 0.1045,-0.05975 0.20727,-0.1098 0.31055,-0.164063 z" />
  </g>
  <path
     id="path30141"
     style="fill:url(#linearGradient30159);fill-opacity:1;fill-rule:evenodd;stroke-width:0.0635061;stroke-linecap:round;stroke-linejoin:round;paint-order:stroke fill markers"
     d="m 29.035881,53.286301 c -0.164852,-0.0074 -0.329838,-0.01408 -0.490747,-0.02349 -0.214833,-0.01256 -0.425957,-0.02747 -0.634137,-0.04326 -0.208188,-0.01579 -0.413963,-0.03301 -0.6156,-0.05192 -0.201637,-0.0189 -0.399387,-0.03867 -0.594581,-0.06057 -0.1952,-0.0219 -0.387185,-0.04569 -0.576043,-0.07046 -0.188858,-0.02477 -0.374875,-0.05159 -0.557499,-0.07911 -0.182624,-0.02752 -0.362464,-0.05638 -0.538955,-0.08653 -0.176492,-0.03015 -0.349951,-0.06129 -0.520418,-0.09395 -0.170459,-0.03266 -0.337331,-0.06632 -0.501873,-0.101363 -0.164536,-0.03504 -0.32585,-0.07147 -0.484563,-0.10878 -0.15872,-0.03731 -0.315515,-0.07551 -0.468494,-0.114962 -0.152998,-0.03946 -0.302578,-0.07966 -0.449956,-0.121141 -0.147384,-0.04148 -0.292016,-0.08394 -0.433887,-0.127322 -0.141872,-0.04338 -0.281351,-0.08834 -0.417817,-0.133503 -0.136461,-0.04516 -0.269351,-0.09039 -0.400508,-0.137212 -0.131156,-0.04682 -0.259724,-0.09503 -0.385672,-0.143392 -0.125954,-0.04837 -0.249991,-0.09732 -0.370843,-0.147101 -0.241706,-0.09956 -0.472785,-0.202048 -0.694713,-0.306562 C 19.677648,51.23116 19.464707,51.125244 19.261729,51.016749 19.058757,50.908254 18.865595,50.79697 18.680743,50.685464 18.495897,50.573957 18.319222,50.461548 18.151674,50.347998 17.984131,50.234446 17.825602,50.120214 17.674528,50.005587 17.523454,49.89096 17.379766,49.776651 17.24435,49.661941 17.108934,49.54723 16.981739,49.432126 16.861146,49.318294 c -0.120587,-0.11383 -0.234579,-0.226712 -0.341173,-0.338702 -0.106593,-0.11199 -0.205712,-0.223338 -0.299148,-0.332521 -0.09343,-0.109185 -0.18096,-0.21598 -0.26206,-0.321397 -0.0811,-0.105417 -0.155384,-0.209586 -0.224978,-0.31027 -0.01557,-0.02254 -0.02823,-0.04325 -0.04329,-0.06552 v 2.572405 c 0,0.292498 0.01456,0.581861 0.04329,0.866534 0.02873,0.284669 0.07124,0.565121 0.127321,0.840575 0.05608,0.27545 0.125644,0.546065 0.207675,0.810907 0.08203,0.264837 0.176491,0.523465 0.283072,0.776295 0.106587,0.252834 0.225029,0.499779 0.354774,0.739211 0.129745,0.239433 0.27125,0.471314 0.42276,0.695946 0.151511,0.224637 0.31392,0.441763 0.485804,0.65021 0.171884,0.208446 0.35304,0.408665 0.543898,0.599527 0.190865,0.190859 0.391084,0.372017 0.59953,0.543901 0.208447,0.171881 0.425571,0.334291 0.650207,0.485803 0.224637,0.151512 0.456513,0.293014 0.695947,0.42276 0.239433,0.129741 0.48638,0.24819 0.739212,0.354771 0.252832,0.106585 0.511455,0.201046 0.776294,0.283076 0.264844,0.08203 0.535455,0.151591 0.810907,0.207672 0.275458,0.05608 0.555904,0.09858 0.840578,0.127322 0.284673,0.02874 0.574036,0.04326 0.866533,0.04326 h 12.759429 c -0.286686,0 -0.57022,-0.01386 -0.849229,-0.04203 -0.279015,-0.02816 -0.553297,-0.07112 -0.823268,-0.126086 -0.269977,-0.05497 -0.535265,-0.122328 -0.794838,-0.202727 -0.259572,-0.0804 -0.513658,-0.173666 -0.761465,-0.278131 C 33.421122,58.21662 33.179226,58.100895 32.944552,57.97373 32.709884,57.846565 32.482374,57.708122 32.262206,57.559623 32.042032,57.411124 31.828655,57.252176 31.624354,57.08371 31.420052,56.915244 31.224258,56.738 31.03719,56.550934 30.850123,56.363867 30.672879,56.166833 30.504412,55.962531 30.335946,55.75823 30.176999,55.546089 30.028501,55.32592 29.880003,55.105751 29.741562,54.878242 29.614392,54.643571 29.487229,54.408901 29.371503,54.166999 29.267036,53.919194 29.180216,53.713227 29.106165,53.500466 29.035881,53.28629 Z" />
  <path
     id="path30145"
     style="fill:#fecf40;fill-rule:evenodd;stroke-width:0.0635061;stroke-linecap:round;stroke-linejoin:round;paint-order:stroke fill markers"
     d="m 61.999998,47.921457 c -0.05316,0.06032 -0.106713,0.120783 -0.166877,0.185421 -0.0762,0.08187 -0.158213,0.16666 -0.245991,0.254645 -0.08778,0.08799 -0.180795,0.178778 -0.280604,0.27195 -0.09981,0.09317 -0.206617,0.189346 -0.31892,0.286785 -0.112308,0.09744 -0.23075,0.197126 -0.356008,0.297909 -0.125264,0.100783 -0.256882,0.202121 -0.395564,0.305326 -0.138688,0.103205 -0.283788,0.208038 -0.436362,0.312744 -0.152567,0.104705 -0.312698,0.209931 -0.47962,0.315215 -0.166922,0.105284 -0.341154,0.210276 -0.522886,0.315216 -0.181738,0.10494 -0.3704,0.209056 -0.567391,0.312743 -0.196985,0.103686 -0.402893,0.207521 -0.615593,0.309034 -0.212706,0.101514 -0.432463,0.200726 -0.661333,0.299147 -0.228877,0.09842 -0.46652,0.196084 -0.712017,0.290492 -0.245503,0.09441 -0.498879,0.186182 -0.761464,0.275659 -0.262586,0.08948 -0.534487,0.175963 -0.814616,0.259589 -0.28013,0.08363 -0.568404,0.164191 -0.866533,0.241047 -0.29813,0.07686 -0.605569,0.14963 -0.922159,0.218797 -0.316591,0.06917 -0.642283,0.134752 -0.977785,0.19531 -0.335509,0.06056 -0.681004,0.117085 -1.035886,0.168115 -0.354881,0.05103 -0.719269,0.09663 -1.093985,0.137211 -0.374711,0.04058 -0.759548,0.07586 -1.154555,0.105072 -0.395001,0.02922 -0.800604,0.0523 -1.216358,0.06922 -0.207877,0.0085 -0.41852,0.01579 -0.631669,0.02101 -0.213149,0.0052 -0.429254,0.008 -0.647738,0.0099 -0.218478,0.0018 -0.438703,0.0028 -0.662568,0.0013 -0.223864,-0.0016 -0.450563,-0.0059 -0.679877,-0.01113 -0.229313,-0.0052 -0.461133,-0.01211 -0.695947,-0.02101 -0.0089,-3.4e-4 -0.01823,-8.87e-4 -0.02721,-0.0013 H 43.91527 c 0.05443,0.0023 0.110271,0.0054 0.164403,0.0074 0.234845,0.0089 0.466608,0.01582 0.695947,0.02101 0.229339,0.0052 0.455982,0.0095 0.679877,0.01113 0.223896,0.0016 0.445298,6.29e-4 0.663808,-0.0013 0.218504,-0.0018 0.434558,-0.0047 0.647732,-0.0099 0.213181,-0.0053 0.422533,-0.01254 0.630435,-0.02101 0.415805,-0.01694 0.821306,-0.03999 1.216358,-0.06922 0.395052,-0.02923 0.779794,-0.06447 1.154555,-0.105071 0.374761,-0.0406 0.740294,-0.0874 1.09522,-0.138448 0.354925,-0.05105 0.699098,-0.106295 1.034651,-0.166879 0.335546,-0.06058 0.662384,-0.126114 0.979019,-0.19531 0.316635,-0.0692 0.623985,-0.141908 0.922159,-0.218796 0.298179,-0.07689 0.586359,-0.157387 0.866533,-0.241047 0.28018,-0.08366 0.551986,-0.171312 0.814616,-0.260826 0.262636,-0.08951 0.517145,-0.181213 0.762699,-0.275659 0.245554,-0.09445 0.481854,-0.190797 0.710782,-0.289256 0.228927,-0.09846 0.44981,-0.198829 0.662567,-0.300382 0.212763,-0.101553 0.417311,-0.205307 0.614366,-0.309034 0.197054,-0.103728 0.386817,-0.207762 0.568619,-0.312744 0.181808,-0.104981 0.355869,-0.209886 0.522892,-0.315215 0.167017,-0.105329 0.326932,-0.210462 0.47962,-0.315216 0.152682,-0.104754 0.298787,-0.209486 0.437589,-0.312743 0.138809,-0.103257 0.27018,-0.205726 0.395565,-0.306562 0.125391,-0.100837 0.244826,-0.200417 0.357248,-0.29791 0.112417,-0.09749 0.217776,-0.192321 0.317686,-0.285548 0.09991,-0.09323 0.193985,-0.185147 0.281838,-0.273187 0.08786,-0.08804 0.169739,-0.172717 0.245991,-0.254645 0.05854,-0.06287 0.110005,-0.12167 0.161934,-0.180476 z" />
  <path
     id="path30151"
     style="fill:#fecf40;fill-rule:evenodd;stroke-width:0.0635061;stroke-linecap:round;stroke-linejoin:round;paint-order:stroke fill markers"
     d="m 49.252936,20.498948 c 0.08272,0.02429 0.164504,0.04625 0.248465,0.07417 0.145757,0.04847 0.292749,0.102849 0.441298,0.16317 0.148555,0.06032 0.298578,0.126927 0.448722,0.200254 0.150137,0.07333 0.30066,0.153553 0.45119,0.241048 0.150524,0.08749 0.301471,0.182726 0.451191,0.285548 0.149719,0.102822 0.298534,0.213212 0.446247,0.332521 0.147707,0.119309 0.294332,0.247484 0.43883,0.384439 0.144498,0.136956 0.286388,0.283068 0.426463,0.43883 0.14008,0.155762 0.278414,0.321199 0.412874,0.496928 0.134454,0.175728 0.265459,0.361881 0.39309,0.558734 0.127631,0.196855 0.251243,0.403876 0.370843,0.623015 0.1196,0.219139 0.234516,0.449653 0.344882,0.692237 0.110372,0.242585 0.216522,0.497982 0.316451,0.765171 0.09993,0.267188 0.193555,0.546385 0.281838,0.839338 0.08829,0.292953 0.170549,0.598575 0.245997,0.918451 0.07544,0.319877 0.145036,0.654549 0.206434,1.002509 0.06139,0.34796 0.114556,0.709364 0.160694,1.086567 0.04614,0.377202 0.08528,0.769199 0.114961,1.176804 0.01823,0.250595 0.02665,0.518799 0.03829,0.78124 0.0038,0.03132 0.0079,0.06248 0.01114,0.09395 -0.01215,-0.295671 -0.02278,-0.594397 -0.04329,-0.875186 -0.02968,-0.407704 -0.06881,-0.799498 -0.11496,-1.176804 -0.04614,-0.377307 -0.09929,-0.739736 -0.160701,-1.087803 -0.06139,-0.348067 -0.130967,-0.682522 -0.206434,-1.002509 -0.07546,-0.319987 -0.157675,-0.625386 -0.24599,-0.918451 -0.08832,-0.293065 -0.181871,-0.573273 -0.281839,-0.840575 -0.09997,-0.267302 -0.206041,-0.522472 -0.316451,-0.76517 -0.110416,-0.242698 -0.225231,-0.472985 -0.344882,-0.692238 -0.119656,-0.219252 -0.244389,-0.427285 -0.372084,-0.62425 -0.127694,-0.196965 -0.258559,-0.382899 -0.393089,-0.558735 -0.13453,-0.175836 -0.272706,-0.341061 -0.412868,-0.496928 -0.140163,-0.155866 -0.281877,-0.30301 -0.42647,-0.440065 -0.144593,-0.137055 -0.292249,-0.265037 -0.440064,-0.384439 -0.14782,-0.119403 -0.296407,-0.229614 -0.446247,-0.332522 -0.149846,-0.102908 -0.300528,-0.197975 -0.45119,-0.285548 -0.150663,-0.08757 -0.300901,-0.167637 -0.451191,-0.241047 -0.150295,-0.07341 -0.300008,-0.139851 -0.448722,-0.200254 -0.148713,-0.0604 -0.29661,-0.114616 -0.442538,-0.163171 -0.07795,-0.02594 -0.154264,-0.04642 -0.231156,-0.06922 z" />
  <path
     id="path30153"
     style="fill:#fecf40;fill-rule:evenodd;stroke-width:0.0635061;stroke-linecap:round;stroke-linejoin:round;paint-order:stroke fill markers"
     d="m 29.789928,53.308551 c -0.1992,-0.0054 -0.396925,-0.01172 -0.590878,-0.01978 -0.221536,-0.0092 -0.439134,-0.01958 -0.653916,-0.03214 -0.214782,-0.01256 -0.427241,-0.02747 -0.635378,-0.04326 -0.20813,-0.01579 -0.412773,-0.03302 -0.614359,-0.05192 -0.201586,-0.0189 -0.399438,-0.03868 -0.594581,-0.06057 -0.195149,-0.02189 -0.387235,-0.0457 -0.576043,-0.07046 -0.188808,-0.02477 -0.374932,-0.05037 -0.557499,-0.07788 -0.182567,-0.02751 -0.361287,-0.05639 -0.537721,-0.08653 -0.176435,-0.03014 -0.350008,-0.06254 -0.520411,-0.09518 -0.170409,-0.03265 -0.338629,-0.06633 -0.503114,-0.101364 -0.164479,-0.03504 -0.325907,-0.07148 -0.484563,-0.10878 -0.158656,-0.0373 -0.314319,-0.07552 -0.46726,-0.11496 -0.152941,-0.03944 -0.302635,-0.07968 -0.449956,-0.121142 -0.147321,-0.04147 -0.292072,-0.08395 -0.433887,-0.127323 -0.141808,-0.04337 -0.280174,-0.08712 -0.416577,-0.132266 -0.136403,-0.04515 -0.270648,-0.09164 -0.401741,-0.138448 -0.1311,-0.04681 -0.259788,-0.09505 -0.385679,-0.143392 -0.125891,-0.04835 -0.248813,-0.09734 -0.369603,-0.1471 -0.241592,-0.09953 -0.472899,-0.200855 -0.694712,-0.305327 -0.221814,-0.104472 -0.434982,-0.211714 -0.637847,-0.32016 -0.20287,-0.108446 -0.396241,-0.218597 -0.580986,-0.330049 -0.184744,-0.111453 -0.360381,-0.223976 -0.527835,-0.337466 -0.167447,-0.11349 -0.326166,-0.227852 -0.477145,-0.342411 -0.150986,-0.114558 -0.293598,-0.228989 -0.428944,-0.343646 -0.13534,-0.114657 -0.263908,-0.229859 -0.384438,-0.343647 -0.12053,-0.113788 -0.23339,-0.226751 -0.339939,-0.338702 -0.106543,-0.111951 -0.206991,-0.222139 -0.300382,-0.331285 -0.09338,-0.109146 -0.179764,-0.217259 -0.260826,-0.322633 -0.08106,-0.105373 -0.156656,-0.208401 -0.226212,-0.309035 -0.01696,-0.02457 -0.03063,-0.04745 -0.04696,-0.0717 v 0.0099 c 0.01506,0.02227 0.02766,0.04297 0.04329,0.06552 0.06959,0.100687 0.143878,0.204854 0.224978,0.310271 0.0811,0.105417 0.168631,0.212211 0.26206,0.321397 0.09344,0.109184 0.192555,0.220531 0.299148,0.332521 0.106594,0.111989 0.220586,0.22487 0.341173,0.338702 0.120593,0.113832 0.247788,0.228936 0.383204,0.343646 0.135416,0.114711 0.279104,0.22902 0.430178,0.343647 0.151074,0.114627 0.309603,0.228859 0.477146,0.342411 0.167548,0.113551 0.344223,0.225958 0.529069,0.337466 0.184852,0.111507 0.378014,0.22279 0.580986,0.331285 0.202978,0.108495 0.415918,0.21441 0.637846,0.318924 0.221927,0.104514 0.453007,0.206997 0.694713,0.306562 0.120852,0.04978 0.244889,0.09874 0.370843,0.147101 0.125948,0.04837 0.254516,0.09657 0.385672,0.143392 0.131157,0.04682 0.264047,0.09205 0.400508,0.137212 0.136466,0.04516 0.275945,0.09012 0.417817,0.133502 0.141871,0.04338 0.286503,0.08584 0.433887,0.127323 0.147378,0.04148 0.296958,0.08169 0.449956,0.121141 0.152992,0.03946 0.309774,0.07765 0.468494,0.114961 0.158713,0.03731 0.320027,0.07374 0.484563,0.108781 0.164542,0.03504 0.331414,0.06871 0.501873,0.101363 0.170467,0.03266 0.343926,0.0638 0.520418,0.09395 0.176491,0.03015 0.356331,0.05901 0.538955,0.08653 0.182624,0.02752 0.368641,0.05435 0.557499,0.07911 0.188858,0.02477 0.380843,0.04856 0.576043,0.07046 0.195194,0.0219 0.392944,0.04166 0.594581,0.06057 0.201637,0.0189 0.407412,0.03613 0.6156,0.05192 0.20818,0.01579 0.419304,0.03071 0.634137,0.04327 0.214826,0.01256 0.43357,0.02294 0.655156,0.03214 0.221579,0.0092 0.446494,0.01653 0.674928,0.02225 0.04715,0.0012 0.09595,0.0015 0.143391,0.0025 -0.07599,-0.0048 -0.153271,-0.0044 -0.228681,-0.01113 z" />
  <path
     id="path30211"
     style="fill:url(#linearGradient1018);paint-order:stroke fill markers"
     d="M 6.7226562,5.0292969 C 4.1065638,5.0292969 2,7.1358251 2,9.7519531 V 31.337891 l 8.457031,-8.455079 v -6.521484 c 0,-1.59244 1.282594,-2.875 2.875,-2.875 h 20.560547 c 1.592442,0 2.875,1.28256 2.875,2.875 v 4.136719 h 8.455078 V 9.7519531 c 0,-2.6160925 -2.104575,-4.7226562 -4.720703,-4.7226562 z"
     sodipodi:nodetypes="ssccssssccsss" />
  <path
     id="path30213"
     style="fill:url(#linearGradient1016);paint-order:stroke fill markers"
     d="M 2.0019531,31.339844 V 43.53125 c 0,2.616092 2.1045752,4.720703 4.7207031,4.720703 h 9.1914058 c -0.06132,-0.08137 -0.12153,-0.161749 -0.175781,-0.240234 -0.01696,-0.02457 -0.03055,-0.04802 -0.04687,-0.07227 v -7.748047 -0.394531 h -2.359375 c -1.592441,0 -2.875,-1.28256 -2.875,-2.875 v -5.582031 z"
     sodipodi:nodetypes="csscccccsscc" />
</svg>
