<?xml version="1.0" encoding="UTF-8" standalone="no"?>
<svg
   width="64"
   height="64"
   viewBox="0 0 64 64"
   version="1.1"
   id="svg31055"
   sodipodi:docname="scanner.svg"
   inkscape:version="1.2.2 (b0a8486541, 2022-12-01)"
   xmlns:inkscape="http://www.inkscape.org/namespaces/inkscape"
   xmlns:sodipodi="http://sodipodi.sourceforge.net/DTD/sodipodi-0.dtd"
   xmlns:xlink="http://www.w3.org/1999/xlink"
   xmlns="http://www.w3.org/2000/svg"
   xmlns:svg="http://www.w3.org/2000/svg">
  <sodipodi:namedview
     id="namedview31057"
     pagecolor="#ffffff"
     bordercolor="#999999"
     borderopacity="1"
     inkscape:showpageshadow="0"
     inkscape:pageopacity="0"
     inkscape:pagecheckerboard="0"
     inkscape:deskcolor="#d1d1d1"
     showgrid="false"
     inkscape:zoom="6.328125"
     inkscape:cx="72.375309"
     inkscape:cy="32.079012"
     inkscape:window-width="1920"
     inkscape:window-height="962"
     inkscape:window-x="0"
     inkscape:window-y="40"
     inkscape:window-maximized="1"
     inkscape:current-layer="svg31055" />
  <defs
     id="defs31034">
    <linearGradient
       id="linear0"
       gradientUnits="userSpaceOnUse"
       x1="19.3366"
       y1="24.336"
       x2="22.5636"
       y2="27.5636"
       gradientTransform="matrix(2,0,0,-2,0,68)">
      <stop
         offset="0"
         style="stop-color:rgb(18.823529%,47.45098%,83.921569%);stop-opacity:1;"
         id="stop31029" />
      <stop
         offset="1"
         style="stop-color:rgb(16.078431%,48.627451%,82.352941%);stop-opacity:1;"
         id="stop31031" />
    </linearGradient>
    <linearGradient
       id="linearGradient18235"
       x1="-42.855999"
       x2="-42.855999"
       y1="36.222"
       y2="6.4275999"
       gradientUnits="userSpaceOnUse"
       gradientTransform="translate(71.723,-1.37305)">
      <stop
         stop-color="#1f94d2"
         offset="0"
         id="stop31176" />
      <stop
         stop-color="#43b4e6"
         offset="1"
         id="stop31178" />
    </linearGradient>
    <linearGradient
       id="linearGradient12534"
       x1="31.591999"
       x2="31.591999"
       y1="25.597"
       y2="45.622002"
       gradientUnits="userSpaceOnUse">
      <stop
         stop-color="#64bae7"
         offset="0"
         id="stop31181" />
      <stop
         stop-color="#1f94d2"
         offset="1"
         id="stop31183" />
    </linearGradient>
    <linearGradient
       inkscape:collect="always"
       xlink:href="#linearGradient12534"
       id="linearGradient32989"
       gradientUnits="userSpaceOnUse"
       x1="31.591999"
       y1="25.597"
       x2="31.591999"
       y2="45.622002"
       gradientTransform="translate(0,-5e-5)" />
    <linearGradient
       inkscape:collect="always"
       xlink:href="#linearGradient12534"
       id="linearGradient32991"
       gradientUnits="userSpaceOnUse"
       x1="31.591999"
       y1="25.597"
       x2="31.591999"
       y2="45.622002"
       gradientTransform="translate(0,-5e-5)" />
  </defs>
  <path
     id="path31188"
     style="fill:url(#linearGradient18235);-inkscape-stroke:none"
     d="M 47 37.626953 L 53 37.626953 L 53 29.222656 A 2.9974 2.9974 0 0 0 53 29.220703 A 2.9974 2.9974 0 0 0 50.001953 26.226562 A 2.9974 2.9974 0 0 0 47.005859 29.220703 L 47 29.220703 L 47 37.626953 z " />
  <path
     id="path33770"
     style="fill:url(#linearGradient18235);-inkscape-stroke:none"
     d="M 47 39.626953 L 53 39.626953 L 53 37.626953 L 47 37.626953 L 47 39.626953 z " />
  <path
     id="path33768"
     style="fill:#ff9cbd;-inkscape-stroke:none;fill-opacity:1"
     d="M 17 39.626953 L 11 39.626953 L 11 56.054688 C 11.000166 57.711486 12.343202 59.054488 14 59.054688 L 50 59.054688 C 51.656798 59.054522 52.9998 57.711486 53 56.054688 L 53 39.626953 L 47 39.626953 L 47 53.054688 L 17 53.054688 L 17 39.626953 z " />
  <path
     id="path33766"
     style="fill:url(#linearGradient18235);-inkscape-stroke:none"
     d="M 17 37.626953 L 11 37.626953 L 11 39.626953 L 17 39.626953 L 17 37.626953 z " />
  <path
     id="path33764"
     style="fill:url(#linearGradient18235);-inkscape-stroke:none"
     d="M 14 5.0546875 C 12.343202 5.0548532 11.0002 6.3978892 11 8.0546875 L 11 37.626953 L 17 37.626953 L 17 11.054688 L 28.867188 11.054688 L 28.867188 11.048828 A 2.9974 2.9974 0 0 0 31.863281 8.0527344 A 2.9974 2.9974 0 0 0 28.867188 5.0546875 L 14 5.0546875 z " />
  <path
     d="m 50.000864,22.116486 a 3.0003,3.0003 0 0 0 2.1211,-5.1211 l -11.172,-11.1720005 a 3.0003,3.0003 0 0 0 -5.1211,2.1211 V 19.116486 a 3.0003,3.0003 0 0 0 3,3 z"
     color="#000000"
     fill="#2094d2"
     stroke-linecap="round"
     stroke-linejoin="round"
     style="-inkscape-stroke:none"
     id="path31190" />
  <rect
     x="20"
     y="25.626951"
     width="24"
     height="2"
     ry="1"
     style="font-variation-settings:'wght' 700;fill:url(#linearGradient32989);fill-rule:evenodd;stroke-width:0.98;stroke-linecap:round;stroke-linejoin:round;paint-order:stroke fill markers"
     id="rect31194" />
  <rect
     x="20"
     y="31.626951"
     width="24"
     height="2"
     ry="1"
     style="font-variation-settings:'wght' 700;fill:url(#linearGradient32991);fill-rule:evenodd;stroke-width:0.98;stroke-linecap:round;stroke-linejoin:round;paint-order:stroke fill markers"
     id="rect31196" />
  <rect
     x="20"
     y="37.626949"
     width="24"
     height="2"
     ry="1"
     style="font-variation-settings:'wght' 700;fill:#cf1726;fill-rule:evenodd;stroke-width:0.98;stroke-linecap:round;stroke-linejoin:round;paint-order:stroke fill markers;fill-opacity:1"
     id="rect31198" />
  <rect
     x="20"
     y="43.626949"
     width="16"
     height="2"
     ry="1"
     style="font-variation-settings:'wght' 700;fill:#b62f5b;fill-rule:evenodd;stroke-width:0.98;stroke-linecap:round;stroke-linejoin:round;paint-order:stroke fill markers;fill-opacity:1"
     id="rect31200" />
  <rect
     x="5.8132544"
     y="37.626949"
     width="52.373493"
     height="2"
     ry="1"
     style="font-variation-settings:'wght' 700;fill:#cf1726;fill-opacity:1;fill-rule:evenodd;stroke-width:1.44769;stroke-linecap:round;stroke-linejoin:round;paint-order:stroke fill markers"
     id="rect33760" />
</svg>
