<?xml version="1.0" encoding="UTF-8" standalone="no"?>
<svg
   width="64"
   height="64"
   version="1.1"
   id="svg31"
   sodipodi:docname="skype.svg"
   xml:space="preserve"
   inkscape:version="1.2.2 (b0a8486541, 2022-12-01)"
   xmlns:inkscape="http://www.inkscape.org/namespaces/inkscape"
   xmlns:sodipodi="http://sodipodi.sourceforge.net/DTD/sodipodi-0.dtd"
   xmlns:xlink="http://www.w3.org/1999/xlink"
   xmlns="http://www.w3.org/2000/svg"
   xmlns:svg="http://www.w3.org/2000/svg"
   xmlns:rdf="http://www.w3.org/1999/02/22-rdf-syntax-ns#"
   xmlns:cc="http://creativecommons.org/ns#"
   xmlns:dc="http://purl.org/dc/elements/1.1/"><sodipodi:namedview
     id="namedview33"
     pagecolor="#ffffff"
     bordercolor="#999999"
     borderopacity="1"
     inkscape:showpageshadow="0"
     inkscape:pageopacity="0"
     inkscape:pagecheckerboard="0"
     inkscape:deskcolor="#d1d1d1"
     showgrid="false"
     inkscape:zoom="4.4746601"
     inkscape:cx="46.372237"
     inkscape:cy="12.403177"
     inkscape:window-width="1920"
     inkscape:window-height="965"
     inkscape:window-x="0"
     inkscape:window-y="40"
     inkscape:window-maximized="1"
     inkscape:current-layer="svg31" /><metadata
     id="metadata2"><rdf:RDF><cc:Work
         rdf:about=""><dc:format>image/svg+xml</dc:format><dc:type
           rdf:resource="http://purl.org/dc/dcmitype/StillImage" /><dc:title /></cc:Work></rdf:RDF></metadata><defs
     id="defs19"><linearGradient
       inkscape:collect="always"
       id="linearGradient7997"><stop
         style="stop-color:#f329ea;stop-opacity:1"
         offset="0"
         id="stop7993" /><stop
         style="stop-color:#8308e4;stop-opacity:1"
         offset="0.61346179"
         id="stop13450" /><stop
         style="stop-color:#3104fb;stop-opacity:1"
         offset="1"
         id="stop7995" /></linearGradient><linearGradient
       inkscape:collect="always"
       id="linearGradient5710"><stop
         style="stop-color:#f329ea;stop-opacity:1"
         offset="0"
         id="stop5706" /><stop
         style="stop-color:#3104fb;stop-opacity:1"
         offset="1"
         id="stop5708" /></linearGradient><linearGradient
       id="linearGradient924"
       x1="23.713"
       x2="63.713"
       y1="11.713"
       y2="11.713"
       gradientTransform="translate(1.542 -11.713)"
       gradientUnits="userSpaceOnUse"><stop
         stop-color="#1e78dc"
         offset="0"
         id="stop4" /><stop
         stop-color="#46b9ff"
         offset="1"
         id="stop6" /></linearGradient><linearGradient
       id="linearGradient932"
       x1="18.713"
       x2="48.713"
       y1="11.713"
       y2="11.713"
       gradientTransform="translate(1.542 -11.713)"
       gradientUnits="userSpaceOnUse"><stop
         stop-color="#1549a8"
         offset="0"
         id="stop9" /><stop
         stop-color="#166de9"
         offset="1"
         id="stop11" /></linearGradient><linearGradient
       id="linearGradient940"
       x1="38.713"
       x2="68.713"
       y1="11.713"
       y2="11.713"
       gradientTransform="translate(1.542 -11.713)"
       gradientUnits="userSpaceOnUse"><stop
         stop-color="#154ba8"
         offset="0"
         id="stop14" /><stop
         stop-color="#136ce8"
         offset="1"
         id="stop16" /></linearGradient><linearGradient
       inkscape:collect="always"
       xlink:href="#linearGradient5710"
       id="linearGradient5712"
       x1="130.93738"
       y1="-0.66778839"
       x2="130.93738"
       y2="68.24823"
       gradientUnits="userSpaceOnUse" /><linearGradient
       inkscape:collect="always"
       xlink:href="#linearGradient7997"
       id="linearGradient5714"
       x1="130.93738"
       y1="-0.66778839"
       x2="130.93738"
       y2="68.24823"
       gradientUnits="userSpaceOnUse" /></defs><g
     id="g21182"
     transform="matrix(0.70593356,0,0,0.70593356,-57.893113,8.1463498)"><path
       id="rect5417"
       style="opacity:1;fill:url(#linearGradient5712);fill-opacity:1;fill-rule:evenodd;stroke-width:1.1012;stroke-linecap:round;stroke-linejoin:round;paint-order:stroke fill markers"
       d="m 108.15867,-0.6677884 c -11.711007,0 -21.138668,9.427661 -21.138668,21.1386724 0,11.711014 9.427661,21.138672 21.138668,21.138672 h 31.48243 v -6.21289 l 7.64648,6.21289 h 18.81055 V 38.968931 C 161.63279,25.621604 146.57274,25.970884 146.57274,25.970884 h -30.69532 v 6.322266 h -7.10351 c 0,-5.793856 -6.52734,-10.207031 -6.52734,-10.207031 V 16.47479 c 0,-1.77319 2.41601,-1.876953 2.41601,-1.876953 h 54.68164 c 3.83788,0 6.75391,-5.1464844 6.75391,-5.1464844 v -10.119141 z" /><path
       id="rect5466"
       style="opacity:1;fill:url(#linearGradient5714);fill-opacity:1;fill-rule:evenodd;stroke-width:1.1012;stroke-linecap:round;stroke-linejoin:round;paint-order:stroke fill markers"
       d="m 87.736799,25.970884 c 0,0 3.382282,15.638672 20.421871,15.638672 h 31.48243 v -6.21289 l 12.34765,10.033203 c 0,0 1.67132,1.657491 0,3.123047 -1.67131,1.465553 -12.76953,9.228515 -12.76953,9.228515 V 52.85565 H 94.689924 c 0,0 -7.722656,0.743363 -7.722656,8.068359 0,7.324996 2.336723,7.324219 8.033203,7.324219 h 51.572269 c 11.71101,0 21.13867,-9.42766 21.13867,-21.138672 0,-11.711011 -9.42766,-21.138672 -21.13867,-21.138672 h -30.69532 v 6.322266 h -7.10351 c 0,-3.143392 -2.46875,-6.322266 -2.46875,-6.322266 z" /></g></svg>
