<?xml version="1.0" encoding="UTF-8" standalone="no"?>
<svg
   id="Iterm"
   width="64"
   height="64"
   enable-background="new 0 0 1024 1024"
   image-rendering="optimizeSpeed"
   version="1.1"
   viewBox="0 0 64 64"
   sodipodi:docname="stacer.svg"
   xml:space="preserve"
   inkscape:version="1.2.2 (b0a8486541, 2022-12-01)"
   xmlns:inkscape="http://www.inkscape.org/namespaces/inkscape"
   xmlns:sodipodi="http://sodipodi.sourceforge.net/DTD/sodipodi-0.dtd"
   xmlns:xlink="http://www.w3.org/1999/xlink"
   xmlns="http://www.w3.org/2000/svg"
   xmlns:svg="http://www.w3.org/2000/svg"
   xmlns:rdf="http://www.w3.org/1999/02/22-rdf-syntax-ns#"
   xmlns:cc="http://creativecommons.org/ns#"
   xmlns:dc="http://purl.org/dc/elements/1.1/"><sodipodi:namedview
     id="namedview72"
     pagecolor="#ffffff"
     bordercolor="#999999"
     borderopacity="1"
     inkscape:showpageshadow="0"
     inkscape:pageopacity="0"
     inkscape:pagecheckerboard="0"
     inkscape:deskcolor="#d1d1d1"
     showgrid="false"
     inkscape:zoom="5.15625"
     inkscape:cx="-15.709091"
     inkscape:cy="27.636364"
     inkscape:window-width="1920"
     inkscape:window-height="965"
     inkscape:window-x="0"
     inkscape:window-y="40"
     inkscape:window-maximized="1"
     inkscape:current-layer="Iterm" /><metadata
     id="metadata2"><rdf:RDF><cc:Work
         rdf:about=""><dc:format>image/svg+xml</dc:format><dc:type
           rdf:resource="http://purl.org/dc/dcmitype/StillImage" /><dc:title /></cc:Work></rdf:RDF></metadata><defs
     id="defs14"><linearGradient
       inkscape:collect="always"
       id="linearGradient1234"><stop
         style="stop-color:#77f4d1;stop-opacity:1"
         offset="0"
         id="stop1230" /><stop
         style="stop-color:#45bded;stop-opacity:1"
         offset="1"
         id="stop1232" /></linearGradient><linearGradient
       id="linearGradient954"
       x1="10.941"
       x2="53.059"
       y1="28.918"
       y2="28.918"
       gradientUnits="userSpaceOnUse"
       gradientTransform="translate(-94.802792)"><stop
         stop-color="#81fecb"
         offset="0"
         id="stop4" /><stop
         stop-color="#3bb3f3"
         offset="1"
         id="stop6" /></linearGradient><linearGradient
       id="linearGradient1000"
       x1="32.297"
       x2="45.728"
       y1="17.619"
       y2="40.322"
       gradientTransform="translate(0.13507,0.43733)"
       gradientUnits="userSpaceOnUse"><stop
         stop-color="#286c81"
         offset="0"
         id="stop9" /><stop
         stop-color="#16afc2"
         offset="1"
         id="stop11" /></linearGradient><linearGradient
       inkscape:collect="always"
       xlink:href="#linearGradient1234"
       id="linearGradient5365"
       x1="247.56639"
       y1="1.4445146"
       x2="247.56639"
       y2="166.7914"
       gradientUnits="userSpaceOnUse" /></defs><mask
     id="mask19"><g
       id="g"><path
         d="m969.75 392.05c-1.1-4.35-2.35-9-3.65-13.6-1-3.4-2-6.85-3.15-10.5-1.6-5.15-3.4-10.5-5.3-15.85-6.45-18.25-14.15-36.05-23.15-53.65-3.8-7.4-7.95-14.95-12.3-22.4-20.3-34.5-45.8-67.2-76.35-97.75-72.6-72.6-157.15-116.65-253.65-132.05-16.25-2.6-32.8-4.4-50.05-5.35-9.7-0.55-19.85-0.85-30.1-0.85-9.35 0-18.6 0.25-27.9 0.75-118.35 6.1-220.3 51.95-305.85 137.5q-138.25 138.25-138.25 333.75c0 130.35 46.1 241.65 138.25 333.8 56.7 56.65 120.55 95.9 191.1 117.55 36.75 11.25 74.8 17.85 114.75 19.95h0.4c8.5 0.45 16.6 0.7 24.5 0.7h3c10.3 0 20.5-0.3 30.1-0.8 2.5-0.15 4.75-0.3 6.95-0.45 20.2-1.45 39.9-4.05 58.7-7.7 7.95-1.55 15.8-3.3 23.4-5.15 80.8-20.3 152.15-61.6 214.65-124.1 48.6-48.6 84.4-102.5 107.35-161.8 18.45-47.65 28.65-98.8 30.55-153.5 0.2-6.05 0.3-12.25 0.3-18.5v-3c-0.2-40.65-4.95-79.5-14.3-117z"
         fill="#fff"
         id="path16" /></g></mask><g
     id="g5363"
     transform="matrix(0.34472891,0,0,0.34472891,-53.431156,3.002034)"
     style="fill-opacity:1;fill:url(#linearGradient5365)"><path
       id="path419"
       style="fill:url(#linearGradient5365);fill-opacity:1.0;fill-rule:evenodd;stroke-width:1.43423;stroke-linecap:round;stroke-linejoin:round;paint-order:stroke fill markers"
       d="m 211.13377,127.77907 a 52.215164,52.215164 0 0 0 73.84293,-1e-5 52.215164,52.215164 0 0 0 1e-5,-73.842932 52.215164,52.215164 0 0 0 -0.58421,-0.506847 l -8.41346,8.41346 a 40.322674,40.322674 0 0 1 0.58838,0.502675 40.322674,40.322674 0 0 1 -1e-5,57.024294 40.322674,40.322674 0 0 1 -57.02429,0 40.322674,40.322674 0 0 1 0,-57.024295 l -8.40933,-8.409324 a 52.215164,52.215164 0 0 0 -2e-5,73.842979 z" /><path
       id="path978"
       style="fill:url(#linearGradient5365);fill-opacity:1.0;fill-rule:evenodd;stroke-width:1.09364;stroke-linecap:round;stroke-linejoin:round;paint-order:stroke fill markers"
       d="m 193.96295,144.48308 a 76.168762,76.168762 0 0 0 107.71777,0 76.168762,76.168762 0 0 0 0,-107.717775 76.168762,76.168762 0 0 0 -0.33418,-0.290062 l -8.79464,8.79464 a 63.735279,63.735279 0 0 1 0.33701,0.287234 63.735279,63.735279 0 0 1 -1e-5,90.134023 63.735279,63.735279 0 0 1 -90.13401,0 63.735279,63.735279 0 0 1 -10e-4,-90.135401 l -8.79188,-8.791876 a 76.168762,76.168762 0 0 0 0.001,107.719157 z" /><path
       id="path983"
       style="fill:url(#linearGradient5365);fill-opacity:1.0;fill-rule:evenodd;stroke-width:0.65512;stroke-linecap:round;stroke-linejoin:round;paint-order:stroke fill markers"
       d="m 224.1214,66.923588 c 0,0 3.19341,3.443112 6.93158,1.081379 0.0112,-0.007 0.0354,-0.01232 0.0469,-0.01935 9.65038,-7.164316 21.57805,-8.409002 31.63197,-1.82296 9e-5,7e-6 0.0235,0.0014 0.0235,0.0014 0,0 0.27553,0.186435 0.42809,0.295577 0.1399,0.0945 0.27893,0.190262 0.41709,0.287262 1.54364,0.970504 4.8631,2.61124 7.02411,0.450237 l 5.3544,-5.354404 c -0.10288,-0.119847 -0.2065,-0.23903 -0.31074,-0.357697 -15.82052,-15.821521 -40.30466,-14.961151 -56.12518,0.860371 z"
       sodipodi:nodetypes="cccscccscccc" /><path
       id="path1054"
       style="fill:url(#linearGradient5365);fill-opacity:1.0;fill-rule:evenodd;stroke:none;stroke-width:2.1358;stroke-linecap:round;stroke-linejoin:round;paint-order:stroke fill markers"
       d="m 211.13379,53.936091 c 0.46846,-0.573674 0.94964,-1.136838 1.44322,-1.689048 19.44438,-19.445128 50.77321,-20.134246 70.21759,-0.689114 0.548,0.610502 1.08077,1.234503 1.5979,1.871352 l 8.23698,-8.236981 c -0.52428,-0.630351 -1.06114,-1.250137 -1.61033,-1.85892 -23.88046,-23.881316 -62.93092,-23.336957 -86.81138,0.544357 -0.49489,0.550467 -0.97969,1.109932 -1.45426,1.678002 z"
       sodipodi:nodetypes="ccccccccc" /><path
       id="path1062"
       style="fill:url(#linearGradient5365);fill-opacity:1.0;fill-rule:evenodd;stroke:none;stroke-width:1.7931;stroke-linecap:round;stroke-linejoin:round;stroke-opacity:1;paint-order:stroke fill markers"
       d="m 189.74661,24.0608 c -0.045,0.04501 -0.2342,0.252447 -0.54138,0.676721 -0.16961,0.234247 -0.36042,0.515816 -0.5469,0.834169 -0.18651,0.318317 -0.36947,0.671985 -0.52757,1.052371 -0.1581,0.380386 -0.28982,0.788051 -0.37426,1.208439 -0.0844,0.420381 -0.12149,0.855717 -0.087,1.294056 0.0172,0.219174 0.0523,0.43786 0.10772,0.657392 0.0555,0.219525 0.1313,0.438872 0.23064,0.656005 0.0993,0.217131 0.22263,0.432982 0.37151,0.644959 0.14887,0.211976 0.32349,0.42017 0.52756,0.624241 l 5.05471,5.05471 c 0.22656,-0.259367 0.45486,-0.517219 0.68501,-0.773398 28.93164,-28.9315077 77.1578,-29.1372334 106.08944,-0.205726 0.20488,0.228926 0.40842,0.459054 0.61046,0.690504 l 4.52438,-4.52438 c 0,0 0.23577,-0.268439 0.52756,-0.734727 0.14589,-0.233147 0.30656,-0.515092 0.45713,-0.83831 0.15058,-0.323212 0.29077,-0.687117 0.40052,-1.082758 0.10974,-0.39564 0.18928,-0.822937 0.21268,-1.273343 0.0234,-0.450399 -0.008,-0.923956 -0.11601,-1.411456 -0.0542,-0.24374 -0.128,-0.490534 -0.22373,-0.740249 -0.0957,-0.249715 -0.21478,-0.501975 -0.3577,-0.755445 -0.11247,-0.199439 -0.2543,-0.400208 -0.39913,-0.600765 C 273.7725,-5.1909959 220.93252,-7.1251098 189.74664,24.060773 Z"
       sodipodi:nodetypes="sssssssssscccccssssssscss" /></g></svg>
