<?xml version="1.0" encoding="UTF-8" standalone="no"?>
<svg
   width="64"
   height="64"
   version="1.1"
   id="svg38"
   sodipodi:docname="steam.svg"
   inkscape:version="1.2.2 (b0a8486541, 2022-12-01)"
   xmlns:inkscape="http://www.inkscape.org/namespaces/inkscape"
   xmlns:sodipodi="http://sodipodi.sourceforge.net/DTD/sodipodi-0.dtd"
   xmlns:xlink="http://www.w3.org/1999/xlink"
   xmlns="http://www.w3.org/2000/svg"
   xmlns:svg="http://www.w3.org/2000/svg"
   xmlns:rdf="http://www.w3.org/1999/02/22-rdf-syntax-ns#"
   xmlns:cc="http://creativecommons.org/ns#"
   xmlns:dc="http://purl.org/dc/elements/1.1/">
  <sodipodi:namedview
     id="namedview40"
     pagecolor="#ffffff"
     bordercolor="#999999"
     borderopacity="1"
     inkscape:showpageshadow="0"
     inkscape:pageopacity="0"
     inkscape:pagecheckerboard="0"
     inkscape:deskcolor="#d1d1d1"
     showgrid="false"
     inkscape:zoom="8.9493202"
     inkscape:cx="22.124586"
     inkscape:cy="35.589295"
     inkscape:window-width="1920"
     inkscape:window-height="965"
     inkscape:window-x="0"
     inkscape:window-y="40"
     inkscape:window-maximized="1"
     inkscape:current-layer="svg38" />
  <metadata
     id="metadata2">
    <rdf:RDF>
      <cc:Work
         rdf:about="">
        <dc:format>image/svg+xml</dc:format>
        <dc:type
           rdf:resource="http://purl.org/dc/dcmitype/StillImage" />
      </cc:Work>
    </rdf:RDF>
  </metadata>
  <defs
     id="defs28">
    <linearGradient
       inkscape:collect="always"
       id="linearGradient1789">
      <stop
         style="stop-color:#30f6f4;stop-opacity:1"
         offset="0"
         id="stop1785" />
      <stop
         style="stop-color:#8b72fe;stop-opacity:1"
         offset="1"
         id="stop1787" />
    </linearGradient>
    <linearGradient
       id="linearGradient1573"
       x1="-25.678"
       x2="-47.354"
       y1="18.738"
       y2="47.012"
       gradientTransform="translate(68.074,1.1782)"
       gradientUnits="userSpaceOnUse">
      <stop
         stop-color="#30f6f4"
         offset="0"
         id="stop4" />
      <stop
         stop-color="#8b72fe"
         offset="1"
         id="stop6" />
    </linearGradient>
    <radialGradient
       id="radialGradient16019"
       cx="22.113"
       cy="19.717"
       r="30"
       gradientTransform="matrix(1.4197,0,0,1.4197,-116.84945,-7.6617)"
       gradientUnits="userSpaceOnUse">
      <stop
         stop-color="#554c89"
         offset="0"
         id="stop9" />
      <stop
         stop-color="#182c41"
         offset=".77588"
         id="stop11" />
      <stop
         stop-color="#0471cb"
         offset=".93276"
         id="stop13" />
      <stop
         stop-color="#0092fb"
         offset="1"
         id="stop15" />
    </radialGradient>
    <linearGradient
       id="linearGradient251395"
       x1="16.614"
       x2="21.08"
       y1="43.423"
       y2="36.728"
       gradientUnits="userSpaceOnUse"
       gradientTransform="translate(0,-10.341797)">
      <stop
         stop-color="#8b72fe"
         offset="0"
         id="stop18" />
      <stop
         stop-color="#6ca0fb"
         offset="1"
         id="stop20" />
    </linearGradient>
    <linearGradient
       id="linearGradient258533"
       x1="37.542"
       x2="41.246"
       y1="31.179"
       y2="23.544"
       gradientUnits="userSpaceOnUse"
       gradientTransform="translate(0,-10.341797)">
      <stop
         stop-color="#5ab9f9"
         offset="0"
         id="stop23" />
      <stop
         stop-color="#30f6f4"
         offset="1"
         id="stop25" />
    </linearGradient>
    <linearGradient
       inkscape:collect="always"
       xlink:href="#linearGradient251395"
       id="linearGradient1716"
       gradientUnits="userSpaceOnUse"
       gradientTransform="matrix(1.3574585,0,0,1.3574585,-3.1124021,-10.396705)"
       x1="16.614"
       y1="43.423"
       x2="21.08"
       y2="36.728" />
    <linearGradient
       inkscape:collect="always"
       xlink:href="#linearGradient258533"
       id="linearGradient1718"
       gradientUnits="userSpaceOnUse"
       gradientTransform="matrix(1.3574585,0,0,1.3574585,-3.1124021,-10.396705)"
       x1="37.542"
       y1="31.179"
       x2="41.246"
       y2="23.544" />
    <linearGradient
       inkscape:collect="always"
       xlink:href="#linearGradient1789"
       id="linearGradient1791"
       x1="48.401417"
       y1="17.441771"
       x2="10.492188"
       y2="41.5"
       gradientUnits="userSpaceOnUse"
       gradientTransform="matrix(1.3574585,0,0,1.3574585,-3.1124021,-4.2636696)" />
  </defs>
  <g
     id="g4141"
     transform="translate(-5.2070314,-2.7659115)">
    <path
       id="path32"
       d="m 12.458601,46.356725 0.008,0.0053 a 9.4992229,9.4992229 0 0 0 0.03711,0.167031 9.4992229,9.4992229 0 0 1 -0.04507,-0.172333 z"
       style="stroke-width:1.35746" />
    <path
       id="path961"
       d="m 31.102445,46.210904 0.01059,0.02122 a 9.4992229,9.4992229 0 0 1 -0.08219,0.307549 9.4992229,9.4992229 0 0 0 0.07158,-0.328759 z"
       style="stroke-width:1.35746" />
    <path
       id="path957"
       d="M 50.774988,11.927734 A 14.932043,14.932043 0 0 0 36.073607,24.37022 l -10.39039,7.712592 a 13.06133,13.06133 0 0 0 -0.05833,-0.01591 13.06133,13.06133 0 0 0 -1.182474,-0.30755 13.061464,13.061464 0 0 0 -0.180287,-0.03181 13.06133,13.06133 0 0 0 -0.991581,-0.153774 13.061464,13.061464 0 0 0 -0.318154,-0.03447 13.06133,13.06133 0 0 0 -1.185126,-0.05833 13.061464,13.061464 0 0 0 -2.14489,0.209452 13.06133,13.06133 0 0 0 -0.813944,0.16438 13.061464,13.061464 0 0 0 -1.444952,0.440114 13.06133,13.06133 0 0 0 -1.341551,0.57798 13.061464,13.061464 0 0 0 -1.511232,0.808642 13.061464,13.061464 0 0 0 -1.980511,1.625239 13.061464,13.061464 0 0 0 -1.622587,1.977859 13.061464,13.061464 0 0 0 -1.2089867,2.258895 13.061464,13.061464 0 0 0 -0.7423601,2.449789 13.061464,13.061464 0 0 0 -0.2359645,2.375552 13.06133,13.06133 0 0 0 -0.00265,0.05037 13.06133,13.06133 0 0 0 -0.010605,0.12196 13.06133,13.06133 0 0 0 0.00795,0.09545 13.061464,13.061464 0 0 0 0.2147543,2.174053 13.06133,13.06133 0 0 0 0.1431693,0.660171 13.061464,13.061464 0 0 0 0.4984418,1.654402 13.06133,13.06133 0 0 0 0.2253593,0.59919 13.061464,13.061464 0 0 0 1.0605156,1.980512 13.06133,13.06133 0 0 0 0.273082,0.365877 13.061464,13.061464 0 0 0 1.171869,1.429043 13.06133,13.06133 0 0 0 0.506395,0.506396 13.061464,13.061464 0 0 0 1.429043,1.171868 13.06133,13.06133 0 0 0 0.365877,0.270431 13.061464,13.061464 0 0 0 1.988465,1.065818 13.06133,13.06133 0 0 0 0.583282,0.217405 13.061464,13.061464 0 0 0 1.675614,0.509047 13.06133,13.06133 0 0 0 0.628354,0.137866 13.061464,13.061464 0 0 0 2.28806,0.22536 13.061464,13.061464 0 0 0 2.219127,-0.220057 13.06133,13.06133 0 0 0 0.734406,-0.153775 13.061464,13.061464 0 0 0 1.532443,-0.463975 13.06133,13.06133 0 0 0 0.676078,-0.243917 13.061464,13.061464 0 0 0 1.808178,-0.96772 13.06133,13.06133 0 0 0 0.758267,-0.540862 13.061464,13.061464 0 0 0 0.991581,-0.813946 13.06133,13.06133 0 0 0 0.752966,-0.713195 13.061464,13.061464 0 0 0 1.060515,-1.291176 13.06133,13.06133 0 0 0 0.734405,-1.163915 13.061464,13.061464 0 0 0 0.479883,-0.896134 13.06133,13.06133 0 0 0 0.477231,-1.116192 13.061464,13.061464 0 0 0 0.28634,-0.941206 13.06133,13.06133 0 0 0 0.265128,-0.978325 l 0.03447,-0.01856 11.795571,-5.965393 A 14.932043,14.932043 0 0 0 50.774988,41.79182 14.932043,14.932043 0 0 0 65.707031,26.859777 14.932043,14.932043 0 0 0 50.774988,11.927734 Z m 0,4.512489 A 10.421616,10.421616 0 0 1 61.197193,26.859777 10.421616,10.421616 0 0 1 50.774988,37.281984 10.421616,10.421616 0 0 1 40.352782,26.859777 10.421616,10.421616 0 0 1 50.774988,16.440223 Z M 21.767266,35.913919 a 8.6282775,8.6282775 0 0 1 8.629937,8.627286 8.6282775,8.6282775 0 0 1 -8.629937,8.629936 8.6282775,8.6282775 0 0 1 -8.627285,-8.629936 8.6282775,8.6282775 0 0 1 8.627285,-8.627286 z m 13.017815,9.695753 a 13.061464,13.061464 0 0 1 -0.0106,0.103401 13.061464,13.061464 0 0 0 0.0106,-0.103401 z m -0.02386,0.241268 a 13.061464,13.061464 0 0 1 -0.01061,0.114005 13.061464,13.061464 0 0 0 0.01061,-0.114005 z m -0.03182,0.296944 a 13.061464,13.061464 0 0 1 -0.01591,0.114005 13.061464,13.061464 0 0 0 0.01591,-0.114005 z"
       style="fill:url(#linearGradient1791);fill-opacity:1;stroke-width:1.35746" />
    <circle
       cx="21.768456"
       cy="44.540997"
       r="6.1558027"
       fill="url(#linearGradient251395)"
       fill-rule="evenodd"
       stroke-width="1.40741"
       id="circle34"
       style="fill:url(#linearGradient1716)" />
    <circle
       cx="50.774624"
       cy="26.860098"
       r="7.4472885"
       fill="url(#linearGradient258533)"
       fill-rule="evenodd"
       stroke-width="1.4894"
       id="circle36"
       style="fill:url(#linearGradient1718)" />
    <path
       id="path1692"
       d="m 12.458601,46.356725 0.008,0.0053 a 9.4992229,9.4992229 0 0 0 0.03711,0.167031 9.4992229,9.4992229 0 0 1 -0.04507,-0.172333 z"
       style="stroke-width:1.35746" />
    <path
       id="path1694"
       d="m 31.102445,46.210904 0.01059,0.02122 a 9.4992229,9.4992229 0 0 1 -0.08219,0.307549 9.4992229,9.4992229 0 0 0 0.07158,-0.328759 z"
       style="stroke-width:1.35746" />
  </g>
</svg>
