<?xml version="1.0" encoding="UTF-8" standalone="no"?>
<svg
   width="64"
   height="64"
   viewBox="0 0 64 64"
   version="1.1"
   id="svg14"
   sodipodi:docname="system-software-update.svg"
   xml:space="preserve"
   inkscape:version="1.2.2 (b0a8486541, 2022-12-01)"
   xmlns:inkscape="http://www.inkscape.org/namespaces/inkscape"
   xmlns:sodipodi="http://sodipodi.sourceforge.net/DTD/sodipodi-0.dtd"
   xmlns:xlink="http://www.w3.org/1999/xlink"
   xmlns="http://www.w3.org/2000/svg"
   xmlns:svg="http://www.w3.org/2000/svg"><sodipodi:namedview
     id="namedview16"
     pagecolor="#ffffff"
     bordercolor="#999999"
     borderopacity="1"
     inkscape:showpageshadow="0"
     inkscape:pageopacity="0"
     inkscape:pagecheckerboard="0"
     inkscape:deskcolor="#d1d1d1"
     showgrid="false"
     inkscape:zoom="5.6734271"
     inkscape:cx="67.507698"
     inkscape:cy="80.639091"
     inkscape:window-width="3840"
     inkscape:window-height="1979"
     inkscape:window-x="1920"
     inkscape:window-y="52"
     inkscape:window-maximized="1"
     inkscape:current-layer="svg14" /><defs
     id="defs7"><linearGradient
       inkscape:collect="always"
       id="linearGradient13274"><stop
         style="stop-color:#e14cfe;stop-opacity:1"
         offset="0"
         id="stop13270" /><stop
         style="stop-color:#4e8dfc;stop-opacity:1"
         offset="1"
         id="stop13272" /></linearGradient><linearGradient
       inkscape:collect="always"
       id="linearGradient6366"><stop
         style="stop-color:#4f8dfb;stop-opacity:1"
         offset="0"
         id="stop6362" /><stop
         style="stop-color:#e04bfe;stop-opacity:1"
         offset="1"
         id="stop6364" /></linearGradient><linearGradient
       inkscape:collect="always"
       id="linearGradient1096"><stop
         style="stop-color:#4890fd;stop-opacity:1"
         offset="0"
         id="stop1092" /><stop
         style="stop-color:#e04cfe;stop-opacity:1"
         offset="1"
         id="stop1094" /></linearGradient><linearGradient
       id="linear0"
       gradientUnits="userSpaceOnUse"
       x1="2.3431"
       y1="2.3431"
       x2="13.6569"
       y2="13.6569"
       gradientTransform="matrix(4,0,0,4,0,0)"><stop
         offset="0"
         style="stop-color:rgb(10.980392%,68.235294%,100%);stop-opacity:1;"
         id="stop2" /><stop
         offset="1"
         style="stop-color:rgb(0%,39.607843%,69.019608%);stop-opacity:1;"
         id="stop4" /></linearGradient><linearGradient
       inkscape:collect="always"
       xlink:href="#linearGradient1096"
       id="linearGradient1098"
       x1="-186.42366"
       y1="61.564041"
       x2="-17.05057"
       y2="-20.251112"
       gradientUnits="userSpaceOnUse"
       gradientTransform="translate(294.9697)" /><linearGradient
       inkscape:collect="always"
       xlink:href="#linearGradient6366"
       id="linearGradient6368"
       x1="12.430538"
       y1="-18.384346"
       x2="6.7499971"
       y2="171.13361"
       gradientUnits="userSpaceOnUse"
       gradientTransform="translate(294.9697)" /><linearGradient
       inkscape:collect="always"
       xlink:href="#linearGradient13274"
       id="linearGradient13276"
       x1="-181.87326"
       y1="101.26656"
       x2="-4.4878516"
       y2="187.69652"
       gradientUnits="userSpaceOnUse"
       gradientTransform="translate(294.9697)" /></defs><g
     id="g19152"
     transform="matrix(0.21672293,0,0,0.21672293,-19.294124,14.757511)"><path
       id="path18108"
       style="opacity:1;fill:#3b3a99;fill-opacity:1;stroke:none;stroke-width:1px;stroke-linecap:butt;stroke-linejoin:miter;stroke-opacity:1"
       d="m 251.34961,-47.289062 c 0,0 -120.79361,38.0362577 -128.23438,52.679687 -7.44075,14.643429 -14.68945,86.554687 -14.68945,86.554687 l 1.4961,28.927738 c 0,0 33.97645,90.05085 96.05273,90.12109 62.07628,0.0702 117.55859,-45.54297 117.55859,-45.54297 0,0 53.62023,-67.26718 34.27735,-123.105467 C 338.46767,-13.492584 251.34961,-47.289062 251.34961,-47.289062 Z M 219.42969,8.734375 c 9.72454,0.3189992 15.84375,5.046875 15.84375,5.046875 0,0 36.91306,22.699885 46.93945,28.552734 10.02639,5.852851 19.1306,16.705663 19.54297,38.289063 0.42306,22.143143 -14.32813,33.408203 -14.32813,33.408203 0,0 -28.47305,17.53061 -44.01953,27.02148 -15.54647,9.49087 -33.89216,10.05776 -52.54882,-0.58789 -18.65667,-10.64566 -18.53321,-31.35937 -18.53321,-31.35937 V 55.960938 c 0,-30.958398 31.84571,-44.070313 31.84571,-44.070313 5.67378,-2.5345569 10.83756,-3.3012496 15.25781,-3.15625 z" /><path
       style="opacity:1;fill:url(#linearGradient1098);fill-opacity:1;stroke:none;stroke-width:1px;stroke-linecap:butt;stroke-linejoin:miter;stroke-opacity:1"
       d="m 264.41539,-41.286417 c 9.52752,5.712671 15.4082,14.727195 13.15446,30.620829 -2.41844,17.0550851 -17.05691,26.948671 -42.2955,24.44636 -43.66713,-4.3294299 -64.65078,-1.422491 -85.60374,10.517783 -33.45799,19.066398 -41.24495,67.646606 -41.24495,67.646606 0,0 -1.12805,-43.106237 2.99982,-59.945161 4.12788,-16.838924 26.53801,-59.499697 58.23674,-73.087123 31.24943,-13.394831 69.32327,-15.446976 94.75317,-0.199294 z"
       id="path374"
       sodipodi:nodetypes="sssscsss" /><path
       style="opacity:1;fill:url(#linearGradient6368);fill-opacity:1;stroke:none;stroke-width:1px;stroke-linecap:butt;stroke-linejoin:miter;stroke-opacity:1"
       d="m 274.86575,-36.036368 c 0,0 43.84634,42.259054 41.36931,81.5872 -2.47702,39.328145 -28.70035,62.774638 -34.81855,80.176188 -6.1182,17.40156 -6.65066,21.641 -0.28565,31.16361 5.18162,7.75216 24.06913,23.7538 42.40141,8.56138 16.58622,-13.74541 48.11403,-48.51076 40.3291,-98.820687 C 356.07643,16.321399 325.84,-12.653584 274.86575,-36.036368 Z"
       id="path1028"
       sodipodi:nodetypes="csssssc" /><path
       style="opacity:1;fill:url(#linearGradient13276);fill-opacity:1;stroke:none;stroke-width:1px;stroke-linecap:butt;stroke-linejoin:miter;stroke-opacity:1"
       d="m 311.53324,174.16005 c 0,0 -84.45693,27.05783 -114.78549,-23.72977 -30.32858,-50.787609 -36.8299,-70.620077 -63.64961,-65.400905 -26.81971,5.219173 -30.20385,42.101515 -11.34826,69.504995 18.85559,27.40349 42.47796,55.43032 84.2252,56.45976 41.74722,1.02944 64.45188,-9.16177 105.55816,-36.83408 z"
       id="path1030" /></g></svg>
