<svg viewBox="0 0 16 16" xmlns="http://www.w3.org/2000/svg">
    <style type="text/css" id="current-color-scheme">.ColorScheme-Text {color:#fcfcfc;}</style>
    <g class="ColorScheme-Text" fill="currentColor">
        <path d="m 3,4 c 0,2 0,6 0,8 0,2 2,2 2,2 l 4,0 V 13 H 7 V 11 H 9 V 10 H 5.7070312 l -1,-1 H 4 V 8 h 0.7070312 l 1,-1 H 11 V 6.2929688 L 10.707031,6 H 10 V 4 h 1 c 0.554,0 1,0.446 1,1 v 2 h 1 V 4.2929688 L 10.707031,2 5,2 C 5,2 3,2 3,4 Z M 5,4 H 6 V 6 H 5.2929688 L 4,7.2929688 V 5 C 4,4.446 4.446,4 5,4 Z M 7,4 H 9 V 6 H 7 Z M 4,9.7070312 5.2929688,11 H 6 v 2 H 5 C 4.446,13 4,12.554 4,12 Z"/>
        <path d="m 12.5,8.0000004 c -0.828427,0 -1.5,0.6715729 -1.5,1.5 V 11 c 0,0 -1,0 -1,1 0,1 0,0 0,1 0,1 1,1 1,1 h 3 c 0,0 1,0 1,-1 0,-1 0,0 0,-1 0,-1 -1,-1 -1,-1 V 9.5000004 c 0,-0.8284271 -0.671573,-1.5 -1.5,-1.5 z m 0,1 c 0.276142,0 0.5,0.2238576 0.5,0.5 V 11 H 12 V 9.5000004 c 0,-0.2761424 0.223858,-0.5 0.5,-0.5 z" fill-rule="evenodd"/>
    </g>
</svg>
