<svg viewBox="0 0 16 16" xmlns="http://www.w3.org/2000/svg">
    <style type="text/css" id="current-color-scheme">.ColorScheme-Text {color:#fcfcfc;}.ColorScheme-NegativeText {color:#da4453;}</style>
    <path d="M 4.1210938,2 7,4.8789062 V 4 H 9 V 6 H 8.1210938 l 1,1 h 1.1718752 l 1,1 H 12 v 1 h -0.707031 l -0.08594,0.085937 0.707031,0.7070313 L 12,9.7070312 v 0.171875 l 1,0.9999998 V 4.2929688 L 10.707031,2 Z M 10,4 h 1 c 0.554,0 1,0.446 1,1 V 7.2929688 L 10.707031,6 H 10 Z M 3,5.1210938 C 3,5.1210938 3,10 3,12 c 0,2 2,2 2,2 h 6.878906 l -1,-1 H 10 v -0.878906 l -1,-1 V 13 H 7 v -2 h 1.8789062 l -1,-1 h -2.171875 l -1,-1 H 4 V 8 H 4.7070312 L 5.2929688,7.4140625 4.5859375,6.7070312 4,7.2929688 V 6.1210938 Z M 4,9.7070312 5.2929688,11 H 6 v 2 H 5 C 4.446,13 4,12.554 4,12 Z" class="ColorScheme-Text" fill="currentColor"/>
    <path d="m2.5 1.7929687-.7070313.7070313 11.7070313 11.707031.707031-.707031z" class="ColorScheme-NegativeText" fill="currentColor" stroke-linecap="square" stroke-miterlimit="0"/>
</svg>
