<svg viewBox="0 0 16 16" xmlns="http://www.w3.org/2000/svg">
  <defs id="defs3051">
    <style type="text/css" id="current-color-scheme">.ColorScheme-Text {color:#fcfcfc;}</style>
  </defs>
    <path d="m 2,4 c 0,2 0,8 0,8 l 3,3 v -3 h 7 c 0,0 2,0 2,-2 C 14,8 14,6 14,4 14,2 12,2 12,2 H 4 C 4,2 2,2 2,4 Z M 3,4 C 3,3 4,3 4,3 l 8,0 c 0,0 1,0 1,1 0,1 0,5 0,6 0,1 -1,1 -1,1 L 4,11 C 4,11 3,11 3,10 3,9 3,5 3,4 Z m 4,5 v 1 H 9 V 9 Z M 7,4 V 8 H 9 V 4 H 8 Z" style="fill:currentColor;fill-opacity:1;stroke:none" class="ColorScheme-Text"/>
</svg>
