<svg xmlns="http://www.w3.org/2000/svg" height="16" width="16"> width="16" height="16">
    <style type="text/css" id="current-color-scheme">
        .ColorScheme-Text {color:#fcfcfc;}.ColorScheme-NeutralText {color:#f67400;}.ColorScheme-NegativeText {color:#da4453;}</style>
    <g id="disk-quota-low" transform="translate(-3,-3)">
        <path style="fill:currentColor;fill-opacity:1;stroke:none" d="m 16,12 c -1.656854,0 -3,0.447715 -3,1 v 5 c 0,0.552285 1.343146,1 3,1 1.656854,0 3,-0.447715 3,-1 v -5 c 0,-0.552285 -1.343146,-1 -3,-1 z m -0.1,1 c 0.03333,-1.85e-4 0.06667,-1.85e-4 0.1,0 0.739186,8.7e-4 1.451386,0.09268 2,0.257812 V 13.74 c -0.547637,0.16593 -1.259945,0.25853 -2,0.26 -0.756362,-0.01228 -1.470815,-0.119444 -2,-0.3 v -0.5 c 0.546482,-0.136873 1.216806,-0.207434 1.9,-0.2 z M 14,14.74 c 0.547637,0.16593 1.259945,0.25853 2,0.26 0.740055,-0.0015 1.452363,-0.09407 2,-0.26 v 1 c -0.547637,0.16593 -1.259945,0.25853 -2,0.26 -0.756362,-0.01228 -1.470815,-0.119444 -2,-0.3 z" class="ColorScheme-NeutralText"/>
        <path style="fill:currentColor;fill-opacity:1;stroke:none" d="M 6.061612,3 C 4,3 4,5 4,5 c 0,0 0,10 0,12 0,2 2,2 2,2 h 6 V 16 H 7 L 5,14 V 11.9 C 5.6,11.7 6,11.1 6,10.5 6,9.9 5.6,9.3 5,9.1 V 7 C 5,5.3 6.3,4 8,4 h 4 c 1.66,0 3,1.34 3,3 v 2.1 c -0.6,0.2 -1,0.8 -1,1.4 6.76e-4,0.2 0,0.3 0.1,0.5 H 16 V 5 C 16,5 16,3 14,3 12,3 8.1232241,3 6.061612,3 Z M 6,17 h 5 v 1 H 6 Z" class="ColorScheme-Text"/>
    </g>
</svg>
