<svg xmlns="http://www.w3.org/2000/svg" height="16" width="16">
    <defs id="defs3051">
        <style type="text/css" id="current-color-scheme">.ColorScheme-NegativeText {color:#da4453;}</style>
    </defs>
    <path style="fill:currentColor;fill-opacity:1;stroke:none" class="ColorScheme-NegativeText" d="M 7,2 4,5 H 8 V 2 Z m 2,0 v 3 h 5 V 4 C 14,4 14,2 12,2 10,2 9,2 9,2 Z M 2,7 V 9 H 4 V 6 H 3 Z M 5,6 V 9 H 6 V 6 Z m -3,4 v 1 c 0,0 0,2 2,2 2,0 2,0 2,0 v -3 z"/>
    <path style="fill:currentColor;fill-opacity:1;stroke:none" class="ColorScheme-NegativeText" d="M8 6c-.554 0-1 .446-1 1v6c0 .554.446 1 1 1h6c.554 0 1-.446 1-1V7c0-.554-.446-1-1-1z"/>
    <path d="M9 7L8 8l2 2-2 2 1 1 2-2 2 2 1-1-2-2 2-2-1-1-2 2z" fill="#fff"/>
</svg>
