<svg height="16" width="16" xmlns="http://www.w3.org/2000/svg">
    <defs id="defs1">
        <style type="text/css" id="current-color-scheme">.ColorScheme-Text {color:#fcfcfc;}</style>
    </defs>
    <path style="fill:currentColor;fill-opacity:1;stroke:none" class="ColorScheme-Text" d="m 9,10 h 5 v 1 c 0,0 0,2 -2,2 -2,0 -3,0 -3,0 z M 2,4 V 5 H 8 V 2 C 8,2 6,2 4,2 2,2 2,4 2,4 Z M 9,2 v 3 h 5 V 4 C 14,4 14,2 12,2 10,2 9,2 9,2 Z M 2,6 V 9 H 4 V 6 Z m 3,0 v 3 h 6 V 6 Z m 7,0 v 3 h 2 V 6 Z M 2,10 v 1 c 0,0 0,2 2,2 2,0 4,0 4,0 v -3 z"/>
</svg>
