<svg id="svg11" version="1.1" viewBox="0 0 16 16" xmlns="http://www.w3.org/2000/svg">
    <style type="text/css" id="current-color-scheme">.ColorScheme-Text {color:#fcfcfc;}</style>
    <path id="rect4365" d="m 2.000641,12.999466 h 0.9998932 l -0.00138,-1.122808 c 1.2824976,1.318222 3.0322667,2.078754 4.8710253,2.117177 L 6.7377042,12.861359 C 5.5059672,12.591177 4.3906668,11.93978 3.5501992,10.99968 l 1.4501214,-10e-7 V 9.9997863 H 2.000641 l -3e-7,0.5828107 1e-7,0.417082 z m 8.913412,-0.20716 1.878253,-1.878252 c 0,0 1.414214,-1.4142144 10e-7,-2.8284274 C 11.378094,6.6714137 7.9143741,3.2076941 7.9143741,3.2076941 c -1.4142139,-1.4142139 -2.828428,1e-7 -2.828428,1e-7 l -1.878252,1.8782521 c 0,0 -1.4142135,1.4142135 4e-7,2.8284273 0,0 3.4637196,3.4637194 4.8779325,4.8779324 1.4142129,1.414213 2.828426,0 2.828426,0 z m -0.707106,-0.707107 c 0,0 -0.7071069,0.707107 -1.4142133,1e-6 C 8.0856273,11.378094 3.9148012,7.2072669 3.9148012,7.2072669 c -0.707107,-0.707107 -3e-7,-1.4142138 -3e-7,-1.4142138 L 5.793053,3.9148011 c 0,0 0.7071068,-0.7071068 1.4142138,2e-7 0,0 4.1708262,4.1708263 4.8779322,4.8779327 0.707107,0.7071063 0,1.414213 0,1.414213 z m 0.792732,-6.0849854 2.99968,10e-8 -10e-7,-0.5828108 10e-7,-0.417082 V 3.0005338 l -0.999893,-10e-8 0.0014,1.1228079 C 11.718363,2.8051152 9.9685862,2.0445831 8.1298208,2.0061658 l 1.1324751,1.1324751 c 1.2317371,0.2701819 2.3470381,0.9215794 3.1875051,1.8616799 l -1.450121,-7e-7 z" class="ColorScheme-Text" fill="currentColor" stroke-linecap="square" style="paint-order:markers fill stroke"/>
</svg>
