<svg viewBox="0 0 16 16" xmlns="http://www.w3.org/2000/svg">
    <style type="text/css" id="current-color-scheme">.ColorScheme-Text {color:#fcfcfc;}</style>
    <g class="ColorScheme-Text" fill="currentColor">
        <path d="m 4,4 c 0,0 0,6 0,8 0,2 2,2 2,2 H 8 V 13 H 6 C 6,13 5,13 5,12 5,11 5,4 5,4 5,4 5,3 6,3 h 4 c 1,0 1,1 1,1 v 3 h 1 V 4 C 12,4 12,2 10,2 H 6 C 4,2 4,4 4,4 Z"/>
        <path d="m11.5 8c-.828427 0-1.5.6715729-1.5 1.5v1.5h-1v3h5v-3h-1v-1.5c0-.8284271-.671573-1.5-1.5-1.5zm0 1c.276142 0 .5.223858.5.5v1.5h-1v-1.5c0-.276142.223858-.5.5-.5z" fill-rule="evenodd"/>
    </g>
</svg>
