<svg viewBox="0 0 16 16" xmlns="http://www.w3.org/2000/svg">
    <style type="text/css" id="current-color-scheme">.ColorScheme-Text {color:#fcfcfc;}</style>
    <g class="ColorScheme-Text" fill="currentColor">
        <path d="m 2,6 c 0,2 0,2 0,4 0,2 2,2 2,2 H 8 V 11 H 4 C 4,11 3.0522404,11 3,10 2.9477596,9 3,7 3,6 3,5 4,5 4,5 l 8,0 c 0,0 1,0 1,1 0,1 0,2 0,2 h 1 C 14,8 14,8 14,6 14,4 12,4 12,4 H 4 C 4,4 2,4 2,6 Z"/>
        <path d="m11.5 8c-.828427 0-1.5.6715729-1.5 1.5v1.5h-1v3h5v-3h-1v-1.5c0-.8284271-.671573-1.5-1.5-1.5zm0 1c.276142 0 .5.2238576.5.5v1.5h-1v-1.5c0-.2761424.223858-.5.5-.5z" fill-rule="evenodd"/>
    </g>
</svg>
