<svg xmlns="http://www.w3.org/2000/svg" viewBox="0 0 16 16">
  <defs id="defs3051">
<style type="text/css" id="current-color-scheme">.ColorScheme-Text {color:#fcfcfc;}</style>
  </defs>
  <path
     class="ColorScheme-Text"
     d="M 6,8 9,11 14,6 13,5 9,9 7,7 6,8 M 5,2 C 3,2 3,4 3,4 H 2 v 1 h 1 v 6 H 2 v 1 h 1 c 0,0 0,2 2,2 2,0 5,0 7,0 2,0 2,-2 2,-2 V 8 h -1 v 4 c 0,0 0,1 -1,1 -1,0 -5,0 -6,0 C 5,13 5,12 5,12 V 4 c 0,0 0,-1 1,-1 1,0 5,0 6,0 1,0 1,1 1,1 h 1 C 14,4 14,2 12,2 10,2 7,2 5,2 Z M 6,4 V 6 H 8 V 4 Z m 3,0 v 1 h 3 V 4 Z m 1,7 v 1 h 2 v -1 z"
     style="fill:currentColor;fill-opacity:1;stroke:none"
     id="path5400" />
</svg>
