<svg xmlns="http://www.w3.org/2000/svg" height="24" width="24" viewBox="0 0 24 24">
  <defs id="defs1">
    <style type="text/css" id="current-color-scheme">.ColorScheme-NegativeText {color:#da4453;}</style>
  </defs>
  <g transform="translate(1,1)">
    <path style="fill:currentColor;fill-opacity:1;stroke:none" class="ColorScheme-NegativeText" d="m 3,8 c 0,1 0,5 0,6 0,1 1,1 1,1 H 6 L 4,7 C 4,7 3,7 3,8 Z M 0.99274481,8 1,14 c 0,0 0,3 3,3 3,0 10,0 13,0 3,0 2.972399,-3 2.972399,-3 L 20,13 h 0.5 c 0.277,0 0.5,-0.223 0.5,-0.5 v -3 C 21,9.223 20.777,9 20.5,9 H 20 l 0.0288,-1 C 20.028796,8 20,5 17,5 14,5 7,5 4,5 1,5 0.99274481,8 0.99274481,8 Z M 2.0140358,8 C 2.0140358,8 2,6 4,6 c 2,0 11,0 13,0 2,0 2,2 2,2 v 6 c 0,0 0,2 -2,2 C 15,16 6,16 4,16 2,16 2,14 2,14 Z"/>
  </g>
</svg>
