<svg xmlns="http://www.w3.org/2000/svg" height="24" width="24" viewBox="0 0 24 24">
  <defs id="defs1">
    <style type="text/css" id="current-color-scheme">.ColorScheme-NegativeText {color:#da4453;}</style>
  </defs>
  <g transform="translate(1,1)">
    <path style="fill:currentColor;fill-opacity:1;stroke:none" class="ColorScheme-NegativeText" d="m 1,8 v 6 c 0,0 0,3 3,3 3,0 10,0 13,0 3,0 3,-3 3,-3 v -1 h 0.5 c 0.277,0 0.5,-0.223 0.5,-0.5 v -3 C 21,9.223 20.777,9 20.5,9 H 20 V 8 C 20,8 20,5 17,5 14,5 7,5 4,5 1,5 1,8 1,8 Z m 1,0 c 0,0 0,-2 2,-2 2,0 11,0 13,0 2,0 2,2 2,2 v 6 c 0,0 0,2 -2,2 C 15,16 6,16 4,16 2,16 2,14 2,14 Z"/>
  </g>
</svg>
