<svg xmlns="http://www.w3.org/2000/svg" viewBox="0 0 24 24" width="24" height="24">
  <defs id="defs3051">
    <style type="text/css" id="current-color-scheme">.ColorScheme-Text {color:#fcfcfc;}</style>
  </defs>
  <g transform="translate(1,1)">
    <path style="opacity:1;fill:currentColor;fill-opacity:1;stroke:none" d="m 3,7 c 0,3 0,9 0,9 l 3,4 v -3 -1 h 10 c 0,0 3,0 3,-3 0,-3 0,-3 0,-6 C 19,4 16,4 16,4 H 6 C 6,4 3,4 3,7 Z M 4,7 C 4,5 6,5 6,5 h 10 c 0,0 2,0 2,2 0,2 0,4 0,6 0,2 -2,2 -2,2 H 6 C 6,15 4,15 4,13 4,11 4,9 4,7 Z M 11,6 C 9.8954305,6 9,6.8954305 9,8 v 2 c 0,0 -1,0 -1,1 0,1 0,1 0,2 0,1 1,1 1,1 h 4 c 0,0 1,0 1,-1 0,-1 0,-1 0,-2 0,-1 -1,-1 -1,-1 V 8 C 13,6.8954305 12.104569,6 11,6 Z m 0,1 c 0.552285,0 1,0.4477153 1,1 v 2 H 10 V 8 c 0,-0.5522847 0.447715,-1 1,-1 z" class="ColorScheme-Text"/>
  </g>
</svg>
