<svg xmlns="http://www.w3.org/2000/svg" viewBox="0 0 24 24" width="24" height="24">
  <style type="text/css" id="current-color-scheme">.ColorScheme-Text{color:#fcfcfc;}</style>
  <g transform="translate(1,1)">
    <g style="fill:currentColor;fill-opacity:1;stroke:none" class="ColorScheme-Text">
      <path d="m 3,7 c 0,3 0,9 0,9 l 3,4 v -3 -1 h 10 c 0,0 3,0 3,-3 0,-3 0,-3 0,-6 C 19,4 16,4 16,4 H 6 C 6,4 3,4 3,7 Z M 4,7 C 4,5 6,5 6,5 h 10 c 0,0 2,0 2,2 0,2 0,4 0,6 0,2 -2,2 -2,2 0,0 -8,0 -10,0 C 4,15 4,13 4,13 4,13 4,9 4,7 Z"/>
      <path d="m10 6v5h2v-5zm0 6v2h2v-2z"/>
    </g>
  </g>
</svg>
