<svg xmlns="http://www.w3.org/2000/svg" xmlns:xlink="http://www.w3.org/1999/xlink" xmlns:cc="http://creativecommons.org/ns#" xmlns:dc="http://purl.org/dc/elements/1.1/" xmlns:rdf="http://www.w3.org/1999/02/22-rdf-syntax-ns#" xmlns:inkscape="http://www.inkscape.org/namespaces/inkscape" xmlns:sodipodi="http://sodipodi.sourceforge.net/DTD/sodipodi-0.dtd" width="24" height="24" viewBox="0 0 24 24">
  <style type="text/css" id="current-color-scheme">
      .ColorScheme-Text {
        color:#fcfcfc;
      }
      .ColorScheme-Background {
        color:#eff0f1;
      }
      .ColorScheme-Highlight {
        color:#3daee9;
      }
      .ColorScheme-ViewText {
        color:#31363b;
      }
      .ColorScheme-ViewBackground {
        color:#fcfcfc;
      }
      .ColorScheme-ViewHover {
        color:#93cee9;
      }
      .ColorScheme-ViewFocus{
        color:#3daee9;
      }
      .ColorScheme-ButtonText {
        color:#31363b;
      }
      .ColorScheme-ButtonBackground {
        color:#eff0f1;
      }
      .ColorScheme-ButtonHover {
        color:#93cee9;
      }
      .ColorScheme-ButtonFocus{
        color:#3daee9;
      }
      </style>
  <g transform="translate(1,1)">
    <g transform="translate(176,8e-6) translate(-176,-8e-06)" id="fcitx-wbpy">
      <path class="ColorScheme-Text" style="fill:currentColor;fill-opacity:1;stroke:none" d="m 28,101 v 10 c 0,3 3,3 3,3 h 6 c 0,0 0,1 1,1 1,0 6,0 6,0 0,0 1,0 1,-1 0,-1 0,-7 0,-8 0,-1 -1,-1 -1,-1 v -4 c 0,0 0,-3 -3,-2.998047 -3,0.002 -10,0 -10,0 0,0 -3,-0.002 -3,2.998047 z m 1,0 c 0,-2 2,-2 2,-2 h 10 c 2,0 2,2 2,2 v 4 h -3.5 -4.263672 l 0.666016,-3 H 40 v -1 h -9 v 1 h 3.876953 l -0.666015,3 H 32 v 1 h 1.988281 l -0.888672,4 H 31 v 1 h 6 v 2 h -6 c 0,0 -2,0 -2,-2 z m 6.013672,5 H 37 v 4 H 34.123047 Z M 39,107 h 0.5 c 0.75,0 1.531712,-0.0168 2.220703,0.21289 0.344496,0.11483 0.676391,0.30519 0.916016,0.61328 C 42.876343,108.13426 43,108.54167 43,109 c 0,0.45833 -0.123657,0.86574 -0.363281,1.17383 -0.239625,0.30809 -0.57152,0.49845 -0.916016,0.61328 -0.533836,0.17794 -1.133444,0.15946 -1.720703,0.16406 V 113 h -1 z m 1,1.04297 v 1.91406 c 0.528068,-0.0121 1.082776,-0.012 1.404297,-0.11914 0.218004,-0.0727 0.354859,-0.16356 0.443359,-0.27734 C 41.93616,109.44676 42,109.29167 42,109 c 0,-0.29167 -0.06384,-0.44676 -0.152344,-0.56055 -0.0885,-0.11378 -0.225355,-0.20467 -0.443359,-0.27734 C 41.082776,108.05494 40.528068,108.05507 40,108.04297 Z" transform="translate(-25,-95)" id="path4312"/>
      <rect style="fill:none;fill-opacity:1;stroke:none" id="rect4314" width="22" height="22" x="0" y="0"/>
    </g>
  </g>
</svg>
