<svg xmlns="http://www.w3.org/2000/svg" height="24" width="24" viewBox="0 0 24 24">
  <defs id="defs1">
    <style type="text/css" id="current-color-scheme">.ColorScheme-Text {color:#fcfcfc;}.ColorScheme-NeutralText {color:#f67400;}</style>
  </defs>
  <g transform="translate(1,1)">
    <path style="fill:currentColor;fill-opacity:1;stroke:none" class="ColorScheme-Text" d="M 6,3 C 3,3 3,6 3,6 h 8 V 3 C 11,3 9,3 6,3 Z m 6,0 v 3 h 7 C 19,6 19,3 16,3 13,3 12,3 12,3 Z M 3,7 v 3 H 6 V 7 Z m 4,0 v 3 h 8 V 7 Z m 9,0 v 3 h 3 V 7 Z M 3,11 v 3 h 8 v -3 z m 0,4 c 0,0 0,3 3,3 v -3 z m 4,0 v 3 h 4 v -3 z"/>
    <path style="fill:currentColor;fill-opacity:1;stroke:none" class="ColorScheme-NeutralText" d="M13 11c-.554 0-1 .446-1 1v6c0 .554.446 1 1 1h6c.554 0 1-.446 1-1v-6c0-.554-.446-1-1-1z"/>
    <path d="m 16,12 c -1.104569,0 -2,0.895431 -2,2 l 0.002,1 c 0,0 -1.002,0 -1.002,1 0,1 -0.08333,0 0,1 0.08333,1 1.045045,1 1.045045,1 h 3.95735 C 18.002395,18 19,18 19,17.030693 19,16.061387 19,17.016427 19,16.008214 19,15 18,15 18,15 v -1 c 0,-1.104569 -0.895431,-2 -2,-2 z m 0,1 c 0.552285,0 1,0.447715 1,1 v 1 h -2 v -1 c 0,-0.552285 0.447715,-1 1,-1 z" fill="#fff"/>
  </g>
</svg>
