<svg xmlns="http://www.w3.org/2000/svg" version="1.1" viewBox="0 0 24 24" width="24" height="24">
  <defs id="defs1">
    <style type="text/css" id="current-color-scheme">.ColorScheme-NegativeText {color:#da4453;}</style>
  </defs>
  <g transform="translate(1,1)">
    <g transform="translate(-326 -534.36)">
      <path transform="translate(326 534.36)" d="m 3,8 c 0,3 0,4 0,7 0,3 3,3 3,3 h 10 c 0,0 3,0 3,-3 0,-3 0,-4 0,-7 C 19,5 16,5 16,5 H 6 C 6,5 3,5 3,8 Z M 4,8 C 4,6 6,6 6,6 h 10 c 0,0 2,0 2,2 0,2 0,5 0,7 0,2 -2,2 -2,2 H 6 C 6,17 4,17 4,15 4,13 4,10 4,8 Z m 6.4883,-1.41602 c -2.6977486,0.2744329 -4.6865286,2.5715225 -4.498,5.1953 0.1881717,2.62395 2.4862091,4.631798 5.1973,4.541 2.712109,-0.09108 4.861981,-2.249618 4.8613,-4.8809 L 16.000072,10.7636 C 15.62423,8.1580948 13.186913,6.3097981 10.488372,6.5839 Z m 0.09375,0.96289 c 2.150866,-0.2195633 4.093458,1.2609295 4.3926,3.3477 l 0.03906,0.54102 c -2.73e-4,0.916064 -0.330689,1.802951 -0.93359,2.5059 L 8.56062,8.41999 C 9.1372403,7.9502759 9.8376659,7.6477745 10.58212,7.54694 Z m -2.7559,1.5527 5.5078,5.5098 c -0.641542,0.450133 -1.40526,0.705615 -2.1953,0.73438 -2.1609834,0.07309 -3.992866,-1.535078 -4.1426,-3.6367 -0.053847,-0.938073 0.2408213,-1.8636686 0.83008,-2.6074 z" style="fill:currentColor;fill-opacity:1;stroke:none" class="ColorScheme-NegativeText"/>
    </g>
  </g>
</svg>
