<svg xmlns="http://www.w3.org/2000/svg" xmlns:xlink="http://www.w3.org/1999/xlink" xmlns:cc="http://creativecommons.org/ns#" xmlns:dc="http://purl.org/dc/elements/1.1/" xmlns:rdf="http://www.w3.org/1999/02/22-rdf-syntax-ns#" xmlns:inkscape="http://www.inkscape.org/namespaces/inkscape" xmlns:sodipodi="http://sodipodi.sourceforge.net/DTD/sodipodi-0.dtd" width="24" height="24" viewBox="0 0 24 24">
  <style type="text/css" id="current-color-scheme">
      .ColorScheme-Text {
        color:#fcfcfc;
      }
      .ColorScheme-Background {
        color:#eff0f1;
      }
      .ColorScheme-Highlight {
        color:#3daee9;
      }
      .ColorScheme-ViewText {
        color:#31363b;
      }
      .ColorScheme-ViewBackground {
        color:#fcfcfc;
      }
      .ColorScheme-ViewHover {
        color:#93cee9;
      }
      .ColorScheme-ViewFocus{
        color:#3daee9;
      }
      .ColorScheme-ButtonText {
        color:#31363b;
      }
      .ColorScheme-ButtonBackground {
        color:#eff0f1;
      }
      .ColorScheme-ButtonHover {
        color:#93cee9;
      }
      .ColorScheme-ButtonFocus{
        color:#3daee9;
      }
      </style>
  <g transform="translate(1,1)">
    <g transform="translate(22,2.6721175e-5) translate(-220,-88.0001)" id="ime-remind-off">
      <rect y="88.000031" x="198" height="22" width="22" id="rect4483" style="fill:none;fill-opacity:1;stroke:none;stroke-linejoin:miter"/>
      <path id="path4618-6" d="m 209,91.000004 c -3.30779,0 -6,2.692214 -6,6 -4e-4,0.0189 2.6e-4,0.03781 0.002,0.05664 0.0144,2.321467 0.86034,3.509266 1.61914,4.394526 0.76527,0.89287 1.37886,1.44169 1.37886,3.04883 0,0 0,0.50007 0,1.50007 0,1 1,1 1,1 l 1,-7e-5 v 1 h 2 v -1 l 1,7e-5 c 0,0 1,0 1,-1 0,-1 0,-1.50007 0,-1.50007 0,-1.60714 0.63385,-2.30403 1.39062,-3.25 0.74894,-0.93616 1.58808,-2.103863 1.60547,-4.187496 0.003,-0.02073 0.004,-0.0416 0.004,-0.0625 0,-3.307786 -2.69221,-6 -6,-6 z m 0,1 c 2.76735,0 5,2.232654 5,5 0,1.875003 -0.64741,2.695964 -1.39062,3.624996 -0.66238,0.82796 -1.33658,1.8434 -1.49415,3.375 h -4.23437 c -0.16424,-1.5039 -0.84931,-2.43975 -1.50195,-3.20117 C 204.64422,99.94169 204,99.138896 204,97.000004 c 0,-2.767346 2.23265,-5 5,-5 z m -1.85352,5.146484 -1.5,1.5 0.70704,0.707032 1.14648,-1.146485 1.14648,1.146485 h 0.70704 l 1.14648,-1.146485 1.14648,1.146485 0.70704,-0.707032 -1.5,-1.5 h -0.70704 L 209,98.292973 207.85352,97.146488 Z" style="fill:currentColor;fill-opacity:1;stroke:none" class="ColorScheme-Text"/>
    </g>
  </g>
</svg>
