<svg xmlns="http://www.w3.org/2000/svg" viewBox="0 0 24 24" width="24" height="24">
  <style type="text/css" id="current-color-scheme">.ColorScheme-Text{color:#fcfcfc;}.ColorScheme-NegativeText{color:#da4453;}</style>
  <g transform="translate(1,1)">
    <path d="m 5.0175781,3 1,1 H 16 c 0,0 2,0 2,2 0,2 0,9.984375 0,9.984375 l 1,1 C 19,16.984375 19,9 19,6 19,3 16,3 16,3 Z M 3,5.015625 C 3,5.015625 3,13 3,16 c 0,3 3,3 3,3 h 10.984375 l -1,-1 H 6 C 6,18 4,18 4,16 4,14 4,6.015625 4,6.015625 Z M 6,15 C 6,15 5,15 5,16.001004 5,17.002007 6,17 6,17 h 3 c 0,0 1,0 1,-1 0,-1 -1,-1 -1,-1 z m 6,1 c 0,1 1,1 1,1 h 1.984375 l -2,-2 C 12.984375,15 12,15 12,16 Z" style="fill:currentColor;fill-opacity:1;stroke:none" class="ColorScheme-Text"/>
    <path d="m-.49999994 4.7426407h1v21.6274173h-1z" style="fill:currentColor;fill-opacity:1;stroke:none" class="ColorScheme-NegativeText" transform="matrix(.70710678 -.70710678 .70710678 .70710678 0 0)"/>
  </g>
</svg>
