<svg xmlns="http://www.w3.org/2000/svg" xmlns:xlink="http://www.w3.org/1999/xlink" xmlns:cc="http://creativecommons.org/ns#" xmlns:dc="http://purl.org/dc/elements/1.1/" xmlns:rdf="http://www.w3.org/1999/02/22-rdf-syntax-ns#" xmlns:inkscape="http://www.inkscape.org/namespaces/inkscape" xmlns:sodipodi="http://sodipodi.sourceforge.net/DTD/sodipodi-0.dtd" width="24" height="24" viewBox="0 0 24 24">
  <style type="text/css" id="current-color-scheme">
      .ColorScheme-Text {
        color:#fcfcfc;
      }
      .ColorScheme-Background {
        color:#eff0f1;
      }
      .ColorScheme-Highlight {
        color:#3daee9;
      }
      .ColorScheme-ViewText {
        color:#31363b;
      }
      .ColorScheme-ViewBackground {
        color:#fcfcfc;
      }
      .ColorScheme-ViewHover {
        color:#93cee9;
      }
      .ColorScheme-ViewFocus{
        color:#3daee9;
      }
      .ColorScheme-ButtonText {
        color:#31363b;
      }
      .ColorScheme-ButtonBackground {
        color:#eff0f1;
      }
      .ColorScheme-ButtonHover {
        color:#93cee9;
      }
      .ColorScheme-ButtonFocus{
        color:#3daee9;
      }
      </style>
  <g transform="translate(1,1)">
    <g id="22-22-klipper" transform="translate(49,4.999999) translate(-49,-5)">
      <path inkscape:connector-curvature="0" style="opacity:1;fill:currentColor;fill-opacity:1;stroke:none" d="M 7,3 V 5 H 6 c 0,0 -2,1e-6 -2,2.000001 0,2 0,6 0,9 C 4,19.000001 7,19 7,19 h 8 c 0,0 3,1e-6 3,-2.999999 0,-3 0,-7 0,-9 C 18,5.000001 16,5 16,5 H 15 V 3 Z M 5,7.000001 C 5,6.000001 6,6 6,6 V 8 H 16 V 6 c 0,0 1,1e-6 1,1.000001 0,1 0,7 0,9 C 17,18.000001 15,18 15,18 H 7 c 0,0 -2,1e-6 -2,-1.999999 0,-2 0,-8 0,-9 z M 7,9 v 1 h 8 V 9 Z m 0,3 v 1 h 6 v -1 z m 0,3 v 1 h 3 v -1 z" id="path4146" class="ColorScheme-Text"/>
      <rect style="opacity:1;fill:none;fill-opacity:1;stroke:none;stroke-width:0.1;stroke-linecap:square;stroke-linejoin:miter;stroke-miterlimit:4;stroke-dasharray:none;stroke-dashoffset:0;stroke-opacity:1" id="rect4148" width="22" height="22" x="0" y="0"/>
    </g>
  </g>
</svg>
