<?xml version="1.0" encoding="UTF-8" standalone="no"?>
<svg
   width="24"
   height="24"
   viewBox="0 0 24 24"
   version="1.1"
   id="svg4"
   sodipodi:docname="media-playback-stopped.svg"
   inkscape:version="1.3.2 (091e20ef0f, 2023-11-25)"
   xmlns:inkscape="http://www.inkscape.org/namespaces/inkscape"
   xmlns:sodipodi="http://sodipodi.sourceforge.net/DTD/sodipodi-0.dtd"
   xmlns="http://www.w3.org/2000/svg"
   xmlns:svg="http://www.w3.org/2000/svg">
  <defs
     id="defs4" />
  <sodipodi:namedview
     id="namedview4"
     pagecolor="#ffffff"
     bordercolor="#999999"
     borderopacity="1"
     inkscape:showpageshadow="2"
     inkscape:pageopacity="0"
     inkscape:pagecheckerboard="0"
     inkscape:deskcolor="#d1d1d1"
     inkscape:zoom="11.254783"
     inkscape:cx="6.2195779"
     inkscape:cy="28.254654"
     inkscape:window-width="1920"
     inkscape:window-height="996"
     inkscape:window-x="0"
     inkscape:window-y="0"
     inkscape:window-maximized="1"
     inkscape:current-layer="svg4" />
  <style
     type="text/css"
     id="current-color-scheme">.ColorScheme-Text { color:#d8dee9; }
</style>
  <g
     id="g1">
    <path
       d="M 1,1 H 23 V 23 H 1 Z"
       fill="none"
       id="path1" />
    <path
       d="M 14.549997,15.299999 H 9.5500015 C 9.1358201,15.3 8.8000462,14.964258 8.8,14.550069 V 9.550021 C 8.7999936,9.135797 9.1357822,8.799998 9.5500015,8.799999 h 4.9999955 c 0.414225,2e-6 0.75001,0.335799 0.750003,0.750022 v 5.000048 c -5.3e-5,0.414187 -0.335821,0.749928 -0.750003,0.74993 z M 14.8,9.550021 Z"
       id="path8-6"
       style="stroke-width:0.250001;fill-opacity:1;fill:currentColor;"
       sodipodi:nodetypes="csccsccccccccccccc"
       class="ColorScheme-Text " />
    <path
       d="M 17.656863,6.34316 C 16.145879,4.83215 14.136735,4 12.000001,4 9.863266,4 7.854112,4.83215 6.343266,6.34316 4.832142,7.85422 4,9.86324 4,12 4,14.13676 4.832142,16.14577 6.343266,17.65676 7.854112,19.16778 9.863266,20 12.000001,20 c 2.136865,0 4.145878,-0.83222 5.656862,-2.34324 1.510901,-1.51099 2.343134,-3.52 2.343134,-5.65676 0,-2.13676 -0.832233,-4.14587 -2.343134,-5.65684 z m -0.913525,10.8666 c -1.473022,1.2495 -2.661006,1.84013 -4.743337,1.82492 C 9.789349,19.01838 8.969364,18.60309 7.256662,17.20938 5.865063,15.81782 4.965332,13.96796 4.965332,12 c 0,-1.9681 0.928283,-4.06031 2.29133,-5.20997 1.529201,-1.34378 2.803796,-1.80999 4.743339,-1.82471 1.96791,-0.0146 3.285061,0.61301 4.743337,1.82486 1.391574,1.39157 2.29133,3.24172 2.29133,5.20982 0,1.96796 -0.899756,3.81825 -2.29133,5.20976 z"
       id="path2-36-912-3-3-2"
       style="stroke-width:0.0250004;fill-opacity:1;fill:currentColor"
       sodipodi:nodetypes="cscscscsccscscscsc"
       class="ColorScheme-Text " />
  </g>
</svg>
