<svg xmlns="http://www.w3.org/2000/svg" xmlns:xlink="http://www.w3.org/1999/xlink" xmlns:cc="http://creativecommons.org/ns#" xmlns:dc="http://purl.org/dc/elements/1.1/" xmlns:rdf="http://www.w3.org/1999/02/22-rdf-syntax-ns#" xmlns:inkscape="http://www.inkscape.org/namespaces/inkscape" xmlns:sodipodi="http://sodipodi.sourceforge.net/DTD/sodipodi-0.dtd" width="24" height="24" viewBox="0 0 24 24">
  <style type="text/css" id="current-color-scheme">.ColorScheme-NegativeText {color:#da4453;}</style>
  <g transform="translate(1,1)">
    <g id="22-22-plasmavault_error" transform="translate(49 4.999999) translate(-49,-5)">
      <path id="rect4148" d="m0 0h22v22h-22z" fill="none"/>
      <path id="path829" d="m 3,6.000001 c 0,3 0,7 0,10 0,3 3,3 3,3 h 10 c 0,0 3,0 3,-3 0,-3 0,-5 0,-8 0,-3 -3,-3 -3,-3 l -3.992,0 -2,-2 -0.008,0.008 v -0.008 l -4,0 c 0,0 -3,0 -3,3 z m 1,0 c 0,-2 2,-2 2,-2 h 3.586 l 1.004,1.004 -4.02,3.996 H 4 c 0,0 0,-1 0,-3 z m 10,3 c 1.656855,0 3.000001,1.343146 3,3.000001 v 0.999999 c 0,0 1,0 1,1 0,1 0,2 0,3 0,1 -1,1 -1,1 h -6 c 0,0 -1,0 -1,-1 0,-1 0,-2 0,-3 0,-1 1,-1 1,-1 v -0.999999 c -10e-7,-1.656855 1.343145,-3.000001 3,-3.000001 z m 0,1.000001 c -1.104569,0 -2,0.895431 -2,2 v 0.999999 h 4 v -0.999999 c 0,-1.104569 -0.895431,-2 -2,-2 z" class="ColorScheme-NegativeText" fill="currentColor"/>
    </g>
  </g>
</svg>
