<svg xmlns="http://www.w3.org/2000/svg" viewBox="0 0 24 24" width="24" height="24">
  <style type="text/css" id="current-color-scheme">.ColorScheme-Text {color:#fcfcfc;}</style>
  <g transform="translate(1,1)">
    <g class="ColorScheme-Text" fill="currentColor">
      <path d="m 6,6 c 0,0 0,7 0,10 0,3 3,3 3,3 h 3 V 18 H 9 C 9,18 7,18 7,16 7,14 7,6 7,6 7,6 7,4 9,4 c 2,0 2,0 4,0 2,0 2,2 2,2 v 6 h 1 V 6 C 16,6 16,3 13,3 10,3 12,3 9,3 6,3 6,6 6,6 Z"/>
      <path d="M 15.5,13 C 14.671573,13 14,13.671573 14,14.5 V 16 c 0,0 -1,0 -1,0.988038 C 13,17.976075 13,17 13,18 c 0,1 1,1 1,1 h 3 c 0,0 1,0 1,-1 0,-1 0,0 0,-1 0,-1 -1,-1 -1,-1 V 14.5 C 17,13.671573 16.328427,13 15.5,13 Z m 0,1 c 0.276142,0 0.5,0.223858 0.5,0.5 V 16 H 15 V 14.5 C 15,14.223858 15.223858,14 15.5,14 Z" fill-rule="evenodd"/>
    </g>
  </g>
</svg>
