<svg xmlns="http://www.w3.org/2000/svg" viewBox="0 0 24 24" width="24" height="24">
  <defs id="defs3051">
    <style type="text/css" id="current-color-scheme">.ColorScheme-Text {color:#fcfcfc;}</style>
  </defs>
  <g transform="translate(1,1)">
    <path class="ColorScheme-Text" d="M 19,9 12,16 8,12 9.4896719,10.543135 12,13 17.482382,7.5492102 Z M 4,5 H 3 V 6 H 4 V 7 H 3 v 1 h 1 v 6 H 3 v 1 h 1 v 1 H 3 v 1 h 1 c 0,0 0,2 3,2 h 9 c 3,0 3,-3 3,-3 v -5 h -1 v 1 1 2 1 c 0,0 0,2 -2,2 H 9 C 7,18 7,16 7,16 V 15 13 12 10 9 7 6 c 0,0 0,-2 2,-2 2,0 5,0 7,0 2,0 2,2 2,2 h 1 C 19,6 19,3 16,3 13,3 10,3 7,3 4,3 4,5 4,5 Z m 4,1 v 2 h 2 V 6 Z m 3,0 v 1 h 6 V 6 Z" style="fill:currentColor;fill-opacity:1;stroke:none"/>
  </g>
</svg>
