<svg xmlns="http://www.w3.org/2000/svg" id="svg8" version="1.1" viewBox="0 0 24 24" width="24" height="24">
  <style type="text/css" id="current-color-scheme">.ColorScheme-Text {color:#fcfcfc;}</style>
  <g transform="translate(1,1)">
    <g class="ColorScheme-Text" fill="currentColor">
      <path id="path881" d="M 5.0982543,8.9973146 3.0977398,18.009307 C 3.0977398,18.009307 3,19 4,19 c 1,0 13,0 14,0 1,0 0.902339,-0.989237 0.902339,-0.989237 L 16.901501,8.9973146 h -2.900036 v 1.0037834 h 2.095446 l 1.556451,6.997193 H 4.3463933 L 5.9028441,10.001098 H 8.000244 V 8.9973146 Z"/>
      <path id="rect822" d="m10 3v0.9998777h-2.9996339c-0.5539322 0-0.9998778 0.4459457-0.9998778 0.9998778 0 0.5539326 0.4459456 0.9998783 0.9998778 0.9998783h2.9996339v6.0031732h-2.7067007l3.7046257 3.704626 3.706579-3.704626h-2.704748v-6.0031732h2.999634c0.553933 0 0.999878-0.4459457 0.999878-0.9998783 0-0.5539321-0.445945-0.9998778-0.999878-0.9998778h-2.999634v-0.9998777z"/>
    </g>
  </g>
</svg>
