<?xml version="1.0" encoding="UTF-8" standalone="no"?>
<svg
  viewBox="0 0 22 22"
  version="1.1"
  id="svg6"
  xmlns="http://www.w3.org/2000/svg"
  xmlns:svg="http://www.w3.org/2000/svg">
 <defs
   id="defs3051">
  <style
    type="text/css"
    id="current-color-scheme"> .ColorScheme-Text { color:#eff0f1; } </style>
 </defs>
 <path
   style="fill:currentColor;fill-opacity:1"
   d="M 5.2692106,3.000636 C 4.6675318,3.0043752 4.089822,3.2440303 3.6651134,3.6683577 3.2402329,4.0926803 3.0018416,4.6680994 3,5.2672388 v 3.025614 h 0.6807632 c 0.5697617,0 1.0975903,0.3016599 1.3823927,0.7929196 0.2849511,0.4911009 0.2849511,1.0973306 0,1.5884476 -0.2848024,0.491228 -0.812631,0.792919 -1.3823927,0.792919 H 3 v 3.025614 c 0.00374,0.599119 0.2442433,1.17303 0.67033,1.596272 0.4261322,0.42332 1.004767,0.660137 1.6067054,0.662506 H 8.315691 v 0.670535 c 0,0.567229 0.3020894,1.093495 0.7955279,1.377177 0.4933083,0.283543 1.1029641,0.283543 1.5962721,0 0.493421,-0.283682 0.795528,-0.809948 0.795528,-1.377177 v -0.670535 h 3.041263 c 0.602019,-0.0037 1.176487,-0.243257 1.60149,-0.667722 0.425075,-0.424578 0.665482,-0.999526 0.667721,-1.598881 v -3.025613 l 0.59268,0.0044 c 0.569752,0.0043 1.097448,-0.301643 1.382393,-0.79292 0.284809,-0.491118 0.284809,-1.0972206 0,-1.5884476 C 18.503633,8.5912773 17.975941,8.2894758 17.406173,8.2894758 v 0.00261 l -0.59268,-0.00442 V 5.2620222 C 16.811023,4.6621491 16.569762,4.0893301 16.143164,3.6657499 15.716557,3.2420562 15.138988,3.0024701 14.536458,3.0006365 h -3.038656 v 0.6781549 c 0,0.5672249 -0.30468,1.0910307 -0.798135,1.3745678 -0.49331,0.2836865 -1.1002309,0.2836865 -1.5936648,0 C 8.612694,4.7698221 8.3078661,4.2460163 8.3078661,3.6787914 V 3.0006365 Z"
   class="ColorScheme-Text"
   id="path4" />
</svg>
