<svg xmlns="http://www.w3.org/2000/svg" viewBox="0 0 22 22">
  <defs id="defs3051">
    <style type="text/css" id="current-color-scheme">
      .ColorScheme-Text {
        color:#eff0f1
      }
      </style>
  </defs>
    <path
     style="fill:currentColor;fill-opacity:1;stroke:none"
     id="path5"
     class="ColorScheme-Text"
     d="M 19,11.000002 C 19,6.7242298 15.418232,3.2580645 10.999998,3.2580645 6.5817685,3.2580645 3,6.7242298 3,11.000002 c 0,4.275754 3.5817685,7.741933 7.999998,7.741933 H 19 V 17.451606 H 15.416626 C 17.65329,16.018567 18.99895,13.596069 19,11.000002 Z m -4.081469,5.219569 c -0.893419,0.628155 -2.144369,0.436621 -2.793609,-0.428431 -0.64907,-0.864743 -0.451174,-2.075035 0.442546,-2.703505 0.893771,-0.628145 2.144479,-0.436618 2.793614,0.428435 0.649441,0.864712 0.451186,2.075034 -0.442551,2.703501 z M 14.82079,7.7637941 c 1.050329,-0.3304507 2.178691,0.2258664 2.520135,1.2424401 0.341103,1.0168898 -0.233674,2.1087428 -1.284245,2.4388868 -1.05029,0.330448 -2.178644,-0.225869 -2.520149,-1.242442 -0.341074,-1.0165669 0.233726,-2.1087391 1.284294,-2.4388893 z M 11.00035,4.5483903 c 1.104559,0 1.999994,0.866615 1.999994,1.9354846 0,1.0688621 -0.895435,1.9354769 -1.999994,1.9354769 -1.1043954,0 -1.9999873,-0.8666148 -1.9999873,-1.9354769 0,-1.0688696 0.8955919,-1.9354846 1.9999873,-1.9354846 z M 4.6597251,9.0062342 C 5.0012925,7.9896605 6.129601,7.4333464 7.1799347,7.763482 8.2304697,8.0939399 8.8052691,9.1857973 8.4641431,10.202364 8.1227084,11.21893 6.9944521,11.775258 5.944037,11.445121 4.8934171,11.114977 4.3185175,10.023124 4.6596436,9.0062342 Z M 9.8753085,15.791147 C 9.2261221,16.656192 7.9752527,16.847726 7.0816927,16.219571 6.188122,15.591104 5.9898996,14.380782 6.6392963,13.51607 c 0.6490441,-0.864743 1.9000511,-1.05658 2.7936184,-0.42812 0.8935673,0.628158 1.0915303,1.83845 0.4423938,2.703197 z m 0.4583495,-4.791145 c 0,-0.356295 0.298467,-0.645165 0.666613,-0.645165 0.368149,0 0.666675,0.28887 0.666675,0.645165 0,0.356284 -0.298526,0.645161 -0.666675,0.645161 -0.368146,0 -0.666613,-0.288876 -0.666613,-0.645161 z m 0,0" />
</svg>
