<?xml version="1.0" encoding="UTF-8" standalone="no"?>
<svg
   viewBox="0 0 22 22"
   version="1.1"
   id="svg1"
   xmlns="http://www.w3.org/2000/svg"
   xmlns:svg="http://www.w3.org/2000/svg">
  <defs
     id="defs3051">
    <style type="text/css" id="current-color-scheme"> .ColorScheme-Text { color:#eff0f1; } </style>
  </defs>
  <path
     d="M 3.5,3 C 2.115,3 1,4.1893333 1,5.6666667 V 16.333333 C 1,17.810667 2.115,19 3.5,19 h 15 C 19.885,19 21,17.810667 21,16.333333 V 5.6666667 C 21,4.1893333 19.885,3 18.5,3 Z m 0,1.3333333 h 15 c 0.6111,0 1.0931,0.47208 1.203613,1.0885467 l -8.02975,6.820267 c -0.381988,0.324466 -0.965675,0.324466 -1.347625,0 L 2.2964875,5.42188 C 2.406995,4.8054133 2.889,4.3333333 3.5001,4.3333333 Z M 2.25,7.0650667 6.881375,11 2.25,14.934933 V 7.0652 Z m 17.5,0 V 14.9348 L 15.118625,10.999867 19.75,7.0649333 Z M 7.8725,11.843733 9.334875,13.08592 c 0.913587,0.776013 2.4165,0.776013 3.330125,0 l 1.462375,-1.242187 5.576125,4.7344 C 19.592987,17.1946 19.110987,17.66668 18.499887,17.66668 H 3.4998875 c -0.6111,0 -1.0931,-0.47208 -1.2036125,-1.088547 l 5.576125,-4.7344 z"
     id="path1"
     class="ColorScheme-Text"
     style="fill:currentColor;fill-opacity:1" />
</svg>
