<?xml version="1.0" encoding="UTF-8" standalone="no"?>
<svg
   viewBox="0 0 22 22"
   version="1.1"
   id="svg1"
   xmlns="http://www.w3.org/2000/svg"
   xmlns:svg="http://www.w3.org/2000/svg">
  <defs
     id="defs3051">
    <style type="text/css" id="current-color-scheme"> .ColorScheme-Text { color:#eff0f1; } </style>
  </defs>
  <path
     style="fill:currentColor;fill-opacity:1;stroke:none"
     d="M 3.5972426,2.974585 C 3.7208517,2.968775 3.8005527,3 3.8005527,3 h 4.6634418 c 0,0 0.6099327,0.2340192 0.6099327,0.7751225 0,0.5411033 -0.4574487,0.9021926 -0.4574487,0.9021926 H 5.782833 L 7.7524079,6.5833552 H 10.154017 V 8.2733768 H 9.4678422 c -0.0049,0 -0.0077,-6.15e-5 -0.01272,0 -0.6289976,0.00795 -1.1309107,0.5126783 -1.1309107,1.1436242 v 0.609932 H 6.7104317 L 6.6850167,7.815928 c -4e-6,-0.01413 -1.7789693,-1.8425056 -1.7789693,-1.8425056 l -0.012715,2.5413865 c -4e-6,0 -0.3839326,0.6099329 -0.9784337,0.6099329 C 3.3203951,9.1247418 3,8.4639814 3,8.4639814 V 3.8640721 c 0,-2.5e-6 -0.091956,-0.4146483 0.1524836,-0.6861755 0.00594,-0.00657 0.019065,-0.019065 0.025415,-0.025415 C 3.3131756,3.017207 3.4736211,2.9804175 3.5972291,2.974584 Z m 9.9387784,0.05082 c 0,0 4.572469,0.021615 4.574493,0 0.001,-0.01073 0.443423,0.01673 0.62264,0.1651911 C 18.936278,3.3588572 19,3.7369935 19,3.7369935 v 4.6507379 c -1e-6,3e-6 -0.234017,0.6099333 -0.775124,0.6099333 -0.5411,0 -0.902192,-0.4447437 -0.902192,-0.4447437 V 6.0115349 L 15.251455,8.2479553 V 10.026925 H 13.485193 V 9.416992 c 0,-0.6359134 -0.507708,-1.1436227 -1.143624,-1.1436227 H 11.807878 V 6.5833462 h 2.287248 c 0.0826,0 0.163864,0.00896 0.241432,0.025415 l 1.982281,-1.9187467 -2.922595,-0.012715 c 0,0 -0.495575,-0.2695667 -0.49557,-0.8640721 -2e-6,-0.2322276 0.08009,-0.4834473 0.203311,-0.6099329 0.19222,-0.197315 0.432036,-0.1778965 0.432036,-0.1778965 z m -6.825582,8.922248 h 1.6137798 v 0.622639 c 0,0.63591 0.5077146,1.143624 1.1436242,1.143624 h 0.686174 v 1.677315 H 7.8667697 c -0.6359056,0 -1.1563322,-0.507716 -1.1563307,-1.143623 z m 6.774754,-5e-6 h 1.766262 v 2.299955 c 4e-6,0.03766 -0.0092,0.07765 -0.01272,0.114367 l 2.033109,1.791677 0.06353,-2.782818 c 5e-6,5e-6 0.282274,-0.470158 0.876778,-0.470157 0.594503,-5e-6 0.83866,0.584519 0.838657,0.584519 l -0.03812,4.676152 c 6e-6,3e-6 -0.009,0.415623 -0.279552,0.686174 C 18.462588,19.118075 18.09779,19 18.09779,19 h -4.650734 c 0,0 -0.609933,-0.234017 -0.609933,-0.775122 0,-0.541104 0.444743,-0.902193 0.444743,-0.902193 h 3.02425 L 14.10782,15.391231 h -2.299955 v -1.677315 h 0.533691 c 0.635917,0 1.143625,-0.507713 1.143625,-1.143624 v -0.622639 z"
     class="ColorScheme-Text"
     id="path1" />
</svg>
