<?xml version="1.0" encoding="UTF-8" standalone="no"?>
<svg
   viewBox="0 0 22 22"
   version="1.1"
   id="svg1"
   xmlns="http://www.w3.org/2000/svg"
   xmlns:svg="http://www.w3.org/2000/svg">
  <defs
     id="defs3051">
    <style
       type="text/css"
       id="current-color-scheme"> .ColorScheme-Text { color:#eff0f1; } </style>
  </defs>
  <path
     id="path2"
     style="fill:currentColor;fill-opacity:1"
     class="ColorScheme-Text"
     d="M 6 3 C 4.3380017 3 3 4.3380017 3 6 L 3 16 C 3 17.661998 4.3380017 19 6 19 L 16 19 C 17.661998 19 19 17.661998 19 16 L 19 6 C 19 4.3380017 17.661998 3 16 3 L 6 3 z M 6 4 L 16 4 C 17.107999 4 18 4.8920011 18 6 L 18 13.214844 L 15.5 13.214844 L 15.173828 12.003906 L 13.878906 7.2089844 L 13.285156 5 L 12.693359 7.2089844 L 12.019531 9.7265625 L 11.443359 7.5820312 L 11.34375 7.2089844 L 10.753906 5.0078125 L 9.5292969 9.5839844 L 8.7265625 12.580078 L 7.7011719 8.8007812 L 7 6.2148438 L 4 6.2148438 L 4 6 C 4 4.8920011 4.8920011 4 6 4 z M 4 7.2148438 L 6 7.2148438 L 6.2753906 8.1894531 L 8.1328125 14.78125 L 8.7226562 16.986328 L 9.3144531 14.78125 L 10.585938 10.037109 L 10.751953 9.4140625 L 10.962891 10.199219 L 11.427734 11.933594 L 12.019531 14.142578 L 12.611328 11.933594 L 12.857422 11.011719 L 13.285156 9.4160156 L 13.791016 11.410156 L 14.5 14.214844 L 18 14.214844 L 18 16 C 18 17.107999 17.107999 18 16 18 L 6 18 C 4.8920011 18 4 17.107999 4 16 L 4 7.2148438 z " />
</svg>
