<?xml version="1.0" encoding="UTF-8" standalone="no"?>
<svg
   viewBox="0 0 22 22"
   version="1.1"
   id="svg1"
   xmlns="http://www.w3.org/2000/svg"
   xmlns:svg="http://www.w3.org/2000/svg">
  <defs
     id="defs3051">
    <style type="text/css" id="current-color-scheme"> .ColorScheme-Text { color:#eff0f1; } </style>
  </defs>
  <path
     style="fill:currentColor;fill-opacity:1;stroke:none"
     d="M 10.451181,3.0004223 C 9.0949606,3.0375722 7.7663357,3.6572972 6.8642443,4.6803382 5.2747821,6.4008204 5.1478381,9.2490895 6.5673168,11.111165 7.8233117,11.303088 8.9248474,12.233719 9.3450454,13.440296 9.9709681,15.07403 9.1840682,17.081246 7.6215025,17.845305 6.0954035,18.682108 4.017672,18.155227 3.0660653,16.690252 3.0437053,16.657572 3.0218747,16.624572 3,16.591572 c 0.7102618,1.165855 1.9072693,2.015987 3.2370667,2.291983 2.2727651,0.527518 4.7830583,-0.785881 5.6731473,-2.956174 -0.463114,-1.192453 -0.214312,-2.619403 0.612071,-3.589493 1.090327,-1.363251 3.208165,-1.680101 4.645794,-0.697861 1.481899,0.91378 2.068152,2.991229 1.285302,4.554589 -0.01697,0.03591 -0.03423,0.07155 -0.05172,0.107227 0.646544,-1.202917 0.778285,-2.67297 0.350433,-3.972311 C 18.069087,10.08159 15.685633,8.5466665 13.376292,8.8548768 13.04195,9.27675 12.608285,9.6085234 12.125306,9.833946 c -0.01679,0.00787 -0.0336,0.01572 -0.05056,0.023587 -0.004,0.002 -0.0076,0.0032 -0.0112,0.0052 -0.245705,0.1102532 -0.506148,0.193181 -0.777448,0.24514 -0.0028,4.76e-4 -0.0052,0.0013 -0.0081,0.0013 -0.02607,0.0052 -0.05225,0.0097 -0.07855,0.01371 -0.400358,0.06791 -0.81193,0.06804 -1.2128209,-0.0079 C 9.3291307,10.01139 8.7287167,9.6989701 8.2445657,9.2554006 8.2229343,9.2358163 8.2017402,9.2156921 8.1805617,9.195607 8.1694923,9.1849033 8.1583449,9.17445 8.1474394,9.1636445 7.8553246,8.8794094 7.6113949,8.5455078 7.4291626,8.1749758 7.4109666,8.1385612 7.393472,8.1018025 7.3764546,8.0647839 7.375777,8.0627439 7.374428,8.0607972 7.3737213,8.0587572 7.1394841,7.5463921 7.0231973,6.9803046 7.0641532,6.4078428 7.0807963,5.7501187 7.3016964,5.1206852 7.6629338,4.5858701 7.8704118,4.2746435 8.1254413,3.9986852 8.4168262,3.766974 c 0.00399,-0.00321 0.00792,-0.00665 0.011787,-0.00936 0.030936,-0.024365 0.06206,-0.048472 0.093805,-0.071804 0.030608,-0.022879 0.061724,-0.044928 0.093057,-0.066741 0.00593,-0.00399 0.011947,-0.00853 0.018017,-0.012533 0.5004274,-0.3447062 1.0848219,-0.5631322 1.7003178,-0.5980022 3.7e-5,-6.2e-6 1.22e-4,8.7e-6 1.61e-4,0 0.0116,-6.784e-4 0.02339,-0.0018 0.03516,-0.00251 0.02736,-0.00204 0.05471,-0.00399 0.08206,-0.00603 z"
     class="ColorScheme-Text"
     id="path1" />
</svg>
