<?xml version="1.0" encoding="UTF-8" standalone="no"?>
<svg
   viewBox="0 0 22 22"
   version="1.1"
   id="svg1"
   xmlns="http://www.w3.org/2000/svg"
   xmlns:svg="http://www.w3.org/2000/svg">
  <defs
     id="defs3051">
    <style
       type="text/css"
       id="current-color-scheme"> .ColorScheme-Text { color:#eff0f1; } </style>
  </defs>
  <path
     style="fill:currentColor;stroke-width:1.33333"
     d="M 4.3305088,16.333333 H 7 L 9.666667,13.666667 8.3333333,12.333333 Z m 13.3122262,0 -3.976068,-4 -4,4 z M 7.6666667,5.6666667 c -1.0666667,0 -2,0.9333333 -2,2 0,1.0666666 0.9333333,2.0000003 2,2.0000003 1.0666666,0 2.0000003,-0.9333337 2.0000003,-2.0000003 0,-1.0666667 -0.9333337,-2 -2.0000003,-2 z M 5.6666667,3 C 4.1893333,3 3,4.1893333 3,5.6666667 V 16.333333 C 3,17.810667 4.1893333,19 5.6666667,19 H 16.333333 C 17.810667,19 19,17.810667 19,16.333333 V 5.6666667 C 19,4.1893333 17.810667,3 16.333333,3 Z m 0,1.3333333 H 16.333333 c 0.738667,0 1.333334,0.5946667 1.333334,1.3333334 V 16.333333 c 0,0.609215 -0.5119,1.25 -1.333334,1.25 H 5.6666667 c -0.8632487,0 -1.3333334,-0.625112 -1.3333334,-1.25 V 5.6666667 C 4.3333333,4.928 4.928,4.3333333 5.6666667,4.3333333 Z"
     class="ColorScheme-Text"
     id="path1" />
</svg>
