<svg xmlns="http://www.w3.org/2000/svg" height="24" width="24" viewBox="0 0 24 24">
  <style type="text/css" id="current-color-scheme">.ColorScheme-Text {color:#eff0f1;}</style>
  <g transform="translate(1,1)">
    <g class="ColorScheme-Text" fill="currentColor">
      <path d="M 3.858,3 16,8 15.667,8.943 3.525,3.943 Z"/>
      <path d="m 3,11 v 5 c 0,0 0,3 3,3 3,0 7,0 10,0 3,0 3,-3 3,-3 V 11 C 19,11 19,8 16,8 13,8 9,8 6,8 3,8 3,11 3,11 Z m 1,0 c 0,0 0,-2 2,-2 2,0 8,0 10,0 2,0 2,2 2,2 v 5 c 0,0 0,2 -2,2 -2,0 -8,0 -10,0 -2,0 -2,-2 -2,-2 z"/>
      <path d="m 5.0549215,11 h 5.9999995 v 1 H 5.0549215 Z m 0,2 h 5.9999995 v 1 H 5.0549215 Z m 0,2 h 5.9999995 v 1 H 5.0549215 Z m 9.4999995,-4 c -1.380711,0 -2.5,1.119288 -2.5,2.5 0,1.380712 1.119289,2.5 2.5,2.5 1.380712,0 2.5,-1.119288 2.5,-2.5 0,-1.380712 -1.119288,-2.5 -2.5,-2.5 z m 0,1 c 0.828428,0 1.5,0.671573 1.5,1.5 0,0.828427 -0.671572,1.5 -1.5,1.5 -0.828427,0 -1.5,-0.671573 -1.5,-1.5 0,-0.828427 0.671573,-1.5 1.5,-1.5 z"/>
    </g>
  </g>
</svg>
