<svg xmlns="http://www.w3.org/2000/svg" viewBox="0 0 24 24" width="24" height="24">
  <style type="text/css" id="current-color-scheme">.ColorScheme-Text {color:#eff0f1;}</style>
  <g transform="translate(1,1)">
    <g class="ColorScheme-Text" fill="currentColor">
      <path d="M 13,3 V 5 C 13,5.554 12.554,6 12,6 10.892,6 10,6.892 10,8 10,8 6,8 4,8 2,8 2,10 2,10 v 7 c 0,0 0,2 2,1.996902 2,-0.0031 12,-0.04361 14,-0.02025 C 20,19 20,17 20,17 v -7 c 0,0 0,-2 -2,-2 -2,0 -7,0 -7,0 0,-0.554 0.446,-1 1,-1 1.108,0 2,-0.892 2,-2 V 3 Z M 4,8.979477 C 5,8.958954 17,9 18,9 c 1,0 1,1 1,1 H 3 C 3,10 3,9 4,8.979477 Z M 3,11 h 16 l -0.02075,6 C 18.979247,17 19,18 18,17.984157 17,17.968315 5,17.998537 4,17.999268 3,18 3,17 3,17 Z"/>
      <path d="M4 12v1h1v-1zm2 0v1h1v-1zm2 0v1h1v-1zm2 0v1h1v-1zm2 0v1h1v-1zm2 0v1h1v-1zm2 0v1h2v-1zM4 14v1h2v-1zm3 0v1h1v-1zm2 0v1h1v-1zm2 0v1h1v-1zm2 0v1h1v-1zm2 0v1h3v-1zM4 16v1h2v-1zm3 0v1h8v-1zm9 0v1h2v-1z"/>
    </g>
  </g>
</svg>
