<svg xmlns="http://www.w3.org/2000/svg" viewBox="0 0 24 24" width="24" height="24">
  <style type="text/css" id="current-color-scheme">.ColorScheme-Text {color:#eff0f1;}</style>
  <g transform="translate(1,1)">
    <g class="ColorScheme-Text" fill="currentColor">
      <path d="m 2,8 c 0,2 0,7 0,7 l 3,4 v -4 h 13 c 0,0 2,0 2,-2 0,-2 0,-3 0,-5 C 20,6 18,6.0225399 18,6.0225399 L 4,5.9712042 C 4,5.9712042 2,6 2,8 Z M 3,8 C 3,7 4,6.974004 4,6.974004 l 14,-0.00231 C 18,6.9716914 19,7 19,8 c 0,1 0,4 0,5 0,1 -1,1 -1,1 H 4 C 4,14 3,14 3,13 3,11.330558 3,9 3,8 Z"/>
      <path d="M4 8v1h1V8zm2 0v1h1V8zm2 0v1h1V8zm2 0v1h1V8zm2 0v1h1V8zm2 0v1h1V8zm2 0v1h2V8zM4 10v1h2v-1zm3 0v1h1v-1zm2 0v1h1v-1zm2 0v1h1v-1zm2 0v1h1v-1zm2 0v1h3v-1zM4 12v1h2v-1zm3 0v1h8v-1zm9 0v1h2v-1z"/>
    </g>
  </g>
</svg>
