<svg xmlns="http://www.w3.org/2000/svg" viewBox="0 0 24 24" width="24" height="24">
  <defs id="defs3051">
    <style type="text/css" id="current-color-scheme">.ColorScheme-Text {color:#eff0f1;}</style>
  </defs>
  <g transform="translate(1,1)">
    <path style="fill:currentColor;fill-opacity:1;stroke:none" d="M 11,3 C 6.581722,3 3,6.581722 3,11 h 1 c 0,-3.8659932 3.1340068,-7 7,-7 3.865993,0 7,3.1340068 7,7 h 1 C 19,6.581722 15.418278,3 11,3 Z m 0,2 C 7.676,5 5,7.676 5,11 H 8 C 8,9.338 9.338,8 11,8 Z m 0,4 C 9.8954305,9 9,9.8954305 9,11 h 1 c 0,-0.552285 0.447715,-1 1,-1 0.552285,0 1,0.447715 1,1 h 1 C 13,9.8954305 12.104569,9 11,9 Z m 5,2 v 4.277344 C 15.704935,15.106144 15.367047,15 15,15 c -1.108,0 -2,0.892 -2,2 0,1.108 0.892,2 2,2 1.108,0 2,-0.892 2,-2 v -4 h 1 L 17,11 Z M 4,13 v 5 c 0,0 0,1 1,1 1,0 2,0 2,0 l 2,-2 v -4 c 0,0 0,-1 -1,-1 -1,0 -2,0 -3,0 -1,0 -1,1 -1,1 z m 1,0 h 3 v 4 H 7 v 1 H 5 Z" id="rect4119" class="ColorScheme-Text"/>
  </g>
</svg>
