<svg xmlns="http://www.w3.org/2000/svg" viewBox="0 0 24 24" width="24" height="24">
  <defs id="defs3051">
    <style type="text/css" id="current-color-scheme">.ColorScheme-Text {color:#eff0f1;}</style>
  </defs>
  <g transform="translate(1,1)">
    <path style="fill:currentColor;fill-opacity:1;stroke:none" d="M 4,14 V 8 c 0,0 0,-1 1,-1 1,0 12,0 12,0 0,0 1,0 1,1 0,2 0,4 0,6 0,1 -1,1 -1,1 H 6 Z M 3,14.5 6,16 h 11 c 0,0 2,0 2,-2 0,-2 0,-4 0,-6 C 19,6 17,6 17,6 17,6 7,6 5,6 3,6 3,8 3,8 Z M 12,10 V 9 h 4 v 1 z m 0,2 v -1 h 5 v 1 z" class="ColorScheme-Text"/>
  </g>
</svg>
