<svg xmlns="http://www.w3.org/2000/svg" viewBox="0 0 24 24" width="24" height="24">
  <defs id="defs3051">
    <style type="text/css" id="current-color-scheme">.ColorScheme-Text {color:#eff0f1;}</style>
  </defs>
  <g transform="translate(1,1)">
    <path style="fill:currentColor;fill-opacity:1;stroke:none" d="m 11,3 c -4.418278,0 -8,3.581722 -8,8 0,4.418278 3.581722,8 8,8 0.334475,-0.0025 0.668464,-0.02599 1,-0.07031 V 17.921875 C 11.668964,17.971796 11.334773,17.997905 11,18 7.1340068,18 4,14.865993 4,11 4,7.1340068 7.1340068,4 11,4 c 3.865993,0 7,3.1340068 7,7 h 1 C 19,6.581722 15.418278,3 11,3 Z m 0,2 C 7.676,5 5,7.676 5,11 H 8 C 8,9.338 9.338,8 11,8 Z m 0,4 c -1.1045695,0 -2,0.8954305 -2,2 0,1.104569 0.8954305,2 2,2 v -1 c -0.552285,0 -1,-0.447715 -1,-1 0,-0.552285 0.447715,-1 1,-1 0.552285,0 1,0.447715 1,1 h 1 C 13,9.8954305 12.104569,9 11,9 Z m 2,4 c 0,0 0,4 0,5 0,1 1,1 1,1 h 2 l 2,-2 v -4 c 0,0 0,-1 -1,-1 -1,0 -2,0 -3,0 -1,0 -1,1 -1,1 z m 1,0 h 3 v 4 h -1 v 1 h -2 z" id="rect4119" class="ColorScheme-Text"/>
  </g>
</svg>
