<svg xmlns="http://www.w3.org/2000/svg" height="24" width="24" viewBox="0 0 24 24">
  <style type="text/css" id="current-color-scheme">.ColorScheme-Text {color:#eff0f1;}</style>
  <g transform="translate(1,1)">
    <path fill="currentColor" class="ColorScheme-Text" d="m 1,5 c 0,2 0,12 0,12 0,0 0,2 2,2 2,0 14,0 16,0 2,0 2,-2 2,-2 C 21,17 21,7 21,5 21,3 19,3 19,3 H 3 C 3,3 1,3 1,5 Z M 2,5 C 2,4 3,4 3,4 V 7 H 4 V 4 H 5 V 7 H 6 V 4 H 7 V 7 H 8 V 4 h 1 v 3 h 1 V 4 h 2 v 3 h 1 V 4 h 1 v 3 h 1 V 4 h 1 v 3 h 1 V 4 h 1 v 3 h 1 V 4 c 0,0 1,0 1,1 0,1 0,9 0,9 h -4 v 2 h -2 v 2 H 8 V 16 H 6 V 14 H 2 C 2,14 2,6 2,5 Z"/>
  </g>
</svg>
