<?xml version="1.0" encoding="UTF-8" standalone="no"?>
<svg
   height="16"
   width="16"
   version="1.1"
   id="svg29"
   sodipodi:docname="libreoffice-draw.svg"
   inkscape:version="1.1.2 (0a00cf5339, 2022-02-04)"
   xmlns:inkscape="http://www.inkscape.org/namespaces/inkscape"
   xmlns:sodipodi="http://sodipodi.sourceforge.net/DTD/sodipodi-0.dtd"
   xmlns="http://www.w3.org/2000/svg"
   xmlns:svg="http://www.w3.org/2000/svg">
  <defs
     id="defs33" />
  <sodipodi:namedview
     id="namedview31"
     pagecolor="#ffffff"
     bordercolor="#666666"
     borderopacity="1.0"
     inkscape:pageshadow="2"
     inkscape:pageopacity="0.0"
     inkscape:pagecheckerboard="0"
     showgrid="true"
     inkscape:zoom="38.875"
     inkscape:cx="8"
     inkscape:cy="7.9871383"
     inkscape:window-width="1920"
     inkscape:window-height="1015"
     inkscape:window-x="0"
     inkscape:window-y="0"
     inkscape:window-maximized="1"
     inkscape:current-layer="svg29">
    <inkscape:grid
       type="xygrid"
       id="grid850" />
  </sodipodi:namedview>
  <linearGradient
     id="a"
     gradientTransform="matrix(.27299641 0 0 .27592872 239.47143 299.0053)"
     gradientUnits="userSpaceOnUse"
     x2="0"
     y1="785.71002"
     y2="727.71002">
    <stop
       offset="0"
       stop-color="#f39c12"
       id="stop2" />
    <stop
       offset="1"
       stop-color="#f5ab35"
       id="stop4" />
  </linearGradient>
  <linearGradient
     id="b"
     gradientTransform="matrix(.6 0 0 .6 147.628 194.72)"
     gradientUnits="userSpaceOnUse"
     x2="0"
     y1="531.79999"
     y2="515.79999">
    <stop
       offset="0"
       stop-color="#f7bb5d"
       id="stop7" />
    <stop
       offset="1"
       stop-color="#fce3bc"
       id="stop9" />
  </linearGradient>
  <linearGradient
     id="c"
     gradientUnits="userSpaceOnUse"
     x1="4"
     x2="14.000008"
     y1="5"
     y2="14.999988">
    <stop
       offset="0"
       stop-color="#383e51"
       id="stop12" />
    <stop
       offset="1"
       stop-color="#655c6f"
       stop-opacity="0"
       id="stop14" />
  </linearGradient>
  <g
     transform="translate(-384.57,-499.8)"
     id="g27">
    <path
       d="m 386.57,502.8 c 0,0 -1.4e-4,13 -0.008,13.00376 L 398.57,515.8 v -10.5 l -5.5,-5.5 -3.56534,0 c -1.93466,0 -2.93466,1 -2.93466,3 z"
       fill="url(#a)"
       stroke-width="0.387536"
       id="path17"
       sodipodi:nodetypes="ccccccc" />
    <path
       d="M 386.57001,514.79999 H 398.57 v 1 h -11.99999 z"
       fill="#2e3132"
       fill-opacity="0.294"
       stroke-width="0.612372"
       id="path19" />
    <path
       d="m 398.57,503.8 v -4 h -4 z"
       fill="#b97c1b"
       id="path21" />
    <path
       d="M 12,5 V 8 L 9,7.5 7,5.5 4.5,8 5.5,9 4,13 6,15 h 8 V 7 Z"
       fill="url(#c)"
       fill-rule="evenodd"
       opacity="0.2"
       transform="translate(384.57,499.8)"
       id="path23" />
    <path
       d="m 393.57,504.8 v 3 h 3 v -3 z m -5,4 v 4 h 3 v -4 z m 6.5,0 -2.5,4 h 5 z m -3.19999,-2.50001 c 0,0.99411 -0.80589,1.8 -1.8,1.8 -0.99411,0 -1.8,-0.80589 -1.8,-1.8 0,-0.99411 0.80589,-1.8 1.8,-1.8 0.99411,0 1.8,0.80589 1.8,1.8 z"
       fill="url(#b)"
       stroke-opacity="0.55"
       stroke-width="1.68"
       id="path25" />
  </g>
</svg>
