<?xml version="1.0" encoding="UTF-8" standalone="no"?>
<svg
   height="16"
   width="16"
   version="1.1"
   id="svg29"
   sodipodi:docname="libreoffice-calc.svg"
   inkscape:version="1.1.2 (0a00cf5339, 2022-02-04)"
   xmlns:inkscape="http://www.inkscape.org/namespaces/inkscape"
   xmlns:sodipodi="http://sodipodi.sourceforge.net/DTD/sodipodi-0.dtd"
   xmlns="http://www.w3.org/2000/svg"
   xmlns:svg="http://www.w3.org/2000/svg">
  <defs
     id="defs33" />
  <sodipodi:namedview
     id="namedview31"
     pagecolor="#ffffff"
     bordercolor="#666666"
     borderopacity="1.0"
     inkscape:pageshadow="2"
     inkscape:pageopacity="0.0"
     inkscape:pagecheckerboard="0"
     showgrid="true"
     inkscape:zoom="38.875"
     inkscape:cx="8"
     inkscape:cy="7.9871383"
     inkscape:window-width="1920"
     inkscape:window-height="1015"
     inkscape:window-x="0"
     inkscape:window-y="0"
     inkscape:window-maximized="1"
     inkscape:current-layer="svg29">
    <inkscape:grid
       type="xygrid"
       id="grid850" />
  </sodipodi:namedview>
  <linearGradient
     id="a"
     gradientUnits="userSpaceOnUse"
     x1="4.00001"
     x2="14.00001"
     y1="4.99999"
     y2="14.99999">
    <stop
       offset="0"
       stop-color="#383e51"
       id="stop2" />
    <stop
       offset="1"
       stop-color="#655c6f"
       stop-opacity="0"
       id="stop4" />
  </linearGradient>
  <linearGradient
     id="b"
     gradientTransform="matrix(.72727 0 0 .68966 .727 1.931)"
     gradientUnits="userSpaceOnUse"
     x2="0"
     y1="785.71002"
     y2="727.71002">
    <stop
       offset="0"
       stop-color="#26c281"
       id="stop7" />
    <stop
       offset="1"
       stop-color="#3fc380"
       id="stop9" />
  </linearGradient>
  <linearGradient
     id="c"
     gradientTransform="translate(-15 -20)"
     gradientUnits="userSpaceOnUse"
     x2="0"
     y1="531.79999"
     y2="515.79999">
    <stop
       offset="0"
       stop-color="#70e4b3"
       id="stop12" />
    <stop
       offset="1"
       stop-color="#c8f0dc"
       id="stop14" />
  </linearGradient>
  <g
     transform="translate(-384.57,-499.8)"
     id="g27">
    <path
       d="m 386.57,502.8 v 13 h 12 v -10.5 l -5.5,-5.5 -3.53099,0 c -1.96901,0 -2.96901,1 -2.96901,3 z"
       fill="url(#b)"
       id="path17"
       sodipodi:nodetypes="ccccccc" />
    <path
       d="M 386.57001,514.79999 H 398.57 V 515.8 h -11.99999 z"
       fill="#2e3132"
       fill-opacity="0.294"
       id="path19" />
    <path
       d="m 4,5 v 7 l 3,3 h 7 V 7 L 12,5 Z"
       fill="url(#a)"
       fill-rule="evenodd"
       opacity="0.2"
       transform="translate(384.57,499.8)"
       id="path21" />
    <path
       d="m 388.57,504.8 v 7 h 8 v -7 z m 1,1 h 6 v 1 h -6 z m 0,2 h 2 v 1 h -2 z m 4,0 h 2 v 1 h -2 z m -4,2 h 2 v 1 h -2 z m 4,0 h 2 v 1 h -2 z"
       fill="url(#c)"
       id="path23" />
    <path
       d="m 398.57,503.8 v -4 h -4 z"
       fill="#289769"
       id="path25" />
  </g>
</svg>
