<svg xmlns="http://www.w3.org/2000/svg" viewBox="0 0 22 22">
    <defs id="defs1">
        <style type="text/css" id="current-color-scheme">
            .ColorScheme-Text {
                color:#eff0f1;
            }
        </style>
    </defs>
    <path style="fill:currentColor;fill-opacity:1;stroke:none" class="ColorScheme-Text" d="m 3,6 c 0,3 0,7 0,10 0,3 3,3 3,3 l 10,0 c 0,0 3,0 3,-3 0,-3 0,-5 0,-8 0,-3 -3,-3 -3,-3 h -3.992 l -2,-2 L 10,3.008 V 3 H 6 C 6,3 3,3 3,6 Z M 4,6 C 4,4 6,4 6,4 H 9.586 L 10.59,5.004 6.57,9 H 4 C 4,9 4,8 4,6 Z m 10,3 c 1.656854,0 3,1.343146 3,3 v 1 c 0,0 1,0 1,1 0,1 0,2 0,3 0,1 -1,1 -1,1 h -6 c 0,0 -1,0 -1,-1 0,-1 0,-2 0,-3 0,-1 1,-1 1,-1 v -1 c 0,-1.656854 1.343146,-3 3,-3 z m 0,1 c -1.104569,0 -2,0.895431 -2,2 v 1 h 4 v -1 c 0,-1.104569 -0.895431,-2 -2,-2 z"/>
</svg>
