<?xml version="1.0" encoding="UTF-8" standalone="no"?>
<svg
   width="64"
   version="1.1"
   height="64"
   id="svg15"
   sodipodi:docname="folder-inkscape.svg"
   inkscape:version="1.3.2 (091e20ef0f, 2023-11-25)"
   xmlns:inkscape="http://www.inkscape.org/namespaces/inkscape"
   xmlns:sodipodi="http://sodipodi.sourceforge.net/DTD/sodipodi-0.dtd"
   xmlns:xlink="http://www.w3.org/1999/xlink"
   xmlns="http://www.w3.org/2000/svg"
   xmlns:svg="http://www.w3.org/2000/svg"
   xmlns:rdf="http://www.w3.org/1999/02/22-rdf-syntax-ns#"
   xmlns:cc="http://creativecommons.org/ns#"
   xmlns:dc="http://purl.org/dc/elements/1.1/">
  <sodipodi:namedview
     pagecolor="#ffffff"
     bordercolor="#666666"
     borderopacity="1"
     objecttolerance="10"
     gridtolerance="10"
     guidetolerance="10"
     inkscape:pageopacity="0"
     inkscape:pageshadow="2"
     inkscape:window-width="1920"
     inkscape:window-height="1005"
     id="namedview17"
     showgrid="true"
     inkscape:zoom="9.8125"
     inkscape:cx="32"
     inkscape:cy="32.050955"
     inkscape:window-x="0"
     inkscape:window-y="0"
     inkscape:window-maximized="1"
     inkscape:current-layer="layer1"
     inkscape:document-rotation="0"
     inkscape:showpageshadow="2"
     inkscape:pagecheckerboard="0"
     inkscape:deskcolor="#d1d1d1">
    <inkscape:grid
       type="xygrid"
       id="grid850"
       originx="0"
       originy="0"
       spacingy="1"
       spacingx="1"
       units="px"
       visible="true" />
  </sodipodi:namedview>
  <defs
     id="defs5455">
    <linearGradient
       inkscape:collect="always"
       xlink:href="#linearGradient836"
       id="linearGradient838"
       x1="6"
       y1="50.000134"
       x2="94.005508"
       y2="50.000134"
       gradientUnits="userSpaceOnUse"
       gradientTransform="matrix(0.9780981,0,0,1,64.329648,974.91305)" />
    <linearGradient
       inkscape:collect="always"
       id="linearGradient836">
      <stop
         style="stop-color:#4b8bd4;stop-opacity:1"
         offset="0"
         id="stop832" />
      <stop
         style="stop-color:#3b6ca7;stop-opacity:1"
         offset="1"
         id="stop834" />
    </linearGradient>
    <linearGradient
       inkscape:collect="always"
       xlink:href="#linearGradient836"
       id="linearGradient2"
       x1="406.57144"
       y1="519.79797"
       x2="426.57144"
       y2="519.79797"
       gradientUnits="userSpaceOnUse" />
  </defs>
  <metadata
     id="metadata5458">
    <rdf:RDF>
      <cc:Work
         rdf:about="">
        <dc:format>image/svg+xml</dc:format>
        <dc:type
           rdf:resource="http://purl.org/dc/dcmitype/StillImage" />
      </cc:Work>
    </rdf:RDF>
  </metadata>
  <g
     inkscape:label="Capa 1"
     inkscape:groupmode="layer"
     id="layer1"
     transform="translate(-384.57143,-483.798)">
    <g
       transform="matrix(0.74255505,0,0,0.74255505,332.50401,-244.93992)"
       id="g4">
      <path
         style="color:#000000;font-style:normal;font-variant:normal;font-weight:normal;font-stretch:normal;font-size:medium;line-height:normal;font-family:Sans;-inkscape-font-specification:Sans;text-indent:0;text-align:start;text-decoration:none;text-decoration-line:none;letter-spacing:normal;word-spacing:normal;text-transform:none;writing-mode:lr-tb;direction:ltr;baseline-shift:baseline;text-anchor:start;display:inline;overflow:visible;visibility:visible;opacity:1;fill:url(#linearGradient838);fill-opacity:1;fill-rule:nonzero;stroke:none;stroke-width:3.95596;marker:none;enable-background:accumulate"
         d="m 77.516136,989.47294 c -3.988712,0 -7.396866,2.85993 -7.396866,6.65625 v 56.01651 c 0,2.3649 0.836461,3.8844 2.460429,5.2631 1.623967,1.3787 3.30936,2.0641 5.459931,2.0641 h 68.3709 c 1.64145,0.029 1.59477,-2.2249 3.9e-4,-2.2488 l -68.465873,-0.04 c -2.115981,0 -3.874159,-1.4929 -3.874159,-1.4929 0,0 -1.620163,-1.2165 -1.620163,-3.5457 v -56.01651 c 0,-2.61614 1.77916,-4.29462 4.886948,-4.26047 l 24.066557,-0.0121 11.47627,10.23088 c 0.34679,0.3129 0.79077,0.759 1.25317,0.769 l 33.37023,-0.012 c 1.7015,-0.01 1.64773,-2.3444 -0.0538,-2.3717 h -32.61346 l -12.1651,-10.53119 c -0.35109,-0.30157 -0.79464,-0.46748 -1.25318,-0.46875 z m 38.818274,2.90625 c -1.55276,-0.004 -1.55586,2.67092 0.0388,2.69371 l 29.7626,-0.0408 c 3.0158,-0.004 4.32232,0.97316 5.32647,1.90993 1.00416,0.93677 2.53008,3.23017 2.53008,5.59337 v 54.9375 c 0.009,1.8591 2.19838,1.9203 2.20491,0.064 l -0.006,-55.0018 c -3.1e-4,-3.21041 -1.04994,-5.89832 -2.9343,-7.65623 -1.88434,-1.75791 -4.44981,-2.5 -7.12177,-2.5 h -29.61804 c -0.0611,-0.003 -0.12228,-0.003 -0.18339,0 z"
         id="path2-3"
         sodipodi:nodetypes="sssssccscsssccccccccsccsssccssscc" />
    </g>
    <path
       id="path18-3-9-7"
       d="m 416.40349,509.79801 c -0.61841,-0.002 -1.23331,0.22659 -1.67712,0.68702 l -7.38264,7.65596 c -2.4949,3.13075 1.69797,2.76732 3.49545,3.66903 0.64478,0.66776 -2.47096,1.15825 -1.82603,1.82657 0.64465,0.66788 3.89565,1.28588 4.54139,1.95368 0.64474,0.66785 -1.31874,1.37717 -0.67399,2.04491 0.64475,0.66781 2.13459,0.0345 2.41384,1.57641 0.19896,1.10172 2.68996,0.4734 3.90672,-0.42883 0.64478,-0.66834 -1.23255,-0.60289 -0.58783,-1.27063 1.60326,-1.66153 3.09575,-0.6066 3.64432,-2.27139 0.27094,-0.82263 -2.36216,-1.26597 -1.71637,-1.93377 1.85521,-1.09798 8.26606,-1.81323 5.22343,-4.89604 l -7.6528,-7.9259 c -0.46802,-0.45538 -1.09006,-0.68578 -1.70861,-0.687 z m 0.0628,0.72666 c 0.44156,0.003 0.88219,0.17105 1.1991,0.49633 l 2.92326,3.00599 c 0.27705,0.28675 0.2726,0.84068 0.11765,1.00052 l -1.44994,-1.17529 -0.28605,1.74311 -1.21086,-0.64719 -1.94355,1.23885 -0.64267,-2.61668 -1.04237,1.82659 h -1.59098 c -0.64964,0 -0.72749,-0.83532 -0.13711,-1.43348 1.03125,-1.1279 2.21367,-2.27636 2.85662,-2.94242 0.32319,-0.33471 0.76537,-0.49869 1.20694,-0.49633 z m -3.50695,11.6978 c 0.19737,0.12415 3.18141,0.73904 3.91069,0.8617 0.2528,0.054 0.074,0.3181 -0.27427,0.49631 -0.78597,0.21168 -4.5985,-1.35801 -3.63656,-1.35801 z m 11.60698,2.10452 c -0.60057,0.0215 -1.1927,0.33042 -1.35593,0.91335 0,0.37988 2.75878,0.63115 2.75878,-0.0873 -0.1968,-0.57714 -0.80248,-0.84697 -1.40279,-0.826 z m -12.6651,1.64397 c -0.86562,-0.0106 -1.87913,0.63516 -1.13238,1.29045 0.65411,0.5731 1.66422,-0.14519 1.96707,-0.94505 -0.1782,-0.23999 -0.49592,-0.34224 -0.83466,-0.3454 z m 10.95999,0.0513 c -0.84308,0.76636 0.0938,1.54339 0.92471,1.04833 0.18518,-0.19051 -0.007,-0.85782 -0.92471,-1.04833 z"
       stroke-width="1.97975"
       style="color:#eff0f1;fill:url(#linearGradient2);fill-opacity:1"
       class="ColorScheme-Text" />
  </g>
</svg>
