<?xml version="1.0" encoding="UTF-8" standalone="no"?>
<svg
   width="64"
   version="1.1"
   height="64"
   id="svg15"
   sodipodi:docname="folder-amy.svg"
   inkscape:version="1.3.2 (091e20ef0f, 2023-11-25)"
   xmlns:inkscape="http://www.inkscape.org/namespaces/inkscape"
   xmlns:sodipodi="http://sodipodi.sourceforge.net/DTD/sodipodi-0.dtd"
   xmlns:xlink="http://www.w3.org/1999/xlink"
   xmlns="http://www.w3.org/2000/svg"
   xmlns:svg="http://www.w3.org/2000/svg"
   xmlns:rdf="http://www.w3.org/1999/02/22-rdf-syntax-ns#"
   xmlns:cc="http://creativecommons.org/ns#"
   xmlns:dc="http://purl.org/dc/elements/1.1/">
  <sodipodi:namedview
     pagecolor="#ffffff"
     bordercolor="#666666"
     borderopacity="1"
     objecttolerance="10"
     gridtolerance="10"
     guidetolerance="10"
     inkscape:pageopacity="0"
     inkscape:pageshadow="2"
     inkscape:window-width="1920"
     inkscape:window-height="1005"
     id="namedview17"
     showgrid="true"
     inkscape:zoom="9.8125"
     inkscape:cx="32"
     inkscape:cy="32.050955"
     inkscape:window-x="0"
     inkscape:window-y="0"
     inkscape:window-maximized="1"
     inkscape:current-layer="layer1"
     inkscape:document-rotation="0"
     inkscape:showpageshadow="2"
     inkscape:pagecheckerboard="0"
     inkscape:deskcolor="#d1d1d1">
    <inkscape:grid
       type="xygrid"
       id="grid850"
       originx="0"
       originy="0"
       spacingy="1"
       spacingx="1"
       units="px"
       visible="true" />
  </sodipodi:namedview>
  <defs
     id="defs5455">
    <linearGradient
       inkscape:collect="always"
       xlink:href="#linearGradient836"
       id="linearGradient838"
       x1="6"
       y1="50.000134"
       x2="94.005508"
       y2="50.000134"
       gradientUnits="userSpaceOnUse"
       gradientTransform="matrix(0.9780981,0,0,1,64.329651,974.91306)" />
    <linearGradient
       inkscape:collect="always"
       id="linearGradient836">
      <stop
         style="stop-color:#4b8bd4;stop-opacity:1"
         offset="0"
         id="stop832" />
      <stop
         style="stop-color:#3b6ca7;stop-opacity:1"
         offset="1"
         id="stop834" />
    </linearGradient>
    <linearGradient
       inkscape:collect="always"
       xlink:href="#linearGradient836"
       id="linearGradient2"
       x1="391.57144"
       y1="519.45459"
       x2="441.9939"
       y2="519.45459"
       gradientUnits="userSpaceOnUse" />
  </defs>
  <metadata
     id="metadata5458">
    <rdf:RDF>
      <cc:Work
         rdf:about="">
        <dc:format>image/svg+xml</dc:format>
        <dc:type
           rdf:resource="http://purl.org/dc/dcmitype/StillImage" />
      </cc:Work>
    </rdf:RDF>
  </metadata>
  <g
     inkscape:label="Capa 1"
     inkscape:groupmode="layer"
     id="layer1"
     transform="translate(-384.57143,-483.798)">
    <g
       transform="matrix(0.74255505,0,0,0.74255505,332.50401,-244.93992)"
       id="g4">
      <path
         style="color:#000000;font-style:normal;font-variant:normal;font-weight:normal;font-stretch:normal;font-size:medium;line-height:normal;font-family:Sans;-inkscape-font-specification:Sans;text-indent:0;text-align:start;text-decoration:none;text-decoration-line:none;letter-spacing:normal;word-spacing:normal;text-transform:none;writing-mode:lr-tb;direction:ltr;baseline-shift:baseline;text-anchor:start;display:inline;overflow:visible;visibility:visible;opacity:1;fill:url(#linearGradient838);fill-opacity:1;fill-rule:nonzero;stroke:none;stroke-width:3.95596;marker:none;enable-background:accumulate"
         d="m 77.516136,989.47294 c -3.988712,0 -7.396866,2.85993 -7.396866,6.65625 v 56.01651 c 0,2.3649 0.836461,3.8844 2.460429,5.2631 1.623967,1.3787 3.30936,2.0641 5.459931,2.0641 h 68.3709 c 1.64145,0.029 1.59477,-2.2249 3.9e-4,-2.2488 l -68.465873,-0.04 c -2.115981,0 -3.874159,-1.4929 -3.874159,-1.4929 0,0 -1.620163,-1.2165 -1.620163,-3.5457 v -56.01651 c 0,-2.61614 1.77916,-4.29462 4.886948,-4.26047 l 24.066557,-0.0121 11.47627,10.23088 c 0.34679,0.3129 0.79077,0.759 1.25317,0.769 l 33.37023,-0.012 c 1.7015,-0.01 1.64773,-2.3444 -0.0538,-2.3717 h -32.61346 l -12.1651,-10.53119 c -0.35109,-0.30157 -0.79464,-0.46748 -1.25318,-0.46875 z m 38.818274,2.90625 c -1.55276,-0.004 -1.55586,2.67092 0.0388,2.69371 l 29.7626,-0.0408 c 3.0158,-0.004 4.32232,0.97316 5.32647,1.90993 1.00416,0.93677 2.53008,3.23017 2.53008,5.59337 v 54.9375 c 0.009,1.8591 2.19838,1.9203 2.20491,0.064 l -0.006,-55.0018 c -3.1e-4,-3.21041 -1.04994,-5.89832 -2.9343,-7.65623 -1.88434,-1.75791 -4.44981,-2.5 -7.12177,-2.5 h -29.61804 c -0.0611,-0.003 -0.12228,-0.003 -0.18339,0 z"
         id="path2-3"
         sodipodi:nodetypes="sssssccscsssccccccccsccsssccssscc" />
    </g>
    <path
       style="fill:url(#linearGradient2);fill-opacity:0.881279;stroke-width:0.999976"
       d="m 395.29281,530.8835 c -0.0265,-0.0642 -0.009,-0.34322 0.0382,-0.62005 0.071,-0.41206 0.0606,-0.51319 -0.056,-0.55774 -0.091,-0.0352 -0.21181,0.0296 -0.33434,0.17788 -0.10547,0.12775 -0.22021,0.22756 -0.25501,0.22178 -0.0348,-0.006 -0.0182,-0.2677 0.0368,-0.58208 0.0971,-0.55538 0.092,-0.5835 -0.18395,-0.99327 -0.18989,-0.28211 -0.542,-0.60582 -1.06377,-0.97798 -1.14311,-0.81531 -1.32795,-1.07643 -1.60098,-2.26177 -0.40705,-1.76717 -0.40204,-3.80377 0.009,-3.73191 0.052,0.009 0.26859,0.2322 0.48148,0.49571 0.6077,0.75236 0.72937,0.8413 1.28425,0.93877 0.72494,0.12738 1.09475,-0.0151 2.20027,-0.84741 1.0373,-0.78097 1.61117,-1.04945 2.58462,-1.20916 0.95711,-0.15704 2.81674,-0.0383 2.9063,0.18553 0.0474,0.11869 -0.28421,0.1307 -0.86587,0.0317 -0.63372,-0.10892 -1.23701,-0.0569 -2.01601,0.1709 -0.60209,0.17603 -1.08763,0.48421 -1.12814,0.71603 -0.0323,0.18465 0.09,0.17043 0.98972,-0.11528 0.83206,-0.26421 0.8395,-0.26476 1.58494,-0.11512 0.83422,0.16744 1.19755,0.11394 1.41867,-0.20889 0.0714,-0.10436 0.18555,-0.18001 0.25364,-0.16811 0.0958,0.0167 0.10022,0.0958 0.0194,0.35123 -0.0838,0.26494 -0.0752,0.35151 0.0365,0.43982 0.14961,0.11714 0.18768,0.0947 0.45568,-0.26804 0.1338,-0.18106 0.13611,-0.1744 0.041,0.11504 -0.16259,0.49437 0.18172,0.44053 0.56143,-0.0878 0.13093,-0.18218 0.13346,-0.16086 0.0282,0.23414 -0.0964,0.36159 -0.093,0.43863 0.0206,0.45848 0.075,0.0131 0.21667,-0.0266 0.31462,-0.0884 0.14141,-0.0892 0.17381,-0.088 0.15751,0.006 -0.0155,0.0893 0.11759,0.14342 0.54608,0.22174 0.52816,0.0969 0.63145,0.15272 1.52298,0.82839 0.52601,0.39864 0.98146,0.74222 1.01212,0.76353 0.0932,0.0649 -0.0924,-0.92501 -0.28222,-1.50427 -0.0982,-0.2997 -0.28028,-0.71655 -0.40458,-0.92633 -0.23021,-0.38851 -1.56877,-1.61628 -2.2381,-2.05288 -0.34209,-0.22313 -0.39136,-0.23503 -0.66407,-0.15954 -0.59424,0.16448 -1.33008,-0.12335 -2.30592,-0.902 -0.27183,-0.21691 -0.855,-0.56114 -1.2959,-0.76495 -1.47333,-0.68102 -2.15221,-1.04459 -2.67646,-1.43333 -0.28611,-0.21216 -0.70869,-0.47127 -0.93907,-0.5758 -0.36305,-0.16471 -0.46676,-0.18057 -0.7779,-0.11892 -0.55935,0.11057 -0.79289,0.24843 -1.60343,0.94653 -0.75451,0.64984 -0.99139,0.76327 -0.93636,0.44838 0.0886,-0.50693 0.88109,-1.43102 1.75174,-2.04263 1.16288,-0.81689 2.96431,-0.74818 5.37085,0.20488 1.78405,0.70652 2.91031,1.32258 3.52816,1.92985 0.2802,0.27541 0.54751,0.93942 0.56355,1.3999 0.008,0.24068 0.0729,0.30952 0.57388,0.61165 2.08893,1.25996 2.8177,2.25416 2.90048,3.95686 0.0232,0.47909 -0.0529,1.11103 -0.32414,2.68716 -0.31284,1.81678 -0.39898,2.1761 -0.72446,3.03585 -0.20341,0.53627 -0.41395,1.0061 -0.46784,1.04403 -0.0941,0.0662 -0.0466,-0.16782 0.38673,-1.90298 0.0769,-0.30821 0.10917,-0.56576 0.0723,-0.57219 -0.0372,-0.006 -0.24415,0.11657 -0.45995,0.27351 -0.43493,0.31628 -1.97548,1.02504 -2.85331,1.31271 -0.57404,0.18812 -0.61582,0.23372 -0.66766,0.72888 -0.0209,0.19794 -0.0654,0.27016 -0.15554,0.2544 -0.12243,-0.0214 -0.37079,-0.39839 -0.40636,-0.61688 -0.0119,-0.0729 -0.20987,-0.0525 -0.62411,0.0678 -0.59805,0.17227 -0.60752,0.17956 -0.66559,0.51184 -0.062,0.35491 -0.15186,0.40676 -0.2891,0.1669 -0.0455,-0.0793 -0.13166,-0.15293 -0.19159,-0.16341 -0.14042,-0.0245 -0.5488,0.43378 -0.58841,0.66041 -0.054,0.30883 -0.1885,0.24828 -0.26336,-0.11853 -0.0863,-0.42263 -0.25737,-0.48558 -0.63366,-0.23315 l -0.26224,0.17596 -0.2846,-0.27556 c -0.16702,-0.16175 -0.37469,-0.28069 -0.50269,-0.28799 -0.19502,-0.0111 -0.22816,0.0293 -0.3135,0.38245 -0.10846,0.44886 -0.33849,0.52118 -0.34854,0.10962 -0.003,-0.13317 -0.0603,-0.34782 -0.12693,-0.47705 -0.11632,-0.22575 -0.12799,-0.23011 -0.29844,-0.11109 -0.12843,0.0897 -0.19403,0.23954 -0.23759,0.54332 -0.0431,0.30088 -0.0922,0.41383 -0.17305,0.39969 -0.062,-0.0108 -0.13452,-0.0723 -0.161,-0.13652 z m 3.84804,-1.68217 c 0.51143,-0.0739 1.0862,-0.18293 1.27724,-0.24225 l 0.34736,-0.10783 -0.46501,-0.22809 c -0.61532,-0.30174 -1.14655,-1.03329 -1.2841,-1.76828 -0.186,-0.99377 -0.0649,-1.9973 0.3173,-2.62986 0.14026,-0.23213 -0.1172,-0.19781 -0.76133,0.10146 -1.07226,0.49823 -1.59607,0.92629 -2.29659,1.87682 -0.49746,0.67504 -0.66284,0.96921 -0.75751,1.34751 -0.12038,0.481 -0.11935,0.48594 0.16989,0.8105 0.51363,0.57632 0.65317,0.6465 1.624,0.81674 0.79734,0.13978 1.00396,0.14243 1.82878,0.0232 z m 2.31656,-0.82068 c 0.0853,-0.06 0.17876,-0.22884 0.20761,-0.37527 0.0498,-0.25238 0.0551,-0.25564 0.11051,-0.0611 0.0685,0.24135 0.13365,0.26589 0.30924,0.11648 0.0988,-0.0841 0.11548,-0.16272 0.0709,-0.33417 -0.0707,-0.27184 0.071,-0.2791 0.18045,-0.009 0.0927,0.22849 0.45542,0.30747 0.77649,0.1691 0.28468,-0.12272 0.32222,-0.29496 0.1286,-0.58978 -0.21301,-0.3243 -0.0522,-0.37259 0.18154,-0.0545 0.29972,0.40779 0.60945,0.3772 0.74205,-0.0733 0.0485,-0.16454 -0.003,-0.22989 -0.3337,-0.42537 -0.28841,-0.17042 -0.40444,-0.20596 -0.44254,-0.13531 -0.0285,0.0527 -0.20869,0.21829 -0.40053,0.36818 -0.65178,0.50909 -1.38422,0.38792 -1.88885,-0.3119 l -0.26629,-0.36964 -0.63888,0.18203 c -0.62548,0.17821 -0.70347,0.24208 -0.6471,0.52993 0.0405,0.20663 0.20144,0.2056 0.73113,-0.005 0.2594,-0.1032 0.49025,-0.16111 0.513,-0.12872 0.0228,0.0324 -0.1452,0.20165 -0.37332,0.37613 -0.45892,0.3511 -0.53137,0.51015 -0.31096,0.68278 0.2516,0.19707 0.32202,0.16188 0.63835,-0.31861 0.46052,-0.69949 0.60378,-0.55049 0.21355,0.22218 -0.13724,0.27164 -0.16588,0.39792 -0.10888,0.47916 0.11163,0.15888 0.42689,0.19362 0.60743,0.0668 z m 3.80687,-1.07556 c 0.81735,-0.60541 0.94832,-1.73428 0.28446,-2.45233 -0.22132,-0.2394 -0.81176,-0.57764 -0.82965,-0.47526 -0.003,0.0201 0.0755,0.29302 0.17562,0.60639 0.17686,0.55365 0.17685,0.59874 -1.3e-4,1.59259 -0.20066,1.1267 -0.19177,1.14437 0.36966,0.7286 z m -1.00535,-0.80606 c 0.14736,-0.18818 0.0866,-0.2322 -0.36284,-0.26267 -0.39327,-0.0266 -0.53638,0.14743 -0.22013,0.26768 0.36956,0.14051 0.4696,0.1397 0.58288,-0.005 z m -2.40434,-0.7027 c 0.20401,-0.14333 0.21715,-0.53425 0.0241,-0.71522 -0.37092,-0.34768 -0.90347,0.035 -0.70131,0.50396 0.10115,0.23464 0.47705,0.3519 0.67725,0.21126 z m 2.25566,0.0578 c 0.34308,-0.0131 0.44664,-0.0524 0.46859,-0.17804 0.0155,-0.0887 -0.007,-0.16723 -0.049,-0.17465 -0.16651,-0.0291 -0.90631,0.18722 -0.92065,0.26925 -0.0187,0.10681 -0.0359,0.1039 0.50108,0.083 z m 25.0046,0.90659 c 0.003,-0.23358 -0.0331,-0.34293 -0.10933,-0.32799 -0.0629,0.0124 -0.66845,0.0132 -1.34561,0.002 -1.13182,-0.0187 -1.305,-0.0419 -2.14527,-0.28659 -0.50274,-0.14641 -1.24427,-0.38464 -1.64788,-0.52927 -0.50776,-0.18202 -1.0724,-0.3109 -1.83301,-0.41833 -0.94085,-0.13294 -1.19595,-0.13742 -1.7708,-0.0307 -1.35218,0.25085 -1.46251,0.1682 -1.25835,-0.94264 0.24417,-1.32761 0.95951,-2.64965 2.11334,-3.90479 0.29771,-0.32384 0.64369,-0.77433 0.76888,-1.00111 0.28619,-0.51844 1.01637,-1.48666 1.33703,-1.77286 0.259,-0.23118 0.88197,-0.58233 0.99734,-0.56217 0.15869,0.0277 0.008,0.22537 -0.41361,0.54318 -0.24696,0.1861 -0.46253,0.41564 -0.47904,0.5101 -0.0984,0.56298 1.11454,-0.22768 1.57474,-1.02652 0.14952,-0.25953 0.30767,-0.4862 0.35148,-0.50372 0.0438,-0.0175 0.0462,0.15955 0.005,0.39348 -0.0675,0.38603 -0.0562,0.4285 0.11634,0.45865 0.28335,0.0495 0.83972,-0.23437 1.05486,-0.53825 0.10398,-0.14681 0.21942,-0.44127 0.25665,-0.65431 0.0618,-0.35387 0.0799,-0.3767 0.20433,-0.26479 0.11107,0.0996 0.20773,0.0916 0.51743,-0.0438 0.39918,-0.17425 1.49569,-0.38993 1.76185,-0.34655 0.0854,0.0142 0.1883,-0.0468 0.22867,-0.13513 0.0866,-0.18935 0.13547,-0.19196 0.23431,-0.0123 0.0592,0.10753 0.20342,0.13949 0.75979,0.16901 0.9496,0.0503 2.46057,0.40427 3.90767,0.91552 0.67088,0.23696 1.45337,0.47173 1.73886,0.52162 0.48255,0.0843 0.57099,0.0685 1.25683,-0.22491 0.87671,-0.37507 1.0415,-0.47066 2.66685,-1.54701 1.61818,-1.0716 1.89747,-1.16779 2.02026,-0.6958 0.14336,0.55103 -1.37753,3.88468 -2.41658,5.2969 -0.76011,1.03312 -1.242,1.35953 -2.23751,1.5156 -0.40567,0.0636 -0.7925,0.16238 -0.85964,0.21951 -0.0727,0.0618 -0.14672,0.30258 -0.18296,0.59452 -0.0535,0.43171 -0.0827,0.49363 -0.24302,0.51525 -0.29842,0.0403 -0.47645,0.21589 -0.53008,0.52274 -0.0466,0.26675 -0.0892,0.30042 -0.54954,0.43425 -0.27445,0.0798 -0.52817,0.19384 -0.56383,0.2534 -0.0356,0.0595 -0.0367,0.30346 -0.002,0.54197 0.0815,0.5659 -0.007,0.71579 -0.16894,0.28577 -0.1485,-0.39449 -0.27338,-0.44208 -0.57205,-0.21801 -0.18302,0.13726 -0.2108,0.20617 -0.18408,0.45659 0.0172,0.16217 -0.01,0.34559 -0.0606,0.40743 -0.0713,0.0877 -0.0954,0.0614 -0.10849,-0.11788 -0.0134,-0.18292 -0.0674,-0.23926 -0.26249,-0.27335 -0.31694,-0.0554 -0.39986,0.0456 -0.27505,0.33511 0.055,0.12771 0.074,0.29788 0.0422,0.37805 -0.0461,0.11579 -0.0743,0.0895 -0.13723,-0.12801 -0.0862,-0.29762 -0.40643,-0.46936 -0.56009,-0.3004 -0.05,0.0551 -0.12281,0.27962 -0.16198,0.49912 -0.0756,0.42673 -0.23722,0.52891 -0.2143,0.1359 0.0189,-0.3239 -0.27163,-0.41081 -0.60067,-0.17967 -0.20627,0.14492 -0.26299,0.25492 -0.3305,0.64116 -0.0909,0.52014 -0.2023,0.57472 -0.33166,0.16259 -0.1531,-0.48761 -0.45638,-0.35431 -0.45997,0.20215 -0.002,0.26605 -0.007,0.27085 -0.10539,0.094 -0.0571,-0.10244 -0.0917,-0.25474 -0.0771,-0.33838 0.0307,-0.17565 -0.002,-0.19046 -0.24639,-0.11012 -0.13505,0.0444 -0.19363,0.14891 -0.24345,0.43398 -0.0819,0.46876 -0.23352,0.46603 -0.22668,-0.004 z m -8.34251,-2.61473 c 0.58888,-0.1796 1.02717,-0.15151 2.20631,0.14133 1.10856,0.27533 2.75514,0.49365 3.53422,0.46795 l 0.50529,-0.0165 -0.30548,-0.38322 c -0.57651,-0.72319 -0.86564,-1.88781 -0.70167,-2.82611 0.0384,-0.21972 0.21026,-0.66886 0.38184,-0.99809 l 0.31201,-0.59859 -0.30652,-0.0525 c -1.01595,-0.17298 -2.54377,0.22785 -3.43925,0.90297 -0.96585,0.72818 -2.89322,2.98903 -2.82876,3.3182 0.0381,0.19446 0.12939,0.20068 0.64204,0.0444 z m 7.34838,0.0842 c 0.0583,-0.0496 0.15045,-0.18987 0.20465,-0.31163 0.1652,-0.37111 0.28837,-0.32743 0.18963,0.0673 -0.0705,0.28201 -0.0606,0.37243 0.0427,0.41182 0.0913,0.0352 0.16463,-0.0263 0.23403,-0.19552 0.0556,-0.13535 0.14613,-0.26419 0.20131,-0.28628 0.0561,-0.0225 0.0695,-0.006 0.0304,0.0386 -0.0386,0.0433 -0.017,0.17548 0.0498,0.29412 0.11066,0.19893 0.14004,0.20971 0.38543,0.14076 0.35491,-0.0998 0.41181,-0.29684 0.2022,-0.7007 -0.23506,-0.45308 -0.0909,-0.5187 0.1753,-0.0798 0.24209,0.39917 0.42055,0.5265 0.58046,0.41417 0.16953,-0.11908 0.16285,-0.25571 -0.0281,-0.58432 -0.22606,-0.38894 -0.15773,-0.42847 0.16907,-0.0977 0.29689,0.30049 0.54224,0.30365 0.59396,0.008 0.026,-0.14909 -0.0585,-0.26969 -0.35404,-0.50448 -0.47382,-0.37652 -0.36442,-0.42517 0.19182,-0.0852 0.38589,0.23577 0.56488,0.26881 0.59273,0.10947 0.0169,-0.0967 -1.31557,-0.94233 -1.44487,-0.917 -0.18105,0.0355 -0.14231,0.57855 0.0596,0.83285 0.15028,0.1894 0.15659,0.22001 0.0307,0.15057 -0.27431,-0.1513 -0.32065,-0.15026 -0.33511,0.009 -0.009,0.085 -0.0297,0.13119 -0.0514,0.10174 -0.0206,-0.0293 -0.16351,0.0201 -0.31766,0.10967 -0.68264,0.39677 -1.45059,0.21817 -1.88341,-0.43808 l -0.22825,-0.34595 -0.24885,0.12585 c -0.34036,0.17216 -0.4376,0.36383 -0.11375,0.22424 0.38922,-0.1678 0.27683,0.10591 -0.13618,0.33144 -0.30097,0.16445 -0.32584,0.20021 -0.23208,0.33367 0.0938,0.13348 0.14707,0.12063 0.49744,-0.11929 0.49915,-0.34183 0.61401,-0.21912 0.12478,0.13333 -0.2009,0.14471 -0.36978,0.28894 -0.3753,0.32048 -0.005,0.0315 0.0898,0.13325 0.21172,0.22601 0.25208,0.19171 0.35259,0.14631 0.51667,-0.23366 0.13039,-0.30189 0.24001,-0.18533 0.13238,0.14085 -0.11079,0.33576 0.0997,0.57451 0.33218,0.37668 z m 4.41135,-0.9718 c 0.45271,-0.36404 0.95813,-0.89734 0.98248,-1.03667 0.025,-0.14299 -0.40594,-0.46838 -0.80239,-0.6059 l -0.27618,-0.0958 -0.0618,0.62772 c -0.056,0.56957 -0.16748,0.92114 -0.42625,1.33225 -0.0795,0.12689 -0.0673,0.13785 0.0939,0.0847 0.10188,-0.0336 0.32247,-0.17142 0.49023,-0.30633 z m -4.05187,-1.59074 c 0.24834,-0.11626 0.31593,-0.38389 0.15959,-0.63185 -0.13966,-0.22145 -0.39577,-0.27233 -0.6296,-0.12375 -0.22144,0.13963 -0.27234,0.39578 -0.12575,0.62926 0.13739,0.21797 0.31873,0.25683 0.59482,0.12754 z m 3.24122,0.1757 c 0.13014,-0.14635 0.002,-0.1869 -0.79931,-0.25263 l -0.7949,-0.0652 0.57994,0.15191 c 0.31897,0.0836 0.66168,0.17305 0.76157,0.19893 0.0999,0.0257 0.21361,0.0109 0.25269,-0.033 z m -4.13668,-4.63772 c 0.13621,-0.0834 0.35186,-0.28942 0.47909,-0.45779 l 0.2313,-0.30615 -0.10074,0.35062 c -0.0946,0.32913 -0.0878,0.35289 0.10973,0.38741 0.38393,0.0671 1.04468,-0.63221 0.97346,-1.03028 -0.0169,-0.0947 -1.35877,-0.0146 -1.97887,0.11813 -0.37427,0.0801 -0.38405,0.0905 -0.45197,0.47914 -0.0382,0.21847 -0.0486,0.42686 -0.0232,0.46307 0.0998,0.14204 0.52591,0.13973 0.76105,-0.004 z m 2.27249,-0.27434 c 0.10477,-0.10086 0.27485,-0.31699 0.37791,-0.48035 l 0.18742,-0.29703 -0.40697,-0.0446 -0.40696,-0.0446 -0.11827,0.52802 c -0.10284,0.45912 -0.0987,0.52768 0.0291,0.52493 0.081,-0.002 0.23303,-0.0856 0.33782,-0.1864 z m 1.51079,-0.31083 c 0.11709,-0.1051 0.21902,-0.2257 0.22641,-0.26801 0.007,-0.0423 -0.20606,-0.1037 -0.47441,-0.13612 -0.46181,-0.0561 -0.49141,-0.0471 -0.55484,0.16728 -0.0792,0.26773 0.0165,0.30768 0.26782,0.11174 0.24814,-0.19347 0.36019,-0.15466 0.25239,0.0874 -0.11641,0.26135 0.014,0.27875 0.28264,0.0376 z m -14.87858,-2.03822 c -0.43859,-0.43126 -0.53209,-0.71924 -0.42762,-1.31706 0.08,-0.45759 0.13838,-0.57839 0.4121,-0.85303 0.59227,-0.59418 1.91161,-1.242 3.4559,-1.69687 0.77872,-0.22939 1.54137,-0.48755 1.69482,-0.5737 0.15346,-0.0861 0.56505,-0.2431 0.91471,-0.34877 0.34967,-0.1057 1.10248,-0.37614 1.67291,-0.601 3.83595,-1.5121 7.14581,-1.80532 9.29737,-0.82367 2.43738,1.11205 2.79489,1.30389 3.79208,2.03492 0.83044,0.60878 1.10907,0.86873 1.45596,1.3583 0.28221,0.3983 0.44289,0.72492 0.46962,0.95469 0.0224,0.19214 0.0223,0.36217 -2e-4,0.37796 -0.0225,0.0158 -0.23135,-0.17607 -0.46419,-0.42636 -0.67292,-0.72328 -1.94652,-1.42517 -4.01508,-2.21269 -0.98353,-0.37444 -3.35918,-0.79613 -4.1177,-0.73117 -0.58155,0.05 -3.32886,0.73738 -3.98062,0.99595 -1.74235,0.69128 -2.92533,1.31112 -3.85044,2.0175 -1.22675,0.93673 -2.54252,1.73717 -3.20686,1.95087 -0.60392,0.19429 -1.48061,0.26908 -2.28114,0.19464 -0.50183,-0.0465 -0.5996,-0.0824 -0.82158,-0.30074 z"
       id="path1" />
  </g>
</svg>
