<?xml version="1.0" encoding="UTF-8" standalone="no"?>
<svg
   width="64"
   version="1.1"
   height="64"
   id="svg15"
   sodipodi:docname="folder-design.svg"
   inkscape:version="1.3.2 (091e20ef0f, 2023-11-25)"
   xmlns:inkscape="http://www.inkscape.org/namespaces/inkscape"
   xmlns:sodipodi="http://sodipodi.sourceforge.net/DTD/sodipodi-0.dtd"
   xmlns:xlink="http://www.w3.org/1999/xlink"
   xmlns="http://www.w3.org/2000/svg"
   xmlns:svg="http://www.w3.org/2000/svg"
   xmlns:rdf="http://www.w3.org/1999/02/22-rdf-syntax-ns#"
   xmlns:cc="http://creativecommons.org/ns#"
   xmlns:dc="http://purl.org/dc/elements/1.1/">
  <sodipodi:namedview
     pagecolor="#ffffff"
     bordercolor="#666666"
     borderopacity="1"
     objecttolerance="10"
     gridtolerance="10"
     guidetolerance="10"
     inkscape:pageopacity="0"
     inkscape:pageshadow="2"
     inkscape:window-width="1920"
     inkscape:window-height="1005"
     id="namedview17"
     showgrid="true"
     inkscape:zoom="9.8125"
     inkscape:cx="32"
     inkscape:cy="32.050955"
     inkscape:window-x="0"
     inkscape:window-y="0"
     inkscape:window-maximized="1"
     inkscape:current-layer="layer1"
     inkscape:document-rotation="0"
     inkscape:showpageshadow="2"
     inkscape:pagecheckerboard="0"
     inkscape:deskcolor="#d1d1d1">
    <inkscape:grid
       type="xygrid"
       id="grid850"
       originx="0"
       originy="0"
       spacingy="1"
       spacingx="1"
       units="px"
       visible="true" />
  </sodipodi:namedview>
  <defs
     id="defs5455">
    <linearGradient
       inkscape:collect="always"
       xlink:href="#linearGradient836"
       id="linearGradient838"
       x1="6"
       y1="50.000134"
       x2="94.005508"
       y2="50.000134"
       gradientUnits="userSpaceOnUse"
       gradientTransform="matrix(0.9780981,0,0,1,64.329651,974.91306)" />
    <linearGradient
       inkscape:collect="always"
       id="linearGradient836">
      <stop
         style="stop-color:#4b8bd4;stop-opacity:1"
         offset="0"
         id="stop832" />
      <stop
         style="stop-color:#3b6ca7;stop-opacity:1"
         offset="1"
         id="stop834" />
    </linearGradient>
    <linearGradient
       inkscape:collect="always"
       xlink:href="#linearGradient836"
       id="linearGradient2"
       x1="408.57092"
       y1="520.8045"
       x2="425.03156"
       y2="520.8045"
       gradientUnits="userSpaceOnUse" />
  </defs>
  <metadata
     id="metadata5458">
    <rdf:RDF>
      <cc:Work
         rdf:about="">
        <dc:format>image/svg+xml</dc:format>
        <dc:type
           rdf:resource="http://purl.org/dc/dcmitype/StillImage" />
      </cc:Work>
    </rdf:RDF>
  </metadata>
  <g
     inkscape:label="Capa 1"
     inkscape:groupmode="layer"
     id="layer1"
     transform="translate(-384.57143,-483.798)">
    <g
       transform="matrix(0.74255505,0,0,0.74255505,332.50401,-244.93992)"
       id="g4">
      <path
         style="color:#000000;font-style:normal;font-variant:normal;font-weight:normal;font-stretch:normal;font-size:medium;line-height:normal;font-family:Sans;-inkscape-font-specification:Sans;text-indent:0;text-align:start;text-decoration:none;text-decoration-line:none;letter-spacing:normal;word-spacing:normal;text-transform:none;writing-mode:lr-tb;direction:ltr;baseline-shift:baseline;text-anchor:start;display:inline;overflow:visible;visibility:visible;opacity:1;fill:url(#linearGradient838);fill-opacity:1;fill-rule:nonzero;stroke:none;stroke-width:3.95596;marker:none;enable-background:accumulate"
         d="m 77.516136,989.47294 c -3.988712,0 -7.396866,2.85993 -7.396866,6.65625 v 56.01651 c 0,2.3649 0.836461,3.8844 2.460429,5.2631 1.623967,1.3787 3.30936,2.0641 5.459931,2.0641 h 68.3709 c 1.64145,0.029 1.59477,-2.2249 3.9e-4,-2.2488 l -68.465873,-0.04 c -2.115981,0 -3.874159,-1.4929 -3.874159,-1.4929 0,0 -1.620163,-1.2165 -1.620163,-3.5457 v -56.01651 c 0,-2.61614 1.77916,-4.29462 4.886948,-4.26047 l 24.066557,-0.0121 11.47627,10.23088 c 0.34679,0.3129 0.79077,0.759 1.25317,0.769 l 33.37023,-0.012 c 1.7015,-0.01 1.64773,-2.3444 -0.0538,-2.3717 h -32.61346 l -12.1651,-10.53119 c -0.35109,-0.30157 -0.79464,-0.46748 -1.25318,-0.46875 z m 38.818274,2.90625 c -1.55276,-0.004 -1.55586,2.67092 0.0388,2.69371 l 29.7626,-0.0408 c 3.0158,-0.004 4.32232,0.97316 5.32647,1.90993 1.00416,0.93677 2.53008,3.23017 2.53008,5.59337 v 54.9375 c 0.009,1.8591 2.19838,1.9203 2.20491,0.064 l -0.006,-55.0018 c -3.1e-4,-3.21041 -1.04994,-5.89832 -2.9343,-7.65623 -1.88434,-1.75791 -4.44981,-2.5 -7.12177,-2.5 h -29.61804 c -0.0611,-0.003 -0.12228,-0.003 -0.18339,0 z"
         id="path2-3"
         sodipodi:nodetypes="sssssccscsssccccccccsccsssccssscc" />
    </g>
    <path
       style="color:#232629;fill:url(#linearGradient2);fill-opacity:1;stroke:none;stroke-width:0.766658"
       d="m 416.7756,509.798 c -0.38861,0 -0.70677,0.31366 -0.70677,0.70227 v 0.64238 c -1.25225,0.32156 -2.15322,1.43222 -2.15322,2.76715 0,0.93447 0.44614,1.76611 1.1425,2.2895 0.0741,0.0876 0.11978,0.19839 0.11978,0.32194 0,0.0359 4e-5,0.0711 -0.005,0.10481 l -3.09508,6.56001 h -1.28029 c -0.20891,0 -0.38034,0.16844 -0.38034,0.37735 v 0.002 c 0,0.2089 0.17143,0.37734 0.38034,0.37734 h 0.92391 l -2.38974,5.06561 c -0.15051,0.32122 -0.0756,0.69251 0.16021,0.93287 l -0.92097,1.86977 1.45545,-1.57674 c 0.38636,0.10109 0.79959,-0.0831 0.9748,-0.4537 l 2.75517,-5.83828 h 2.42126 v 0.50162 c 0,0.31897 0.25976,0.57649 0.58098,0.57649 h 0.0314 c 0.32122,0 0.58249,-0.25752 0.58249,-0.57649 v -0.50162 h 2.47666 l 2.75368,5.83828 c 0.17297,0.37289 0.58918,0.55479 0.9733,0.4537 l 1.45545,1.57674 -0.91789,-1.87022 c 0.23361,-0.24036 0.30922,-0.6094 0.15872,-0.93287 l -2.38982,-5.06563 h 0.86699 c 0.21115,0 0.38033,-0.16843 0.38033,-0.37734 0,-0.20891 -0.16918,-0.37662 -0.38033,-0.37883 h -1.22336 l -3.09359,-6.56002 c -0.005,-0.0337 -0.005,-0.0689 -0.005,-0.10482 0,-0.1213 0.0449,-0.23433 0.1168,-0.32194 0.69635,-0.52339 1.14549,-1.35503 1.14549,-2.28949 0,-1.3532 -0.94335,-2.47756 -2.21013,-2.78213 v -0.6274 c 0,-0.38861 -0.31441,-0.70227 -0.70526,-0.70227 z m 0.67232,2.59047 c 0.59583,0.25029 1.01373,0.83683 1.01373,1.52133 0,0.912 -0.74111,1.65161 -1.65761,1.65161 -0.92097,0 -1.65759,-0.73961 -1.65759,-1.65161 0,-0.66233 0.39372,-1.22996 0.96132,-1.49288 0.0841,0.29285 0.34466,0.51211 0.66783,0.51211 0.33153,0 0.59745,-0.23251 0.67232,-0.54056 z m -0.65735,5.48489 h 0.0135 0.0135 c 0.0899,0 0.1692,0.0419 0.21863,0.10482 l 2.45719,5.20788 h -2.12029 v -0.60943 c 0,-0.32122 -0.26125,-0.57949 -0.58248,-0.57949 h -0.0314 c -0.32121,0 -0.58098,0.26052 -0.58098,0.57949 v 0.60943 h -2.06488 l 2.45719,-5.20788 c 0.0517,-0.0651 0.13026,-0.10482 0.22011,-0.10482 z"
       class="ColorScheme-Text"
       id="path8133" />
  </g>
</svg>
