<svg xmlns="http://www.w3.org/2000/svg" viewBox="0 0 22 22">
  <defs id="defs3051">
    <style type="text/css" id="current-color-scheme">.ColorScheme-Text {color:#eff0f1;}</style>
  </defs>
    <path 
        style="fill:currentColor;fill-opacity:1;stroke:none" 
        d="m 6,4 v 14 c 0,0 0,2 2,2 2,0 3,0 5,0 2,0 2,-2 2,-2 V 4 C 15,4 15,2 13,2 11,2 10,2 8,2 6,2 6,4 6,4 Z m 1,0 c 0,0 0,-1 1,-1 1,0 4,0 5,0 1,0 1,1 1,1 0,0 0,1 -1,1 C 12,5 9,5 8,5 7,5 7,4 7,4 Z m 0,3 c 0,0 0,-1 1,-1 1,0 4,0 5,0 1,0 1,1 1,1 v 8.5 2.5 c 0,0 0,1 -1,1 -1,0 -4,0 -5,0 -1,0 -1,-1 -1,-1 v -2.5 z m 0,8.5 C 7,15.776142 7.2238576,16 7.5,16 7.7761424,16 8,15.776142 8,15.5 8,15.223858 7.7761424,15 7.5,15 7.2238576,15 7,15.223858 7,15.5 Z m 7,0 C 14,15.223858 13.776142,15 13.5,15 13.223858,15 13,15.223858 13,15.5 13,15.776142 13.223858,16 13.5,16 13.776142,16 14,15.776142 14,15.5 Z M 8.5,13 C 8.2238576,13 8,13.223858 8,13.5 8,13.776142 8.2238576,14 8.5,14 8.7761424,14 9,13.776142 9,13.5 9,13.223858 8.7761424,13 8.5,13 Z m 2,0 C 10.223858,13 10,13.223858 10,13.5 10,13.776142 10.223858,14 10.5,14 10.776142,14 11,13.776142 11,13.5 11,13.223858 10.776142,13 10.5,13 Z m 2,0 C 12.223858,13 12,13.223858 12,13.5 12,13.776142 12.223858,14 12.5,14 12.776142,14 13,13.776142 13,13.5 13,13.223858 12.776142,13 12.5,13 Z m -3,2 C 9.2238576,15 9,15.223858 9,15.5 9,15.776142 9.2238576,16 9.5,16 9.7761424,16 10,15.776142 10,15.5 10,15.223858 9.7761424,15 9.5,15 Z m 2,0 C 11.223858,15 11,15.223858 11,15.5 11,15.776142 11.223858,16 11.5,16 11.776142,16 12,15.776142 12,15.5 12,15.223858 11.776142,15 11.5,15 Z m -3,2 C 8.2238576,17 8,17.223858 8,17.5 8,17.776142 8.2238576,18 8.5,18 8.7761424,18 9,17.776142 9,17.5 9,17.223858 8.7761424,17 8.5,17 Z m 2,0 C 10.223858,17 10,17.223858 10,17.5 10,17.776142 10.223858,18 10.5,18 10.776142,18 11,17.776142 11,17.5 11,17.223858 10.776142,17 10.5,17 Z m 2,0 C 12.223858,17 12,17.223858 12,17.5 12,17.776142 12.223858,18 12.5,18 12.776142,18 13,17.776142 13,17.5 13,17.223858 12.776142,17 12.5,17 Z"
        class="ColorScheme-Text"/>
</svg>
