<svg xmlns="http://www.w3.org/2000/svg" viewBox="0 0 16 16">
  <defs id="defs3051">
    <style type="text/css" id="current-color-scheme">.ColorScheme-Text {color:#fcfcfc;}</style>
  </defs>
    <path
     style="fill:currentColor"
     d="m 2,3.625 v 8.76029 C 2,13.513889 2.5,14 3.6428442,14 H 12.282796 C 13.486111,14 14,13.513889 14,12.382104 V 3.6365091 C 14,2.489159 13.486111,2 12.272609,2 H 3.6388889 C 2.5,2 2,2.489159 2,3.625 Z M 4.2854688,3 H 7 V 4 H 8 V 3 h 3.674994 C 12.997685,3 13,3.0346328 13,4.2719403 c 0,0 0,5.154223 0,7.5298867 C 13,12.997989 13.025079,13 11.651159,13 10.277239,13 4.2791507,13 4.2791507,13 3.0081889,13 3,12.990926 3,11.810175 V 4.2504122 C 3,3.0314988 3.0062565,3 4.2854688,3 Z M 8,4 V 5 H 9 V 4 Z M 8,5 H 7 V 6 H 8 Z M 8,6 V 7 H 9 V 6 Z M 8,7 H 7 V 8 H 8 Z M 8,8 V 9 H 7 v 1 H 9 V 8 Z"
     class="ColorScheme-Text"
     id="path1" />
</svg>
