<svg xmlns="http://www.w3.org/2000/svg" viewBox="0 0 16 16">
  <defs id="defs3051">
    <style type="text/css" id="current-color-scheme">.ColorScheme-Text {color:#fcfcfc;}</style>
  </defs>
    <path 
        style="fill:currentColor"
        d="m 2,4 c 0,2 0,6 0,8 0,2 2,2 2,2 H 9 V 13 H 4 C 4,13 3,13 3,12 3,11 3,10 3,9 3,8 4.0234582,8 4.0234582,8 H 5 L 7,6 c 0,0 4,0 5,0 1,0 1,1 1,1 v 2 h 1 V 6 C 14,6 14,4 12,4 10,4 9,4 9,4 L 7,2 V 2 2 H 4 C 4,2 2,2 2,4 Z m 9,5 v 2 H 9 v 1 h 2 v 2 h 1 v -2 h 2 V 11 H 12 V 9 Z"
        class="ColorScheme-Text"
    />
</svg>
