<?xml version="1.0" encoding="UTF-8" standalone="no"?>
<svg
   viewBox="0 0 16 16"
   version="1.1"
   id="svg6"
   xmlns="http://www.w3.org/2000/svg"
   xmlns:svg="http://www.w3.org/2000/svg"
   xmlns:rdf="http://www.w3.org/1999/02/22-rdf-syntax-ns#"
   xmlns:cc="http://creativecommons.org/ns#"
   xmlns:dc="http://purl.org/dc/elements/1.1/">
  <metadata
     id="metadata10">
    <rdf:RDF>
      <cc:Work
         rdf:about="">
        <dc:format>image/svg+xml</dc:format>
        <dc:type
           rdf:resource="http://purl.org/dc/dcmitype/StillImage" />
      </cc:Work>
    </rdf:RDF>
  </metadata>
  <defs
     id="defs3051">
    <style
       type="text/css"
       id="current-color-scheme">.ColorScheme-Text { color:#eff0f1; }
</style>
  </defs>
  <path
     d="m 4.978904,5.4335944 c 0.030494,0.1804683 0.1874994,0.3164074 0.3749987,0.3164074 h 0.3867178 c 0.2296901,0 0.4124997,-0.1992202 0.3820334,-0.4218765 C 6.0335955,4.6671871 5.7382811,4.0578141 5.2648397,3.5773445 4.9273428,3.2328138 4.7117138,2.7968742 4.6460923,2.3234393 4.6203251,2.1382803 4.4609333,2 4.2687487,2 H 3.8843714 C 3.6546859,2 3.4765615,2.1992202 3.5023425,2.4218757 3.5937563,3.1695318 3.9242173,3.8585948 4.4539033,4.3999998 4.7351536,4.6859382 4.9156238,5.0445308 4.978904,5.4335944 Z m 2.6249994,0 c 0.030481,0.1804683 0.1875009,0.3164074 0.3750009,0.3164074 h 0.3867178 c 0.2296879,0 0.4125014,-0.1992202 0.382032,-0.4218765 C 8.6585958,4.6671871 8.3632788,4.0578141 7.889843,3.5773445 7.552342,3.2328138 7.3367149,2.7968742 7.2710933,2.3234393 7.2453263,2.1382803 7.0859345,2 6.8937509,2 H 6.5093717 c -0.2296848,0 -0.410154,0.1992202 -0.3820271,0.4218757 0.091395,0.7476561 0.4218729,1.4367191 0.9515598,1.9781241 0.281251,0.2859384 0.4617191,0.644531 0.524999,1.0335946 z M 11.375001,6.500001 H 2.7499966 C 2.3351519,6.500001 2,6.8351566 2,7.2500008 V 11.750001 C 2,12.992189 3.0078107,14 4.2499988,14 H 8.7499981 C 9.992186,14 11,12.992189 11,11.750001 h 0.375001 C 12.823437,11.750001 14,10.573439 14,9.1250007 14,7.6765636 12.823437,6.500001 11.375001,6.500001 Z m 0,3.75 H 11 V 8.0000005 h 0.375001 c 0.621091,0 1.124998,0.5039047 1.124998,1.1250002 0,0.6210927 -0.503907,1.1250003 -1.124998,1.1250003 z"
     id="path70"
     style="color:#eff0f1;fill:currentColor;fill-opacity:1;stroke-width:0.0220582"
     class="ColorScheme-Text" />
</svg>
