<svg xmlns="http://www.w3.org/2000/svg" viewBox="0 0 16 16">
  <defs id="defs3051">
    <style type="text/css" id="current-color-scheme">.ColorScheme-Text {color:#fcfcfc;}</style>
  </defs>
  <path
     style="fill:currentColor"
     d="M 7.5883855,2.0003128 C 6.5712203,2.0281753 5.5747516,2.4929693 4.898183,3.2602506 3.7060863,4.5506131 3.6108783,6.6868164 4.6754874,8.0833744 5.6174836,8.2273158 6.4436354,8.92529 6.7587839,9.8302232 7.2282258,11.055525 6.638051,12.560938 5.4661267,13.133982 4.3215524,13.761585 2.7632537,13.366424 2.0495487,12.267692 2.0327789,12.24318 2.0164056,12.218428 2,12.193678 2.5326964,13.06807 3.430452,13.705669 4.4278001,13.912666 6.132374,14.308305 8.0150936,13.323255 8.6826606,11.695534 8.3353245,10.801194 8.5219269,9.7309809 9.1417144,9.0034136 9.959459,7.9809738 11.547838,7.7433362 12.62606,8.4800168 c 1.111424,0.6853356 1.551114,2.2434232 0.963976,3.4159442 -0.01273,0.02693 -0.02567,0.05366 -0.03879,0.08042 C 14.036154,11.074193 14.13496,9.9716518 13.814071,8.9971463 13.301816,7.3111878 11.514225,6.1599948 9.782219,6.3911527 9.5314634,6.7075578 9.2062137,6.956388 8.8439798,7.1254555 c -0.012594,0.00589 -0.025205,0.011789 -0.037921,0.017687 -0.00299,0.00153 -0.00574,0.00241 -0.00838,0.00387 -0.1842785,0.082694 -0.3796103,0.1448857 -0.583086,0.1838545 -0.00205,3.573e-4 -0.00386,9.976e-4 -0.00614,9.976e-4 -0.019549,0.00387 -0.039186,0.00728 -0.058905,0.010281 -0.3002685,0.050931 -0.608948,0.05103 -0.909616,-0.00589 C 6.7468479,7.2585424 6.2965374,7.0242274 5.9334241,6.6915497 5.9172006,6.6768615 5.901305,6.6617683 5.8854211,6.6467045 5.8771191,6.6386767 5.8687585,6.6308367 5.8605794,6.6227326 5.6414933,6.4095561 5.458546,6.1591298 5.3218718,5.8812306 c -0.013647,-0.027311 -0.026768,-0.05488 -0.039531,-0.082644 -5.082e-4,-0.00153 -0.00152,-0.00299 -0.00205,-0.00452 C 5.1046129,5.4097925 5.0173978,4.9852266 5.0481147,4.5558799 5.060597,4.0625865 5.2262721,3.5905111 5.4972002,3.1893995 5.6528087,2.9559794 5.8440808,2.7490105 6.0626195,2.575227 c 0.00299,-0.00241 0.00594,-0.00499 0.00884,-0.00702 0.023202,-0.018274 0.046545,-0.036354 0.070354,-0.053853 0.022956,-0.017159 0.046293,-0.033696 0.069793,-0.050056 0.00445,-0.00299 0.00896,-0.0064 0.013513,-0.0094 0.3753206,-0.2585298 0.813617,-0.4223494 1.2752382,-0.4485019 2.87e-5,-4.7e-6 9.25e-5,6.5e-6 1.212e-4,0 0.00875,-5.088e-4 0.017541,-0.00135 0.02637,-0.00188 0.020521,-0.00153 0.041036,-0.00299 0.061545,-0.00452 z"
     class="ColorScheme-Text"
     id="path1" />
</svg>
