<svg xmlns="http://www.w3.org/2000/svg" viewBox="0 0 16 16" id="svg6"><defs id="defs3051">
    <style type="text/css" id="current-color-scheme">.ColorScheme-Text { color: #fcfcfc; } </style>
  </defs>
  <path
     d="M 5.4285714,2.75 V 6.5 h 0.8571429 c 0,0 0,-3.107142 0,-3.428571 C 6.2857143,2.75 6.7142856,2.75 6.7142856,2.75 h 2.5495927 c 0,0 0.4504074,0 0.4504074,0.321429 0,0.321429 0,3.428571 0,3.428571 H 10.571429 V 2.75 c 0,0 0,-0.75 -0.8571433,-0.75 H 6.2857143 C 5.4285714,2 5.4285714,2.75 5.4285714,2.75 Z M 3.5368304,7.25 2.8571429,7.8623045 8,12.5 13.142857,7.8623045 12.463169,7.25 8,11.275391 Z M 2,12.5 v 0.75 C 2,13.682334 2.3839895,14 2.8571429,14 H 13.142857 C 13.601589,14 14,13.685309 14,13.25 V 12.5 h -0.857143 c 0,0.389842 -0.286687,0.75 -0.744146,0.75 H 3.7418434 c -0.5443036,0 -0.8847005,-0.269423 -0.8847005,-0.75 z"
     id="rect4161" fill="currentColor" class="ColorScheme-Text" />
</svg>
