<svg viewBox="0 0 16 16" xmlns="http://www.w3.org/2000/svg">
    <style type="text/css" id="current-color-scheme">.ColorScheme-Text {color:#fcfcfc;}</style>
  <path
     id="path2"
     class="ColorScheme-Text" fill="currentColor"
     d="M 4.25,2 C 3.0035013,2 2,3.0035013 2,4.25 v 7.5 C 2,12.996499 3.0035013,14 4.25,14 h 7.5 C 12.996499,14 14,12.996499 14,11.75 V 4.25 C 14,3.0035013 12.996499,2 11.75,2 Z m 0,0.75 h 7.5 c 0.830999,0 1.5,0.6690008 1.5,1.5 V 9.661133 H 11.375 L 11.130371,8.7529295 10.15918,5.1567383 9.713867,3.5 9.2700192,5.1567383 8.7646483,7.0449219 8.3325192,5.4365234 8.2578125,5.1567383 7.8154295,3.5058594 6.8969727,6.9379883 6.2949219,9.1850585 5.5258789,6.3505859 5,4.4111328 H 2.75 V 4.25 c 0,-0.8309992 0.6690008,-1.5 1.5,-1.5 z m -1.5,2.4111328 h 1.5 L 4.4565429,5.8920898 5.8496094,10.835938 6.2919922,12.489746 6.7358398,10.835938 7.6894535,7.2778317 7.8139647,6.8105469 7.9721683,7.3994142 8.3208005,8.7001955 8.7646483,10.356934 9.208496,8.7001955 9.3930665,8.0087893 9.713867,6.8120117 10.093262,8.307617 10.625,10.411133 H 13.25 V 11.75 c 0,0.830999 -0.669001,1.5 -1.5,1.5 h -7.5 c -0.8309992,0 -1.5,-0.669001 -1.5,-1.5 z" />
</svg>
