<svg xmlns="http://www.w3.org/2000/svg" viewBox="0 0 16 16">
  <defs id="defs3051">
     <style type="text/css" id="current-color-scheme">.ColorScheme-Text { color: #fcfcfc; } </style>
  </defs>
    <path 
        style="fill:currentColor"
        d="m 6,7 v 4 L 10,9 Z M 4,2 C 2.892,2 2,2.892 2,4 v 8 c 0,1.108 0.892,2 2,2 h 8 c 1.108,0 2,-0.892 2,-2 V 4 C 14,2.892 13.108,2 12,2 Z m 0,3 h 8 c 0.554,0 1,0.446 1,1 v 6 c 0,0.456911 -0.383925,0.9375 -1,0.9375 H 4 C 3.3525635,12.9375 3,12.468666 3,12 V 6 C 3,5.446 3.446,5 4,5 Z"
        class="ColorScheme-Text"
    />
</svg>
