<svg xmlns="http://www.w3.org/2000/svg" viewBox="0 0 16 16">
  <defs id="defs3051">
  </defs>
    <path
     style="fill:#eb0a42"
     d="m 2,4 v 8 c 0,1 0.8995922,2 1.915,2 H 12.08 C 13.099532,14 14,13 14,12 V 4 C 14,3 13.199939,2 12.186,2 H 3.8 C 2.7774573,2 2,3 2,4 Z M 3,4.7 C 3,2.7 4,3 4.982625,3 h 6.026091 C 12,3 13,2.7 13,4.7 v 6.6 c 0,2 -1,1.7 -2,1.7 H 4.9422204 C 4,13 3,13.2 3,11.2 Z M 4,5 V 7 H 6 V 5 Z m 6,0 v 2 h 2 V 5 Z M 6,9 v 1 h 4 V 9 Z m 4,1 v 1 h 1 v -1 z m 1,1 v 1 h 1 V 11 Z M 6,10 H 5 v 1 H 6 Z M 5,11 H 4 v 1 h 1 z"/>
</svg>
