<svg xmlns="http://www.w3.org/2000/svg" viewBox="0 0 16 16">
  <defs id="defs3051">
    <style type="text/css" id="current-color-scheme">.ColorScheme-Text {color:#fcfcfc;}</style>
  </defs>
    <path
       style="fill:currentColor"
       d="M 3.6992188,2 C 3.2486727,2.0028 2.816075,2.1822573 2.4980469,2.5 2.17989,2.8177387 2.001379,3.2486211 2,3.6972656 v 2.265625 h 0.5097656 c 0.4266461,0 0.821892,0.2258874 1.0351563,0.59375 0.2133757,0.3677436 0.2133757,0.8216981 0,1.1894532 -0.2132643,0.367839 -0.6085102,0.59375 -1.0351563,0.59375 H 2 v 2.2656252 c 0.0028,0.448629 0.182893,0.878382 0.5019531,1.195312 0.3190942,0.316988 0.7523845,0.49432 1.203125,0.496094 h 2.2753907 v 0.507813 c 0,0.424749 0.226209,0.818825 0.5957031,1.03125 0.3693966,0.212321 0.8259164,0.212321 1.1953125,0 0.3694806,-0.212425 0.5957031,-0.606501 0.5957031,-1.03125 v -0.507813 h 2.2773435 c 0.4508,-0.0028 0.880971,-0.182154 1.199219,-0.5 0.318303,-0.31793 0.498323,-0.74846 0.5,-1.197266 V 8.3339844 h 0.463834 c 0.42665,0 0.821785,-0.2258749 1.035156,-0.59375 0.213269,-0.3677566 0.213269,-0.8216151 0,-1.1894532 -0.213362,-0.3677565 -0.608506,-0.59375 -1.035156,-0.59375 v 0.00195 H 12.34375 V 3.6933594 C 12.3419,3.2441654 12.16124,2.81523 11.841797,2.4980469 11.522347,2.1807787 11.089855,2.001373 10.638672,2 H 8.3632812 v 0.5078125 c 0,0.4247465 -0.2281486,0.8169801 -0.5976562,1.0292969 -0.3693966,0.2124287 -0.8238688,0.2124287 -1.1933594,0 C 6.202869,3.3247926 5.9746094,2.932559 5.9746094,2.5078125 V 2 Z"
       class="ColorScheme-Text" />
</svg>
