<svg xmlns="http://www.w3.org/2000/svg" viewBox="0 0 16 16">
  <defs id="defs3051">
    <style type="text/css" id="current-color-scheme">.ColorScheme-Text {color:#fcfcfc;}</style>
  </defs>
  <path
     id="path1"
     style="fill:currentColor"
     class="ColorScheme-Text"
     d="M 4 2 C 2.8920011 2 2 2.8920011 2 4 L 2 12 C 2 13.107999 2.8920011 14 4 14 L 12 14 C 13.107999 14 14 13.107999 14 12 L 14 4 C 14 2.8920011 13.107999 2 12 2 L 4 2 z M 4 3 L 12 3 C 12.553999 3 13 3.4460006 13 4 L 13 11.021484 L 3 11.021484 L 3 4 C 3 3.4460006 3.4460006 3 4 3 z M 5 4 L 5 6 L 7 6 L 7 4 L 5 4 z M 9 4 L 9 6 L 11 6 L 11 4 L 9 4 z M 5 8 L 5 10 L 7 10 L 7 8 L 5 8 z M 9 8 L 9 10 L 11 10 L 11 8 L 9 8 z M 3 12 C 3 12.007161 3.0017887 12.014325 3.0019531 12.021484 L 13 12.021484 C 12.98825 12.471877 12.606468 12.9375 12 12.9375 L 4 12.9375 C 3.3624573 12.9375 3.0125499 12.482886 3.0019531 12.021484 L 3 12.021484 L 3 12 z " />
</svg>
