<?xml version="1.0" encoding="UTF-8" standalone="no"?>
<svg
   viewBox="0 0 22 22"
   version="1.1"
   id="svg1"
   sodipodi:docname="folder-activities.svg"
   width="22"
   height="22"
   inkscape:version="1.3.2 (091e20ef0f, 2023-11-25)"
   xmlns:inkscape="http://www.inkscape.org/namespaces/inkscape"
   xmlns:sodipodi="http://sodipodi.sourceforge.net/DTD/sodipodi-0.dtd"
   xmlns:xlink="http://www.w3.org/1999/xlink"
   xmlns="http://www.w3.org/2000/svg"
   xmlns:svg="http://www.w3.org/2000/svg">
  <sodipodi:namedview
     id="namedview1"
     pagecolor="#ffffff"
     bordercolor="#999999"
     borderopacity="1"
     inkscape:showpageshadow="2"
     inkscape:pageopacity="0"
     inkscape:pagecheckerboard="0"
     inkscape:deskcolor="#d1d1d1"
     inkscape:zoom="12.046875"
     inkscape:cx="10.376135"
     inkscape:cy="7.3463035"
     inkscape:window-width="1920"
     inkscape:window-height="1003"
     inkscape:window-x="0"
     inkscape:window-y="0"
     inkscape:window-maximized="1"
     inkscape:current-layer="svg1" />
  <defs
     id="defs3051">
    <style
       type="text/css"
       id="current-color-scheme">.ColorScheme-Text {color:#fcfcfc;}</style>
    <linearGradient
       inkscape:collect="always"
       xlink:href="#linearGradient845"
       id="linearGradient855"
       x1="-6.559144"
       y1="-11.329442"
       x2="7.5942554"
       y2="-11.993515"
       gradientUnits="userSpaceOnUse"
       gradientTransform="rotate(90,-4.940291,5)" />
    <linearGradient
       inkscape:collect="always"
       id="linearGradient845">
      <stop
         style="stop-color:#d3dae3;stop-opacity:1"
         offset="0"
         id="stop841" />
      <stop
         style="stop-color:#335c8f;stop-opacity:1"
         offset="1"
         id="stop843" />
    </linearGradient>
  </defs>
  <g
     id="22-22-start-here-kde">
    <rect
       id="rect2"
       style="opacity:0.00100002"
       width="22"
       height="22"
       x="0"
       y="0" />
    <path
       d="m 14.216981,15.101509 c 0,1.68798 -1.368387,3.0582 -3.058198,3.0582 -1.6879799,0 -3.0581969,-1.368382 -3.0581969,-3.0582 0,-1.689817 1.368372,-3.0582 3.0581969,-3.0582 1.689811,0 3.058198,1.368383 3.058198,3.0582 z M 9.3679421,9.3910393 C 8.8407941,8.2963317 7.2777101,7.9546917 5.8799391,8.6287851 c -1.397759,0.674084 -2.10492,2.1085939 -1.57593,3.2033019 0.527143,1.0947 2.090227,1.43634 3.488003,0.762247 1.397766,-0.672247 2.104922,-2.106758 1.57593,-3.2032947 z M 16.707617,9.2165445 c -1.261851,-0.9055196 -2.857998,-0.8393994 -3.566978,0.1487777 -0.708994,0.9881768 -0.262661,2.5218668 0.999189,3.4273868 1.261862,0.90552 2.85799,0.839393 3.566989,-0.148777 0.708988,-0.98634 0.260819,-2.52003 -0.9992,-3.4273875 z M 5.7072911,6.668967 c -0.339808,-0.4408276 -1.408792,-0.18735 -2.387789,0.567555 -0.978986,0.7549049 -1.495115,1.724715 -1.155311,2.1673729 0.339799,0.4408202 1.408789,0.1873502 2.387773,-0.567563 0.978999,-0.7567429 1.49513,-1.726545 1.155327,-2.1673649 z m 3.609218,-1.8569621 c -0.145092,-0.433478 -1.09654,-0.5051099 -2.12329,-0.159796 -1.028575,0.3434706 -1.74492,0.973478 -1.599809,1.4069555 0.1451,0.4334706 1.096538,0.5051026 2.123291,0.159795 1.028586,-0.3453075 1.744917,-0.9753144 1.599808,-1.4069545 z m 0.341635,-0.655726 c 0,0.17082 0.6300089,0.304906 1.4051189,0.30123 0.775113,-0.0038 1.401443,-0.1451022 1.401443,-0.3159223 0,-0.17082 -0.630008,-0.3048977 -1.405108,-0.3012217 -0.775109,0.0052 -1.4014539,0.1451023 -1.4014539,0.315914 z M 12.578594,4.931397 c -0.117552,0.44082 0.637357,1.0249053 1.686138,1.302255 1.048788,0.2773495 1.992882,0.1451025 2.108603,-0.2957176 0.11755,-0.4408199 -0.637361,-1.0230749 -1.686151,-1.3022548 -1.04695,-0.2773507 -1.992871,-0.1451107 -2.10859,0.2957174 z m 5.216387,4.108815 c 0.874296,0.8577671 1.84226,1.28757 2.161858,0.96063 0.319596,-0.3251097 -0.13041,-1.2857327 -1.004712,-2.141663 -0.874296,-0.8577596 -1.84226,-1.287562 -2.161849,-0.960622 -0.319606,0.3251101 0.130401,1.2838953 1.004703,2.141655 z M 8.6864991,7.2310094 c -0.03495,0.8706229 1.041448,1.6218597 2.4079949,1.6787998 1.364706,0.05513 2.501663,-0.6042975 2.536559,-1.4749201 C 13.666013,6.564267 12.589618,5.813037 11.223058,5.7560969 9.8583521,5.6991679 8.7232381,6.360387 8.6864991,7.2310094 Z"
       id="path4-6"
       style="fill:url(#linearGradient855);fill-opacity:1;stroke-width:0.0183684" />
  </g>
</svg>
