<?xml version="1.0" encoding="UTF-8" standalone="no"?>
<svg
   viewBox="0 0 16 16"
   version="1.1"
   id="svg6"
   xmlns="http://www.w3.org/2000/svg"
   xmlns:svg="http://www.w3.org/2000/svg">
  <defs
     id="defs3051">
    <style
       type="text/css"
       id="current-color-scheme">
      .ColorScheme-Text {
        color:#eff0f1
      }
      </style>
  </defs>
  <path
     style="fill:currentColor;fill-opacity:1;stroke:none"
     d="m 11.757979,2.0468558 c -0.05262,-5.967e-4 -0.106594,0.014724 -0.15749,0.048976 -0.02718,0.019907 -0.145244,0.1693992 -0.261256,0.3327279 L 11.12802,2.7286354 11.05148,2.6734364 c -0.107117,-0.074619 -0.210475,-0.091121 -0.306885,-0.045089 -0.06663,0.031693 -0.222795,0.2446613 -1.2474055,1.683846 -0.6466242,0.9073 -1.1724296,1.6567186 -1.1708682,1.6682998 0.00133,0.00966 0.2638506,0.2262388 0.5813866,0.4781005 L 9.4883606,6.9195916 10.252259,5.8444482 c 0.420436,-0.5914851 0.770232,-1.0701326 0.778617,-1.0634821 0.02721,0.021492 0.07672,0.4858273 0.06697,0.6351351 -0.0039,0.081445 -0.03275,0.2278012 -0.06255,0.324953 -0.05316,0.1736076 -0.05895,0.1837824 -1.006019,1.5205933 -0.5237897,0.7390416 -0.95991,1.3667353 -0.9677529,1.3915442 -0.022495,0.068413 0.00243,0.1963813 0.051512,0.2697584 0.081926,0.1237123 0.2845657,0.1628137 0.399611,0.074628 C 9.5921241,8.9363211 11.467982,6.2688895 11.527632,6.1297524 11.701871,5.7329787 11.737949,5.224897 11.627719,4.7249911 11.584169,4.5265713 11.527216,4.3358412 11.4717,4.2002464 c -0.01617,-0.037017 0.01073,-0.084391 0.186191,-0.3335037 0.165795,-0.2377984 0.20381,-0.3045761 0.206796,-0.3661549 0.0066,-0.1310562 -0.03135,-0.204005 -0.153073,-0.3039639 L 11.59828,3.1033369 11.823476,2.7838262 c 0.1846,-0.264255 0.224512,-0.3333543 0.227403,-0.3949191 0.0083,-0.1962822 -0.135051,-0.3402732 -0.292901,-0.3420559 z M 7.964244,6.4780325 C 7.9586117,6.4788579 7.2697158,7.4459474 6.432032,8.6244318 5.0847206,10.522158 4.8930878,10.803057 4.768824,11.044477 4.5219472,11.525113 4.2532935,12.257874 4.0748403,12.927336 3.959158,13.356711 3.9533536,13.317855 4.1145796,13.226635 4.6118755,12.942914 5.2614794,12.482344 5.6394336,12.143718 6.0090081,11.812209 6.0719339,11.727922 7.637491,9.5254378 L 9.1432091,7.4046927 8.5581425,6.940585 C 8.2363601,6.6853552 7.9697747,6.4772014 7.9642456,6.4780325 Z M 6.4854329,13.081378 c -0.6450089,0.06994 -2.4131694,0.220831 -2.473833,0.280136 -0.1190616,0.116225 0.048094,0.692839 0.2169081,0.640698 0.04484,-0.01436 1.2186356,-0.215109 2.0416659,-0.288113 0.1846316,-0.03344 2.2518965,-0.237718 2.4276654,-0.259902 0,0 3.0263577,-0.328123 2.9514847,-0.401176 -0.357788,-0.349098 -5.1638911,0.02836 -5.1638911,0.02836 z"
     id="path5"
     class="ColorScheme-Text"
     />
</svg>
