<svg xmlns="http://www.w3.org/2000/svg" viewBox="0 0 16 16">
  <defs id="defs3051">
    <style type="text/css" id="current-color-scheme">.ColorScheme-Text {color:#fcfcfc;}</style>
  </defs>
  <path style="fill:currentColor"
    d="m 3,2 v 1 3 c 0,0 -1,0 -1,1 0,1 0,3 0,4 0,1 1,1 1,1 h 2 v 1 1 h 6 v -1 -1 h 2 c 0,0 1,0 1,-1 0,-1 0,-3 0,-4 C 14,6 13,6 13,6 V 3 2 Z m 1,1 h 8 V 6 H 11 V 5 H 5 V 6 H 4 Z m 1,0 v 1 h 6 V 3 Z M 3,8 C 3,7 4,7 4,7 h 8 c 0,0 1,0 1,1 0,1 0,1 0,2 0,1 -1,1 -1,1 V 10 H 4 v 1 C 4,11 3,11 3,10 3,9 3,9 3,8 Z m 7,0 v 1 h 2 V 8 Z m -4,4 h 4 v 1 H 6 Z"
    class="ColorScheme-Text"
    />
</svg>
