<?xml version="1.0" encoding="UTF-8" standalone="no"?>
<svg
   viewBox="0 0 22 22"
   version="1.1"
   id="svg6"
   sodipodi:docname="folder-Projects.svg"
   inkscape:version="1.3.2 (091e20ef0f, 2023-11-25)"
   xmlns:inkscape="http://www.inkscape.org/namespaces/inkscape"
   xmlns:sodipodi="http://sodipodi.sourceforge.net/DTD/sodipodi-0.dtd"
   xmlns="http://www.w3.org/2000/svg"
   xmlns:svg="http://www.w3.org/2000/svg">
  <sodipodi:namedview
     id="namedview8"
     pagecolor="#ffffff"
     bordercolor="#666666"
     borderopacity="1.0"
     inkscape:pageshadow="2"
     inkscape:pageopacity="0.0"
     inkscape:pagecheckerboard="0"
     showgrid="false"
     inkscape:zoom="28.545455"
     inkscape:cx="11"
     inkscape:cy="11.38535"
     inkscape:window-width="1920"
     inkscape:window-height="996"
     inkscape:window-x="0"
     inkscape:window-y="0"
     inkscape:window-maximized="1"
     inkscape:current-layer="svg6"
     inkscape:showpageshadow="2"
     inkscape:deskcolor="#d1d1d1">
    <inkscape:grid
       id="grid1"
       units="px"
       originx="0"
       originy="0"
       spacingx="1"
       spacingy="1"
       empcolor="#0099e5"
       empopacity="0.30196078"
       color="#0099e5"
       opacity="0.14902"
       empspacing="5"
       dotted="false"
       gridanglex="30"
       gridanglez="30"
       visible="false" />
  </sodipodi:namedview>
  <defs
     id="defs3051">
    <style
       type="text/css"
       id="current-color-scheme">
      .ColorScheme-Text {
        color:#232629
      }
      </style>
  </defs>
  <path
     d="m 16.584127,12.687698 c -0.112243,-0.34203 -0.283196,-0.662889 -0.513967,-0.962561 -0.230632,-0.299343 -0.517338,-0.565216 -0.859963,-0.797532 -0.343009,-0.232069 -0.744694,-0.415351 -1.205822,-0.55 C 13.819197,10.328938 13.494453,10.252378 13.066274,10.14841 12.76005,10.07433 12.473281,9.998389 12.149862,9.9210294 V 6.1452098 c 0.323641,0.085595 0.548083,0.2214856 0.78795,0.3724928 0.513173,0.3228359 0.834916,0.875174 0.929149,1.6251709 h 2.485978 C 16.325788,7.5000182 16.185743,6.9728777 15.921877,6.4993073 15.632129,5.9799211 15.239912,5.5341726 14.745634,5.1794506 14.251499,4.8251038 13.659414,4.5548131 13.007078,4.3774924 12.724077,4.3005702 12.47339,4.235891 12.149982,4.1923507 V 3 H 9.8499643 V 4.1845284 C 9.598087,4.2219293 9.305559,4.2718751 9.0440324,4.3363172 8.4243613,4.4892684 7.8800895,4.7244541 7.3926767,5.0421724 6.9049183,5.3601698 6.5175082,5.7604644 6.2209211,6.2431393 5.9244331,6.7261015 5.7785765,7.2974225 5.7785765,7.9574154 c 0,0.3423311 0.050647,0.6783219 0.1492268,1.008392 0.099041,0.3300272 0.2672801,0.6416793 0.5046666,0.935041 0.2372752,0.2933896 0.5568632,0.5592106 0.9590645,0.7975736 0.4019027,0.238308 0.88784,0.430851 1.4941057,0.57753 0.3335607,0.08374 0.6766907,0.161924 0.9642166,0.234862 v 4.270917 C 9.4546495,15.677476 9.0632759,15.517491 8.7474272,15.300331 8.4177514,15.07437 8.1700339,14.802016 7.9856066,14.447338 7.8138172,14.117725 7.7313869,13.714261 7.7195903,13.285698 H 5.2500002 c 0.029023,0.749994 0.1886871,1.410491 0.4913769,1.977523 0.3161019,0.593001 0.737893,1.070002 1.2651069,1.448639 0.5269524,0.379036 1.1281903,0.655568 1.8399582,0.838968 0.3191902,0.08225 0.6801022,0.141419 1.0035947,0.186817 V 19 H 12.15002 v -1.233548 c 0.359451,-0.03819 0.681225,-0.09609 1.025171,-0.174259 0.672089,-0.152601 1.280985,-0.394135 1.808269,-0.724141 0.5269,-0.330019 0.95666,-0.754567 1.279776,-1.274313 C 16.586032,15.074411 16.75,14.447845 16.75,13.71449 c 4.9e-5,-0.342072 -0.05367,-0.684424 -0.165986,-1.026747 z M 9.849899,9.3463827 C 9.4186951,9.2126891 8.9905621,9.0218217 8.6980577,8.7732465 8.3884635,8.510563 8.2426529,8.1470252 8.2426529,7.6823488 c 0,-0.3300277 0.086966,-0.6049984 0.2520668,-0.8250679 C 8.6594874,6.6372741 8.8508424,6.4630776 9.1013219,6.334749 9.3233827,6.2208309 9.598742,6.1360183 9.8502582,6.0798432 Z m 4.273011,5.3489863 c -0.105969,0.238338 -0.276922,0.44914 -0.514017,0.632534 -0.237223,0.183332 -0.565768,0.333147 -0.94788,0.449172 -0.16149,0.04926 -0.29532,0.08727 -0.511151,0.115553 v -3.825323 c 0.359449,0.0937 0.653321,0.19041 0.946051,0.290386 0.289428,0.098 0.56595,0.265797 0.809943,0.504134 0.244007,0.238403 0.370307,0.608219 0.370307,1.109282 2.7e-5,0.24462 -0.04788,0.485888 -0.153681,0.724255 z"
     id="path25907-1-5-7"
     style="fill:#f4f4f4;stroke-width:0.0358245;fill-opacity:1" />
</svg>
