<?xml version="1.0" encoding="UTF-8" standalone="no"?>
<svg
   viewBox="0 0 16 16"
   id="svg6"
   version="1.1"
   xmlns="http://www.w3.org/2000/svg"
   xmlns:svg="http://www.w3.org/2000/svg">
  <defs
     id="defs3051">
    <style
       id="current-color-scheme" />
  </defs>
  <path
     style="fill:#da4453;fill-opacity:1;stroke-width:0.752443"
     d="m 2,4 c 0,2 0,6 0,8 0,2 2,2 2,2 l 8,0 c 0,0 2,0 2,-2 0,-2 0,-4 0,-6 C 14,4 12,4 12,4 H 9 L 7,2 V 2 2 H 4 C 4,2 2,2 2,4 Z m 5,2 h 5 c 0,0 1,0 1,1 0,1 0,4 0,5 0,1 -1,1 -1,1 H 4 C 4,13 3,13 3,12 3,11 3.0099758,10 3,9 2.9900242,8 4,8 4,8 h 1 z"
     id="path1-5" />
</svg>
