<svg xmlns="http://www.w3.org/2000/svg" viewBox="0 0 16 16">
  <defs id="defs3051">
    <style type="text/css" id="current-color-scheme">.ColorScheme-Text {color:#fcfcfc;}</style>
  </defs>
    <path 
        style="fill:currentColor" 
        d="m 3,2 v 1 3 c 0,0 -2,0 -2,2 0,2 0,4 0,4 0,0 0,2 2,2 2,0 8,0 10,0 2,0 2,-2 2,-2 0,0 0,-2 0,-4 C 15,6 13,6 13,6 V 5.6 5.6 3 2 Z m 1,1 h 8 V 6.6 L 11.6,7 V 7 L 8,10.6 4.4,7 4,6.6 Z m 1,1 v 1 h 6 V 4 Z m 0,2 v 1 h 6 V 6 Z M 2,8 C 2,7 3,7 3,7 L 5,9 5.7,9.7 8,12 10.3,9.7 11,9 13,7 v 0 c 0,0 1,0 1,1 0,1 0,4 0,4 0,0 0,1 -1,1 C 12,13 4,13 3,13 2,13 2,12 2,12 2,12 2,9 2,8 Z"
          class="ColorScheme-Text"/>
</svg>
