<?xml version="1.0" encoding="UTF-8" standalone="no"?>
<svg
   viewBox="0 0 32 32"
   version="1.1"
   id="svg9"
   sodipodi:docname="dialog-error.svg"
   inkscape:version="1.3.2 (091e20ef0f, 2023-11-25)"
   xmlns:inkscape="http://www.inkscape.org/namespaces/inkscape"
   xmlns:sodipodi="http://sodipodi.sourceforge.net/DTD/sodipodi-0.dtd"
   xmlns:xlink="http://www.w3.org/1999/xlink"
   xmlns="http://www.w3.org/2000/svg"
   xmlns:svg="http://www.w3.org/2000/svg">
  <defs
     id="defs9">
    <linearGradient
       inkscape:collect="always"
       xlink:href="#linearGradient4400"
       id="linearGradient4394"
       y1="19.999998"
       x1="19.999998"
       y2="44"
       x2="43.999996"
       gradientUnits="userSpaceOnUse"
       gradientTransform="matrix(0.63475302,0,0,0.63475302,-4.3120959,-8.1860558)" />
    <linearGradient
       inkscape:collect="always"
       id="linearGradient4400">
      <stop
         style="stop-color:#020303"
         id="stop4402" />
      <stop
         offset="1"
         style="stop-color:#424649;stop-opacity:0"
         id="stop4404" />
    </linearGradient>
  </defs>
  <sodipodi:namedview
     id="namedview9"
     pagecolor="#ffffff"
     bordercolor="#999999"
     borderopacity="1"
     inkscape:showpageshadow="2"
     inkscape:pageopacity="0"
     inkscape:pagecheckerboard="0"
     inkscape:deskcolor="#d1d1d1"
     showgrid="true"
     inkscape:zoom="11.984375"
     inkscape:cx="13.934811"
     inkscape:cy="23.864407"
     inkscape:window-width="1920"
     inkscape:window-height="996"
     inkscape:window-x="0"
     inkscape:window-y="0"
     inkscape:window-maximized="1"
     inkscape:current-layer="svg9">
    <inkscape:grid
       id="grid9"
       units="px"
       originx="0"
       originy="0"
       spacingx="1"
       spacingy="1"
       empcolor="#0099e5"
       empopacity="0.30196078"
       color="#0099e5"
       opacity="0.14901961"
       empspacing="5"
       dotted="false"
       gridanglex="30"
       gridanglez="30"
       visible="true" />
  </sodipodi:namedview>
  <linearGradient
     id="a"
     x2="0"
     y1="43.999989"
     y2="6.999989"
     gradientTransform="matrix(-.7567567 0 0 .7567567 35.297299 -3.297288)"
     gradientUnits="userSpaceOnUse">
    <stop
       stop-color="#faae2a"
       offset="0"
       id="stop1"
       style="stop-color:#c61423;stop-opacity:1;" />
    <stop
       stop-color="#ffc35a"
       offset="1"
       id="stop2"
       style="stop-color:#dc2b41;stop-opacity:1;" />
  </linearGradient>
  <linearGradient
     id="b"
     x1="7.923077"
     x2="23"
     y1="5.76923"
     y2="20.846154"
     gradientUnits="userSpaceOnUse">
    <stop
       stop-color="#292c2f"
       offset="0"
       id="stop3" />
    <stop
       stop-opacity="0"
       offset="1"
       id="stop4" />
  </linearGradient>
  <linearGradient
     id="c"
     x2="0"
     y1="29.999973"
     y2="2"
     gradientTransform="matrix(1.0769231,0,0,-1.0769231,-32.230769,27.307692)"
     gradientUnits="userSpaceOnUse">
    <stop
       stop-color="#fcd994"
       offset="0"
       id="stop5" />
    <stop
       stop-color="#fff6e1"
       offset="1"
       id="stop6" />
  </linearGradient>
  <g
     stroke-width="0.538462"
     id="g9"
     transform="translate(0,0.5)">
    <path
       d="m 30,4 v 16 c 0,1.140808 -1,2 -2,2 H 16 L 9,29 V 22 H 4 C 3,22 2,21.099087 2,20 V 4 C 2,3.0682562 2.9530639,2 4,2 h 24 c 1,0 2,0.872803 2,2 z"
       fill-rule="evenodd"
       id="path6"
       sodipodi:nodetypes="cccccccccccc"
       style="fill:#c83771;fill-opacity:1" />
    <path
       d="m 2.3,21 c 0.3288723,0.415893 0.7,1 1.6,1 h 5 v -1 z m 13.6,0 -7,7 v 1 l 7,-7 h 11 c 1.1,0 2.08913,0.115933 2.8,-1 z"
       fill-rule="evenodd"
       id="path9"
       sodipodi:nodetypes="cccccccccccc"
       style="fill:#de87aa;fill-opacity:1" />
  </g>
  <path
     style="opacity:0.2;fill:url(#linearGradient4394);fill-rule:evenodd;stroke-width:0.634753"
     id="path4389"
     d="M 23.617037,5.4065812 9.3549286,19.76291 15.094978,25.502962 16.44631,24.151631 h 10.790798 a 16.503574,16.503574 0 0 0 5.128856,-9.996118 z" />
  <path
     inkscape:connector-curvature="0"
     id="rect4168"
     d="m 22.719457,4.5090032 0.89758,0.897576 -6.71946,6.7194608 6.71946,6.719456 -0.89758,0.897579 L 16,13.023617 9.2805419,19.743075 8.3829632,18.845496 15.10242,12.12604 8.3829632,5.4065792 9.2805419,4.5090032 16,11.228459 Z"
     style="fill:#f4d7e3" />
</svg>
