<?xml version="1.0" encoding="UTF-8" standalone="no"?>
<!-- Created with Inkscape (http://www.inkscape.org/) -->

<svg
   width="64"
   version="1.1"
   height="64"
   id="svg1"
   sodipodi:docname="dialog-password.svg"
   inkscape:version="1.3.2 (091e20ef0f, 2023-11-25)"
   xmlns:inkscape="http://www.inkscape.org/namespaces/inkscape"
   xmlns:sodipodi="http://sodipodi.sourceforge.net/DTD/sodipodi-0.dtd"
   xmlns:xlink="http://www.w3.org/1999/xlink"
   xmlns="http://www.w3.org/2000/svg"
   xmlns:svg="http://www.w3.org/2000/svg">
  <sodipodi:namedview
     id="namedview1"
     pagecolor="#ffffff"
     bordercolor="#999999"
     borderopacity="1"
     inkscape:showpageshadow="2"
     inkscape:pageopacity="0"
     inkscape:pagecheckerboard="0"
     inkscape:deskcolor="#d1d1d1"
     showgrid="true"
     inkscape:zoom="4.2205436"
     inkscape:cx="-4.7387261"
     inkscape:cy="49.756624"
     inkscape:window-width="1920"
     inkscape:window-height="996"
     inkscape:window-x="0"
     inkscape:window-y="0"
     inkscape:window-maximized="1"
     inkscape:current-layer="layer1">
    <inkscape:grid
       id="grid1"
       units="px"
       originx="0"
       originy="0"
       spacingx="1"
       spacingy="1"
       empcolor="#0099e5"
       empopacity="0.30196078"
       color="#0099e5"
       opacity="0.14901961"
       empspacing="5"
       dotted="false"
       gridanglex="30"
       gridanglez="30"
       visible="true" />
  </sodipodi:namedview>
  <defs
     id="defs3811">
    <linearGradient
       inkscape:collect="always"
       id="linearGradient4293">
      <stop
         id="stop4295" />
      <stop
         offset="1"
         style="stop-opacity:0"
         id="stop4297" />
    </linearGradient>
    <linearGradient
       id="linearGradient3052">
      <stop
         style="stop-color:#555753"
         id="stop3054" />
      <stop
         offset="1"
         style="stop-color:#2e3436"
         id="stop3056" />
    </linearGradient>
    <linearGradient
       inkscape:collect="always"
       xlink:href="#a-2"
       id="linearGradient848"
       gradientUnits="userSpaceOnUse"
       gradientTransform="matrix(0.44444702,0,0,0.42345356,-176.2535,-216.85348)"
       y1="543.79999"
       x2="0"
       y2="502.66" />
    <linearGradient
       id="a-2"
       x2="0"
       y1="543.79999"
       y2="502.66"
       gradientTransform="matrix(0.66667,0,0,0.63518,-256.38,-317.28)"
       gradientUnits="userSpaceOnUse">
      <stop
         stop-color="#c6cdd1"
         offset="0"
         id="stop2-0" />
      <stop
         stop-color="#e0e5e7"
         offset="1"
         id="stop4-2" />
    </linearGradient>
    <linearGradient
       inkscape:collect="always"
       xlink:href="#a-2"
       id="linearGradient850"
       gradientUnits="userSpaceOnUse"
       gradientTransform="matrix(0.44444702,0,0,0.42345356,-176.2535,-216.85348)"
       y1="543.79999"
       x2="0"
       y2="502.66" />
    <linearGradient
       id="linearGradient2"
       x2="0"
       y1="543.79999"
       y2="502.66"
       gradientTransform="matrix(0.66667,0,0,0.63518,-256.38,-317.28)"
       gradientUnits="userSpaceOnUse">
      <stop
         stop-color="#c6cdd1"
         offset="0"
         id="stop1" />
      <stop
         stop-color="#e0e5e7"
         offset="1"
         id="stop2" />
    </linearGradient>
    <linearGradient
       id="d"
       gradientUnits="userSpaceOnUse"
       x1="4"
       x2="4"
       y1="3"
       y2="45">
      <stop
         offset="0"
         stop-color="#292c2f"
         id="stop3" />
      <stop
         offset="1"
         stop-opacity="0"
         id="stop4" />
    </linearGradient>
    <linearGradient
       id="a-8"
       gradientUnits="userSpaceOnUse"
       x1="4"
       x2="4"
       y1="4"
       y2="45"
       gradientTransform="translate(736.85718,157.93361)">
      <stop
         offset="0"
         stop-color="#21c9fb"
         id="stop5-9" />
      <stop
         offset="1"
         stop-color="#1a86f2"
         id="stop6-7" />
    </linearGradient>
    <linearGradient
       inkscape:collect="always"
       xlink:href="#linearGradient4293"
       id="linearGradient4279-5"
       y1="28.027916"
       x1="26.515749"
       y2="52.38332"
       x2="52.41124"
       gradientUnits="userSpaceOnUse"
       gradientTransform="translate(737.85717,156.93361)" />
    <linearGradient
       inkscape:collect="always"
       xlink:href="#linearGradient3052"
       id="linearGradient4479-6"
       y1="537.79797"
       y2="565.79797"
       x2="0"
       gradientUnits="userSpaceOnUse"
       gradientTransform="translate(353.28573,-358.86441)" />
  </defs>
  <metadata
     id="metadata3814" />
  <g
     inkscape:label="Layer 1"
     inkscape:groupmode="layer"
     id="layer1"
     transform="matrix(1 0 0 1 -736.85718 -157.93361)">
    <g
       transform="matrix(1.4999988,0,0,1.4999993,168.00266,-607.76601)"
       id="g35"
       style="stroke-width:0.666667">
      <path
         d="M 32,9 31,8 1.123,27 3.555,30 H 28.8 c 1.774,0 3.2,-1.426 3.2,-3.2 z"
         transform="translate(384.57,515.8)"
         id="path19"
         style="fill:url(#linearGradient848);stroke-width:0.666667"
         inkscape:connector-curvature="0" />
      <path
         d="M 3.2,2 A 3.192,3.192 0 0 0 0,5.2 V 26.8 C 0,28.575 1.426,30 3.2,30 H 3.555 L 1.123,27 31,8 32,9 V 5.2 C 32,3.425 30.574,2 28.8,2 Z"
         transform="translate(384.57,515.8)"
         id="path21"
         style="fill:url(#linearGradient850);stroke-width:0.666667"
         inkscape:connector-curvature="0" />
      <path
         d="m 387.07,517.8 a 2.492,2.492 0 0 0 -2.5,2.5 v 1.5 h 32 v -1.5 a 2.492,2.492 0 0 0 -2.5,-2.5 z"
         id="path23"
         inkscape:connector-curvature="0"
         style="fill:#566069;stroke-width:0.666667" />
      <path
         d="m 384.57,521.8 h 32 v 1 h -32 z"
         id="path25"
         inkscape:connector-curvature="0"
         style="fill:#3daee9;stroke-width:0.666667" />
      <rect
         x="385.57001"
         y="523.79999"
         width="30"
         height="20"
         ry="1.3333341"
         id="rect27"
         style="fill:#ffffff;stroke-width:0.666667"
         rx="1.3333344" />
      <rect
         x="413.57001"
         y="518.79999"
         width="2"
         height="2"
         rx="0.66666722"
         id="rect29"
         style="fill:#eff0f1;stroke-width:0.666667"
         ry="0.66666704" />
    </g>
    <path
       style="opacity:0.2;fill:url(#linearGradient4279-5);fill-rule:evenodd;stroke-width:1"
       id="path4268-2"
       d="m 769.25173,184.80586 -2.81078,1.40537 -0.70272,1.40548 -0.70265,1.40536 v 5.6216 h -2.81086 v 9.83784 l 6.32434,6.32435 h 22.48652 v -5.6216 l -18.97301,-18.97303 z" />
    <path
       inkscape:connector-curvature="0"
       style="fill:url(#linearGradient4479-6);stroke-width:1"
       id="rect4136-1-7"
       d="m 769.25173,184.80586 c -2.33577,0 -4.21615,1.88045 -4.21615,4.21621 v 1.40541 4.21619 h -1.40543 -1.40543 v 1.05408 8.78376 h 14.05408 v -9.83784 h -2.81083 v -5.6216 c 0,-2.33576 -1.88039,-4.21621 -4.21624,-4.21621 z m 0,0.7027 c 1.9465,0 3.51357,1.567 3.51357,3.51351 v 5.6216 h -7.02707 v -5.6216 c 0,-1.94651 1.56707,-3.51351 3.5135,-3.51351 z m -6.32431,9.8379 h 2.81081 7.02707 2.8108 v 8.43238 h -6.32437 -6.32431 z" />
  </g>
</svg>
