<?xml version="1.0" encoding="UTF-8" standalone="no"?>
<svg
   width="64"
   height="64"
   version="1.1"
   id="svg29"
   sodipodi:docname="image-missing.svg"
   inkscape:version="1.3.2 (091e20ef0f, 2023-11-25)"
   viewBox="0 0 64 64"
   xmlns:inkscape="http://www.inkscape.org/namespaces/inkscape"
   xmlns:sodipodi="http://sodipodi.sourceforge.net/DTD/sodipodi-0.dtd"
   xmlns:xlink="http://www.w3.org/1999/xlink"
   xmlns="http://www.w3.org/2000/svg"
   xmlns:svg="http://www.w3.org/2000/svg">
  <style
     type="text/css"
     id="current-color-scheme">
      .ColorScheme-Text {
        color:#232629;
      }
      .ColorScheme-Highlight {
        color:#3daee9;
      }
   </style>
  <sodipodi:namedview
     id="namedview31"
     pagecolor="#ffffff"
     bordercolor="#666666"
     borderopacity="1.0"
     inkscape:pageshadow="2"
     inkscape:pageopacity="0.0"
     inkscape:pagecheckerboard="0"
     showgrid="false"
     inkscape:zoom="6.9384853"
     inkscape:cx="24.501025"
     inkscape:cy="28.968859"
     inkscape:window-width="1920"
     inkscape:window-height="996"
     inkscape:window-x="0"
     inkscape:window-y="0"
     inkscape:window-maximized="1"
     inkscape:current-layer="svg29"
     inkscape:showpageshadow="2"
     inkscape:deskcolor="#d1d1d1" />
  <defs
     id="defs13">
    <linearGradient
       id="a"
       y1="392.35999"
       y2="365.35999"
       x2="0"
       gradientUnits="userSpaceOnUse"
       gradientTransform="translate(309.57,152.44)">
      <stop
         stop-color="#fff"
         stop-opacity="0"
         id="stop2" />
      <stop
         offset="1"
         stop-color="#fff"
         stop-opacity=".2"
         id="stop4" />
    </linearGradient>
    <linearGradient
       id="b"
       y1="17"
       y2="24"
       x1="47"
       x2="54"
       gradientUnits="userSpaceOnUse"
       gradientTransform="matrix(2.0375909,0,0,1.9999987,-56.029909,-15.999968)">
      <stop
         stop-color="#060606"
         id="stop7" />
      <stop
         offset="1"
         stop-opacity="0"
         id="stop9" />
    </linearGradient>
    <linearGradient
       xlink:href="#a"
       id="c"
       x1="5"
       y1="30"
       x2="5"
       y2="2"
       gradientUnits="userSpaceOnUse"
       gradientTransform="matrix(2.0375909,0,0,1.9999987,-41.766773,2.1399988e-5)" />
    <radialGradient
       id="radialGradient11997"
       cx="16.5"
       cy="26.5"
       r="11.5"
       gradientTransform="matrix(0.9167,0.91383,-0.9167,0.91383,40.7535,-4.8034143)"
       gradientUnits="userSpaceOnUse">
      <stop
         stop-color="#da4453"
         offset="0"
         id="stop5" />
      <stop
         stop-color="#da4453"
         offset="1"
         id="stop6" />
    </radialGradient>
  </defs>
  <path
     d="M 39.736864,4.0000188 H 15.285773 C 11.899297,4.0000188 9.173,6.676017 9.173,10.000015 v 43.99997 c 0,3.323998 2.726297,5.999996 6.112773,5.999996 H 47.887227 C 51.273703,59.999981 54,57.323983 54,53.999985 V 18.000009 Z"
     id="path15"
     style="fill:#2b3955;fill-opacity:1;stroke-width:2.01871" />
  <path
     d="m 15.285773,4.0000188 a 6.0923968,5.9799961 0 0 0 -4.325806,1.7539988 c -0.06317,0.062 -0.04075,0.1799999 -0.101879,0.2459999 H 39.736864 V 4.0000188 Z"
     color="#000000"
     opacity="0.5"
     fill="#ffffff"
     id="path17"
     style="display:inline;stroke-width:2.01871" />
  <path
     d="m 10.85605,57.999983 c 0.06113,0.066 0.04075,0.183999 0.103917,0.245999 a 6.0923968,5.9799961 0 0 0 4.325806,1.753999 h 32.601454 a 6.0923968,5.9799961 0 0 0 4.325806,-1.753999 c 0.06316,-0.062 0.04075,-0.18 0.101879,-0.245999 H 10.858088 Z"
     id="path19"
     class="ColorScheme-Highlight"
     style="display:inline;opacity:1;fill:currentColor;fill-opacity:1;stroke-width:2.01871" />
  <path
     d="M 54,18.000009 39.736864,4.0000188 V 18.000009 Z"
     color="#000000"
     opacity="0.5"
     fill="#ffffff"
     fill-rule="evenodd"
     id="path21"
     style="stroke-width:2.01871" />
  <path
     d="M 39.736864,18.000009 54,32 V 18.000009 Z"
     opacity="0.1"
     fill="url(#b)"
     fill-rule="evenodd"
     id="path23"
     style="fill:url(#b);stroke-width:2.01871" />
  <path
     d="m 42.1285,23.982486 a 14.909,14.862 0 0 0 -21.084,0 14.909,14.862 0 0 0 0,21.018 14.909,14.862 0 0 0 21.084,0 14.909,14.862 0 0 0 0,-21.018 z m -2.7125,2.8147 a 10.942,10.994 65.686 0 1 1.2264,13.98 l -15.199,-15.151 a 10.942,10.994 65.686 0 1 13.973,1.1708 z m -16.724,1.5689 15.151,15.103 a 10.942,10.994 65.686 0 1 -13.99,-1.1566 10.942,10.994 65.686 0 1 -1.1602,-13.947 z"
     fill="url(#radialGradient11997)"
     stroke-width="1.2944"
     id="path9"
     style="fill:#c83771;fill-opacity:1" />
</svg>
