<?xml version="1.0" encoding="UTF-8" standalone="no"?>
<!-- Created with Inkscape (http://www.inkscape.org/) -->

<svg
   width="64"
   version="1.1"
   height="64"
   id="svg1"
   sodipodi:docname="security-low.svg"
   inkscape:version="1.3.2 (091e20ef0f, 2023-11-25)"
   xmlns:inkscape="http://www.inkscape.org/namespaces/inkscape"
   xmlns:sodipodi="http://sodipodi.sourceforge.net/DTD/sodipodi-0.dtd"
   xmlns:xlink="http://www.w3.org/1999/xlink"
   xmlns="http://www.w3.org/2000/svg"
   xmlns:svg="http://www.w3.org/2000/svg">
  <sodipodi:namedview
     id="namedview1"
     pagecolor="#ffffff"
     bordercolor="#999999"
     borderopacity="1"
     inkscape:showpageshadow="2"
     inkscape:pageopacity="0"
     inkscape:pagecheckerboard="0"
     inkscape:deskcolor="#d1d1d1"
     inkscape:zoom="11.9375"
     inkscape:cx="32"
     inkscape:cy="32"
     inkscape:window-width="1920"
     inkscape:window-height="996"
     inkscape:window-x="0"
     inkscape:window-y="0"
     inkscape:window-maximized="1"
     inkscape:current-layer="layer1" />
  <defs
     id="defs3811">
    <linearGradient
       inkscape:collect="always"
       id="linearGradient4227">
      <stop
         style="stop-color:#292c2f"
         id="stop4229" />
      <stop
         offset="1"
         style="stop-opacity:0"
         id="stop4231" />
    </linearGradient>
    <linearGradient
       inkscape:collect="always"
       id="linearGradient4191-1-7"
       xlink:href="#linearGradient4227"
       y1="9"
       y2="23"
       x1="9.00001"
       gradientUnits="userSpaceOnUse"
       x2="23.00004"
       gradientTransform="matrix(2 0 0 2 735.85719 158.93361)" />
  </defs>
  <metadata
     id="metadata3814" />
  <g
     inkscape:label="Layer 1"
     inkscape:groupmode="layer"
     id="layer1"
     transform="matrix(1 0 0 1 -736.85718 -157.93361)">
    <path
       style="fill:#c83771;stroke-linecap:square;stroke-width:2"
       id="rect4186-2-1"
       d="M 32 6 C 25.66667 9.35447 19.33333 10.72491 13 12 L 13 37 C 13 44 23.26331 53.561337 32 57.998047 C 40.73669 53.561337 51 44 51 37 L 51 12 C 44.66667 10.72491 38.33333 9.35447 32 6 z "
       transform="matrix(1 0 0 1 736.85718 157.93361)" />
    <path
       inkscape:connector-curvature="0"
       style="fill:url(#linearGradient4191-1-7);opacity:0.2;fill-rule:evenodd"
       id="path4184-5"
       d="m 779.62257,175.16823 -8.76539,9.76538 -2,2 -10,10 -1.35192,1.11731 17.0391,17.88269 20.31282,0 0,-25.53077 z" />
    <path
       inkscape:connector-curvature="0"
       style="fill:#e9afc6;fill-opacity:1"
       id="rect4168"
       d="m 779.44312,174.93361 1.41406,1.41406 -10.58594,10.58594 10.58594,10.58594 -1.41406,1.41406 -10.58594,-10.58594 -10.58594,10.58594 -1.41406,-1.41406 10.58594,-10.58594 -10.58594,-10.58594 1.41406,-1.41406 10.58594,10.58594 10.58594,-10.58594 z" />
    <path
       inkscape:connector-curvature="0"
       style="fill:#782144;stroke-linecap:square;stroke-width:2"
       id="rect4186-2-1-5"
       d="m 749.85718,192.93361 0,2 c 0,7 10.26331,16.56134 19,20.99805 8.73669,-4.43671 19,-13.99805 19,-20.99805 l 0,-2 c 0,7 -10.26331,16.56134 -19,20.99805 -8.73669,-4.43671 -19,-13.99805 -19,-20.99805 z" />
  </g>
</svg>
